<svg width="90" height="90" viewBox="0 0 90 90" fill="none" xmlns="http://www.w3.org/2000/svg">
<path fill-rule="evenodd" clip-rule="evenodd" d="M85.047 45C85.047 22.9089 67.1273 5 45.0235 5C22.9194 5 5 22.9089 5 45C5 67.0923 22.9194 85 45.0235 85C67.1273 85 85.047 67.0923 85.047 45ZM37.7387 22.7778C37.424 23.3949 37.424 24.2029 37.424 25.8188V34.9771C37.424 35.3807 37.424 35.5825 37.475 35.7691C37.5202 35.9344 37.5945 36.0904 37.6944 36.2296C37.8071 36.3868 37.9639 36.5141 38.2773 36.7686L40.5953 38.6505C40.9732 38.9572 41.1621 39.1106 41.2307 39.2953C41.2908 39.4572 41.2908 39.6354 41.2307 39.7973C41.1621 39.9819 40.9732 40.1353 40.5953 40.442L38.2774 42.324C37.9639 42.5785 37.8071 42.7057 37.6944 42.8629C37.5945 43.0022 37.5202 43.1581 37.475 43.3235C37.424 43.5101 37.424 43.7119 37.424 44.1155V64.1811C37.424 65.7968 37.424 66.6047 37.7387 67.2218C38.0155 67.7651 38.4571 68.2061 39.0003 68.4827C39.6179 68.7974 40.4263 68.7974 42.0431 68.7974H48.0037C49.6205 68.7974 50.429 68.7974 51.0464 68.4827C51.5898 68.2061 52.0312 67.7651 52.3082 67.2218C52.623 66.6047 52.623 65.7968 52.623 64.1811V55.0226C52.623 54.6189 52.623 54.417 52.5718 54.2308C52.5267 54.0654 52.4525 53.9092 52.3525 53.77C52.2396 53.6128 52.0829 53.4856 51.7695 53.2313L49.4515 51.3491C49.0737 51.0425 48.8848 50.8891 48.8162 50.7045C48.7561 50.5425 48.7561 50.3644 48.8162 50.2025C48.8848 50.0178 49.0737 49.8644 49.4515 49.5577L51.7695 47.6758C52.0829 47.4213 52.2396 47.294 52.3525 47.1368C52.4525 46.9976 52.5267 46.8416 52.5718 46.6763C52.623 46.4897 52.623 46.2879 52.623 45.8842V25.8188C52.623 24.2029 52.623 23.3949 52.3082 22.7778C52.0312 22.2349 51.5898 21.7935 51.0464 21.5169C50.429 21.2024 49.6205 21.2024 48.0037 21.2024H42.0431C40.4263 21.2024 39.6179 21.2024 39.0003 21.5169C38.4571 21.7935 38.0155 22.2349 37.7387 22.7778Z" fill="#1A285F"/>
</svg>
