<svg width="90" height="90" viewBox="0 0 90 90" fill="none" xmlns="http://www.w3.org/2000/svg">
<path d="M61.2093 44.8552L23.6133 69.823C21.8715 70.9842 21 72.8709 21 74.7582V81L66.5801 51.097C68.6121 49.6455 69.9188 47.3225 69.9188 44.8552C69.9188 42.3874 68.7576 40.0644 66.5801 38.6128L21 9V14.8062C21 16.8389 22.0163 18.7256 23.6133 19.742L61.2093 44.8552Z" fill="#004CFF"/>
<path d="M38.5644 46.8871C40.5965 48.1932 43.2097 48.1932 45.2418 46.8871L48.4351 44.7096L24.629 28.5969C23.1775 27.5805 21 28.5969 21 30.4835V35.2738L33.3385 43.5484L38.5644 46.8871Z" fill="#004CFF"/>
</svg>
