<svg width="90" height="90" viewBox="0 0 90 90" fill="none" xmlns="http://www.w3.org/2000/svg">
<path d="M70.8333 4.99805H19.1667C11.3426 4.99805 5 11.3407 5 19.1648V68.8318C5 76.6559 11.3426 82.9985 19.1667 82.9985H70.8333C78.6574 82.9985 85 76.6559 85 68.8318V19.1648C85 11.3407 78.6574 4.99805 70.8333 4.99805Z" fill="#470137"/>
<path d="M47.0491 25.513L37.067 41.9887L47.7467 59.4842C47.8152 59.6066 47.8344 59.7506 47.8004 59.8866C47.7643 60.0125 47.6394 59.9332 47.4248 59.9684H39.8042C39.2674 59.9684 38.8917 59.9495 38.677 59.5915C37.9609 58.1962 37.2453 56.8098 36.5304 55.4323C35.8142 54.0554 35.054 52.6511 34.2496 51.2194C33.4446 49.7889 32.6486 48.3399 31.8614 46.8724H31.8077C31.0916 48.3038 30.3492 49.7349 29.5805 51.1658C28.8108 52.5972 28.0506 54.0194 27.2998 55.4323C26.5485 56.8461 25.7793 58.2504 24.9921 59.6452C24.8488 59.9672 24.5979 60.0004 24.2407 60.0004H16.8885C16.7459 60.0004 16.6653 60.0569 16.6469 59.9135C16.6267 59.7826 16.6554 59.6489 16.7275 59.5378L27.0851 42.5254L16.9957 25.4593C16.8885 25.3168 16.8706 25.2005 16.942 25.1105C16.9816 25.0647 17.0314 25.0287 17.0873 25.0054C17.1432 24.9821 17.2037 24.9722 17.2641 24.9763H24.831C24.996 24.9672 25.161 24.9947 25.3141 25.0568C25.4424 25.1295 25.5525 25.2305 25.636 25.352C26.2801 26.7833 26.9956 28.2144 27.7827 29.6453C28.5693 31.0767 29.3654 32.49 30.1709 33.885C30.9759 35.2804 31.7183 36.6936 32.3981 38.1247H32.4518C33.167 36.6581 33.8915 35.227 34.6253 33.8314C35.3582 32.436 36.1095 31.0317 36.8792 29.6185C37.6482 28.2055 38.3906 26.8013 39.1064 25.4056C39.1475 25.2732 39.2214 25.1532 39.3211 25.0568C39.4536 24.9896 39.6026 24.9616 39.7504 24.9763H46.7807C46.8485 24.9595 46.9199 24.9664 46.9833 24.9956C47.0467 25.0249 47.0983 25.0749 47.1295 25.1373C47.1607 25.1998 47.1698 25.271 47.1552 25.3392C47.1405 25.4075 47.1032 25.4688 47.0491 25.513Z" fill="#FF61F6"/>
<path d="M62.445 60.6637C59.9748 60.7012 57.5273 60.1879 55.2804 59.161C53.1873 58.1922 51.4376 56.6109 50.2627 54.6261C49.0459 52.6052 48.4376 50.0739 48.438 47.0322C48.4178 44.5691 49.0472 42.1442 50.2627 40.0018C51.5147 37.8196 53.356 36.0341 55.5757 34.8498C57.9009 33.5618 60.7094 32.9178 64.0013 32.9178C64.1799 32.9178 64.4124 32.9268 64.6989 32.9447C64.9849 32.9631 65.3248 32.9899 65.7186 33.0252V22.4528C65.7186 22.2028 65.826 22.0771 66.0407 22.0771H72.8026C72.8463 22.0708 72.8909 22.0748 72.9328 22.0888C72.9747 22.1028 73.0128 22.1263 73.0441 22.1575C73.0753 22.1888 73.0989 22.2269 73.1129 22.2688C73.1269 22.3107 73.1309 22.3553 73.1247 22.399V54.1163C73.1247 54.7251 73.1515 55.387 73.2051 56.1019C73.2588 56.818 73.3036 57.462 73.3394 58.0339C73.3459 58.1454 73.3187 58.2563 73.2612 58.352C73.2038 58.4478 73.1187 58.524 73.0173 58.5706C71.2728 59.2982 69.4558 59.8379 67.597 60.1806C65.8974 60.4943 64.1733 60.656 62.445 60.6637ZM65.7186 54.0089V39.3579C65.4285 39.2793 65.1323 39.2254 64.8332 39.1968C64.4676 39.1601 64.1003 39.1422 63.7329 39.1432C62.4306 39.1302 61.1436 39.4244 59.9762 40.0018C58.8393 40.567 57.8685 41.4177 57.1588 42.4705C56.4251 43.5439 56.0584 44.9571 56.0586 46.7102C56.0325 47.8801 56.2235 49.0447 56.6221 50.1449C56.9464 51.0314 57.4591 51.837 58.1248 52.5062C58.7621 53.122 59.5337 53.5813 60.3787 53.848C61.2714 54.137 62.2043 54.2819 63.1426 54.2773C63.6432 54.2773 64.1083 54.2594 64.5379 54.2236C64.9379 54.1935 65.3336 54.1215 65.7186 54.0089Z" fill="#FF61F6"/>
</svg>
