<svg width="300" height="100" viewBox="0 0 300 100" fill="none" xmlns="http://www.w3.org/2000/svg">
<path d="M140.641 20H100.897C94.8789 20 90 24.8789 90 30.8974V69.1026C90 75.1211 94.8789 80 100.897 80H140.641C146.66 80 151.538 75.1211 151.538 69.1026V30.8974C151.538 24.8789 146.66 20 140.641 20Z" fill="#470137"/>
<path d="M122.348 35.7804L114.67 48.454L122.885 61.912C122.937 62.0061 122.952 62.1168 122.926 62.2215C122.898 62.3183 122.802 62.2574 122.637 62.2845H116.775C116.362 62.2845 116.073 62.2699 115.908 61.9945C115.357 60.9212 114.807 59.8548 114.257 58.7952C113.706 57.736 113.121 56.6557 112.502 55.5545C111.883 54.4541 111.271 53.3395 110.665 52.2106H110.624C110.073 53.3117 109.502 54.4126 108.911 55.5132C108.319 56.6143 107.734 57.7083 107.156 58.7952C106.578 59.8827 105.987 60.9629 105.381 62.0358C105.271 62.2835 105.078 62.309 104.803 62.309H99.1477C99.038 62.309 98.976 62.3525 98.9619 62.2422C98.9463 62.1415 98.9684 62.0387 99.0239 61.9532L106.991 48.8668L99.2302 35.7391C99.1477 35.6295 99.1339 35.54 99.1889 35.4708C99.2194 35.4356 99.2576 35.4079 99.3006 35.39C99.3436 35.3721 99.3902 35.3644 99.4366 35.3676H105.257C105.384 35.3606 105.511 35.3817 105.629 35.4295C105.728 35.4855 105.812 35.5631 105.877 35.6566C106.372 36.7576 106.922 37.8584 107.528 38.9591C108.133 40.0602 108.745 41.1473 109.365 42.2204C109.984 43.2937 110.555 44.3808 111.078 45.4817H111.119C111.67 44.3535 112.227 43.2527 112.791 42.1792C113.355 41.1058 113.933 40.0256 114.525 38.9385C115.117 37.8516 115.688 36.7714 116.238 35.6978C116.27 35.596 116.327 35.5037 116.404 35.4295C116.505 35.3778 116.62 35.3563 116.734 35.3676H122.142C122.194 35.3547 122.249 35.3599 122.298 35.3825C122.346 35.405 122.386 35.4434 122.41 35.4914C122.434 35.5395 122.441 35.5943 122.43 35.6468C122.419 35.6993 122.39 35.7464 122.348 35.7804Z" fill="#FF61F6"/>
<path d="M134.191 62.8188C132.291 62.8477 130.408 62.4528 128.68 61.6629C127.07 60.9177 125.724 59.7013 124.82 58.1745C123.884 56.62 123.416 54.6728 123.417 52.3331C123.401 50.4384 123.885 48.5731 124.82 46.9252C125.783 45.2466 127.2 43.8731 128.907 42.9621C130.696 41.9713 132.856 41.4759 135.388 41.4759C135.526 41.4759 135.705 41.4828 135.925 41.4966C136.145 41.5107 136.406 41.5314 136.709 41.5585V33.4259C136.709 33.2337 136.792 33.137 136.957 33.137H142.159C142.192 33.1322 142.226 33.1352 142.259 33.146C142.291 33.1567 142.32 33.1748 142.344 33.1989C142.368 33.2229 142.386 33.2522 142.397 33.2844C142.408 33.3167 142.411 33.351 142.406 33.3846V57.7823C142.406 58.2506 142.427 58.7598 142.468 59.3098C142.509 59.8606 142.544 60.356 142.571 60.7959C142.577 60.8817 142.556 60.967 142.511 61.0406C142.467 61.1143 142.402 61.1729 142.324 61.2087C140.982 61.7684 139.584 62.1836 138.154 62.4472C136.847 62.6885 135.521 62.8128 134.191 62.8188ZM136.709 57.6998V46.4298C136.486 46.3694 136.258 46.3279 136.028 46.3059C135.747 46.2776 135.464 46.2639 135.182 46.2647C134.18 46.2547 133.19 46.481 132.292 46.9252C131.418 47.3599 130.671 48.0142 130.125 48.8241C129.56 49.6498 129.278 50.7369 129.279 52.0854C129.258 52.9853 129.405 53.8811 129.712 54.7275C129.961 55.4094 130.356 56.0291 130.868 56.5439C131.358 57.0175 131.952 57.3708 132.602 57.576C133.288 57.7983 134.006 57.9098 134.728 57.9062C135.113 57.9062 135.471 57.8924 135.801 57.8649C136.109 57.8417 136.413 57.7864 136.709 57.6998Z" fill="#FF61F6"/>
<path d="M186.89 40.0324L179.889 51.4792L187.372 63.6298C187.52 63.815 187.409 63.9632 187.224 64.0002H182.667C182.371 64.0002 182.223 63.9262 182.112 63.7039C180.334 60.6662 178.518 57.5915 176.703 54.4057H176.666C174.999 57.5174 173.258 60.6662 171.517 63.7039C171.406 63.9262 171.295 64.0002 171.072 64.0002H166.738C166.479 64.0002 166.479 63.778 166.59 63.6298L173.851 51.7755L166.738 39.9954C166.627 39.8102 166.738 39.662 166.923 39.662H171.443C171.665 39.662 171.776 39.699 171.887 39.9213C173.517 42.996 175.37 46.0336 177.037 49.1083H177.074C178.704 46.0336 180.445 42.996 182.149 39.9583C182.223 39.7731 182.334 39.662 182.593 39.662H186.742C186.965 39.662 187.002 39.8102 186.89 40.0324Z" fill="#000008"/>
<path d="M190.032 63.6668V39.9954C190.032 39.8102 190.069 39.7361 190.291 39.699C191.366 39.662 193.885 39.5879 197.293 39.5879C205.998 39.5879 210.369 44.5148 210.369 51.4051C210.369 60.444 203.479 64.0743 197.219 64.0743C194.885 64.0743 191.477 64.0743 190.291 64.0002C190.143 64.0002 190.032 63.8891 190.032 63.6668ZM194.514 43.5517V60.1476C195.255 60.1847 196.07 60.1847 197.033 60.1847C202.257 60.1847 205.776 57.147 205.776 51.5162C205.776 46.1448 202.257 43.4776 197.256 43.4776C196.218 43.4776 195.403 43.5146 194.514 43.5517Z" fill="#000008"/>
</svg>
