<svg width="90" height="90" viewBox="0 0 90 90" fill="none" xmlns="http://www.w3.org/2000/svg">
<path fill-rule="evenodd" clip-rule="evenodd" d="M84.9986 12.8125C84.9986 8.50062 81.498 5 77.1862 5H12.8124C8.50056 5 5 8.50062 5 12.8125V77.1875C5 81.4994 8.50056 85 12.8124 85H77.1862C81.498 85 84.9986 81.4994 84.9986 77.1875V12.8125Z" fill="#891B26"/>
<path fill-rule="evenodd" clip-rule="evenodd" d="M41.4175 79.1406L21.2772 44.2697L10.8602 62.3053V76.0156C10.8602 77.7404 12.2602 79.1406 13.9851 79.1406H41.4175ZM56.1039 79.1406H44.4916C44.4916 79.1406 29.4489 53.087 24.4092 44.3706C23.4209 42.6613 23.4209 40.5548 24.4084 38.8452C26.231 35.6915 28.6208 31.5554 28.6208 31.5554L56.1039 79.1406ZM70.7904 79.1406H59.1781L30.3278 28.5994L35.9637 18.8424L70.7904 79.1406ZM79.1402 68.1702V76.0156C79.1402 77.7404 77.7403 79.1406 76.0153 79.1406H73.8646L37.5003 16.1813L40.5745 10.8594H46.0392L79.1402 68.1702ZM76.0153 10.8594H49.1127L79.1402 62.8481V13.9844C79.1402 12.2596 77.7403 10.8594 76.0153 10.8594Z" fill="url(#paint0_radial_942_16415)"/>
<defs>
<radialGradient id="paint0_radial_942_16415" cx="0" cy="0" r="1" gradientUnits="userSpaceOnUse" gradientTransform="translate(63.042 -1.97346) scale(81.1126 81.1141)">
<stop stop-color="#FFAE71"/>
<stop offset="1" stop-color="#FF9350"/>
</radialGradient>
</defs>
</svg>
