<svg width="300" height="100" viewBox="0 0 300 100" fill="none" xmlns="http://www.w3.org/2000/svg">
<path fill-rule="evenodd" clip-rule="evenodd" d="M87.1844 25.3193C87.1844 22.2811 84.7178 19.8145 81.6796 19.8145H36.3193C33.2811 19.8145 30.8145 22.2811 30.8145 25.3193V70.6796C30.8145 73.7178 33.2811 76.1845 36.3193 76.1845H81.6796C84.7178 76.1845 87.1844 73.7178 87.1844 70.6796V25.3193Z" fill="#891B26"/>
<path fill-rule="evenodd" clip-rule="evenodd" d="M56.4756 72.0558L42.284 47.4849L34.9438 60.1932V69.8538C34.9438 71.0692 35.9302 72.0558 37.1457 72.0558H56.4756ZM66.8242 72.0558H58.6417C58.6417 72.0558 48.0421 53.6977 44.4909 47.5559C43.7945 46.3516 43.7945 44.8672 44.4903 43.6627C45.7746 41.4404 47.4586 38.5261 47.4586 38.5261L66.8242 72.0558ZM77.1728 72.0558H68.9903L48.6614 36.4432L52.6326 29.5681L77.1728 72.0558ZM83.0564 64.3257V69.8538C83.0564 71.0692 82.07 72.0558 80.8545 72.0558H79.339L53.7154 27.6931L55.8816 23.9431H59.7322L83.0564 64.3257ZM80.8545 23.9431H61.8979L83.0564 60.5757V26.1451C83.0564 24.9298 82.07 23.9431 80.8545 23.9431Z" fill="url(#paint0_radial_942_16419)"/>
<path d="M104.196 47.6357H95.8973V72.2385H101.699V64.4912H104.196C111.54 64.4912 115.396 61.9568 115.396 56.0086C115.396 50.17 111.54 47.6357 104.196 47.6357ZM104.049 59.9731H101.699V52.1883H104.049C107.538 52.1883 109.521 52.9956 109.521 56.0086C109.521 59.0563 107.538 59.9731 104.049 59.9731ZM123.07 72.7518C126.228 72.7518 127.881 71.1371 128.689 68.8594H128.762L128.836 72.2385H134.087V53.8058H128.468V63.6089C128.468 66.8036 127.293 68.274 125.31 68.274C123.548 68.274 122.74 67.1726 122.74 64.8949V53.8058H117.122V66.0337C117.122 70.5114 119.361 72.7518 123.07 72.7518ZM148.187 72.7518C152.41 72.7518 155.971 69.338 155.971 62.7641C155.971 56.0807 152.226 53.2552 148.334 53.2552C145.323 53.2552 143.597 54.9419 142.826 56.7785H142.752V46.2776H137.134V72.2385H142.348L142.422 68.8248H142.532C143.23 70.8055 144.992 72.7518 148.187 72.7518ZM146.425 68.4557C144.148 68.4557 142.679 66.472 142.679 62.9487C142.679 59.3504 144.221 57.5512 146.388 57.5512C148.518 57.5512 150.207 59.2754 150.207 63.0208C150.207 66.547 148.701 68.4557 146.425 68.4557ZM158.139 46.2776H163.757V72.2388H158.139V46.2776ZM169.594 51.381C171.506 51.381 172.789 49.9855 172.789 48.2613C172.789 46.4622 171.506 45.1013 169.594 45.1013C167.685 45.1013 166.399 46.4622 166.399 48.2613C166.399 49.9855 167.685 51.381 169.594 51.381ZM166.803 72.2385H172.423V53.8058H166.803V72.2385ZM182.448 72.7518C187.698 72.7518 190.599 70.3644 190.599 66.6191C190.599 62.6171 187.219 61.7723 183.33 60.9275C180.905 60.4143 179.876 60.0106 179.876 58.7247C179.876 57.6608 180.648 56.8881 182.226 56.8881C183.696 56.8881 184.87 57.5512 185.311 59.3503L190.195 58.0269C189.497 55.0168 186.853 53.2552 182.338 53.2552C176.938 53.2552 174.478 55.8241 174.478 59.0938C174.478 62.6546 177.197 63.8655 181.271 64.7478C184.062 65.3735 185.164 65.6647 185.164 66.9881C185.164 68.274 184.025 69.0064 182.41 69.0064C180.648 69.0064 179.51 68.1616 179.106 66.3999L174.147 67.6484C174.553 70.4019 177.269 72.7518 182.448 72.7518ZM192.326 72.2385H197.942V62.0664C197.942 59.0188 199.3 57.7703 201.212 57.7703C202.936 57.7703 203.781 58.7622 203.781 61.04V72.2385H209.4V60.1577C209.4 55.4205 206.903 53.2552 203.34 53.2552C200.624 53.2552 198.972 54.6132 198.017 56.5968H197.942V46.2776H192.326V72.2385ZM229.854 63.0957C229.854 56.5219 226.475 53.2552 220.855 53.2552C215.129 53.2552 211.419 57.5137 211.419 63.1332C211.419 68.7123 214.688 72.7518 220.893 72.7518C225.668 72.7518 228.421 70.5114 229.228 67.9799L224.638 66.1433C224.015 67.7954 222.949 68.8968 220.93 68.8968C218.359 68.8968 217.075 66.7315 216.853 64.3067H229.854V63.0957ZM220.855 57.0726C223.205 57.0726 224.344 58.7621 224.529 61.1495H216.928C217.332 58.6526 218.728 57.0726 220.855 57.0726ZM231.91 72.2385H237.526V64.7478C237.526 60.0481 239.729 58.1019 242.264 58.1019C243.183 58.1019 243.916 58.2864 244.357 58.5056L245.092 53.6213C244.798 53.4743 244.138 53.2552 243.074 53.2552C240.981 53.2552 238.371 54.4286 237.27 58.321H237.16L237.088 53.8058H231.91V72.2385ZM258.459 67.5388C261.137 62.9861 269.767 61.4061 269.767 54.3565C269.767 50.023 266.61 47.1225 261.103 47.1225C255.924 47.1225 252.949 49.9509 252.289 53.8779L257.577 55.3109C258.055 53.1427 259.044 51.8596 260.956 51.8596C262.937 51.8596 263.894 53.1427 263.894 54.7602C263.894 60.3422 251.96 61.6627 251.96 70.7335V72.2385H269.879V67.5388H258.459Z" fill="#191919"/>
<path fill-rule="evenodd" clip-rule="evenodd" d="M118.893 25.3837H112.495V30.7024H116.156V31.9427H112.495V38.6143H111.162V24.1289H118.893V25.3837ZM152.242 38.6143H150.893V24.1289H152.242V38.6143ZM133.437 38.6143H132.087V24.1289H133.437V38.6143ZM129.357 25.3837H122.958V30.7024H126.619V31.9427H122.958V38.6143H121.624V24.1289H129.357V25.3837ZM164.029 25.3837H160.182V38.6143H158.832V25.3837H154.965V24.1289H164.029V25.3837ZM137.507 38.6143H136.172V24.1289H137.607L146.803 36.3431V24.1289H148.153V38.6143H146.837L137.507 26.1835V38.6143ZM172.709 38.6143H171.346V35.0712L165.097 24.1289H166.636L172.027 33.5179L177.42 24.1289H178.958L172.709 35.0712V38.6143ZM109.969 38.6143H108.533L102.923 25.9718C102.572 26.7805 99.1573 34.5456 98.7923 35.3689C99.5077 35.3689 105.63 35.429 105.981 35.4314L106.539 36.6497C105.318 36.6424 99.8451 36.6246 98.2253 36.6246C98.0777 36.9361 97.4555 38.3166 97.3346 38.6143H95.8965L102.316 24.1289H103.55L109.969 38.6143Z" fill="#191919"/>
<defs>
<radialGradient id="paint0_radial_942_16419" cx="0" cy="0" r="1" gradientUnits="userSpaceOnUse" gradientTransform="translate(71.713 14.9008) scale(57.155 57.155)">
<stop stop-color="#FFAE71"/>
<stop offset="1" stop-color="#FF9350"/>
</radialGradient>
</defs>
</svg>
