<svg width="90" height="90" viewBox="0 0 90 90" fill="none" xmlns="http://www.w3.org/2000/svg">
<path fill-rule="evenodd" clip-rule="evenodd" d="M84.504 12.8125C84.504 8.50062 81.0033 5 76.6915 5H12.3164C8.00453 5 4.50391 8.50062 4.50391 12.8125V77.1874C4.50391 81.4992 8.00453 84.9999 12.3164 84.9999H76.6915C81.0033 84.9999 84.504 81.4992 84.504 77.1874V12.8125Z" fill="#4E3188"/>
<path fill-rule="evenodd" clip-rule="evenodd" d="M78.6444 55.788V76.0155C78.6444 77.7193 77.278 79.1066 75.5819 79.1399L54.9241 79.1398L41.4366 55.788H78.6444ZM51.8507 79.1398H15.3053L33.5881 47.5216L51.8507 79.1398ZM12.3709 78.9344C11.2655 78.5106 10.4616 77.4772 10.3717 76.2472L10.3631 62.3048L25.2202 36.5821H36.8327L12.3709 78.9344ZM47.453 36.534C48.4647 36.5382 49.4327 37.1325 49.9553 38.0133C49.9608 38.0222 49.971 38.0402 49.971 38.0402L53.0413 43.3567C53.0413 43.3567 53.0593 43.3865 53.0679 43.4008C53.5694 44.2785 53.589 45.3843 53.0874 46.2779C52.0585 48.0781 51.0132 49.8695 49.9757 51.6654C49.4663 52.5388 48.5022 53.1086 47.4772 53.1213C45.5218 53.1295 41.6007 53.125 41.5952 53.125C40.5835 53.1208 39.5999 52.5813 39.0764 51.7006C39.0647 51.6815 39.0428 51.6425 39.0428 51.6425C39.0428 51.6425 35.971 46.3254 35.9647 46.3131C35.4624 45.4354 35.4631 44.3016 35.9647 43.408C35.9717 43.3949 35.9874 43.3686 35.9874 43.3686C35.9874 43.3686 38.0428 39.8032 39.0717 38.0204C39.5811 37.1471 40.5475 36.5462 41.5717 36.5334C41.5889 36.5333 41.6233 36.5325 41.6233 36.5325L47.453 36.534ZM76.5265 11.0255L52.21 53.125H78.6444V13.9844C78.6444 12.612 77.7577 11.4451 76.5265 11.0255ZM40.0772 10.8594H73.5483L55.4468 42.1997L38.7116 13.2247L40.0772 10.8594ZM47.5913 33.9211H26.7569L37.1741 15.8856L47.5913 33.9211Z" fill="url(#paint0_radial_942_16426)"/>
<defs>
<radialGradient id="paint0_radial_942_16426" cx="0" cy="0" r="1" gradientUnits="userSpaceOnUse" gradientTransform="translate(65.6509 -10.0352) scale(95.0344 95.035)">
<stop stop-color="#F9A6FF"/>
<stop offset="1" stop-color="#EA73FF"/>
</radialGradient>
</defs>
</svg>
