<svg width="300" height="100" viewBox="0 0 300 100" fill="none" xmlns="http://www.w3.org/2000/svg">
<path d="M56.3174 44.6653H75.43V50.035L68.2423 50.5879C56.6313 51.4548 53 54.5379 53 63.1453V64.8837C53 71.2045 57.4232 74.9952 64.2173 74.9952C69.587 74.9952 72.6701 73.7301 76.4608 69.8598H77.0934V73.9643H84.7543V36.2969H56.3174V44.67V44.6653ZM75.43 62.8314C73.059 65.2023 69.5074 66.7813 66.5836 66.7813C63.4255 66.7813 62.0807 65.5959 62.1603 62.9907C62.24 59.3594 63.5801 58.4878 69.662 57.9349L75.43 57.382V62.8314Z" fill="#FB8501"/>
<path d="M235.846 51.4596L230.158 50.9067C227 50.5928 226.208 49.8009 226.208 47.2754C226.208 44.4312 227.314 43.719 231.737 43.719C235.687 43.719 236.792 44.3516 237.345 47.0364H246.192C245.953 38.0307 243.188 35.7441 232.21 35.7441C220.205 35.7441 217.202 38.0354 217.202 47.2754C217.202 55.7282 219.414 58.0147 228.34 58.8863L233.002 59.3595C237.186 59.7531 238.217 60.545 238.217 63.0705C238.217 66.1489 236.952 66.9408 231.821 66.9408C227.318 66.9408 226.133 66.2286 225.898 63.3095H216.972C217.211 72.6291 220.051 75 231.427 75C244.065 75 247.223 72.4698 247.223 62.2037C247.223 54.5427 244.931 52.3311 235.851 51.4643L235.846 51.4596Z" fill="#054ADA"/>
<path d="M188.456 52.1718C188.456 40.008 184.272 35.7441 172.262 35.7441C160.253 35.7441 155.755 41.2731 155.755 55.016C155.755 70.0239 159.864 75 173.129 75C182.688 75 186.713 72.0762 188.058 63.8624H178.977C177.951 66.3926 176.845 66.9408 172.975 66.9408C167.132 66.9408 165.628 65.2821 165.314 58.2537H187.823C188.217 56.2014 188.456 53.7509 188.456 52.1718ZM165.393 50.827C165.473 45.537 167.605 43.5597 172.661 43.5597C177.716 43.5597 179.455 45.5323 179.609 50.827H165.393Z" fill="#054ADA"/>
<path d="M115.871 36.297H101.102V25H91.7029V73.9691H101.102V44.7451H114.526V73.9691H123.926V43.9579H115.871V36.297Z" fill="#054ADA"/>
<path d="M193.746 37.9511V73.9692H203.145V44.3516H214.438V36.2971H203.145V35.2709C203.225 33.0593 203.778 32.4268 205.591 32.4268H215.857V25.0048H204.799C197.298 25.0048 193.741 27.2961 193.741 37.9558L193.746 37.9511Z" fill="#054ADA"/>
<path d="M130.879 73.969H140.274V45.1386H154.256V36.2969H130.879V73.969Z" fill="#054ADA"/>
</svg>
