<svg width="90" height="90" viewBox="0 0 90 90" fill="none" xmlns="http://www.w3.org/2000/svg">
<path d="M77.4627 5.4707H13.4748C9.05316 5.4707 5.46875 9.05511 5.46875 13.4767V77.4647C5.46875 81.8863 9.05316 85.4707 13.4748 85.4707H77.4627C81.8843 85.4707 85.4688 81.8863 85.4688 77.4647V13.4767C85.4688 9.05512 81.8843 5.4707 77.4627 5.4707Z" fill="#054ADA"/>
<path d="M26.2723 33.4979L49.1253 33.4611L48.9919 38.7888L40.2288 39.462C26.8447 40.46 22.4961 44.0931 22.4961 54.0029V56.0042C22.4961 63.2814 27.6757 68.237 35.4837 67.6287C42.0189 67.1194 49.0848 62.6671 49.0848 62.6671V67.0966H58.6631V23.73H26.1389L26.2723 33.5032V33.4979ZM49.0516 53.1989C44.3242 55.5501 42.1035 57.3492 38.1066 58.2304C34.1913 59.0936 32.0695 57.6394 32.2044 53.6368C32.3416 49.5691 34.1741 48.578 41.8957 47.9415L49.0516 47.1795V53.1989Z" fill="white"/>
<path d="M58.663 23.6982H49.0679V33.4698H58.663V23.6982Z" fill="#FB8501"/>
<path d="M68.2579 33.4688H58.6628V67.0994H68.2579V33.4688Z" fill="#FB8501"/>
</svg>
