<svg width="90" height="90" viewBox="0 0 90 90" fill="none" xmlns="http://www.w3.org/2000/svg">
<path d="M40.7211 12.8449L10.8943 25.186C9.23566 25.8724 9.25284 28.2286 10.9219 28.8902L40.8731 40.7669C43.5046 41.8105 46.4353 41.8105 49.0669 40.7669L79.0185 28.8897C80.6871 28.2286 80.7052 25.8728 79.0457 25.1864L49.2197 12.8444C46.4986 11.7185 43.4418 11.7185 40.7207 12.8444" fill="#FCB400"/>
<path d="M47.6289 47.2503V76.9204C47.6289 78.3311 49.052 79.2979 50.3638 78.7779L83.7386 65.8241C84.1108 65.6766 84.4301 65.4206 84.6551 65.0894C84.88 64.7582 85.0003 64.367 85.0002 63.9666V34.297C85.0002 32.8858 83.5771 31.9195 82.2653 32.4395L48.8905 45.3933C48.5184 45.5409 48.1991 45.7969 47.9742 46.1281C47.7492 46.4593 47.6289 46.8504 47.6289 47.2508" fill="#18BFFF"/>
<path d="M39.8363 48.7828L29.9314 53.565L28.9257 54.051L8.01705 64.0689C6.69212 64.7082 5 63.7424 5 62.2701V34.4228C5 33.8901 5.27313 33.4303 5.6394 33.0844C5.78967 32.9347 5.96014 32.8069 6.14586 32.7045C6.64509 32.4047 7.35775 32.3247 7.96369 32.5644L39.6699 45.1266C41.2815 45.7659 41.4081 48.0241 39.8363 48.7833" fill="#F82B60"/>
<path d="M39.8336 48.7838L29.9287 53.5659L5.63672 33.0849C5.78701 32.9354 5.95749 32.8077 6.14318 32.7055C6.6424 32.4057 7.35506 32.3257 7.96101 32.5653L39.6672 45.1275C41.2788 45.7669 41.4054 48.025 39.8336 48.7842" fill="#BA1E45"/>
</svg>
