<svg width="386" height="100" viewBox="0 0 386 100" fill="none" xmlns="http://www.w3.org/2000/svg">
<path d="M62.268 28C62.9199 28 63.1643 28 63.4902 28C68.1347 28 73.0236 28 77.5866 28C83.6977 28 89.5644 32.8889 89.5644 39.9778C89.5644 46.7407 89.5644 53.5037 89.5644 59.9407C89.5644 66.7037 84.3496 71.9185 77.5866 71.9185C72.9421 71.9185 68.3792 71.9185 63.7347 71.9185C63.4088 71.9185 62.8384 71.9185 62.5125 71.9185C62.1865 71.5926 62.5125 71.2667 62.8384 71.0222C63.7347 69.8 64.7125 68.5778 65.6088 67.3556C65.9347 66.7037 66.2606 66.4593 66.831 66.4593C70.1717 65.563 73.594 64.3407 76.6903 63.363C79.4607 62.4667 80.6829 60.9185 80.6829 58.1481C80.6829 52.9333 80.6829 47.3926 80.6829 42.1778C80.6829 39.4074 79.4607 37.8593 76.6903 36.963C73.3495 36.0667 70.2532 34.8444 66.831 33.8667C66.1791 33.5407 65.6088 33.2148 65.2829 32.6444C64.3866 31.0148 63.1643 29.5481 62.268 28Z" fill="#ED6B28"/>
<path d="M46.2963 28C45.0741 29.8741 43.8519 31.3407 42.9556 32.8889C42.6297 33.2148 42.0593 33.5407 41.7334 33.5407C38.3926 34.437 34.9704 35.6593 31.6297 36.637C29.1852 37.2889 27.963 39.0815 27.963 41.5259C27.963 47.0667 27.963 52.6074 27.963 58.1481C27.963 60.5926 29.1852 62.4667 31.6297 63.037C34.9704 63.9333 38.3926 65.1556 41.7334 66.1333C42.0593 66.1333 42.3852 66.4593 42.6297 66.7852C43.8519 68.3333 45.0741 70.1259 46.2963 72C45.6445 72 45.4 72 45.0741 72C40.4297 72 35.5408 72 30.9778 72C25.1111 72 20.5481 68.3333 19.3259 62.7926C19 61.8963 19 60.9185 19 60.0222C19 53.2593 19 46.4963 19 40.0593C19 34.1926 22.9926 29.6296 28.8593 28.4074C29.5111 28.4074 30.0815 28.4074 30.7333 28.4074C35.9482 28.4074 40.8371 28.4074 46.0519 28.4074C45.9704 28 45.9704 28 46.2963 28Z" fill="#ED6B28"/>
<path d="M127.942 70.0443C126.394 70.0443 124.846 70.0443 123.298 70.0443C122.646 70.0443 122.401 69.7184 122.076 69.148C121.424 66.3776 120.527 63.9332 119.957 61.4887C119.305 59.3702 119.305 59.3702 117.513 59.3702C114.742 59.3702 111.972 59.3702 108.876 59.3702C107.653 59.3702 107.653 59.3702 107.327 60.2665C106.431 63.3628 105.779 66.1332 104.883 69.148C104.557 69.7998 104.557 70.0443 103.661 70.0443C102.113 70.0443 100.89 70.0443 99.3422 70.0443C99.6681 68.4961 99.994 67.2739 100.238 66.0517C103.335 54.3998 106.35 42.4221 109.772 30.7702C110.098 30.1184 110.424 29.8739 110.994 29.8739C112.542 29.8739 114.09 29.8739 115.638 29.8739C116.861 29.8739 116.861 29.8739 117.187 30.7702C119.061 37.5332 120.853 44.2961 122.727 51.0591C124.276 56.9258 125.824 63.0369 127.372 68.9035C127.616 69.148 127.942 69.4739 127.942 70.0443ZM118.409 53.748C116.861 48.2072 115.639 42.9924 113.764 37.7776C112.216 43.3184 110.994 48.5332 109.446 53.748C112.624 53.748 115.394 53.748 118.409 53.748Z" fill="#ED6B28"/>
<path d="M206.567 42.748C206.893 42.748 207.219 42.4221 207.219 42.4221C212.76 37.7776 221.071 40.8739 222.293 47.9628C222.293 48.6147 222.293 48.8591 222.293 49.5109C222.293 53.5035 222.293 57.4961 222.293 61.4887C222.293 65.1554 220.419 68.2517 217.078 69.7998C213.737 71.348 210.641 71.0221 207.545 68.9035C207.219 68.5776 206.893 68.2517 206.648 68.2517C206.322 68.2517 206.322 68.5776 206.322 68.5776C206.322 70.1258 206.322 70.1258 204.774 70.1258C203.878 70.1258 202.656 70.1258 201.678 70.1258C201.026 70.1258 200.782 69.7998 201.026 69.2295C201.026 68.9035 201.026 68.9035 201.026 68.5776C201.026 55.948 201.026 43.3998 201.026 30.7702C201.026 30.4443 201.026 30.1183 201.026 30.1183C201.026 29.4665 201.352 29.4665 201.678 29.4665C202.9 29.4665 204.122 29.4665 205.671 29.4665C206.322 29.4665 206.567 29.7924 206.567 30.3628C206.567 33.7035 206.567 37.1258 206.567 40.7924C206.567 41.5258 206.567 42.0961 206.567 42.748ZM216.997 55.6221C216.997 54.0739 216.997 52.2813 216.997 50.7332C216.997 50.0813 216.997 49.8369 216.997 49.185C216.345 46.7406 213.9 45.1924 211.456 45.1924C209.011 45.5183 206.811 47.6369 206.811 50.4072C206.811 53.748 206.811 57.1702 206.811 60.5109C206.811 63.6072 209.256 65.7258 212.026 65.7258C215.123 65.7258 217.241 63.2813 217.241 60.185C216.997 58.7184 216.997 57.1702 216.997 55.6221Z" fill="#ED6B28"/>
<path d="M361.708 68.1707C360.812 68.8225 359.834 69.7188 358.938 70.0448C352.826 72.4892 346.308 68.1707 346.308 61.7337C346.308 57.7411 346.308 53.7485 346.308 49.7559C346.308 45.4374 349.649 40.8744 355.515 40.5485C357.634 40.5485 359.508 41.2003 361.056 42.4225C361.382 42.7485 361.382 43.0744 361.952 43.0744C362.278 42.7485 361.952 42.4225 361.952 42.1781C361.952 38.5114 361.952 34.5188 361.952 30.8522C361.952 29.9559 361.952 29.9559 362.849 29.9559C364.071 29.9559 365.293 29.9559 366.515 29.9559C366.841 29.9559 367.167 29.9559 367.167 30.6077C367.167 30.9337 367.167 31.2596 367.167 31.2596C367.167 43.8892 367.167 56.4374 367.167 69.067V69.3929C367.167 70.2892 367.167 70.2892 366.271 70.2892C365.049 70.2892 363.826 70.2892 362.604 70.2892C361.952 70.2892 361.708 69.9633 361.708 69.6374C362.034 68.8225 362.278 68.4966 361.708 68.1707ZM362.034 55.2966C362.034 53.7485 362.034 52.2003 362.034 50.6522C362.034 50.0003 362.034 49.43 361.708 48.7781C361.056 46.3337 358.612 44.7855 356.167 45.1114C353.723 45.4374 351.849 47.5559 351.523 49.7559C351.523 53.4225 351.523 57.0892 351.523 60.8374C351.523 63.9337 354.863 66.0522 357.634 65.4818C360.078 64.83 361.626 63.0374 361.626 60.267C362.034 58.7188 362.034 57.1707 362.034 55.2966Z" fill="#ED6B28"/>
<path d="M157.433 42.9926C157.759 42.6667 158.085 42.3407 158.656 42.0963C161.752 40.2222 164.767 39.9778 168.189 41.4444C171.53 42.9926 173.078 45.763 173.078 49.4296C173.078 53.4222 173.078 57.7407 173.078 61.7333C173.078 65.4 171.204 68.1704 167.863 69.7185C164.522 71.2667 161.426 70.9407 158.33 68.8222C158.004 68.4963 157.678 68.1704 157.433 68.1704C157.108 68.1704 157.108 68.1704 157.108 68.1704C157.108 69.7185 157.108 69.7185 155.233 69.7185C154.337 69.7185 153.359 69.7185 152.463 69.7185C151.811 69.7185 151.567 69.3926 151.567 68.8222C151.567 68.4963 151.567 68.4963 151.567 68.1704C151.567 55.5407 151.567 42.9926 151.567 30.363C151.567 30.037 151.567 30.037 151.567 29.7111C151.567 29.0593 151.893 28.8148 152.463 28.8148C153.685 28.8148 154.908 28.8148 156.13 28.8148C156.782 28.8148 157.026 29.1407 157.026 29.7111C157.026 33.3778 157.026 37.3704 157.026 41.037C157.108 42.0963 157.108 42.4222 157.433 42.9926ZM157.108 55.6222C157.108 57.1704 157.108 58.963 157.108 60.5111C157.108 63.6074 159.226 65.7259 162.322 65.7259C165.093 65.7259 167.537 63.6074 167.537 60.5111C167.537 57.1704 167.537 53.7482 167.537 50.6519C167.537 49.1037 166.885 47.5556 165.663 46.6593C164.115 45.437 161.996 45.1111 160.122 46.0074C158.248 46.9037 157.026 48.4519 157.026 50.6519C157.108 52.2 157.108 53.7481 157.108 55.6222Z" fill="#ED6B28"/>
<path d="M265.56 50.0817C265.56 52.8521 265.56 55.6225 265.56 58.0669C265.56 61.4077 267.434 63.9336 270.774 64.8299C274.767 66.0521 279.086 63.2818 279.411 58.9632C279.411 58.0669 279.411 58.0669 280.634 58.0669C281.856 58.0669 283.078 58.0669 283.974 58.0669C284.626 58.0669 284.871 58.3929 284.871 58.9632C284.545 63.8521 282.1 67.2743 277.782 69.3929C271.345 72.4892 263.93 69.3929 261.16 62.9558C260.263 61.4077 259.937 60.1855 259.937 58.6373C259.937 53.0966 259.937 47.3114 259.937 41.7706C259.937 36.8818 263.034 32.5632 267.271 30.6892C271.915 28.8151 277.13 29.7929 280.797 33.1336C283.241 35.2521 284.463 38.0225 284.463 41.4447C284.463 42.0966 284.463 42.0966 283.811 42.0966C282.589 42.0966 281.041 42.0966 279.819 42.0966C279.167 42.0966 278.923 41.7706 278.923 41.2003C278.597 38.4299 276.804 35.9855 274.034 35.3336C269.389 34.1114 265.152 37.2077 265.152 42.0966C265.56 44.541 265.56 47.3114 265.56 50.0817Z" fill="#ED6B28"/>
<path d="M225.964 49.185C226.861 44.2961 230.609 40.8738 235.498 40.5479C241.039 40.222 245.602 43.8887 246.579 48.859C246.905 49.7553 246.905 50.7331 246.905 51.6294C246.905 57.4961 246.905 63.2812 246.905 68.822C246.905 69.1479 246.905 69.4738 246.905 69.4738C246.905 69.7998 246.579 70.1257 246.253 70.1257C244.705 70.1257 243.483 70.1257 241.935 70.1257C241.283 70.1257 241.283 69.7998 241.283 69.4738C241.283 69.1479 241.283 68.822 241.283 68.2516C240.631 68.2516 240.387 68.9035 240.061 69.1479C235.416 72.4887 226.535 71.2664 224.987 63.6072C223.439 57.1701 228.653 52.5257 233.624 52.5257C236.068 52.5257 238.268 52.5257 240.713 52.5257C241.364 52.5257 241.609 52.1998 241.609 51.6294C241.609 50.7331 241.609 49.7553 241.609 48.859C240.957 46.7405 239.164 45.1924 236.72 44.8664C234.601 44.8664 232.401 46.0887 231.831 48.2072C231.505 48.859 231.179 49.1035 230.609 49.1035C228.979 49.185 227.513 49.185 225.964 49.185ZM237.616 56.5183C236.394 56.5183 235.498 56.5183 234.276 56.5183C232.401 56.8442 231.179 57.7405 230.609 59.6146C229.957 61.4887 230.283 62.9553 231.505 64.259C234.601 67.5998 239.816 66.1331 241.039 62.1405C241.69 60.5924 241.364 58.7998 241.364 57.2516C241.364 56.9257 241.039 56.9257 240.713 56.9257C239.735 56.5183 238.839 56.5183 237.616 56.5183Z" fill="#ED6B28"/>
<path d="M191.821 67.9262C190.273 69.1484 188.725 70.0447 187.177 70.3706C181.636 71.2669 177.318 68.8225 175.851 64.2595C173.732 57.8225 178.947 52.2818 184.488 52.2818C186.607 52.2818 189.133 52.2818 191.251 52.2818C191.903 52.2818 192.147 51.9558 192.147 51.3855C192.147 50.8151 192.147 50.4892 192.147 49.8373C192.147 47.3929 190.273 45.1929 187.829 44.6225C185.71 44.2966 182.94 45.5188 182.288 47.9632C181.962 48.8595 181.636 48.8595 180.74 48.8595C179.844 48.8595 178.621 48.8595 177.644 48.8595C176.747 48.8595 176.747 48.8595 176.992 47.9632C177.888 44.6225 180.088 42.0966 183.429 40.8744C190.192 38.4299 197.525 43.3188 197.525 50.7336C197.525 56.8447 197.525 62.7114 197.525 68.8225C197.525 69.7188 197.525 69.7188 196.629 69.7188C195.407 69.7188 194.51 69.7188 193.288 69.7188C192.392 69.7188 192.392 69.7188 192.066 68.8225C192.147 68.4966 191.821 68.4966 191.821 67.9262ZM191.821 58.9632C191.821 58.3114 191.821 57.741 191.821 57.0892C191.821 56.4373 191.495 56.4373 190.925 56.4373C189.051 56.4373 186.933 56.4373 185.058 56.4373C182.94 56.4373 181.392 57.9855 180.74 59.7781C180.088 61.6521 181.066 63.7706 182.614 64.9929C185.955 67.4373 190.273 65.3188 191.251 61.8966C192.147 60.8373 191.821 59.941 191.821 58.9632Z" fill="#ED6B28"/>
<path d="M337.106 68.1702C336.78 68.1702 336.454 68.4961 336.454 68.4961C333.357 70.6146 330.343 71.2665 326.92 69.7184C323.58 68.1702 321.706 65.3998 321.38 61.7332C321.38 61.4072 321.38 61.0813 321.38 60.8369C321.38 54.3998 321.38 47.9628 321.38 41.5258C321.38 40.3035 321.38 40.3035 322.602 40.3035C323.824 40.3035 324.72 40.3035 325.943 40.3035C326.839 40.3035 326.839 40.3035 326.839 41.1998C326.839 42.0961 326.839 43.3184 326.839 44.2961C326.839 49.5109 326.839 55.0517 326.839 60.2665C326.839 62.7109 328.061 64.585 330.18 65.1554C333.52 66.3776 337.269 63.9332 337.269 60.2665C337.269 54.1554 337.269 47.9628 337.269 42.1776C337.269 41.8517 337.269 41.5258 337.269 41.2813C337.269 40.0591 337.269 40.0591 338.491 40.0591C339.713 40.0591 340.609 40.0591 341.832 40.0591C342.728 40.0591 342.728 40.0591 342.728 40.9554C342.728 41.6072 342.728 41.8517 342.728 42.5035C342.728 51.1406 342.728 59.6961 342.728 68.3332C342.728 68.6591 342.728 68.985 342.728 68.985C342.728 69.6369 342.728 69.8813 341.832 69.8813C340.609 69.8813 339.387 69.8813 337.839 69.8813C337.187 69.8813 336.943 69.8813 336.943 69.2295C337.106 68.8221 337.106 68.4961 337.106 68.1702Z" fill="#ED6B28"/>
<path d="M296.604 55.2962C296.604 53.748 296.604 51.9554 296.604 50.4073C296.604 45.1924 300.923 40.8739 306.137 40.3036C312.004 39.6517 316.241 43.6443 317.463 47.9628C317.789 48.8591 317.789 49.8369 317.789 50.7332C317.789 53.8295 317.789 56.8443 317.789 59.9406C317.789 65.1554 313.797 69.7999 308.582 70.3702C302.471 71.0221 297.826 67.0295 296.93 61.7332C296.93 61.0813 296.93 60.8369 296.93 60.185C296.604 58.7184 296.604 57.1702 296.604 55.2962ZM312.249 55.6221C312.249 54.0739 312.249 52.5258 312.249 50.9776C312.249 48.2073 310.13 46.0887 307.034 45.7628C304.263 45.7628 301.819 47.8813 301.819 50.9776C301.819 54.0739 301.819 57.0887 301.819 60.185C301.819 62.9554 303.937 65.3998 307.034 65.3998C310.13 65.3998 312.249 62.6295 312.249 60.185C312.249 58.7184 312.249 57.1702 312.249 55.6221Z" fill="#ED6B28"/>
<path d="M130.382 49.7554C130.382 43.6443 130.382 37.1258 130.382 31.0146C130.382 30.6887 130.382 30.3628 130.382 30.1183C130.382 29.7924 130.707 29.4665 131.033 29.4665C132.582 29.4665 134.13 29.4665 135.678 29.4665C136.004 29.4665 136.33 29.7924 136.33 30.1183C136.33 30.4443 136.33 30.7702 136.33 31.0146C136.33 43.6443 136.33 56.1924 136.33 68.4961C136.33 68.8221 136.33 68.8221 136.33 69.148C136.33 69.7998 136.004 70.0443 135.433 70.0443C134.211 70.0443 132.989 70.0443 131.767 70.0443C130.87 70.0443 130.87 70.0443 130.87 69.148C130.87 67.9258 130.87 67.0295 130.87 65.8072C130.382 60.5109 130.382 54.9702 130.382 49.7554Z" fill="#ED6B28"/>
<path d="M54.2777 46.9849C57.6185 46.9849 61.3666 46.9849 64.7074 46.9849C65.9296 46.9849 65.9296 46.9849 65.9296 48.2071C65.9296 49.4293 65.9296 50.3256 65.9296 51.5478C65.9296 52.1997 65.6037 52.4441 65.0333 52.4441C63.1592 52.4441 61.6926 52.4441 59.8185 52.4441C54.2777 52.4441 49.0629 52.4441 43.5222 52.4441C43.1962 52.4441 42.8703 52.4441 42.6259 52.4441C42.3814 52.4441 41.974 52.1182 41.974 51.7923C41.974 50.2441 41.974 49.0219 41.974 47.4738C41.974 46.8219 42.2999 46.8219 42.6259 46.8219C43.8481 46.8219 45.0703 46.8219 46.2925 46.8219C49.3074 46.9849 51.7518 46.9849 54.2777 46.9849Z" fill="#ED6B28"/>
<path d="M292.613 49.7554C292.613 55.8665 292.613 62.0591 292.613 68.4962C292.613 68.8221 292.613 69.148 292.613 69.3925C292.613 69.7184 292.613 70.0443 291.961 70.0443C290.739 70.0443 289.191 70.0443 287.968 70.0443C287.316 70.0443 287.316 69.7184 287.316 69.3925C287.316 69.0665 287.316 68.7406 287.316 68.7406C287.316 56.111 287.316 43.5628 287.316 30.9332C287.316 30.6073 287.316 30.6073 287.316 30.2814C287.316 29.6295 287.316 29.3851 287.968 29.6295C289.191 29.6295 290.739 29.6295 291.961 29.6295C292.287 29.6295 292.613 29.6295 292.613 30.2814C292.613 30.6073 292.613 30.9332 292.613 31.1777C292.613 37.2073 292.613 43.6443 292.613 49.7554Z" fill="#ED6B28"/>
<path d="M146.357 55.2962C146.357 59.9407 146.357 64.5036 146.357 69.1481C146.357 70.3703 146.357 70.3703 145.135 70.3703C143.913 70.3703 143.016 70.3703 141.794 70.3703C141.142 70.3703 140.898 70.0444 140.898 69.474C140.898 66.7036 140.898 63.6073 140.898 60.837C140.898 54.7258 140.898 48.2073 140.898 42.0962C140.898 40.874 140.898 40.874 142.12 40.874C143.342 40.874 144.239 40.874 145.461 40.874C146.357 40.2221 146.357 40.2221 146.357 41.5258C146.357 46.0888 146.357 50.7333 146.357 55.2962Z" fill="#ED6B28"/>
<path d="M143.91 29.5485C144.562 29.5485 145.132 29.5485 145.784 29.5485C146.436 29.5485 146.436 29.8744 146.436 30.2003C146.436 31.4225 146.436 32.9707 146.436 34.1929C146.436 34.8448 146.11 34.8448 145.784 34.8448C144.562 34.8448 143.014 34.8448 141.792 34.8448C141.14 34.8448 141.14 34.5188 141.14 34.1929C141.14 32.9707 141.14 31.4225 141.14 30.2003C141.14 29.5485 141.466 29.5485 141.792 29.5485C142.688 29.5485 143.34 29.5485 143.91 29.5485Z" fill="#ED6B28"/>
</svg>
