<svg width="90" height="90" viewBox="0 0 90 90" fill="none" xmlns="http://www.w3.org/2000/svg">
<path d="M54.0537 20C54.7927 20 55.0698 20 55.4393 20C60.7048 20 66.2475 20 71.4206 20C78.3489 20 85 25.5426 85 33.5794C85 41.2467 85 48.914 85 56.2118C85 63.8791 79.0879 69.7912 71.4206 69.7912C66.1551 69.7912 60.982 69.7912 55.7165 69.7912C55.347 69.7912 54.7003 69.7912 54.3308 69.7912C53.9613 69.4217 54.3308 69.0522 54.7003 68.7751C55.7165 67.3895 56.825 66.0038 57.8411 64.6181C58.2107 63.8791 58.5802 63.602 59.2268 63.602C63.0143 62.5858 66.8941 61.2002 70.4044 60.0916C73.5453 59.0755 74.9309 57.3203 74.9309 54.1795C74.9309 48.2674 74.9309 41.9857 74.9309 36.0736C74.9309 32.9328 73.5453 31.1776 70.4044 30.1615C66.617 29.1453 63.1066 27.7597 59.2268 26.6511C58.4878 26.2816 57.8411 25.9121 57.4716 25.2655C56.4555 23.4179 55.0698 21.7552 54.0537 20Z" fill="#ED6B28"/>
<path d="M35.9463 20C34.5607 22.1247 33.175 23.7875 32.1589 25.5426C31.7893 25.9121 31.1427 26.2816 30.7732 26.2816C26.9857 27.2978 23.1059 28.6834 19.3184 29.792C16.5471 30.531 15.1615 32.5633 15.1615 35.3346C15.1615 41.6162 15.1615 47.8979 15.1615 54.1795C15.1615 56.9508 16.5471 59.0755 19.3184 59.7221C23.1059 60.7383 26.9857 62.124 30.7732 63.2325C31.1427 63.2325 31.5122 63.602 31.7894 63.9715C33.175 65.7267 34.5607 67.759 35.9463 69.8836C35.2073 69.8836 34.9302 69.8836 34.5607 69.8836C29.2952 69.8836 23.7525 69.8836 18.5794 69.8836C11.9283 69.8836 6.75516 65.7267 5.3695 59.445C4.99999 58.4289 5 57.3203 5 56.3042C5 48.6369 5 40.9696 5 33.6718C5 27.0207 9.52648 21.8475 16.1776 20.4619C16.9166 20.4619 17.5633 20.4619 18.3023 20.4619C24.2144 20.4619 29.7571 20.4619 35.6692 20.4619C35.5768 20 35.5768 20 35.9463 20Z" fill="#ED6B28"/>
<path d="M44.995 41.5235C48.7824 41.5235 53.0317 41.5235 56.8192 41.5235C58.2049 41.5235 58.2049 41.5235 58.2049 42.9092C58.2049 44.2948 58.2049 45.311 58.2049 46.6966C58.2049 47.4356 57.8354 47.7128 57.1887 47.7128C55.0641 47.7128 53.4013 47.7128 51.2766 47.7128C44.9949 47.7128 39.0828 47.7128 32.8012 47.7128C32.4317 47.7128 32.0622 47.7128 31.785 47.7128C31.5079 47.7128 31.046 47.3433 31.046 46.9738C31.046 45.2186 31.046 43.8329 31.046 42.0778C31.046 41.3387 31.4155 41.3387 31.785 41.3387C33.1707 41.3387 34.5563 41.3387 35.942 41.3387C39.36 41.5235 42.1313 41.5235 44.995 41.5235Z" fill="#ED6B28"/>
</svg>
