<svg width="300" height="100" viewBox="0 0 300 100" fill="none" xmlns="http://www.w3.org/2000/svg">
<path d="M95.6594 62.2531V29.1504H115.225V33.3006H99.7108V43.4785H113.644V47.6286H99.7108V58.0041H116.312V62.1544H95.6594V62.2531Z" fill="#E43225"/>
<path d="M136.866 62.2529L130.147 53.4585L123.427 62.2529H118.684L127.874 50.4941L118.19 38.3399H123.526L130.147 47.4308L136.866 38.3399H142.104L132.914 50.4941L141.609 62.2529H136.866Z" fill="#E43225"/>
<path d="M148.131 58.6958V75.0002H144.079V50.5931C144.079 44.3678 148.822 37.7472 156.233 37.7472C163.743 37.7472 169.376 42.4903 169.376 50.2966C169.376 57.9053 163.645 63.1425 157.123 63.1425C153.961 63.1425 149.712 61.7591 148.131 58.6958ZM165.127 50.2966C165.127 44.9606 161.668 41.7986 155.542 42.095C152.577 42.1938 148.032 44.3678 148.427 51.9764C148.526 54.4468 151.095 59.0911 156.727 59.0911C161.569 59.0911 165.127 56.3243 165.127 50.2966Z" fill="#E43225"/>
<path d="M172.836 38.3399H176.887V40.9091C178.864 38.6364 181.927 37.8458 185.188 37.8458V42.1937C184.694 42.0949 179.852 41.502 176.887 47.8261V62.3518H172.836V38.3399Z" fill="#E43225"/>
<path d="M186.273 50.2968C186.273 43.3798 191.213 37.7474 198.032 37.7474C206.53 37.7474 209.692 43.3798 209.692 50.5933V52.5696H190.719C191.016 57.115 195.067 59.4865 198.822 59.3877C201.589 59.2889 203.467 58.4984 205.443 56.5221L208.111 59.2889C205.64 61.6604 202.478 63.2415 198.625 63.2415C191.411 63.1427 186.273 57.8067 186.273 50.2968ZM197.735 41.7988C193.881 41.7988 190.917 45.1585 190.719 48.8146H205.443C205.443 45.2573 202.874 41.7988 197.735 41.7988Z" fill="#E43225"/>
<path d="M211.768 58.8934L214.732 56.2255C214.633 56.2255 216.215 57.8065 216.412 57.9053C217.104 58.4982 217.796 58.8935 218.685 59.0911C221.254 59.7828 225.898 59.5852 226.294 56.0278C226.491 54.0516 225.009 52.9646 223.329 52.2729C221.155 51.4824 218.784 51.1859 216.61 50.1978C214.139 49.1109 212.558 47.2334 212.558 44.4666C212.558 37.2531 222.835 36.0674 227.48 39.427C227.677 39.6247 229.95 41.6998 229.851 41.6998L226.887 44.0713C225.404 42.2927 224.021 41.4033 220.859 41.4033C219.278 41.4033 217.104 42.095 216.709 43.7749C216.116 46.1464 218.784 47.0357 220.562 47.5298C222.934 48.1227 225.503 48.518 227.578 49.8025C230.444 51.5812 231.136 55.4349 230.049 58.3994C228.863 61.6602 225.306 62.9448 222.143 63.0437C218.388 63.2413 215.128 62.0555 212.46 59.3875C212.262 59.3875 211.768 58.8934 211.768 58.8934Z" fill="#E43225"/>
<path d="M232.619 58.8936L235.584 56.2256C235.485 56.2256 237.066 57.8067 237.264 57.9055C237.956 58.4984 238.647 58.8936 239.537 59.0913C242.106 59.783 246.75 59.5853 247.145 56.028C247.343 54.0517 245.861 52.9648 244.181 52.2731C242.007 51.4826 239.635 51.1861 237.461 50.198C234.991 49.111 233.41 47.2335 233.41 44.4667C233.41 37.2533 243.687 36.0675 248.331 39.4272C248.529 39.6248 250.802 41.6999 250.703 41.6999L247.738 44.0715C246.256 42.2928 244.873 41.4035 241.711 41.4035C240.129 41.4035 237.956 42.0952 237.56 43.7751C236.967 46.1466 239.635 47.0359 241.414 47.53C243.786 48.1229 246.355 48.5181 248.43 49.8027C251.296 51.5814 251.987 55.4351 250.9 58.3995C249.715 61.6604 246.157 62.945 242.995 63.0438C239.24 63.2415 235.979 62.0557 233.311 59.3877C233.114 59.3877 232.619 58.8936 232.619 58.8936Z" fill="#E43225"/>
<path d="M251.886 38.34V35.7709H250.996V35.2768H253.368V35.7709H252.479V38.34H251.886Z" fill="#E43225"/>
<path d="M256.331 38.34V35.9685L255.441 38.34H255.244L254.354 35.9685V38.34H253.86V35.2768H254.651L255.441 37.3519L256.232 35.2768H257.022V38.34H256.331Z" fill="#E43225"/>
<path d="M68.1862 62.253L65.2217 54.3478H49.2135L46.2491 62.253H42L54.846 29.1502H59.4904L72.2376 62.253H68.1862ZM57.02 33.8933L50.9922 50.2964H63.5418L57.02 33.8933Z" fill="#FF9900"/>
<path d="M74.9064 62.2531V29.1504H79.0567V62.2531H74.9064Z" fill="#FF9900"/>
<path d="M85.282 62.2529V38.834H89.4323V62.2529H85.282Z" fill="#FF9900"/>
<path d="M93.3857 31.2253C93.3857 31.1265 93.3857 31.1265 93.3857 31.0277C93.3857 30.9288 93.3857 30.9288 93.3857 30.83C90.2236 30.7312 87.6544 28.1621 87.5556 25C87.4568 25 87.3579 25 87.2591 25C87.1603 25 87.0615 25 86.9627 25C86.8639 28.1621 84.2947 30.7312 81.1326 30.83C81.1326 30.9288 81.1326 30.9288 81.1326 31.0277C81.1326 31.1265 81.1326 31.1265 81.1326 31.2253C84.2947 31.3241 86.8639 33.8933 86.9627 37.0553C87.0615 37.0553 87.1603 37.0553 87.2591 37.0553C87.3579 37.0553 87.4568 37.0553 87.5556 37.0553C87.6544 33.8933 90.2236 31.3241 93.3857 31.2253Z" fill="#FF9900"/>
</svg>
