<svg width="90" height="90" viewBox="0 0 90 90" fill="none" xmlns="http://www.w3.org/2000/svg">
<path d="M5 22.9953C5 13.0568 13.0568 5 22.9953 5H67.0047C76.9432 5 85 13.0568 85 22.9953V67.0047C85 76.9432 76.9432 85 67.0047 85H22.9953C13.0568 85 5 76.9432 5 67.0047V22.9953Z" fill="#FF9900"/>
<path d="M5 29.6154C5 21.5821 11.5122 15.0699 19.5455 15.0699H70.4545C78.4878 15.0699 85 21.5822 85 29.6154V67.0047C85 76.9432 76.9432 85 67.0047 85H22.9953C13.0568 85 5 76.9432 5 67.0047V29.6154Z" fill="#E43225"/>
<path d="M27.2848 28.005C27.5865 29.2365 27.4165 30.5665 27.7133 31.8189C28.7478 31.0616 29.4374 29.8116 29.2958 28.5099C29.2749 26.1799 26.6542 24.3536 24.4609 25.1381C23.0817 25.5321 22.062 26.7698 21.8305 28.1675C21.5546 29.7685 22.5164 31.4064 23.9462 32.1379C23.8045 30.7586 23.4733 29.3054 23.844 27.9557C24.4104 26.4853 26.7614 26.5149 27.2848 28.005ZM68.0941 29.6749C68.5966 27.867 67.503 25.771 65.7099 25.1922C63.9858 24.5149 61.8517 25.377 61.0918 27.0567C60.2445 28.6121 60.7568 30.8251 62.3061 31.7364C62.6115 30.4877 62.3861 29.1503 62.7494 27.9372C63.3282 26.4878 65.6496 26.5296 66.1779 27.9988C66.5141 29.3116 66.2099 30.6909 66.0831 32.016C67.1348 31.6908 67.7912 30.6859 68.0929 29.6786L68.0941 29.6749Z" fill="#B32100"/>
<path d="M62.7539 27.9364C62.3894 29.1618 62.6148 30.4881 62.3106 31.7356C61.4091 37.1542 57.7811 41.9965 52.8687 44.4237C50.4234 45.6543 47.7234 46.2935 44.986 46.2901C42.2486 46.2867 39.5502 45.6407 37.108 44.404C32.2411 41.9829 28.6415 37.1813 27.7166 31.8206C27.421 30.5669 27.5885 29.2505 27.288 28.0066C26.7659 26.5288 24.4137 26.4857 23.8472 27.9574C23.4778 29.3194 23.8103 30.7615 23.9495 32.1395C24.9839 38.8389 29.4666 44.8548 35.5403 47.8411C38.3316 49.2221 41.3912 49.9758 44.5046 50.0494C47.618 50.123 50.7098 49.5147 53.5633 48.2672C60.1308 45.4311 65.0408 39.0975 66.0913 32.0115C66.2181 30.6864 66.5223 29.3059 66.1849 27.9943C65.6553 26.5252 63.3352 26.4845 62.7552 27.9328L62.7539 27.9364Z" fill="white"/>
<path d="M30.4234 66.6103V57.5978H35.7503V58.7277H31.5264V61.4987H35.3198V62.6287H31.5264V65.4535H36.0462V66.5835H30.4234V66.6103Z" fill="white"/>
<path d="M41.6431 66.6102L39.8136 64.2158L37.9842 66.6102H36.6928L39.1948 63.4087L36.5583 60.0996H38.0111L39.8136 62.5747L41.6431 60.0996H43.069L40.5669 63.4087L42.9344 66.6102H41.6431Z" fill="white"/>
<path d="M44.709 65.6417V70.0808H43.6059V63.4357C43.6059 61.7408 44.8973 59.9382 46.9151 59.9382C48.9597 59.9382 50.4933 61.2296 50.4933 63.3549C50.4933 65.4265 48.9328 66.8524 47.1572 66.8524C46.2963 66.8524 45.1394 66.4757 44.709 65.6417ZM49.3364 63.3549C49.3364 61.9022 48.3948 61.0413 46.7267 61.122C45.9196 61.1489 44.6821 61.7407 44.7897 63.8123C44.8166 64.4849 45.5161 65.7493 47.0496 65.7493C48.3679 65.7493 49.3364 64.996 49.3364 63.3549Z" fill="white"/>
<path d="M51.4352 60.0997H52.5382V60.7992C53.0763 60.1804 53.9103 59.9652 54.7981 59.9652V61.1489C54.6636 61.122 53.3453 60.9606 52.5382 62.6824V66.6372H51.4352V60.0997Z" fill="white"/>
<path d="M55.0941 63.3549C55.0941 61.4717 56.4393 59.9382 58.2957 59.9382C60.6094 59.9382 61.4703 61.4717 61.4703 63.4357V63.9737H56.3048C56.3855 65.2113 57.4885 65.857 58.5109 65.83C59.2642 65.8031 59.7753 65.5879 60.3134 65.0499L61.0398 65.8031C60.3672 66.4488 59.5063 66.8793 58.4571 66.8793C56.4931 66.8524 55.0941 65.3996 55.0941 63.3549ZM58.2149 61.0413C57.1657 61.0413 56.3586 61.956 56.3048 62.9514H60.3134C60.3134 61.9829 59.6139 61.0413 58.2149 61.0413Z" fill="white"/>
<path d="M62.0354 65.6957L62.8425 64.9694C62.8156 64.9694 63.2461 65.3998 63.2999 65.4267C63.4882 65.5881 63.6765 65.6957 63.9187 65.7496C64.6182 65.9379 65.8826 65.8841 65.9902 64.9156C66.0441 64.3775 65.6405 64.0816 65.1831 63.8932C64.5913 63.678 63.9456 63.5973 63.3537 63.3283C62.6811 63.0323 62.2506 62.5212 62.2506 61.7679C62.2506 59.8039 65.0486 59.4811 66.3131 60.3958C66.3669 60.4496 66.9857 61.0146 66.9588 61.0146L66.1517 61.6603C65.7481 61.176 65.3715 60.9339 64.5105 60.9339C64.0801 60.9339 63.4882 61.1222 63.3806 61.5795C63.2192 62.2252 63.9456 62.4674 64.4298 62.6019C65.0755 62.7633 65.775 62.8709 66.34 63.2206C67.1202 63.7049 67.3085 64.7541 67.0126 65.5612C66.6897 66.449 65.7212 66.7988 64.8603 66.8257C63.838 66.8795 62.9501 66.5566 62.2237 65.8303C62.1699 65.8303 62.0354 65.6957 62.0354 65.6957Z" fill="white"/>
<path d="M67.7121 65.6957L68.5192 64.9694C68.4923 64.9694 68.9228 65.3998 68.9766 65.4267C69.1649 65.5881 69.3532 65.6957 69.5954 65.7496C70.2949 65.9379 71.5593 65.8841 71.667 64.9156C71.7208 64.3775 71.3172 64.0816 70.8599 63.8932C70.268 63.678 69.6223 63.5973 69.0304 63.3283C68.3578 63.0323 67.9274 62.5212 67.9274 61.7679C67.9274 59.8039 70.7253 59.4811 71.9898 60.3958C72.0436 60.4496 72.6624 61.0146 72.6355 61.0146L71.8284 61.6603C71.4248 61.176 71.0482 60.9339 70.1873 60.9339C69.7568 60.9339 69.1649 61.1222 69.0573 61.5795C68.8959 62.2252 69.6223 62.4674 70.1066 62.6019C70.7522 62.7633 71.4517 62.8709 72.0167 63.2206C72.7969 63.7049 72.9852 64.7541 72.6893 65.5612C72.3665 66.449 71.3979 66.7988 70.537 66.8257C69.5147 66.8795 68.6269 66.5566 67.9005 65.8303C67.8466 65.8303 67.7121 65.6957 67.7121 65.6957Z" fill="white"/>
<path d="M72.957 60.0992V59.3997H72.7148V59.2652H73.3605V59.3997H73.1184V60.0992H72.957Z" fill="white"/>
<path d="M74.1668 60.0992V59.4535L73.9247 60.0992H73.8709L73.6288 59.4535V60.0992H73.4942V59.2652H73.7095L73.9247 59.8302L74.1399 59.2652H74.3552V60.0992H74.1668Z" fill="white"/>
<path d="M22.9431 66.6102L22.136 64.458H17.7776L16.9705 66.6102H15.8136L19.3111 57.5977H20.5756L24.0462 66.6102H22.9431ZM19.903 58.889L18.2619 63.3549H21.6786L19.903 58.889Z" fill="white"/>
<path d="M24.7727 66.6102V57.5977H25.9026V66.6102H24.7727Z" fill="white"/>
<path d="M27.5976 66.6103V60.2342H28.7275V66.6103H27.5976Z" fill="white"/>
<path d="M29.8046 58.1626C29.8046 58.1357 29.8046 58.1357 29.8046 58.1088C29.8046 58.0819 29.8046 58.0819 29.8046 58.055C28.9436 58.028 28.2441 57.3286 28.2172 56.4677C28.1903 56.4677 28.1634 56.4677 28.1365 56.4677C28.1096 56.4677 28.0827 56.4677 28.0558 56.4677C28.0289 57.3286 27.3294 58.028 26.4685 58.055C26.4685 58.0819 26.4685 58.0819 26.4685 58.1088C26.4685 58.1357 26.4685 58.1357 26.4685 58.1626C27.3294 58.1895 28.0289 58.889 28.0558 59.7499C28.0827 59.7499 28.1096 59.7499 28.1365 59.7499C28.1634 59.7499 28.1903 59.7499 28.2172 59.7499C28.2441 58.889 28.9436 58.1895 29.8046 58.1626Z" fill="white"/>
</svg>
