<svg width="90" height="90" viewBox="0 0 90 90" fill="none" xmlns="http://www.w3.org/2000/svg">
<g clip-path="url(#clip0_825_4098)">
<g filter="url(#filter0_d_825_4098)">
<g clip-path="url(#clip1_825_4098)">
<path d="M84.8157 5H5V84.8157H84.8157V5Z" fill="#3A89F6"/>
<g filter="url(#filter1_d_825_4098)">
<path d="M62.4174 30.5191C64.2981 30.2986 68.4445 29.8174 69.1864 30.7477C69.9122 31.6981 68.3603 35.6079 67.6625 37.3202C67.45 37.8495 67.9072 38.0621 68.3844 37.6611C71.4922 35.0786 72.2902 29.6169 71.6606 28.8389C71.031 28.061 65.5893 27.3873 62.273 29.7171C61.7638 30.0941 61.852 30.5873 62.4174 30.5191Z" fill="white"/>
<path d="M45.3379 40.0544C52.572 40.0544 60.9771 37.7807 66.7756 33.5019C67.738 32.7921 66.916 31.7295 65.9335 32.1425C59.6048 34.8092 52.811 36.1995 45.9434 36.2328C36.7535 36.24 27.7201 33.844 19.7417 29.2833C19.088 28.9024 18.6068 29.5721 19.1482 30.0613C26.3254 36.5379 35.6704 40.1037 45.3379 40.0544Z" fill="white"/>
</g>
<g filter="url(#filter2_d_825_4098)">
<path fill-rule="evenodd" clip-rule="evenodd" d="M4 78.8656C6.95384 73.9529 12.3311 70.6645 18.4648 70.6645C19.4535 70.6645 20.421 70.7496 21.3644 70.9133C22.2385 60.3286 31.1 52 41.8876 52C50.517 52 57.9137 57.3286 60.973 64.8783C64.0564 60.8109 68.9333 58.1827 74.419 58.1827C79.4164 58.1827 83.9075 60.3633 87 63.8257V86H4V78.8656Z" fill="white"/>
</g>
</g>
</g>
</g>
<defs>
<filter id="filter0_d_825_4098" x="-3" y="-1" width="96" height="96" filterUnits="userSpaceOnUse" color-interpolation-filters="sRGB">
<feFlood flood-opacity="0" result="BackgroundImageFix"/>
<feColorMatrix in="SourceAlpha" type="matrix" values="0 0 0 0 0 0 0 0 0 0 0 0 0 0 0 0 0 0 127 0" result="hardAlpha"/>
<feOffset dy="2"/>
<feGaussianBlur stdDeviation="4"/>
<feComposite in2="hardAlpha" operator="out"/>
<feColorMatrix type="matrix" values="0 0 0 0 0 0 0 0 0 0 0 0 0 0 0 0 0 0 0.1 0"/>
<feBlend mode="normal" in2="BackgroundImageFix" result="effect1_dropShadow_825_4098"/>
<feBlend mode="normal" in="SourceGraphic" in2="effect1_dropShadow_825_4098" result="shape"/>
</filter>
<filter id="filter1_d_825_4098" x="14.9141" y="25.1113" width="60.9453" height="19.9434" filterUnits="userSpaceOnUse" color-interpolation-filters="sRGB">
<feFlood flood-opacity="0" result="BackgroundImageFix"/>
<feColorMatrix in="SourceAlpha" type="matrix" values="0 0 0 0 0 0 0 0 0 0 0 0 0 0 0 0 0 0 127 0" result="hardAlpha"/>
<feOffset dy="1"/>
<feGaussianBlur stdDeviation="2"/>
<feComposite in2="hardAlpha" operator="out"/>
<feColorMatrix type="matrix" values="0 0 0 0 0 0 0 0 0 0 0 0 0 0 0 0 0 0 0.25 0"/>
<feBlend mode="normal" in2="BackgroundImageFix" result="effect1_dropShadow_825_4098"/>
<feBlend mode="normal" in="SourceGraphic" in2="effect1_dropShadow_825_4098" result="shape"/>
</filter>
<filter id="filter2_d_825_4098" x="0" y="47" width="91" height="42" filterUnits="userSpaceOnUse" color-interpolation-filters="sRGB">
<feFlood flood-opacity="0" result="BackgroundImageFix"/>
<feColorMatrix in="SourceAlpha" type="matrix" values="0 0 0 0 0 0 0 0 0 0 0 0 0 0 0 0 0 0 127 0" result="hardAlpha"/>
<feOffset dy="-1"/>
<feGaussianBlur stdDeviation="2"/>
<feComposite in2="hardAlpha" operator="out"/>
<feColorMatrix type="matrix" values="0 0 0 0 0 0 0 0 0 0 0 0 0 0 0 0 0 0 0.25 0"/>
<feBlend mode="normal" in2="BackgroundImageFix" result="effect1_dropShadow_825_4098"/>
<feBlend mode="normal" in="SourceGraphic" in2="effect1_dropShadow_825_4098" result="shape"/>
</filter>
<clipPath id="clip0_825_4098">
<rect width="90" height="90" fill="white"/>
</clipPath>
<clipPath id="clip1_825_4098">
<rect x="5" y="5" width="80" height="80" rx="8" fill="white"/>
</clipPath>
</defs>
</svg>
