<svg width="300" height="100" viewBox="0 0 300 100" fill="none" xmlns="http://www.w3.org/2000/svg">
<path fill-rule="evenodd" clip-rule="evenodd" d="M100.17 42.4844V39.3358C100.17 38.895 100.485 38.5802 100.925 38.5172H114.653C115.094 38.5172 115.409 38.8321 115.409 39.2729V39.3358V41.9806C115.22 42.7363 114.905 43.366 114.401 43.9328L107.286 54.2601C109.993 54.1341 112.701 54.7009 115.094 55.9603C115.535 56.2122 115.787 56.653 115.787 57.1568V60.4943C115.787 60.9351 115.472 61.2499 115.094 61.2499C114.968 61.2499 114.905 61.2499 114.779 61.187C110.245 58.794 104.83 58.794 100.296 61.187C99.7919 61.4388 99.3511 60.9351 99.3511 60.4313V57.2827C99.2882 56.5271 99.4771 55.7714 99.8549 55.1417L108.104 43.1141H100.988C100.548 43.2401 100.17 42.9252 100.17 42.4844ZM44.4402 61.3129C44.0624 61.3129 43.6845 60.998 43.6845 60.5572V38.5172C43.6845 38.0764 44.0624 37.6986 44.5032 37.6986H48.5333C48.9741 37.6986 49.289 38.0134 49.3519 38.4542V41.3509H49.4149C50.1706 38.8321 52.5005 37.1948 55.0823 37.2578C57.7901 37.2578 59.4903 38.5172 60.6868 41.3509C61.9462 38.0764 65.6615 36.4391 68.936 37.6986C70.0065 38.0764 70.9511 38.7691 71.6438 39.6507C73.0292 41.4769 72.7143 44.1846 72.7143 46.5776V60.5572C72.7143 60.998 72.3365 61.3759 71.8957 61.3759H67.5507C67.1099 61.3759 66.795 60.9981 66.795 60.6202V48.9075C66.858 47.5221 66.795 46.1368 66.669 44.7514C66.4801 43.5549 65.3467 42.6733 64.1502 42.8622C63.0167 42.9252 62.0092 43.6179 61.5684 44.6884C61.1906 46.0738 61.0646 47.5221 61.1906 48.9075V60.5572C61.1906 60.998 60.8127 61.3759 60.3719 61.3759H56.0269C55.5861 61.3759 55.2713 60.9981 55.2713 60.6202V48.9075C55.2713 46.4516 55.6491 42.7993 52.6265 42.7993C49.5409 42.7993 49.6668 46.3257 49.6668 48.9075V60.5572C49.6668 60.998 49.289 61.3759 48.8482 61.3759C48.8482 61.3759 48.8482 61.3759 48.7852 61.3759H44.4402V61.3129ZM126.807 37.3207C133.23 37.3207 136.693 42.6733 136.693 49.5372C136.693 56.1492 132.852 61.3759 126.807 61.3759C120.509 61.3759 117.046 56.0233 117.046 49.2853C117.046 42.5474 120.509 37.3207 126.807 37.3207ZM123.406 48.5926C123.406 51.2375 123.406 56.9049 126.807 56.9049C130.207 56.9049 130.333 52.3709 130.333 49.5372C130.396 47.5851 130.207 45.696 129.703 43.8068C129.451 42.4844 128.192 41.6028 126.87 41.7287C123.595 41.7287 123.406 45.9478 123.406 48.5926ZM145.194 61.3129H141.227C140.849 61.3129 140.534 60.9351 140.534 60.5572V38.5172C140.597 38.0764 140.912 37.7615 141.29 37.8245H145.005C145.32 37.8245 145.635 38.0764 145.698 38.4542V41.7917H145.761C146.894 38.7691 148.469 37.3837 151.239 37.3837C153.129 37.2578 154.892 38.2653 155.899 39.9655C156.97 41.7287 156.97 44.6884 156.97 46.8294V60.7462C156.907 61.124 156.592 61.4388 156.214 61.4388H152.184C151.806 61.4388 151.491 61.124 151.491 60.7462V48.8445C151.491 46.3886 151.743 42.9252 148.973 42.9252C147.965 42.9882 147.083 43.6809 146.706 44.6884C146.202 46.0108 146.013 47.4592 146.076 48.8445V60.5572C146.013 60.998 145.635 61.3759 145.194 61.3129ZM93.3689 60.998C93.117 61.2499 92.6762 61.2499 92.3613 61.124C91.4168 60.3683 90.5981 59.4238 89.9684 58.2903C88.2682 60.3683 85.6864 61.5018 82.9786 61.3759C79.3263 61.3759 76.6185 59.1719 76.6185 54.8268C76.5555 51.8042 78.3187 49.0964 81.1524 47.9629C83.4824 46.9554 86.6939 46.7665 89.1498 46.5146V45.9478C89.2757 44.8773 89.0868 43.8698 88.646 42.9252C88.0793 42.1695 87.1347 41.7917 86.2531 41.8547C84.6159 41.7287 83.1675 42.7993 82.8527 44.3736C82.7897 44.7514 82.4748 45.0662 82.097 45.1292L78.0039 44.6884C77.626 44.6254 77.3112 44.1846 77.4371 43.8068C78.3817 38.832 82.8527 37.3837 86.9458 37.3837C89.2757 37.3207 91.4797 38.0764 93.3059 39.4618C95.3839 41.3509 95.195 43.9327 95.195 46.7035V53.2525C95.195 54.7009 95.7618 56.0863 96.7693 57.1568C97.0842 57.4716 97.0842 57.9754 96.7693 58.2903C95.6988 58.92 94.1875 60.2424 93.3689 60.998ZM89.2128 50.8596V49.978C86.1272 49.978 82.9156 50.6077 82.9156 54.0082C82.9156 55.7714 83.8602 56.9049 85.4975 56.9049C86.7569 56.8419 87.8904 56.1492 88.4571 55.0787C89.0868 53.7563 89.3387 52.308 89.2128 50.8596ZM37.6393 60.998C37.3874 61.2499 36.9466 61.2499 36.6318 61.124C35.6872 60.3683 34.8686 59.3608 34.2388 58.3532C32.5386 60.4313 29.9568 61.5648 27.249 61.4388C23.6597 61.4388 20.8889 59.2348 20.8889 54.8898C20.763 51.8672 22.5892 49.1594 25.4229 48.0259C27.6898 47.0184 30.9014 46.8294 33.3573 46.5776V46.0108C33.4832 44.9403 33.2943 43.9328 32.8535 42.9882C32.2867 42.2325 31.4051 41.8547 30.4606 41.9177C28.8863 41.7917 27.438 42.8622 27.0601 44.4365C26.9972 44.8143 26.7453 45.1292 26.3045 45.1922L22.2113 44.7514C21.8335 44.6884 21.5816 44.2476 21.6446 43.8698C22.5892 38.895 27.0601 37.4467 31.0903 37.4467C33.4202 37.3837 35.6242 38.0764 37.4504 39.5247C39.5284 41.4139 39.3395 43.9957 39.3395 46.7665V53.3155C39.3395 54.7639 39.9063 56.1492 40.9138 57.2197C41.2287 57.5346 41.2287 57.9754 40.9138 58.2903C40.0322 58.92 38.4579 60.2424 37.6393 60.998ZM33.4832 49.978C30.3976 49.978 27.1861 50.6077 27.1861 54.0082C27.1861 55.7714 28.1306 56.9049 29.7679 56.9049C31.0273 56.8419 32.1608 56.1492 32.6646 55.0787C33.3572 53.7563 33.6091 52.308 33.4832 50.7967V49.978ZM76.2407 79.7006C62.9537 79.7636 50.1076 74.5999 40.2211 65.1542C39.4655 64.4615 40.1581 63.4539 41.0397 64.0207C52.0597 70.6327 64.4651 74.1591 77.1852 74.0961C86.6309 74.0332 95.9507 72.0181 104.704 68.1768C106.026 67.5471 107.16 69.1214 105.837 70.1289C97.7769 76.3631 86.1901 79.7006 76.2407 79.7006ZM108.923 66.3506C107.915 65.0282 102.059 65.7209 99.4141 66.0358C98.5955 66.0987 98.4695 65.4061 99.2252 64.9023C103.885 61.5648 111.505 62.5094 112.386 63.6428C113.268 64.7763 112.134 72.5218 107.789 76.2372C107.097 76.8039 106.467 76.4891 106.782 75.7334C107.726 73.2775 109.93 67.673 108.923 66.3506ZM243.178 57.6605C243.996 57.0938 244.437 56.1492 244.437 55.2047C244.437 54.5749 244.185 53.8823 243.744 53.4415C242.989 52.8117 242.044 52.3709 241.099 52.1191L237.132 50.6707C233.669 49.4743 231.969 47.3332 231.969 44.4365C231.906 42.6103 232.787 40.8471 234.299 39.7136C236.062 38.4542 238.266 37.8245 240.47 37.9505C242.485 37.9505 244.5 38.3283 246.389 38.958C246.704 39.021 246.956 39.2099 247.208 39.3988C247.397 39.6507 247.46 39.9655 247.46 40.2804V41.4769C247.46 41.9806 247.271 42.2955 246.83 42.2955C246.452 42.2955 246.074 42.1695 245.759 42.0436C244.122 41.6028 242.422 41.3509 240.722 41.3509C237.762 41.3509 236.251 42.2955 236.251 44.2476C236.188 44.9403 236.503 45.633 237.006 46.0738C237.888 46.7035 238.895 47.2073 239.966 47.5221L243.681 48.8445C245.13 49.3483 246.515 50.2299 247.586 51.3004C248.404 52.308 248.845 53.6304 248.845 54.9528C248.908 56.9049 248.026 58.794 246.389 59.9905C244.5 61.3129 242.17 62.0056 239.777 61.8797C237.384 61.9426 234.991 61.5018 232.724 60.6202C232.409 60.4943 232.158 60.3683 231.969 60.1164C231.843 59.8646 231.717 59.5497 231.78 59.2348V57.9754C231.78 57.4716 231.969 57.1568 232.346 57.1568C232.724 57.2198 233.165 57.2827 233.543 57.4087C235.621 58.0384 237.762 58.3532 239.903 58.3532C240.911 58.6051 242.17 58.2903 243.178 57.6605ZM222.649 38.8321C222.586 38.3913 222.901 37.9504 223.342 37.8875C223.405 37.8875 223.468 37.8875 223.53 37.8875H226.175C226.616 37.8245 226.994 38.1394 227.057 38.5802C227.057 38.6431 227.057 38.7061 227.057 38.8321V60.3054C227.12 60.7462 226.805 61.187 226.364 61.2499C226.301 61.2499 226.238 61.2499 226.112 61.2499H224.286C224.034 61.2499 223.782 61.187 223.593 61.061C223.405 60.8721 223.279 60.6202 223.216 60.3683L222.901 58.7311C220.445 60.7462 217.422 61.8167 214.211 61.9426C212.385 62.0686 210.558 61.3759 209.236 60.1164C208.04 58.6681 207.41 56.779 207.536 54.8898V38.8321C207.473 38.3913 207.788 37.9504 208.228 37.8875C208.291 37.8875 208.354 37.8875 208.417 37.8875H211.062C211.503 37.8245 211.881 38.1394 211.944 38.5802C211.944 38.6431 211.944 38.7061 211.944 38.8321V53.4415C211.818 54.7639 212.196 56.0233 212.888 57.0938C213.644 57.9754 214.777 58.4162 215.911 58.2903C218.241 58.2273 220.571 57.4716 222.46 56.0863L222.649 38.8321ZM198.279 61.3129C197.838 61.3759 197.397 61.061 197.334 60.6202C197.334 60.5572 197.334 60.4943 197.334 60.3683V45.4441C197.397 44.2476 197.146 43.0512 196.453 42.0436C195.76 41.2879 194.753 40.8471 193.682 40.9731C191.289 41.0361 188.959 41.7287 186.944 43.0511C186.944 43.303 186.944 43.492 186.944 43.7438V60.4313C187.007 60.8721 186.692 61.3129 186.251 61.3759C186.189 61.3759 186.126 61.3759 186 61.3759H183.292C182.851 61.4389 182.41 61.124 182.347 60.6832C182.347 60.6202 182.347 60.5572 182.347 60.4313V45.507C182.41 44.3106 182.158 43.1141 181.466 42.1066C180.773 41.3509 179.765 40.9101 178.695 41.0361C176.302 41.0361 173.972 41.7287 172.02 43.0511V60.4313C172.083 60.8721 171.768 61.3129 171.327 61.3759C171.264 61.3759 171.201 61.3759 171.075 61.3759H168.368C167.927 61.4389 167.486 61.124 167.486 60.6832C167.486 60.6202 167.486 60.5572 167.486 60.4313V38.958C167.423 38.5172 167.738 38.1394 168.179 38.0134C168.242 38.0134 168.305 38.0134 168.431 38.0134H170.446C170.698 38.0134 170.949 38.0764 171.138 38.2023C171.327 38.3913 171.453 38.6431 171.516 38.895L171.768 40.3434C174.224 38.4542 177.247 37.4467 180.332 37.3207C183.166 37.3207 185.055 38.3913 186.126 40.5953C188.707 38.5802 191.856 37.4467 195.193 37.3207C196.957 37.1948 198.72 37.8875 200.042 39.0839C201.239 40.5323 201.868 42.3585 201.742 44.1846V60.3683C201.805 60.8091 201.491 61.2499 201.05 61.3129C200.987 61.3129 200.924 61.3129 200.798 61.3129H198.279ZM268.303 43.6179C267.17 44.8773 266.603 46.9554 266.603 49.7891V50.3559C266.603 53.1266 267.17 55.1417 268.303 56.4011C269.751 57.7865 271.704 58.5422 273.656 58.3532C275.041 58.3532 276.426 58.1014 277.749 57.7235C278.001 57.6606 278.19 57.5976 278.441 57.5976C278.819 57.5976 279.008 57.9124 279.008 58.4792V59.6756C279.008 59.9905 278.945 60.3054 278.819 60.5572C278.63 60.8091 278.378 60.9351 278.064 61.061C276.426 61.7537 274.663 62.0686 272.9 62.0056C269.311 62.0056 266.603 60.998 264.714 58.92C262.825 56.9049 261.88 53.9452 261.88 50.041C261.88 46.1368 262.825 43.2401 264.777 41.099C266.981 38.895 269.94 37.7615 273.026 37.9505C274.663 37.9505 276.3 38.2653 277.812 38.8321C278.064 38.895 278.315 39.0839 278.504 39.2729C278.63 39.5247 278.756 39.8396 278.693 40.2174V41.4139C278.693 42.0436 278.504 42.2955 278.127 42.2955C277.875 42.2955 277.623 42.2325 277.371 42.1695C276.174 41.7917 274.852 41.6028 273.593 41.6028C271.263 41.6658 269.437 42.3585 268.303 43.6179ZM256.653 39.2099C257.094 39.1469 257.472 39.4618 257.535 39.9026C257.535 39.9655 257.535 40.0285 257.535 40.0915V61.061C257.598 61.5018 257.283 61.8796 256.842 61.9426C256.779 61.9426 256.716 61.9426 256.59 61.9426H253.946C253.505 62.0056 253.127 61.6907 253.064 61.2499C253.064 61.187 253.064 61.124 253.064 61.061V40.0915C253.001 39.6507 253.316 39.2729 253.694 39.2099C253.757 39.2099 253.82 39.2099 253.946 39.2099H256.653ZM257.409 30.4568C258.417 31.6533 258.417 33.4165 257.409 34.613C256.213 35.6205 254.449 35.6205 253.253 34.613C252.245 33.4165 252.245 31.6533 253.253 30.4568C254.449 29.4493 256.213 29.4493 257.409 30.4568Z" fill="#1D1D1B"/>
</svg>
