<svg width="300" height="100" viewBox="0 0 300 100" fill="none" xmlns="http://www.w3.org/2000/svg">
<path fill-rule="evenodd" clip-rule="evenodd" d="M110.164 68.3037C101.505 74.6929 88.954 78.0881 78.1515 78.0881C63.7114 78.1617 49.7642 72.84 39.0435 63.1659C38.2351 62.4354 38.9537 61.4354 39.9297 62.0043C51.8442 68.8147 65.3321 72.3921 79.0557 72.3815C89.3111 72.3317 99.4555 70.2561 108.906 66.2737C110.373 65.657 111.601 67.2438 110.164 68.3037Z" fill="#FF9900"/>
<path fill-rule="evenodd" clip-rule="evenodd" d="M113.768 64.1902C112.661 62.801 106.469 63.5195 103.661 63.8489C102.816 63.9507 102.685 63.2141 103.445 62.6513C108.397 59.1722 116.523 60.1782 117.463 61.3399C118.403 62.5016 117.212 70.6573 112.571 74.5135C111.858 75.1123 111.176 74.795 111.493 74.0046C112.535 71.4477 114.852 65.6094 113.768 64.1902Z" fill="#FF9900"/>
<path fill-rule="evenodd" clip-rule="evenodd" d="M103.137 38.0943V34.711C103.134 34.5979 103.155 34.4855 103.197 34.3805C103.239 34.2755 103.302 34.1801 103.382 34.1001C103.462 34.0201 103.558 33.9571 103.663 33.9149C103.768 33.8728 103.88 33.8523 103.993 33.8547H119.149C119.263 33.8507 119.377 33.8699 119.484 33.9112C119.591 33.9526 119.688 34.0152 119.77 34.0953C119.852 34.1754 119.916 34.2713 119.96 34.3771C120.003 34.483 120.025 34.5966 120.023 34.711V37.6092C120.023 38.0943 119.61 38.729 118.88 39.741L111.029 50.9446C113.945 50.8787 117.017 51.3098 119.676 52.8008C119.913 52.9313 120.112 53.1216 120.253 53.3527C120.393 53.5838 120.471 53.8477 120.478 54.1182V57.711C120.483 57.8464 120.453 57.9807 120.392 58.1016C120.331 58.2225 120.241 58.3262 120.129 58.4031C120.018 58.48 119.889 58.5276 119.754 58.5417C119.62 58.5557 119.484 58.5357 119.359 58.4835C116.882 57.2053 114.136 56.5384 111.35 56.5384C108.563 56.5384 105.817 57.2053 103.341 58.4835C103.217 58.5273 103.084 58.5403 102.954 58.5214C102.825 58.5025 102.701 58.4523 102.595 58.375C102.489 58.2978 102.403 58.1959 102.345 58.0781C102.287 57.9604 102.259 57.8302 102.263 57.6991V54.3218C102.214 53.5085 102.41 52.6991 102.826 51.9984L111.921 38.9505H104.011C103.897 38.9546 103.783 38.9354 103.676 38.894C103.569 38.8527 103.472 38.79 103.39 38.7099C103.309 38.6299 103.244 38.534 103.2 38.4281C103.157 38.3223 103.135 38.2087 103.137 38.0943ZM47.8372 59.208H43.2264C43.0191 59.1993 42.8218 59.1165 42.6702 58.9748C42.5186 58.8331 42.4228 58.6418 42.4001 58.4356V34.7709C42.4024 34.6564 42.4274 34.5434 42.4735 34.4386C42.5197 34.3337 42.5862 34.239 42.6691 34.16C42.7521 34.0809 42.8498 34.0191 42.9568 33.978C43.0637 33.9369 43.1778 33.9174 43.2923 33.9206H47.5857C47.7989 33.9272 48.0021 34.0121 48.1567 34.159C48.3114 34.3058 48.4065 34.5045 48.424 34.717V37.8068H48.5079C49.6276 34.8128 51.7354 33.4236 54.5798 33.4236C57.4241 33.4236 59.2684 34.8188 60.5678 37.8068C60.9962 36.6818 61.7152 35.6904 62.6515 34.9337C63.5879 34.1771 64.7081 33.6822 65.898 33.4996C67.088 33.3171 68.305 33.4532 69.4252 33.8943C70.5453 34.3354 71.5285 35.0655 72.2745 36.0104C73.7356 38.0044 73.4362 40.8907 73.4362 43.4296V58.3637C73.4299 58.593 73.3332 58.8104 73.1671 58.9686C73.0011 59.1268 72.7792 59.2129 72.5499 59.208H67.9391C67.7193 59.1974 67.5116 59.1037 67.3582 58.9459C67.2048 58.788 67.1171 58.5778 67.1128 58.3577V45.8188C67.1768 44.3405 67.1328 42.8595 66.981 41.3877C66.6337 39.7949 65.6038 39.3458 64.2685 39.3458C63.6691 39.3646 63.0886 39.5591 62.5989 39.9051C62.1092 40.251 61.7319 40.7333 61.5139 41.2919C61.0409 42.4895 61.0828 44.4775 61.0828 45.8248V58.3637C61.0765 58.593 60.9798 58.8104 60.8138 58.9686C60.6477 59.1268 60.4259 59.2129 60.1966 59.208H55.5738C55.3534 59.1989 55.145 59.1056 54.9913 58.9474C54.8376 58.7893 54.7503 58.5783 54.7474 58.3577V45.8188C54.7474 43.1781 55.1786 39.2919 51.9091 39.2919C48.6396 39.2919 48.7235 43.0763 48.7235 45.8188V58.3637C48.7172 58.593 48.6205 58.8104 48.4544 58.9686C48.2884 59.1268 48.0665 59.2129 47.8372 59.208ZM133.077 33.4176C139.928 33.4176 143.634 39.2978 143.634 46.7649C143.634 53.9805 139.544 59.711 133.077 59.711C126.359 59.711 122.7 53.8308 122.7 46.5374C122.7 39.244 126.401 33.4176 133.077 33.4176ZM133.119 38.2499C129.718 38.2499 129.526 42.8787 129.526 45.7709C129.526 48.6631 129.484 54.8308 133.119 54.8308C136.754 54.8308 136.874 49.8547 136.874 46.8188C136.949 44.7047 136.717 42.5908 136.185 40.5434C135.622 38.8966 134.616 38.2499 133.119 38.2499ZM152.508 59.208H147.91C147.69 59.1974 147.482 59.1037 147.329 58.9459C147.175 58.788 147.088 58.5778 147.083 58.3577V34.6931C147.109 34.4772 147.213 34.2784 147.377 34.1356C147.541 33.9928 147.752 33.9161 147.97 33.9206H152.245C152.436 33.9268 152.619 33.9951 152.767 34.1151C152.915 34.2351 153.02 34.4002 153.065 34.5853V38.1781H153.149C154.443 34.9386 156.245 33.3877 159.431 33.3877C160.495 33.3367 161.554 33.568 162.501 34.058C163.447 34.548 164.247 35.2794 164.82 36.1781C166.018 38.0703 166.018 41.2619 166.018 43.5493V58.4715C165.985 58.6767 165.88 58.8636 165.722 58.9985C165.564 59.1335 165.363 59.2078 165.155 59.208H160.532C160.331 59.199 160.138 59.1199 159.989 58.9844C159.839 58.8489 159.741 58.6654 159.712 58.4655V45.6212C159.712 43.0284 160.012 39.244 156.826 39.244C156.246 39.2672 155.686 39.4585 155.213 39.7944C154.74 40.1303 154.374 40.5965 154.161 41.1362C153.594 42.5602 153.345 44.0908 153.431 45.6212V58.3637C153.426 58.4799 153.398 58.594 153.35 58.6994C153.301 58.8048 153.231 58.8995 153.146 58.978C153.06 59.0565 152.959 59.1173 152.85 59.1568C152.741 59.1962 152.625 59.2137 152.508 59.208ZM91.0471 47.9146C91.0471 49.711 91.089 51.208 90.1848 52.8008C89.8894 53.4041 89.4373 53.9169 88.8758 54.2856C88.3143 54.6543 87.6641 54.8653 86.9931 54.8967C85.1967 54.8967 84.1907 53.5493 84.1907 51.5493C84.1907 47.6272 87.7177 46.9086 91.053 46.9086V47.9086L91.0471 47.9146ZM95.6938 59.1541C95.5449 59.2813 95.3606 59.3598 95.1658 59.3791C94.9709 59.3984 94.7749 59.3575 94.604 59.2619C93.5498 58.4125 92.6572 57.38 91.9692 56.214C89.4363 58.7949 87.6458 59.5673 84.3644 59.5673C80.4841 59.5673 77.4601 57.1721 77.4601 52.3817C77.4043 50.7704 77.847 49.1811 78.728 47.8308C79.6089 46.4804 80.8851 45.4349 82.3823 44.8368C84.8853 43.741 88.3704 43.5374 91.053 43.238V42.6392C91.053 41.5434 91.1429 40.244 90.4902 39.2919C90.1875 38.8984 89.7942 38.5841 89.3437 38.3755C88.8933 38.167 88.3991 38.0705 87.9033 38.0943C86.1428 38.0943 84.5799 38.9925 84.1967 40.8607C84.1715 41.069 84.0798 41.2636 83.9353 41.4157C83.7907 41.5678 83.601 41.6692 83.3943 41.705L78.9272 41.244C78.8173 41.2289 78.7116 41.1916 78.6167 41.1342C78.5217 41.0769 78.4394 41.0007 78.375 40.9104C78.3105 40.8202 78.2651 40.7177 78.2417 40.6092C78.2182 40.5008 78.2172 40.3887 78.2386 40.2799C79.2685 34.8547 84.1668 33.22 88.55 33.22C90.7956 33.22 93.7297 33.8188 95.4962 35.5194C97.7417 37.6152 97.5261 40.4116 97.5261 43.4535V50.6392C97.5261 52.7949 98.4243 53.7469 99.2687 54.9086C99.4224 55.0701 99.5082 55.2845 99.5082 55.5074C99.5082 55.7304 99.4224 55.9448 99.2687 56.1062C98.3285 56.8967 96.6519 58.3517 95.7297 59.1721L95.6938 59.1541ZM30.5976 47.9146C30.5976 49.711 30.6395 51.208 29.7353 52.8008C29.4404 53.4045 28.9885 53.9176 28.4269 54.2864C27.8653 54.6551 27.2148 54.8659 26.5437 54.8967C24.7473 54.8967 23.7413 53.5493 23.7413 51.5493C23.7413 47.6272 27.2623 46.9086 30.5976 46.9086V47.9146ZM35.2503 59.1541C35.1014 59.2813 34.9172 59.3598 34.7223 59.3791C34.5275 59.3984 34.3314 59.3575 34.1605 59.2619C33.1019 58.4136 32.2053 57.3811 31.5138 56.214C28.9808 58.7949 27.1904 59.5673 23.9089 59.5673C20.0287 59.5673 17.0047 57.1721 17.0047 52.3817C16.9488 50.7704 17.3916 49.1811 18.2725 47.8308C19.1535 46.4804 20.4296 45.4349 21.9269 44.8368C24.4299 43.741 27.9149 43.5374 30.5976 43.238V42.6392C30.5976 41.5434 30.6814 40.244 30.0407 39.2919C29.7381 38.8984 29.3447 38.5841 28.8943 38.3755C28.4439 38.167 27.9497 38.0705 27.4539 38.0943C25.6934 38.0943 24.1305 38.9925 23.7473 40.8607C23.722 41.069 23.6303 41.2636 23.4858 41.4157C23.3413 41.5678 23.1516 41.6692 22.9449 41.705L18.4478 41.244C18.3379 41.2289 18.2322 41.1916 18.1373 41.1342C18.0423 41.0769 17.9601 41.0007 17.8956 40.9104C17.8311 40.8202 17.7857 40.7177 17.7623 40.6092C17.7388 40.5008 17.7378 40.3887 17.7592 40.2799C18.7832 34.8547 23.6814 33.22 28.0706 33.22C30.3162 33.22 33.2503 33.8188 35.0168 35.5194C37.2623 37.6152 37.0467 40.4116 37.0467 43.4535V50.6392C37.0467 52.7949 37.9449 53.7469 38.7893 54.9086C38.943 55.0701 39.0288 55.2845 39.0288 55.5074C39.0288 55.7304 38.943 55.9448 38.7893 56.1062C37.8491 56.8967 36.1725 58.3517 35.2503 59.1721V59.1541Z" fill="#000008"/>
<path d="M200.147 59.064H195.273V55.3814H195.165C194.192 56.7831 192.852 57.8895 191.291 58.579C189.706 59.3241 187.977 59.7125 186.225 59.7167C184.377 59.7433 182.544 59.3929 180.836 58.6868C179.273 58.0338 177.868 57.0537 176.716 55.8125C175.568 54.5709 174.675 53.1164 174.087 51.5311C173.458 49.8318 173.146 48.0317 173.165 46.2197C173.147 44.4002 173.46 42.5924 174.087 40.8844C174.667 39.295 175.561 37.8388 176.716 36.603C177.876 35.3778 179.279 34.4089 180.836 33.7587C182.544 33.0526 184.377 32.7021 186.225 32.7287C188.025 32.7184 189.804 33.1155 191.429 33.8904C192.945 34.5748 194.239 35.67 195.165 37.0521H195.273V18.106H200.147V59.064ZM186.824 55.1658C188.032 55.1846 189.23 54.9542 190.345 54.4892C191.351 54.0608 192.255 53.424 192.998 52.6209C193.745 51.8074 194.317 50.8496 194.68 49.8066C195.469 47.4763 195.469 44.9512 194.68 42.6209C194.316 41.5784 193.744 40.6208 192.998 39.8066C192.252 39.0152 191.348 38.389 190.345 37.9682C188.085 37.0628 185.563 37.0628 183.303 37.9682C182.299 38.3875 181.395 39.014 180.65 39.8066C179.904 40.6208 179.332 41.5784 178.968 42.6209C178.179 44.9512 178.179 47.4763 178.968 49.8066C179.331 50.8496 179.903 51.8074 180.65 52.6209C181.395 53.4142 182.299 54.0407 183.303 54.4593C184.416 54.9342 185.614 55.1748 186.824 55.1658ZM209.818 33.3814V37.3335H209.926C210.254 36.6439 210.693 36.0128 211.225 35.4652C211.758 34.9084 212.362 34.4251 213.022 34.0281C213.71 33.6226 214.446 33.3048 215.213 33.082C215.99 32.8485 216.797 32.7294 217.609 32.7287C218.344 32.7179 219.076 32.8271 219.776 33.0521L219.561 38.3036C219.165 38.1958 218.764 38.106 218.363 38.0341C217.968 37.9617 217.567 37.9257 217.165 37.9263C214.77 37.9263 212.946 38.595 211.692 39.9323C210.439 41.2696 209.806 43.3455 209.794 46.1599V59.064H204.92V33.3814H209.818ZM222.692 25.7167C222.683 25.1214 222.822 24.5331 223.096 24.0047C223.371 23.4763 223.772 23.0244 224.265 22.6896C224.757 22.3548 225.325 22.1476 225.917 22.0867C226.51 22.0258 227.108 22.113 227.658 22.3406C228.208 22.5681 228.693 22.9288 229.069 23.3903C229.446 23.8518 229.701 24.3995 229.813 24.9843C229.926 25.5691 229.891 26.1725 229.712 26.7404C229.533 27.3083 229.215 27.8228 228.788 28.2377C228.285 28.7264 227.65 29.0572 226.961 29.1892C226.272 29.3213 225.56 29.2488 224.912 28.9808C224.264 28.7127 223.708 28.2608 223.314 27.6808C222.919 27.1008 222.703 26.418 222.692 25.7167ZM223.83 33.3814H228.704V59.064H223.83V33.3814ZM231.818 33.3814H237.453L245.148 53.0461L252.513 33.3814H257.717L247.639 59.064H242.249L231.818 33.3814ZM262.573 48.0102C262.559 49.0749 262.81 50.1265 263.303 51.07C263.78 51.9773 264.433 52.7796 265.226 53.4293C266.049 54.0962 266.987 54.6094 267.992 54.9443C269.038 55.3069 270.137 55.4911 271.244 55.4892C272.635 55.5227 274.006 55.157 275.196 54.4353C276.372 53.6809 277.416 52.7382 278.286 51.6449L281.968 54.4593C279.262 57.9603 275.469 59.7127 270.591 59.7167C268.708 59.743 266.839 59.3929 265.094 58.6868C263.51 58.0484 262.081 57.0786 260.902 55.8425C259.749 54.6052 258.855 53.1494 258.274 51.5611C257.654 49.8494 257.347 48.04 257.369 46.2197C257.351 44.3931 257.691 42.5805 258.369 40.8844C259.003 39.2903 259.943 37.8358 261.136 36.603C262.326 35.3803 263.752 34.4126 265.327 33.7587C267.008 33.0615 268.813 32.7112 270.633 32.7287C272.624 32.6701 274.602 33.0803 276.405 33.9263C277.908 34.6668 279.229 35.73 280.274 37.0401C281.287 38.3246 282.034 39.7985 282.471 41.3754C282.92 42.9715 283.148 44.6216 283.148 46.2796V48.0102H262.573ZM277.962 44.1119C277.941 43.0939 277.767 42.0847 277.447 41.1179C277.158 40.2439 276.689 39.4402 276.07 38.7587C275.428 38.0729 274.643 37.5372 273.771 37.1898C272.741 36.795 271.645 36.6058 270.543 36.6329C269.413 36.6187 268.294 36.8496 267.262 37.3096C266.317 37.7283 265.463 38.3261 264.747 39.07C264.075 39.767 263.534 40.5781 263.148 41.4652C262.781 42.2935 262.587 43.1881 262.579 44.094H277.968L277.962 44.1119Z" fill="#3A89F6"/>
</svg>
