<svg version="1.1" id="Camada_1" xmlns="http://www.w3.org/2000/svg" xmlns:xlink="http://www.w3.org/1999/xlink" x="0px" y="0px"
	 viewBox="0 0 1116 220.2" style="enable-background:new 0 0 1116 220.2;" xml:space="preserve">
<style type="text/css">
	.st0{fill:#F80032;}
</style>
<g>
	<g>
		<g>
			<path class="st0" d="M6.6,26.2c0-8.8,0-17.5,0-26.5c367.8,0,735.5,0,1103.7,0c0,8.8,0,17.5,0,26.5
				C742.3,26.2,374.5,26.2,6.6,26.2z"/>
			<path class="st0" d="M6.6,220.2c0-8.8,0-17.5,0-26.5c367.8,0,735.5,0,1103.7,0c0,9,0,17.5,0,26.5
				C742.3,220.2,374.5,220.2,6.6,220.2z"/>
		</g>
		<g>
			<path class="st0" d="M283.1,165.1c-9.6,0-18.9,0-28.7,0c0-1.9,0-3.9,0-5.5c0-20.6,0-41.4,0-62.2c0-11.2-4.6-17.3-14-18.1
				c-10.5-1.1-17.8,4.6-19.7,15.1c-0.6,2.8-0.8,5.5-0.8,7.9c0,18.9,0,37.8,0,56.7c0,1.9,0,3.9,0,6.1c-9.6,0-18.6,0-28.2,0
				c0-3,0-5.5,0-8.3c0-18.4,0-36.7,0-55c0-2.2,0-4.1-0.2-6.1c-1.7-13.4-9.9-18.9-23.2-15.3c-7.2,2.2-11,6.8-11.2,15.6
				c-0.2,17-0.2,33.9-0.2,51c0,5-0.2,9.9,0,14.5c0,2.4-0.6,3.9-3.3,3.9c-8.3-0.2-16.4,0-25.2,0c0-35.9,0-71.2,0-107.1
				c8.8,0,17.5,0,26.9,0c0,4.6,0,8.8,0,13.1c0.6,0.6,0.8,0.8,1.1,1.3c6.8-12,17-17.3,30.4-17.3s24.1,4.6,29.8,18.4
				c5.5-9,12.5-14.5,22.5-17c19.7-5,38.3,4.4,43,22.5c1.1,4.4,1.7,9,1.7,13.4c0.2,23.6,0,46.8,0,70.3
				C283.3,163.2,283.1,163.8,283.1,165.1z"/>
			<path class="st0" d="M408.8,119.4c-26.3,0-52.1,0-77.7,0c-2.4,11.8,6.6,24.1,19.2,26.3c11,1.9,20.8,0.6,27.6-9.9
				c0.6-1.1,2.2-1.9,3.3-1.9c8.8-0.2,17.5-0.2,26.5-0.2c-1.1,9.6-6.6,16.2-12.9,22.1c-13.4,12.3-29.8,14.5-47.1,12.5
				c-5-0.6-9.6-1.9-14-3.9c-17.3-6.8-28.2-19.2-30.7-38.1c-1.7-11.4-1.7-23,1.3-33.9c5.2-21.4,23.2-36.4,45.1-37.5
				c7.2-0.2,14.5,0,21.4,1.7c22.7,5.2,37,23.2,38.1,47.9C408.8,109.2,408.8,114.2,408.8,119.4z M331.2,100.8c15.9,0,32,0,47.9,0
				c-0.6-14-10.1-23-24.7-22.7C341.1,78.1,331.2,87.3,331.2,100.8z"/>
			<path class="st0" d="M109.4,165.4c-10.1,0-19.5,0.2-29.1-0.2c-1.1,0-2.8-1.7-3.3-3c-0.8-2.4-1.1-5.2-1.9-8.5
				c-1.9,1.7-3.5,2.8-5,4.1c-11,9.4-23.2,12.9-37.5,10.5c-14.2-2.8-23.8-12-25.8-26c-2.2-16.2,4.4-30.2,18.1-35.3
				c8.8-3.3,18.1-4.4,27.4-6.3c4.6-1.1,9.4-1.3,14-2.4c4.4-1.3,7.9-3.9,7.9-9s-2.4-8.8-8.3-9.9c-5.5-1.1-11-1.3-16.4-0.8
				c-5.7,0.6-9.9,4.1-11,9.9c-0.8,4.1-3,4.6-6.3,4.4c-7.2-0.2-14.2,0-21.4,0C10,75.6,20.7,62,37.9,57.6c14.5-3.5,29.1-3,43.3,1.9
				c15.4,5,21.3,13.5,21.5,29.7c0.2,19.5,0,38.6,0,58c0,5.5-0.6,11,5.2,14.2C109.2,161.8,109.2,163.4,109.4,165.4z M75.5,114.4
				c-8.8,1.9-16.4,3.5-24.1,5.2c-3.5,0.8-6.8,1.9-9.9,3.9c-5.2,3-6.6,7.9-6.1,13.4c0.6,5,2.8,8.5,7.7,10.5c11,4.6,27.1-2.4,30.2-14
				C74.9,126.9,74.9,120.6,75.5,114.4z"/>
			<path class="st0" d="M904.6,92.6c-1.1-15.3,8.8-29.6,23.8-34.2c17-5.2,34.2-4.4,51,2.4c11.2,4.6,16.4,13.4,16.7,25.2
				c0.2,20.3,0.2,40.8,0.2,61.1c0,5.2-0.2,10.7,5,14c0.8,0.6,0.8,2.4,1.3,4.1c-10.1,0-19.5,0.2-29.1-0.2c-1.1,0-2.8-1.9-3-3
				c-1.1-2.4-1.3-5.2-1.9-8.3c-4.1,3-7.7,6.3-11.8,8.8c-11.4,7.2-24.1,8.3-37,3.9c-12.5-4.6-19.5-15.1-19.7-29.3
				c-0.2-15.3,7.2-27.1,20.8-31.3c10.5-3.3,21.4-4.4,32-6.3c3-0.6,6.1-1.1,8.8-2.2c3.9-1.3,6.1-4.1,6.1-8.5
				c-0.2-4.6-1.9-8.8-6.3-9.4c-6.8-1.1-14-1.1-20.8-0.6c-4.6,0.6-7.7,4.4-8.5,9c-0.8,3.9-3,4.6-6.3,4.4
				C919.1,92.2,912,92.6,904.6,92.6z M969,114.4c-9,1.9-17,3.5-24.7,5.5c-3,0.8-6.3,1.9-9,3.3c-5,2.8-6.8,7.4-6.6,12.9
				c0.2,5,2.4,9,7.2,11.2c10.5,4.6,26.5-1.7,30.2-12.3C968.1,128.1,968.1,121.1,969,114.4z"/>
			<path class="st0" d="M766.1,165.4c-10.1,0-19.2,0.2-28.5-0.2c-1.1,0-2.8-1.7-3.3-3c-1.1-2.8-1.3-5.5-1.9-8.3
				c-4.6,3.3-8.5,6.6-12.9,9.4c-14.2,8.8-34.8,7.2-46-3c-15.6-14.2-12-43.8,7.2-52.6c9-4.1,19.2-5.2,29.1-7.4
				c4.6-1.1,9.6-1.3,14.2-2.8c4.4-1.1,7.7-3.9,7.7-8.8c0.2-5.2-2.4-9-7.9-10.1s-11.4-1.3-17-0.8c-6.1,0.6-9.4,5-11.2,10.5
				c-0.6,1.3-2.2,3.5-3.3,3.5c-7.9,0.2-16.2,0.2-24.1,0.2c-1.7-14.5,8.5-29.6,23.8-34.2c16.7-5.2,33.4-4.4,50.1,2.2
				c12,4.6,17.5,13.6,17.5,26.3c0.2,11.8,0,23.6,0,35.3c0,9,0.2,18.1,0.6,27.4c0,4.4,0.2,8.8,4.4,11.8
				C765.6,161.6,765.6,163.2,766.1,165.4z M732.5,114.4c-8.5,1.9-16.2,3.5-23.8,5.5c-3.5,0.8-6.8,1.9-9.9,3.5c-5.5,3-6.6,8.3-6.1,14
				c0.6,5.2,3.3,8.8,8.3,10.5c12,4.4,27.6-4.1,30.2-16.7C732.1,125.3,732.1,119.9,732.5,114.4z"/>
			<path class="st0" d="M1080.8,90.2c-3.5-12.9-21.4-18.9-32.4-10.7c-2.2,1.7-3.9,5.5-3.5,7.9s3.3,5.5,5.5,6.3
				c8.8,2.8,17.8,4.6,26.9,7.2c5.5,1.7,10.7,3,15.6,5.2c11,5,18.1,12.5,18.6,25.2c0.8,13.1-4.1,24.1-15.6,30.7
				c-6.3,3.5-14,5.7-21.4,6.8c-13.1,1.9-26.3,1.3-38.9-3.3c-14.5-5.5-23.8-19.5-22.7-33.7c1.1-0.2,2.4-0.2,3.5-0.2
				c8.3,0,16.2,0,24.7,0c1.1,6.6,3.3,12.3,10.1,14.5c8.8,2.8,17.5,3.3,26.3-0.2c3.5-1.3,6.1-4.1,5.7-8.3c-0.3-4.2-2.4-6.6-6.3-7.7
				c-8.3-2.4-16.4-4.6-24.9-7.2c-5.7-1.7-11.8-3-17.3-5.5c-19.2-7.7-25.2-27.4-13.4-44.6c5-7.4,11.8-12.5,20.3-15.1
				c15.3-4.4,30.7-4.1,45.7,1.9c13.4,5.2,21.1,17,20.8,30.7C1099.1,90.2,1090,90.2,1080.8,90.2z"/>
			<path class="st0" d="M880.3,165.1c-9.4,0-18.1,0-28,0c-0.2-2.2-0.2-4.1-0.2-6.1c0-18.9,0-37.8,0-56.7c0-2.4-0.2-4.6-0.6-7.2
				c-1.1-10.1-5-15.1-13.4-16.4c-10.5-1.9-19.7,1.9-23.2,10.7c-2.2,5.2-3.3,11-3.3,16.4c-0.6,17.5-0.2,35.3-0.2,53.2
				c0,1.9,0,3.5,0,5.7c-9.6,0-18.4,0-28,0c0-35.6,0-71.2,0-106.8c9,0,17.5,0,26.9,0c0,4.6,0,8.8,0,14.5c1.7-1.9,2.8-2.8,3.3-3.9
				c12.9-19.5,45.5-16.4,58-3.9c5.5,5.5,8.3,12.3,8.5,19.5c0.6,26.3,0.2,52.6,0.6,78.8C881,163.8,880.6,163.9,880.3,165.1z"/>
			<path class="st0" d="M649,96.3c-8.8,0-17.3,0.2-26-0.2c-1.1,0-2.2-1.7-2.8-2.8c-3.5-10.1-8.3-14.2-17-14.2
				c-10.5-0.2-17.3,3.9-20.6,13.4c-4.6,13.1-4.6,26.5-0.2,39.7c4.1,11.6,15.7,16.5,27.1,12.5c6.6-2.4,9.4-7.7,10.5-13.6
				c0.8-3.5,2.2-4.4,5.5-4.1c7.9,0.2,15.6,0,24.3,0c-1.9,15.3-8.3,27.6-20.8,35c-18.9,11.2-38.6,10.7-57.5,0.2
				c-11.4-6.3-16.4-17.8-19.5-30.2c-3-12.5-2.8-25.2,0.2-37.5c6.3-27.4,28-41.9,56.4-38.6c3.5,0.6,7.2,1.1,10.5,1.9
				C637.8,61.8,650.1,77.8,649,96.3z"/>
			<path class="st0" d="M425.8,58c8.8,0,17.3,0,26.5,0c0,5.5,0,11,0,16.2c0.6,0.2,0.8,0.2,1.3,0.6c1.3-1.7,2.4-3.3,3.5-5
				c6.3-9.6,15.3-14.2,26.9-14.5c3.3-0.2,5,0.8,5,4.4c-0.2,7.9-0.2,16.2-0.2,24.7c-4.4,0-8.3-0.2-11.8,0c-14,1.1-21.7,8.5-22.1,22.7
				c-0.6,17.3-0.2,34.8-0.2,52.1c0,1.9,0,4.1,0,6.6c-9.6,0-18.6,0-28.2,0C425.8,129.1,425.8,93.8,425.8,58z"/>
			<path class="st0" d="M531.5,165.1c-9.4,0-18.4,0-28,0c0-36.4,0-72.5,0-109c9,0,18.4,0,28,0C531.5,92.2,531.5,128.1,531.5,165.1z"
				/>
		</g>
	</g>
</g>
</svg>
