<svg width="90" height="90" viewBox="0 0 90 90" fill="none" xmlns="http://www.w3.org/2000/svg">
<path d="M49.0457 36.872C41.8606 36.872 36.425 42.4534 36.425 49.3677C36.425 56.6569 42.0897 61.8634 49.0457 61.8634C56.0017 61.8634 61.6456 56.6569 61.6456 49.3677C61.6456 42.4534 56.2308 36.872 49.0457 36.872ZM49.0457 43.4739C52.1488 43.4531 54.6896 46.098 54.6896 49.3677C54.6896 52.6166 52.1488 55.2615 49.0457 55.2615C45.9426 55.2615 43.4018 52.6166 43.4018 49.3677C43.4018 46.098 45.9426 43.4739 49.0457 43.4739Z" fill="#000008"/>
<path d="M85 57.4889C85 59.9048 83.0424 61.8624 80.6265 61.8624C78.2107 61.8624 76.253 59.9048 76.253 57.4889C76.253 55.0731 78.2107 53.1154 80.6265 53.1154C83.0424 53.1154 85 55.0731 85 57.4889Z" fill="#000008"/>
<path d="M72.2696 61.03H65.3969V29.999H72.2696V61.03Z" fill="#000008"/>
<path fill-rule="evenodd" clip-rule="evenodd" d="M5 61.03L17.4958 29.999H23.9519L36.2394 61.03H27.4924L26.0345 56.6565H15.2049L13.747 61.03H5ZM23.9519 50.2004H17.4958L20.7238 39.7873L23.9519 50.2004Z" fill="#000008"/>
</svg>
