<svg width="90" height="90" viewBox="0 0 90 90" fill="none" xmlns="http://www.w3.org/2000/svg">
<path d="M5.50001 59.3228C5.50001 60.2755 5.49956 61.2284 5.50533 62.1813C5.5102 62.984 5.51951 63.7864 5.54123 64.5889C5.58843 66.3367 5.69148 68.0996 6.00195 69.8281C6.31729 71.583 6.83209 73.2165 7.64383 74.8111C8.44117 76.3775 9.48272 77.8104 10.7255 79.0531C11.9683 80.2959 13.4016 81.3377 14.9682 82.135C16.5617 82.9463 18.1945 83.4609 19.9485 83.7762C21.6777 84.0872 23.4413 84.1902 25.1898 84.2374C25.9922 84.2591 26.7946 84.2682 27.5973 84.2733C28.55 84.2791 29.5029 84.2786 30.4558 84.2786H60.3228C61.2757 84.2786 62.2284 84.2791 63.1813 84.2733C63.984 84.2684 64.7864 84.2591 65.5889 84.2374C67.3373 84.1902 69.1011 84.0872 70.8301 83.7762C72.5841 83.4609 74.2167 82.9463 75.8105 82.135C77.377 81.3377 78.8104 80.2959 80.0531 79.0531C81.2957 77.8104 82.3375 76.3775 83.1348 74.8111C83.9465 73.2167 84.4613 71.5832 84.7767 69.8281C85.0872 68.0996 85.1902 66.3367 85.2374 64.5889C85.2591 63.7864 85.2684 62.984 85.2733 62.1813C85.2791 61.2286 85.2786 60.2757 85.2786 59.3228V29.4558C85.2786 28.5029 85.2791 27.5502 85.2733 26.5973C85.2684 25.7946 85.2591 24.9922 85.2374 24.1898C85.1902 22.4419 85.0872 20.6788 84.7767 18.9505C84.4613 17.1954 83.9465 15.5622 83.1348 13.9675C82.3375 12.4014 81.2957 10.9683 80.0531 9.72549C78.8104 8.4825 77.377 7.44073 75.8105 6.64361C74.2169 5.83231 72.5843 5.31774 70.8301 5.00239C69.1011 4.69148 67.3373 4.58843 65.5889 4.54145C64.7864 4.51973 63.984 4.51042 63.1813 4.50555C62.2282 4.49956 61.2755 4.50001 60.3226 4.50001H30.4558C29.5029 4.50001 28.55 4.49956 27.5973 4.50533C26.7946 4.5102 25.9922 4.51951 25.1898 4.54123C23.4413 4.58843 21.6777 4.69148 19.9485 5.00217C18.1945 5.31774 16.5619 5.83231 14.9682 6.64361C13.4016 7.44095 11.9683 8.48272 10.7255 9.72549C9.48294 10.968 8.44117 12.4012 7.64383 13.9675C6.83209 15.5622 6.31707 17.1954 6.00195 18.9505C5.69148 20.6788 5.58843 22.4419 5.54123 24.1898C5.51951 24.9922 5.51042 25.7946 5.50533 26.5973C5.49956 27.5502 5.50001 28.5029 5.50001 29.4558V59.3228Z" fill="url(#paint0_linear_816_3462)"/>
<path d="M50.376 39.403C50.3224 39.403 50.2692 39.4035 50.2153 39.4041C48.4487 39.4294 46.7793 39.8713 45.3047 40.6325C44.6758 38.7223 44.087 36.9379 43.574 35.3862C50.4691 28.9461 52.038 20.7781 52.038 16.4667C52.038 14.8519 51.8592 13.308 51.6505 12.2644C51.5182 11.6034 51.1554 11.1825 50.563 10.9722C50.1313 10.8189 49.3854 10.9567 49.3074 10.9698C42.983 12.0331 38.0768 17.2967 38.0768 25.1094C38.0768 26.9585 38.2714 28.7932 38.6543 30.592C36.0914 32.2267 33.5193 33.9608 31.4913 36.2053C28.9032 39.0695 27.5778 42.3952 27.4397 46.3721C27.2841 50.8546 28.9451 55.0576 32.1167 58.2068C35.2123 61.2805 39.4526 63.0939 44.056 63.3128C44.3886 63.3286 44.7255 63.3366 45.057 63.3366C46.4119 63.3366 47.7418 63.2058 49.0237 62.9518C49.6861 65.2406 50.0329 67.2676 50.0431 68.9875C50.0431 73.1783 48.142 75.3033 44.3922 75.3033C43.0577 75.3033 41.9381 75.0099 41.061 74.4519C40.612 74.1662 40.6623 73.5025 41.1463 73.2812C42.522 72.652 43.478 71.2639 43.478 69.6521C43.478 67.4491 41.6921 65.6632 39.4891 65.6632C37.3285 65.6632 35.5002 67.4915 35.5002 70.0676C35.5002 74.7214 39.0736 78.6272 44.3922 78.6272C47.0814 78.6272 49.3298 77.7733 50.8943 76.1581C52.5355 74.4641 53.3677 72.0515 53.3677 68.9875C53.3568 66.96 52.9663 64.6197 52.216 62.0249C53.7991 61.4079 55.2611 60.5826 56.5464 59.5653C59.6411 57.1152 61.3455 53.8505 61.3455 50.3726C61.3455 44.324 56.4245 39.403 50.376 39.403ZM48.8278 17.5411C49.4896 17.4562 50.0516 18.0282 49.945 18.6868C49.2954 22.6997 45.5405 25.9883 41.6726 28.6321C41.4924 27.4695 41.4009 26.293 41.4009 25.1094C41.4009 21.6007 44.4742 18.0995 48.8278 17.5411ZM37.9982 58.2467C36.2776 56.3311 35.33 53.7709 35.33 51.0374C35.33 45.1546 37.6516 41.21 40.8992 37.8855C41.387 39.3629 41.925 40.9946 42.489 42.7094C40.5878 44.6431 39.4127 47.2641 39.4093 50.1319C39.4078 51.3638 39.5423 52.6314 39.984 53.8631C40.1677 54.3754 40.5087 54.57 40.9132 54.6234C41.3229 54.6775 41.7646 54.4672 42.0881 53.8117C42.6962 52.58 43.8082 51.2993 45.0417 50.5027C46.2862 54.3207 47.4851 58.0315 48.4039 60.9423C47.3692 61.2038 46.2404 61.3423 45.0577 61.3423C42.2982 61.3421 39.7912 60.2427 37.9982 58.2467ZM51.515 59.5739C51.4995 59.5848 51.4831 59.5947 51.4674 59.6054C50.5533 56.7161 49.3832 53.0959 48.1719 49.3804C48.2419 49.3771 48.3119 49.3751 48.3815 49.3751C50.0469 49.3751 51.6024 50.0907 52.6967 51.3764C53.5875 52.4231 54.0602 53.7716 54.0312 55.1458C53.9939 56.9173 53.1257 58.4464 51.515 59.5739Z" fill="white"/>
<g opacity="0.2">
<path d="M54.0249 55.1462C53.9877 56.9178 53.1194 58.4466 51.5086 59.5744C51.4931 59.5852 51.4767 59.5952 51.4609 59.6059C51.6358 60.1583 51.8013 60.6846 51.9558 61.179C52.0449 61.4642 52.1286 61.7457 52.2095 62.0251C53.7927 61.4082 55.2546 60.5829 56.5399 59.5655C57.8629 58.5182 58.9317 57.322 59.722 56.0238L54.0249 55.1462Z" fill="url(#paint1_linear_816_3462)"/>
<path d="M48.3974 60.9424C49.5593 60.6486 50.601 60.198 51.4611 59.6057C50.547 56.7164 49.3769 53.0962 48.1656 49.3807C47.1216 49.4293 46.0333 49.8361 45.0352 50.5027C46.2797 54.3208 47.4786 58.0316 48.3974 60.9424Z" fill="url(#paint2_linear_816_3462)"/>
<path d="M39.4429 18.4614C38.5647 20.3881 38.0703 22.6254 38.0703 25.1096C38.0703 26.9587 38.2649 28.7934 38.6478 30.5922C38.9629 30.3912 39.2778 30.1915 39.5914 29.9927C40.2751 29.5597 40.9723 29.1063 41.6657 28.6323C41.4859 27.4697 41.3944 26.2932 41.3944 25.1096C41.3944 23.454 42.0787 21.7999 43.2592 20.4559L39.4429 18.4614Z" fill="url(#paint3_linear_816_3462)"/>
<path d="M39.0664 62.4122C40.6487 62.9248 42.3231 63.2308 44.0488 63.3128C44.3814 63.3286 44.7183 63.3365 45.0498 63.3365C46.4047 63.3365 47.7345 63.2058 49.0165 62.9518C48.9421 62.6943 48.8645 62.4344 48.7821 62.1702C48.66 61.78 48.531 61.3691 48.3963 60.9421C47.3616 61.2036 46.2327 61.3421 45.05 61.3421C43.5061 61.3421 42.041 60.9979 40.7358 60.3448L39.0664 62.4122Z" fill="url(#paint4_linear_816_3462)"/>
<path d="M40.8906 37.8858C41.3784 39.3632 41.9164 40.9949 42.4804 42.7097C43.2971 41.8791 44.2471 41.1749 45.2964 40.633C44.6675 38.7228 44.0787 36.9384 43.5656 35.3867C43.3626 35.5764 43.1554 35.7648 42.9431 35.9514C42.2291 36.5781 41.5415 37.2196 40.8906 37.8858Z" fill="#F9233B"/>
</g>
<defs>
<linearGradient id="paint0_linear_816_3462" x1="45.3893" y1="83.979" x2="45.3893" y2="6.21892" gradientUnits="userSpaceOnUse">
<stop stop-color="#FA233B"/>
<stop offset="1" stop-color="#FB5C74"/>
</linearGradient>
<linearGradient id="paint1_linear_816_3462" x1="52.1935" y1="60.7268" x2="55.2425" y2="57.5084" gradientUnits="userSpaceOnUse">
<stop stop-color="#F9233B"/>
<stop offset="1" stop-color="#F9233B" stop-opacity="0"/>
</linearGradient>
<linearGradient id="paint2_linear_816_3462" x1="46.7687" y1="49.9587" x2="49.0554" y2="57.8352" gradientUnits="userSpaceOnUse">
<stop stop-color="#F9233B"/>
<stop offset="1" stop-color="#F9233B" stop-opacity="0"/>
</linearGradient>
<linearGradient id="paint3_linear_816_3462" x1="41.8544" y1="28.613" x2="40.0759" y2="22.5151" gradientUnits="userSpaceOnUse">
<stop stop-color="#F9233B"/>
<stop offset="1" stop-color="#F9233B" stop-opacity="0"/>
</linearGradient>
<linearGradient id="paint4_linear_816_3462" x1="48.3596" y1="61.9925" x2="42.0923" y2="61.8231" gradientUnits="userSpaceOnUse">
<stop stop-color="#F9233B"/>
<stop offset="1" stop-color="#F9233B" stop-opacity="0"/>
</linearGradient>
</defs>
</svg>
