<svg width="90" height="90" viewBox="0 0 90 90" fill="none" xmlns="http://www.w3.org/2000/svg">
<path fill-rule="evenodd" clip-rule="evenodd" d="M84.7784 29.9551C84.7784 29.0022 84.7784 28.0493 84.774 27.0964C84.7695 26.2942 84.7607 25.492 84.7385 24.6898C84.692 22.9413 84.5878 21.1795 84.2776 19.451C83.9629 17.6958 83.4465 16.0626 82.6355 14.467C81.8377 12.9003 80.7961 11.4687 79.5529 10.2255C78.3097 8.98227 76.8759 7.94072 75.3091 7.14294C73.7158 6.33186 72.0826 5.81773 70.3296 5.50083C68.6011 5.19058 66.8371 5.08643 65.0886 5.03989C64.2864 5.01773 63.4842 5.00886 62.682 5.00443C61.7291 5 60.7762 5 59.8233 5H29.9551C29.0022 5 28.0493 5 27.0964 5.00443C26.2942 5.00886 25.492 5.01773 24.6898 5.03989C22.9413 5.08864 21.1773 5.19058 19.4488 5.50305C17.6936 5.81773 16.0626 6.33407 14.4693 7.14515C12.9025 7.94294 11.4687 8.98449 10.2255 10.2277C8.98227 11.4709 7.94072 12.9025 7.14294 14.4693C6.33186 16.0648 5.81551 17.6981 5.50083 19.4532C5.19058 21.1817 5.08643 22.9457 5.03989 24.692C5.01773 25.4942 5.00886 26.2964 5.00443 27.0986C5 28.0493 5 29.0022 5 29.9551V59.8211C5 60.774 5 61.7269 5.00443 62.6798C5.00886 63.482 5.01773 64.2842 5.03989 65.0864C5.08643 66.8349 5.19058 68.5967 5.50083 70.3252C5.81551 72.0803 6.33186 73.7136 7.14294 75.3091C7.94072 76.8759 8.98227 78.3075 10.2255 79.5507C11.4687 80.7939 12.9025 81.8355 14.4693 82.6332C16.0626 83.4443 17.6958 83.9585 19.4488 84.2754C21.1773 84.5856 22.9413 84.6898 24.6898 84.7363C25.492 84.7585 26.2942 84.7673 27.0964 84.7718C28.0493 84.7784 29.0022 84.7762 29.9551 84.7762H59.8211C60.774 84.7762 61.7269 84.7762 62.6798 84.7718C63.482 84.7673 64.2842 84.7585 65.0864 84.7363C66.8349 84.6898 68.5989 84.5856 70.3274 84.2754C72.0826 83.9607 73.7136 83.4443 75.3069 82.6332C76.8737 81.8355 78.3075 80.7939 79.5507 79.5507C80.7939 78.3075 81.8355 76.8759 82.6332 75.3091C83.4443 73.7136 83.9607 72.0803 84.2754 70.3252C84.5856 68.5967 84.6898 66.8327 84.7363 65.0864C84.7585 64.2842 84.7673 63.482 84.7718 62.6798C84.7784 61.7269 84.7762 60.774 84.7762 59.8211V29.9551H84.7784Z" fill="url(#paint0_linear_816_3416)"/>
<path fill-rule="evenodd" clip-rule="evenodd" d="M61.3964 17.188C61.2036 17.2057 59.4906 17.5093 59.2845 17.5514L35.5726 22.3359L35.5637 22.3381C34.9455 22.4689 34.4601 22.6882 34.0856 23.0029C33.6335 23.3819 33.3831 23.9182 33.2878 24.5431C33.2679 24.6761 33.2347 24.9464 33.2347 25.3453C33.2347 25.3453 33.2347 49.5714 33.2347 55.0229C33.2347 55.7165 33.1793 56.3902 32.7094 56.9642C32.2396 57.5381 31.659 57.711 30.9787 57.8484C30.4624 57.9525 29.946 58.0567 29.4297 58.1608C27.4707 58.5553 26.1964 58.8234 25.0419 59.2711C23.9383 59.6988 23.1117 60.2439 22.4535 60.9353C21.1482 62.3027 20.6186 64.1575 20.8003 65.8949C20.9554 67.3774 21.6225 68.7957 22.7682 69.8439C23.5416 70.5531 24.5078 71.0916 25.6468 71.3198C26.828 71.5569 28.0867 71.475 29.9261 71.1027C30.9056 70.9054 31.823 70.5974 32.6962 70.081C33.5604 69.5714 34.3006 68.891 34.879 68.0622C35.4596 67.2312 35.8341 66.3071 36.0402 65.3254C36.2529 64.3126 36.3039 63.3974 36.3039 62.3869V36.6473C36.3039 35.2689 36.6939 34.9054 37.8064 34.6351C37.8064 34.6351 57.5161 30.6594 58.4358 30.4799C59.7189 30.234 60.3239 30.5996 60.3239 31.9448V49.516C60.3239 50.2118 60.3172 50.9165 59.843 51.4927C59.3732 52.0666 58.7925 52.2395 58.1122 52.3769C57.5959 52.481 57.0795 52.5852 56.5632 52.6894C54.6042 53.0838 53.3299 53.352 52.1754 53.7996C51.0718 54.2273 50.2452 54.7725 49.587 55.4639C48.2817 56.8312 47.7056 58.686 47.8873 60.4234C48.0424 61.906 48.756 63.3243 49.9017 64.3725C50.6751 65.0816 51.6413 65.6046 52.7804 65.8351C53.9615 66.0722 55.2202 65.988 57.0596 65.6179C58.0391 65.4207 58.9565 65.1259 59.8297 64.6096C60.6939 64.0999 61.4341 63.4196 62.0125 62.5907C62.5931 61.7597 62.9676 60.8356 63.1737 59.8539C63.3865 58.8412 63.3953 57.9259 63.3953 56.9154V19.2844C63.3997 17.9193 62.6795 17.0772 61.3964 17.188Z" fill="white"/>
<defs>
<linearGradient id="paint0_linear_816_3416" x1="44.8892" y1="84.4769" x2="44.8892" y2="6.71888" gradientUnits="userSpaceOnUse">
<stop stop-color="#FA233B"/>
<stop offset="1" stop-color="#FB5C74"/>
</linearGradient>
</defs>
</svg>
