<svg width="480" height="100" viewBox="0 0 480 100" fill="none" xmlns="http://www.w3.org/2000/svg">
<path d="M25.6602 59.2065C25.6602 59.9285 25.6598 60.6506 25.6642 61.3728C25.6679 61.9811 25.6749 62.5892 25.6914 63.1974C25.7272 64.5219 25.8053 65.8579 26.0406 67.1679C26.2795 68.4978 26.6697 69.7357 27.2848 70.9443C27.8891 72.1313 28.6784 73.2172 29.6203 74.159C30.5621 75.1009 31.6483 75.8904 32.8355 76.4946C34.0432 77.1095 35.2806 77.4995 36.6099 77.7384C37.9203 77.9741 39.2568 78.0522 40.5819 78.0879C41.19 78.1044 41.7981 78.1113 42.4064 78.1151C43.1284 78.1195 43.8506 78.1192 44.5727 78.1192H67.2072C67.9294 78.1192 68.6514 78.1195 69.3735 78.1151C69.9818 78.1114 70.5899 78.1044 71.1981 78.0879C72.5231 78.0522 73.8598 77.9741 75.1701 77.7384C76.4993 77.4995 77.7366 77.1095 78.9444 76.4946C80.1316 75.8904 81.2179 75.1009 82.1597 74.159C83.1013 73.2172 83.8908 72.1313 84.4951 70.9443C85.1103 69.7359 85.5004 68.498 85.7394 67.1679C85.9747 65.8579 86.0528 64.5219 86.0885 63.1974C86.105 62.5892 86.112 61.9811 86.1157 61.3728C86.1201 60.6508 86.1198 59.9287 86.1198 59.2065V36.5719C86.1198 35.8497 86.1201 35.1277 86.1157 34.4055C86.112 33.7973 86.105 33.1891 86.0885 32.581C86.0528 31.2564 85.9747 29.9203 85.7394 28.6105C85.5004 27.2804 85.1103 26.0426 84.4951 24.8341C83.8908 23.6472 83.1013 22.5611 82.1597 21.6193C81.2179 20.6773 80.1316 19.8878 78.9444 19.2837C77.7367 18.6689 76.4995 18.2789 75.1701 18.0399C73.8598 17.8043 72.5231 17.7262 71.1981 17.6906C70.5899 17.6741 69.9818 17.6671 69.3735 17.6634C68.6512 17.6588 67.9292 17.6592 67.2071 17.6592H44.5727C43.8506 17.6592 43.1284 17.6588 42.4064 17.6632C41.7981 17.6669 41.19 17.674 40.5819 17.6904C39.2568 17.7262 37.9203 17.8043 36.6099 18.0397C35.2806 18.2789 34.0434 18.6689 32.8355 19.2837C31.6483 19.888 30.5621 20.6775 29.6203 21.6193C28.6786 22.561 27.8891 23.6471 27.2848 24.8341C26.6697 26.0426 26.2794 27.2804 26.0406 28.6105C25.8053 29.9203 25.7272 31.2564 25.6914 32.581C25.6749 33.1891 25.6681 33.7973 25.6642 34.4055C25.6598 35.1277 25.6602 35.8497 25.6602 36.5719V59.2065Z" fill="url(#paint0_linear_816_3466)"/>
<path d="M59.667 44.1104C59.6264 44.1104 59.5861 44.1107 59.5453 44.1113C58.2064 44.1304 56.9413 44.4653 55.8238 45.0422C55.3472 43.5945 54.901 42.2422 54.5122 41.0663C59.7376 36.1856 60.9266 29.9956 60.9266 26.7282C60.9266 25.5044 60.7911 24.3343 60.6329 23.5435C60.5326 23.0425 60.2577 22.7236 59.8088 22.5642C59.4816 22.448 58.9163 22.5525 58.8572 22.5624C54.0643 23.3682 50.3462 27.3572 50.3462 33.278C50.3462 34.6794 50.4936 36.0698 50.7839 37.433C48.8416 38.6719 46.8923 39.986 45.3554 41.687C43.394 43.8577 42.3896 46.378 42.2849 49.3919C42.167 52.7889 43.4258 55.9741 45.8294 58.3608C48.1754 60.6902 51.3888 62.0645 54.8775 62.2304C55.1295 62.2423 55.3848 62.2484 55.6361 62.2484C56.6629 62.2484 57.6707 62.1493 58.6422 61.9568C59.1442 63.6913 59.407 65.2275 59.4148 66.5309C59.4148 69.7069 57.974 71.3173 55.1322 71.3173C54.1209 71.3173 53.2724 71.095 52.6077 70.6721C52.2675 70.4556 52.3056 69.9526 52.6724 69.7848C53.715 69.308 54.4395 68.256 54.4395 67.0346C54.4395 65.3651 53.086 64.0116 51.4165 64.0116C49.7791 64.0116 48.3935 65.3971 48.3935 67.3495C48.3935 70.8763 51.1016 73.8363 55.1322 73.8363C57.1702 73.8363 58.8742 73.1892 60.0598 71.9651C61.3036 70.6813 61.9343 68.8529 61.9343 66.5309C61.926 64.9944 61.6301 63.2208 61.0615 61.2543C62.2612 60.7867 63.3692 60.1613 64.3432 59.3903C66.6885 57.5335 67.9802 55.0593 67.9802 52.4236C67.9802 47.8398 64.2509 44.1104 59.667 44.1104ZM58.4938 27.5424C58.9953 27.4781 59.4212 27.9115 59.3404 28.4107C58.8481 31.4518 56.0025 33.9441 53.0712 35.9477C52.9347 35.0666 52.8653 34.175 52.8653 33.278C52.8653 30.619 55.1944 27.9656 58.4938 27.5424ZM50.2866 58.391C48.9827 56.9393 48.2645 54.9991 48.2645 52.9275C48.2645 48.4692 50.0239 45.4798 52.4851 42.9603C52.8548 44.08 53.2625 45.3166 53.6899 46.6161C52.2492 48.0816 51.3586 50.0679 51.356 52.2413C51.3549 53.1749 51.4568 54.1355 51.7915 55.0689C51.9307 55.4572 52.1892 55.6047 52.4957 55.6451C52.8062 55.6861 53.1409 55.5267 53.3861 55.03C53.847 54.0965 54.6897 53.126 55.6245 52.5222C56.5676 55.4157 57.4762 58.2279 58.1725 60.4339C57.3884 60.6321 56.5329 60.737 55.6366 60.737C53.5453 60.7369 51.6454 59.9037 50.2866 58.391ZM60.5303 59.3968C60.5185 59.4051 60.5061 59.4126 60.4941 59.4207C59.8014 57.231 58.9146 54.4875 57.9967 51.6718C58.0497 51.6692 58.1028 51.6677 58.1555 51.6677C59.4176 51.6677 60.5964 52.21 61.4257 53.1844C62.1009 53.9776 62.4591 54.9996 62.4371 56.041C62.4089 57.3835 61.7509 58.5423 60.5303 59.3968Z" fill="white"/>
<g opacity="0.2">
<path d="M62.4353 56.0411C62.4071 57.3837 61.7491 58.5423 60.5283 59.397C60.5165 59.4052 60.5041 59.4128 60.4922 59.4208C60.6247 59.8395 60.7501 60.2384 60.8672 60.6131C60.9347 60.8292 60.9982 61.0425 61.0595 61.2543C62.2593 60.7867 63.3672 60.1613 64.3413 59.3903C65.3439 58.5966 66.1539 57.69 66.7528 56.7062L62.4353 56.0411Z" fill="url(#paint1_linear_816_3466)"/>
<path d="M58.1691 60.4338C59.0497 60.2112 59.8391 59.8697 60.4909 59.4208C59.7982 57.2312 58.9114 54.4876 57.9935 51.6719C57.2023 51.7087 56.3775 52.017 55.6211 52.5222C56.5643 55.4157 57.4728 58.2279 58.1691 60.4338Z" fill="url(#paint2_linear_816_3466)"/>
<path d="M51.384 28.2397C50.7184 29.6999 50.3438 31.3954 50.3438 33.2781C50.3438 34.6794 50.4912 36.0698 50.7814 37.433C51.0202 37.2807 51.2589 37.1294 51.4965 36.9787C52.0146 36.6505 52.543 36.3069 53.0685 35.9477C52.9323 35.0667 52.8629 34.1751 52.8629 33.2781C52.8629 32.0234 53.3815 30.7698 54.2761 29.7512L51.384 28.2397Z" fill="url(#paint3_linear_816_3466)"/>
<path d="M51.0977 61.5477C52.2968 61.9362 53.5657 62.1681 54.8735 62.2302C55.1256 62.2422 55.3809 62.2482 55.6321 62.2482C56.6589 62.2482 57.6667 62.1491 58.6383 61.9567C58.5819 61.7615 58.5231 61.5645 58.4606 61.3643C58.3681 61.0686 58.2703 60.7572 58.1682 60.4336C57.3841 60.6317 56.5286 60.7367 55.6323 60.7367C54.4622 60.7367 53.352 60.4759 52.3628 59.981L51.0977 61.5477Z" fill="url(#paint4_linear_816_3466)"/>
<path d="M52.4805 42.9603C52.8501 44.08 53.2579 45.3166 53.6853 46.6161C54.3042 45.9867 55.0241 45.4529 55.8193 45.0423C55.3427 43.5946 54.8965 42.2423 54.5077 41.0664C54.3539 41.2102 54.1968 41.3529 54.036 41.4943C53.4948 41.9693 52.9737 42.4555 52.4805 42.9603Z" fill="#F9233B"/>
</g>
<path d="M288.746 31.2222C279.219 31.2222 273.121 38.0278 273.121 48.8302C273.121 59.704 279.173 66.463 288.746 66.463C296.594 66.463 301.935 62.3264 303.236 55.2821H297.966C296.902 59.394 293.522 61.8299 288.771 61.8299C282.505 61.8299 278.536 56.7963 278.536 48.8302C278.536 40.9383 282.552 35.8553 288.746 35.8553C293.377 35.8553 297.017 38.7164 297.963 43.0889H303.211C302.314 35.9733 296.476 31.2222 288.746 31.2222Z" fill="#000008"/>
<path d="M235.204 31.5278C233.572 31.5278 232.25 32.8281 232.25 34.4602C232.25 36.0677 233.572 37.3899 235.204 37.3899C236.837 37.3899 238.159 36.0677 238.159 34.4602C238.159 32.8281 236.837 31.5278 235.204 31.5278Z" fill="#000008"/>
<path d="M237.756 41.03H232.651V65.8964H237.756V41.03Z" fill="#000008"/>
<path d="M172.9 40.7933V65.8955H177.745V31.7876H171.6L160.586 58.9692H160.397L149.358 31.7876H143.238V65.8955H148.061V40.7933H148.225L158.531 65.8955H162.454L172.736 40.7933H172.9Z" fill="#000008"/>
<path d="M199.56 65.8962H204.453V41.0298H199.348V55.5189C199.348 59.395 197.126 61.9488 193.44 61.9488C189.917 61.9488 188.121 59.9162 188.121 56.1334V41.0298H183.016V57.1264C183.016 62.8211 186.324 66.3433 191.736 66.3433C195.541 66.3433 198.07 64.6672 199.442 61.6882H199.56V65.8962Z" fill="#000008"/>
<path d="M218.399 40.5825C224.19 40.5825 227.948 43.7975 228.112 48.3839H223.315C223.032 45.9727 221.257 44.4613 218.399 44.4613C215.634 44.4613 213.79 45.8082 213.79 47.7942C213.79 49.355 214.926 50.4166 217.62 51.0311L221.66 51.9527C226.744 53.135 228.68 55.1211 228.68 58.7118C228.68 63.2489 224.45 66.3706 218.588 66.3706C212.372 66.3706 208.636 63.3202 208.164 58.5938H213.222C213.694 61.1943 215.469 62.4699 218.588 62.4699C221.66 62.4699 223.55 61.1943 223.55 59.1617C223.55 57.5542 222.629 56.6078 219.91 55.9934L215.87 55.047C211.143 53.9607 208.803 51.6894 208.803 48.074C208.8 43.6301 212.679 40.5825 218.399 40.5825Z" fill="#000008"/>
<path d="M259.313 49.5882C258.795 46.9411 256.808 44.8371 253.476 44.8371C249.528 44.8371 246.928 48.1234 246.928 53.4642C246.928 58.923 249.55 62.0913 253.522 62.0913C256.666 62.0913 258.723 60.3659 259.313 57.4829H264.229C263.686 62.7771 259.453 66.3706 253.473 66.3706C246.357 66.3706 241.727 61.5015 241.727 53.4642C241.727 45.5695 246.36 40.5825 253.426 40.5825C259.831 40.5825 263.732 44.6945 264.182 49.5882H259.313Z" fill="#000008"/>
<path d="M307.191 31.7876H312.296V65.8955H307.191V31.7876Z" fill="#000008"/>
<path fill-rule="evenodd" clip-rule="evenodd" d="M325.46 51.4782C319.552 51.8101 316.219 54.4792 316.219 58.8297C316.219 63.2955 319.623 66.3212 324.492 66.3212C327.754 66.3212 330.897 64.5711 332.34 61.806H332.458V65.896H337.352V48.7598C337.352 43.7728 333.498 40.5825 327.471 40.5825C321.324 40.5825 317.494 43.8935 317.212 48.3839H322.034C322.484 46.162 324.328 44.7438 327.282 44.7438C330.401 44.7438 332.269 46.3979 332.269 49.163V51.0777L325.46 51.4782ZM332.269 54.6218V56.5831C332.269 59.8228 329.479 62.2806 325.91 62.2806C323.17 62.2806 321.373 60.8624 321.373 58.6871C321.373 56.5612 323.096 55.2143 326.146 55.0004L332.269 54.6218Z" fill="#000008"/>
<path d="M351.055 40.5825C356.846 40.5825 360.604 43.7975 360.769 48.3839H355.971C355.688 45.9727 353.913 44.4613 351.055 44.4613C348.29 44.4613 346.447 45.8082 346.447 47.7942C346.447 49.355 347.582 50.4166 350.276 51.0311L354.317 51.9527C359.4 53.135 361.336 55.1211 361.336 58.7118C361.336 63.2489 357.106 66.3706 351.244 66.3706C345.028 66.3706 341.292 63.3202 340.82 58.5938H345.879C346.351 61.1943 348.125 62.4699 351.244 62.4699C354.317 62.4699 356.207 61.1943 356.207 59.1617C356.207 57.5542 355.285 56.6078 352.567 55.9934L348.526 55.047C343.799 53.9607 341.459 51.6894 341.459 48.074C341.457 43.6301 345.333 40.5825 351.055 40.5825Z" fill="#000008"/>
<path d="M383.769 48.3839C383.604 43.7975 379.846 40.5825 374.055 40.5825C368.336 40.5825 364.459 43.6301 364.459 48.074C364.459 51.6894 366.799 53.9607 371.526 55.047L375.567 55.9934C378.285 56.6078 379.207 57.5542 379.207 59.1617C379.207 61.1943 377.317 62.4699 374.244 62.4699C371.125 62.4699 369.351 61.1943 368.879 58.5938H363.82C364.292 63.3202 368.028 66.3706 374.244 66.3706C380.106 66.3706 384.336 63.2489 384.336 58.7118C384.336 55.1211 382.4 53.135 377.317 51.9527L373.276 51.0311C370.582 50.4166 369.447 49.355 369.447 47.7942C369.447 45.8082 371.29 44.4613 374.055 44.4613C376.913 44.4613 378.688 45.9727 378.971 48.3839H383.769Z" fill="#000008"/>
<path d="M387.902 34.4602C387.902 32.8281 389.225 31.5278 390.857 31.5278C392.489 31.5278 393.811 32.8281 393.811 34.4602C393.811 36.0677 392.489 37.3899 390.857 37.3899C389.225 37.3899 387.902 36.0677 387.902 34.4602Z" fill="#000008"/>
<path d="M388.303 41.03H393.408V65.8964H388.303V41.03Z" fill="#000008"/>
<path d="M409.124 44.8371C412.457 44.8371 414.443 46.9411 414.961 49.5882H419.831C419.381 44.6945 415.48 40.5825 409.075 40.5825C402.008 40.5825 397.375 45.5695 397.375 53.4642C397.375 61.5015 402.005 66.3706 409.121 66.3706C415.101 66.3706 419.334 62.7771 419.877 57.4829H414.961C414.372 60.3659 412.314 62.0913 409.171 62.0913C405.201 62.0913 402.576 58.923 402.576 53.4642C402.576 48.1234 405.177 44.8371 409.124 44.8371Z" fill="#000008"/>
<path fill-rule="evenodd" clip-rule="evenodd" d="M422.371 58.8297C422.371 54.4792 425.704 51.8101 431.613 51.4782L438.421 51.0777V49.163C438.421 46.3979 436.553 44.7438 433.434 44.7438C430.48 44.7438 428.637 46.162 428.187 48.3839H423.364C423.647 43.8935 427.476 40.5825 433.624 40.5825C439.65 40.5825 443.504 43.7728 443.504 48.7598V65.896H438.611V61.806H438.493C437.05 64.5711 433.906 66.3212 430.645 66.3212C425.773 66.3212 422.371 63.2955 422.371 58.8297ZM438.419 56.5831V54.6218L432.296 55.0004C429.246 55.2143 427.523 56.5612 427.523 58.6871C427.523 60.8624 429.32 62.2806 432.06 62.2806C435.629 62.2806 438.419 59.8228 438.419 56.5831Z" fill="#000008"/>
<path d="M453.582 31.7876H448.477V65.8955H453.582V31.7876Z" fill="#000008"/>
<path d="M128.943 29.2134C129.182 31.3777 128.312 33.553 127.02 35.1138C125.728 36.6774 123.613 37.8899 121.54 37.7308C121.254 35.6103 122.302 33.3966 123.498 32.0141C124.834 30.4533 127.083 29.2874 128.943 29.2134Z" fill="#000008"/>
<path d="M123.98 39.2127C125.342 38.6735 127.033 38.004 128.897 38.1418C130.09 38.2296 133.475 38.5862 135.667 41.8176C135.664 41.8193 135.66 41.8216 135.656 41.8244C135.368 41.9974 131.63 44.249 131.673 48.851C131.722 54.3985 136.499 56.2761 136.63 56.3278L136.632 56.3287C136.63 56.3355 136.626 56.3486 136.62 56.3678C136.51 56.7206 135.764 59.1156 134.073 61.5845C132.531 63.8394 130.938 66.0805 128.417 66.1271C127.208 66.1499 126.399 65.8 125.558 65.4362C124.678 65.0555 123.762 64.6595 122.316 64.6595C120.798 64.6595 119.84 65.0678 118.916 65.461C118.117 65.8014 117.345 66.1305 116.259 66.1737C113.828 66.267 111.977 63.7379 110.424 61.4967C107.25 56.9075 104.823 48.5273 108.082 42.8709C109.697 40.062 112.589 38.2845 115.727 38.2378C117.081 38.2114 118.392 38.7308 119.54 39.1856C120.416 39.5329 121.197 39.8425 121.83 39.8425C122.389 39.8425 123.119 39.5537 123.98 39.2127Z" fill="#000008"/>
<defs>
<linearGradient id="paint0_linear_816_3466" x1="55.89" y1="77.8921" x2="55.89" y2="18.9619" gradientUnits="userSpaceOnUse">
<stop stop-color="#FA233B"/>
<stop offset="1" stop-color="#FB5C74"/>
</linearGradient>
<linearGradient id="paint1_linear_816_3466" x1="61.0474" y1="60.2703" x2="63.358" y2="57.8313" gradientUnits="userSpaceOnUse">
<stop stop-color="#F9233B"/>
<stop offset="1" stop-color="#F9233B" stop-opacity="0"/>
</linearGradient>
<linearGradient id="paint2_linear_816_3466" x1="56.9349" y1="52.1099" x2="58.6679" y2="58.079" gradientUnits="userSpaceOnUse">
<stop stop-color="#F9233B"/>
<stop offset="1" stop-color="#F9233B" stop-opacity="0"/>
</linearGradient>
<linearGradient id="paint3_linear_816_3466" x1="53.2115" y1="35.9331" x2="51.8637" y2="31.3118" gradientUnits="userSpaceOnUse">
<stop stop-color="#F9233B"/>
<stop offset="1" stop-color="#F9233B" stop-opacity="0"/>
</linearGradient>
<linearGradient id="paint4_linear_816_3466" x1="58.1404" y1="61.2296" x2="53.3908" y2="61.1013" gradientUnits="userSpaceOnUse">
<stop stop-color="#F9233B"/>
<stop offset="1" stop-color="#F9233B" stop-opacity="0"/>
</linearGradient>
</defs>
</svg>
