<svg width="90" height="90" viewBox="0 0 90 90" fill="none" xmlns="http://www.w3.org/2000/svg">
<path d="M80.7462 10H58.4821L49.4853 22.7549L44.1328 35.3959L58.4821 36.9903L73.4007 35.4528L84.4474 16.3205C86.0417 13.5304 83.9918 10 80.7462 10Z" fill="#1967D2"/>
<path d="M5.58409 16.3774L14.8656 32.2641C16.0044 34.2001 18.0543 35.3959 20.3319 35.3959L44.1335 35.4528L58.4827 10H9.22835C5.98268 10 3.93279 13.5873 5.58409 16.3774Z" fill="#4285F4"/>
<path d="M48.859 78.2724C47.2647 81.0626 43.2218 81.1195 41.5705 78.3294L32.346 62.8413C31.2072 60.9053 31.1502 58.4568 32.2891 56.4639L44.1898 35.3955L73.4008 35.4524L48.859 78.2724Z" fill="#4285F4"/>
</svg>
