<svg width="300" height="100" viewBox="0 0 300 100" fill="none" xmlns="http://www.w3.org/2000/svg">
<path d="M68.5626 20H49.586L41.9176 30.8715L37.3555 41.646L49.586 43.005L62.3018 41.6945L71.7173 25.3872C73.0763 23.0091 71.3291 20 68.5626 20Z" fill="#1967D2"/>
<path d="M4.49785 25.4358L12.4088 38.9767C13.3795 40.6268 15.1267 41.646 17.0681 41.646L37.3552 41.6945L49.5856 20H7.60401C4.83759 20 3.09037 23.0576 4.49785 25.4358Z" fill="#4285F4"/>
<path d="M41.3841 78.1923C40.0252 80.5705 36.5793 80.619 35.1718 78.2409L27.3094 65.0397C26.3387 63.3896 26.2902 61.3026 27.2608 59.6039L37.4044 41.6465L62.3022 41.695L41.3841 78.1923Z" fill="#4285F4"/>
<path d="M88.4127 66.835H83.3652L96.712 31.454H101.857L115.203 66.835H110.156L106.758 57.2254H91.8586L88.4127 66.835ZM99.1872 37.0354L93.4117 53.0029H105.157L99.3814 37.0354H99.1872ZM131.414 67.6116C129.618 67.6116 128.016 67.2233 126.56 66.4953C125.104 65.7188 123.988 64.7481 123.163 63.4862H122.969L123.163 66.835V77.5125H118.601V42.6167H122.969V45.9656H123.163C123.939 44.7037 125.104 43.6845 126.56 42.9565C128.016 42.1799 129.666 41.8402 131.414 41.8402C134.617 41.8402 137.335 43.1021 139.519 45.5773C141.8 48.101 142.916 51.1587 142.916 54.7016C142.916 58.2931 141.8 61.3507 139.519 63.8259C137.286 66.3497 134.617 67.6116 131.414 67.6116ZM130.637 63.4377C132.821 63.4377 134.665 62.6126 136.121 60.9625C137.626 59.3608 138.354 57.2739 138.354 54.7016C138.354 52.1779 137.626 50.0909 136.121 48.4408C134.617 46.7906 132.821 45.9656 130.637 45.9656C128.405 45.9656 126.56 46.7906 125.104 48.4408C123.648 50.0909 122.92 52.1779 122.92 54.7016C122.92 57.2739 123.648 59.3609 125.104 61.011C126.609 62.6611 128.453 63.4377 130.637 63.4377ZM159.175 67.6116C157.379 67.6116 155.778 67.2233 154.321 66.4953C152.865 65.7188 151.749 64.7481 150.924 63.4862H150.73L150.924 66.835V77.5125H146.362V42.6167H150.73V45.9656H150.924C151.701 44.7037 152.865 43.6845 154.321 42.9565C155.778 42.1799 157.428 41.8402 159.175 41.8402C162.378 41.8402 165.096 43.1021 167.28 45.5773C169.561 48.101 170.677 51.1587 170.677 54.7016C170.677 58.2931 169.561 61.3507 167.28 63.8259C165.096 66.3497 162.378 67.6116 159.175 67.6116ZM158.447 63.4377C160.631 63.4377 162.475 62.6126 163.931 60.9625C165.436 59.3608 166.164 57.2739 166.164 54.7016C166.164 52.1779 165.436 50.0909 163.931 48.4408C162.427 46.7906 160.631 45.9656 158.447 45.9656C156.214 45.9656 154.37 46.7906 152.914 48.4408C151.458 50.0909 150.73 52.1779 150.73 54.7016C150.73 57.2739 151.458 59.3609 152.914 61.011C154.37 62.6611 156.214 63.4377 158.447 63.4377ZM197.516 57.371C197.516 60.4771 196.4 62.9523 194.119 64.8452C191.79 66.6894 189.023 67.6116 185.723 67.6116C182.811 67.6116 180.19 66.738 177.957 65.0393C175.725 63.3406 174.172 60.9625 173.298 58.0019L177.666 56.2062C177.957 57.2739 178.394 58.196 178.88 59.0697C179.413 59.9433 180.044 60.6713 180.724 61.2537C181.452 61.8846 182.228 62.3214 183.053 62.7097C183.927 63.0494 184.801 63.2435 185.771 63.2435C187.858 63.2435 189.557 62.7097 190.867 61.6419C192.178 60.5742 192.857 59.1667 192.857 57.371C192.857 55.8664 192.323 54.6045 191.207 53.5853C190.188 52.5661 188.295 51.5955 185.48 50.6248C182.665 49.6056 180.869 48.9261 180.19 48.5378C176.453 46.645 174.56 43.8301 174.56 40.093C174.56 37.4722 175.579 35.2881 177.666 33.3953C179.753 31.5511 182.374 30.6289 185.432 30.6289C188.149 30.6289 190.479 31.3084 192.469 32.7158C194.459 34.0748 195.769 35.7735 196.4 37.8119L192.129 39.6076C191.741 38.2972 190.964 37.181 189.8 36.3074C188.635 35.4337 187.227 34.9969 185.529 34.9969C183.733 34.9969 182.228 35.4823 181.015 36.5015C179.802 37.4236 179.171 38.637 179.171 40.093C179.171 41.3063 179.656 42.3741 180.627 43.2477C181.695 44.1213 183.976 45.189 187.519 46.4024C191.11 47.6157 193.682 49.1202 195.187 50.8675C196.74 52.6632 197.516 54.7987 197.516 57.371ZM202.176 31.4054H206.738V42.5682L206.544 45.917H206.738C207.417 44.7522 208.485 43.733 209.941 42.9565C211.397 42.1799 212.853 41.7917 214.406 41.7917C217.367 41.7917 219.648 42.6653 221.249 44.3154C222.851 46.0141 223.628 48.4408 223.628 51.5469V66.7865H219.114V52.4691C219.114 48.101 217.173 45.9656 213.338 45.9656C211.494 45.9656 209.941 46.7421 208.679 48.2466C207.417 49.7997 206.786 51.5469 206.786 53.6339V66.835H202.224V31.4054H202.176ZM239.838 67.6116C236.295 67.6116 233.334 66.3982 231.053 63.9716C228.772 61.5449 227.607 58.4387 227.607 54.7502C227.607 51.0616 228.724 48.004 230.956 45.5288C233.189 43.0535 236.052 41.8402 239.547 41.8402C243.138 41.8402 246.002 43.005 248.137 45.3346C250.273 47.6642 251.34 50.916 251.34 55.0899L251.292 55.5752H232.267C232.315 57.9534 233.14 59.8462 234.645 61.3022C236.149 62.7582 237.994 63.4862 240.081 63.4862C242.993 63.4862 245.274 62.0302 246.924 59.1182L251.001 61.1081C249.933 63.1465 248.428 64.7481 246.487 65.9129C244.497 67.0292 242.313 67.6116 239.838 67.6116ZM232.606 51.7896H246.487C246.341 50.0909 245.662 48.732 244.449 47.6157C243.235 46.4994 241.537 45.9656 239.498 45.9656C237.799 45.9656 236.295 46.4994 235.082 47.5672C233.82 48.5864 232.995 49.9939 232.606 51.7896ZM266.58 67.6116C263.037 67.6116 260.076 66.3982 257.795 63.9716C255.514 61.5449 254.349 58.4387 254.349 54.7502C254.349 51.0616 255.466 48.004 257.698 45.5288C259.931 43.0535 262.794 41.8402 266.289 41.8402C269.88 41.8402 272.744 43.005 274.879 45.3346C277.015 47.6642 278.082 50.916 278.082 55.0899L278.034 55.5752H259.009C259.057 57.9534 259.882 59.8462 261.387 61.3022C262.891 62.7582 264.736 63.4862 266.823 63.4862C269.735 63.4862 272.016 62.0302 273.666 59.1182L277.743 61.1081C276.675 63.1465 275.17 64.7481 273.229 65.9129C271.239 67.0292 269.055 67.6116 266.58 67.6116ZM259.348 51.7896H273.229C273.083 50.0909 272.404 48.732 271.191 47.6157C269.977 46.4994 268.279 45.9656 266.24 45.9656C264.542 45.9656 263.037 46.4994 261.824 47.5672C260.562 48.5864 259.737 49.9939 259.348 51.7896ZM291.089 67.2233C289.1 67.2233 287.449 66.5924 286.188 65.379C284.926 64.1657 284.198 62.467 284.198 60.283V46.7421H279.927V42.5682H284.198V35.1425H288.76V42.5682H294.681V46.7421H288.76V58.827C288.76 60.4286 289.051 61.5449 289.682 62.1273C290.313 62.7097 291.041 63.0009 291.817 63.0009C292.157 63.0009 292.545 62.9523 292.885 62.8553C293.225 62.7582 293.565 62.6611 293.856 62.5155L295.312 66.5924C294.05 66.9806 292.643 67.2233 291.089 67.2233Z" fill="#55585D"/>
</svg>
