<svg width="90" height="90" viewBox="0 0 90 90" fill="none" xmlns="http://www.w3.org/2000/svg">
<path d="M62.3962 25.3994C62.3962 35.0047 54.6084 42.799 45.003 42.799C35.3916 42.799 27.6035 35.0107 27.6035 25.3994C27.6035 15.7881 35.3916 8 45.003 8C54.6084 8 62.3962 15.7881 62.3962 25.3994ZM22.3994 47.1455C12.7941 47.1455 5 54.9336 5 64.5391C5 74.1445 12.7881 81.9384 22.3994 81.9384C32.0107 81.9384 39.7988 74.1502 39.7988 64.5391C39.7988 54.9336 32.0107 47.1455 22.3994 47.1455ZM67.6003 47.1455C57.9892 47.1455 50.201 54.9336 50.201 64.5451C50.201 74.1563 57.9892 81.9445 67.6003 81.9445C77.2058 81.9445 85 74.1563 85 64.5451C85 54.9336 77.2119 47.1455 67.6003 47.1455Z" fill="#F06A6A"/>
</svg>
