<svg width="90" height="90" viewBox="0 0 90 90" fill="none" xmlns="http://www.w3.org/2000/svg">
<path d="M11.8581 68.2316C12.493 68.8157 13.1787 69.349 13.8645 69.857C17.1152 72.1935 21.0771 73.8951 25.4962 74.9109C30.2708 75.9776 35.2232 76.1808 40.074 75.7236C42.2581 75.5205 44.4168 75.1649 46.5756 74.7078C49.4708 74.0982 52.3152 73.2347 55.0581 72.1935C56.4549 71.6601 57.8517 71.076 59.1978 70.4411C62.3978 68.9427 65.4708 67.1649 68.3406 65.1078C69.3057 64.3967 70.2708 63.6855 71.1851 62.8982C72.3026 61.9586 73.3946 60.9935 74.4359 59.9522C75.2994 59.0887 76.1121 58.2252 76.8994 57.2855C77.5597 56.5236 78.1946 55.7109 78.8041 54.8982C81.6232 51.0633 83.5533 46.9744 84.4168 42.8855C85.3057 38.7713 85.1025 34.3776 83.5787 30.4919C83.147 29.4252 82.6391 28.384 82.0549 27.3935C81.2422 26.0728 80.3025 24.8538 79.2359 23.7363C78.8549 23.3554 78.4486 23.0252 78.0676 22.6697C77.6359 22.2887 77.2041 21.9332 76.747 21.5776C75.8073 20.8411 74.8168 20.1808 73.801 19.5967C70.9057 17.9205 67.6803 16.7522 64.4041 16.0157C60.0105 15.0252 55.4644 14.7967 50.9946 15.1268C48.5311 15.3046 46.0676 15.6601 43.6549 16.1935C40.6835 16.8284 37.7375 17.6919 34.893 18.784C33.547 19.2919 32.2771 19.8506 31.0073 20.4347C26.766 22.3903 22.9565 24.7268 19.6295 27.3935C18.893 27.9776 18.2073 28.5617 17.4962 29.1967C17.0898 29.5522 16.6835 29.9078 16.3025 30.2887C15.1851 31.3554 14.1438 32.4221 13.1279 33.5903C12.3914 34.4538 11.6803 35.3427 10.9946 36.2824C8.53112 39.7109 6.57556 43.5713 5.61048 47.7109C4.6708 51.8506 4.77239 56.1935 6.2454 60.1554C6.37239 60.4601 6.49937 60.7649 6.62635 61.0697C7.00731 61.9586 7.46445 62.822 7.99778 63.6601C8.53112 64.4982 9.11524 65.3109 9.75016 66.0728C10.4105 66.8348 11.0962 67.5713 11.8581 68.2316Z" fill="#CE0000"/>
<path d="M72.2992 35.0628C72.223 35.012 72.096 35.012 71.8674 35.0374C71.4611 35.0882 68.9468 35.3422 67.8547 35.4438C67.3976 35.4945 67.1944 35.6723 66.9912 36.0279C66.7881 36.358 61.2516 45.8057 61.2516 45.8057C61.2516 45.8057 65.4674 23.0501 65.5944 22.4152C65.7468 21.6279 65.5944 21.4501 64.9849 21.4501C64.35 21.4501 61.4801 21.7803 61.0484 21.8311C60.4897 21.9072 60.2865 22.085 60.1595 22.7961C60.0579 23.3295 53.8865 57.0057 53.7849 57.6152C53.6071 58.5803 53.6325 58.6057 54.496 58.4533C55.0039 58.3771 57.442 57.9707 58.4833 57.8184C58.7881 57.7676 58.9658 57.7676 59.0674 57.285C59.169 56.8025 61.0484 46.9231 61.0484 46.9231C61.0484 46.9231 64.223 55.9644 64.3754 56.3453C64.5024 56.7009 64.6039 56.8279 65.0611 56.7517C66.2039 56.5739 68.8198 56.1422 69.0738 56.0914C69.5309 56.0152 69.6071 55.8882 69.4801 55.5073C69.3531 55.1009 66.1024 45.7549 66.1024 45.7549C66.1024 45.7549 72.096 35.9009 72.3246 35.4945C72.4262 35.3168 72.4262 35.139 72.2992 35.0628Z" fill="white"/>
<path d="M53.1253 37.552C52.338 37.2472 50.7126 36.7647 48.7825 36.9932C45.8872 37.3234 43.8555 38.5932 42.8142 40.5742C41.7476 42.5805 41.9253 44.8155 42.2809 45.9329C42.6365 47.0504 43.5507 48.3456 44.8206 49.4377C47.6142 51.9012 47.538 53.8059 47.1317 54.6186C46.6492 55.6091 45.2523 56.3964 43.3476 55.9901C41.4428 55.5837 40.8333 54.3393 40.8333 54.3393C40.8333 54.3393 39.8936 57.6155 39.7158 58.2504C39.4619 59.1139 39.5634 59.3678 40.3761 59.698C41.4428 60.1297 43.4999 60.6123 46.8269 59.952C49.1126 59.5202 51.1444 57.717 52.1349 55.8377C53.1507 53.9075 53.7857 50.1234 50.5857 47.2535C47.9952 44.917 47.7158 44.5107 47.4365 44.0028C46.9285 43.0885 47.3349 41.9964 47.8174 41.4123C48.2492 40.8789 48.8079 40.625 49.7222 40.6758C50.6365 40.7266 52.2619 41.9456 52.2619 41.9456C52.2619 41.9456 53.4301 38.6694 53.5063 38.3901C53.6587 38.0091 53.5571 37.7043 53.1253 37.552Z" fill="white"/>
<path d="M35.5759 26.7831C35.4997 25.7672 34.687 25.9704 34.306 26.7069C33.0616 29.1958 16.1727 63.1768 15.9695 63.6085C15.6647 64.218 15.9187 64.3196 16.5028 64.2434C16.9346 64.1926 20.6679 63.6085 21.7854 63.4307C22.1663 63.3799 22.2933 63.3037 22.4203 63.0244C22.4711 62.872 25.1378 56.7514 25.1378 56.7514L32.579 55.6085C32.579 55.6085 32.6552 60.3069 32.6552 61.1196C32.6552 61.4752 32.6806 61.7037 33.3155 61.6022C34.0266 61.5006 36.9473 61.0434 37.3536 60.9672C38.0901 60.8402 38.1663 60.6625 38.1155 60.0022C38.0901 59.545 35.779 29.1704 35.5759 26.7831ZM27.1441 51.9006L32.5536 39.4561L32.6044 51.0625L27.1441 51.9006Z" fill="white"/>
</svg>
