<svg width="300" height="100" viewBox="0 0 300 100" fill="none" xmlns="http://www.w3.org/2000/svg">
<path d="M106.005 79.8661C106.838 80.6328 107.738 81.3328 108.638 81.9995C112.905 85.0661 118.105 87.2995 123.905 88.6328C130.171 90.0328 136.671 90.2995 143.038 89.6995C145.905 89.4328 148.738 88.9661 151.571 88.3661C155.371 87.5661 159.105 86.4328 162.705 85.0661C164.538 84.3661 166.371 83.5995 168.138 82.7661C172.338 80.7995 176.372 78.4661 180.138 75.7661C181.405 74.8328 182.672 73.8995 183.872 72.8661C185.338 71.6328 186.772 70.3661 188.138 68.9995C189.272 67.8661 190.338 66.7328 191.372 65.4995C192.238 64.4995 193.072 63.4328 193.872 62.3661C197.572 57.3328 200.105 51.9661 201.238 46.5995C202.405 41.1995 202.138 35.4328 200.138 30.3328C199.572 28.9328 198.905 27.5661 198.138 26.2661C197.072 24.5328 195.838 22.9328 194.438 21.4661C193.938 20.9661 193.405 20.5328 192.905 20.0661C192.338 19.5661 191.772 19.0995 191.172 18.6328C189.938 17.6661 188.638 16.7995 187.305 16.0328C183.505 13.8328 179.272 12.2995 174.972 11.3328C169.205 10.0328 163.238 9.7328 157.371 10.1661C154.138 10.3995 150.905 10.8661 147.738 11.5661C143.838 12.3995 139.971 13.5328 136.238 14.9661C134.471 15.6328 132.805 16.3661 131.138 17.1328C125.571 19.6995 120.571 22.7661 116.205 26.2661C115.238 27.0328 114.338 27.7995 113.405 28.6328C112.871 29.0995 112.338 29.5661 111.838 30.0661C110.371 31.4661 109.005 32.8661 107.671 34.3995C106.705 35.5328 105.771 36.6995 104.871 37.9328C101.638 42.4328 99.0712 47.4995 97.8046 52.9328C96.5712 58.3661 96.7046 64.0661 98.6379 69.2661C98.8046 69.6661 98.9712 70.0661 99.1379 70.4661C99.6379 71.6328 100.238 72.7661 100.938 73.8661C101.638 74.9661 102.405 76.0328 103.238 77.0328C104.105 78.0328 105.005 78.9995 106.005 79.8661Z" fill="#CE0000"/>
<path d="M185.33 36.332C185.23 36.2653 185.063 36.2653 184.763 36.2986C184.23 36.3653 180.93 36.6986 179.496 36.832C178.896 36.8986 178.63 37.132 178.363 37.5986C178.096 38.032 170.829 50.432 170.829 50.432C170.829 50.432 176.363 20.5653 176.53 19.732C176.73 18.6986 176.53 18.4653 175.73 18.4653C174.896 18.4653 171.129 18.8986 170.563 18.9653C169.829 19.0653 169.563 19.2986 169.396 20.232C169.263 20.932 161.163 65.132 161.029 65.932C160.796 67.1986 160.829 67.232 161.963 67.032C162.629 66.932 165.829 66.3986 167.196 66.1986C167.596 66.132 167.829 66.132 167.963 65.4986C168.096 64.8653 170.563 51.8986 170.563 51.8986C170.563 51.8986 174.729 63.7653 174.93 64.2653C175.096 64.732 175.23 64.8986 175.83 64.7986C177.33 64.5653 180.763 63.9986 181.096 63.932C181.696 63.832 181.796 63.6653 181.63 63.1653C181.463 62.632 177.196 50.3653 177.196 50.3653C177.196 50.3653 185.063 37.432 185.363 36.8986C185.496 36.6653 185.496 36.432 185.33 36.332Z" fill="white"/>
<path d="M160.167 39.5987C159.134 39.1987 157.001 38.5653 154.467 38.8653C150.667 39.2987 148 40.9653 146.634 43.5653C145.234 46.1987 145.467 49.132 145.934 50.5987C146.4 52.0653 147.601 53.7654 149.267 55.1987C152.934 58.432 152.834 60.932 152.301 61.9987C151.667 63.2987 149.834 64.332 147.334 63.7987C144.834 63.2653 144.034 61.632 144.034 61.632C144.034 61.632 142.8 65.932 142.567 66.7654C142.234 67.8987 142.367 68.232 143.434 68.6653C144.834 69.232 147.534 69.8653 151.901 68.9987C154.901 68.432 157.567 66.0653 158.867 63.5987C160.201 61.0653 161.034 56.0987 156.834 52.332C153.434 49.2654 153.067 48.732 152.701 48.0653C152.034 46.8653 152.567 45.432 153.201 44.6653C153.767 43.9653 154.501 43.632 155.701 43.6987C156.901 43.7653 159.034 45.3653 159.034 45.3653C159.034 45.3653 160.567 41.0653 160.667 40.6987C160.867 40.1987 160.734 39.7987 160.167 39.5987Z" fill="white"/>
<path d="M137.132 25.4649C137.032 24.1315 135.966 24.3982 135.466 25.3649C133.832 28.6315 111.665 73.2315 111.399 73.7982C110.999 74.5982 111.332 74.7315 112.099 74.6315C112.665 74.5649 117.565 73.7982 119.032 73.5649C119.532 73.4982 119.699 73.3982 119.865 73.0315C119.932 72.8315 123.432 64.7982 123.432 64.7982L133.199 63.2982C133.199 63.2982 133.299 69.4649 133.299 70.5315C133.299 70.9982 133.332 71.2982 134.166 71.1649C135.099 71.0315 138.932 70.4315 139.466 70.3315C140.432 70.1649 140.532 69.9315 140.466 69.0649C140.432 68.4649 137.399 28.5982 137.132 25.4649ZM126.065 58.4315L133.166 42.0982L133.232 57.3315L126.065 58.4315Z" fill="white"/>
</svg>
