<svg width="90" height="90" viewBox="0 0 90 90" fill="none" xmlns="http://www.w3.org/2000/svg">
<path d="M50.232 6C48.36 6 46.584 6.832 45.448 8.288C37.336 18.656 32.44 30.912 30.216 43.088C28.28 53.744 29.192 67.296 32.808 79.776C33.56 82.368 34.856 84.176 45.096 84.176C72.712 84.176 84.984 73.408 84.984 45.056C85 17.584 73.288 6 50.232 6ZM49.496 80.656C47.816 81.504 45.768 80.848 44.904 79.216C44.888 79.184 44.888 79.168 44.872 79.136C39.32 68.576 37.464 56.592 39.624 44.688C41.784 32.768 47.768 22.128 56.728 14.064C56.744 14.048 56.776 14.016 56.792 14C58.2 12.768 60.36 12.88 61.608 14.256C62.872 15.632 62.744 17.744 61.336 18.96C61.32 18.976 61.304 18.992 61.272 19.008C53.688 25.872 48.264 35.12 46.312 45.84C44.376 56.528 46.216 67.008 50.888 76L50.872 76.016C50.904 76.064 50.936 76.112 50.952 76.16C51.832 77.808 51.16 79.824 49.496 80.656ZM70.264 30.64C70.232 30.672 70.184 30.688 70.136 30.72C64.584 35.104 60.568 41.12 59.176 48.128C57.768 55.168 59.224 62.064 62.776 67.904L62.744 67.92C62.776 67.968 62.808 68 62.84 68.048C63.416 69.056 62.984 70.288 61.848 70.8C60.712 71.312 59.336 70.928 58.744 69.92C58.728 69.888 58.712 69.856 58.696 69.824C54.664 63.2 53.032 55.392 54.616 47.424C56.2 39.472 60.76 32.64 67.096 27.664C67.144 27.632 67.176 27.584 67.224 27.552C68.184 26.816 69.656 26.896 70.488 27.76C71.336 28.592 71.224 29.888 70.264 30.64ZM17.288 74.864C17.56 76.24 15.864 77.184 14.808 76.224C8.776 70.768 5 63.84 5 45.072C5 20.944 14.472 10.64 27.368 7.136C28.648 6.784 29.704 8.16 29.032 9.28C23.176 18.928 19.096 29.648 17.064 40.816C15.016 52.128 15.096 63.712 17.288 74.864Z" fill="url(#paint0_linear_886_3565)"/>
<defs>
<linearGradient id="paint0_linear_886_3565" x1="45" y1="6" x2="45" y2="84.187" gradientUnits="userSpaceOnUse">
<stop stop-color="#246BE8"/>
<stop offset="0.9995" stop-color="#3293F2"/>
</linearGradient>
</defs>
</svg>
