<svg width="300" height="100" viewBox="0 0 300 100" fill="none" xmlns="http://www.w3.org/2000/svg">
<path d="M73.1648 75.44L93.1248 36.06C93.5948 35.24 93.7748 34.77 94.1848 34.77H94.3648C94.8348 34.77 94.9548 35.24 95.4248 36.06L115.385 75.45C115.735 76.09 115.325 76.74 114.565 76.74H108.815C107.935 76.74 107.645 76.45 107.115 75.45L103.415 67.76H85.2148L81.5148 75.45C80.9848 76.45 80.6948 76.74 79.8148 76.74H74.0048C73.2248 76.73 72.8748 76.09 73.1648 75.44ZM100.865 61.35L94.3548 47.5H94.2348L87.7248 61.35H100.865Z" fill="#333333"/>
<path d="M105.985 34.76C106.925 34.76 107.335 35.05 107.685 36.03L119.465 60.7L129.615 35.97C129.675 35.8 129.735 35.62 129.795 35.51C130.025 34.99 130.205 34.76 130.555 34.76H131.495C131.845 34.76 132.025 34.99 132.255 35.51C132.375 35.63 132.435 35.8 132.485 35.97L142.575 60.7L154.455 36.03C154.805 35.05 155.215 34.76 156.155 34.76H162.205C163.145 34.76 163.265 35.05 162.855 36.03L143.225 75.46C142.875 76.32 142.695 76.73 142.285 76.73H141.755C141.405 76.73 141.165 76.33 140.815 75.46L131.015 51.32L121.215 75.46C120.865 76.27 120.685 76.73 120.275 76.73H119.745C119.395 76.73 119.215 76.33 118.805 75.46L99.3448 36.03C98.8748 35.05 98.9948 34.76 99.9348 34.76H105.985Z" fill="#333333"/>
<path d="M170.955 45.56C180.635 45.56 185.575 53.31 185.575 62.05C185.575 63.11 185.395 63.46 184.345 63.46L162.865 63.4C163.745 68.45 167.675 70.68 171.435 70.68C173.435 70.68 176.185 70.27 179.305 68.57C179.835 68.34 180.125 68.1 180.425 68.1C180.655 68.1 180.895 68.28 181.185 68.63L183.005 70.86C183.595 71.62 183.715 72.03 183.185 72.56C180.425 75.26 175.615 76.73 171.265 76.73C162.405 76.73 155.475 69.74 155.475 61.18C155.475 52.62 162.385 45.56 170.955 45.56ZM178.355 58.54C177.885 54.9 175.535 51.32 170.845 51.32C166.795 51.32 163.855 54.49 162.975 58.54H178.355Z" fill="#333333"/>
<path d="M195.865 50.73C196.685 49.26 199.975 45.56 205.495 45.56C213.415 45.56 218.995 52.6 218.995 61.17C218.995 69.5 213.415 76.72 205.495 76.72C199.975 76.72 196.745 73.79 194.635 71.26L193.755 74.78C193.225 75.66 192.995 76.07 192.225 76.07H190.055C189.055 76.07 188.765 75.78 188.765 74.78L188.865 31.28C188.865 30.28 189.155 29.99 190.155 29.99H194.675C195.675 29.99 195.965 30.28 195.965 31.28L195.865 50.73ZM211.945 61.18C211.945 56.01 208.545 51.91 203.905 51.91C199.205 51.91 195.805 56.14 195.805 61.18C195.805 66.23 199.205 70.51 203.905 70.51C208.545 70.51 211.945 66.46 211.945 61.18Z" fill="#333333"/>
<path d="M237.325 45.56C247.005 45.56 251.945 53.31 251.945 62.05C251.945 63.11 251.765 63.46 250.715 63.46L229.235 63.4C230.115 68.45 234.045 70.68 237.805 70.68C239.805 70.68 242.555 70.27 245.675 68.57C246.205 68.34 246.495 68.1 246.795 68.1C247.025 68.1 247.265 68.28 247.555 68.63L249.375 70.86C249.965 71.62 250.075 72.03 249.555 72.56C246.795 75.26 241.985 76.73 237.635 76.73C228.775 76.73 221.845 69.74 221.845 61.18C221.845 52.62 228.755 45.56 237.325 45.56ZM244.725 58.54C244.255 54.9 241.905 51.32 237.215 51.32C233.165 51.32 230.225 54.49 229.345 58.54H244.725Z" fill="#333333"/>
<path d="M262.055 62.12V75.44C262.055 76.44 261.765 76.73 260.765 76.73H256.245C255.245 76.73 254.955 76.44 254.955 75.44V48.15C254.955 47.15 255.245 46.86 256.245 46.86H258.475C259.235 46.86 259.535 47.21 260.005 48.15L261.355 52.49C263.055 49.5 267.325 46.21 274.375 46.21C275.545 46.21 275.665 46.56 275.545 47.38L274.845 51.96C274.665 52.96 274.375 53.19 273.435 53.19C266.795 53.2 262.055 57.42 262.055 62.12Z" fill="#333333"/>
<path d="M51.1941 32.198C50.0499 32.198 48.9645 32.7065 48.2701 33.5964C43.3122 39.9331 40.3198 47.4238 38.9605 54.8656C37.7773 61.3784 38.3347 69.6612 40.5447 77.2888C41.0043 78.873 41.7964 79.978 48.055 79.978C64.9336 79.978 72.4341 73.3967 72.4341 56.0684C72.4438 39.278 65.2856 32.198 51.1941 32.198ZM50.7442 77.8266C49.7174 78.3449 48.4657 77.944 47.9377 76.9465C47.9279 76.927 47.9279 76.9172 47.9181 76.8976C44.5248 70.4435 43.3904 63.1191 44.7106 55.8435C46.0308 48.5582 49.6881 42.0552 55.1643 37.1266C55.1741 37.1168 55.1937 37.0972 55.2035 37.0875C56.064 36.3345 57.3842 36.4029 58.1469 37.2439C58.9195 38.0849 58.8412 39.3757 57.9807 40.1189C57.9709 40.1287 57.9611 40.1385 57.9416 40.1483C53.3063 44.3435 49.9912 49.9957 48.7982 56.5476C47.615 63.0799 48.7395 69.4852 51.595 74.9809L51.5852 74.9907C51.6048 75.0201 51.6243 75.0494 51.6341 75.0787C52.172 76.086 51.7612 77.3181 50.7442 77.8266ZM63.4374 47.2576C63.4178 47.2771 63.3885 47.2869 63.3591 47.3065C59.9658 49.9859 57.5113 53.6628 56.6605 57.946C55.8 62.2487 56.6899 66.4635 58.8608 70.0328L58.8412 70.0426C58.8608 70.0719 58.8804 70.0915 58.8999 70.1208C59.252 70.7369 58.9879 71.4898 58.2936 71.8028C57.5993 72.1157 56.7583 71.881 56.3965 71.2649C56.3867 71.2454 56.3769 71.2258 56.3672 71.2063C53.9028 67.1578 52.9054 62.3856 53.8735 57.5157C54.8416 52.6556 57.6286 48.48 61.5011 45.4387C61.5305 45.4191 61.55 45.3898 61.5794 45.3702C62.1661 44.9204 63.0658 44.9693 63.5743 45.4974C64.0926 46.0059 64.0241 46.798 63.4374 47.2576ZM31.0591 74.2866C31.2253 75.1276 30.1888 75.7046 29.5434 75.1178C25.8567 71.7832 23.5488 67.5489 23.5488 56.0782C23.5488 41.3315 29.338 35.0339 37.2199 32.8923C38.0022 32.6772 38.6476 33.5181 38.2369 34.2027C34.6578 40.0994 32.1641 46.6513 30.9222 53.477C29.6705 60.3907 29.7194 67.4707 31.0591 74.2866Z" fill="url(#paint0_linear_886_3571)"/>
<defs>
<linearGradient id="paint0_linear_886_3571" x1="149.59" y1="29.99" x2="149.59" y2="79.985" gradientUnits="userSpaceOnUse">
<stop stop-color="#246BE8"/>
<stop offset="0.9995" stop-color="#3293F2"/>
</linearGradient>
</defs>
</svg>
