<svg width="300" height="100" viewBox="0 0 300 100" fill="none" xmlns="http://www.w3.org/2000/svg">
<path d="M130.969 52.1499C136.855 50.8853 136.051 43.8433 135.879 42.3045C135.589 39.9311 132.799 35.7866 129.014 36.1177C124.248 36.5423 123.552 43.4263 123.552 43.4263C122.906 46.6139 125.092 53.4175 130.969 52.1499ZM141.899 40.3451C145.148 40.3451 147.775 36.6008 147.775 31.9754C147.775 27.3494 145.148 23.6111 141.899 23.6111C138.649 23.6111 136.015 27.3494 136.015 31.9754C136.015 36.6008 138.648 40.3451 141.899 40.3451ZM155.907 40.8957C160.257 41.4653 163.044 36.8256 163.601 33.3099C164.171 29.7987 161.361 25.7149 158.288 25.0139C155.203 24.3045 151.35 29.2443 151.003 32.4668C150.58 36.4086 151.562 40.339 155.907 40.8957ZM173.132 46.8023C173.132 45.1208 171.74 40.0519 166.555 40.0519C161.361 40.0519 160.674 44.8352 160.674 48.2149C160.674 51.4405 160.943 55.9397 167.394 55.8C173.838 55.6572 173.132 48.4952 173.132 46.8023ZM166.555 61.5638C166.555 61.5638 159.832 56.3628 155.907 50.7395C150.579 42.4481 143.019 45.8248 140.491 50.0354C137.971 54.2567 134.054 56.9225 133.493 57.6304C132.927 58.3238 125.373 62.4061 127.049 69.8605C128.729 77.3088 134.62 77.1676 134.62 77.1676C134.62 77.1676 138.962 77.5921 143.998 76.4658C149.044 75.3425 153.385 76.7415 153.385 76.7415C153.385 76.7415 165.156 80.6886 168.372 73.0937C171.592 65.5048 166.555 61.5638 166.555 61.5638Z" fill="#2319DC"/>
<path d="M142.943 54.3131V59.3166H138.866C138.866 59.3166 134.792 59.6546 133.365 64.2731C132.868 67.3566 133.804 69.1726 133.967 69.5607C134.132 69.948 135.449 72.2037 138.756 72.866H146.407V54.3678L142.943 54.3131ZM142.882 69.8295H139.8C139.8 69.8295 137.653 69.7179 136.999 67.2457C136.661 66.1506 137.049 64.8852 137.219 64.3878C137.375 63.8895 138.095 62.7381 139.582 62.2946H142.881L142.882 69.8295Z" fill="white"/>
<path d="M148.282 59.7661V69.5059C148.282 69.5059 148.442 71.9294 151.859 72.8127H160.663V59.7646H156.864V69.5598H153.238C153.238 69.5598 152.079 69.3912 151.861 68.46V59.7084L148.282 59.7661Z" fill="white"/>
<path d="M202.608 53.3705V49.2647H175.561L175.526 53.4312H187.154L186.063 55.9231H176.174V76.5274H199.665C202.12 76.5274 201.902 74.0469 201.902 74.0469V55.9239H191.999L192.87 53.3727H202.607L202.608 53.3705ZM197.355 72.1284C197.355 72.1284 197.071 72.8128 196.668 72.8128H181.081V68.0067H197.358L197.355 72.1284ZM197.329 64.0376H181.079V59.5307H197.329V64.0376Z" fill="#E10601"/>
<path d="M233.514 49.3746H222.901V47.2959H217.924V49.2721H205.751V76.4855H210.131V52.7825H233.514V49.3746ZM230.651 55.007V53.4319H226.373V55.007H217.571V53.4881H213.518V55.007H210.78L210.834 58.0898H213.518V63.8794H228.322C230.377 63.8794 230.649 61.7119 230.649 61.7119V58.0883H233.782V55.0048H230.65L230.651 55.007ZM226.373 60.1944C226.373 60.1944 225.991 60.8962 225.502 60.8962H217.524V58.0291H226.371V60.1959H226.373V60.1944ZM211.378 68.0984L218.193 72.0508C217.653 72.644 215.326 73.3974 215.326 73.3974H210.783V76.4354H216.951C218.792 76.0587 222.199 74.327 222.199 74.327C223.609 75.622 226.32 76.1612 226.32 76.1612H233.351V73.1308H228.051C226.622 72.9174 225.339 72.1025 225.339 72.1025L233.353 67.5015V65.0103H211.38V68.0969L211.378 68.0984ZM225.558 68.0476L221.66 70.1035L218.088 68.0476H225.558Z" fill="#E10601"/>
<path d="M115.38 53.7075H121.284V48.5064H115.38V53.7075ZM115.38 76.3745H121.284V55.973H115.38V76.3745Z" fill="#E10601"/>
<path d="M105.783 55.9911L93.1876 55.9584V60.2473H104.232C104.232 60.2473 106.861 60.8959 106.861 62.5637V64.0743H96.8666C96.8666 64.0743 92.9362 64.4374 91.674 69.1318C91.4567 71.3313 91.7461 72.4113 91.8942 72.8123C92.0362 73.2095 93.1876 75.8032 96.6152 76.4511H112.529V61.8361C112.529 61.8361 111.771 56.8212 105.783 55.9911ZM106.861 72.4136H98.8178C97.737 71.9776 97.377 71.2584 97.3011 71.0761C97.2266 70.8992 96.976 70.2528 97.2676 69.5997C97.9185 68.3404 98.997 68.0495 98.997 68.0495H106.861V72.4136Z" fill="#E10601"/>
<path d="M90.3747 69.2197C90.5486 64.2519 86.0919 62.5339 86.0919 62.5339C89.8643 60.5607 89.3851 55.5876 89.3851 55.5876C88.9764 47.9767 79.6772 48.3321 79.6772 48.3321H65.3083V76.6969H81.5326C91.0605 76.659 90.3747 69.2197 90.3747 69.2197ZM81.2068 71.4245V71.4374H71.4875V65.3174H81.1589L81.4863 65.3835C81.4863 65.3835 83.3266 65.72 83.9934 67.3749C83.9934 67.3749 84.3792 68.9304 83.546 70.0856C83.546 70.0856 82.9331 71.1534 81.2068 71.4245ZM83.2673 58.2731C83.2673 58.2731 82.6141 59.4731 80.881 59.7329H71.4875V53.8628H80.8407C80.8407 53.8628 82.8731 53.7693 83.546 55.3833C83.546 55.3833 83.9501 57.099 83.2673 58.2731Z" fill="#E10601"/>
</svg>
