<svg width="90" height="90" viewBox="0 0 90 90" fill="none" xmlns="http://www.w3.org/2000/svg">
<path d="M75.9696 5H14.0304C9.04305 5 5 9.04305 5 14.0304V75.9696C5 80.9569 9.04305 85 14.0304 85H75.9696C80.9569 85 85 80.9569 85 75.9696V14.0304C85 9.04305 80.9569 5 75.9696 5Z" fill="#FBDD38"/>
<path fill-rule="evenodd" clip-rule="evenodd" d="M45.5216 27.8068C33.228 27.8068 26.8168 38.2197 23.2272 48.3972C22.7932 49.6275 21.4441 50.2731 20.2138 49.8391C18.9835 49.4052 18.3379 48.0561 18.7719 46.8258C22.4142 36.499 29.8572 23.0825 45.5216 23.0825C53.7093 23.0825 59.5699 28.4992 63.3601 35.0067C67.1603 41.5313 69.1865 49.6102 69.6431 56.1331C69.6759 56.602 69.5681 57.07 69.3335 57.4772C67.1384 61.2875 63.4867 63.7707 59.3241 65.2915C55.1718 66.8086 50.3619 67.4284 45.5407 67.43C41.4445 67.4939 37.3825 66.6741 33.6316 65.0264C29.8748 63.3761 26.5185 60.9342 23.7922 57.8675C23.2122 57.2151 23.0393 56.2961 23.3425 55.4775L25.5576 56.2981C23.3425 55.4775 23.3424 55.4779 23.3425 55.4775L23.3477 55.4636L23.3593 55.4328C23.3691 55.4067 23.383 55.3697 23.4011 55.3225C23.4371 55.2281 23.4894 55.0928 23.5568 54.9223C23.6914 54.5815 23.8868 54.0991 24.1338 53.5218C24.6257 52.3723 25.3324 50.8231 26.1813 49.259C27.0191 47.7155 28.0493 46.0561 29.2077 44.7487C30.2639 43.5568 31.9054 42.1049 34.0065 42.0906L34.0226 42.0906C35.5073 42.0906 36.7268 42.7703 37.6047 43.4238C38.4896 44.0825 39.2932 44.9197 39.9372 45.6011C40.0111 45.6793 40.0829 45.7555 40.1528 45.8296C40.7526 46.4655 41.2112 46.9518 41.647 47.3159C41.696 47.3569 41.7409 47.393 41.782 47.4248C41.9237 47.28 42.0928 47.0901 42.2875 46.8488C42.9798 45.9905 43.7574 44.7815 44.5099 43.4871C45.2525 42.2098 45.9285 40.9231 46.4212 39.9499C46.6667 39.4649 46.8649 39.0616 47.0009 38.781C47.0689 38.6408 47.1213 38.5315 47.1562 38.4581L47.1952 38.3759L47.2044 38.3563L47.2064 38.3521C47.7602 37.1711 49.1668 36.6618 50.348 37.2155C51.5292 37.7692 52.0379 39.1757 51.4842 40.3569L49.3454 39.3543C51.4842 40.3569 51.4844 40.3566 51.4842 40.3569L51.4791 40.3678L51.4669 40.3938L51.4214 40.4895C51.3821 40.5721 51.325 40.6913 51.2519 40.8421C51.1058 41.1434 50.8956 41.5713 50.6361 42.0838C50.1188 43.1056 49.398 44.4789 48.5941 45.8616C47.8002 47.2273 46.8815 48.6783 45.9646 49.815C45.5099 50.3786 44.9944 50.9425 44.437 51.3859C43.9443 51.7778 43.0752 52.3566 41.9611 52.3566C40.4879 52.3566 39.3271 51.534 38.6176 50.9411C37.949 50.3824 37.281 49.6722 36.7199 49.0756C36.6458 48.9969 36.5736 48.9201 36.5036 48.846C35.8383 48.142 35.2946 47.5937 34.7837 47.2134C34.3359 46.8801 34.1073 46.8252 34.0416 46.8165C34.0399 46.8172 34.0369 46.8182 34.0328 46.8197C33.9606 46.8452 33.5267 46.9981 32.7436 47.8818C31.9318 48.798 31.1011 50.0982 30.3335 51.5126C29.5771 52.9063 28.9338 54.3133 28.4772 55.3805C28.4183 55.518 28.3627 55.6495 28.3106 55.7741C30.3895 57.8456 32.8371 59.5174 35.5316 60.7011C38.6658 62.0778 42.0603 62.7617 45.4832 62.706C45.496 62.7058 45.5088 62.7057 45.5216 62.7057C49.9902 62.7057 54.22 62.1266 57.7028 60.8541C60.907 59.6834 63.3513 57.9772 64.8707 55.7121C64.3558 49.907 62.5067 42.9281 59.2778 37.3844C55.8985 31.5824 51.3129 27.8068 45.5216 27.8068ZM41.3937 47.7604C41.3938 47.7595 41.404 47.7526 41.4238 47.7424C41.4035 47.7563 41.3936 47.7613 41.3937 47.7604Z" fill="#1D2D35"/>
</svg>
