<svg width="300" height="100" viewBox="0 0 300 100" fill="none" xmlns="http://www.w3.org/2000/svg">
<path d="M102.683 38.7861H112.222C117.505 38.7861 120.248 40.9525 120.248 45.0205V45.2231C120.324 46.4152 119.969 47.5947 119.248 48.5472C118.527 49.4996 117.488 50.1618 116.321 50.4132C117.719 50.5363 119.012 51.206 119.92 52.277C120.827 53.348 121.276 54.7337 121.168 56.1333V56.2736C121.168 60.7156 118.253 63.0535 112.658 63.0535H102.683V38.7861ZM111.333 48.7455C113.983 48.7455 115.027 47.7948 115.027 45.6283V45.4881C115.027 43.4619 113.874 42.5423 111.302 42.5423H108.044V48.7767L111.333 48.7455ZM111.801 59.2349C114.513 59.2349 115.744 58.0036 115.744 55.806V55.6657C115.744 53.4213 114.513 52.2836 111.536 52.2836H108.044V59.2505L111.801 59.2349Z" fill="#1D2D35"/>
<path d="M122.604 58.1122C122.604 53.9663 126.391 52.4077 131.831 52.4077H133.826V51.7064C133.826 49.6023 133.187 48.4489 130.942 48.4489C130.579 48.4058 130.211 48.4374 129.86 48.542C129.51 48.6465 129.184 48.8217 128.904 49.0568C128.623 49.2919 128.394 49.5818 128.23 49.9088C128.066 50.2359 127.971 50.593 127.95 50.9582H123.274C123.586 46.75 126.906 44.8797 131.254 44.8797C135.603 44.8797 138.673 46.6409 138.673 51.457V63.0218H133.888V60.8865C133.288 61.7326 132.478 62.4086 131.538 62.8484C130.599 63.2882 129.561 63.4768 128.527 63.3959C125.316 63.3959 122.604 61.8373 122.604 58.1122ZM133.826 56.8186V55.26H131.924C129.072 55.26 127.42 55.8834 127.42 57.7693C127.42 59.063 128.199 59.9202 129.992 59.9202C132.158 59.9826 133.826 58.7824 133.826 56.8186Z" fill="#1D2D35"/>
<path d="M140.747 57.4579H145.329C145.532 59.0165 146.311 59.9829 148.446 59.9829C150.348 59.9829 151.236 59.2659 151.236 58.0346C151.236 56.8033 150.177 56.3046 147.636 55.9461C142.96 55.2291 141.09 53.8731 141.09 50.413C141.09 46.9529 144.488 44.88 148.104 44.88C152.047 44.88 154.993 46.3139 155.429 50.3819H150.925C150.66 48.9168 149.834 48.2466 148.15 48.2466C146.467 48.2466 145.641 48.9947 145.641 50.0701C145.641 51.1456 146.483 51.6287 149.054 52.0028C153.496 52.6418 155.943 53.764 155.943 57.567C155.943 61.37 153.169 63.3962 148.478 63.3962C143.786 63.3962 140.918 61.2921 140.747 57.4579Z" fill="#1D2D35"/>
<path d="M157.208 54.3721V54.1072C157.149 52.8891 157.343 51.6721 157.779 50.5331C158.215 49.3942 158.883 48.3582 159.74 47.4908C160.597 46.6233 161.625 45.9434 162.759 45.494C163.892 45.0447 165.107 44.8356 166.326 44.8802C170.908 44.8802 174.976 47.561 174.976 53.9046V55.2605H162.242C162.367 58.2063 163.972 59.9364 166.637 59.9364C168.913 59.9364 170.035 58.9544 170.347 57.4582H175.023C174.446 61.2923 171.391 63.4276 166.544 63.4276C161.104 63.3965 157.208 60.0455 157.208 54.3721ZM170.191 52.2369C170.035 49.5561 168.664 48.3403 166.326 48.3403C165.273 48.3354 164.26 48.7386 163.498 49.4652C162.737 50.1918 162.287 51.1853 162.242 52.2369H170.191Z" fill="#1D2D35"/>
<path d="M176.27 54.3718V54.1069C176.211 52.8861 176.406 51.6663 176.844 50.5251C177.282 49.384 177.952 48.3464 178.813 47.4785C179.674 46.6106 180.705 45.9314 181.843 45.484C182.98 45.0366 184.198 44.8309 185.42 44.8799C189.534 44.8799 193.322 46.6723 193.774 51.7689H189.098C189.067 51.3315 188.948 50.9047 188.749 50.5141C188.55 50.1234 188.274 49.7767 187.938 49.4947C187.602 49.2126 187.213 49.0009 186.794 48.8722C186.375 48.7435 185.934 48.7003 185.497 48.7453C182.957 48.7453 181.258 50.6468 181.258 54.0445V54.3095C181.258 57.8787 182.817 59.7022 185.607 59.7022C186.081 59.7295 186.557 59.6621 187.005 59.5039C187.453 59.3457 187.866 59.0999 188.218 58.7808C188.571 58.4617 188.856 58.0757 189.058 57.6452C189.26 57.2147 189.374 56.7484 189.394 56.2733H193.836C193.571 60.4815 190.516 63.3961 185.357 63.3961C180.198 63.3961 176.27 60.1698 176.27 54.3718Z" fill="#1D2D35"/>
<path d="M194.969 58.1122C194.969 53.9663 198.757 52.4077 204.181 52.4077H206.191V51.7064C206.191 49.6023 205.537 48.4489 203.308 48.4489C202.942 48.4011 202.571 48.4294 202.216 48.5318C201.862 48.6342 201.533 48.8087 201.249 49.0442C200.965 49.2797 200.733 49.5713 200.567 49.9006C200.401 50.23 200.305 50.59 200.284 50.9582H195.609C195.92 46.75 199.24 44.8797 203.573 44.8797C207.906 44.8797 211.008 46.6409 211.008 51.457V63.0218H206.223V60.8865C205.622 61.7326 204.813 62.4086 203.873 62.8484C202.933 63.2882 201.895 63.4768 200.861 63.3959C197.744 63.3959 194.969 61.8373 194.969 58.1122ZM206.191 56.8186V55.26H204.321C201.469 55.26 199.801 55.8834 199.801 57.7693C199.801 59.063 200.596 59.9202 202.388 59.9202C204.586 59.9826 206.254 58.7824 206.254 56.8186H206.191Z" fill="#1D2D35"/>
<path d="M214.47 45.2229H219.38V47.9349C219.915 46.9713 220.703 46.1719 221.659 45.6227C222.615 45.0734 223.702 44.7951 224.804 44.8176C225.856 44.7335 226.907 44.9916 227.8 45.5533C228.693 46.115 229.381 46.9504 229.76 47.9349C230.415 46.9572 231.304 46.1595 232.347 45.6149C233.39 45.0702 234.553 44.7961 235.73 44.8176C239.018 44.8176 241.559 46.8906 241.559 51.5976V62.9598H236.68V52.2054C236.68 49.9299 235.667 48.9168 233.891 48.9168C233.418 48.8962 232.946 48.9779 232.508 49.1562C232.07 49.3345 231.675 49.6053 231.351 49.95C231.027 50.2947 230.781 50.7053 230.631 51.1537C230.48 51.6022 230.427 52.0778 230.477 52.5483V63.0221H225.583V52.2054C225.583 49.9299 224.539 48.9168 222.809 48.9168C222.335 48.8939 221.862 48.9738 221.422 49.1511C220.981 49.3284 220.585 49.5988 220.259 49.9438C219.933 50.2888 219.686 50.7003 219.534 51.1498C219.383 51.5994 219.33 52.0765 219.38 52.5483V63.0221H214.47V45.2229Z" fill="#1D2D35"/>
<path d="M244.924 45.2229H249.85V48.0128C250.436 47.037 251.266 46.2298 252.257 45.6698C253.249 45.1099 254.369 44.8163 255.507 44.8176C259.856 44.8176 263.3 48.044 263.3 53.9043V54.1849C263.3 60.0452 259.98 63.3339 255.507 63.3339C254.369 63.3805 253.241 63.1147 252.243 62.5651C251.246 62.0156 250.418 61.2034 249.85 60.2166V69.0695H244.924V45.2229ZM258.25 53.9511C258.25 50.3507 256.489 48.5895 254.011 48.5895C251.533 48.5895 249.678 50.3819 249.678 53.9511V54.216C249.678 57.7696 251.377 59.4997 254.058 59.4997C256.739 59.4997 258.25 57.6917 258.25 54.2784V53.9511Z" fill="#1D2D35"/>
<path fill-rule="evenodd" clip-rule="evenodd" d="M66.2455 30.3148C52.4152 30.3148 45.2026 42.0293 41.1643 53.479C40.6761 54.8631 39.1583 55.5894 37.7742 55.1012C36.3901 54.613 35.6639 53.0952 36.152 51.7112C40.2496 40.0935 48.6231 25 66.2455 25C75.4567 25 82.0498 31.0938 86.3139 38.4147C90.5891 45.7549 92.8685 54.8436 93.3822 62.182C93.4191 62.7094 93.2978 63.2359 93.0339 63.6941C90.5644 67.9806 86.4562 70.7742 81.7733 72.4851C77.1019 74.1919 71.6907 74.8891 66.2667 74.8909C61.6586 74.9628 57.089 74.0405 52.8692 72.1869C48.6428 70.3303 44.867 67.5832 41.7999 64.1332C41.1474 63.3992 40.9529 62.3652 41.294 61.4444L43.786 62.3675C41.294 61.4444 41.294 61.4444 41.294 61.4444L41.2999 61.4287L41.3129 61.3941C41.3239 61.3647 41.3396 61.3231 41.3599 61.27C41.4005 61.1638 41.4593 61.0115 41.5351 60.8197C41.6865 60.4364 41.9063 59.8937 42.1842 59.2442C42.7376 57.951 43.5327 56.2082 44.4877 54.4486C45.4302 52.7121 46.5891 50.8452 47.8924 49.3744C49.0805 48.0336 50.9273 46.4001 53.291 46.3841L53.3091 46.384C54.9794 46.384 56.3514 47.1488 57.339 47.8839C58.3345 48.625 59.2386 49.5668 59.9631 50.3335C60.0462 50.4214 60.127 50.5071 60.2056 50.5904C60.8803 51.3058 61.3963 51.8529 61.8866 52.2626C61.9417 52.3086 61.9923 52.3493 62.0384 52.385C62.1979 52.2221 62.3881 52.0086 62.6071 51.7371C63.386 50.7715 64.2608 49.4114 65.1073 47.9552C65.9428 46.5182 66.7032 45.0707 67.2575 43.9758C67.5338 43.4302 67.7567 42.9764 67.9097 42.6608C67.9862 42.5031 68.0451 42.38 68.0844 42.2976L68.1283 42.2051L68.1409 42.1783C68.7639 40.8496 70.3464 40.2767 71.6752 40.8996C73.0041 41.5225 73.5764 43.1048 72.9535 44.4337L70.7588 43.405C72.9534 44.4337 72.9535 44.4337 72.9535 44.4337L72.9477 44.4459L72.9339 44.4752L72.8828 44.5829C72.8386 44.6758 72.7743 44.8099 72.6921 44.9795C72.5277 45.3185 72.2912 45.7999 71.9993 46.3765C71.4173 47.526 70.6065 49.071 69.7021 50.6265C68.8089 52.1628 67.7754 53.7952 66.7438 55.074C66.2323 55.7081 65.6524 56.3425 65.0253 56.8413C64.471 57.2822 63.4933 57.9333 62.2399 57.9333C60.5826 57.9333 59.2767 57.0079 58.4785 56.3409C57.7263 55.7123 56.9748 54.9133 56.3435 54.2422C56.2602 54.1536 56.179 54.0673 56.1002 53.9839C55.3518 53.192 54.7401 52.5751 54.1654 52.1472C53.6616 51.7722 53.4044 51.7105 53.3305 51.7007C53.3286 51.7015 53.3252 51.7027 53.3206 51.7043C53.2393 51.733 52.7512 51.9051 51.8703 52.8992C50.9569 53.9299 50.0225 55.3927 49.1589 56.9838C48.3079 58.5518 47.5843 60.1346 47.0705 61.3352C47.0043 61.4899 46.9418 61.6378 46.8831 61.778C49.2219 64.1084 51.9754 65.9892 55.0068 67.3209C58.5328 68.8697 62.3516 69.6391 66.2022 69.5764C66.2167 69.5762 66.2311 69.5761 66.2455 69.5761C71.2727 69.5761 76.0312 68.9246 79.9494 67.493C83.5541 66.176 86.3039 64.2565 88.0132 61.7082C87.434 55.1776 85.3537 47.3263 81.7212 41.0897C77.9195 34.5624 72.7607 30.3148 66.2455 30.3148ZM61.6016 52.7626C61.6016 52.7626 61.6132 52.7539 61.6355 52.7424C61.6126 52.7579 61.6016 52.7626 61.6016 52.7626Z" fill="#1D2D35"/>
</svg>
