<svg width="90" height="90" viewBox="0 0 90 90" fill="none" xmlns="http://www.w3.org/2000/svg">
<path fill-rule="evenodd" clip-rule="evenodd" d="M21.4062 5H68.5938C77.645 5.02422 84.9758 12.355 85 21.4056V68.5938C84.9758 77.6447 77.645 84.9756 68.5944 84.9997L21.4062 85C12.3553 84.9756 5.02437 77.6447 5.00031 68.5942L5 21.4062C5.02438 12.355 12.3553 5.02422 21.4058 5H21.4062Z" fill="#000008"/>
<path d="M25.4986 48.5085C25.3586 45.1143 27.0292 42.5446 30.7337 42.6899C33.8278 42.8196 34.9978 45.0974 35.1664 47.9334L35.1633 48.8327H31.7537C27.8344 48.8327 28.1475 48.7524 28.5731 49.6199C28.9909 50.4473 29.6173 50.8648 30.6373 50.9934C31.5047 51.0977 32.3881 50.9451 33.352 50.5115L33.6733 50.367L34.0508 51.3066L34.4283 52.2463C33.5805 52.9785 32.3625 53.3177 31.1273 53.3304C28.1586 53.3607 25.6295 51.6832 25.4986 48.5085ZM49.1194 48.5198C48.9794 45.1255 50.6502 42.5559 54.3545 42.7012C57.4486 42.8309 58.6187 45.1087 58.7873 47.9446L58.7842 48.8441H55.3745C51.4552 48.8441 51.7683 48.7638 52.1941 49.6312C52.6117 50.4585 53.2381 50.8762 54.2581 51.0046C55.1256 51.1091 56.0091 50.9565 56.9728 50.5227L57.2941 50.3782L57.6716 51.3179L58.0491 52.2576C57.2012 52.9898 55.9833 53.329 54.7481 53.3416C51.7794 53.372 49.2503 51.6945 49.1194 48.5198ZM56.2098 46.9566C56.2098 46.7157 55.8805 45.9768 55.6395 45.6876C55.238 45.1976 54.8364 45.0291 54.0814 45.0371C53.5914 45.0371 53.3666 45.0773 53.1177 45.2057C52.5555 45.5029 52.1137 46.1213 51.9931 46.7799L51.937 47.0771H54.0734C55.8966 47.0771 56.2098 47.061 56.2098 46.9566ZM74.6348 50.2785H77.245V53.0093H74.6348V50.2785ZM70.3378 38.8735H73.1489V53.0896H70.3378V38.8735ZM37.2473 38.8574L40.0423 38.8977C41.1092 38.914 42.3391 38.8604 43.4998 39.0738C45.912 39.5174 47.5467 41.116 47.2508 43.7465C47.0081 45.9038 45.4495 46.7212 44.8775 46.9937C44.8775 47.0257 45.6484 48.3991 46.5962 50.0455L48.307 53.0495C47.9164 53.0565 45.6694 53.112 45.56 53.0574C45.5119 53.0415 44.8052 51.8126 43.9941 50.3268L42.4553 47.6505C41.5984 47.7676 40.763 47.7084 39.8978 47.7084V53.0896H37.2473V38.8574ZM44.4358 43.3312C44.4258 42.0154 43.6898 41.3062 42.3698 41.1884C41.557 41.1159 40.715 41.1193 39.8978 41.1368V45.5024C41.0206 45.514 42.6411 45.6216 43.5989 45.0177C44.0959 44.7043 44.4281 44.1884 44.4358 43.3312ZM13.1523 38.8574L16.3087 38.8977C18.3531 38.921 20.625 38.6973 21.9419 39.9376C23.0023 40.9365 23.4555 42.8088 22.8169 44.1373C22.605 44.5779 22.2775 44.9963 21.8266 45.4113L22.0514 45.572C22.3887 45.7487 23.0875 46.3991 23.3527 46.7848C24.1075 47.8851 24.1397 49.7805 23.4087 51.0174C22.927 51.8446 21.9148 52.5354 20.7103 52.8727C20.14 53.0254 19.8587 53.0413 16.6302 53.0735L13.1523 53.0976V38.8574ZM19.8267 50.7202C20.7905 50.3829 21.1439 49.8849 21.1439 48.8729C21.1439 47.9171 20.8387 47.4273 20.0194 47.0498C19.6419 46.873 19.4973 46.8651 17.7144 46.841L15.8028 46.8088V50.8407H17.642C19.0878 50.8407 19.5536 50.8166 19.8267 50.7202ZM20.2042 42.793C20.1802 42.0299 20.0756 41.7971 19.5858 41.4677C19.1922 41.2027 18.6461 41.1224 17.1681 41.1224H15.8028V44.6724L17.353 44.6402C18.7716 44.6182 20.27 44.6676 20.2042 42.793ZM62.0894 53.1298C61.628 53.0245 61.1937 52.8244 60.8139 52.5421C59.3689 51.4687 59.1677 49.3537 60.5755 48.146C60.7722 47.9774 60.9881 47.8305 61.2058 47.7245C61.9447 47.3549 62.5712 47.2346 64.2337 47.1381C66.2497 47.0257 66.0811 47.082 66.0811 46.4795C66.073 45.6121 65.7276 45.106 64.9969 44.9054C64.2177 44.6884 63.3664 44.8812 62.9166 45.3791C62.7639 45.5559 62.6114 45.7888 62.5792 45.9013L62.5309 46.102H60.0572L60.1055 45.7646C60.242 44.833 60.9408 43.8932 61.8723 43.3954C62.6675 42.9696 63.2353 42.8176 64.5042 42.8176C66.5966 42.804 67.9692 43.3948 68.6912 45.339L68.7153 49.2184L68.7395 53.0896H66.1614V52.3266C66.1614 51.909 66.1292 51.5635 66.0972 51.5635C66.0569 51.5635 65.9123 51.7241 65.7759 51.909C65.0691 52.9048 63.4386 53.4429 62.0894 53.1298ZM64.7156 51.1459C65.575 50.8809 66.0811 50.166 66.0811 49.2184V48.6721H65.6634C65.4305 48.6721 64.8281 48.7123 64.3383 48.7524C62.9406 48.8649 62.3945 49.1862 62.3303 49.9331C62.242 51.0013 63.3503 51.5635 64.7156 51.1459ZM32.5891 46.9454C32.5891 46.7043 32.2597 45.9654 32.0187 45.6763C31.6172 45.1863 31.2155 45.0177 30.4606 45.0257C29.9706 45.0257 29.7458 45.0659 29.4969 45.1945C28.9347 45.4916 28.493 46.1101 28.3723 46.7687L28.3162 47.0659H30.4527C32.2758 47.0659 32.5891 47.0498 32.5891 46.9454Z" fill="white"/>
</svg>
