<svg width="90" height="90" viewBox="0 0 90 90" fill="none" xmlns="http://www.w3.org/2000/svg">
<path d="M46.956 50.1559H57.0474C59.917 50.1559 61.7344 48.5776 61.7344 46.0428C61.7344 43.6515 59.917 41.9298 57.0474 41.9298H46.956C46.6212 41.9298 46.3343 42.2167 46.3343 42.5037V49.582C46.3821 49.9168 46.6212 50.1559 46.956 50.1559Z" fill="#34313F"/>
<path d="M46.956 66.4648H57.3822C60.5866 66.4648 62.4997 64.8387 62.4997 61.9691C62.4997 59.4821 60.6823 57.4734 57.3822 57.4734H46.956C46.6212 57.4734 46.3343 57.7603 46.3343 58.0473V65.843C46.3821 66.2256 46.6212 66.4648 46.956 66.4648Z" fill="#34313F"/>
<path d="M83.8781 4.81635L54.0344 34.5645H58.9127C66.5171 34.5645 71.0128 39.3471 71.0128 44.5602C71.0128 48.6733 68.2388 51.6864 65.2736 53.0255C64.7953 53.2168 64.7953 53.8864 65.3214 54.0777C68.7649 55.4169 71.2041 59.0038 71.2041 63.2126C71.2041 69.1431 67.2345 73.8779 59.5344 73.8779H38.3951C38.0603 73.8779 37.7733 73.5909 37.7733 73.304V50.7777L5.01215 83.3954C4.58171 83.8258 4.86867 84.5911 5.49042 84.5911H84.2607C84.5477 84.5911 84.7868 84.3519 84.7868 84.065V5.24679C84.9303 4.72069 84.2607 4.43374 83.8781 4.81635Z" fill="#34313F"/>
</svg>
