<svg width="300" height="100" viewBox="0 0 300 100" fill="none" xmlns="http://www.w3.org/2000/svg">
<path d="M114.077 58.5178C114.077 62.6125 112.526 66.5552 109.737 69.553C110.03 69.2279 110.293 68.877 110.523 68.5047C110.702 68.2211 110.859 67.9244 110.993 67.6172C111.042 67.5159 111.085 67.4121 111.122 67.3062C111.166 67.2047 111.204 67.1008 111.236 66.9952C111.273 66.8973 111.304 66.796 111.332 66.6947C111.36 66.5933 111.39 66.485 111.412 66.3784L111.425 66.3417C111.449 66.2369 111.468 66.1321 111.489 66.0255C111.51 65.9189 111.529 65.8071 111.547 65.697C111.563 65.5957 111.575 65.4943 111.584 65.3895C111.608 65.1498 111.621 64.9089 111.62 64.6679C111.624 63.345 111.265 62.0464 110.582 60.9132C110.433 60.6592 110.267 60.4157 110.084 60.1847C109.871 59.9096 109.638 59.6509 109.386 59.4107C108.759 58.8021 108.027 58.312 107.226 57.964C106.875 57.8088 106.511 57.6837 106.139 57.5901H106.123L105.994 57.5464L104.105 56.8982L99.1659 55.1999C99.1502 55.1999 99.1292 55.1999 99.117 55.1999L98.8077 55.0864C97.8165 54.6931 96.9935 53.9665 96.4804 53.0317L94.6825 48.4226L92.6155 43.1531L92.2188 42.1363L92.1175 41.9301C92.0019 41.6485 91.9425 41.3469 91.9428 41.0425C91.9383 40.964 91.9383 40.8852 91.9428 40.8067C91.9799 40.4482 92.1005 40.1034 92.295 39.8C92.4895 39.4966 92.7525 39.2431 93.0627 39.0598C93.373 38.8764 93.722 38.7684 94.0815 38.7444C94.4411 38.7204 94.8013 38.781 95.1332 38.9214L104.34 43.6388L106.155 44.5666C107.116 45.1375 108.014 45.808 108.835 46.5671C111.894 49.3685 113.757 53.2391 114.04 57.3769C114.061 57.7596 114.077 58.137 114.077 58.5178Z" fill="url(#paint0_linear_897_6845)"/>
<path d="M111.616 64.6603C111.616 65.1186 111.574 65.576 111.49 66.0266C111.466 66.1437 111.441 66.2625 111.413 66.3761C111.361 66.5857 111.305 66.7884 111.239 66.9928C111.202 67.0976 111.165 67.2025 111.125 67.3038C111.085 67.4051 111.04 67.51 110.996 67.6148C110.862 67.9221 110.705 68.2188 110.526 68.5024C110.295 68.8744 110.032 69.2253 109.74 69.5507C108.398 71.034 103.843 73.6793 102.163 74.7555L98.4366 77.0269C95.7057 78.7094 93.1232 79.901 89.8751 79.9814C89.7213 79.9814 89.5711 79.9814 89.4208 79.9814C89.2111 79.9814 89.0032 79.9814 88.797 79.9691C86.1669 79.8679 83.6009 79.1284 81.3203 77.8144C79.0398 76.5003 77.1131 74.6512 75.7066 72.4265C74.4093 70.3841 73.592 68.0741 73.3164 65.6702C73.5168 66.7882 73.9793 67.8427 74.666 68.7474C75.3528 69.6521 76.2442 70.3811 77.2672 70.8747C78.2902 71.3683 79.4156 71.6123 80.5512 71.5869C81.6867 71.5614 82.8001 71.2672 83.7999 70.7283L83.8244 70.7161L84.1895 70.4977L85.6729 69.6241L87.5617 68.5059V68.4535L87.8046 68.3084L104.702 58.2988L106.002 57.5283L106.131 57.572H106.147C106.52 57.6652 106.883 57.7903 107.234 57.9459C108.035 58.2939 108.767 58.7841 109.394 59.3926C109.646 59.6328 109.879 59.8915 110.093 60.1666C110.275 60.3978 110.441 60.6412 110.59 60.8951C111.269 62.0334 111.623 63.3353 111.616 64.6603Z" fill="url(#paint1_linear_897_6845)"/>
<path d="M87.5616 31.2539V68.5196L85.6658 69.6308L84.1807 70.5044L83.8155 70.7263C83.807 70.7274 83.7991 70.731 83.7928 70.7367C82.7931 71.2756 81.6798 71.5699 80.5444 71.5955C79.409 71.621 78.2836 71.3771 77.2607 70.8837C76.2377 70.3903 75.3463 69.6615 74.6594 68.7571C73.9726 67.8526 73.5099 66.7982 73.3093 65.6804C73.2813 65.5249 73.2604 65.3642 73.2429 65.2087C73.2202 64.9151 73.2045 64.6269 73.1992 64.3351V22.4027C73.1996 21.9665 73.3186 21.5386 73.5434 21.1648C73.7683 20.791 74.0905 20.4854 74.4757 20.2806C74.8608 20.0758 75.2944 19.9796 75.7301 20.0023C76.1657 20.0249 76.587 20.1656 76.9488 20.4092L84.2995 25.2104C84.3396 25.2435 84.3822 25.2733 84.427 25.2995C85.3957 25.961 86.1878 26.8494 86.7342 27.8873C87.2805 28.9252 87.5646 30.081 87.5616 31.2539Z" fill="url(#paint2_linear_897_6845)"/>
<g opacity="0.149">
<mask id="mask0_897_6845" style="mask-type:luminance" maskUnits="userSpaceOnUse" x="73" y="55" width="40" height="26">
<path d="M112.899 55.8965H73.207V80.4898H112.899V55.8965Z" fill="white"/>
</mask>
<g mask="url(#mask0_897_6845)">
<path d="M111.624 64.6633C111.624 65.1216 111.582 65.5789 111.498 66.0295C111.474 66.1466 111.449 66.2654 111.421 66.379C111.369 66.5886 111.313 66.7913 111.247 66.9957C111.21 67.1006 111.173 67.2054 111.133 67.3067C111.093 67.4081 111.047 67.5129 111.004 67.6177C110.87 67.925 110.712 68.2217 110.534 68.5053C110.303 68.8776 110.04 69.2284 109.747 69.5536C108.405 71.037 103.85 73.6822 102.171 74.7585L98.4444 77.0298C95.7135 78.7123 93.131 79.9039 89.8829 79.9843C89.7291 79.9843 89.5789 79.9843 89.4286 79.9843C89.2189 79.9843 89.011 79.9843 88.8048 79.9721C86.1747 79.8709 83.6087 79.1314 81.3281 77.8173C79.0476 76.5033 77.1209 74.6542 75.7145 72.4295C74.4171 70.387 73.5999 68.077 73.3242 65.6731C73.5246 66.7911 73.9871 67.8457 74.6739 68.7504C75.3606 69.655 76.252 70.384 77.275 70.8776C78.298 71.3712 79.4234 71.6153 80.559 71.5898C81.6945 71.5644 82.8079 71.2701 83.8077 70.7312L83.8322 70.719L84.1973 70.5006L85.6808 69.627L87.5695 68.5088V68.4564L87.8124 68.3114L104.71 58.3018L106.01 57.5312L106.139 57.5749H106.155C106.527 57.6682 106.891 57.7933 107.242 57.9488C108.043 58.2969 108.775 58.787 109.401 59.3955C109.653 59.6357 109.887 59.8945 110.1 60.1695C110.283 60.4007 110.449 60.6442 110.598 60.8981C111.277 62.0363 111.631 63.3382 111.624 64.6633Z" fill="url(#paint3_linear_897_6845)"/>
</g>
</g>
<g opacity="0.098">
<mask id="mask1_897_6845" style="mask-type:luminance" maskUnits="userSpaceOnUse" x="73" y="19" width="16" height="54">
<path d="M88.3166 19.9863H73.2012V72.919H88.3166V19.9863Z" fill="white"/>
</mask>
<g mask="url(#mask1_897_6845)">
<path d="M87.5636 31.2529V68.5186L85.6678 69.6298L84.1826 70.5034L83.8175 70.7253C83.809 70.7264 83.8011 70.73 83.7947 70.7358C82.795 71.2747 81.6818 71.569 80.5464 71.5945C79.4109 71.62 78.2856 71.3761 77.2626 70.8827C76.2397 70.3894 75.3482 69.6606 74.6614 68.7561C73.9745 67.8516 73.5118 66.7973 73.3112 65.6794C73.2833 65.5239 73.2623 65.3632 73.2449 65.2077C73.2221 64.9142 73.2064 64.6259 73.2012 64.3341V22.4017C73.2016 21.9655 73.3206 21.5376 73.5454 21.1638C73.7702 20.79 74.0925 20.4844 74.4776 20.2796C74.8628 20.0749 75.2964 19.9786 75.732 20.0013C76.1676 20.0239 76.5889 20.1646 76.9508 20.4082L84.3014 25.2094C84.3415 25.2425 84.3842 25.2723 84.429 25.2985C85.3977 25.96 86.1897 26.8484 86.7361 27.8863C87.2825 28.9242 87.5666 30.08 87.5636 31.2529Z" fill="url(#paint4_linear_897_6845)"/>
</g>
</g>
<path d="M132.941 67.5978V31.7683H144.32C147.784 31.7683 150.54 32.5269 152.563 34.044C154.586 35.5611 155.597 37.5334 155.597 39.9608C155.597 41.9836 155.016 43.7536 153.878 45.2707C152.661 46.8101 150.988 47.9252 149.099 48.4567V48.5578C151.577 48.836 153.524 49.7463 154.99 51.3139C156.482 52.8311 157.216 54.8539 157.216 57.3066C157.216 60.3661 156.002 62.8694 153.6 64.7405C151.198 66.6116 148.138 67.5978 144.446 67.5978H132.941ZM138.884 36.5473V46.7373H142.727C144.8 46.7373 146.419 46.2316 147.582 45.296C148.77 44.2846 149.352 42.9192 149.352 41.1492C149.352 38.0644 147.304 36.5473 143.207 36.5473H138.884ZM138.884 51.5162V62.8441H143.941C146.166 62.8441 147.885 62.3384 149.074 61.327C150.287 60.2903 150.894 58.8743 150.894 57.079C150.894 53.3621 148.34 51.5162 143.182 51.5162H138.884ZM165.2 37.0077C164.264 37.0077 163.43 36.679 162.772 36.0721C162.089 35.4653 161.761 34.6814 161.761 33.7206C161.761 32.7597 162.089 31.9759 162.772 31.3438C163.455 30.7116 164.264 30.4082 165.225 30.4082C166.186 30.4082 167.02 30.7116 167.703 31.3438C168.386 31.9759 168.714 32.785 168.714 33.7206C168.714 34.6309 168.386 35.3894 167.703 36.0469C167.02 36.679 166.186 37.0077 165.2 37.0077ZM168.082 67.3449H162.292V41.7561H168.107L168.082 67.3449ZM196.858 67.3449H191.067V52.9322C191.067 48.128 189.373 45.7512 186.01 45.7512C184.24 45.7512 182.774 46.4339 181.611 47.774C180.44 49.164 179.827 50.9391 179.891 52.7552V67.3449H174.075V41.7561H179.891V46.004H179.992C180.784 44.5017 181.981 43.2509 183.446 42.393C184.912 41.535 186.588 41.1042 188.286 41.1492C191.067 41.1492 193.191 42.0595 194.658 43.88C196.124 45.6753 196.858 48.2797 196.858 51.7185V67.3449ZM226.858 65.2968C226.858 74.6777 222.155 79.3808 212.698 79.3808C209.705 79.4493 206.731 78.8805 203.974 77.712V72.402C206.756 74.0203 209.436 74.8041 211.939 74.8041C218.008 74.8041 221.068 71.8204 221.068 65.8278V63.0464H220.966C220.126 64.5874 218.87 65.8617 217.341 66.7244C215.813 67.5871 214.072 68.0036 212.319 67.9265C210.888 67.9724 209.465 67.6911 208.159 67.1039C206.853 66.5168 205.699 65.6392 204.784 64.5382C202.768 61.9166 201.755 58.6618 201.926 55.3596C201.926 51.0105 202.938 47.5717 205.011 44.9926C207.085 42.4135 209.866 41.1492 213.457 41.1492C216.82 41.1492 219.323 42.5399 220.966 45.296H221.068V41.7561H226.883L226.858 65.2968ZM221.118 55.6378V52.3001C221.118 50.5048 220.511 48.9624 219.323 47.6981C218.763 47.0766 218.076 46.5832 217.308 46.2515C216.539 45.9199 215.709 45.7578 214.873 45.7764C212.673 45.7764 210.953 46.6109 209.714 48.2291C208.359 50.2287 207.701 52.6195 207.843 55.0309C207.843 57.5595 208.45 59.557 209.613 61.0741C210.827 62.5913 212.395 63.3245 214.367 63.3245C216.39 63.3245 218.008 62.5913 219.247 61.1753C220.511 59.7087 221.118 57.8882 221.118 55.6125V55.6378Z" fill="#737373"/>
<defs>
<linearGradient id="paint0_linear_897_6845" x1="88.7449" y1="46.4939" x2="115.06" y2="61.7026" gradientUnits="userSpaceOnUse">
<stop stop-color="#37BDFF"/>
<stop offset="0.18" stop-color="#33BFFD"/>
<stop offset="0.36" stop-color="#28C5F5"/>
<stop offset="0.53" stop-color="#15D0E9"/>
<stop offset="0.55" stop-color="#12D1E7"/>
<stop offset="0.59" stop-color="#1CD2E5"/>
<stop offset="0.77" stop-color="#42D8DC"/>
<stop offset="0.91" stop-color="#59DBD6"/>
<stop offset="1" stop-color="#62DCD4"/>
</linearGradient>
<linearGradient id="paint1_linear_897_6845" x1="73.3239" y1="69.305" x2="111.644" y2="69.305" gradientUnits="userSpaceOnUse">
<stop stop-color="#39D2FF"/>
<stop offset="0.15" stop-color="#38CEFE"/>
<stop offset="0.29" stop-color="#35C3FA"/>
<stop offset="0.43" stop-color="#2FB0F3"/>
<stop offset="0.55" stop-color="#299AEB"/>
<stop offset="0.58" stop-color="#2692EC"/>
<stop offset="0.76" stop-color="#1A6CF1"/>
<stop offset="0.91" stop-color="#1355F4"/>
<stop offset="1" stop-color="#104CF5"/>
</linearGradient>
<linearGradient id="paint2_linear_897_6845" x1="80.4154" y1="72.6386" x2="80.4154" y2="21.4189" gradientUnits="userSpaceOnUse">
<stop stop-color="#1B48EF"/>
<stop offset="0.12" stop-color="#1C51F0"/>
<stop offset="0.32" stop-color="#1E69F5"/>
<stop offset="0.57" stop-color="#2190FB"/>
<stop offset="1" stop-color="#26B8F4"/>
</linearGradient>
<linearGradient id="paint3_linear_897_6845" x1="80.9359" y1="78.7488" x2="104.602" y2="55.1245" gradientUnits="userSpaceOnUse">
<stop stop-color="white"/>
<stop offset="0.37" stop-color="#FDFDFD"/>
<stop offset="0.51" stop-color="#F6F6F6"/>
<stop offset="0.6" stop-color="#EBEBEB"/>
<stop offset="0.68" stop-color="#DADADA"/>
<stop offset="0.75" stop-color="#C4C4C4"/>
<stop offset="0.81" stop-color="#A8A8A8"/>
<stop offset="0.86" stop-color="#888888"/>
<stop offset="0.91" stop-color="#626262"/>
<stop offset="0.95" stop-color="#373737"/>
<stop offset="0.99" stop-color="#090909"/>
<stop offset="1"/>
</linearGradient>
<linearGradient id="paint4_linear_897_6845" x1="80.4173" y1="20.5209" x2="80.4173" y2="72.125" gradientUnits="userSpaceOnUse">
<stop stop-color="white"/>
<stop offset="0.37" stop-color="#FDFDFD"/>
<stop offset="0.51" stop-color="#F6F6F6"/>
<stop offset="0.6" stop-color="#EBEBEB"/>
<stop offset="0.68" stop-color="#DADADA"/>
<stop offset="0.75" stop-color="#C4C4C4"/>
<stop offset="0.81" stop-color="#A8A8A8"/>
<stop offset="0.86" stop-color="#888888"/>
<stop offset="0.91" stop-color="#626262"/>
<stop offset="0.95" stop-color="#373737"/>
<stop offset="0.99" stop-color="#090909"/>
<stop offset="1"/>
</linearGradient>
</defs>
</svg>
