<svg width="90" height="90" viewBox="0 0 90 90" fill="none" xmlns="http://www.w3.org/2000/svg">
<path d="M36.0631 48.3389C36.3546 43.1387 38.9011 38.5572 42.7429 35.3094C46.5104 32.1194 51.5814 30.1697 57.1144 30.1697C62.642 30.1697 67.713 32.1194 71.4832 35.3094C75.3223 38.5572 77.8687 43.1386 78.163 48.3334C78.4545 53.6766 76.3068 58.6403 72.5393 62.3198C68.6975 66.0625 63.2332 68.4111 57.1144 68.4111C50.9957 68.4111 45.5204 66.0625 41.6814 62.3198C37.9111 58.6403 35.7689 53.6766 36.0631 48.3389Z" fill="white"/>
<path d="M46.3135 48.8063C46.4631 46.138 47.7697 43.7872 49.741 42.1208C51.6741 40.484 54.2761 39.4836 57.1151 39.4836C59.9513 39.4836 62.5533 40.484 64.4878 42.1208C66.4576 43.7872 67.7642 46.138 67.9152 48.8034C68.0648 51.5451 66.9628 54.092 65.0297 55.98C63.0584 57.9004 60.2547 59.1054 57.1151 59.1054C53.9755 59.1054 51.1661 57.9004 49.1963 55.98C47.2618 54.092 46.1626 51.5451 46.3135 48.8063Z" fill="#265787"/>
<path d="M29.1127 54.1973C29.1311 55.2414 29.4641 57.2705 29.9636 58.8551C31.0134 62.2092 32.7941 65.312 35.2719 68.0466C37.8146 70.8574 40.9458 73.115 44.5623 74.7179C48.3636 76.4013 52.4825 77.2592 56.7608 77.2522C61.032 77.2465 65.1509 76.3717 68.9522 74.6756C72.5687 73.0572 75.697 70.7896 78.2355 67.9775C80.7118 65.2316 82.4898 62.1231 83.5424 58.769C84.0716 57.0744 84.406 55.3543 84.54 53.6286C84.6713 51.9283 84.6162 50.2252 84.3749 48.5235C83.9036 45.2076 82.7564 42.0962 80.9898 39.26C79.3742 36.6539 77.2915 34.3722 74.8151 32.4518L74.8207 32.4476L49.8297 13.2589C49.8071 13.242 49.7888 13.2236 49.7648 13.2081C48.1252 11.9495 45.368 11.9537 43.5647 13.2152C41.7416 14.4908 41.5328 16.6002 43.1555 17.9308L43.1484 17.9379L53.5718 26.414L21.8021 26.4479H21.7598C19.1338 26.4507 16.6095 28.1735 16.11 30.3508C15.5963 32.5689 17.3799 34.4089 20.1103 34.4188L20.106 34.4287L36.2089 34.3976L7.47434 56.4535C7.43766 56.4803 7.39814 56.5085 7.36428 56.5354C4.65366 58.611 3.77742 62.0624 5.48479 64.2467C7.21755 66.4676 10.9018 66.4719 13.6406 64.2594L29.323 51.4246C29.323 51.4246 29.0944 53.1573 29.1127 54.1973ZM69.4108 59.9994C66.1795 63.2914 61.6557 65.1582 56.7608 65.1681C51.8588 65.1766 47.335 63.3267 44.1037 60.0404C42.5247 58.4389 41.3648 56.596 40.6494 54.6333C39.9482 52.7044 39.6758 50.657 39.8564 48.5912C40.0272 46.572 40.6283 44.646 41.5878 42.9033C42.5304 41.1903 43.8285 39.6425 45.4315 38.333C48.5725 35.7734 52.5714 34.3877 56.7537 34.3821C60.9403 34.3764 64.9364 35.7494 68.0802 38.3005C69.6803 39.6043 70.9771 41.1466 71.9196 42.8568C72.8834 44.598 73.4802 46.517 73.658 48.5418C73.8358 50.6048 73.5635 52.6494 72.8622 54.5797C72.1454 56.5481 70.9897 58.3909 69.4108 59.9994Z" fill="#EA7600"/>
</svg>
