<svg width="90" height="90" viewBox="0 0 90 90" fill="none" xmlns="http://www.w3.org/2000/svg">
<path fill-rule="evenodd" clip-rule="evenodd" d="M76.6206 24.191L78.4622 19.5858C78.4622 19.5858 76.1184 17.0273 73.2724 14.1277C70.4264 11.2281 64.3996 12.9338 64.3996 12.9338L57.5358 5H33.4286L26.5648 12.9338C26.5648 12.9338 20.538 11.2281 17.692 14.1277C14.846 17.0273 12.5022 19.5858 12.5022 19.5858L14.3438 24.191L12 31.0136C12 31.0136 18.8931 57.6139 19.7009 60.8623C21.2913 67.2584 22.3795 69.7316 26.8996 72.9723C31.4197 76.2131 39.6228 81.8417 40.9621 82.6945C42.3014 83.5473 43.9755 85 45.4822 85C46.9889 85 48.663 83.5473 50.0023 82.6945C51.3416 81.8417 59.5447 76.2131 64.0648 72.9723C68.5849 69.7316 69.6731 67.2584 71.2635 60.8623C72.0711 57.6139 78.9644 31.0136 78.9644 31.0136L76.6206 24.191Z" fill="url(#paint0_linear_897_6696)"/>
<path fill-rule="evenodd" clip-rule="evenodd" d="M45.4863 54.7856C45.9451 54.7856 48.8852 55.8431 51.2445 57.0869C53.6037 58.3308 55.3135 59.2104 55.8601 59.5589C56.4065 59.9075 56.0732 60.5647 55.5755 60.9232C55.0776 61.2817 48.3877 66.5597 47.7384 67.143C47.0891 67.7265 46.135 68.69 45.4863 68.69C44.8375 68.69 43.8833 67.7265 43.2341 67.143C42.5847 66.5597 35.895 61.2817 35.3971 60.9232C34.8992 60.5647 34.566 59.9075 35.1125 59.5589C35.6591 59.2104 37.3688 58.3308 39.7282 57.0869C42.0872 55.8431 45.0274 54.7856 45.4863 54.7856ZM45.5222 17.194C45.7475 17.2003 47.0169 17.2632 48.8345 17.8805C50.8434 18.5627 53.0198 19.4155 54.0243 19.4155C55.0287 19.4155 62.4785 17.9657 62.4785 17.9657C62.4785 17.9657 71.3071 28.8392 71.3071 31.1631C71.3071 33.4871 70.1965 34.1004 69.0799 35.3085C67.9632 36.5166 63.0864 41.7929 62.4601 42.4703C61.8338 43.148 60.53 44.1753 61.2969 46.0244C62.0638 47.8735 63.1952 50.2264 61.9371 52.6129C60.6788 54.9995 58.5234 56.5924 57.1423 56.329C55.7611 56.0655 52.5176 54.3385 51.3248 53.5497C50.132 52.7608 46.3515 49.5842 46.3515 48.3688C46.3515 47.1535 50.2593 44.9713 50.9812 44.4755C51.7034 43.9798 54.9964 42.0608 55.0639 41.3076C55.1312 40.5542 55.1056 40.3333 54.1337 38.4721C53.1619 36.6108 51.4118 34.127 51.7031 32.4744C51.9944 30.822 54.8169 29.9627 56.8312 29.1877C58.8452 28.4128 62.7233 26.9492 63.2076 26.7216C63.6922 26.4939 63.567 26.2772 62.0993 26.1354C60.632 25.9937 56.4675 25.4305 54.5899 25.9637C52.7124 26.4968 49.5048 27.308 49.245 27.7382C48.9852 28.1684 48.756 28.1829 49.0229 29.6668C49.2895 31.1507 50.6633 38.271 50.7966 39.5358C50.93 40.8005 51.1908 41.6366 49.8524 41.9484C48.5138 42.2602 46.2606 42.8016 45.4863 42.8016C44.712 42.8016 42.4587 42.2602 41.1202 41.9484C39.7816 41.6366 40.0424 40.8005 40.1759 39.5358C40.3093 38.271 41.6829 31.1507 41.9497 29.6668C42.2164 28.1829 41.9872 28.1684 41.7276 27.7382C41.4678 27.308 38.26 26.4968 36.3825 25.9637C34.505 25.4305 30.3406 25.9937 28.8731 26.1354C27.4056 26.2772 27.2804 26.4939 27.7648 26.7216C28.2493 26.9492 32.1274 28.4128 34.1414 29.1877C36.1555 29.9627 38.9782 30.822 39.2695 32.4744C39.5608 34.127 37.8105 36.6108 36.8388 38.4721C35.867 40.3333 35.8412 40.5542 35.9087 41.3076C35.976 42.0608 39.2692 43.9798 39.9912 44.4755C40.7132 44.9713 44.6209 47.1535 44.6209 48.3688C44.6209 49.5842 40.8406 52.7608 39.6478 53.5497C38.455 54.3385 35.2114 56.0655 33.8303 56.329C32.4492 56.5924 30.2937 54.9995 29.0355 52.6129C27.7774 50.2264 28.9088 47.8735 29.6755 46.0244C30.4424 44.1753 29.1388 43.148 28.5123 42.4703C27.8862 41.7929 23.0092 36.5166 21.8926 35.3085C20.7759 34.1004 19.6655 33.4871 19.6655 31.1631C19.6655 28.8392 28.4941 17.9657 28.4941 17.9657C28.4941 17.9657 35.9439 19.4155 36.9483 19.4155C37.9528 19.4155 40.1291 18.5627 42.1381 17.8805C43.9557 17.2632 45.2251 17.2003 45.4504 17.194H45.5222Z" fill="white"/>
<path d="M64.3996 12.9338L57.5358 5H33.4286L26.5648 12.9338C26.5648 12.9338 20.538 11.2281 17.692 14.1277C17.692 14.1277 25.7286 13.3887 28.4908 17.9654C28.4908 17.9654 35.9406 19.4152 36.9451 19.4152C37.9496 19.4152 40.1259 18.5624 42.1348 17.8801C44.1438 17.1979 45.4831 17.1929 45.4831 17.1929C45.4831 17.1929 46.8223 17.1979 48.8313 17.8801C50.8402 18.5624 53.0166 19.4152 54.021 19.4152C55.0255 19.4152 62.4753 17.9654 62.4753 17.9654C65.2376 13.3887 73.2724 14.1277 73.2724 14.1277C70.4264 11.2281 64.3996 12.9338 64.3996 12.9338Z" fill="url(#paint1_linear_897_6696)"/>
<defs>
<linearGradient id="paint0_linear_897_6696" x1="12" y1="4061.44" x2="6708.44" y2="4061.44" gradientUnits="userSpaceOnUse">
<stop stop-color="#FF5500"/>
<stop offset="0.409877" stop-color="#FF5500"/>
<stop offset="0.581981" stop-color="#FF2000"/>
<stop offset="1" stop-color="#FF2000"/>
</linearGradient>
<linearGradient id="paint1_linear_897_6696" x1="137.104" y1="735.931" x2="5575.74" y2="735.931" gradientUnits="userSpaceOnUse">
<stop stop-color="#FF452A"/>
<stop offset="1" stop-color="#FF2000"/>
</linearGradient>
</defs>
</svg>
