<svg width="90" height="90" viewBox="0 0 90 90" fill="none" xmlns="http://www.w3.org/2000/svg">
<path d="M52.9515 27.6935C46.4807 27.6935 40.103 30.4715 35.2338 35.933V9H25.5984V54.3468C25.5984 69.0668 37.5316 80.9997 52.2522 80.9997C66.9726 80.9997 78.906 69.0668 78.906 54.3468C78.906 39.6268 67.6719 27.6935 52.9515 27.6935ZM52.2522 70.734C43.2014 70.734 35.8642 63.397 35.8642 54.3466C35.8642 45.2961 43.2014 37.9591 52.2522 37.9591C61.3028 37.9591 68.64 45.2961 68.64 54.3466C68.64 63.3972 61.3028 70.734 52.2522 70.734Z" fill="#262626"/>
<path d="M18.591 67.8182C14.9508 67.8182 12 70.7691 12 74.409C12 78.049 14.9508 80.9999 18.591 80.9999C22.2313 80.9999 25.1821 78.049 25.1821 74.409C25.1821 70.7691 22.2313 67.8182 18.591 67.8182Z" fill="#0000FF"/>
</svg>
