<svg width="362" height="100" viewBox="0 0 362 100" fill="none" xmlns="http://www.w3.org/2000/svg">
<path d="M200.985 44.7294C204.199 44.7294 207.242 46.6952 207.884 50.9427H193.573C194.172 47.2155 196.958 44.7294 200.985 44.7294ZM207.427 57.2268C206.334 58.9305 204.221 60.241 201.329 60.241C197.343 60.241 194.3 58.0564 193.573 54.1994H211.527C211.614 53.6466 211.658 53.088 211.659 52.5285C211.659 46.5301 207.465 41.2158 200.988 41.2158C194.304 41.2158 189.762 46.1435 189.762 52.4865C189.762 58.9082 194.349 63.7572 201.245 63.7572C205.53 63.7572 208.787 61.8281 210.672 58.9082L207.427 57.2268Z" fill="#006BFF"/>
<path d="M188.001 31.918H184.273V63.1994H188.001V31.918Z" fill="#006BFF"/>
<path d="M232.397 50.044V63.1979H228.669V50.2576C228.669 46.744 226.656 44.773 223.356 44.773C219.928 44.773 217.143 46.7873 217.143 51.8434V63.1979H213.414V41.7757H217.143V44.8608C218.728 42.3327 221.085 41.2188 224.089 41.2188C229.101 41.2188 232.401 44.5606 232.401 50.0466" fill="#006BFF"/>
<path d="M252.956 52.4857C252.956 48.115 249.656 44.8151 245.328 44.8151C241.043 44.8151 237.744 48.115 237.744 52.4857C237.744 56.8564 241.043 60.1563 245.328 60.1563C249.653 60.1563 252.956 56.8564 252.956 52.4857ZM256.683 31.918V63.1994H252.956V59.5129C251.242 62.1339 248.5 63.7564 244.857 63.7564C238.9 63.7564 234.016 58.8274 234.016 52.4857C234.016 46.144 238.9 41.215 244.857 41.215C248.499 41.215 251.242 42.8427 252.956 45.4572V31.918H256.683Z" fill="#006BFF"/>
<path d="M263.419 31.918H259.691V63.1994H263.419V31.918Z" fill="#006BFF"/>
<path d="M177.628 52.4856C177.628 48.1149 174.329 44.8149 170 44.8149C165.716 44.8149 162.416 48.1149 162.416 52.4856C162.416 56.8562 165.716 60.1562 170 60.1562C174.325 60.1562 177.628 56.8562 177.628 52.4856ZM181.356 41.7758V63.198H177.628V59.5127C175.913 62.1338 173.172 63.7563 169.53 63.7563C163.573 63.7563 158.688 58.8273 158.688 52.4856C158.688 46.1438 163.573 41.2148 169.53 41.2148C173.172 41.2148 175.913 42.8425 177.628 45.4571V41.7758H181.356Z" fill="#006BFF"/>
<path d="M153.16 59.0743C151.252 59.7785 149.192 59.9686 147.187 59.6256C145.182 59.2826 143.303 58.4185 141.737 57.1201C140.171 55.8216 138.974 54.1343 138.266 52.2274C137.559 50.3205 137.364 48.261 137.703 46.2554C138.043 44.2498 138.903 42.3686 140.198 40.8004C141.494 39.2322 143.179 38.0321 145.084 37.3204C146.99 36.6088 149.049 36.4106 151.055 36.7458C153.062 37.0809 154.944 37.9377 156.515 39.23C157.17 39.7704 157.763 40.3823 158.282 41.0543L161.507 38.6953C159.628 36.2389 157.062 34.3957 154.134 33.3993C151.207 32.4028 148.049 32.298 145.062 33.0982C142.074 33.8983 139.392 35.5673 137.354 37.8937C135.316 40.2201 134.015 43.0991 133.615 46.1658C133.216 49.2324 133.735 52.3488 135.109 55.1197C136.482 57.8907 138.647 60.1915 141.33 61.7306C144.012 63.2697 147.091 63.9777 150.177 63.765C153.262 63.5522 156.215 62.4283 158.661 60.5356L156.514 57.1413C155.511 57.9673 154.378 58.6205 153.16 59.0743Z" fill="#006BFF"/>
<path d="M281.413 41.7754V53.9346C281.413 57.8663 279.126 60.3563 275.635 60.3563C272.144 60.3563 269.616 57.8663 269.616 53.9346V41.7754H265.844V53.5703C265.844 59.7509 269.695 63.7638 275.635 63.7638C280.772 63.7638 281.574 60.5136 281.574 60.4323V64.8069C281.574 69.1409 279.688 71.589 275.756 71.589C274.351 71.596 272.991 71.092 271.93 70.1709C270.869 69.2499 270.179 67.9747 269.989 66.5827L266.617 67.7622C267.1 69.8243 268.266 71.6623 269.927 72.9766C271.587 74.291 273.644 75.0043 275.762 75.0004C281.861 75.0004 285.198 70.9862 285.198 64.8069V41.7754H281.413Z" fill="#006BFF"/>
<path d="M108.343 54.2554C106.91 55.5266 105.121 57.1085 101.878 57.1085H99.9381C97.5909 57.1085 95.456 56.2553 93.9279 54.7088C92.4352 53.1978 91.6135 51.1297 91.6135 48.8848V46.2309C91.6135 43.9859 92.4352 41.9179 93.9279 40.4068C95.456 38.8604 97.5909 38.0085 99.9381 38.0085H101.878C105.125 38.0085 106.91 39.5891 108.343 40.8603C109.83 42.1708 111.113 43.3163 114.535 43.3163C115.057 43.3161 115.578 43.2745 116.093 43.1918L116.082 43.1616C115.877 42.6526 115.636 42.1587 115.362 41.6833L113.075 37.7215C112.044 35.9356 110.561 34.4525 108.775 33.4214C106.988 32.3903 104.962 31.8476 102.9 31.8477H98.3248C96.2625 31.8476 94.2364 32.3903 92.4503 33.4214C90.6642 34.4525 89.181 35.9356 88.1497 37.7215L85.8627 41.6833C84.8318 43.4695 84.2891 45.4955 84.2891 47.5578C84.2891 49.6202 84.8318 51.6462 85.8627 53.4324L88.1497 57.3942C89.181 59.1801 90.6642 60.6632 92.4503 61.6943C94.2364 62.7253 96.2625 63.2681 98.3248 63.268H102.9C104.962 63.2681 106.988 62.7253 108.775 61.6943C110.561 60.6632 112.044 59.1801 113.075 57.3942L115.362 53.4389C115.636 52.9636 115.877 52.4696 116.082 51.9606L116.093 51.9318C115.578 51.8462 115.057 51.8024 114.535 51.8007C111.113 51.8007 109.83 52.9396 108.343 54.2567" fill="#006BFF"/>
<path d="M101.879 40.4141H99.9393C96.3667 40.4141 94.0195 42.9657 94.0195 46.2316V48.8854C94.0195 52.1513 96.3667 54.703 99.9393 54.703H101.879C107.084 54.703 106.676 49.3952 114.536 49.3952C115.281 49.3944 116.024 49.4629 116.756 49.5997C116.995 48.2494 116.995 46.8677 116.756 45.5173C116.024 45.6535 115.281 45.722 114.536 45.7218C106.673 45.7218 107.084 40.4141 101.879 40.4141Z" fill="#006BFF"/>
<path d="M121.273 51.5393C119.935 50.5589 118.391 49.8952 116.758 49.5984C116.758 49.6128 116.758 49.6246 116.758 49.6377C116.618 50.4202 116.398 51.1864 116.103 51.9246C117.452 52.1334 118.731 52.6604 119.836 53.4619C119.836 53.4723 119.829 53.4855 119.825 53.4972C118.404 58.1001 115.378 62.0405 111.298 64.6024C107.219 67.1644 102.355 68.1781 97.592 67.4593C92.8285 66.7405 88.4808 64.3369 85.3387 60.6852C82.1967 57.0335 80.4687 52.3759 80.4687 47.5585C80.4687 42.7411 82.1967 38.0835 85.3387 34.4318C88.4808 30.7801 92.8285 28.3765 97.592 27.6577C102.355 26.9389 107.219 27.9526 111.298 30.5146C115.378 33.0765 118.404 37.0169 119.825 41.6198C119.825 41.6316 119.832 41.6447 119.836 41.6551C118.731 42.4567 117.452 42.9833 116.103 43.1911C116.398 43.9303 116.617 44.6974 116.758 45.4806C116.758 45.4929 116.758 45.5051 116.758 45.5173C118.391 45.221 119.935 44.5578 121.273 43.5777C122.56 42.6249 122.311 41.549 122.116 40.9121C120.525 35.7513 117.135 31.3326 112.562 28.4589C107.99 25.5852 102.538 24.4472 97.1979 25.2518C91.8576 26.0564 86.9832 28.75 83.4603 32.8434C79.9375 36.9367 78 42.158 78 47.5585C78 52.959 79.9375 58.1803 83.4603 62.2736C86.9832 66.367 91.8576 69.0606 97.1979 69.8652C102.538 70.6698 107.99 69.5318 112.562 66.6581C117.135 63.7844 120.525 59.3657 122.116 54.2049C122.311 53.568 122.56 52.4921 121.273 51.5393Z" fill="#006BFF"/>
<path d="M116.093 43.1916C115.578 43.2772 115.057 43.321 114.535 43.3227C111.113 43.3227 109.83 42.1838 108.344 40.8667C106.91 39.5955 105.125 38.0137 101.878 38.0137H99.9379C97.5894 38.0137 95.4558 38.8668 93.9277 40.4133C92.435 41.9243 91.6133 43.9924 91.6133 46.2374V48.8912C91.6133 51.1362 92.435 53.2042 93.9277 54.7153C95.4558 56.2617 97.5894 57.1136 99.9379 57.1136H101.878C105.125 57.1136 106.91 55.5331 108.344 54.2618C109.83 52.9513 111.113 51.8059 114.535 51.8059C115.057 51.806 115.578 51.8476 116.093 51.9304C116.389 51.1924 116.609 50.4261 116.748 49.6435C116.749 49.6304 116.749 49.6172 116.748 49.6042C116.016 49.4684 115.273 49.4004 114.528 49.401C106.665 49.401 107.077 54.71 101.871 54.71H99.9314C96.3588 54.71 94.0116 52.1571 94.0116 48.8912V46.2321C94.0116 42.9662 96.3588 40.4146 99.9314 40.4146H101.871C107.077 40.4146 106.668 45.721 114.528 45.721C115.273 45.7223 116.016 45.6543 116.748 45.5179C116.748 45.5061 116.748 45.4943 116.748 45.4812C116.608 44.6979 116.388 43.9308 116.093 43.1916Z" fill="#0AE8F0"/>
<path d="M116.093 43.1916C115.578 43.2772 115.057 43.321 114.535 43.3227C111.113 43.3227 109.83 42.1838 108.344 40.8667C106.91 39.5955 105.125 38.0137 101.878 38.0137H99.9379C97.5894 38.0137 95.4558 38.8668 93.9277 40.4133C92.435 41.9243 91.6133 43.9924 91.6133 46.2374V48.8912C91.6133 51.1362 92.435 53.2042 93.9277 54.7153C95.4558 56.2617 97.5894 57.1136 99.9379 57.1136H101.878C105.125 57.1136 106.91 55.5331 108.344 54.2618C109.83 52.9513 111.113 51.8059 114.535 51.8059C115.057 51.806 115.578 51.8476 116.093 51.9304C116.389 51.1924 116.609 50.4261 116.748 49.6435C116.749 49.6304 116.749 49.6172 116.748 49.6042C116.016 49.4684 115.273 49.4004 114.528 49.401C106.665 49.401 107.077 54.71 101.871 54.71H99.9314C96.3588 54.71 94.0116 52.1571 94.0116 48.8912V46.2321C94.0116 42.9662 96.3588 40.4146 99.9314 40.4146H101.871C107.077 40.4146 106.668 45.721 114.528 45.721C115.273 45.7223 116.016 45.6543 116.748 45.5179C116.748 45.5061 116.748 45.4943 116.748 45.4812C116.608 44.6979 116.388 43.9308 116.093 43.1916Z" fill="#0AE8F0"/>
</svg>
