<svg width="300" height="100" viewBox="0 0 300 100" fill="none" xmlns="http://www.w3.org/2000/svg">
<path d="M233.214 59.9372C233.056 59.9439 232.905 60.001 232.782 60.1002C232.659 60.1995 232.571 60.3356 232.531 60.4885C230.805 65.4116 228.473 68.3446 226.555 68.3446C225.452 68.3446 225.005 67.1152 225.005 65.1856C225.005 60.3617 227.894 50.1351 229.35 45.4711C229.51 44.9864 229.603 44.4817 229.625 43.9715C229.625 42.6153 228.886 41.9482 227.051 41.9482C225.072 41.9482 222.944 42.7201 220.871 46.3586C220.154 43.1611 217.993 41.7608 214.966 41.7608C211.471 41.7608 208.097 44.0101 205.318 47.6542C202.54 51.2983 199.254 52.4946 196.818 51.9047C198.587 47.577 199.243 44.3464 199.243 41.9427C199.243 38.1773 197.385 35.906 194.375 35.906C189.805 35.906 187.17 40.2668 187.17 44.8536C187.17 48.3985 188.78 52.0205 192.313 53.8123C189.347 60.5161 185.025 66.5749 183.382 66.5749C181.26 66.5749 180.626 56.1939 180.758 48.7678C180.835 44.5063 181.188 44.2913 181.188 43.0012C181.188 42.2625 180.709 41.7553 178.779 41.7553C174.286 41.7553 172.897 45.5593 172.682 49.9311C172.614 51.5909 172.355 53.2374 171.91 54.8377C170.03 61.5415 166.16 66.6245 163.64 66.6245C162.472 66.6245 162.152 65.4557 162.152 63.9231C162.152 59.0992 164.853 53.0735 164.853 47.9354C164.853 44.1534 163.199 41.7663 160.073 41.7663C156.396 41.7663 151.528 46.1436 146.925 54.347C148.441 48.0677 149.064 41.9868 144.576 41.9868C143.604 42.0008 142.649 42.2485 141.792 42.709C141.504 42.8435 141.264 43.0617 141.101 43.3351C140.939 43.6085 140.863 43.9244 140.883 44.2416C141.313 50.9289 135.497 68.0523 129.978 68.0523C128.975 68.0523 128.49 66.9498 128.49 65.2132C128.49 60.3783 131.367 50.1792 132.817 45.5041C132.989 44.9935 133.086 44.4604 133.104 43.9219C133.104 42.6429 132.31 41.9868 130.518 41.9868C128.55 41.9868 126.411 42.7366 124.349 46.3642C123.627 43.1666 121.461 41.7663 118.439 41.7663C113.478 41.7663 107.965 47.0092 105.506 53.8453C102.248 62.9694 95.6819 71.7847 86.8391 71.7847C78.8177 71.7847 74.5837 65.1084 74.5837 54.562C74.5837 39.3296 85.764 26.8867 94.0556 26.8867C98.0194 26.8867 99.9158 29.4116 99.9158 33.2873C99.9158 37.9789 97.2972 40.1565 97.2972 41.9427C97.2972 42.494 97.7493 43.0453 98.6534 43.0453C102.259 43.0453 106.498 38.8113 106.498 33.0337C106.498 27.2561 101.796 23 93.4987 23C79.7935 23 66 36.7825 66 54.4628C66 68.521 72.9353 77 84.9316 77C93.1128 77 100.263 70.638 104.117 63.2175C104.552 69.37 107.347 72.5896 111.609 72.5896C115.396 72.5896 118.462 70.3347 120.805 66.3654C121.703 70.5167 124.112 72.5455 127.205 72.5455C130.766 72.5455 133.749 70.2906 136.577 66.0952C136.533 69.403 137.283 72.4848 140.139 72.4848C141.484 72.4848 143.094 72.1706 143.38 70.9963C146.385 58.57 153.811 48.426 156.06 48.426C156.733 48.426 156.92 49.0766 156.92 49.8429C156.92 53.2168 154.538 60.1412 154.538 64.5571C154.538 69.3314 156.567 72.4904 160.763 72.4904C165.41 72.4904 170.135 66.8009 173.283 58.4818C174.269 66.2551 176.397 72.5234 179.733 72.5234C183.823 72.5234 191.09 63.9121 195.494 54.7936C197.885 55.1454 200.319 54.5737 202.303 53.1948C201.213 55.9187 200.642 58.8226 200.621 61.7565C200.621 70.219 204.662 72.5896 208.141 72.5896C211.923 72.5896 214.988 70.3347 217.337 66.3654C218.109 69.9433 220.093 72.5344 223.726 72.5344C229.416 72.5344 234.361 66.7182 234.361 61.944C234.383 60.687 233.843 59.9372 233.214 59.9372ZM115.088 67.9035C112.789 67.9035 111.89 65.588 111.89 62.1369C111.89 56.1442 115.992 46.1491 120.325 46.1491C122.221 46.1491 122.933 48.3544 122.933 51.1109C122.933 57.1807 119.035 67.9035 115.088 67.9035ZM193.813 50.0138C192.536 48.3429 191.876 46.2825 191.944 44.181C191.944 41.7387 192.837 39.6769 193.907 39.6769C194.976 39.6769 195.307 40.7299 195.307 42.1963C195.301 44.6441 194.425 48.222 193.813 50.0138ZM211.636 67.9035C209.337 67.9035 208.439 65.2407 208.439 62.1369C208.439 56.3537 212.541 46.1491 216.907 46.1491C218.803 46.1491 219.476 48.3544 219.476 51.1109C219.476 57.1807 215.644 67.9035 211.636 67.9035Z" fill="url(#paint0_linear_825_3574)"/>
<path d="M233.214 59.9372C233.056 59.9439 232.905 60.001 232.782 60.1002C232.659 60.1995 232.571 60.3356 232.531 60.4885C230.805 65.4116 228.473 68.3446 226.555 68.3446C225.452 68.3446 225.005 67.1152 225.005 65.1856C225.005 60.3617 227.894 50.1351 229.35 45.4711C229.51 44.9864 229.603 44.4817 229.625 43.9715C229.625 42.6153 228.886 41.9482 227.051 41.9482C225.072 41.9482 222.944 42.7201 220.871 46.3586C220.154 43.1611 217.993 41.7608 214.966 41.7608C211.471 41.7608 208.097 44.0101 205.318 47.6542C202.54 51.2983 199.254 52.4946 196.818 51.9047C198.587 47.577 199.243 44.3464 199.243 41.9427C199.243 38.1773 197.385 35.906 194.375 35.906C189.805 35.906 187.17 40.2668 187.17 44.8536C187.17 48.3985 188.78 52.0205 192.313 53.8123C189.347 60.5161 185.025 66.5749 183.382 66.5749C181.26 66.5749 180.626 56.1939 180.758 48.7678C180.835 44.5063 181.188 44.2913 181.188 43.0012C181.188 42.2625 180.709 41.7553 178.779 41.7553C174.286 41.7553 172.897 45.5593 172.682 49.9311C172.614 51.5909 172.355 53.2374 171.91 54.8377C170.03 61.5415 166.16 66.6245 163.64 66.6245C162.472 66.6245 162.152 65.4557 162.152 63.9231C162.152 59.0992 164.853 53.0735 164.853 47.9354C164.853 44.1534 163.199 41.7663 160.073 41.7663C156.396 41.7663 151.528 46.1436 146.925 54.347C148.441 48.0677 149.064 41.9868 144.576 41.9868C143.604 42.0008 142.649 42.2485 141.792 42.709C141.504 42.8435 141.264 43.0617 141.101 43.3351C140.939 43.6085 140.863 43.9244 140.883 44.2416C141.313 50.9289 135.497 68.0523 129.978 68.0523C128.975 68.0523 128.49 66.9498 128.49 65.2132C128.49 60.3783 131.367 50.1792 132.817 45.5041C132.989 44.9935 133.086 44.4604 133.104 43.9219C133.104 42.6429 132.31 41.9868 130.518 41.9868C128.55 41.9868 126.411 42.7366 124.349 46.3642C123.627 43.1666 121.461 41.7663 118.439 41.7663C113.478 41.7663 107.965 47.0092 105.506 53.8453C102.248 62.9694 95.6819 71.7847 86.8391 71.7847C78.8177 71.7847 74.5837 65.1084 74.5837 54.562C74.5837 39.3296 85.764 26.8867 94.0556 26.8867C98.0194 26.8867 99.9158 29.4116 99.9158 33.2873C99.9158 37.9789 97.2972 40.1565 97.2972 41.9427C97.2972 42.494 97.7493 43.0453 98.6534 43.0453C102.259 43.0453 106.498 38.8113 106.498 33.0337C106.498 27.2561 101.796 23 93.4987 23C79.7935 23 66 36.7825 66 54.4628C66 68.521 72.9353 77 84.9316 77C93.1128 77 100.263 70.638 104.117 63.2175C104.552 69.37 107.347 72.5896 111.609 72.5896C115.396 72.5896 118.462 70.3347 120.805 66.3654C121.703 70.5167 124.112 72.5455 127.205 72.5455C130.766 72.5455 133.749 70.2906 136.577 66.0952C136.533 69.403 137.283 72.4848 140.139 72.4848C141.484 72.4848 143.094 72.1706 143.38 70.9963C146.385 58.57 153.811 48.426 156.06 48.426C156.733 48.426 156.92 49.0766 156.92 49.8429C156.92 53.2168 154.538 60.1412 154.538 64.5571C154.538 69.3314 156.567 72.4904 160.763 72.4904C165.41 72.4904 170.135 66.8009 173.283 58.4818C174.269 66.2551 176.397 72.5234 179.733 72.5234C183.823 72.5234 191.09 63.9121 195.494 54.7936C197.885 55.1454 200.319 54.5737 202.303 53.1948C201.213 55.9187 200.642 58.8226 200.621 61.7565C200.621 70.219 204.662 72.5896 208.141 72.5896C211.923 72.5896 214.988 70.3347 217.337 66.3654C218.109 69.9433 220.093 72.5344 223.726 72.5344C229.416 72.5344 234.361 66.7182 234.361 61.944C234.383 60.687 233.843 59.9372 233.214 59.9372ZM115.088 67.9035C112.789 67.9035 111.89 65.588 111.89 62.1369C111.89 56.1442 115.992 46.1491 120.325 46.1491C122.221 46.1491 122.933 48.3544 122.933 51.1109C122.933 57.1807 119.035 67.9035 115.088 67.9035ZM193.813 50.0138C192.536 48.3429 191.876 46.2825 191.944 44.181C191.944 41.7387 192.837 39.6769 193.907 39.6769C194.976 39.6769 195.307 40.7299 195.307 42.1963C195.301 44.6441 194.425 48.222 193.813 50.0138ZM211.636 67.9035C209.337 67.9035 208.439 65.2407 208.439 62.1369C208.439 56.3537 212.541 46.1491 216.907 46.1491C218.803 46.1491 219.476 48.3544 219.476 51.1109C219.476 57.1807 215.644 67.9035 211.636 67.9035Z" fill="url(#paint1_radial_825_3574)"/>
<path d="M233.214 59.9372C233.056 59.9439 232.905 60.001 232.782 60.1002C232.659 60.1995 232.571 60.3356 232.531 60.4885C230.805 65.4116 228.473 68.3446 226.555 68.3446C225.452 68.3446 225.005 67.1152 225.005 65.1856C225.005 60.3617 227.894 50.1351 229.35 45.4711C229.51 44.9864 229.603 44.4817 229.625 43.9715C229.625 42.6153 228.886 41.9482 227.051 41.9482C225.072 41.9482 222.944 42.7201 220.871 46.3586C220.154 43.1611 217.993 41.7608 214.966 41.7608C211.471 41.7608 208.097 44.0101 205.318 47.6542C202.54 51.2983 199.254 52.4946 196.818 51.9047C198.587 47.577 199.243 44.3464 199.243 41.9427C199.243 38.1773 197.385 35.906 194.375 35.906C189.805 35.906 187.17 40.2668 187.17 44.8536C187.17 48.3985 188.78 52.0205 192.313 53.8123C189.347 60.5161 185.025 66.5749 183.382 66.5749C181.26 66.5749 180.626 56.1939 180.758 48.7678C180.835 44.5063 181.188 44.2913 181.188 43.0012C181.188 42.2625 180.709 41.7553 178.779 41.7553C174.286 41.7553 172.897 45.5593 172.682 49.9311C172.614 51.5909 172.355 53.2374 171.91 54.8377C170.03 61.5415 166.16 66.6245 163.64 66.6245C162.472 66.6245 162.152 65.4557 162.152 63.9231C162.152 59.0992 164.853 53.0735 164.853 47.9354C164.853 44.1534 163.199 41.7663 160.073 41.7663C156.396 41.7663 151.528 46.1436 146.925 54.347C148.441 48.0677 149.064 41.9868 144.576 41.9868C143.604 42.0008 142.649 42.2485 141.792 42.709C141.504 42.8435 141.264 43.0617 141.101 43.3351C140.939 43.6085 140.863 43.9244 140.883 44.2416C141.313 50.9289 135.497 68.0523 129.978 68.0523C128.975 68.0523 128.49 66.9498 128.49 65.2132C128.49 60.3783 131.367 50.1792 132.817 45.5041C132.989 44.9935 133.086 44.4604 133.104 43.9219C133.104 42.6429 132.31 41.9868 130.518 41.9868C128.55 41.9868 126.411 42.7366 124.349 46.3642C123.627 43.1666 121.461 41.7663 118.439 41.7663C113.478 41.7663 107.965 47.0092 105.506 53.8453C102.248 62.9694 95.6819 71.7847 86.8391 71.7847C78.8177 71.7847 74.5837 65.1084 74.5837 54.562C74.5837 39.3296 85.764 26.8867 94.0556 26.8867C98.0194 26.8867 99.9158 29.4116 99.9158 33.2873C99.9158 37.9789 97.2972 40.1565 97.2972 41.9427C97.2972 42.494 97.7493 43.0453 98.6534 43.0453C102.259 43.0453 106.498 38.8113 106.498 33.0337C106.498 27.2561 101.796 23 93.4987 23C79.7935 23 66 36.7825 66 54.4628C66 68.521 72.9353 77 84.9316 77C93.1128 77 100.263 70.638 104.117 63.2175C104.552 69.37 107.347 72.5896 111.609 72.5896C115.396 72.5896 118.462 70.3347 120.805 66.3654C121.703 70.5167 124.112 72.5455 127.205 72.5455C130.766 72.5455 133.749 70.2906 136.577 66.0952C136.533 69.403 137.283 72.4848 140.139 72.4848C141.484 72.4848 143.094 72.1706 143.38 70.9963C146.385 58.57 153.811 48.426 156.06 48.426C156.733 48.426 156.92 49.0766 156.92 49.8429C156.92 53.2168 154.538 60.1412 154.538 64.5571C154.538 69.3314 156.567 72.4904 160.763 72.4904C165.41 72.4904 170.135 66.8009 173.283 58.4818C174.269 66.2551 176.397 72.5234 179.733 72.5234C183.823 72.5234 191.09 63.9121 195.494 54.7936C197.885 55.1454 200.319 54.5737 202.303 53.1948C201.213 55.9187 200.642 58.8226 200.621 61.7565C200.621 70.219 204.662 72.5896 208.141 72.5896C211.923 72.5896 214.988 70.3347 217.337 66.3654C218.109 69.9433 220.093 72.5344 223.726 72.5344C229.416 72.5344 234.361 66.7182 234.361 61.944C234.383 60.687 233.843 59.9372 233.214 59.9372ZM115.088 67.9035C112.789 67.9035 111.89 65.588 111.89 62.1369C111.89 56.1442 115.992 46.1491 120.325 46.1491C122.221 46.1491 122.933 48.3544 122.933 51.1109C122.933 57.1807 119.035 67.9035 115.088 67.9035ZM193.813 50.0138C192.536 48.3429 191.876 46.2825 191.944 44.181C191.944 41.7387 192.837 39.6769 193.907 39.6769C194.976 39.6769 195.307 40.7299 195.307 42.1963C195.301 44.6441 194.425 48.222 193.813 50.0138ZM211.636 67.9035C209.337 67.9035 208.439 65.2407 208.439 62.1369C208.439 56.3537 212.541 46.1491 216.907 46.1491C218.803 46.1491 219.476 48.3544 219.476 51.1109C219.476 57.1807 215.644 67.9035 211.636 67.9035Z" fill="url(#paint2_radial_825_3574)"/>
<path d="M233.214 59.9372C233.056 59.9439 232.905 60.001 232.782 60.1002C232.659 60.1995 232.571 60.3356 232.531 60.4885C230.805 65.4116 228.473 68.3446 226.555 68.3446C225.452 68.3446 225.005 67.1152 225.005 65.1856C225.005 60.3617 227.894 50.1351 229.35 45.4711C229.51 44.9864 229.603 44.4817 229.625 43.9715C229.625 42.6153 228.886 41.9482 227.051 41.9482C225.072 41.9482 222.944 42.7201 220.871 46.3586C220.154 43.1611 217.993 41.7608 214.966 41.7608C211.471 41.7608 208.097 44.0101 205.318 47.6542C202.54 51.2983 199.254 52.4946 196.818 51.9047C198.587 47.577 199.243 44.3464 199.243 41.9427C199.243 38.1773 197.385 35.906 194.375 35.906C189.805 35.906 187.17 40.2668 187.17 44.8536C187.17 48.3985 188.78 52.0205 192.313 53.8123C189.347 60.5161 185.025 66.5749 183.382 66.5749C181.26 66.5749 180.626 56.1939 180.758 48.7678C180.835 44.5063 181.188 44.2913 181.188 43.0012C181.188 42.2625 180.709 41.7553 178.779 41.7553C174.286 41.7553 172.897 45.5593 172.682 49.9311C172.614 51.5909 172.355 53.2374 171.91 54.8377C170.03 61.5415 166.16 66.6245 163.64 66.6245C162.472 66.6245 162.152 65.4557 162.152 63.9231C162.152 59.0992 164.853 53.0735 164.853 47.9354C164.853 44.1534 163.199 41.7663 160.073 41.7663C156.396 41.7663 151.528 46.1436 146.925 54.347C148.441 48.0677 149.064 41.9868 144.576 41.9868C143.604 42.0008 142.649 42.2485 141.792 42.709C141.504 42.8435 141.264 43.0617 141.101 43.3351C140.939 43.6085 140.863 43.9244 140.883 44.2416C141.313 50.9289 135.497 68.0523 129.978 68.0523C128.975 68.0523 128.49 66.9498 128.49 65.2132C128.49 60.3783 131.367 50.1792 132.817 45.5041C132.989 44.9935 133.086 44.4604 133.104 43.9219C133.104 42.6429 132.31 41.9868 130.518 41.9868C128.55 41.9868 126.411 42.7366 124.349 46.3642C123.627 43.1666 121.461 41.7663 118.439 41.7663C113.478 41.7663 107.965 47.0092 105.506 53.8453C102.248 62.9694 95.6819 71.7847 86.8391 71.7847C78.8177 71.7847 74.5837 65.1084 74.5837 54.562C74.5837 39.3296 85.764 26.8867 94.0556 26.8867C98.0194 26.8867 99.9158 29.4116 99.9158 33.2873C99.9158 37.9789 97.2972 40.1565 97.2972 41.9427C97.2972 42.494 97.7493 43.0453 98.6534 43.0453C102.259 43.0453 106.498 38.8113 106.498 33.0337C106.498 27.2561 101.796 23 93.4987 23C79.7935 23 66 36.7825 66 54.4628C66 68.521 72.9353 77 84.9316 77C93.1128 77 100.263 70.638 104.117 63.2175C104.552 69.37 107.347 72.5896 111.609 72.5896C115.396 72.5896 118.462 70.3347 120.805 66.3654C121.703 70.5167 124.112 72.5455 127.205 72.5455C130.766 72.5455 133.749 70.2906 136.577 66.0952C136.533 69.403 137.283 72.4848 140.139 72.4848C141.484 72.4848 143.094 72.1706 143.38 70.9963C146.385 58.57 153.811 48.426 156.06 48.426C156.733 48.426 156.92 49.0766 156.92 49.8429C156.92 53.2168 154.538 60.1412 154.538 64.5571C154.538 69.3314 156.567 72.4904 160.763 72.4904C165.41 72.4904 170.135 66.8009 173.283 58.4818C174.269 66.2551 176.397 72.5234 179.733 72.5234C183.823 72.5234 191.09 63.9121 195.494 54.7936C197.885 55.1454 200.319 54.5737 202.303 53.1948C201.213 55.9187 200.642 58.8226 200.621 61.7565C200.621 70.219 204.662 72.5896 208.141 72.5896C211.923 72.5896 214.988 70.3347 217.337 66.3654C218.109 69.9433 220.093 72.5344 223.726 72.5344C229.416 72.5344 234.361 66.7182 234.361 61.944C234.383 60.687 233.843 59.9372 233.214 59.9372ZM115.088 67.9035C112.789 67.9035 111.89 65.588 111.89 62.1369C111.89 56.1442 115.992 46.1491 120.325 46.1491C122.221 46.1491 122.933 48.3544 122.933 51.1109C122.933 57.1807 119.035 67.9035 115.088 67.9035ZM193.813 50.0138C192.536 48.3429 191.876 46.2825 191.944 44.181C191.944 41.7387 192.837 39.6769 193.907 39.6769C194.976 39.6769 195.307 40.7299 195.307 42.1963C195.301 44.6441 194.425 48.222 193.813 50.0138ZM211.636 67.9035C209.337 67.9035 208.439 65.2407 208.439 62.1369C208.439 56.3537 212.541 46.1491 216.907 46.1491C218.803 46.1491 219.476 48.3544 219.476 51.1109C219.476 57.1807 215.644 67.9035 211.636 67.9035Z" fill="url(#paint3_radial_825_3574)"/>
<path d="M233.214 59.9372C233.056 59.9439 232.905 60.001 232.782 60.1002C232.659 60.1995 232.571 60.3356 232.531 60.4885C230.805 65.4116 228.473 68.3446 226.555 68.3446C225.452 68.3446 225.005 67.1152 225.005 65.1856C225.005 60.3617 227.894 50.1351 229.35 45.4711C229.51 44.9864 229.603 44.4817 229.625 43.9715C229.625 42.6153 228.886 41.9482 227.051 41.9482C225.072 41.9482 222.944 42.7201 220.871 46.3586C220.154 43.1611 217.993 41.7608 214.966 41.7608C211.471 41.7608 208.097 44.0101 205.318 47.6542C202.54 51.2983 199.254 52.4946 196.818 51.9047C198.587 47.577 199.243 44.3464 199.243 41.9427C199.243 38.1773 197.385 35.906 194.375 35.906C189.805 35.906 187.17 40.2668 187.17 44.8536C187.17 48.3985 188.78 52.0205 192.313 53.8123C189.347 60.5161 185.025 66.5749 183.382 66.5749C181.26 66.5749 180.626 56.1939 180.758 48.7678C180.835 44.5063 181.188 44.2913 181.188 43.0012C181.188 42.2625 180.709 41.7553 178.779 41.7553C174.286 41.7553 172.897 45.5593 172.682 49.9311C172.614 51.5909 172.355 53.2374 171.91 54.8377C170.03 61.5415 166.16 66.6245 163.64 66.6245C162.472 66.6245 162.152 65.4557 162.152 63.9231C162.152 59.0992 164.853 53.0735 164.853 47.9354C164.853 44.1534 163.199 41.7663 160.073 41.7663C156.396 41.7663 151.528 46.1436 146.925 54.347C148.441 48.0677 149.064 41.9868 144.576 41.9868C143.604 42.0008 142.649 42.2485 141.792 42.709C141.504 42.8435 141.264 43.0617 141.101 43.3351C140.939 43.6085 140.863 43.9244 140.883 44.2416C141.313 50.9289 135.497 68.0523 129.978 68.0523C128.975 68.0523 128.49 66.9498 128.49 65.2132C128.49 60.3783 131.367 50.1792 132.817 45.5041C132.989 44.9935 133.086 44.4604 133.104 43.9219C133.104 42.6429 132.31 41.9868 130.518 41.9868C128.55 41.9868 126.411 42.7366 124.349 46.3642C123.627 43.1666 121.461 41.7663 118.439 41.7663C113.478 41.7663 107.965 47.0092 105.506 53.8453C102.248 62.9694 95.6819 71.7847 86.8391 71.7847C78.8177 71.7847 74.5837 65.1084 74.5837 54.562C74.5837 39.3296 85.764 26.8867 94.0556 26.8867C98.0194 26.8867 99.9158 29.4116 99.9158 33.2873C99.9158 37.9789 97.2972 40.1565 97.2972 41.9427C97.2972 42.494 97.7493 43.0453 98.6534 43.0453C102.259 43.0453 106.498 38.8113 106.498 33.0337C106.498 27.2561 101.796 23 93.4987 23C79.7935 23 66 36.7825 66 54.4628C66 68.521 72.9353 77 84.9316 77C93.1128 77 100.263 70.638 104.117 63.2175C104.552 69.37 107.347 72.5896 111.609 72.5896C115.396 72.5896 118.462 70.3347 120.805 66.3654C121.703 70.5167 124.112 72.5455 127.205 72.5455C130.766 72.5455 133.749 70.2906 136.577 66.0952C136.533 69.403 137.283 72.4848 140.139 72.4848C141.484 72.4848 143.094 72.1706 143.38 70.9963C146.385 58.57 153.811 48.426 156.06 48.426C156.733 48.426 156.92 49.0766 156.92 49.8429C156.92 53.2168 154.538 60.1412 154.538 64.5571C154.538 69.3314 156.567 72.4904 160.763 72.4904C165.41 72.4904 170.135 66.8009 173.283 58.4818C174.269 66.2551 176.397 72.5234 179.733 72.5234C183.823 72.5234 191.09 63.9121 195.494 54.7936C197.885 55.1454 200.319 54.5737 202.303 53.1948C201.213 55.9187 200.642 58.8226 200.621 61.7565C200.621 70.219 204.662 72.5896 208.141 72.5896C211.923 72.5896 214.988 70.3347 217.337 66.3654C218.109 69.9433 220.093 72.5344 223.726 72.5344C229.416 72.5344 234.361 66.7182 234.361 61.944C234.383 60.687 233.843 59.9372 233.214 59.9372ZM115.088 67.9035C112.789 67.9035 111.89 65.588 111.89 62.1369C111.89 56.1442 115.992 46.1491 120.325 46.1491C122.221 46.1491 122.933 48.3544 122.933 51.1109C122.933 57.1807 119.035 67.9035 115.088 67.9035ZM193.813 50.0138C192.536 48.3429 191.876 46.2825 191.944 44.181C191.944 41.7387 192.837 39.6769 193.907 39.6769C194.976 39.6769 195.307 40.7299 195.307 42.1963C195.301 44.6441 194.425 48.222 193.813 50.0138ZM211.636 67.9035C209.337 67.9035 208.439 65.2407 208.439 62.1369C208.439 56.3537 212.541 46.1491 216.907 46.1491C218.803 46.1491 219.476 48.3544 219.476 51.1109C219.476 57.1807 215.644 67.9035 211.636 67.9035Z" fill="url(#paint4_radial_825_3574)"/>
<path d="M233.214 59.9372C233.056 59.9439 232.905 60.001 232.782 60.1002C232.659 60.1995 232.571 60.3356 232.531 60.4885C230.805 65.4116 228.473 68.3446 226.555 68.3446C225.452 68.3446 225.005 67.1152 225.005 65.1856C225.005 60.3617 227.894 50.1351 229.35 45.4711C229.51 44.9864 229.603 44.4817 229.625 43.9715C229.625 42.6153 228.886 41.9482 227.051 41.9482C225.072 41.9482 222.944 42.7201 220.871 46.3586C220.154 43.1611 217.993 41.7608 214.966 41.7608C211.471 41.7608 208.097 44.0101 205.318 47.6542C202.54 51.2983 199.254 52.4946 196.818 51.9047C198.587 47.577 199.243 44.3464 199.243 41.9427C199.243 38.1773 197.385 35.906 194.375 35.906C189.805 35.906 187.17 40.2668 187.17 44.8536C187.17 48.3985 188.78 52.0205 192.313 53.8123C189.347 60.5161 185.025 66.5749 183.382 66.5749C181.26 66.5749 180.626 56.1939 180.758 48.7678C180.835 44.5063 181.188 44.2913 181.188 43.0012C181.188 42.2625 180.709 41.7553 178.779 41.7553C174.286 41.7553 172.897 45.5593 172.682 49.9311C172.614 51.5909 172.355 53.2374 171.91 54.8377C170.03 61.5415 166.16 66.6245 163.64 66.6245C162.472 66.6245 162.152 65.4557 162.152 63.9231C162.152 59.0992 164.853 53.0735 164.853 47.9354C164.853 44.1534 163.199 41.7663 160.073 41.7663C156.396 41.7663 151.528 46.1436 146.925 54.347C148.441 48.0677 149.064 41.9868 144.576 41.9868C143.604 42.0008 142.649 42.2485 141.792 42.709C141.504 42.8435 141.264 43.0617 141.101 43.3351C140.939 43.6085 140.863 43.9244 140.883 44.2416C141.313 50.9289 135.497 68.0523 129.978 68.0523C128.975 68.0523 128.49 66.9498 128.49 65.2132C128.49 60.3783 131.367 50.1792 132.817 45.5041C132.989 44.9935 133.086 44.4604 133.104 43.9219C133.104 42.6429 132.31 41.9868 130.518 41.9868C128.55 41.9868 126.411 42.7366 124.349 46.3642C123.627 43.1666 121.461 41.7663 118.439 41.7663C113.478 41.7663 107.965 47.0092 105.506 53.8453C102.248 62.9694 95.6819 71.7847 86.8391 71.7847C78.8177 71.7847 74.5837 65.1084 74.5837 54.562C74.5837 39.3296 85.764 26.8867 94.0556 26.8867C98.0194 26.8867 99.9158 29.4116 99.9158 33.2873C99.9158 37.9789 97.2972 40.1565 97.2972 41.9427C97.2972 42.494 97.7493 43.0453 98.6534 43.0453C102.259 43.0453 106.498 38.8113 106.498 33.0337C106.498 27.2561 101.796 23 93.4987 23C79.7935 23 66 36.7825 66 54.4628C66 68.521 72.9353 77 84.9316 77C93.1128 77 100.263 70.638 104.117 63.2175C104.552 69.37 107.347 72.5896 111.609 72.5896C115.396 72.5896 118.462 70.3347 120.805 66.3654C121.703 70.5167 124.112 72.5455 127.205 72.5455C130.766 72.5455 133.749 70.2906 136.577 66.0952C136.533 69.403 137.283 72.4848 140.139 72.4848C141.484 72.4848 143.094 72.1706 143.38 70.9963C146.385 58.57 153.811 48.426 156.06 48.426C156.733 48.426 156.92 49.0766 156.92 49.8429C156.92 53.2168 154.538 60.1412 154.538 64.5571C154.538 69.3314 156.567 72.4904 160.763 72.4904C165.41 72.4904 170.135 66.8009 173.283 58.4818C174.269 66.2551 176.397 72.5234 179.733 72.5234C183.823 72.5234 191.09 63.9121 195.494 54.7936C197.885 55.1454 200.319 54.5737 202.303 53.1948C201.213 55.9187 200.642 58.8226 200.621 61.7565C200.621 70.219 204.662 72.5896 208.141 72.5896C211.923 72.5896 214.988 70.3347 217.337 66.3654C218.109 69.9433 220.093 72.5344 223.726 72.5344C229.416 72.5344 234.361 66.7182 234.361 61.944C234.383 60.687 233.843 59.9372 233.214 59.9372ZM115.088 67.9035C112.789 67.9035 111.89 65.588 111.89 62.1369C111.89 56.1442 115.992 46.1491 120.325 46.1491C122.221 46.1491 122.933 48.3544 122.933 51.1109C122.933 57.1807 119.035 67.9035 115.088 67.9035ZM193.813 50.0138C192.536 48.3429 191.876 46.2825 191.944 44.181C191.944 41.7387 192.837 39.6769 193.907 39.6769C194.976 39.6769 195.307 40.7299 195.307 42.1963C195.301 44.6441 194.425 48.222 193.813 50.0138ZM211.636 67.9035C209.337 67.9035 208.439 65.2407 208.439 62.1369C208.439 56.3537 212.541 46.1491 216.907 46.1491C218.803 46.1491 219.476 48.3544 219.476 51.1109C219.476 57.1807 215.644 67.9035 211.636 67.9035Z" fill="url(#paint5_radial_825_3574)"/>
<defs>
<linearGradient id="paint0_linear_825_3574" x1="232.553" y1="77.9482" x2="92.4622" y2="44.6059" gradientUnits="userSpaceOnUse">
<stop stop-color="#7D2AE7"/>
<stop offset="0.77" stop-color="#7D2AE7"/>
<stop offset="1" stop-color="#7D2AE7" stop-opacity="0"/>
</linearGradient>
<radialGradient id="paint1_radial_825_3574" cx="0" cy="0" r="1" gradientUnits="userSpaceOnUse" gradientTransform="translate(152.385 79.3481) rotate(-45.8071) scale(49.8249 33.1131)">
<stop stop-color="#6420FF"/>
<stop offset="1" stop-color="#6420FF" stop-opacity="0"/>
</radialGradient>
<radialGradient id="paint2_radial_825_3574" cx="0" cy="0" r="1" gradientUnits="userSpaceOnUse" gradientTransform="translate(71.4572 61.356) rotate(5.08829) scale(96.9695 77.2872)">
<stop offset="0.25" stop-color="#00C4CC"/>
<stop offset="1" stop-color="#00C4CC" stop-opacity="0"/>
</radialGradient>
<radialGradient id="paint3_radial_825_3574" cx="0" cy="0" r="1" gradientUnits="userSpaceOnUse" gradientTransform="translate(134.842 75.2039) rotate(-38.8495) scale(62.4885 42.7281)">
<stop stop-color="#6420FF"/>
<stop offset="1" stop-color="#6420FF" stop-opacity="0"/>
</radialGradient>
<radialGradient id="paint4_radial_825_3574" cx="0" cy="0" r="1" gradientUnits="userSpaceOnUse" gradientTransform="translate(74.2254 87.2652) rotate(-34.2675) scale(72.8466 49.8102)">
<stop stop-color="#6420FF"/>
<stop offset="1" stop-color="#6420FF" stop-opacity="0"/>
</radialGradient>
<radialGradient id="paint5_radial_825_3574" cx="0" cy="0" r="1" gradientUnits="userSpaceOnUse" gradientTransform="translate(81.6924 30.2147) rotate(12.4718) scale(143.979 176.585)">
<stop stop-color="#00C4CC"/>
<stop offset="1" stop-color="#00C4CC" stop-opacity="0"/>
</radialGradient>
</defs>
</svg>
