<svg width="380" height="100" viewBox="0 0 380 100" fill="none" xmlns="http://www.w3.org/2000/svg">
<path d="M274.182 67.0022V63.3862C273.185 64.7924 272.013 65.8438 270.653 66.5268C269.301 67.2165 267.928 67.558 266.555 67.558C263.749 67.558 261.352 66.4196 259.35 64.1362C257.354 61.8527 256.35 58.6719 256.35 54.5937C256.35 50.4219 257.321 47.2478 259.27 45.0714C261.211 42.9018 263.676 41.8103 266.642 41.8103C269.368 41.8103 271.725 42.9554 273.72 45.2455V32.9978H280.176V66.9955L274.182 67.0022ZM272.227 48.6674C271.216 47.4219 269.924 46.7991 268.343 46.7991C266.81 46.7991 265.531 47.4152 264.493 48.6406C263.461 49.8728 262.939 51.7076 262.939 54.1518C262.939 56.7835 263.301 58.6853 264.017 59.8571C265.062 61.558 266.515 62.4085 268.383 62.4085C269.87 62.4085 271.136 61.7723 272.174 60.4933C273.218 59.221 273.734 57.3125 273.734 54.7746C273.741 51.9487 273.238 49.9129 272.227 48.6674ZM252.814 47.6562C251.91 47.6562 251.147 47.9107 250.517 48.4129C249.888 48.9152 249.392 49.8259 249.037 51.1384C248.676 52.4509 248.495 55.2031 248.495 59.3951V67.0022H242.04V42.3728H248.033V45.875C249.057 44.221 249.982 43.1295 250.799 42.6071C251.616 42.0848 252.546 41.817 253.591 41.817C255.064 41.817 256.477 42.2254 257.843 43.0491L255.848 48.7277C254.756 48.0112 253.745 47.6562 252.814 47.6562ZM236.234 47.6562C235.33 47.6562 234.566 47.9107 233.937 48.4129C233.307 48.9152 232.812 49.8259 232.457 51.1384C232.095 52.4509 231.915 55.2031 231.915 59.3951V67.0022H225.459V42.3728H231.453V45.875C232.477 44.221 233.401 43.1295 234.218 42.6071C235.035 42.0848 235.966 41.817 237.011 41.817C238.484 41.817 239.897 42.2254 241.263 43.0491L239.267 48.7277C238.176 48.0112 237.165 47.6562 236.234 47.6562ZM216.781 65.0737C216.674 64.6853 216.6 64.4308 216.553 64.3103C215.448 65.3951 214.27 66.2054 213.017 66.7478C211.758 67.2902 210.419 67.558 208.999 67.558C206.488 67.558 204.506 66.8683 203.06 65.4955C201.613 64.1228 200.89 62.3817 200.89 60.279C200.89 58.8862 201.218 57.6473 201.881 56.5558C202.537 55.4643 203.461 54.6339 204.647 54.0513C205.832 53.4688 207.546 52.9665 209.783 52.5312C212.803 51.9621 214.892 51.4263 216.057 50.9308V50.2812C216.057 49.029 215.749 48.1384 215.14 47.6027C214.524 47.067 213.372 46.8058 211.671 46.8058C210.52 46.8058 209.629 47.0335 208.986 47.4888C208.343 47.9442 207.821 48.7478 207.426 49.8862L201.566 48.8214C202.223 46.4375 203.361 44.6763 204.968 43.5312C206.575 42.3862 208.966 41.817 212.133 41.817C215.013 41.817 217.156 42.1585 218.569 42.8482C219.975 43.5379 220.973 44.4085 221.542 45.4665C222.118 46.5246 222.406 48.4665 222.406 51.2991L222.339 58.9062C222.339 61.0692 222.439 62.6696 222.647 63.6942C222.854 64.7254 223.243 65.8237 223.805 67.0022H217.417C217.236 66.567 217.028 65.9241 216.781 65.0737ZM216.051 55.1696C215.22 55.4509 213.915 55.779 212.12 56.1674C210.325 56.5558 209.153 56.9308 208.604 57.3058C207.761 57.9085 207.339 58.6719 207.339 59.6027C207.339 60.5134 207.674 61.3036 208.35 61.9665C209.026 62.6295 209.883 62.9643 210.921 62.9643C212.086 62.9643 213.198 62.5759 214.249 61.8058C215.033 61.2165 215.542 60.5 215.79 59.6496C215.957 59.0937 216.044 58.0357 216.044 56.4754L216.051 55.1696ZM186.091 61.7121C187.899 61.7121 189.453 61.1295 190.752 59.971C192.051 58.8125 192.988 56.9844 193.557 54.5L200.153 56.6094C199.142 60.3192 197.461 63.0781 195.111 64.8795C192.761 66.6808 189.774 67.5781 186.165 67.5781C181.691 67.5781 178.015 66.0379 175.136 62.9509C172.256 59.8638 170.816 55.6518 170.816 50.3013C170.816 44.6429 172.263 40.25 175.156 37.1161C178.049 33.9821 181.859 32.4219 186.573 32.4219C190.691 32.4219 194.04 33.654 196.611 36.1116C198.145 37.5647 199.29 39.654 200.06 42.3728L193.33 43.9933C192.928 42.2321 192.098 40.8393 190.839 39.8214C189.573 38.8036 188.04 38.2879 186.232 38.2879C183.734 38.2879 181.711 39.192 180.158 41C178.604 42.808 177.828 45.7411 177.828 49.7924C177.828 54.0915 178.591 57.1518 180.124 58.9732C181.651 60.8013 183.64 61.7121 186.091 61.7121Z" fill="#000008"/>
<path d="M128.696 78.7006C112.666 78.7006 99.6758 65.7106 99.6758 49.6872C99.6758 33.6639 112.666 20.6738 128.696 20.6738C144.726 20.6738 157.716 33.6639 157.716 49.6872C157.716 65.7106 144.726 78.7006 128.696 78.7006Z" fill="url(#paint0_linear_887_5198)"/>
<path d="M142.973 60.7425L125.557 69.1057C125.45 69.1592 125.329 69.186 125.209 69.186C125.061 69.186 124.914 69.1459 124.78 69.0655C124.546 68.9182 124.405 68.6637 124.405 68.3825V60.0997L114.997 56.1625C114.696 56.0353 114.502 55.7473 114.502 55.4192V33.6709C114.502 33.3964 114.643 33.1352 114.877 32.9879C115.111 32.8406 115.406 32.8272 115.654 32.941L133.759 41.6323L142.283 37.5411C142.531 37.4206 142.826 37.4407 143.06 37.588C143.294 37.7353 143.435 37.9898 143.435 38.271V60.0193C143.428 60.3273 143.254 60.6086 142.973 60.7425ZM116.109 34.9498V54.8836L124.405 58.3587V54.3546L119.189 52.2521C118.781 52.0847 118.58 51.6159 118.74 51.2075C118.908 50.7923 119.377 50.5982 119.785 50.7589L124.405 52.6203V49.3326L119.189 47.2301C118.781 47.0627 118.58 46.594 118.74 46.1856C118.908 45.7704 119.377 45.5762 119.785 45.7369L124.405 47.5984V46.6409C124.405 46.3329 124.579 46.0516 124.861 45.9177L126.052 45.3419L119.149 42.2015C118.747 42.0207 118.566 41.5386 118.747 41.1368C118.928 40.7351 119.41 40.5543 119.812 40.7351L127.934 44.4379L131.891 42.5363L116.109 34.9498ZM141.821 39.5499L126.012 47.1431V48.7702C126.012 48.7702 126.012 48.7702 126.012 48.7769V53.7921C126.012 53.7921 126.012 53.7921 126.012 53.7988V67.1103L141.821 59.5104V39.5499ZM129.032 49.942L138.092 45.5628C138.493 45.3687 138.969 45.5361 139.163 45.9378C139.357 46.3396 139.19 46.8217 138.788 47.0092L129.728 51.3883C129.615 51.4419 129.494 51.4686 129.38 51.4686C129.079 51.4686 128.798 51.3012 128.657 51.0133C128.47 50.6183 128.637 50.1361 129.032 49.942ZM129.032 54.9639L138.092 50.5848C138.493 50.3906 138.969 50.558 139.163 50.9597C139.357 51.3615 139.19 51.8436 138.788 52.0311L129.728 56.4102C129.615 56.4638 129.494 56.4906 129.38 56.4906C129.079 56.4906 128.798 56.3232 128.657 56.0352C128.47 55.6335 128.637 55.1581 129.032 54.9639ZM129.032 59.9791L138.092 55.6C138.493 55.4058 138.969 55.5732 139.163 55.975C139.357 56.3767 139.19 56.8589 138.788 57.0463L129.728 61.4255C129.615 61.479 129.494 61.5058 129.38 61.5058C129.079 61.5058 128.798 61.3384 128.657 61.0505C128.47 60.6554 128.637 60.1733 129.032 59.9791Z" fill="white"/>
<defs>
<linearGradient id="paint0_linear_887_5198" x1="108.177" y1="70.2056" x2="149.214" y2="29.169" gradientUnits="userSpaceOnUse">
<stop stop-color="#7366A7"/>
<stop offset="0.2677" stop-color="#6B68AA"/>
<stop offset="0.6906" stop-color="#546DB1"/>
<stop offset="1" stop-color="#3F71B7"/>
</linearGradient>
</defs>
</svg>
