<svg width="90" height="90" viewBox="0 0 90 90" fill="none" xmlns="http://www.w3.org/2000/svg">
<path d="M44.9992 83.6875C23.6242 83.6875 6.30273 66.3661 6.30273 45C6.30273 23.6339 23.6242 6.3125 44.9992 6.3125C66.3742 6.3125 83.6956 23.6339 83.6956 45C83.6956 66.3661 66.3742 83.6875 44.9992 83.6875Z" fill="url(#paint0_linear_887_5196)"/>
<path d="M64.0366 59.7409L40.8133 70.8926C40.6705 70.9641 40.5098 70.9998 40.3491 70.9998C40.1526 70.9998 39.9562 70.9462 39.7776 70.8391C39.4651 70.6426 39.2776 70.3034 39.2776 69.9284V58.8837L26.733 53.6337C26.3312 53.4641 26.0723 53.0801 26.0723 52.6426V23.6426C26.0723 23.2766 26.2598 22.9284 26.5723 22.7319C26.8848 22.5355 27.2776 22.5176 27.608 22.6694L51.7508 34.2587L63.1169 28.8034C63.4473 28.6426 63.8401 28.6694 64.1526 28.8659C64.4651 29.0623 64.6526 29.4016 64.6526 29.7766V58.7766C64.6437 59.1873 64.4116 59.5623 64.0366 59.7409ZM28.2151 25.348V51.9284L39.2776 56.5623V51.223L32.3223 48.4194C31.7776 48.1962 31.5098 47.5712 31.7241 47.0266C31.9473 46.473 32.5723 46.2141 33.1169 46.4284L39.2776 48.9105V44.5266L32.3223 41.723C31.7776 41.4998 31.5098 40.8748 31.7241 40.3301C31.9473 39.7766 32.5723 39.5176 33.1169 39.7319L39.2776 42.2141V40.9373C39.2776 40.5266 39.5098 40.1516 39.8848 39.973L41.4741 39.2051L32.2687 35.0176C31.733 34.7766 31.4919 34.1337 31.733 33.598C31.9741 33.0623 32.6169 32.8212 33.1526 33.0623L43.983 37.9998L49.2598 35.4641L28.2151 25.348ZM62.5008 31.4819L41.4205 41.6069V43.7766C41.4205 43.7766 41.4205 43.7766 41.4205 43.7855V50.473C41.4205 50.473 41.4205 50.473 41.4205 50.4819V68.2319L62.5008 58.098V31.4819ZM45.4473 45.3391L57.5276 39.4998C58.0633 39.2409 58.6973 39.4641 58.9562 39.9998C59.2151 40.5355 58.9919 41.1784 58.4562 41.4284L46.3758 47.2676C46.2241 47.3391 46.0633 47.3748 45.9116 47.3748C45.5098 47.3748 45.1348 47.1516 44.9473 46.7676C44.6973 46.2409 44.9205 45.598 45.4473 45.3391ZM45.4473 52.0355L57.5276 46.1962C58.0633 45.9373 58.6973 46.1605 58.9562 46.6962C59.2151 47.2319 58.9919 47.8748 58.4562 48.1248L46.3758 53.9641C46.2241 54.0355 46.0633 54.0712 45.9116 54.0712C45.5098 54.0712 45.1348 53.848 44.9473 53.4641C44.6973 52.9284 44.9205 52.2944 45.4473 52.0355ZM45.4473 58.723L57.5276 52.8837C58.0633 52.6248 58.6973 52.848 58.9562 53.3837C59.2151 53.9194 58.9919 54.5623 58.4562 54.8123L46.3758 60.6516C46.2241 60.723 46.0633 60.7587 45.9116 60.7587C45.5098 60.7587 45.1348 60.5355 44.9473 60.1516C44.6973 59.6248 44.9205 58.9819 45.4473 58.723Z" fill="white"/>
<defs>
<linearGradient id="paint0_linear_887_5196" x1="17.6392" y1="72.3599" x2="72.3591" y2="17.6401" gradientUnits="userSpaceOnUse">
<stop stop-color="#7366A7"/>
<stop offset="0.2677" stop-color="#6B68AA"/>
<stop offset="0.6906" stop-color="#546DB1"/>
<stop offset="1" stop-color="#3F71B7"/>
</linearGradient>
</defs>
</svg>
