<svg width="382" height="100" viewBox="0 0 382 100" fill="none" xmlns="http://www.w3.org/2000/svg">
<path d="M132.909 63.273C132.909 64.7296 131.728 65.9103 130.272 65.9103H103.731C102.275 65.9103 101.094 64.7296 101.094 63.273V36.7308C101.094 35.2741 102.275 34.0934 103.731 34.0934H130.272C131.728 34.0934 132.909 35.2741 132.909 36.7308V63.273ZM133.644 25H100.355C95.7409 25 92 28.74 92 33.3552V66.6433C92 71.2576 95.7409 74.9999 100.355 74.9999H133.644C138.259 74.9999 142.001 71.2576 142.001 66.6433V33.3552C142.001 28.74 138.259 25 133.644 25Z" fill="#1A1A1A"/>
<path d="M111.694 56.7848C110.855 56.7848 110.181 56.104 110.181 55.2644V44.6695C110.181 43.8285 110.855 43.1477 111.694 43.1477H122.305C123.142 43.1477 123.818 43.8285 123.818 44.6695V55.2644C123.818 56.104 123.142 56.7848 122.305 56.7848H111.694Z" fill="#1A1A1A"/>
<path d="M155.255 56.0626H160.714C160.987 59.1562 163.08 61.5671 167.311 61.5671C171.086 61.5671 173.406 59.702 173.406 56.8813C173.406 54.2429 171.587 53.0599 168.311 52.2868L164.081 51.3768C159.486 50.3759 156.028 47.4188 156.028 42.5968C156.028 37.2739 160.759 33.6345 166.901 33.6345C173.406 33.6345 177.592 37.0466 177.956 42.0963H172.679C172.042 39.7307 170.086 38.3202 166.901 38.3202C163.534 38.3202 161.215 40.14 161.215 42.4602C161.215 44.7804 163.216 46.1906 166.674 46.964L170.859 47.874C175.454 48.8747 178.593 51.6497 178.593 56.5174C178.593 62.7044 173.952 66.3894 167.311 66.3894C159.85 66.3894 155.71 62.3405 155.255 56.0626Z" fill="#1A1A1A"/>
<path d="M198.304 54.5211C198.304 49.9254 195.493 47.2485 192.057 47.2485C188.622 47.2485 185.811 49.9254 185.811 54.5211C185.811 59.1167 188.622 61.7936 192.057 61.7936C195.493 61.7936 198.304 59.1167 198.304 54.5211ZM198.125 75.0003V65.9432L198.482 61.9723H198.125C196.876 64.8276 194.243 66.3892 190.674 66.3892C184.918 66.3892 180.635 61.7046 180.635 54.5211C180.635 47.3375 184.918 42.6529 190.674 42.6529C194.199 42.6529 196.698 44.3036 198.125 46.8915H198.482V43.099H203.212V75.0003H198.125Z" fill="#1A1A1A"/>
<path d="M206.989 56.8856V43.0988H212.076V56.4395C212.076 60.0534 213.816 61.7934 216.716 61.7934C220.285 61.7934 222.605 59.2503 222.605 55.2794V43.0988H227.692V65.943H222.962V61.2135H222.605C221.49 64.2475 219.036 66.389 215.243 66.389C209.8 66.389 206.989 62.909 206.989 56.8856Z" fill="#1A1A1A"/>
<path d="M245.384 56.7519V55.5473L240.253 55.9043C237.487 56.0827 236.237 57.109 236.237 59.1612C236.237 60.9015 237.665 62.1506 239.673 62.1506C243.287 62.1506 245.384 59.8304 245.384 56.7519ZM230.794 59.5627C230.794 55.2796 233.784 52.781 239.093 52.4685L245.384 52.067V50.2825C245.384 48.1409 243.822 46.847 241.056 46.847C238.513 46.847 236.996 48.1409 236.594 49.97H231.508C232.044 45.3298 235.881 42.6529 241.056 42.6529C246.901 42.6529 250.471 45.1515 250.471 49.97V65.9432H245.741V61.7046H245.384C244.313 64.5154 242.082 66.3892 237.799 66.3892C233.694 66.3892 230.794 63.623 230.794 59.5627Z" fill="#1A1A1A"/>
<path d="M254.256 65.9426V43.0984H258.986V47.4711H259.343C260.012 44.4817 262.287 43.0984 265.678 43.0984H267.998V47.694H265.098C261.797 47.694 259.343 49.8359 259.343 53.8961V65.9426H254.256Z" fill="#1A1A1A"/>
<path d="M286.415 51.9329C286.236 48.7651 283.604 46.6235 280.391 46.6235C277.357 46.6235 274.814 48.5419 274.189 51.9329H286.415ZM291.278 55.4577H273.922C274.189 59.6518 277.134 62.0165 280.391 62.0165C283.157 62.0165 284.898 60.9009 285.879 59.0271H290.921C289.538 63.6672 285.478 66.389 280.347 66.389C273.609 66.389 268.88 61.3473 268.88 54.5208C268.88 47.6943 273.743 42.6523 280.391 42.6523C287.084 42.6523 291.456 47.248 291.456 52.9592C291.456 54.0745 291.367 54.6546 291.278 55.4577Z" fill="#1A1A1A"/>
</svg>
