<svg width="90" height="90" viewBox="0 0 90 90" fill="none" xmlns="http://www.w3.org/2000/svg">
<path d="M70.4272 65.211C70.4272 67.5407 68.538 69.429 66.2101 69.429H23.7618C21.433 69.429 19.5446 67.5407 19.5446 65.211V22.7613C19.5446 20.4316 21.433 18.5433 23.7618 18.5433H66.2101C68.538 18.5433 70.4272 20.4316 70.4272 22.7613V65.211ZM71.6031 4H18.3626C10.9829 4 5 9.98154 5 17.3626V70.6013C5 77.9811 10.9829 83.9662 18.3626 83.9662H71.6031C78.9833 83.9662 84.9679 77.9811 84.9679 70.6013V17.3626C84.9679 9.98154 78.9833 4 71.6031 4Z" fill="#1A1A1A"/>
<path d="M36.5006 54.8352C35.1586 54.8352 34.0812 53.7464 34.0812 52.4035V35.4589C34.0812 34.1138 35.1586 33.025 36.5006 33.025H53.4707C54.8087 33.025 55.8904 34.1138 55.8904 35.4589V52.4035C55.8904 53.7464 54.8087 54.8352 53.4707 54.8352H36.5006Z" fill="#1A1A1A"/>
</svg>
