<svg width="364" height="100" viewBox="0 0 364 100" fill="none" xmlns="http://www.w3.org/2000/svg">
<path d="M115.726 40.2736C116.995 40.2414 118.248 40.4342 119.453 40.8359C120.401 41.1572 121.269 41.6875 121.992 42.3783C122.361 42.7479 122.57 43.2299 122.586 43.7601C122.619 44.2742 122.506 44.7884 122.233 45.2222C121.944 45.656 121.51 45.9773 121.012 46.1058C120.321 46.2504 119.598 46.138 119.004 45.7684C118.554 45.5274 118.088 45.3186 117.606 45.1579C117.011 44.9651 116.369 44.8687 115.742 44.8848C114.489 44.7884 113.284 45.2704 112.432 46.2022C111.645 47.2144 111.259 48.4837 111.324 49.753V52.8057C111.259 54.0911 111.645 55.3443 112.432 56.3565C113.268 57.2723 114.489 57.7704 115.742 57.674C116.417 57.674 117.076 57.6097 117.734 57.449C118.216 57.3366 118.698 57.1598 119.132 56.9188C119.63 56.6296 120.225 56.5171 120.803 56.5975C121.285 56.6778 121.735 56.9188 122.056 57.2723C122.361 57.6258 122.554 58.0756 122.602 58.5416C122.635 59.0878 122.474 59.6341 122.12 60.0518C121.462 60.8713 120.562 61.4497 119.566 61.7228C118.329 62.1084 117.027 62.3012 115.742 62.2851C114.28 62.3173 112.834 62.0763 111.468 61.5621C110.36 61.1283 109.347 60.4535 108.544 59.5698C107.789 58.7183 107.21 57.7222 106.873 56.6296C106.52 55.4728 106.327 54.2839 106.343 53.0788V49.5281H106.375C106.375 48.307 106.552 47.102 106.905 45.9612C107.243 44.8687 107.821 43.8725 108.576 43.021C109.38 42.1373 110.36 41.4465 111.468 41.0126C112.834 40.4985 114.28 40.2575 115.742 40.2896L115.726 40.2736Z" fill="#06283D"/>
<path d="M131.648 33.6863C132.05 34.0237 132.291 34.5379 132.307 35.0681V60.3091C132.307 60.8393 132.05 61.3374 131.648 61.6908C131.166 62.1246 130.524 62.3496 129.865 62.3014C129.19 62.3335 128.547 62.1086 128.017 61.6908C127.583 61.3695 127.326 60.8554 127.31 60.3091V35.0681C127.31 34.5218 127.583 34.0237 128.017 33.6863C128.451 33.3168 128.997 33.1079 129.576 33.0758H129.865C130.508 33.0437 131.15 33.2525 131.648 33.6863Z" fill="#06283D"/>
<path d="M143.377 40.8841C143.779 41.2215 144.019 41.7357 144.036 42.2659V60.3089C144.036 60.8391 143.779 61.3372 143.377 61.6907C142.895 62.1245 142.252 62.3494 141.593 62.3012C140.919 62.3333 140.276 62.1084 139.746 61.6907C139.312 61.3693 139.055 60.8552 139.039 60.3089V42.2659C139.039 41.7196 139.312 41.2215 139.746 40.8841C140.18 40.5146 140.726 40.3057 141.304 40.2736H141.593C142.236 40.2414 142.879 40.4503 143.377 40.8841ZM143.377 33.3006C143.779 33.638 144.019 34.136 144.036 34.6662V35.6785C144.036 36.2087 143.779 36.7067 143.377 37.0441C142.879 37.4779 142.252 37.6868 141.593 37.6547C140.919 37.6868 140.276 37.4779 139.746 37.0441C139.312 36.7228 139.055 36.2087 139.039 35.6785V34.6662C139.039 34.12 139.312 33.6219 139.746 33.3006C140.18 32.931 140.726 32.7222 141.304 32.69H141.593C142.236 32.6579 142.879 32.8668 143.377 33.3006Z" fill="#06283D"/>
<path d="M159.122 40.2896C160.392 40.2575 161.645 40.4503 162.85 40.852C163.798 41.1733 164.665 41.7035 165.388 42.3944C165.758 42.7639 165.967 43.2459 165.983 43.7761C166.015 44.2903 165.902 44.8044 165.629 45.2382C165.34 45.672 164.906 45.9934 164.408 46.1219C163.717 46.2665 162.994 46.154 162.4 45.7845C161.95 45.5435 161.484 45.3346 161.002 45.174C160.408 44.9812 159.765 44.8848 159.138 44.9008C157.885 44.8044 156.68 45.2864 155.829 46.2183C155.041 47.2305 154.656 48.4998 154.72 49.7691V52.8218C154.656 54.1071 155.041 55.3603 155.829 56.3725C156.664 57.2884 157.885 57.7864 159.138 57.69C159.813 57.69 160.472 57.6258 161.131 57.4651C161.613 57.3526 162.079 57.1759 162.528 56.9349C163.027 56.6457 163.621 56.5332 164.199 56.6135C164.681 56.6939 165.131 56.9349 165.453 57.2884C165.758 57.6418 165.951 58.0917 165.999 58.5576C166.047 59.1039 165.87 59.6341 165.533 60.0518C164.89 60.8552 163.991 61.4336 162.994 61.7067C161.757 62.0923 160.456 62.2851 159.17 62.2691C157.708 62.3012 156.262 62.0602 154.897 61.5461C153.788 61.1123 152.776 60.4375 151.973 59.5538C151.217 58.7022 150.639 57.7061 150.302 56.6135C149.948 55.4567 149.755 54.2678 149.771 53.0628V49.512L149.723 49.4799C149.723 48.2749 149.9 47.0698 150.253 45.9291C150.591 44.8366 151.169 43.8404 151.924 42.9889C152.728 42.1052 153.74 41.4304 154.849 40.9966C156.214 40.4824 157.66 40.2414 159.122 40.2736V40.2896Z" fill="#06283D"/>
<path d="M175.318 33.6862C175.719 34.0236 175.96 34.5377 175.976 35.0679V48.3231H177.92L184.058 40.868C184.508 40.4824 185.086 40.2736 185.665 40.3057C186.339 40.3057 186.966 40.5628 187.448 41.0448C187.898 41.5107 188.123 42.1695 188.01 42.8282C187.946 43.3905 187.689 43.9207 187.271 44.3063L181.809 50.3314L188.541 58.7504C188.878 59.1682 189.007 59.7144 188.878 60.2286C188.717 60.8873 188.3 61.4497 187.737 61.7871C187.223 62.1727 186.597 62.3333 185.954 62.253C185.424 62.2048 184.926 61.9477 184.572 61.53L177.824 52.6772H175.96V60.3089C175.96 60.8391 175.703 61.3372 175.302 61.6907C174.82 62.1245 174.177 62.3494 173.518 62.3012C172.843 62.3333 172.201 62.1084 171.67 61.6907C171.237 61.3693 170.98 60.8552 170.964 60.3089V35.0679C170.964 34.5216 171.237 34.0236 171.67 33.6862C172.104 33.3166 172.651 33.1078 173.229 33.0756H173.518C174.161 33.0435 174.803 33.2524 175.302 33.6862H175.318Z" fill="#06283D"/>
<path d="M212.865 32.2241C213.46 32.2241 214.054 32.2723 214.649 32.4009C215.179 32.4973 215.677 32.674 216.143 32.9311C216.545 33.156 216.898 33.4452 217.187 33.8147C217.444 34.1361 217.573 34.5538 217.573 34.9555C217.605 35.5018 217.428 36.0159 217.091 36.4336C216.705 36.8192 216.175 37.0281 215.629 36.9799C215.195 36.9799 214.761 36.9317 214.343 36.8032C213.861 36.6746 213.379 36.6264 212.881 36.6264C212.142 36.5461 211.403 36.771 210.809 37.2209C210.359 37.7993 210.134 38.5223 210.214 39.2614V40.7074H213.476C213.958 40.7074 214.408 40.9002 214.745 41.2376C215.115 41.5911 215.324 42.1052 215.291 42.6194C215.324 43.1656 215.115 43.6958 214.745 44.0814C214.408 44.4188 213.958 44.6117 213.476 44.6117H210.198V60.2768C210.198 60.807 209.941 61.3051 209.539 61.6586C209.074 62.0763 208.447 62.3012 207.82 62.2691C207.146 62.3173 206.471 62.0924 205.957 61.6586C205.539 61.3212 205.298 60.8231 205.282 60.2768V44.5956H203.804C203.322 44.5956 202.872 44.4028 202.534 44.0654C202.149 43.6798 201.956 43.1496 201.988 42.6033C201.972 42.0892 202.165 41.5911 202.534 41.2215C202.872 40.8841 203.322 40.6913 203.804 40.6913H205.282V39.4221C205.282 36.771 205.924 34.9073 207.21 33.8308C208.495 32.7543 210.375 32.2241 212.865 32.2241Z" fill="#06283D"/>
<path d="M223.792 40.9164C224.193 41.2538 224.434 41.7679 224.45 42.2981V53.1432C224.338 54.4125 224.804 55.6818 225.72 56.5815C226.603 57.3367 227.728 57.7223 228.901 57.6901C230.058 57.7383 231.182 57.3367 232.05 56.5815C232.95 55.6818 233.416 54.4286 233.303 53.1432V42.2981C233.303 41.7679 233.56 41.2538 233.978 40.9164C234.476 40.4986 235.103 40.2737 235.761 40.3058C236.404 40.2897 237.047 40.4986 237.545 40.9164C237.979 41.2377 238.252 41.7518 238.268 42.2981V52.9665C238.268 54.2197 238.075 55.4729 237.673 56.6779C236.918 58.9273 235.199 60.7268 232.982 61.5622C231.68 62.0603 230.283 62.3174 228.901 62.2852C227.503 62.3174 226.121 62.0764 224.82 61.5783C222.587 60.7428 220.851 58.9273 220.096 56.6618C219.695 55.4729 219.486 54.2197 219.502 52.9504V42.282C219.502 41.7358 219.775 41.2377 220.209 40.9003C220.643 40.5307 221.189 40.3219 221.767 40.2897H222.056C222.699 40.2576 223.342 40.4665 223.84 40.9003L223.792 40.9164Z" fill="#06283D"/>
<path d="M253.627 40.2254C255.009 40.1932 256.407 40.4182 257.708 40.852C258.801 41.2215 259.813 41.8321 260.648 42.6354C261.452 43.4227 262.062 44.3867 262.432 45.4471C262.833 46.62 263.042 47.8571 263.026 49.0943V60.2929C263.026 60.8391 262.737 61.3533 262.303 61.6746C261.805 62.0923 261.179 62.3012 260.52 62.2851C259.877 62.3173 259.234 62.0923 258.736 61.6746C258.319 61.3372 258.078 60.8391 258.062 60.2929V49.4156C258.174 48.1463 257.708 46.8931 256.808 45.9773C255.925 45.2222 254.8 44.8366 253.659 44.8687C252.502 44.8366 251.378 45.2222 250.478 45.9773C249.562 46.877 249.096 48.1303 249.209 49.4156V60.2929C249.209 60.8231 248.952 61.3211 248.55 61.6746C248.068 62.1084 247.425 62.3333 246.767 62.2851C246.092 62.3173 245.449 62.0923 244.919 61.6746C244.485 61.3533 244.228 60.8391 244.212 60.2929V49.5763C244.212 48.3231 244.405 47.0698 244.807 45.8648C245.562 43.5994 247.297 41.7839 249.53 40.9484C250.832 40.4503 252.197 40.1932 253.595 40.2093L253.627 40.2254Z" fill="#06283D"/>
<path d="M278.355 40.2253C279.736 40.1931 281.134 40.4181 282.436 40.8519C283.528 41.2214 284.54 41.832 285.376 42.6353C286.179 43.4226 286.79 44.3866 287.159 45.447C287.561 46.6199 287.77 47.857 287.754 49.0942V60.2928C287.754 60.839 287.465 61.3532 287.031 61.6745C286.533 62.0923 285.906 62.3011 285.247 62.2851C284.605 62.3172 283.962 62.0923 283.464 61.6745C283.046 61.3371 282.805 60.839 282.789 60.2928V49.4155C282.902 48.1462 282.436 46.893 281.536 45.9772C280.652 45.2221 279.528 44.8365 278.387 44.8686C277.23 44.8365 276.105 45.2221 275.206 45.9772C274.29 46.877 273.824 48.1302 273.936 49.4155V60.2928C273.936 60.823 273.679 61.321 273.278 61.6745C272.796 62.1083 272.153 62.3333 271.494 62.2851C270.819 62.3172 270.177 62.0923 269.646 61.6745C269.213 61.3532 268.956 60.839 268.94 60.2928V49.5762C268.94 48.323 269.132 47.0698 269.534 45.8647C270.289 43.5993 272.024 41.7838 274.258 40.9483C275.559 40.4502 276.925 40.1932 278.323 40.2092L278.355 40.2253Z" fill="#06283D"/>
<path d="M306.374 41.0609C308.447 41.9767 310.022 43.7279 310.745 45.8648C311.066 46.8288 311.227 47.8411 311.227 48.8693C311.323 49.8655 311.05 50.8616 310.455 51.665C309.748 52.2755 308.833 52.5647 307.917 52.4683H297.875V53.5608C297.827 54.7819 298.277 55.9548 299.128 56.8224C300.092 57.69 301.378 58.1399 302.679 58.0435C303.386 58.0435 304.077 57.9953 304.784 57.8989C305.298 57.8346 305.812 57.7061 306.278 57.4972L307.419 56.9027C307.724 56.726 308.078 56.6296 308.431 56.6135C308.929 56.5814 309.395 56.7742 309.748 57.1277C310.07 57.4972 310.247 57.9632 310.263 58.4452C310.23 58.9593 310.022 59.4413 309.668 59.7948C309.202 60.2929 308.656 60.7106 308.061 61.0159C307.306 61.4015 306.503 61.7067 305.667 61.8995C304.703 62.1405 303.723 62.2691 302.727 62.253C301.378 62.2691 300.044 62.0441 298.791 61.5782C297.666 61.1765 296.638 60.566 295.722 59.7948C294.855 59.0557 294.164 58.1399 293.666 57.1116C293.184 56.0833 292.943 54.9587 292.943 53.834V49.3353C292.943 46.9413 293.907 44.6277 295.61 42.9407C296.445 42.1052 297.441 41.4465 298.534 40.9966C299.707 40.5146 300.976 40.2575 302.261 40.2736C303.675 40.2414 305.073 40.4985 306.374 41.0609ZM299.16 45.5596C298.373 46.4432 297.923 47.584 297.875 48.7569H306.519V48.1463C306.567 47.0859 306.117 46.0737 305.314 45.3989C304.43 44.692 303.322 44.3385 302.197 44.3867C301.056 44.3224 299.964 44.7562 299.16 45.5756V45.5596Z" fill="#06283D"/>
<path d="M321.172 33.6862C321.574 34.0236 321.815 34.5377 321.831 35.0679V60.3089C321.831 60.8391 321.574 61.3372 321.172 61.6907C320.69 62.1245 320.047 62.3494 319.389 62.3012C318.714 62.3333 318.071 62.1084 317.541 61.6907C317.107 61.3693 316.85 60.8552 316.834 60.3089V35.0679C316.834 34.5216 317.107 34.0236 317.541 33.6862C317.975 33.3166 318.521 33.1078 319.099 33.0756H319.389C320.031 33.0435 320.674 33.2524 321.172 33.6862Z" fill="#06283D"/>
<path d="M335.728 40.2254C336.676 40.2254 337.608 40.3057 338.524 40.4985C339.199 40.6431 339.874 40.868 340.5 41.1572C340.95 41.3661 341.368 41.6393 341.721 41.9767C341.978 42.2177 342.187 42.4908 342.332 42.7961C342.541 43.2299 342.605 43.7279 342.541 44.2099C342.525 44.692 342.284 45.1418 341.882 45.415C341.432 45.7524 340.87 45.8809 340.324 45.7684C339.858 45.656 339.424 45.4632 339.006 45.2382C338.781 45.1258 338.428 44.9651 337.93 44.7562C337.223 44.5152 336.468 44.4028 335.712 44.4349C334.973 44.3867 334.234 44.6116 333.656 45.0936C333.206 45.5114 332.949 46.1058 332.949 46.7164C332.949 47.2466 333.222 47.7286 333.688 47.9696C334.283 48.307 334.909 48.5801 335.552 48.7729L337.994 49.5441C338.862 49.8012 339.681 50.1868 340.436 50.6849C342.171 51.8096 343.167 53.7697 343.039 55.8263C343.119 57.6258 342.348 59.361 340.966 60.5339C339.344 61.7871 337.335 62.4137 335.295 62.3173C334.443 62.3173 333.576 62.2369 332.74 62.0923C331.953 61.9477 331.198 61.7228 330.459 61.4336C329.832 61.1765 329.238 60.8552 328.675 60.4535C328.209 60.1322 327.808 59.7144 327.518 59.2324C327.422 59.0396 327.374 58.8147 327.342 58.6058C327.309 58.3488 327.342 58.0917 327.406 57.8346C327.47 57.5776 327.599 57.3366 327.743 57.1116C327.904 56.8867 328.129 56.7099 328.402 56.5975C328.723 56.4368 329.077 56.3565 329.446 56.3404C329.72 56.3404 329.977 56.3886 330.234 56.485C330.459 56.5814 330.667 56.7099 330.86 56.8706L331.455 57.3205C332.612 58.0114 333.961 58.3327 335.311 58.2042C336.082 58.2363 336.837 58.0274 337.496 57.6097C338.01 57.2562 338.315 56.6939 338.315 56.0673C338.315 55.4567 338.042 54.8623 337.544 54.4927C336.95 54.075 336.307 53.7537 335.616 53.5287C334.845 53.2556 334.009 52.9985 333.126 52.7254C332.258 52.4683 331.407 52.0988 330.635 51.6168C329.88 51.1669 329.221 50.5564 328.707 49.8333C328.161 48.9497 327.888 47.9053 327.936 46.861C327.872 45.0294 328.627 43.262 330.009 42.057C331.615 40.7395 333.656 40.0808 335.728 40.1932V40.2254Z" fill="#06283D"/>
<path d="M39.1199 35.1804C38.9431 36.0962 39.152 37.0281 39.7143 37.7672C40.0839 38.2492 40.5659 38.6508 41.1121 38.8919C41.7548 39.1168 42.4618 39.0847 43.0884 38.8437C43.715 38.6348 44.4058 38.6669 45.0003 38.9561C45.5948 39.2453 46.0446 39.7595 46.2696 40.3861C46.8641 41.6232 46.382 43.1014 45.177 43.744C44.3576 44.1618 43.7792 44.933 43.6346 45.8488C43.5543 46.2505 43.5543 46.6682 43.6346 47.0699C43.9078 48.4516 45.0967 49.4638 46.5106 49.496C47.9084 49.4799 49.0813 50.5885 49.0973 52.0024C49.1134 53.4002 48.0048 54.5731 46.5909 54.5891C45.1931 54.6213 44.0042 55.6496 43.7953 57.0474C43.5543 58.3649 44.2452 59.6823 45.4823 60.2447C46.7516 60.7588 47.3621 62.1888 46.8801 63.4741C46.6873 64.0846 46.2535 64.5988 45.6751 64.888C45.0967 65.1772 44.438 65.2254 43.8274 65.0165C42.4778 64.647 41.0479 65.2093 40.3249 66.4143C39.5055 67.539 39.5697 69.0654 40.4695 70.1258H27.2786C33.8339 66.8963 38.2844 60.1161 38.1398 51.6971C38.0112 43.9368 32.8538 38.0885 27.4393 35.1804H39.1199Z" fill="#2A9DDD"/>
<path d="M76.523 24.5601C78.4189 24.5601 79.9452 26.1025 79.9452 27.9823V71.1378C79.9452 73.0337 78.4028 74.5601 76.523 74.5601H23.4222C21.5263 74.5601 20 73.0176 20 71.1378V27.9823C20 26.1025 21.5424 24.5601 23.4222 24.5601H76.523ZM75.5429 35.1802H24.3702V70.1256H75.5429V35.1802ZM73.2775 27.8538C72.0725 27.8538 71.0924 28.8338 71.0924 30.0389C71.0924 31.2439 72.0725 32.2239 73.2775 32.2239C74.4825 32.2239 75.4626 31.2439 75.4626 30.0389C75.4626 28.8338 74.4825 27.8538 73.2775 27.8538ZM65.469 27.8538C64.8906 27.8538 64.3283 28.0787 63.9266 28.4964C63.5249 28.9142 63.2839 29.4604 63.2839 30.0389C63.2839 31.2439 64.264 32.2239 65.469 32.2239C66.674 32.2239 67.6541 31.2439 67.6541 30.0389C67.6541 28.8338 66.674 27.8538 65.469 27.8538ZM57.6606 27.8538C56.4556 27.8538 55.4755 28.8338 55.4755 30.0389C55.4755 31.2439 56.4556 32.2239 57.6606 32.2239C58.8656 32.2239 59.8456 31.2439 59.8456 30.0389C59.8456 28.8338 58.8656 27.8538 57.6606 27.8538Z" fill="#06283D"/>
<path d="M72.1683 35.1806C64.7776 38.9724 60.3753 47.1182 61.9659 56.437C63.0906 63.0244 67.7018 67.6517 72.6664 70.1099H57.0655C56.4871 69.8207 56.0051 69.3869 55.6677 68.8406C54.8805 67.7159 55.1215 66.1574 56.2301 65.338C56.9852 64.8078 57.4351 63.9242 57.4351 63.0083C57.4351 62.5906 57.3869 62.1889 57.2584 61.8033C56.7763 60.4859 55.4428 59.6664 54.045 59.8432C52.6632 60.0842 51.3458 59.1523 51.1048 57.7706C50.8638 56.3888 51.7956 55.0713 53.1774 54.8303C54.5109 54.5572 55.491 53.4004 55.5071 52.0186C55.5392 50.669 54.6555 49.4801 53.3541 49.1105C52.0366 48.7731 51.2172 47.4556 51.5064 46.1382C51.6028 45.4955 51.9563 44.9171 52.4865 44.5476C53.0167 44.178 53.6755 44.0334 54.3181 44.1459C55.7159 44.3065 57.0495 43.5353 57.5797 42.2339C58.2384 40.9807 57.9332 39.4544 56.8406 38.5546C55.7802 37.7513 55.5392 36.2731 56.2783 35.1806H72.1844H72.1683Z" fill="#E64E39"/>
<path d="M82.5817 67.1209C90.5766 67.1209 97.0578 60.6397 97.0578 52.6447C97.0578 44.6497 90.5766 38.1685 82.5817 38.1685C74.5867 38.1685 68.1055 44.6497 68.1055 52.6447C68.1055 60.6397 74.5867 67.1209 82.5817 67.1209Z" fill="#E64E39"/>
<path d="M75.8974 50.5726V49.4479C75.8974 47.9376 76.7168 47.2949 78.2592 47.2949H78.2913C79.8337 47.2949 80.6531 47.9376 80.6531 49.4479V50.8136C80.6531 52.0025 79.7695 52.613 78.7412 53.5289C77.7933 54.3643 77.2309 54.9106 77.2309 55.6175V56.694H80.1551C80.4764 56.694 80.6531 56.8547 80.6531 57.1921V57.3849C80.6531 57.6902 80.4925 57.883 80.1551 57.883H76.3633C76.042 57.883 75.8652 57.7062 75.8652 57.3849V55.5854C75.8652 54.2519 76.8774 53.4325 77.97 52.4845C78.8537 51.7294 79.2875 51.3598 79.2875 50.7332V49.6246C79.2875 48.7731 78.9019 48.4678 78.2431 48.4678C77.5844 48.4678 77.247 48.7731 77.247 49.6246V50.5726C77.247 50.8939 77.0702 51.0706 76.7328 51.0706H76.3954C76.0741 51.0706 75.8974 50.8939 75.8974 50.5726Z" fill="white"/>
<path d="M83.0623 56.7256V57.3844C83.0623 57.6896 82.9016 57.8824 82.5642 57.8824H82.1465C81.8252 57.8824 81.6484 57.7057 81.6484 57.3844V56.7256C81.6484 56.4043 81.8252 56.2275 82.1465 56.2275H82.5642C82.8856 56.2275 83.0623 56.4043 83.0623 56.7256Z" fill="white"/>
<path d="M89.2958 49.5121V55.7782C89.2958 57.3206 88.396 57.9954 86.8858 57.9954H86.7733C85.247 57.9954 84.3633 57.3206 84.3633 55.7782V49.5121C84.3633 47.9697 85.263 47.2949 86.7733 47.2949H86.8858C88.4121 47.2949 89.2958 47.9697 89.2958 49.5121ZM86.8215 48.5481C86.0824 48.5481 85.6968 48.8695 85.6968 49.7853V55.5211C85.6968 56.453 86.0824 56.7583 86.8215 56.7583C87.5606 56.7583 87.9462 56.437 87.9462 55.5211V49.7853C87.9462 48.8534 87.5606 48.5481 86.8215 48.5481Z" fill="white"/>
</svg>
