<svg width="90" height="90" viewBox="0 0 90 90" fill="none" xmlns="http://www.w3.org/2000/svg">
<path d="M30.516 26.1731C30.2802 27.3953 30.5589 28.6389 31.3094 29.6252C31.8025 30.2685 32.4458 30.8045 33.1748 31.1262C34.0325 31.4264 34.976 31.3835 35.8122 31.0618C36.6484 30.7831 37.5704 30.826 38.3638 31.2119C39.1572 31.5979 39.7575 32.284 40.0577 33.1203C40.8511 34.7713 40.2078 36.744 38.5997 37.6017C37.5061 38.1591 36.7342 39.1884 36.5412 40.4106C36.434 40.9466 36.434 41.5041 36.5412 42.0401C36.9057 43.8842 38.4924 45.235 40.3793 45.2779C42.2448 45.2564 43.8101 46.7359 43.8315 48.6228C43.8529 50.4883 42.3734 52.0536 40.4865 52.075C38.6211 52.1179 37.0344 53.4902 36.7556 55.3556C36.434 57.1139 37.356 58.8721 39.0071 59.6226C40.701 60.3087 41.5158 62.2171 40.8725 63.9324C40.6152 64.7472 40.0363 65.4334 39.2644 65.8193C38.4924 66.2053 37.6133 66.2696 36.7985 65.9909C34.9974 65.4977 33.0891 66.2481 32.1242 67.8563C31.0306 69.3572 31.1164 71.3942 32.3172 72.8094H14.7133C23.4616 68.4996 29.401 59.451 29.2081 48.2154C29.0365 37.859 22.1537 30.0541 14.9277 26.1731H30.516Z" fill="#2A9DDD"/>
<path d="M80.4329 12C82.963 12 85 14.0584 85 16.5671V74.1603C85 76.6905 82.9416 78.7275 80.4329 78.7275H9.56714C7.03699 78.7275 5 76.6691 5 74.1603V16.5671C5 14.0584 7.05843 12 9.56714 12H80.4329ZM79.1249 26.1732H10.8322V72.8095H79.1249V26.1732ZM76.1016 16.3956C74.4934 16.3956 73.1855 17.7036 73.1855 19.3117C73.1855 20.9199 74.4934 22.2278 76.1016 22.2278C77.7097 22.2278 79.0177 20.9199 79.0177 19.3117C79.0177 17.7036 77.7097 16.3956 76.1016 16.3956ZM65.6808 16.3956C64.9089 16.3956 64.1584 16.6958 63.6224 17.2533C63.0863 17.8108 62.7647 18.5398 62.7647 19.3117C62.7647 20.9199 64.0726 22.2278 65.6808 22.2278C67.2889 22.2278 68.5969 20.9199 68.5969 19.3117C68.5969 17.7036 67.2889 16.3956 65.6808 16.3956ZM55.26 16.3956C53.6518 16.3956 52.3439 17.7036 52.3439 19.3117C52.3439 20.9199 53.6518 22.2278 55.26 22.2278C56.8681 22.2278 58.1761 20.9199 58.1761 19.3117C58.1761 17.7036 56.8681 16.3956 55.26 16.3956Z" fill="#06283D"/>
<path d="M74.6208 26.1737C64.7575 31.234 58.8824 42.1051 61.0052 54.5415C62.5061 63.3327 68.66 69.508 75.2855 72.7886H54.4654C53.6935 72.4027 53.0502 71.8237 52.5999 71.0947C51.5493 69.5938 51.8709 67.5139 53.3504 66.4203C54.3582 65.7128 54.9585 64.5335 54.9585 63.3113C54.9585 62.7538 54.8942 62.2177 54.7227 61.7031C54.0794 59.9449 52.2997 58.8513 50.4343 59.0872C48.5903 59.4088 46.832 58.1652 46.5104 56.3212C46.1888 54.4772 47.4324 52.7189 49.2764 52.3973C51.0561 52.0328 52.3641 50.4889 52.3855 48.6449C52.4284 46.8438 51.2491 45.2571 49.5123 44.7639C47.754 44.3137 46.6605 42.5554 47.0465 40.7972C47.1751 39.9395 47.6468 39.1676 48.3544 38.6744C49.062 38.1812 49.9411 37.9883 50.7988 38.1384C52.6643 38.3528 54.4439 37.3236 55.1515 35.5868C56.0306 33.9143 55.6232 31.8773 54.1652 30.6765C52.75 29.6044 52.4284 27.6318 53.4147 26.1737H74.6423H74.6208Z" fill="#E64E39"/>
</svg>
