<svg width="120" height="119" viewBox="0 0 120 119" fill="none" xmlns="http://www.w3.org/2000/svg">
<g filter="url(#filter0_d_874_3986)">
<path d="M80.8 13H39.2C28.5961 13 20 21.5961 20 32.2V73.8C20 84.4039 28.5961 93 39.2 93H80.8C91.4039 93 100 84.4039 100 73.8V32.2C100 21.5961 91.4039 13 80.8 13Z" fill="white"/>
<path fill-rule="evenodd" clip-rule="evenodd" d="M36.5664 67.8575L45.2182 61.2305C49.8127 67.229 54.6918 69.9932 60.1286 69.9932C65.5354 69.9932 70.2804 67.2604 74.6689 61.3098L83.4401 67.7781C77.1124 76.358 69.2404 80.8911 60.1286 80.8911C51.047 80.8911 43.102 76.39 36.5664 67.8575Z" fill="url(#paint0_linear_874_3986)"/>
<path fill-rule="evenodd" clip-rule="evenodd" d="M60.0988 39.053L44.6999 52.322L37.5859 44.066L60.1294 24.6406L82.4975 44.0812L75.3487 52.3069L60.0988 39.053Z" fill="url(#paint1_linear_874_3986)"/>
</g>
<defs>
<filter id="filter0_d_874_3986" x="0.800001" y="0.200001" width="118.4" height="118.4" filterUnits="userSpaceOnUse" color-interpolation-filters="sRGB">
<feFlood flood-opacity="0" result="BackgroundImageFix"/>
<feColorMatrix in="SourceAlpha" type="matrix" values="0 0 0 0 0 0 0 0 0 0 0 0 0 0 0 0 0 0 127 0" result="hardAlpha"/>
<feOffset dy="6.4"/>
<feGaussianBlur stdDeviation="9.6"/>
<feColorMatrix type="matrix" values="0 0 0 0 0.0627451 0 0 0 0 0.117647 0 0 0 0 0.211765 0 0 0 0.1 0"/>
<feBlend mode="normal" in2="BackgroundImageFix" result="effect1_dropShadow_874_3986"/>
<feBlend mode="normal" in="SourceGraphic" in2="effect1_dropShadow_874_3986" result="shape"/>
</filter>
<linearGradient id="paint0_linear_874_3986" x1="36.5664" y1="74.6012" x2="83.4401" y2="74.6012" gradientUnits="userSpaceOnUse">
<stop stop-color="#8930FD"/>
<stop offset="1" stop-color="#49CCF9"/>
</linearGradient>
<linearGradient id="paint1_linear_874_3986" x1="37.5859" y1="43.4656" x2="82.4975" y2="43.4656" gradientUnits="userSpaceOnUse">
<stop stop-color="#FF02F0"/>
<stop offset="1" stop-color="#FFC800"/>
</linearGradient>
</defs>
</svg>
