<svg width="300" height="100" viewBox="0 0 300 100" fill="none" xmlns="http://www.w3.org/2000/svg">
<path fill-rule="evenodd" clip-rule="evenodd" d="M47 61.9818L54.404 56.3105C58.3357 61.4438 62.5111 63.8094 67.1638 63.8094C71.7907 63.8094 75.8513 61.4711 79.6069 56.3784L87.1129 61.9139C81.6981 69.2565 74.9613 73.1358 67.1638 73.1358C59.3921 73.1358 52.5929 69.2838 47 61.9818Z" fill="url(#paint0_linear_874_3991)"/>
<path fill-rule="evenodd" clip-rule="evenodd" d="M67.1369 37.3338L53.959 48.6892L47.8711 41.6239L67.1631 25L86.3052 41.6369L80.1873 48.6762L67.1369 37.3338Z" fill="url(#paint1_linear_874_3991)"/>
<path d="M137.652 34.5859H130.191V65.674H137.652V34.5859Z" fill="#000008"/>
<path fill-rule="evenodd" clip-rule="evenodd" d="M115.112 65.8108C110.714 65.8108 107.049 64.3854 104.076 61.5346C101.103 58.6431 99.6367 54.9371 99.6367 50.4166C99.6367 45.8553 101.144 42.1086 104.116 39.1764C107.13 36.2034 110.795 34.7373 115.153 34.7373C120.528 34.7373 125.293 37.0586 128.063 40.6832L123.216 45.7739C120.895 43.2896 118.37 42.0272 115.642 42.0272C113.32 42.0272 111.406 42.8009 109.818 44.3892C108.27 45.9775 107.497 47.9731 107.497 50.3759C107.497 52.6972 108.27 54.652 109.818 56.2403C111.406 57.7879 113.32 58.5617 115.601 58.5617C118.574 58.5617 121.18 57.2584 123.338 54.6928L128.389 59.5391C127.004 61.3717 125.13 62.8785 122.809 64.0596C120.488 65.2407 117.922 65.8108 115.112 65.8108Z" fill="#000008"/>
<path fill-rule="evenodd" clip-rule="evenodd" d="M148.84 37.0737C148.84 39.3057 147.032 41.1152 144.799 41.1152C142.567 41.1152 140.758 39.3057 140.758 37.0737C140.758 34.8416 142.567 33.0322 144.799 33.0322C147.032 33.0322 148.84 34.8416 148.84 37.0737ZM148.53 42.9804H141.069V65.6747H148.53V42.9804Z" fill="#000008"/>
<path fill-rule="evenodd" clip-rule="evenodd" d="M162.952 65.8517C159.409 65.8517 156.558 64.7522 154.319 62.553C152.12 60.3538 151.02 57.5438 151.02 54.0821C151.02 50.6205 152.12 47.8104 154.359 45.6113C156.599 43.4121 159.491 42.3125 163.074 42.3125C167.758 42.3125 171.871 44.5931 173.785 48.8693L168.043 51.8829C166.902 49.9689 165.315 48.9914 163.237 48.9914C161.731 48.9914 160.509 49.4802 159.531 50.4575C158.595 51.435 158.106 52.6567 158.106 54.0821C158.106 57.055 160.264 59.2542 163.156 59.2542C165.233 59.2542 167.147 58.1139 167.961 56.3627L173.704 59.7837C171.749 63.5304 167.717 65.8517 162.952 65.8517Z" fill="#000008"/>
<path fill-rule="evenodd" clip-rule="evenodd" d="M183.039 34.5859H175.578V65.674H183.039V57.7598L183.913 56.9445L190.733 65.674H199.413L188.934 52.2622L198.888 42.9796H189.772L183.039 49.2583V34.5859Z" fill="#000008"/>
<path fill-rule="evenodd" clip-rule="evenodd" d="M200.762 53.9264V34.5859H208.534V53.4934C208.534 56.8736 210.504 58.5026 213.353 58.5026C216.16 58.5026 218.171 56.7921 218.171 53.4934V34.5859H225.943V53.9264C225.943 62.8045 219.71 66.144 213.353 66.144C207.036 66.144 200.762 62.8045 200.762 53.9264Z" fill="#000008"/>
<path fill-rule="evenodd" clip-rule="evenodd" d="M242.729 66.2949C248.738 66.2949 253.61 61.0059 253.61 54.4814C253.61 47.957 248.738 42.668 242.729 42.668C240.28 42.668 238.02 43.5467 236.201 45.0297V42.9789H229.051V74.9996H236.201V63.9332C238.02 65.4161 240.28 66.2949 242.729 66.2949ZM236.201 54.4935V54.4693C236.207 51.556 238.501 49.1964 241.33 49.1964C244.164 49.1964 246.46 51.5626 246.46 54.4814C246.46 57.4002 244.164 59.7664 241.33 59.7664C238.501 59.7664 236.207 57.4068 236.201 54.4935Z" fill="#000008"/>
<defs>
<linearGradient id="paint0_linear_874_3991" x1="47" y1="67.753" x2="87.1129" y2="67.753" gradientUnits="userSpaceOnUse">
<stop stop-color="#8930FD"/>
<stop offset="1" stop-color="#49CCF9"/>
</linearGradient>
<linearGradient id="paint1_linear_874_3991" x1="47.8711" y1="41.11" x2="86.3052" y2="41.11" gradientUnits="userSpaceOnUse">
<stop stop-color="#FF02F0"/>
<stop offset="1" stop-color="#FFC800"/>
</linearGradient>
</defs>
</svg>
