<svg width="100" height="100" viewBox="0 0 100 100" fill="none" xmlns="http://www.w3.org/2000/svg">
<g clip-path="url(#clip0_1503_2803)">
<path d="M80.2812 46.8486C79.946 46.8486 79.6153 46.8608 79.2847 46.8715C79.2311 46.8744 79.1785 46.8867 79.1292 46.9081C78.9515 46.9685 78.8162 47.1147 78.7696 47.2966L77.3526 52.2465C76.7416 54.3749 76.9686 56.3403 77.9956 57.7831C78.9373 59.1177 80.5037 59.9008 82.4053 59.9922L90.0926 60.4584C90.3211 60.4706 90.5192 60.5803 90.6396 60.7616C90.7673 60.9578 90.7961 61.2024 90.7173 61.4228C90.5909 61.7839 90.2649 62.0377 89.8838 62.0718L81.8964 62.538C77.5567 62.7391 72.888 66.2798 71.25 70.5976L70.674 72.1211C70.6237 72.2492 70.6384 72.3938 70.7133 72.5092C70.7883 72.6247 70.9144 72.6969 71.0519 72.7031H98.5615C98.8902 72.7044 99.1795 72.4863 99.2685 72.1698C99.7571 70.4138 100.003 68.5992 100 66.7765C100 55.7766 91.179 46.8608 80.2934 46.8608" fill="#FBAD41"/>
<path d="M68.2742 72.0632L68.7831 70.2731C69.3956 68.1447 69.1686 66.1793 68.1431 64.7365C67.1984 63.4019 65.6335 62.6188 63.7304 62.5274L27.6711 62.0612C27.4436 62.0571 27.2318 61.9444 27.1012 61.758C26.973 61.5621 26.9437 61.3175 27.022 61.0968C27.1495 60.7333 27.4791 60.479 27.8631 60.4478L64.2591 59.9816C68.5804 59.782 73.2492 56.2398 74.8872 51.922L76.9625 46.4373C77.0461 46.2048 77.0681 45.9539 77.0235 45.7106C74.6586 35.0123 65.1993 27 53.8901 27C43.4647 27 34.6193 33.798 31.4454 43.2485C29.3085 41.6237 26.6322 40.8751 23.9623 41.1552C18.9645 41.658 14.9418 45.7289 14.445 50.7809C14.3164 52.0427 14.4092 53.3173 14.7193 54.5471C6.55208 54.7909 0 61.5523 0 69.8617C0 70.6128 0.0533309 71.3533 0.161516 72.0754C0.206066 72.4259 0.504538 72.6884 0.857865 72.6879H67.4514C67.8365 72.6815 68.1715 72.4223 68.2742 72.051" fill="#F6821F"/>
</g>
<defs>
<clipPath id="clip0_1503_2803">
<rect width="100" height="45.7031" fill="white" transform="translate(0 27)"/>
</clipPath>
</defs>
</svg>
