<svg width="100" height="100" viewBox="0 0 100 100" fill="none" xmlns="http://www.w3.org/2000/svg">
<path d="M25.2983 42.0588C26.6046 46.3903 28.1859 50.4532 29.9048 54.3722C32.8612 61.3915 34.855 65.1043 37.6114 69.7109C40.9804 75.2113 44.6993 81.4743 50.8184 85.5309C55.2873 88.4874 60.7251 90 65.9504 90C73.3133 90 79.6386 86.7685 83.7013 82.9807C87.689 79.2679 92.8518 72.1111 92.8518 58.1475C92.8518 53.3346 94.9832 49.2031 96.5645 45.9028C96.5645 45.834 96.6333 45.6965 96.7708 45.4215C97.3895 44.0464 98.1458 42.2588 98.1458 40.4711C98.1458 39.1648 97.8021 37.6522 96.9083 36.3458C95.5332 34.0081 93.0581 33.1831 90.7829 33.1831C85.4889 33.1831 81.8387 36.8959 79.9824 40.6836L79.3636 41.9212C78.6073 40.8212 77.851 39.6523 77.2322 38.621C75.3071 35.252 74.2071 32.983 73.2445 30.0891C72.4882 27.8201 71.8695 25.2074 71.4569 23.0698C70.2881 16.3255 68.363 14.1253 65.1941 13.3003C62.8565 12.6815 60.1063 13.1627 58.1062 14.4691C56.7374 11.3751 54.3998 10 51.2996 10C46.8994 10 42.9055 12.8877 42.9055 17.7756C42.9055 18.3944 42.9742 19.0132 43.043 19.7695C42.4929 19.632 41.8741 19.5632 41.2554 19.5632C36.5114 19.5632 32.9987 22.8635 32.9987 27.3389C32.9987 28.3702 33.1362 29.539 33.48 30.9141C33.0674 30.8454 32.6549 30.8454 32.2424 30.8454C29.9048 30.9829 27.7734 31.8767 26.2546 33.7331C24.7482 35.5207 24.1295 38.271 25.2983 42.0588Z" fill="#1F1F1A"/>
<path d="M29.2158 40.8219C28.597 38.828 28.6658 37.3154 29.4221 36.3528C30.1784 35.459 31.2097 35.0465 32.4472 34.9777C34.5786 34.909 35.4036 36.4216 36.6412 40.3406C37.3975 42.8158 38.9101 46.3974 39.8039 48.3913C40.9727 50.7977 42.6228 54.0292 43.379 55.1355C43.9978 56.0981 44.5479 56.3731 45.1666 56.3731C46.2667 56.3731 47.0917 55.7543 47.0917 54.6543C47.0917 54.0355 46.473 53.0041 46.1292 52.3853C45.5104 51.2165 44.2041 48.8788 43.3103 46.8849C42.3477 44.6847 41.2477 41.9345 40.3539 39.4531C39.8039 38.0092 39.1851 35.9465 38.5663 33.8839C37.6037 30.7211 37.1225 28.796 37.1225 27.3459C37.1225 25.1457 38.7726 23.7018 41.2477 23.7018C43.0353 23.7018 44.2041 24.5957 44.9604 27.8272C45.5792 30.7836 46.6792 35.6028 48.2605 39.3843C49.2919 41.8595 50.8044 45.166 51.6982 46.8161C52.2483 47.7787 52.867 48.6038 52.867 48.9476C52.867 49.4288 51.9732 50.1852 51.217 51.2165C50.7357 51.8353 50.5294 52.2478 50.5294 52.7291C50.5294 53.1416 50.8044 53.5542 51.217 54.1042C51.6295 54.6542 52.042 55.2043 52.5233 55.2043C52.867 55.2043 53.0733 55.0668 53.2796 54.7918C55.4109 52.1103 57.7485 50.2539 60.4362 48.735C63.5988 46.9474 66.8365 46.0536 69.3804 45.5035C70.618 45.2285 70.9617 44.9535 70.9617 44.2659C70.9617 43.4409 70.343 42.9596 69.5179 42.8908C68.8991 42.8221 68.3491 42.8908 67.3865 42.9596C66.699 43.0283 66.3552 42.6846 65.9427 41.7907C64.7052 39.178 62.2988 34.7714 60.855 29.1335C60.2362 26.7271 59.6861 24.1831 59.3424 20.8766C59.1361 19.364 59.4111 18.8139 60.1674 18.1264C61.13 17.3013 62.8488 16.9576 64.1551 17.3013C65.7365 17.7139 66.5615 18.9515 67.3865 23.7706C67.7991 26.0395 68.4866 28.9272 69.3116 31.4087C70.343 34.5714 71.6493 37.1904 73.6431 40.6969C74.7432 42.6221 76.1183 44.616 77.5621 46.5474C77.2871 47.3724 76.8058 47.9225 75.2245 49.2288C73.6431 50.5352 72.0618 51.9103 70.618 54.4542C69.5867 56.3106 69.1054 58.3733 69.1054 59.7484C69.1054 61.0547 69.3804 61.3298 70.2054 61.3298C71.6493 61.3298 72.8181 61.0548 72.8868 60.436C73.2306 57.9608 73.6431 56.3794 75.0182 54.5167C75.8432 53.4854 77.2871 52.1791 78.4559 51.1477C80.656 49.3601 81.4123 48.3288 82.1686 45.7848C82.5123 44.616 82.9249 43.5159 83.4749 42.4845C84.7812 40.0781 87.1188 37.3279 90.769 37.3279C91.9378 37.3279 92.9004 37.6717 93.5192 38.6342C93.8629 39.1843 94.0004 39.9406 94.0004 40.4906C94.0004 41.7282 93.1066 43.4471 92.6941 44.2722C91.1815 47.5037 88.7064 52.4603 88.7064 58.167C88.7064 70.618 84.3062 76.8122 80.8622 79.975C77.4933 83.1377 72.193 85.8942 65.9365 85.8942C61.4675 85.8942 56.8547 84.5878 53.0733 82.1127C47.7793 78.6061 44.4728 73.0994 41.1039 67.599C38.4225 63.1299 36.5662 59.6171 33.6723 52.8104C32.041 48.8663 30.5221 45.016 29.2158 40.8219Z" fill="#FFE450"/>
<path d="M46.9002 17.7772C46.9002 15.1645 49.3066 14.1331 51.3004 14.1331C53.4318 14.1331 54.1881 15.1645 54.7381 17.3646C55.2194 19.1523 55.4256 20.8024 55.6319 22.7276C55.9069 24.6527 56.8695 29.0593 57.1445 30.1594C58.1758 33.9409 60.2384 38.4163 62.7135 43.7792C61.2697 44.2605 59.3446 45.0856 58.0383 45.7731C56.3882 46.6669 56.0444 46.6669 55.3569 45.3606C53.913 42.6791 52.8817 40.6852 51.9879 38.3413C51.2317 36.4161 50.4754 34.216 49.8566 31.6658C48.8253 27.3342 48.6878 26.0966 47.8627 24.0964C47.3815 22.04 46.9002 19.4961 46.9002 17.7772Z" fill="#FFE450"/>
<path d="M22.2742 63.8295C20.8179 64.7295 13.0987 68.7736 11.3549 69.4174C10.1111 69.8799 8.76102 69.7674 7.96723 67.4173C6.99217 64.5108 8.361 63.8232 10.3111 63.0669C12.0362 62.3981 19.1928 59.8104 20.8554 59.3604C22.0242 59.0479 22.8367 59.4416 23.3993 60.848C24.0181 62.3919 23.593 63.0107 22.2742 63.8295Z" fill="#1F1F1A"/>
<path d="M15.9118 47.4462C13.8367 47.5025 5.21748 47.1337 3.24862 46.9399C1.53603 46.7712 0.842248 46.0149 1.02976 43.5334C1.22977 40.8707 2.26732 40.7082 3.94866 40.8707C5.89876 41.0582 14.9305 42.5271 16.3681 42.9709C17.8556 43.4334 18.0619 44.1085 17.8806 45.4086C17.6494 47.0962 16.8868 47.415 15.9118 47.4462Z" fill="#1F1F1A"/>
<path d="M16.9814 29.9952C14.6063 29.2452 7.55594 24.9761 5.71835 23.876C4.05576 22.8759 3.84325 21.9758 4.99956 19.7819C6.02461 17.8443 7.16217 17.5067 8.84976 18.3818C10.8061 19.4006 17.7127 24.7761 19.0315 25.8386C20.3066 26.8637 20.1316 27.395 19.4628 28.7139C18.794 30.0327 18.169 30.3702 16.9814 29.9952Z" fill="#1F1F1A"/>
</svg>
