<svg width="360" height="100" viewBox="0 0 360 100" fill="none" xmlns="http://www.w3.org/2000/svg">
<path d="M155.837 83.4254C155.837 87.1128 158.144 89.6239 161.325 89.6239C164.134 89.6239 165.91 88.0209 166.255 85.6431H163.603C163.393 86.7113 162.517 87.2994 161.352 87.2994C159.575 87.2994 158.489 85.6698 158.489 83.4254C158.489 81.1794 159.575 79.5498 161.352 79.5498C162.517 79.5498 163.393 80.138 163.603 81.2061H166.255C165.91 78.8283 164.134 77.2254 161.325 77.2254C158.144 77.2254 155.837 79.7365 155.837 83.4254ZM178.983 83.4254C178.983 79.7898 176.703 77.2254 173.39 77.2254C170.076 77.2254 167.797 79.7898 167.797 83.4254C167.797 87.0594 170.076 89.6239 173.39 89.6239C176.703 89.6239 178.983 87.0594 178.983 83.4254ZM176.331 83.4254C176.331 85.6698 175.298 87.3261 173.39 87.3261C171.48 87.3261 170.448 85.6698 170.448 83.4254C170.448 81.1794 171.48 79.5231 173.39 79.5231C175.298 79.5231 176.332 81.1794 176.332 83.4254H176.331ZM189.168 89.3557H191.82V71.9883H189.168V78.5098C188.637 77.8417 187.472 77.2268 186.174 77.2268C182.728 77.2268 180.713 80.0328 180.713 83.4268C180.713 86.8461 182.728 89.6254 186.172 89.6254C187.472 89.6254 188.637 89.0106 189.168 88.3439V89.3587V89.3557ZM189.168 85.6698C188.931 86.1422 188.568 86.5397 188.119 86.818C187.67 87.0963 187.152 87.2445 186.624 87.2461C184.583 87.2461 183.365 85.6165 183.365 83.4239C183.365 81.2328 184.583 79.6031 186.624 79.6031C187.71 79.6031 188.717 80.2446 189.168 81.1794V85.6698ZM204.163 89.3557V81.5809C204.163 78.8817 202.414 77.2254 199.445 77.2254C197.033 77.2254 195.178 78.7483 194.833 80.7794H197.378C197.669 79.9498 198.332 79.4965 199.393 79.4965C200.903 79.4965 201.645 80.4313 201.645 81.6343V82.5972C201.168 82.2491 199.975 81.8743 198.915 81.8743C196.317 81.8743 194.329 83.452 194.329 85.6965C194.329 88.1276 196.317 89.5705 198.729 89.5705C200.055 89.5705 201.248 89.0891 201.645 88.6891V89.3557H204.163ZM201.645 86.2031C201.353 86.9513 200.294 87.4061 199.233 87.4061C198.04 87.4061 196.795 86.898 196.795 85.6965C196.795 84.5202 198.039 84.012 199.233 84.012C200.294 84.012 201.353 84.4669 201.645 85.215V86.2031ZM200.27 12.375H159.731C158.561 12.3769 157.439 12.8419 156.61 13.6682C155.782 14.4945 155.314 15.6152 155.309 16.7854V60.8772C155.314 62.0471 155.782 63.1674 156.611 63.9934C157.439 64.8195 158.561 65.2842 159.731 65.2861H200.27C201.44 65.2842 202.562 64.8195 203.39 63.9934C204.219 63.1674 204.687 62.0471 204.692 60.8772V58.818C204.618 56.1735 204.544 50.6624 204.544 48.1631C204.544 46.7676 203.513 45.5913 202.186 45.5913C200.712 45.5913 199.753 46.4728 199.015 47.2076C196.805 49.1928 193.489 49.5602 190.615 49.0446C189.288 48.7513 188.035 48.3839 187.002 47.7231C183.833 45.8861 181.769 42.4313 181.769 38.7572C181.769 35.0831 183.833 31.7024 187.002 29.7913C188.109 29.1306 189.36 28.7631 190.614 28.4698C193.414 27.9543 196.806 28.3217 199.017 30.3069C199.827 31.0417 200.786 31.9217 202.187 31.9217C203.513 31.9217 204.544 30.7469 204.544 29.3513C204.544 26.9261 204.618 21.3409 204.692 18.695V16.7839C204.686 15.6142 204.218 14.4943 203.39 13.6686C202.561 12.8429 201.44 12.3784 200.27 12.3765V12.375Z" fill="#EE5A29"/>
</svg>
