<svg width="90" height="90" viewBox="0 0 90 90" fill="none" xmlns="http://www.w3.org/2000/svg">
<path d="M77 5H13C8.58172 5 5 8.58172 5 13V77C5 81.4183 8.58172 85 13 85H77C81.4183 85 85 81.4183 85 77V13C85 8.58172 81.4183 5 77 5Z" fill="#EE5A29"/>
<path d="M64.4879 20H26.1789C25.0731 20.0018 24.0129 20.4412 23.23 21.2221C22.447 22.0029 22.0048 23.0619 22 24.1677V65.8337C22.0052 66.9392 22.4475 67.9979 23.2305 68.7784C24.0134 69.559 25.0734 69.9982 26.1789 70H64.4879C65.5935 69.9982 66.6535 69.559 67.4364 68.7784C68.2194 67.9979 68.6617 66.9392 68.6669 65.8337V63.8877C68.5969 61.3888 68.5269 56.1809 68.5269 53.8191C68.5269 52.5003 67.5525 51.3888 66.2981 51.3888C64.9051 51.3888 63.9993 52.2218 63.3022 52.9161C61.2134 54.7921 58.0802 55.1393 55.3643 54.6521C54.1099 54.3749 52.9255 54.0277 51.9497 53.4033C48.9552 51.6674 47.005 48.4026 47.005 44.9307C47.005 41.4588 48.9552 38.264 51.9497 36.4581C52.9955 35.8337 54.1785 35.4865 55.3629 35.2093C58.0088 34.7221 61.2148 35.0693 63.3036 36.9453C64.0693 37.6396 64.9751 38.4712 66.2995 38.4712C67.5525 38.4712 68.5269 37.3611 68.5269 36.0423C68.5269 33.7505 68.5969 28.4726 68.6669 25.9723V24.1663C68.6613 23.061 68.2188 22.0027 67.4359 21.2225C66.653 20.4422 65.5933 20.0032 64.4879 20.0014V20Z" fill="white"/>
</svg>
