<svg width="300" height="100" viewBox="0 0 300 100" fill="none" xmlns="http://www.w3.org/2000/svg">
<path d="M167.075 39.231H153.229V60.7695H167.075M219.383 39.231H205.536V60.7695H219.383M214.767 50.0002H205.536M162.459 50.0002H153.229M231.69 60.7695V39.231L248.613 60.7695V39.231M77.8441 55.6925L94.7671 66.9233M77.8441 55.6925V44.3079M77.8441 55.6925L94.7671 44.3079M94.7671 66.9233L111.69 55.6925M94.7671 66.9233V55.6925M111.69 55.6925V44.3079M111.69 55.6925L94.7671 44.3079M111.69 44.3079L94.7671 33.0771M111.69 44.3079L94.7671 55.5387L77.8441 44.3079M94.7671 33.0771L77.8441 44.3079M94.7671 33.0771V44.3079M179.383 51.5387H188.613C191.998 51.5387 194.767 48.7695 194.767 45.3848C194.767 42.0002 191.998 39.231 188.613 39.231H179.383V60.7695M67.0748 42.3079C65.0748 40.3079 62.4594 39.231 59.3825 39.231C53.2287 39.231 48.6133 43.8464 48.6133 50.0002C48.6133 56.1541 53.2287 60.7695 59.3825 60.7695C62.4594 60.7695 65.0748 59.5387 67.0748 57.6925M142.459 50.0002C142.459 56.1541 137.844 60.7695 131.69 60.7695H123.998V39.231H131.69C137.844 39.231 142.459 43.8464 142.459 50.0002Z" stroke="#000008" stroke-width="3.53846" stroke-linecap="round" stroke-linejoin="round"/>
</svg>
