<svg width="300" height="100" viewBox="0 0 300 100" fill="none" xmlns="http://www.w3.org/2000/svg">
<path d="M66.4937 38.959C56.3255 38.959 48.3804 46.6779 48.3804 57.0113C48.3804 67.3446 56.1247 74.9975 66.4937 74.9975C76.8626 74.9975 84.7415 67.2125 84.7415 56.9452C84.7415 46.744 76.9972 38.959 66.4937 38.959ZM66.5623 67.5504C60.7718 67.5504 56.5287 63.0533 56.5287 57.0138C56.5287 50.9058 60.7032 46.4111 66.4937 46.4111C72.3527 46.4111 76.5933 50.9744 76.5933 57.0138C76.5933 63.0533 72.3527 67.5504 66.5623 67.5504ZM86.9622 46.8126H92.0133V74.3292H100.093V39.6298H86.9622V46.8126ZM28.0466 46.4086C32.2897 46.4086 35.6562 49.0256 36.9342 52.9181H45.4865C43.9366 44.597 37.0689 38.959 28.1152 38.959C17.947 38.959 10.002 46.6779 10.002 57.0138C10.002 67.3497 17.7463 75 28.1152 75C36.8682 75 43.8706 69.362 45.4204 60.9724H36.9342C35.7223 64.8648 32.3557 67.5504 28.1126 67.5504C22.2536 67.5504 18.1477 63.0533 18.1477 57.0138C18.1502 50.9058 22.1901 46.4086 28.0466 46.4086ZM240.481 53.6575L234.556 52.786C231.728 52.3845 229.708 51.4444 229.708 49.2289C229.708 46.8126 232.335 45.6057 235.903 45.6057C239.808 45.6057 242.3 47.2826 242.839 50.0343H250.649C249.773 43.0548 244.386 38.9616 236.106 38.9616C227.554 38.9616 221.898 43.3241 221.898 49.4982C221.898 55.403 225.602 58.8279 233.075 59.9002L239 60.7716C241.896 61.1731 243.512 62.3164 243.512 64.4634C243.512 67.2151 240.684 68.3559 236.779 68.3559C231.998 68.3559 229.304 66.4096 228.9 63.4572H220.955C221.697 70.236 227.015 75 236.711 75C245.532 75 251.389 70.9729 251.389 64.0594C251.389 57.8853 247.148 54.6636 240.481 53.6575ZM96.0531 25.3354C93.0905 25.3354 90.8674 27.4823 90.8674 30.4347C90.8674 33.3871 93.088 35.5341 96.0531 35.5341C99.0156 35.5341 101.239 33.3871 101.239 30.4347C101.239 27.4823 99.0156 25.3354 96.0531 25.3354ZM214.626 51.5105C214.626 43.9949 210.048 38.9616 200.352 38.9616C191.195 38.9616 186.078 43.5934 185.067 50.7076H193.08C193.484 47.9559 195.639 45.6743 200.217 45.6743C204.326 45.6743 206.346 47.4859 206.346 49.7015C206.346 52.5878 202.641 53.3246 198.063 53.7947C191.868 54.4654 184.193 56.6124 184.193 64.6667C184.193 70.9093 188.84 74.9339 196.246 74.9339C202.037 74.9339 205.673 72.5177 207.492 68.6912C207.761 72.1137 210.32 74.3292 213.889 74.3292H218.603V67.149H214.629V51.5105H214.626ZM206.681 60.2355C206.681 64.8674 202.641 68.2898 197.725 68.2898C194.694 68.2898 192.135 67.0143 192.135 64.3313C192.135 60.9088 196.244 59.9688 200.014 59.5673C203.65 59.2319 205.67 58.4265 206.681 56.8817V60.2355ZM163.79 38.959C159.278 38.959 155.507 40.8392 152.814 43.9923V25H144.734V74.3292H152.679V69.766C155.373 73.0538 159.212 75 163.79 75C173.486 75 180.826 67.3497 180.826 57.0138C180.826 46.6779 173.351 38.959 163.79 38.959ZM162.578 67.5504C156.788 67.5504 152.545 63.0533 152.545 57.0138C152.545 50.9744 156.854 46.4111 162.644 46.4111C168.503 46.4111 172.609 50.9083 172.609 57.0138C172.609 63.0533 168.369 67.5504 162.578 67.5504ZM125.409 38.959C120.157 38.959 116.722 41.106 114.702 44.127V39.6298H106.689V74.3267H114.768V55.469C114.768 50.1664 118.135 46.4086 123.117 46.4086C127.765 46.4086 130.659 49.6964 130.659 54.4629V74.3292H138.738V53.8607C138.741 45.1331 134.231 38.959 125.409 38.959ZM289.904 55.873C289.904 45.9411 282.633 38.9616 272.869 38.9616C262.5 38.9616 254.89 46.7465 254.89 57.0138C254.89 67.8198 263.038 75 273.003 75C281.421 75 288.019 70.0328 289.701 62.9872H281.284C280.072 66.0742 277.109 67.8198 273.135 67.8198C267.95 67.8198 264.044 64.5981 263.17 58.9601H289.902V55.873H289.904ZM263.643 53.1874C264.924 48.3548 268.559 46.0072 272.734 46.0072C277.312 46.0072 280.814 48.6242 281.622 53.1874H263.643Z" fill="#0052FF"/>
</svg>
