<svg width="90" height="90" viewBox="0 0 90 90" fill="none" xmlns="http://www.w3.org/2000/svg">
<path d="M77 5H13C8.58172 5 5 8.58172 5 13V77C5 81.4183 8.58172 85 13 85H77C81.4183 85 85 81.4183 85 77V13C85 8.58172 81.4183 5 77 5Z" fill="#0052FF"/>
<path d="M45.1181 58.142C37.9047 58.142 32.0761 52.2972 32.0761 45.1C32.0761 37.9028 37.9208 32.0581 45.1181 32.0581C51.5746 32.0581 56.9363 36.7596 57.9668 42.9263H71.1053C69.9944 29.5302 58.788 19 45.102 19C30.6914 19 19.002 30.6895 19.002 45.1C19.002 59.5106 30.6914 71.2 45.102 71.2C58.788 71.2 69.9944 60.6698 71.1053 47.2737H57.9507C56.9202 53.4404 51.5746 58.142 45.1181 58.142Z" fill="white"/>
</svg>
