<svg width="300" height="100" viewBox="0 0 300 100" fill="none" xmlns="http://www.w3.org/2000/svg">
<g clip-path="url(#clip0_886_3615)">
<path d="M30.2436 67.3681C41.4878 67.3681 50.1785 58.8852 50.1785 48.4211C50.1785 38.6176 42.0137 32.6317 36.6059 32.6317C29.0754 32.6317 23.0394 37.9089 22.1794 45.7431C22.0202 47.1938 20.869 48.4105 19.4083 48.4C16.9798 48.3826 13.4494 48.362 11.2145 48.3697C10.2524 48.373 9.45685 47.5933 9.50445 46.6331C9.8417 39.8387 12.1166 33.4857 16.4548 28.6056C21.2752 23.1829 28.2951 20 36.6059 20C50.5693 20 63.7511 32.6699 63.7511 48.4211C63.7511 65.8615 49.2807 80 30.5408 80C17.1761 80 3.71585 71.2781 -0.983621 59.0844C-1.00106 59.0393 -1.00387 58.9919 -0.995376 58.943C-0.93286 58.5822 -0.808577 58.2526 -0.686187 57.9281C-0.508237 57.4563 -0.334293 56.995 -0.359696 56.4633L-0.440922 54.7647C-0.480941 53.9268 -0.00687397 53.1477 0.759959 52.7912L1.43931 52.4754C2.21393 52.1153 2.76456 51.4061 2.91696 50.5723C3.14467 49.3267 4.23974 48.4211 5.51793 48.4211C7.51381 48.4211 9.24956 49.7465 9.90159 51.6311C13.0397 60.7015 18.0284 67.3681 30.2436 67.3681Z" fill="#FB6970"/>
<path d="M278.807 40.9575C276.316 40.9575 275.55 39.4744 275.55 37.8001C275.55 36.0302 276.172 34.6428 278.807 34.6428C281.44 34.6428 282.062 36.0302 282.062 37.8001C282.062 39.4744 281.392 40.9575 278.807 40.9575Z" fill="#212F4F"/>
<path d="M233.354 61.4931V49.1988L229.851 49.1816V47.7503C229.851 46.1916 231.12 44.9301 232.681 44.9377L233.354 44.9411V39.7267L238.956 38.1481V44.9411H244.032V46.3863C244.032 47.9396 242.772 49.1988 241.217 49.1988H238.956V60.7756C238.956 62.5576 239.967 63.1836 241.269 63.3988C242.804 63.6522 244.08 64.7616 244.08 66.3149V68.4295C238.775 68.4295 233.354 68.1959 233.354 61.4931Z" fill="#212F4F"/>
<path fill-rule="evenodd" clip-rule="evenodd" d="M122.829 44.4112C117.226 44.2676 110.331 47.8076 110.331 56.6577C110.331 65.3641 117.226 68.8085 122.829 68.6651C128.575 68.8085 135.423 65.3641 135.423 56.6577C135.423 47.8076 128.575 44.2676 122.829 44.4112ZM122.87 64.3197C118.8 64.3197 115.912 61.3571 115.912 56.4777C115.912 51.8373 118.802 48.7803 122.872 48.7803C126.942 48.7803 129.8 51.831 129.8 56.4713C129.8 61.3508 126.94 64.3197 122.87 64.3197Z" fill="#212F4F"/>
<path d="M150.139 44.4636C155.023 44.4636 160.099 45.803 160.099 55.3706V68.1914H156.977C155.422 68.1914 154.161 66.9321 154.161 65.3789V54.8923C154.161 50.3475 152.486 48.6255 149.564 48.6255C147.936 48.6255 145.83 49.8692 144.824 50.8739V65.3789C144.824 66.9321 143.563 68.1914 142.009 68.1914H139.173V45.0376H142.332C143.454 45.0376 144.428 45.8112 144.68 46.9033C146.117 45.3246 147.984 44.4636 150.139 44.4636Z" fill="#212F4F"/>
<path d="M166.503 44.9967C167.693 44.9967 168.754 45.7441 169.154 46.8637L174.281 61.2139L179.408 46.8639C179.808 45.7441 180.869 44.9967 182.059 44.9967H186.108L177.758 66.361C177.336 67.4401 176.295 68.1504 175.135 68.1504H171.552L162.453 44.9967H166.503Z" fill="#212F4F"/>
<path fill-rule="evenodd" clip-rule="evenodd" d="M208.247 67.0256C206.475 67.7432 202.881 68.699 199.146 68.699C192.586 68.699 187.561 64.9202 187.561 56.405C187.561 48.7509 192.432 44.6584 198.37 44.6584C205.698 44.6584 208.825 49.5726 208.498 56.2626C208.431 57.6448 207.227 58.653 205.842 58.653H193.209C193.496 62.3845 196.225 64.3458 199.816 64.3458C201.227 64.3458 202.709 64.2742 204.486 63.9427C206.37 63.5909 208.247 64.9303 208.247 66.8455V67.0256ZM203.427 54.7303C203.812 51.0688 201.338 49.0596 198.37 49.0596C195.401 49.0596 193.399 51.2861 193.209 54.7303H203.427Z" fill="#212F4F"/>
<path d="M215.961 45.0448C217.03 45.0448 217.962 45.776 218.215 46.8148C220.13 45.3796 222.525 44.4708 224.2 44.4708C224.345 44.4708 225.254 44.4708 226.691 44.6622V47.1447C226.691 48.4792 225.536 49.4937 224.2 49.4937C222.669 49.4937 220.417 50.0679 218.646 51.0724V68.1985H212.947V45.0448H215.961Z" fill="#212F4F"/>
<path d="M281.679 65.3169V44.9758H278.844C277.289 44.9758 276.029 46.2349 276.029 47.7883V68.1294H278.864C280.419 68.1294 281.679 66.8703 281.679 65.3169Z" fill="#212F4F"/>
<path d="M289.385 61.5419V49.2474H285.602V47.8022C285.602 46.249 286.863 44.9897 288.418 44.9897H289.385V39.7755L294.987 38.1968V44.9897H300.063V46.4349C300.063 47.9882 298.803 49.2474 297.248 49.2474H294.987V60.8243C294.987 62.6064 295.999 63.2323 297.302 63.4475C298.835 63.701 300.111 64.8103 300.111 66.3635V68.4783C294.806 68.4783 289.385 68.2446 289.385 61.5419Z" fill="#212F4F"/>
<path d="M82.3319 51.8747C82.3676 41.0491 90.5394 34.9997 98.3813 34.9997C102.737 34.9997 106.731 35.9372 110.015 38.281L108.686 40.1023C107.798 41.3207 106.112 41.8049 104.709 41.2505C102.727 40.4679 100.862 40.3026 99.4714 40.3026C93.055 40.3026 88.216 44.4213 88.1814 51.8744C88.216 59.3274 93.055 63.5057 99.4714 63.5057C100.862 63.5057 102.727 63.3404 104.709 62.5578C106.112 62.0034 107.798 62.4288 108.686 63.6472L110.015 65.4684C106.731 67.8122 102.737 68.7497 98.3813 68.7497C90.5394 68.7497 82.3676 62.7004 82.3319 51.8747Z" fill="#212F4F"/>
<path d="M251.027 35.1689C252.582 35.1689 253.842 36.4281 253.842 37.9814V50.8758L265.366 36.4098C265.896 35.6904 266.738 35.2658 267.632 35.2658H272.751L259.722 51.7009L272.751 68.1297H267.632C266.738 68.1297 265.896 67.7051 265.366 66.9856L253.842 52.5235V65.3169C253.842 66.8702 252.582 68.1295 251.027 68.1295H248.047V35.1689H251.027Z" fill="#212F4F"/>
</g>
<defs>
<clipPath id="clip0_886_3615">
<rect width="300" height="100" fill="white"/>
</clipPath>
</defs>
</svg>
