<svg width="90" height="90" viewBox="0 0 90 90" fill="none" xmlns="http://www.w3.org/2000/svg">
<rect x="5" y="5" width="80" height="80" rx="8" fill="#FB6970"/>
<path d="M43.8427 58.508C52.5252 58.508 59.2364 51.9102 59.2364 43.7716C59.2364 36.1469 52.9316 31.4913 48.7556 31.4913C42.9384 31.4913 38.2762 35.5988 37.6149 41.6956C37.4929 42.8204 36.6011 43.7634 35.4698 43.7552C33.5964 43.7417 30.8773 43.7257 29.1531 43.7316C28.4078 43.7342 27.7914 43.1295 27.828 42.385C28.0877 37.0991 29.8445 32.1566 33.1952 28.36C36.9175 24.1425 42.338 21.667 48.7556 21.667C59.5379 21.667 69.7168 31.521 69.7168 43.7716C69.7168 57.3361 58.5428 68.3323 44.0722 68.3323C33.7522 68.3323 23.3583 61.5488 19.7294 52.0651C19.716 52.03 19.7138 51.9933 19.7204 51.9552C19.7686 51.6745 19.8646 51.4182 19.9591 51.1656C20.0966 50.7987 20.2308 50.44 20.2112 50.0265L20.1485 48.7054C20.1176 48.0538 20.4836 47.4478 21.0758 47.1705L21.6004 46.9249C22.1985 46.6448 22.6238 46.0932 22.7414 45.4448C22.9172 44.476 23.7629 43.7716 24.7499 43.7716C26.2905 43.7716 27.63 44.7969 28.13 46.2542C30.553 53.3161 34.4041 58.508 43.8427 58.508Z" fill="white"/>
</svg>
