<svg width="300" height="100" viewBox="0 0 300 100" fill="none" xmlns="http://www.w3.org/2000/svg">
<path d="M64.2449 64.7251C61.6645 64.7251 59.2957 64.3021 57.1383 63.4138C54.9809 62.5254 53.1197 61.2987 51.5545 59.7336C49.9894 58.1684 48.7626 56.3071 47.8743 54.1498C46.986 51.9924 46.563 49.6236 46.563 47.0432C46.563 44.4205 47.0706 41.967 48.0435 39.6828C49.0165 37.3985 50.4124 35.4103 52.1467 33.7183C53.8811 32.0262 55.9539 30.7149 58.2804 29.742C60.607 28.769 63.1451 28.3037 65.8523 28.3037C67.8828 28.3037 69.7864 28.5998 71.5207 29.1497C73.2974 29.742 74.8202 30.5457 76.1315 31.5609C77.4429 32.5761 78.4581 33.8029 79.2195 35.1988C79.981 36.5948 80.3617 38.1176 80.3617 39.6828C80.3617 41.4594 79.8118 42.8977 78.7119 44.0821C77.6121 45.2665 76.2584 45.8587 74.651 45.8587C73.0013 45.8587 71.6053 45.2665 70.5055 44.1244C69.4056 42.9823 68.8557 41.5017 68.8557 39.7674C68.8557 39.2597 68.898 38.7944 69.0249 38.3291C69.1518 37.8638 69.321 37.187 69.5326 36.2987C69.7441 35.4949 69.9133 34.945 69.9979 34.522C70.0825 34.1413 70.0825 33.7183 70.0825 33.253C70.0825 32.0685 69.7018 31.0533 68.898 30.2919C68.1366 29.5305 67.1637 29.1497 65.9792 29.1497C64.9217 29.1497 63.9911 29.4882 63.1028 30.165C62.2144 30.8418 61.453 31.7724 60.7762 32.9146C60.0994 34.0567 59.5918 35.4526 59.2111 37.0601C58.8303 38.6675 58.6188 40.3596 58.6188 42.1785C58.6188 46.4087 59.6764 49.7504 61.7914 52.2039C63.9065 54.6997 66.7407 55.9264 70.3363 55.9264C72.3667 55.9264 74.1857 55.5457 75.8354 54.7843C77.4852 54.0229 79.0926 52.8384 80.6578 51.231L81.5038 51.654C77.6544 60.3258 71.8591 64.7251 64.2449 64.7251Z" fill="#3C3F40"/>
<path d="M107.855 38.7097C107.643 36.4255 107.347 34.6065 106.967 33.2106C106.586 31.8992 105.994 30.884 105.232 30.1649C104.429 29.4458 103.498 29.1074 102.356 29.1074C101.171 29.1074 100.198 29.4458 99.3947 30.1649C98.591 30.884 97.9987 31.8992 97.7026 33.2106C97.3219 34.6911 97.0681 36.5524 96.8566 38.7943C96.6874 41.0363 96.5605 43.6167 96.5605 46.4932C96.5605 49.3697 96.6451 51.95 96.8566 54.2343C97.0258 56.5186 97.3219 58.3798 97.7026 59.8181C98.041 61.1294 98.591 62.1446 99.3947 62.8638C100.198 63.5829 101.214 63.9213 102.356 63.9213C103.456 63.9213 104.429 63.5406 105.232 62.8638C106.036 62.1446 106.628 61.1294 106.924 59.8181C107.728 56.8147 108.109 52.373 108.109 46.5355C108.151 43.5744 108.066 40.994 107.855 38.7097ZM119.911 53.6844C118.938 55.8841 117.584 57.8299 115.892 59.4797C114.2 61.1294 112.17 62.3985 109.885 63.3291C107.559 64.2597 105.063 64.725 102.44 64.725C99.7331 64.725 97.2373 64.2597 94.9108 63.3291C92.5842 62.3985 90.596 61.1294 88.904 59.4797C87.2119 57.8299 85.8583 55.9264 84.8854 53.6844C83.9124 51.4847 83.4048 49.0735 83.4048 46.4932C83.4048 43.9128 83.9124 41.5016 84.8854 39.302C85.8583 37.1023 87.2119 35.1564 88.904 33.5067C90.596 31.8569 92.6265 30.5879 94.9108 29.6573C97.2373 28.7266 99.7331 28.2613 102.44 28.2613C105.105 28.2613 107.601 28.7266 109.885 29.6573C112.212 30.5879 114.2 31.8569 115.892 33.5067C117.584 35.1564 118.938 37.06 119.911 39.302C120.884 41.5016 121.391 43.9128 121.391 46.4932C121.391 49.0735 120.926 51.4847 119.911 53.6844Z" fill="#3C3F40"/>
<path d="M264.666 33.5914C264.666 36.9755 267.373 39.6828 270.715 39.6828C274.056 39.6828 276.764 36.9332 276.764 33.5914C276.764 30.2496 274.056 27.5 270.715 27.5C267.373 27.5 264.666 30.2073 264.666 33.5914Z" fill="#3C3F40"/>
<path d="M23 37.3139C23 40.698 25.7073 43.4053 29.0491 43.4053C32.3909 43.4053 35.0982 40.6557 35.0982 37.3139C35.0982 33.9298 32.3909 31.2225 29.0491 31.2225C25.7073 31.2225 23 33.9298 23 37.3139Z" fill="#FF3465"/>
<path d="M23 55.8841C23 59.2682 25.7073 61.9755 29.0491 61.9755C32.3909 61.9755 35.0982 59.2259 35.0982 55.8841C35.0982 52.5 32.3909 49.7928 29.0491 49.7928C25.7073 49.7928 23 52.5 23 55.8841Z" fill="#FF3465"/>
<path d="M147.618 58.549C146.434 61.2563 144.742 62.6523 142.542 62.6523C141.273 62.6523 140.173 62.1446 139.158 61.1294V33.8028C140.173 33.1683 140.977 32.703 141.527 32.4915C142.077 32.28 142.627 32.153 143.176 32.153C145.122 32.153 146.645 33.4644 147.745 36.1294C148.845 38.7943 149.395 42.4323 149.395 47.1277C149.395 52.0346 148.803 55.8417 147.618 58.549ZM161.366 38.0752C160.731 36.0448 159.885 34.3527 158.743 32.8722C157.601 31.4339 156.248 30.2918 154.682 29.4881C153.117 28.6843 151.383 28.2613 149.479 28.2613C147.745 28.2613 146.053 28.5997 144.403 29.3189C142.753 29.9957 141.019 31.1801 139.116 32.7876V28.3036L122.11 33.3798V34.4373C122.83 34.5642 123.464 34.6911 123.929 34.9026C124.606 35.1987 125.198 35.6641 125.706 36.2986C126.002 36.6793 126.214 37.06 126.341 37.483C126.51 37.906 126.637 38.3713 126.721 38.9212C126.806 39.4712 126.89 40.148 126.933 40.9094C126.975 41.6708 127.017 42.5592 127.017 43.5744V68.3206C127.017 69.1243 127.017 69.7589 126.975 70.2665C126.933 70.7741 126.933 71.1971 126.89 71.5778C126.848 71.9585 126.764 72.2969 126.679 72.6777C126.552 73.566 126.256 74.2428 125.791 74.7504C125.283 75.3849 124.691 75.8502 124.014 76.104C123.676 76.231 123.295 76.3156 122.787 76.4002V77.5H143.473V76.5271C142.838 76.4425 142.33 76.3579 141.95 76.231C141.273 76.0195 140.723 75.681 140.3 75.1734C140.088 74.9196 139.877 74.6235 139.75 74.2851C139.623 73.9467 139.496 73.566 139.412 73.0584C139.327 72.5508 139.242 71.9585 139.242 71.2394C139.2 70.5203 139.2 69.632 139.2 68.6167V62.2715C140.385 63.2022 141.484 63.8367 142.5 64.2174C143.473 64.5981 144.657 64.7673 146.011 64.7673C148.295 64.7673 150.452 64.2597 152.44 63.2445C154.429 62.2292 156.163 60.8333 157.643 59.0143C159.124 57.1954 160.266 55.0803 161.112 52.6692C161.958 50.258 162.381 47.6353 162.381 44.8011C162.297 42.3053 161.958 40.0634 161.366 38.0752Z" fill="#3C3F40"/>
<path d="M190.342 58.549C189.158 61.2563 187.466 62.6523 185.266 62.6523C183.997 62.6523 182.897 62.1446 181.882 61.1294V33.8028C182.897 33.1683 183.701 32.703 184.251 32.4915C184.801 32.28 185.351 32.153 185.901 32.153C187.847 32.153 189.369 33.4644 190.469 36.1294C191.569 38.7943 192.119 42.4323 192.119 47.1277C192.161 52.0346 191.569 55.8417 190.342 58.549ZM204.09 38.0752C203.456 36.0448 202.61 34.3527 201.468 32.8722C200.325 31.4339 198.972 30.2918 197.407 29.4881C195.841 28.6843 194.107 28.2613 192.204 28.2613C190.469 28.2613 188.777 28.5997 187.127 29.3189C185.478 29.9957 183.743 31.1801 181.84 32.7876V28.3036L164.835 33.3798V34.4373C165.554 34.5642 166.188 34.6911 166.654 34.9026C167.33 35.1987 167.923 35.6641 168.43 36.2986C168.726 36.6793 168.938 37.06 169.065 37.483C169.234 37.906 169.361 38.3713 169.446 38.9212C169.53 39.4712 169.615 40.148 169.657 40.9094C169.699 41.6708 169.742 42.5592 169.742 43.5744V68.3206C169.742 69.1243 169.742 69.7589 169.699 70.2665C169.657 70.7741 169.657 71.1971 169.615 71.5778C169.572 71.9585 169.488 72.2969 169.403 72.6777C169.276 73.566 168.98 74.2428 168.515 74.7504C168.007 75.3849 167.415 75.8502 166.738 76.104C166.4 76.231 166.019 76.3156 165.512 76.4002V77.5H186.197V76.5271C185.562 76.4425 185.055 76.3579 184.674 76.231C183.997 76.0195 183.447 75.681 183.024 75.1734C182.813 74.9196 182.601 74.6235 182.474 74.2851C182.347 73.9467 182.22 73.566 182.136 73.0584C182.051 72.5508 181.967 71.9585 181.967 71.2394C181.924 70.5203 181.924 69.632 181.924 68.6167V62.2715C183.109 63.2022 184.209 63.8367 185.224 64.2174C186.197 64.5981 187.381 64.7673 188.735 64.7673C191.019 64.7673 193.177 64.2597 195.165 63.2445C197.153 62.2292 198.887 60.8333 200.368 59.0143C201.848 57.1954 202.99 55.0803 203.836 52.6692C204.682 50.258 205.105 47.6353 205.105 44.8011C205.021 42.3053 204.725 40.0634 204.09 38.0752Z" fill="#3C3F40"/>
<path d="M264.711 62.5253C264.076 62.3138 263.568 61.9754 263.188 61.4678C262.976 61.2139 262.765 60.8755 262.68 60.5794C262.553 60.241 262.469 59.8603 262.384 59.3527C262.299 58.8874 262.215 58.2528 262.215 57.5337C262.172 56.8146 262.172 55.884 262.172 54.8264V28.1767L244.956 33.3374V34.3949C245.76 34.5218 246.436 34.691 246.986 34.9026C247.663 35.1987 248.255 35.664 248.763 36.2985C249.059 36.6792 249.271 37.0599 249.398 37.4829C249.567 37.9059 249.694 38.3713 249.778 38.9212C249.863 39.4711 249.947 40.1479 249.99 40.9093C250.032 41.6708 250.074 42.5591 250.074 43.5743V54.8264C250.074 56.9838 249.99 58.5067 249.863 59.4373C249.736 60.3256 249.482 61.0024 249.101 61.4678C248.678 61.9754 248.171 62.3138 247.536 62.5253C247.071 62.6945 246.436 62.7791 245.59 62.8637V63.7943H266.403V62.8637C265.683 62.7791 265.134 62.6945 264.711 62.5253Z" fill="#3C3F40"/>
<path d="M226.216 29.1075C227.612 29.1075 228.67 29.6997 229.389 30.8418C230.108 31.9839 230.573 33.8029 230.785 36.341C230.827 36.8063 230.87 37.2293 230.87 37.61C230.912 37.9907 230.912 38.3714 230.954 38.8367C230.996 39.2598 230.996 39.7674 230.996 40.3596V41.6709H220.379C220.421 37.7369 220.929 34.6912 221.859 32.5338C222.832 30.2496 224.313 29.1075 226.216 29.1075ZM242.841 50.0466C242.164 51.1041 241.572 51.9078 241.106 52.4577C240.641 53.0077 240.007 53.5153 239.245 54.0229C237.215 55.4611 234.761 56.1803 231.885 56.1803C224.271 56.1803 220.421 51.8655 220.379 43.2361H243.179C242.883 40.9518 242.291 38.9213 241.36 37.0601C240.43 35.1988 239.203 33.6337 237.722 32.3646C236.242 31.0533 234.55 30.0804 232.604 29.4036C230.658 28.7267 228.543 28.346 226.259 28.346C223.636 28.346 221.183 28.8113 218.898 29.7843C216.614 30.7572 214.626 32.0685 212.934 33.7606C211.242 35.4526 209.888 37.4408 208.958 39.6828C207.985 41.967 207.519 44.3782 207.519 46.9586C207.519 49.4967 207.985 51.8655 208.915 54.0229C209.846 56.1803 211.115 58.0838 212.722 59.6913C214.372 61.2987 216.276 62.5254 218.518 63.4138C220.76 64.3021 223.128 64.7674 225.709 64.7674C228.416 64.7674 230.912 64.2598 233.154 63.2023C235.396 62.1447 237.342 60.6642 238.949 58.7183C239.457 58.0838 239.922 57.4916 240.303 56.8994C240.683 56.3495 241.064 55.7572 241.36 55.165C241.699 54.5728 241.995 53.896 242.333 53.1346C242.672 52.3731 243.01 51.4425 243.433 50.3427L242.841 50.0466Z" fill="#3C3F40"/>
</svg>
