<svg width="90" height="90" viewBox="0 0 90 90" fill="none" xmlns="http://www.w3.org/2000/svg">
<rect x="5" y="5" width="80" height="80" rx="40" fill="#FF3465"/>
<path d="M45.7966 70.0763C42.178 70.0763 38.8559 69.4831 35.8305 68.2373C32.8051 66.9916 30.1949 65.2712 28 63.0763C25.8051 60.8814 24.0847 58.2712 22.839 55.2458C21.5932 52.2204 21 48.8983 21 45.2797C21 41.6017 21.7119 38.161 23.0763 34.9577C24.4407 31.7543 26.3983 28.9661 28.8305 26.5932C31.2627 24.2204 34.1695 22.3814 37.4322 21.017C40.6949 19.6526 44.2542 19 48.0508 19C50.8983 19 53.5678 19.4153 56 20.1864C58.4915 21.017 60.6271 22.1441 62.4661 23.5678C64.3051 24.9915 65.7288 26.7119 66.7966 28.6695C67.8644 30.6271 68.3983 32.7627 68.3983 34.9577C68.3983 37.4492 67.6271 39.4661 66.0848 41.1271C64.5424 42.7882 62.6441 43.6187 60.3898 43.6187C58.0763 43.6187 56.1186 42.7882 54.5763 41.1865C53.0339 39.5848 52.2627 37.5085 52.2627 35.0763C52.2627 34.3644 52.322 33.7119 52.5 33.0593C52.678 32.4068 52.9153 31.4577 53.2119 30.2119C53.5085 29.0848 53.7458 28.3136 53.8644 27.7204C53.9831 27.1865 53.9831 26.5932 53.9831 25.9407C53.9831 24.2797 53.4492 22.8559 52.322 21.7881C51.2542 20.7203 49.8898 20.1864 48.2288 20.1864C46.7458 20.1864 45.4407 20.661 44.1949 21.6102C42.9492 22.5593 41.8814 23.8644 40.9322 25.4661C39.9831 27.0678 39.2712 29.0254 38.7373 31.2797C38.2034 33.5339 37.9068 35.9068 37.9068 38.4577C37.9068 44.3899 39.3898 49.0763 42.3559 52.517C45.322 56.017 49.2966 57.7373 54.339 57.7373C57.1864 57.7373 59.7373 57.2034 62.0508 56.1356C64.3644 55.0678 66.6186 53.4068 68.8136 51.1526L70 51.7458C64.6017 63.9068 56.4746 70.0763 45.7966 70.0763Z" fill="white"/>
</svg>
