<svg width="702" height="100" viewBox="0 0 702 100" fill="none" xmlns="http://www.w3.org/2000/svg">
<g clip-path="url(#clip0_1502_2805)">
<path d="M230.167 2.43464V57.2534C230.167 69.3659 236.919 76.518 248.637 76.518C261.745 76.518 269.279 68.5706 269.279 53.2767V2.43464H293.711V96.7723H269.298V85.8437C263.542 94.7809 254.204 99.1523 241.296 99.1523C219.451 99.1584 205.748 83.2695 205.748 60.2284V2.43464H230.167ZM492.537 0.649536C520.345 0.704278 539.961 22.9803 539.895 49.221C539.899 51.8154 539.697 54.406 539.287 56.9681L467.396 56.8345C470.152 68.1577 479.472 76.3177 493.576 76.348C502.112 76.348 511.256 73.2031 516.829 66.0631L533.489 79.4202C524.922 91.5205 509.811 98.6423 493.734 98.612C465.35 98.5148 443.541 77.2223 443.59 49.6156C443.644 23.1989 462.551 0.594991 492.537 0.649536ZM647.553 0.649684C662.446 0.649684 670.988 5.21539 676.744 13.9582L679.033 2.42254H701.37V96.7723H679.033L676.149 87.058C669.598 94.2101 661.45 98.5937 647.553 98.5937C626.103 98.5633 601.671 79.6934 601.671 50.3017C601.671 20.7097 625.702 0.649684 647.553 0.649684ZM147.038 0.649684C175.039 0.649684 197.285 22.5068 197.285 49.5064C197.285 76.3177 175.039 98.5634 147.038 98.5634C119.23 98.5634 96.9909 76.2934 96.9909 49.5064C96.9909 22.4947 119.23 0.649684 147.038 0.649684ZM398.242 0.0486187C413.992 0.0486187 427.944 7.02469 435.521 19.9811L414.004 31.365C410.816 24.9839 404.836 21.3957 397.259 21.3957C389.888 21.3957 386.294 23.9882 386.294 28.3718C386.294 43.1253 437.725 33.7571 437.725 69.0502C437.725 87.3919 422.777 98.5512 398.655 98.5512C378.122 98.533 363.769 91.7573 356.598 76.2084L378.31 64.8427C381.898 72.6202 389.075 77.2041 399.244 77.2041C408.612 77.2041 412.201 74.217 412.201 70.0277C412.201 54.8492 360.77 64.0474 360.77 29.3493C360.77 10.2122 377.515 0.0486187 398.242 0.0486187ZM50.0467 0.449331C58.4075 0.390729 66.6514 2.41338 74.036 6.33498C81.4201 10.2566 87.7125 15.9539 92.3462 22.9136L71.497 35.0078C69.0848 31.5605 65.8736 28.7483 62.1385 26.8114C58.4029 24.8745 54.2543 23.8704 50.0467 23.885C35.7485 23.885 24.0307 35.8032 24.0307 49.5064C24.0307 63.2095 35.7485 75.1277 50.0467 75.1277C54.4527 75.1562 58.7925 74.0555 62.6521 71.9293C66.5111 69.8037 69.7612 66.7242 72.092 62.9849L92.7348 75.2977C88.1576 82.4607 81.8415 88.3488 74.3754 92.4124C66.9088 96.4766 58.5351 98.584 50.0345 98.5398C22.2396 98.5633 0 76.2934 0 49.5064C0 22.3004 22.2396 0.449331 50.0467 0.449331ZM356.453 0L351.948 22.7982C351.117 22.7076 350.282 22.6609 349.446 22.6585C336.344 22.6889 328.81 30.6485 328.846 45.9363L328.98 96.7662L304.554 96.8209L304.348 2.48929L328.773 2.43464V13.3632C334.462 4.48678 343.703 0.103214 356.453 0ZM601.896 0.0668505L597.367 22.8407C596.559 22.7618 595.733 22.7011 594.865 22.7011C581.775 22.7011 574.222 30.6425 574.222 45.9364V96.7723H549.797V2.42863H574.222V13.3572C579.936 4.49899 589.164 0.133636 601.896 0.0668505ZM147.038 24.0854C132.739 24.0854 121.022 36.0036 121.022 49.5064C121.022 63.2095 132.739 75.1277 147.038 75.1277C161.56 75.1277 173.254 63.2095 173.254 49.5064C173.254 36.0036 161.536 24.0854 147.038 24.0854ZM651.73 24.0943C644.802 24.121 638.173 26.897 633.297 31.8118C628.416 36.7267 625.696 43.3777 625.72 50.3017C625.72 63.4099 637.438 75.1277 651.742 75.1277C666.222 75.1277 677.934 63.4099 677.934 50.1014C677.91 43.1774 675.129 36.5474 670.217 31.6702C665.3 26.793 658.651 24.0679 651.73 24.0943ZM492.301 22.8953C480.977 22.8953 471.834 29.6103 468.24 39.7313L515.305 39.8163C513.933 30.2842 504.019 22.9135 492.301 22.8953Z" fill="#0056D2"/>
</g>
<defs>
<clipPath id="clip0_1502_2805">
<rect width="701.37" height="100" fill="white"/>
</clipPath>
</defs>
</svg>
