<svg width="364" height="100" viewBox="0 0 364 100" fill="none" xmlns="http://www.w3.org/2000/svg">
<path d="M145.114 56.177C141.159 56.177 138.977 53.6543 139.523 50.0407C140.136 46.3588 143.136 43.9043 147.023 43.9043C149.068 43.9043 150.909 44.8588 152 46.2907L155.818 43.1543C153.773 40.8361 150.841 39.677 147.705 39.677C141.295 39.677 135.705 43.9725 134.75 50.0407C133.795 56.177 137.886 60.4043 144.364 60.4043C147.636 60.4043 150.909 59.0407 153.773 56.7907L151.045 53.6543C149.068 55.427 147.023 56.177 145.114 56.177ZM170.75 39.8816C170.75 39.8816 169.932 39.7452 169.864 39.7452C168.977 39.6088 168.023 39.677 167.136 39.7452C166.318 39.8134 165.5 39.9498 164.682 40.2225C164 40.427 163.25 40.6998 162.636 41.1088L162.773 40.1543H158.136L155 59.927H159.636L161.477 48.4043C161.545 47.7225 161.818 47.1088 162.159 46.5634C162.5 46.0179 162.977 45.5407 163.523 45.1998C164.068 44.7907 164.614 44.5179 165.227 44.3134C165.841 44.1088 166.455 43.9725 167.136 43.9043C168.023 43.8361 168.977 43.9043 169.864 44.1088H169.932C170.068 44.1088 170.75 39.8816 170.75 39.8816ZM186.977 41.3816C185.682 40.2907 183.705 39.677 181.386 39.677C175.591 39.677 170.341 43.8361 169.318 49.9725C168.364 56.1088 172.386 60.2679 177.977 60.2679C180.5 60.2679 182.614 59.927 184.386 58.6998L184.25 59.7907H188.477L191.545 40.1543H187.182L186.977 41.3816ZM186.023 49.9725C185.409 53.7225 182.614 56.3134 179 56.3134C175.318 56.3134 173.205 53.5861 173.818 49.9043C174.432 46.2225 177.364 43.6316 180.977 43.6316C184.591 43.6998 186.568 46.2225 186.023 49.9725ZM212.955 40.1543L213.841 34.5634L208.523 38.3816L208.25 40.2225H202.25L202.864 36.4725C203.205 34.6998 205.114 34.7679 205.114 34.7679H207.364L208.045 30.677H205.455H204.841C198.5 30.677 198.295 35.5861 198.295 35.5861L197.886 37.9043L197.545 40.2225H197.136L191.955 44.3134H196.864L193.727 64.2907H198.5L201.636 44.2452H207.636L205.182 59.927H209.886L212.341 44.2452H218.205L218.886 40.1543H212.955ZM225.568 50.0407C226.523 43.9725 232.045 39.677 238.523 39.677C241.659 39.677 244.591 40.9043 246.636 43.1543L242.818 46.2907C241.727 44.8588 239.886 43.9043 237.841 43.9043C233.955 43.9043 230.955 46.427 230.341 50.0407C229.795 53.6543 231.977 56.177 235.932 56.177C237.841 56.177 239.886 55.427 241.864 53.6543L244.591 56.7907C241.727 59.1088 238.455 60.4043 235.182 60.4043C228.705 60.4043 224.614 56.177 225.568 50.0407ZM280.795 47.927L278.955 59.927H274.318L276.159 48.2679C276.636 45.5407 275.136 43.9043 272.477 43.9043C269.682 43.9043 266.886 45.6088 266.477 48.4043L264.636 59.927H260L261.841 48.2679C262.25 45.6088 260.682 43.9725 258.159 43.9043C255.568 44.0407 252.568 45.677 252.159 48.4043L250.318 59.927H245.682L248.818 40.1543H253.455L253.318 41.1088C254.886 40.1543 256.659 39.7452 258.909 39.677H259.318C262.182 39.677 264.5 40.8361 265.727 42.8134C267.636 40.8361 270.568 39.677 273.5 39.677C278.545 39.677 281.614 43.0179 280.795 47.927ZM280.591 57.5407L283.455 53.9952C285.023 55.2225 288.023 56.177 290.545 56.177C292.864 56.177 295.182 55.6998 295.455 54.1316C295.659 52.9043 293.409 52.4952 290.886 52.0861C285.636 51.1998 282.977 50.1088 283.523 46.1543C284.341 41.177 289.455 39.7452 293.682 39.7452C296.682 39.7452 299.818 40.7679 301.932 42.1998L299.068 45.7452C297.432 44.7225 295.318 43.9725 292.932 43.9725C290.136 43.9725 288.5 44.7907 288.295 46.0861C288.159 46.9725 288.909 47.3134 292.182 47.8588C296.955 48.677 300.909 49.427 300.159 53.9952C299.545 58.1543 295.318 60.4725 289.795 60.4725C286.727 60.4043 282.773 59.3134 280.591 57.5407ZM114.159 20.6543H68.1364C64.7273 20.6543 62 23.3816 62 26.7907V72.8134C62 76.2225 64.7273 78.9498 68.1364 78.9498H114.159C117.5 78.9498 120.295 76.2225 120.295 72.8134V26.7907C120.295 23.3816 117.568 20.6543 114.159 20.6543ZM91.0455 56.177C92.9545 56.177 95 55.427 96.9773 53.6543L99.7045 56.7907C96.8409 59.1088 93.5682 60.4043 90.2955 60.4043C83.8182 60.4043 79.7273 56.1088 80.6818 50.0407C81.6364 43.9725 87.1591 39.677 93.6364 39.677C96.7727 39.677 99.7045 40.9043 101.75 43.1543L97.9318 46.2907C96.8409 44.8588 95 43.9043 92.9545 43.9043C89.0682 43.9043 86.0682 46.427 85.4545 50.0407C84.9091 53.6543 87.0909 56.177 91.0455 56.177Z" fill="#E5422B"/>
</svg>
