<svg width="90" height="90" viewBox="0 0 90 90" fill="none" xmlns="http://www.w3.org/2000/svg">
<path d="M76.5789 5H13.4211C8.74269 5 5 8.74269 5 13.4211V76.5789C5 81.2573 8.74269 85 13.4211 85H76.5789C81.1637 85 85 81.2573 85 76.5789V13.4211C85 8.74269 81.2573 5 76.5789 5ZM44.8596 53.7485C47.4795 53.7485 50.2865 52.7193 53 50.2865L56.7427 54.5906C52.8129 57.7719 48.3216 59.5497 43.8304 59.5497C34.9415 59.5497 29.3275 53.655 30.6374 45.3275C31.9474 37 39.5263 31.1053 48.4152 31.1053C52.7193 31.1053 56.7427 32.7895 59.5497 35.8772L54.3099 40.1813C52.8129 38.2164 50.2866 36.9064 47.4795 36.9064C42.1462 36.9064 38.0292 40.3684 37.1871 45.3275C36.4386 50.2866 39.4328 53.7485 44.8596 53.7485Z" fill="#E5422B"/>
</svg>
