<svg width="90" height="90" viewBox="0 0 90 90" fill="none" xmlns="http://www.w3.org/2000/svg">
<path d="M14.661 49.8195C14.6806 30.4023 30.4369 14.6773 49.8552 14.6968C68.4436 14.7155 83.6464 29.1597 84.8914 47.4277C84.9374 46.6491 84.962 45.8633 84.9629 45.0736C84.9851 22.9831 67.0954 5.05645 45.0044 5.0342C22.9128 5.01166 4.98711 22.9024 4.96486 44.993C4.94262 67.085 22.8324 85.0119 44.9237 85.0342C45.8373 85.0351 46.7444 85.003 47.6414 84.9452C29.2234 83.8174 14.642 68.518 14.661 49.8195Z" fill="#F47522"/>
<path d="M69.2805 51.8562C62.2141 51.8488 56.4911 46.1133 56.4982 39.0468C56.5039 33.5039 60.0335 28.7888 64.963 27.0161C61.0602 24.9551 56.6145 23.7864 51.8947 23.7816C36.3698 23.7659 23.7729 36.3382 23.7571 51.8615C23.7417 67.3866 36.3131 79.9842 51.8381 79.9999C67.3622 80.0156 79.9603 67.4436 79.9757 51.9182C79.9775 50.1588 79.8158 48.4378 79.507 46.7668C77.1689 49.8604 73.4583 51.8601 69.2805 51.8562Z" fill="#F47522"/>
</svg>
