<svg width="382" height="100" viewBox="0 0 382 100" fill="none" xmlns="http://www.w3.org/2000/svg">
<path d="M111.294 61.9078C113.701 61.9105 115.851 61.3885 117.795 60.6049L117.79 65.8451C115.534 66.7329 113.016 67.3067 110.238 67.304C102.269 67.296 97.8727 62.5245 97.8814 53.8218C97.8903 45.1222 102.296 40.306 110.266 40.3142C113.043 40.3169 115.56 40.8967 117.814 41.7884L117.809 47.0276C115.867 46.2402 113.718 45.7689 111.311 45.7664C106.907 45.762 104.184 47.0704 104.177 53.828C104.17 60.5365 106.891 61.9036 111.294 61.9078Z" fill="#F47522"/>
<path d="M137.532 40.3418L137.526 45.7687C134.032 45.8195 130.216 45.7678 130.214 47.3104C130.21 51.5016 130.195 66.7971 130.195 66.7971L123.932 66.7907C123.932 66.7907 123.95 49.6491 123.956 43.6751C123.96 39.7798 137.532 40.3418 137.532 40.3418Z" fill="#F47522"/>
<path d="M165.325 40.7878L165.311 55.0922C165.303 62.796 162.724 67.3527 153.783 67.3438C144.815 67.3347 142.321 62.7729 142.329 55.0689L142.344 40.7647L148.507 40.7709L148.492 55.9169C148.487 60.1076 150.02 61.5411 153.789 61.5449C157.605 61.5487 159.138 60.1182 159.142 55.9276L159.157 40.7815L165.325 40.7878Z" fill="#F47522"/>
<path d="M211.175 62.028C213.593 62.0304 215.743 61.5098 217.686 60.7247L217.68 65.9691C215.426 66.8542 212.908 67.4362 210.121 67.4336C202.152 67.4256 197.744 62.6447 197.753 53.9349C197.761 45.2284 202.18 40.4069 210.148 40.4149C212.935 40.4175 215.452 40.9973 217.705 41.8911L217.699 47.1344C215.758 46.3475 213.609 45.8738 211.191 45.8713C206.791 45.8669 204.058 47.1764 204.051 53.9411C204.044 60.6562 206.775 62.0238 211.175 62.028Z" fill="#F47522"/>
<path d="M246.341 51.254L246.325 66.9142L240.114 66.9078L240.13 50.728C240.132 48.4291 239.611 45.9764 233.765 45.9704C232.047 45.9687 230.635 46.2802 229.592 46.7482L229.571 66.8973L223.312 66.8909L223.348 30.926L229.608 30.9322L229.597 41.3218C231.056 40.7495 232.783 40.4378 234.82 40.4398C242.071 40.4471 246.348 44.4691 246.341 51.254Z" fill="#F47522"/>
<path d="M254.445 77.212C259.211 65.5776 258.885 66.4893 259.211 65.5693L249.9 40.8731L256.525 40.8798L262.356 59.05L268.114 40.8915L274.742 40.898L264.796 67.5573L260.991 77.2225L254.445 77.212Z" fill="#F47522"/>
<path d="M292.682 40.498L292.678 45.9251C289.182 45.976 285.336 45.924 285.334 47.4489C285.329 51.9156 285.314 66.9536 285.314 66.9536L279.042 66.9471C279.042 66.9471 279.06 49.3296 279.065 43.8315C279.069 39.9229 292.682 40.498 292.682 40.498Z" fill="#F47522"/>
<path d="M313.736 54.0391C313.742 47.122 311.382 45.7569 307.665 45.7531C303.94 45.7495 301.58 47.1098 301.574 54.0271C301.567 60.9413 303.922 62.3056 307.649 62.3093C311.365 62.3133 313.729 60.9536 313.736 54.0391ZM320.018 54.0456C320.009 62.7458 315.605 67.5071 307.642 67.4991C299.674 67.4909 295.278 62.7209 295.287 54.0204C295.296 45.3213 299.7 40.5573 307.669 40.5653C315.631 40.5735 320.027 45.3462 320.018 54.0456Z" fill="#F47522"/>
<path d="M325.38 66.9938L325.418 31.0289L331.685 31.0351L331.649 67L325.38 66.9938Z" fill="#F47522"/>
<path d="M338.954 67.0076L338.989 31.0424L345.251 31.0489L345.216 67.0138L338.954 67.0076Z" fill="#F47522"/>
<path d="M193.673 50.5298L193.657 66.8445L187.576 66.8385L187.592 50.6598C187.594 48.3638 187.705 45.948 182.138 45.9424C180.404 45.9407 177.237 46.1624 177.236 47.2713C177.231 52.3567 177.216 66.828 177.216 66.828L171.09 66.8218C171.11 47.3207 171.108 49.3598 171.112 45.2709C171.116 40.9389 176.476 40.3644 182.962 40.3709C190.057 40.378 193.68 43.2824 193.673 50.5298Z" fill="#F47522"/>
<path d="M32.2638 53.6193C32.2785 39.0731 44.0823 27.2929 58.6294 27.3075C72.5547 27.3215 83.9438 38.1422 84.8765 51.8276C84.9109 51.2442 84.9294 50.6556 84.9301 50.064C84.9467 33.5151 71.5447 20.0855 54.9954 20.0689C38.4456 20.052 25.0167 33.4547 25 50.0036C24.9833 66.5536 38.3854 79.9834 54.9349 80C55.6194 80.0007 56.2989 79.9767 56.9709 79.9334C43.1731 79.0885 32.2496 67.6271 32.2638 53.6193Z" fill="#F47522"/>
<path d="M73.1816 55.1451C67.8878 55.1396 63.6005 50.8429 63.6058 45.5491C63.61 41.3967 66.2543 37.8644 69.9472 36.5364C67.0234 34.9924 63.6929 34.1169 60.1572 34.1133C48.5267 34.1015 39.0898 43.52 39.078 55.1491C39.0665 66.7796 48.4843 76.2169 60.1147 76.2287C71.7445 76.2405 81.1823 66.8222 81.1938 55.1916C81.1952 53.8736 81.0741 52.5842 80.8427 51.3324C79.0912 53.65 76.3114 55.148 73.1816 55.1451Z" fill="#F47522"/>
<path d="M354.685 33.3584C354.685 33.7 354.367 33.8791 354.051 33.8791H353.225V32.8255H354.038C354.407 32.8255 354.685 33.0547 354.685 33.3584ZM355.251 33.3584C355.251 32.8511 354.825 32.312 354.038 32.312H352.878C352.767 32.312 352.687 32.3984 352.687 32.5178V35.2313C352.687 35.3449 352.765 35.4242 352.878 35.4242H353.031C353.145 35.4242 353.225 35.3449 353.225 35.2313V34.3795H353.756L354.64 35.3242C354.691 35.3904 354.762 35.4242 354.854 35.4242H355.058C355.14 35.4242 355.203 35.3911 355.231 35.3338C355.247 35.3007 355.26 35.2327 355.187 35.1433L354.416 34.3167C354.916 34.2138 355.251 33.8395 355.251 33.3584Z" fill="#F47522"/>
<path d="M356.418 33.9191C356.418 35.2249 355.271 36.2869 353.86 36.2869C352.449 36.2869 351.3 35.2249 351.3 33.9191C351.3 32.6067 352.449 31.5389 353.86 31.5389C355.271 31.5389 356.418 32.6067 356.418 33.9191ZM353.86 30.9618C352.058 30.9618 350.647 32.2609 350.647 33.9191C350.647 35.5775 352.058 36.8769 353.86 36.8769C355.66 36.8769 357.071 35.5775 357.071 33.9191C357.071 32.2609 355.66 30.9618 353.86 30.9618Z" fill="#F47522"/>
</svg>
