<svg width="300" height="100" viewBox="0 0 300 100" fill="none" xmlns="http://www.w3.org/2000/svg">
<path d="M88.9221 39.5918H80.1328V44.7209H88.9221V39.5918Z" fill="#29AB70"/>
<path d="M88.9221 46.7349H80.1328V51.864H88.9221V46.7349Z" fill="url(#paint0_linear_895_3511)"/>
<path d="M88.9221 53.8744H80.1328V59.0035H88.9221V53.8744Z" fill="url(#paint1_linear_895_3511)"/>
<path d="M57.0626 61.0183H48.2734V66.1474H57.0626V61.0183Z" fill="url(#paint2_linear_895_3511)"/>
<path d="M67.6837 61.0183H58.8945V66.1474H67.6837V61.0183Z" fill="url(#paint3_linear_895_3511)"/>
<path d="M78.3048 61.0183H69.5156V66.1474H78.3048V61.0183Z" fill="url(#paint4_linear_895_3511)"/>
<path d="M88.9221 61.0183H80.1328V66.1474H88.9221V61.0183Z" fill="url(#paint5_linear_895_3511)"/>
<path d="M78.3048 53.8744H69.5156V59.0035H78.3048V53.8744Z" fill="url(#paint6_linear_895_3511)"/>
<path d="M67.6837 53.8744H58.8945V59.0035H67.6837V53.8744Z" fill="url(#paint7_linear_895_3511)"/>
<path d="M67.6837 46.7349H58.8945V51.864H67.6837V46.7349Z" fill="url(#paint8_linear_895_3511)"/>
<path fill-rule="evenodd" clip-rule="evenodd" d="M108.437 38.6062C112.189 38.6062 115.215 40.4009 116.844 43.1478V26.5H124.015V65.7319H117.123V61.923C115.385 64.6664 112.359 66.2947 108.603 66.2947C101.095 66.2947 95.8242 60.8009 95.8242 52.5637C95.8242 44.2133 101.148 38.6062 108.437 38.6062ZM102.978 52.5814C102.978 57.2894 106.079 60.2027 110.058 60.2027C113.923 60.2027 117.12 57.2717 117.12 52.5814C117.12 47.8204 113.923 44.7938 110.058 44.7938C106.061 44.7938 102.978 47.8168 102.978 52.5814Z" fill="#000008"/>
<path fill-rule="evenodd" clip-rule="evenodd" d="M159.561 53.7958C159.617 57.8312 162.754 60.1285 166.566 60.1285C169.815 60.1285 171.89 58.6171 172.732 55.6011L178.867 57.9976C177.015 63.1551 172.7 66.2949 166.477 66.2949C158.24 66.2949 152.41 60.6878 152.41 52.2807C152.41 44.7161 157.791 38.6064 165.638 38.6064C172.98 38.6064 177.968 43.2578 177.968 50.5463C177.969 51.6391 177.85 52.7289 177.614 53.7958H159.561ZM170.994 48.8082C170.994 46.118 168.8 44.3799 165.614 44.3799C162.7 44.3799 160.233 46.118 159.561 49.0312H170.938L170.994 48.8082Z" fill="#000008"/>
<path d="M179.17 59.5691L193.743 45.3319H179.619V39.1655H202.766V45.0523L188.136 59.2859H203.159V65.7319H179.17V59.5691Z" fill="#000008"/>
<path d="M245.997 47.7427C245.999 48.1891 245.97 48.635 245.909 49.0772H252.709C252.874 48.2128 252.953 47.3342 252.946 46.4542C252.946 41.9126 250.089 38.6064 245.325 38.6064C242.242 38.6064 240.057 40.1215 238.935 42.5852V39.1693H231.764V65.7179H238.935V48.6383C238.935 45.948 240.394 44.4365 242.634 44.4365C244.652 44.4365 245.997 45.7817 245.997 47.7427Z" fill="#000008"/>
<path fill-rule="evenodd" clip-rule="evenodd" d="M217.663 60.1285C213.85 60.1285 210.714 57.8312 210.657 53.7958H228.71C228.947 52.7289 229.066 51.6391 229.064 50.5463C229.064 43.2578 224.077 38.6064 216.735 38.6064C208.887 38.6064 203.507 44.7161 203.507 52.2807C203.507 60.6878 209.337 66.2949 217.574 66.2949C223.797 66.2949 228.112 63.1551 229.963 57.9976L223.825 55.6011C222.986 58.6171 220.916 60.1285 217.663 60.1285ZM216.71 44.3799C219.896 44.3799 222.091 46.118 222.091 48.8082L222.034 49.0312H210.65C211.33 46.118 213.794 44.3799 216.71 44.3799Z" fill="#000008"/>
<path fill-rule="evenodd" clip-rule="evenodd" d="M133.07 53.7953C133.127 57.8307 136.263 60.128 140.076 60.128C143.325 60.128 145.4 58.6166 146.242 55.6006L152.359 57.9971C150.508 63.1546 146.193 66.2945 139.97 66.2945C131.732 66.2945 125.902 60.6873 125.902 52.2803C125.902 44.7157 131.283 38.606 139.131 38.606C146.472 38.606 151.46 43.2573 151.46 50.5458C151.469 51.6381 151.356 52.728 151.124 53.7953H133.07ZM144.504 48.8077C144.504 46.1175 142.309 44.3794 139.124 44.3794C136.21 44.3794 133.743 46.1175 133.07 49.0307H144.447L144.504 48.8077Z" fill="#000008"/>
<defs>
<linearGradient id="paint0_linear_895_3511" x1="85.0992" y1="52.5365" x2="83.9559" y2="46.0588" gradientUnits="userSpaceOnUse">
<stop stop-color="#2C8C9D"/>
<stop offset="0.04" stop-color="#298E9A"/>
<stop offset="0.39" stop-color="#129C83"/>
<stop offset="0.72" stop-color="#05A475"/>
<stop offset="1" stop-color="#00A770"/>
</linearGradient>
<linearGradient id="paint1_linear_895_3511" x1="80.0018" y1="58.7451" x2="89.0531" y2="54.1328" gradientUnits="userSpaceOnUse">
<stop stop-color="#2839BA"/>
<stop offset="1" stop-color="#148CB3"/>
</linearGradient>
<linearGradient id="paint2_linear_895_3511" x1="48.2734" y1="63.5811" x2="57.0626" y2="63.5811" gradientUnits="userSpaceOnUse">
<stop stop-color="#F6A500"/>
<stop offset="1" stop-color="#F29100"/>
</linearGradient>
<linearGradient id="paint3_linear_895_3511" x1="58.8945" y1="63.5811" x2="67.6837" y2="63.5811" gradientUnits="userSpaceOnUse">
<stop stop-color="#F29100"/>
<stop offset="1" stop-color="#D12F5F"/>
</linearGradient>
<linearGradient id="paint4_linear_895_3511" x1="69.5156" y1="63.5811" x2="78.3048" y2="63.5811" gradientUnits="userSpaceOnUse">
<stop stop-color="#B4197C"/>
<stop offset="1" stop-color="#472EAD"/>
</linearGradient>
<linearGradient id="paint5_linear_895_3511" x1="80.1328" y1="63.5811" x2="88.9221" y2="63.5811" gradientUnits="userSpaceOnUse">
<stop stop-color="#2839BA"/>
<stop offset="1" stop-color="#3072B7"/>
</linearGradient>
<linearGradient id="paint6_linear_895_3511" x1="69.1687" y1="57.8247" x2="78.6481" y2="55.0532" gradientUnits="userSpaceOnUse">
<stop stop-color="#B4197C"/>
<stop offset="1" stop-color="#373AAC"/>
</linearGradient>
<linearGradient id="paint7_linear_895_3511" x1="58.5866" y1="54.7275" x2="67.9952" y2="58.1504" gradientUnits="userSpaceOnUse">
<stop stop-color="#FFCB00"/>
<stop offset="1" stop-color="#D12F5F"/>
</linearGradient>
<linearGradient id="paint8_linear_895_3511" x1="59.6379" y1="45.9278" x2="66.9404" y2="52.6674" gradientUnits="userSpaceOnUse">
<stop stop-color="#FFCF00"/>
<stop offset="1" stop-color="#ED743B"/>
</linearGradient>
</defs>
</svg>
