<svg width="90" height="90" viewBox="0 0 90 90" fill="none" xmlns="http://www.w3.org/2000/svg">
<path d="M84.1987 19H67.0742V28.9931H84.1987V19Z" fill="#29AB70"/>
<path d="M84.1987 32.917H67.0742V42.9101H84.1987V32.917Z" fill="url(#paint0_linear_895_3499)"/>
<path d="M84.1987 46.8271H67.0742V56.8203H84.1987V46.8271Z" fill="url(#paint1_linear_895_3499)"/>
<path d="M22.1242 60.7456H5V70.7387H22.1242V60.7456Z" fill="url(#paint2_linear_895_3499)"/>
<path d="M42.8155 60.7456H25.6914V70.7387H42.8155V60.7456Z" fill="url(#paint3_linear_895_3499)"/>
<path d="M63.507 60.7456H46.3828V70.7387H63.507V60.7456Z" fill="url(#paint4_linear_895_3499)"/>
<path d="M84.1987 60.7456H67.0742V70.7387H84.1987V60.7456Z" fill="url(#paint5_linear_895_3499)"/>
<path d="M63.507 46.8271H46.3828V56.8203H63.507V46.8271Z" fill="url(#paint6_linear_895_3499)"/>
<path d="M42.8155 46.8271H25.6914V56.8203H42.8155V46.8271Z" fill="url(#paint7_linear_895_3499)"/>
<path d="M42.8155 32.917H25.6914V42.9101H42.8155V32.917Z" fill="url(#paint8_linear_895_3499)"/>
<defs>
<linearGradient id="paint0_linear_895_3499" x1="76.7504" y1="44.2204" x2="74.5228" y2="31.5998" gradientUnits="userSpaceOnUse">
<stop stop-color="#2C8C9D"/>
<stop offset="0.04" stop-color="#298E9A"/>
<stop offset="0.39" stop-color="#129C83"/>
<stop offset="0.72" stop-color="#05A475"/>
<stop offset="1" stop-color="#00A770"/>
</linearGradient>
<linearGradient id="paint1_linear_895_3499" x1="66.819" y1="56.3168" x2="84.4539" y2="47.3306" gradientUnits="userSpaceOnUse">
<stop stop-color="#2839BA"/>
<stop offset="1" stop-color="#148CB3"/>
</linearGradient>
<linearGradient id="paint2_linear_895_3499" x1="5" y1="65.7387" x2="22.1242" y2="65.7387" gradientUnits="userSpaceOnUse">
<stop stop-color="#F6A500"/>
<stop offset="1" stop-color="#F29100"/>
</linearGradient>
<linearGradient id="paint3_linear_895_3499" x1="25.6914" y1="65.7387" x2="42.8155" y2="65.7387" gradientUnits="userSpaceOnUse">
<stop stop-color="#F29100"/>
<stop offset="1" stop-color="#D12F5F"/>
</linearGradient>
<linearGradient id="paint4_linear_895_3499" x1="46.3828" y1="65.7387" x2="63.507" y2="65.7387" gradientUnits="userSpaceOnUse">
<stop stop-color="#B4197C"/>
<stop offset="1" stop-color="#472EAD"/>
</linearGradient>
<linearGradient id="paint5_linear_895_3499" x1="67.0742" y1="65.7387" x2="84.1987" y2="65.7387" gradientUnits="userSpaceOnUse">
<stop stop-color="#2839BA"/>
<stop offset="1" stop-color="#3072B7"/>
</linearGradient>
<linearGradient id="paint6_linear_895_3499" x1="45.707" y1="54.5237" x2="64.1759" y2="49.1237" gradientUnits="userSpaceOnUse">
<stop stop-color="#B4197C"/>
<stop offset="1" stop-color="#373AAC"/>
</linearGradient>
<linearGradient id="paint7_linear_895_3499" x1="25.0914" y1="48.4892" x2="43.4224" y2="55.1582" gradientUnits="userSpaceOnUse">
<stop stop-color="#FFCB00"/>
<stop offset="1" stop-color="#D12F5F"/>
</linearGradient>
<linearGradient id="paint8_linear_895_3499" x1="27.1397" y1="31.3445" x2="41.3673" y2="44.4755" gradientUnits="userSpaceOnUse">
<stop stop-color="#FFCF00"/>
<stop offset="1" stop-color="#ED743B"/>
</linearGradient>
</defs>
</svg>
