<svg width="332" height="100" viewBox="0 0 332 100" fill="none" xmlns="http://www.w3.org/2000/svg">
<path d="M45.3014 74.5661V65.0515C55.3985 65.0515 63.1655 55.0515 59.3305 44.469C57.8742 40.5369 54.7674 37.3816 50.8354 35.9738C40.2528 32.1389 30.2528 39.9059 30.2528 50.0029H20.7383C20.7383 33.935 36.2723 21.4107 53.1169 26.6534C60.4956 28.935 66.3208 34.8088 68.6024 42.1389C73.8451 59.0321 61.3693 74.5661 45.3014 74.5661Z" fill="#0080FF"/>
<path fill-rule="evenodd" clip-rule="evenodd" d="M45.3004 65.051H35.8344V55.585H45.3004V65.051Z" fill="#0080FF"/>
<path fill-rule="evenodd" clip-rule="evenodd" d="M35.8344 72.3326H28.5528V65.051L35.8344 65.051L35.8344 72.3326Z" fill="#0080FF"/>
<path fill-rule="evenodd" clip-rule="evenodd" d="M28.5528 65.051H22.4356V58.9831H28.5521L28.5528 65.051Z" fill="#0080FF"/>
<path d="M108.108 39.6601C105.293 37.7184 101.797 36.6989 97.7198 36.6989H88.8363V64.9028H97.7198C101.797 64.9028 105.293 63.8834 108.108 61.796C109.662 60.7281 110.875 59.1747 111.7 57.2815C112.526 55.3883 112.963 53.1553 112.963 50.631C112.963 48.1553 112.526 45.9222 111.7 44.029C110.875 42.1844 109.662 40.6795 108.108 39.6601ZM94.0305 41.5048H96.846C99.9528 41.5048 102.526 42.1358 104.467 43.3009C106.603 44.6116 107.72 47.0873 107.72 50.631C107.72 54.3203 106.603 56.8931 104.467 58.3009C102.623 59.5145 100.05 60.1455 96.8946 60.1455H94.079V41.5048H94.0305Z" fill="#0080FF"/>
<path d="M119.177 36.359C118.303 36.359 117.575 36.6503 116.992 37.2328C116.41 37.8154 116.07 38.5435 116.07 39.3688C116.07 40.2425 116.361 40.9707 116.992 41.5532C117.575 42.1357 118.303 42.4755 119.177 42.4755C120.051 42.4755 120.779 42.1843 121.361 41.5532C121.944 40.9707 122.284 40.194 122.284 39.3688C122.284 38.495 121.992 37.7668 121.361 37.2328C120.779 36.6503 120.002 36.359 119.177 36.359Z" fill="#0080FF"/>
<path d="M121.603 45.0486H116.603V64.9515H121.603V45.0486Z" fill="#0080FF"/>
<path d="M139.808 46.699C138.303 45.3398 136.604 44.5631 134.808 44.5631C132.041 44.5631 129.759 45.534 127.963 47.3786C126.167 49.2233 125.293 51.6505 125.293 54.5146C125.293 57.3301 126.167 59.7087 127.963 61.6505C129.759 63.4952 132.041 64.466 134.808 64.466C136.75 64.466 138.4 63.932 139.759 62.8641V63.3495C139.759 65 139.323 66.2621 138.449 67.1845C137.575 68.0583 136.361 68.4952 134.856 68.4952C132.526 68.4952 131.119 67.5728 129.323 65.1942L125.924 68.4466L126.022 68.5922C126.75 69.6117 127.866 70.6311 129.371 71.602C130.876 72.5728 132.721 73.0583 134.954 73.0583C137.915 73.0583 140.342 72.1359 142.089 70.3398C143.886 68.5437 144.759 66.1165 144.759 63.1068V45.0486H139.856V46.699H139.808ZM138.497 58.4466C137.623 59.4175 136.507 59.9029 135.051 59.9029C133.594 59.9029 132.478 59.4175 131.653 58.4466C130.779 57.4757 130.342 56.1651 130.342 54.5631C130.342 52.9612 130.779 51.6019 131.653 50.6311C132.526 49.6602 133.643 49.1262 135.051 49.1262C136.507 49.1262 137.623 49.6117 138.497 50.6311C139.371 51.6019 139.808 52.9612 139.808 54.5631C139.808 56.1651 139.323 57.4757 138.497 58.4466Z" fill="#0080FF"/>
<path d="M153.981 45.0486H148.981V64.9515H153.981V45.0486Z" fill="#0080FF"/>
<path d="M151.555 36.359C150.681 36.359 149.953 36.6503 149.371 37.2328C148.788 37.8154 148.448 38.5435 148.448 39.3688C148.448 40.2425 148.74 40.9707 149.371 41.5532C149.953 42.1357 150.681 42.4755 151.555 42.4755C152.429 42.4755 153.157 42.1843 153.74 41.5532C154.322 40.9707 154.662 40.194 154.662 39.3688C154.662 38.495 154.371 37.7668 153.74 37.2328C153.157 36.6503 152.38 36.359 151.555 36.359Z" fill="#0080FF"/>
<path d="M160.05 39.7087V45.0971H157.186V49.6602H160.05V57.9126C160.05 60.4854 160.584 62.3301 161.604 63.3981C162.623 64.466 164.419 65 166.992 65C167.817 65 168.643 64.9515 169.419 64.9029H169.662V60.3398L167.963 60.4369C166.749 60.4369 165.973 60.2427 165.584 59.8058C165.196 59.3689 165.002 58.4952 165.002 57.1845V49.6117H169.662V45.0486H165.002V39.7087H160.05Z" fill="#0080FF"/>
<path d="M198.059 36.6989H193.059V64.9028H198.059V36.6989Z" fill="#0080FF"/>
<path d="M248.594 57.8154C247.72 58.8349 246.797 59.7087 246.069 60.1455C245.39 60.5824 244.516 60.8252 243.497 60.8252C242.04 60.8252 240.827 60.2912 239.856 59.1747C238.885 58.0582 238.399 56.6504 238.399 54.9514C238.399 53.2523 238.885 51.8446 239.807 50.7766C240.778 49.6601 241.943 49.1261 243.399 49.1261C245.001 49.1261 246.7 50.1455 248.157 51.8446L251.458 48.6892C249.322 45.8737 246.555 44.563 243.254 44.563C240.487 44.563 238.108 45.5824 236.166 47.5242C234.225 49.4659 233.254 51.9902 233.254 54.9514C233.254 57.9125 234.225 60.3883 236.166 62.3786C238.108 64.3688 240.487 65.3397 243.254 65.3397C246.895 65.3397 249.807 63.7863 251.749 60.9222L248.594 57.8154Z" fill="#0080FF"/>
<path d="M269.128 47.8155C268.4 46.8447 267.429 46.0194 266.264 45.4369C265.05 44.8544 263.691 44.5631 262.138 44.5631C259.322 44.5631 257.041 45.5825 255.342 47.6214C253.691 49.6602 252.817 52.1359 252.817 55.0971C252.817 58.1068 253.74 60.5825 255.584 62.5243C257.38 64.4175 259.856 65.3884 262.817 65.3884C266.167 65.3884 268.982 64.0291 271.021 61.3107L271.118 61.1651L267.866 58.0097C267.575 58.3981 267.138 58.7864 266.749 59.1748C266.264 59.6602 265.778 60 265.293 60.2427C264.565 60.6311 263.691 60.7767 262.769 60.7767C261.361 60.7767 260.244 60.3884 259.371 59.5631C258.545 58.835 258.06 57.8155 257.963 56.5534H271.215L271.264 54.7087C271.264 53.3981 271.07 52.1845 270.73 51.0194C270.39 49.9029 269.856 48.835 269.128 47.8155ZM258.206 52.5243C258.448 51.5534 258.885 50.7767 259.516 50.1456C260.196 49.466 261.07 49.1262 262.138 49.1262C263.351 49.1262 264.274 49.466 264.905 50.1456C265.487 50.7767 265.827 51.5534 265.924 52.4757H258.206V52.5243Z" fill="#0080FF"/>
<path d="M288.35 46.5532C286.846 45.2425 284.758 44.6115 282.137 44.6115C280.486 44.6115 278.933 44.9998 277.525 45.6794C276.215 46.359 274.952 47.427 274.127 48.8833L274.176 48.9319L277.38 51.9901C278.69 49.9027 280.147 49.1746 282.088 49.1746C283.156 49.1746 283.982 49.4658 284.661 49.9998C285.341 50.5338 285.632 51.262 285.632 52.1357V53.1066C284.37 52.7183 283.156 52.5241 281.943 52.5241C279.467 52.5241 277.428 53.1066 275.923 54.2717C274.418 55.4367 273.642 57.1357 273.642 59.2231C273.642 61.0678 274.273 62.6212 275.583 63.7377C276.894 64.8056 278.496 65.3882 280.389 65.3882C282.283 65.3882 284.079 64.6115 285.681 63.3008V64.9513H290.583V52.1357C290.681 49.7571 289.904 47.8639 288.35 46.5532ZM279.467 57.3299C280.049 56.9416 280.826 56.7474 281.846 56.7474C283.059 56.7474 284.321 56.9901 285.632 57.4755V59.4173C284.564 60.4367 283.108 60.9221 281.312 60.9221C280.438 60.9221 279.758 60.728 279.321 60.3396C278.884 59.9513 278.642 59.5144 278.642 58.8833C278.642 58.2522 278.933 57.7183 279.467 57.3299Z" fill="#0080FF"/>
<path d="M309.904 46.9416C308.496 45.3882 306.554 44.6115 304.078 44.6115C302.088 44.6115 300.486 45.194 299.272 46.3105V45.0969H294.37V64.9998H299.37V53.9804C299.37 52.4755 299.709 51.262 300.438 50.4367C301.166 49.5629 302.088 49.1746 303.399 49.1746C304.515 49.1746 305.389 49.5629 306.02 50.2911C306.651 51.0678 306.991 52.0872 306.991 53.3979V64.9027H311.991V53.3979C311.991 50.6794 311.311 48.495 309.904 46.9416Z" fill="#0080FF"/>
<path d="M186.797 46.5533C185.293 45.2426 183.205 44.6116 180.584 44.6116C178.933 44.6116 177.38 44.9999 175.972 45.6795C174.662 46.3591 173.399 47.4271 172.574 48.8834L172.623 48.932L175.827 51.9902C177.137 49.9028 178.594 49.1747 180.535 49.1747C181.603 49.1747 182.429 49.4659 183.108 49.9999C183.788 50.5339 184.079 51.2621 184.079 52.1358V53.1067C182.817 52.7184 181.603 52.5242 180.39 52.5242C177.914 52.5242 175.875 53.1067 174.37 54.2718C172.865 55.4368 172.089 57.1358 172.089 59.2232C172.089 61.0679 172.72 62.6213 174.03 63.7378C175.341 64.8057 176.943 65.3883 178.836 65.3883C180.73 65.3883 182.526 64.6116 184.128 63.3009V64.9514H189.031V52.1358C189.079 49.7572 188.302 47.864 186.797 46.5533ZM177.914 57.33C178.497 56.9417 179.273 56.7475 180.293 56.7475C181.506 56.7475 182.768 56.9902 184.079 57.4756V59.4174C183.011 60.4368 181.555 60.9222 179.759 60.9222C178.885 60.9222 178.205 60.7281 177.768 60.3397C177.331 59.9514 177.089 59.5145 177.089 58.8834C177.089 58.2523 177.331 57.7184 177.914 57.33Z" fill="#0080FF"/>
<path d="M216.214 65.3397C208.204 65.3397 201.651 58.8349 201.651 50.7766C201.651 42.7184 208.156 36.2135 216.214 36.2135C224.224 36.2135 230.777 42.7184 230.777 50.7766C230.777 58.8349 224.224 65.3397 216.214 65.3397ZM216.214 41.4077C211.02 41.4077 206.797 45.631 206.797 50.8252C206.797 56.0193 211.02 60.2426 216.214 60.2426C221.408 60.2426 225.632 56.0193 225.632 50.8252C225.632 45.631 221.408 41.4077 216.214 41.4077Z" fill="#0080FF"/>
</svg>
