<svg width="300" height="100" viewBox="0 0 300 100" fill="none" xmlns="http://www.w3.org/2000/svg">
<path fill-rule="evenodd" clip-rule="evenodd" d="M71.2089 28.501C75.3451 29.2008 79.3718 30.4396 83.1861 32.1859C89.7569 41.7932 93.0218 52.6288 91.8163 65.1311C87.3765 68.4139 82.4041 70.907 77.1176 72.501C75.9272 70.9037 74.8747 69.2081 73.9714 67.4325C75.6922 66.7894 77.353 65.9964 78.9349 65.0626C78.524 64.7841 78.1176 64.4736 77.7203 64.1494C73.1262 66.3098 68.112 67.43 63.0353 67.43C57.9586 67.43 52.9444 66.3098 48.3503 64.1494C47.9576 64.4507 47.5512 64.7612 47.1357 65.0626C48.7145 65.9949 50.3724 66.7864 52.0901 67.4279C51.1857 69.2043 50.1333 70.9013 48.9439 72.501C43.6619 70.9005 38.6934 68.4063 34.2543 65.1265C33.2269 54.3457 35.2817 43.4097 42.8617 32.195C46.6798 30.4485 50.7092 29.2067 54.8481 28.501C55.4138 29.5129 55.926 30.5539 56.3823 31.6197C60.7882 30.9558 65.2687 30.9558 69.6746 31.6197C70.1307 30.5538 70.6429 29.5128 71.2089 28.501ZM48.1631 52.7019C48.1631 55.8982 50.5284 58.4964 53.3914 58.4964C56.3093 58.4964 58.565 55.8982 58.6152 52.7019C58.6654 49.5055 56.3184 46.8845 53.3823 46.8845C50.4462 46.8845 48.1631 49.5055 48.1631 52.7019ZM67.4554 52.7019C67.4554 55.8982 69.8116 58.4964 72.6792 58.4964C75.597 58.4964 77.8482 55.8982 77.8984 52.7019C77.9486 49.5055 75.6199 46.8845 72.6792 46.8845C69.7385 46.8845 67.4554 49.5055 67.4554 52.7019Z" fill="#5865F2"/>
<path fill-rule="evenodd" clip-rule="evenodd" d="M266.279 37.085V60.0987H258.448V55.8977C257.857 57.3933 256.796 58.6562 255.425 59.4959C253.911 60.3584 252.189 60.788 250.448 60.7379C248.809 60.7761 247.195 60.3263 245.813 59.4457C244.474 58.5759 243.407 57.3462 242.735 55.8977C242.002 54.2989 241.637 52.556 241.667 50.7973C241.615 48.9739 242.003 47.1648 242.799 45.5233C243.53 44.0198 244.672 42.7535 246.091 41.8703C247.551 40.9862 249.23 40.532 250.936 40.5598C254.662 40.5598 257.166 42.1793 258.448 45.4183V37.085H266.279ZM257.297 53.6146C257.696 53.2218 258.009 52.7501 258.216 52.2297C258.422 51.7093 258.519 51.1514 258.498 50.5918C258.515 50.0489 258.416 49.5086 258.209 49.0065C258.003 48.5044 257.691 48.0518 257.297 47.6786C256.401 46.9491 255.281 46.5509 254.126 46.5509C252.97 46.5509 251.85 46.9491 250.954 47.6786C250.561 48.0604 250.252 48.5207 250.048 49.0298C249.845 49.5388 249.75 50.085 249.772 50.6329C249.752 51.1859 249.848 51.737 250.054 52.2506C250.26 52.7642 250.571 53.2289 250.968 53.6146C251.388 54.0046 251.881 54.3069 252.419 54.5037C252.957 54.7005 253.528 54.7879 254.101 54.7608C254.683 54.7929 255.266 54.7081 255.815 54.5112C256.364 54.3144 256.868 54.0095 257.297 53.6146Z" fill="#5865F2"/>
<path fill-rule="evenodd" clip-rule="evenodd" d="M112.022 37.7246H124.488C127.493 37.7246 130.035 38.1934 132.114 39.131C134.028 39.9358 135.654 41.3017 136.776 43.0488C137.827 44.7747 138.365 46.7637 138.329 48.784C138.352 50.8135 137.792 52.807 136.717 54.5283C135.517 56.3465 133.801 57.7649 131.79 58.6013C129.586 59.6059 126.854 60.1066 123.593 60.1036H112.022V37.7246ZM123.465 54.4095C125.49 54.4095 127.045 53.9042 128.132 52.8936C128.683 52.3592 129.114 51.7132 129.395 50.999C129.676 50.2847 129.801 49.5186 129.762 48.752C129.796 48.0404 129.685 47.3293 129.435 46.6621C129.186 45.9948 128.803 45.3853 128.31 44.8707C127.336 43.9027 125.87 43.4172 123.913 43.4141H120.013V54.4095H123.465Z" fill="#5865F2"/>
<path d="M156.995 60.0671C155.35 59.655 153.777 58.9977 152.328 58.1173V52.8114C153.593 53.7315 155.017 54.4095 156.529 54.8114C158.183 55.3159 159.901 55.5789 161.63 55.5922C162.226 55.6241 162.822 55.5211 163.374 55.2908C163.767 55.0899 163.963 54.8342 163.963 54.5694C163.967 54.4214 163.941 54.2741 163.886 54.1367C163.831 53.9993 163.748 53.8745 163.643 53.7703C163.279 53.4898 162.85 53.3032 162.397 53.2269L158.561 52.3639C156.363 51.8525 154.803 51.1447 153.881 50.2406C153.418 49.7736 153.057 49.2154 152.821 48.6015C152.585 47.9876 152.479 47.3313 152.511 46.6744C152.495 45.4839 152.929 44.3312 153.725 43.4461C154.67 42.4473 155.86 41.715 157.177 41.3228C158.873 40.79 160.643 40.5356 162.42 40.5694C164.078 40.5538 165.732 40.7471 167.342 41.1447C168.642 41.4529 169.891 41.9481 171.05 42.615V47.6379C169.963 47.0077 168.796 46.5298 167.579 46.2178C166.261 45.8644 164.903 45.6863 163.538 45.6881C161.535 45.6881 160.534 46.0291 160.534 46.7109C160.53 46.8628 160.572 47.0122 160.653 47.1406C160.734 47.2689 160.852 47.3704 160.99 47.4324C161.538 47.6651 162.111 47.8307 162.698 47.9255L165.894 48.5009C167.971 48.8662 169.518 49.5055 170.538 50.4187C171.558 51.3319 172.069 52.6683 172.073 54.4278C172.089 55.3531 171.863 56.2664 171.416 57.0771C170.97 57.8878 170.32 58.5676 169.529 59.0488C167.846 60.1782 165.442 60.7414 162.319 60.7383C160.523 60.7411 158.734 60.5156 156.995 60.0671Z" fill="#5865F2"/>
<path d="M175.484 55.7435C176.476 57.3409 177.916 58.6112 179.625 59.3964C181.711 60.3482 183.986 60.8106 186.278 60.748C189.137 60.809 191.958 60.079 194.429 58.6384V52.9763C193.59 53.464 192.695 53.846 191.762 54.1133C190.74 54.4187 189.678 54.5725 188.611 54.5699C186.544 54.5699 184.968 54.2031 183.881 53.4695C183.382 53.1804 182.968 52.7642 182.682 52.2634C182.396 51.7626 182.248 51.195 182.253 50.6183C182.258 50.0416 182.415 49.4765 182.709 48.9803C183.003 48.4842 183.423 48.0747 183.926 47.7937C185.047 47.0692 186.598 46.7069 188.579 46.7069C189.663 46.6982 190.742 46.86 191.776 47.1864C192.699 47.4735 193.576 47.8934 194.379 48.433V42.5745C192.269 41.232 189.616 40.5608 186.42 40.5608C184.135 40.5022 181.866 40.9448 179.771 41.8576C178.048 42.6092 176.582 43.8469 175.552 45.4193C174.586 46.9597 174.086 48.7471 174.114 50.5654C174.084 52.3847 174.558 54.1769 175.484 55.7435Z" fill="#5865F2"/>
<path fill-rule="evenodd" clip-rule="evenodd" d="M202.337 59.3959C200.609 58.6068 199.144 57.3391 198.114 55.7429C197.143 54.1801 196.639 52.3724 196.661 50.5328C196.631 48.7151 197.136 46.9284 198.114 45.3959C199.149 43.8402 200.608 42.6138 202.319 41.8616C206.521 40.1568 211.222 40.1568 215.424 41.8616C217.128 42.608 218.582 43.8285 219.611 45.3776C220.583 46.9158 221.083 48.7047 221.05 50.5237C221.072 52.3614 220.574 54.168 219.611 55.7338C218.593 57.3311 217.134 58.5997 215.41 59.3867C213.345 60.2725 211.121 60.7292 208.874 60.7292C206.627 60.7292 204.403 60.2725 202.337 59.3867V59.3959ZM212.05 53.7246C212.445 53.3169 212.752 52.8328 212.953 52.302C213.154 51.7712 213.244 51.2049 213.219 50.6379C213.246 50.0761 213.157 49.5148 212.955 48.9897C212.754 48.4645 212.446 47.987 212.05 47.5876C211.62 47.1938 211.116 46.8901 210.567 46.6948C210.018 46.4995 209.435 46.4165 208.853 46.4507C208.272 46.4201 207.69 46.5048 207.142 46.6999C206.593 46.8951 206.089 47.1967 205.657 47.5876C205.263 47.9879 204.955 48.4657 204.755 48.9907C204.555 49.5157 204.465 50.0766 204.493 50.6379C204.467 51.2045 204.557 51.7704 204.757 52.301C204.957 52.8317 205.264 53.3161 205.657 53.7246C206.084 54.1234 206.588 54.432 207.137 54.6321C207.686 54.8321 208.27 54.9195 208.853 54.889C209.437 54.923 210.022 54.8372 210.572 54.637C211.121 54.4368 211.624 54.1263 212.05 53.7246Z" fill="#5865F2"/>
<path d="M240.26 48.6562V41.7429C239.384 41.2141 238.374 40.9479 237.351 40.9758C236.666 40.9551 235.985 41.0832 235.354 41.3512C234.724 41.6193 234.159 42.0208 233.698 42.5283C232.748 43.5603 232.06 45.163 231.634 47.3365V41.4004H223.963V60.0991H231.794V54.2178C231.794 52.0443 232.251 50.4415 233.164 49.4096C234.077 48.3776 235.392 47.8571 237.095 47.8571C238.206 47.809 239.306 48.0867 240.26 48.6562Z" fill="#5865F2"/>
<path d="M144.931 43.3916C147.088 43.3916 148.836 41.8216 148.836 39.8848C148.836 37.948 147.088 36.3779 144.931 36.3779C142.775 36.3779 141.027 37.948 141.027 39.8848C141.027 41.8216 142.775 43.3916 144.931 43.3916Z" fill="#5865F2"/>
<path d="M144.928 46.5942C143.586 46.5942 142.258 46.3264 141.021 45.8066V60.1993H148.834V45.8066C147.598 46.3264 146.269 46.5942 144.928 46.5942Z" fill="#5865F2"/>
</svg>
