<svg width="90" height="90" viewBox="0 0 90 90" fill="none" xmlns="http://www.w3.org/2000/svg">
<path d="M72.7676 20.0778C67.5115 17.6715 61.9627 15.9643 56.263 15C55.4831 16.3943 54.7773 17.8288 54.1488 19.2976C48.0775 18.3827 41.9034 18.3827 35.832 19.2976C35.2032 17.829 34.4975 16.3944 33.7178 15C28.0144 15.9725 22.462 17.6837 17.2006 20.0904C6.75548 35.544 3.92396 50.6138 5.33972 65.4697C11.4567 69.9891 18.3033 73.4262 25.5819 75.6316C27.2209 73.4273 28.6711 71.0888 29.9173 68.641C27.5504 67.7569 25.2658 66.6663 23.0902 65.3816C23.6628 64.9663 24.2228 64.5384 24.7639 64.1232C31.0946 67.1003 38.0041 68.6439 44.9999 68.6439C51.9956 68.6439 58.9051 67.1003 65.2358 64.1232C65.7832 64.5699 66.3432 64.9978 66.9095 65.3816C64.7297 66.6684 62.441 67.7611 60.0698 68.6472C61.3145 71.094 62.7648 73.4305 64.4052 75.6316C71.6901 73.4351 78.5419 69.9996 84.66 65.476C86.3211 48.248 81.8222 33.3166 72.7676 20.0778ZM31.7106 56.3334C27.7653 56.3334 24.506 52.7532 24.506 48.3486C24.506 43.9441 27.6521 40.3324 31.698 40.3324C35.7439 40.3324 38.9782 43.9441 38.9089 48.3486C38.8397 52.7532 35.7314 56.3334 31.7106 56.3334ZM58.2891 56.3334C54.3376 56.3334 51.0908 52.7532 51.0908 48.3486C51.0908 43.9441 54.2369 40.3324 58.2891 40.3324C62.3413 40.3324 65.5504 43.9441 65.4812 48.3486C65.412 52.7532 62.3099 56.3334 58.2891 56.3334Z" fill="#5865F2"/>
</svg>
