<svg width="300" height="100" viewBox="0 0 300 100" fill="none" xmlns="http://www.w3.org/2000/svg">
<path d="M176.474 64.0946C176.474 64.0946 182.517 63.7916 184.813 63.2654C185.876 63.0213 185.412 62.0529 185.321 61.8628C185.311 61.8418 185.306 61.8303 185.307 61.8303C183.888 58.9602 182.23 59.1196 182.23 59.1196C177.478 58.9602 170.574 60.2198 169.825 60.5866C169.123 60.9055 169.187 61.4317 170.112 62.5957C171.1 63.8076 172.759 63.696 172.759 63.696L171.308 66.7097C170.128 66.8053 169.713 67.1721 169.713 67.1721C169.027 67.8896 169.968 70.0582 169.968 70.0582C169.968 70.0582 167.895 74.6984 169.394 77.138C171.005 79.7052 172.902 79.5777 172.902 79.5777C176.522 79.8488 182.453 76.0537 182.772 74.81C183.043 73.7895 182.118 72.6892 181.289 72.4819C180.508 72.3225 174.56 73.4387 173.843 73.63C173.078 73.8373 173.412 73.1198 173.412 73.1198L174.337 70.0104C174.337 70.0104 180.014 69.8031 180.843 69.6596C181.608 69.532 181.656 68.9899 181.656 68.9899C181.656 68.9899 181.752 68.0969 181.72 67.2678C181.64 66.3748 180.923 66.4545 180.923 66.4545C178.722 66.2313 175.708 66.4864 175.708 66.4864L176.474 64.0946Z" fill="#01147C"/>
<path d="M162.729 76.851C164.722 77.8077 166.333 76.277 166.939 74.8419C167.545 73.4068 168.597 68.6391 167.05 63.2973C165.488 58.0034 162.235 56.377 162.235 56.377C162.235 56.377 161.39 55.9783 161.182 56.8235C160.959 57.6526 161.278 58.5456 161.278 58.5456C163.367 65.6573 163.845 69.8509 163.845 69.8509C163.845 69.8509 163.941 71.0947 163.702 71.1585C163.542 71.286 163.351 71.1106 163.351 71.1106C163.112 71.1266 160.816 67.2678 160.816 67.2678L160.369 66.5183C157.834 62.4363 156.303 61.049 156.303 61.049L156.285 61.0318C155.921 60.6839 155.008 59.8106 153.879 61.065C152.731 62.3565 151.838 66.4705 151.472 70.3293C151.169 74.1881 151.408 76.3886 151.966 77.3134C152.588 78.2542 153.784 78.5731 154.772 77.7758C155.565 77.1664 155.64 74.0507 155.702 71.4483C155.721 70.6463 155.739 69.893 155.777 69.2769C155.936 66.6618 156.192 67.1243 156.192 67.1243C156.415 67.0764 157.611 69.4682 157.611 69.4682C157.611 69.4682 160.752 75.8943 162.729 76.851Z" fill="#01147C"/>
<path d="M150.859 61.4614C150.893 61.3849 150.926 61.3106 150.962 61.2404C151.161 60.8018 151.061 60.474 151.032 60.377C151.026 60.3576 151.023 60.3474 151.025 60.3474C149.622 58.7848 141.984 59.0558 141.984 59.0558C139.21 59.311 132.784 60.4431 131.859 63.3771C130.982 66.1835 131.779 67.1721 131.779 67.1721C132.462 68.4289 136.61 68.5387 138.716 68.5945C139.069 68.6039 139.364 68.6117 139.577 68.6231C141.123 68.7029 145.094 69.1812 146.481 69.9785C147.868 70.8236 146.959 71.8601 146.959 71.8601C144.663 74.4113 136.962 74.81 134.968 73.6778C134.187 73.1516 133.996 72.6255 134.793 71.7803C135.59 70.8555 138.173 72.2109 137.886 72.0992C137.583 71.9398 139.146 72.9603 141.283 73.0241C143.483 73.0719 144.998 72.2587 145.11 71.4933C145.205 70.7758 143.228 70.0582 143.228 70.0582C136.706 68.2404 134.139 69.7871 134.139 69.7871C130.584 72.0195 133.23 74.9694 133.23 74.9694C138.971 81.0925 147.868 77.1061 148.905 76.2451C149.893 75.3202 150.34 74.4273 150.387 71.876C150.435 69.3885 149.335 68.2883 149.335 68.2883C147.49 65.9821 142.346 65.9286 140.8 65.9125L140.788 65.9124C139.353 65.8327 136.388 65.434 135.67 65.2905C134.953 65.1311 135.415 64.5889 135.415 64.5889C136.037 63.6641 149.16 62.7711 149.16 62.7711C150.353 62.5907 150.629 61.9754 150.859 61.4614Z" fill="#01147C"/>
<path d="M125.832 78.0629C126.39 78.8282 128.351 79.1312 129.276 78.4456C130.153 77.7758 129.738 71.3658 129.738 71.3658C129.738 71.3658 129.42 64.2541 129.324 62.8987C129.216 61.5919 128.753 60.9521 128.348 60.3934C128.333 60.3727 128.318 60.352 128.303 60.3315C127.921 59.7415 127.315 58.992 126.326 59.8531C125.441 60.662 125.315 65.6047 125.208 69.816C125.204 70.0046 125.199 70.1918 125.194 70.3771C125.082 74.6505 125.274 77.3772 125.832 78.0629Z" fill="#01147C"/>
<path fill-rule="evenodd" clip-rule="evenodd" d="M125.162 55.4362C126.725 56.1059 128.574 56.4089 131.269 55.5159C135.479 54.0968 139.577 49.9509 139.624 46.6183C139.704 43.3017 135.973 43.2857 135.973 43.2857H135.861C135.208 41.2288 131.365 41.5158 131.365 41.5158C123.504 42.1536 120.921 47.607 120.538 49.0421C120.283 50.2858 120.395 52.1355 121.925 53.5068C121.528 54.5855 121.775 55.1083 121.924 55.4238C121.942 55.4628 121.959 55.4986 121.973 55.5319C122.101 55.9305 122.786 57.1583 123.552 57.0786C124.078 56.9989 124.477 56.6321 125.162 55.4362ZM123.472 50.7004C123.105 50.1742 123.137 49.4088 123.934 48.1332C125.019 46.4429 126.597 45.6297 128.479 45.4703C126.039 47.1286 124.381 49.3131 123.472 50.7004ZM126.677 52.3906C128.495 49.6799 132.322 46.3632 134.793 45.9965C137.413 45.5376 136.694 47.8817 136.59 48.2204C136.582 48.2465 136.578 48.2607 136.579 48.2607C134.394 52.7095 129.467 52.9009 126.677 52.3906Z" fill="#01147C"/>
<path fill-rule="evenodd" clip-rule="evenodd" d="M190.697 78.3977C196.246 79.6574 200.408 74.2678 201.89 71.6847C202.752 70.1379 203.214 68.065 203.23 66.1037C203.23 63.8873 202.624 61.8303 201.301 60.8896C197.362 58.1629 191.016 66.8213 188.225 71.1106C187.811 68.9261 189.294 66.1516 189.294 66.1516C189.294 66.1516 191.67 62.0376 192.004 61.2085C192.339 60.3793 192.531 58.6572 192.116 58.4818C191.749 58.3064 191.112 58.8645 191.112 58.8645C185.802 63.6481 185.052 68.942 185.052 68.942C184.542 71.7963 185.132 73.8054 185.993 75.2086C183.043 81.5071 181.592 87.0083 181.975 90.2612C182.326 92.7327 184.112 94.5186 185.18 94.9013C186.264 95.3637 186.456 94.0562 186.456 94.0562C187.333 87.3272 188.863 82.8465 190.697 78.3977ZM198.861 65.0673C200.519 63.1857 200.742 64.8919 200.742 64.8919C201.125 68.2085 198.717 70.696 197.681 71.6209C197.043 72.2268 194.938 73.4227 192.754 73.6619C194.843 69.6277 197.426 66.6459 198.861 65.0673Z" fill="#01147C"/>
<path fill-rule="evenodd" clip-rule="evenodd" d="M111.035 80.6141C121.543 77.4091 123.026 70.9193 123.328 67.0605C123.647 63.1379 120.745 53.0284 103.732 44.4019C103.732 44.4019 85.5702 35.0579 70.6615 40.2242C70.6615 40.2242 69.7207 40.1764 68.8596 41.452C68.7662 41.5835 68.6741 41.7107 68.5846 41.8342C67.85 42.8484 67.2976 43.6111 67.6956 44.4498C68.1421 45.3905 70.4542 45.8051 72.5111 45.1514C72.5111 45.1514 73.4359 44.5295 72.24 44.1468C71.1079 43.7641 70.4542 43.6684 70.4542 43.6684C70.4542 43.6684 69.8642 43.5728 70.502 43.2538C71.092 42.9509 77.9165 40.7504 89.9711 43.9076C102.042 47.001 118.37 56.7437 117.875 66.901C117.397 77.0424 101.515 77.4888 101.515 77.4888C101.515 77.4888 98.2626 77.6483 93.9096 76.8191C93.8947 76.201 93.8765 75.5004 93.857 74.7473C93.7717 71.4593 93.6604 67.171 93.6863 64.3816C99.905 64.3816 106.155 65.45 106.682 66.9807C106.682 66.9807 107.001 67.6823 105.597 68.368C104.306 68.9261 103.317 69.3726 104.386 69.8828C104.386 69.8828 105.948 70.6004 106.953 70.5206C107.909 70.4409 110.429 69.3088 110.636 66.5662C110.923 63.7757 107.702 61.3201 102.887 60.4431C99.1874 59.7734 97.2262 59.5342 93.9096 59.6936C93.8777 56.6799 93.479 52.9009 92.8093 52.0239C92.7616 51.9532 92.7134 51.8812 92.6648 51.8085C91.902 50.6686 91.0433 49.3853 90.3538 51.0193C89.7479 52.5182 89.2376 55.787 89.0622 60.1242C83.9916 60.9852 78.363 63.106 76.6409 65.2267C74.8072 67.5707 76.6409 69.4842 76.8163 69.6596C76.9598 69.8988 80.6591 75.2246 88.6955 78.9239C88.8549 80.3431 89.1419 81.9376 89.7 82.8146C90.9438 84.6643 93.208 83.3568 93.5109 83.0538C93.7342 82.8146 93.8936 82.2087 93.9733 80.7895C97.5451 81.6984 104.099 82.703 111.035 80.6141ZM77.8049 68.5593C77.8049 68.5593 76.6409 67.3634 78.3311 66.5343C79.8618 65.8327 83.2103 64.9078 89.0144 64.5092C89.0056 65.0542 89.0006 65.569 88.9956 66.0828C88.9733 68.3655 88.9512 70.6291 88.5998 75.4319C84.8846 74.1084 80.978 71.9717 77.8049 68.5593Z" fill="#01147C"/>
<path d="M233.447 67.4279V65.3231C233.447 64.8766 233.064 64.494 232.618 64.494H222.461C222.253 61.0338 221.839 57.6693 221.185 54.2091C221.105 53.8424 220.802 53.5872 220.435 53.5872H218.092C217.884 53.5872 217.693 53.6829 217.565 53.8424C217.438 54.0018 217.39 54.2091 217.422 54.4164C218.092 57.765 218.506 61.0657 218.713 64.494H208.939C208.477 64.494 208.11 64.8607 208.11 65.3231V67.4279C208.11 67.8903 208.477 68.2571 208.939 68.2571H218.857C218.873 68.767 218.873 69.2292 218.873 69.6754C218.873 72.721 218.729 75.2253 218.426 78.0636C218.394 78.2868 218.474 78.51 218.618 78.6695C218.761 78.829 218.969 78.9246 219.192 78.9246H221.36C221.775 78.9246 222.126 78.6057 222.173 78.1752C222.476 75.3209 222.604 72.7856 222.604 69.6762C222.604 69.4718 222.6 69.2601 222.597 69.0378C222.592 68.7921 222.588 68.5334 222.588 68.2571H232.618C233.08 68.2571 233.447 67.8903 233.447 67.4279Z" fill="#01147C"/>
<path d="M219.825 48.6274C214.643 35.8869 205.889 25.028 194.504 17.2147C182.848 9.22604 169.183 5.00049 154.992 5.00049C131.52 5.00049 109.739 16.6566 96.7438 36.1899C96.6003 36.3972 96.5685 36.6682 96.6482 36.9074C96.7279 37.1626 96.9192 37.338 97.1584 37.4177L98.9762 38.0396C99.0878 38.0714 99.1994 38.0874 99.2951 38.0874C99.6299 38.0874 99.9488 37.912 100.14 37.6409C106.104 28.8709 114.172 21.5838 123.484 16.545C133.099 11.3468 143.989 8.58822 154.976 8.58822C168.258 8.58822 181.062 12.5108 192.032 19.9095C202.732 27.1328 211.039 37.2263 216.062 49.0738C216.205 49.4246 216.556 49.6638 216.939 49.6638H219.107C219.362 49.6638 219.602 49.5363 219.729 49.329C219.889 49.1217 219.921 48.8665 219.825 48.6274ZM99.2951 37.5452H99.327C99.327 37.5452 99.311 37.5452 99.2951 37.5452ZM216.492 49.3768C216.54 49.4087 216.588 49.4406 216.636 49.4565C216.588 49.4246 216.54 49.4087 216.492 49.3768Z" fill="url(#paint0_radial_806_7943)"/>
<defs>
<radialGradient id="paint0_radial_806_7943" cx="0" cy="0" r="1" gradientUnits="userSpaceOnUse" gradientTransform="translate(217.788 49.5835) scale(121.203 121.206)">
<stop offset="0.007" stop-color="#021192"/>
<stop offset="0.03" stop-color="#021096"/>
<stop offset="0.057" stop-color="#010CB4"/>
<stop offset="0.084" stop-color="#0008CE"/>
<stop offset="0.111" stop-color="#0006D7"/>
<stop offset="0.138" stop-color="#0004E1"/>
<stop offset="0.165" stop-color="#0001FA"/>
<stop offset="0.191" stop-color="#0000FE"/>
<stop offset="0.216" stop-color="#0F1EFF"/>
<stop offset="1" stop-color="#00FFFF" stop-opacity="0"/>
</radialGradient>
</defs>
</svg>
