<svg width="90" height="90" viewBox="0 0 90 90" fill="none" xmlns="http://www.w3.org/2000/svg">
<rect x="5" y="5" width="80" height="80" rx="8" fill="url(#paint0_radial_806_7938)"/>
<path d="M54.5159 50.067C54.5159 50.067 56.7935 49.9528 57.6589 49.7545C58.0594 49.6625 57.8847 49.2975 57.8505 49.2259C57.8467 49.218 57.8452 49.2137 57.8452 49.2137C57.3103 48.132 56.6854 48.1921 56.6854 48.1921C54.8945 48.132 52.2924 48.6067 52.0099 48.7449C51.7455 48.8651 51.7696 49.0634 52.1181 49.5021C52.4907 49.9589 53.1157 49.9168 53.1157 49.9168L52.5688 51.0526C52.1241 51.0886 51.9679 51.2269 51.9679 51.2269C51.7095 51.4973 52.064 52.3146 52.064 52.3146C52.064 52.3146 51.2828 54.0634 51.8477 54.9828C52.4546 55.9504 53.1698 55.9023 53.1698 55.9023C54.5339 56.0044 56.7695 54.5742 56.8897 54.1054C56.9918 53.7208 56.6433 53.3062 56.3308 53.228C56.0363 53.1679 53.7948 53.5886 53.5243 53.6607C53.2359 53.7388 53.3621 53.4684 53.3621 53.4684L53.7106 52.2966C53.7106 52.2966 55.85 52.2184 56.1625 52.1643C56.451 52.1163 56.469 51.9119 56.469 51.9119C56.469 51.9119 56.5051 51.5754 56.4931 51.2629C56.463 50.9264 56.1926 50.9564 56.1926 50.9564C55.3633 50.8723 54.2275 50.9685 54.2275 50.9685L54.5159 50.067Z" fill="white"/>
<path d="M49.3357 54.8746C50.0869 55.2352 50.6939 54.6583 50.9222 54.1174C51.1506 53.5766 51.5472 51.7797 50.9643 49.7666C50.3754 47.7714 49.1494 47.1584 49.1494 47.1584C49.1494 47.1584 48.8309 47.0082 48.7528 47.3267C48.6686 47.6392 48.7888 47.9757 48.7888 47.9757C49.5761 50.656 49.7564 52.2365 49.7564 52.2365C49.7564 52.2365 49.7924 52.7052 49.7023 52.7292C49.6422 52.7773 49.5701 52.7112 49.5701 52.7112C49.4799 52.7172 48.6146 51.2629 48.6146 51.2629L48.4463 50.9805C47.4908 49.442 46.9139 48.9192 46.9139 48.9192L46.9071 48.9127C46.77 48.7816 46.4259 48.4525 46.0004 48.9252C45.5677 49.412 45.2312 50.9624 45.093 52.4168C44.9788 53.8711 45.0689 54.7004 45.2793 55.0489C45.5136 55.4035 45.9644 55.5237 46.337 55.2232C46.6355 54.9935 46.6638 53.8193 46.6873 52.8385C46.6946 52.5362 46.7014 52.2523 46.7156 52.0201C46.7756 51.0346 46.8718 51.2088 46.8718 51.2088C46.9559 51.1908 47.4066 52.0922 47.4066 52.0922C47.4066 52.0922 48.5905 54.5141 49.3357 54.8746Z" fill="white"/>
<path d="M44.862 49.0746C44.8749 49.0458 44.8874 49.0178 44.9007 48.9913C44.9758 48.826 44.9382 48.7025 44.9271 48.6659C44.9249 48.6586 44.9247 48.6548 44.9247 48.6548C44.3959 48.0659 41.5173 48.168 41.5173 48.168C40.4717 48.2642 38.0498 48.6908 37.7013 49.7966C37.3707 50.8543 37.6712 51.2269 37.6712 51.2269C37.9286 51.7005 39.4916 51.7419 40.2857 51.763C40.4185 51.7665 40.5298 51.7694 40.6099 51.7737C41.1928 51.8038 42.6892 51.9841 43.212 52.2845C43.7348 52.603 43.3923 52.9937 43.3923 52.9937C42.5269 53.9552 39.6243 54.1054 38.8731 53.6788C38.5787 53.4804 38.5065 53.2821 38.807 52.9636C39.1075 52.6151 40.081 53.1259 39.9729 53.0838C39.8587 53.0237 40.4476 53.4083 41.2529 53.4324C42.0822 53.4504 42.6531 53.1439 42.6952 52.8554C42.7312 52.585 41.9861 52.3146 41.9861 52.3146C39.5282 51.6295 38.5606 52.2124 38.5606 52.2124C37.2205 53.0538 38.2181 54.1655 38.2181 54.1655C40.3815 56.4732 43.7348 54.9708 44.1254 54.6463C44.498 54.2977 44.6663 53.9612 44.6843 52.9997C44.7024 52.0622 44.2877 51.6475 44.2877 51.6475C43.5924 50.7784 41.6535 50.7582 41.0711 50.7522L41.0666 50.7521C40.5257 50.7221 39.408 50.5718 39.1375 50.5177C38.8671 50.4576 39.0414 50.2533 39.0414 50.2533C39.2758 49.9048 44.2216 49.5682 44.2216 49.5682C44.6714 49.5002 44.7753 49.2683 44.862 49.0746Z" fill="white"/>
<path d="M35.4297 55.3314C35.64 55.6198 36.3792 55.734 36.7277 55.4756C37.0582 55.2232 36.902 52.8074 36.902 52.8074C36.902 52.8074 36.7818 50.1271 36.7457 49.6163C36.7052 49.1238 36.5306 48.8827 36.378 48.6721C36.3724 48.6643 36.3667 48.6565 36.3611 48.6488C36.2169 48.4264 35.9885 48.144 35.616 48.4685C35.2824 48.7733 35.235 50.6361 35.1947 52.2233C35.1929 52.2944 35.1911 52.3649 35.1893 52.4348C35.1472 54.0453 35.2193 55.073 35.4297 55.3314Z" fill="white"/>
<path fill-rule="evenodd" clip-rule="evenodd" d="M35.1773 46.8039C35.7662 47.0563 36.4633 47.1704 37.4789 46.8339C39.0654 46.2991 40.6099 44.7366 40.6279 43.4806C40.658 42.2306 39.2517 42.2246 39.2517 42.2246H39.2097C38.9633 41.4494 37.515 41.5575 37.515 41.5575C34.5523 41.7979 33.5787 43.8532 33.4345 44.394C33.3383 44.8628 33.3804 45.5599 33.9573 46.0767C33.8076 46.4832 33.9006 46.6803 33.9568 46.7992C33.9637 46.8139 33.9701 46.8274 33.9754 46.8399C34.0234 46.9901 34.2818 47.4529 34.5703 47.4228C34.7686 47.3928 34.9189 47.2546 35.1773 46.8039ZM34.5403 45.019C34.402 44.8207 34.4141 44.5323 34.7145 44.0515C35.1232 43.4145 35.7181 43.108 36.4272 43.0479C35.5078 43.6729 34.8828 44.4962 34.5403 45.019ZM35.7482 45.656C36.4333 44.6344 37.8755 43.3844 38.807 43.2462C39.7944 43.0733 39.5235 43.9567 39.4843 44.0844C39.4813 44.0942 39.4801 44.0996 39.4801 44.0996C38.6568 45.7762 36.7998 45.8483 35.7482 45.656Z" fill="white"/>
<path fill-rule="evenodd" clip-rule="evenodd" d="M59.8764 55.4576C61.9677 55.9323 63.5362 53.9011 64.0951 52.9276C64.4196 52.3446 64.5939 51.5634 64.5999 50.8242C64.5999 49.9889 64.3715 49.2137 63.8727 48.8591C62.3884 47.8315 59.9966 51.0947 58.9449 52.7112C58.7887 51.8879 59.3476 50.8423 59.3476 50.8423C59.3476 50.8423 60.243 49.2918 60.3692 48.9793C60.4954 48.6668 60.5675 48.0178 60.4113 47.9517C60.273 47.8856 60.0327 48.0959 60.0327 48.0959C58.0315 49.8988 57.749 51.8939 57.749 51.8939C57.5567 52.9696 57.7791 53.7268 58.1036 54.2557C56.9918 56.6294 56.445 58.7027 56.5892 59.9287C56.7214 60.8601 57.3945 61.5332 57.7971 61.6774C58.2058 61.8517 58.2779 61.3589 58.2779 61.3589C58.6084 58.8229 59.1853 57.1342 59.8764 55.4576ZM62.9533 50.4336C63.5783 49.7245 63.6624 50.3675 63.6624 50.3675C63.8066 51.6175 62.8992 52.555 62.5086 52.9035C62.2682 53.1319 61.4749 53.5826 60.6516 53.6727C61.4389 52.1523 62.4124 51.0286 62.9533 50.4336Z" fill="white"/>
<path fill-rule="evenodd" clip-rule="evenodd" d="M29.8528 56.2929C33.8131 55.085 34.372 52.6391 34.4862 51.1848C34.6064 49.7065 33.5126 45.8964 27.1005 42.6453C27.1005 42.6453 20.2556 39.1237 14.6367 41.0708C14.6367 41.0708 14.2821 41.0527 13.9576 41.5335C13.9224 41.5831 13.8877 41.631 13.854 41.6775C13.5771 42.0598 13.3689 42.3472 13.5189 42.6633C13.6872 43.0179 14.5586 43.1741 15.3338 42.9277C15.3338 42.9277 15.6824 42.6933 15.2316 42.5491C14.805 42.4049 14.5586 42.3688 14.5586 42.3688C14.5586 42.3688 14.3362 42.3328 14.5766 42.2126C14.799 42.0984 17.371 41.2691 21.9142 42.459C26.4635 43.6248 32.6172 47.2966 32.4309 51.1247C32.2506 54.9468 26.2651 55.115 26.2651 55.115C26.2651 55.115 25.0392 55.1751 23.3986 54.8626C23.393 54.6297 23.3861 54.3657 23.3788 54.0819C23.3466 52.8427 23.3047 51.2265 23.3145 50.1752C25.6582 50.1752 28.0139 50.5778 28.2122 51.1547C28.2122 51.1547 28.3324 51.4192 27.8036 51.6776C27.3168 51.8879 26.9442 52.0562 27.3469 52.2485C27.3469 52.2485 27.9358 52.5189 28.3144 52.4889C28.675 52.4588 29.6245 52.0321 29.7026 50.9985C29.8108 49.9468 28.5968 49.0214 26.782 48.6908C25.3877 48.4384 24.6486 48.3483 23.3986 48.4084C23.3866 47.2726 23.2363 45.8483 22.9839 45.5178C22.9659 45.4912 22.9478 45.464 22.9295 45.4367C22.642 45.007 22.3184 44.5234 22.0585 45.1392C21.8301 45.7041 21.6378 46.9361 21.5717 48.5707C19.6607 48.8952 17.5393 49.6944 16.8903 50.4937C16.1992 51.3771 16.8903 52.0982 16.9564 52.1643C17.0105 52.2545 18.4047 54.2617 21.4335 55.6559C21.4936 56.1907 21.6017 56.7917 21.8121 57.1222C22.2808 57.8193 23.1342 57.3265 23.2484 57.2124C23.3325 57.1222 23.3926 56.8938 23.4226 56.359C24.7688 56.7015 27.2387 57.0801 29.8528 56.2929ZM17.329 51.7497C17.329 51.7497 16.8903 51.299 17.5273 50.9865C18.1042 50.7221 19.3662 50.3735 21.5537 50.2233C21.5504 50.4287 21.5485 50.6227 21.5466 50.8164C21.5382 51.6767 21.5299 52.5298 21.3974 54.3398C19.9972 53.841 18.5249 53.0357 17.329 51.7497Z" fill="white"/>
<path d="M75.9984 51.3237V50.5304C75.9984 50.3622 75.8541 50.2179 75.6859 50.2179H71.8578C71.7797 48.9139 71.6234 47.6459 71.377 46.3418C71.347 46.2036 71.2328 46.1074 71.0946 46.1074H70.2112C70.1331 46.1074 70.0609 46.1435 70.0129 46.2036C69.9648 46.2637 69.9468 46.3418 69.9588 46.4199C70.2112 47.6819 70.3674 48.9259 70.4456 50.2179H66.7617C66.5874 50.2179 66.4492 50.3562 66.4492 50.5304V51.3237C66.4492 51.498 66.5874 51.6362 66.7617 51.6362H70.4996C70.5056 51.8285 70.5056 52.0028 70.5056 52.171C70.5056 53.3189 70.4516 54.2624 70.3374 55.332C70.3254 55.4162 70.3554 55.5003 70.4095 55.5604C70.4636 55.6205 70.5417 55.6566 70.6258 55.6566H71.4431C71.5994 55.6566 71.7316 55.5364 71.7496 55.3741C71.8638 54.2984 71.9119 53.3429 71.9119 52.171C71.9119 52.094 71.9105 52.0142 71.9091 51.9304C71.9075 51.8378 71.9059 51.7403 71.9059 51.6362H75.6859C75.8601 51.6362 75.9984 51.498 75.9984 51.3237Z" fill="white"/>
<path d="M70.8577 44.2389C68.9046 39.4373 65.6053 35.3448 61.3145 32.4002C56.9216 29.3894 51.7714 27.7969 46.4229 27.7969C37.5769 27.7969 29.3679 32.1898 24.4701 39.5515C24.416 39.6296 24.404 39.7318 24.4341 39.8219C24.4641 39.9181 24.5362 39.9842 24.6264 40.0142L25.3115 40.2486C25.3535 40.2606 25.3956 40.2666 25.4316 40.2666C25.5578 40.2666 25.678 40.2005 25.7502 40.0984C27.9977 36.7931 31.0385 34.0468 34.5481 32.1478C38.1718 30.1887 42.2763 29.149 46.4169 29.149C51.4228 29.149 56.2485 30.6274 60.383 33.4158C64.4154 36.1381 67.5464 39.9421 69.4394 44.4072C69.4935 44.5394 69.6257 44.6296 69.7699 44.6296H70.5872C70.6834 44.6296 70.7735 44.5815 70.8216 44.5034C70.8817 44.4252 70.8937 44.3291 70.8577 44.2389ZM69.6017 44.5214C69.6197 44.5334 69.6377 44.5454 69.6558 44.5514C69.6377 44.5394 69.6197 44.5334 69.6017 44.5214Z" fill="url(#paint1_radial_806_7938)"/>
<defs>
<radialGradient id="paint0_radial_806_7938" cx="0" cy="0" r="1" gradientUnits="userSpaceOnUse" gradientTransform="translate(45 85) rotate(-90) scale(80 99.3259)">
<stop offset="0.0655875" stop-color="#0367DE"/>
<stop offset="0.347104" stop-color="#0057BE"/>
<stop offset="0.769378" stop-color="#000940"/>
</radialGradient>
<radialGradient id="paint1_radial_806_7938" cx="0" cy="0" r="1" gradientUnits="userSpaceOnUse" gradientTransform="translate(70.0896 44.5993) scale(45.6799 45.6799)">
<stop stop-color="white"/>
<stop offset="0.01" stop-color="white"/>
<stop offset="0.03" stop-color="#CBFFFF"/>
<stop offset="0.06" stop-color="#96FFFF"/>
<stop offset="0.08" stop-color="#68FFFF"/>
<stop offset="0.11" stop-color="#43FFFF"/>
<stop offset="0.14" stop-color="#25FFFF"/>
<stop offset="0.16" stop-color="#11FFFF"/>
<stop offset="0.19" stop-color="#04FFFF"/>
<stop offset="0.22" stop-color="#00FFFF"/>
<stop offset="1" stop-color="#0000FF" stop-opacity="0"/>
</radialGradient>
</defs>
</svg>
