<svg width="90" height="90" viewBox="0 0 90 90" fill="none" xmlns="http://www.w3.org/2000/svg">
<path d="M45.0005 83.4005C66.2082 83.4005 83.4005 66.2082 83.4005 45.0005C83.4005 23.7927 66.2082 6.60048 45.0005 6.60048C23.7927 6.60048 6.60048 23.7927 6.60048 45.0005C6.60048 66.2082 23.7927 83.4005 45.0005 83.4005Z" fill="#EA4C89"/>
<path fill-rule="evenodd" clip-rule="evenodd" d="M45 5C22.9176 5 5 22.9176 5 45C5 67.0824 22.9176 85 45 85C67.039 85 85 67.0824 85 45C85 22.9176 67.039 5 45 5ZM71.4208 23.4382C76.193 29.2516 79.0564 36.6703 79.1432 44.6963C78.0152 44.4794 66.7354 42.1801 55.3688 43.6117C55.1085 43.0478 54.8915 42.4403 54.6313 41.833C53.9371 40.1844 53.1562 38.4924 52.3753 36.8872C64.9566 31.7679 70.6833 24.3926 71.4208 23.4382ZM45 10.9002C53.6768 10.9002 61.6161 14.154 67.6464 19.4902C67.039 20.3579 61.8763 27.256 49.7289 31.8113C44.1323 21.5293 37.9284 13.1128 36.974 11.8113C39.5336 11.2039 42.2234 10.9002 45 10.9002ZM30.4664 14.1106C31.3774 15.3254 37.4512 23.7853 43.1345 33.8503C27.1692 38.1019 13.0694 38.0152 11.551 38.0152C13.7635 27.4295 20.9219 18.6226 30.4664 14.1106ZM10.8134 45.0434C10.8134 44.6963 10.8134 44.3493 10.8134 44.0022C12.2885 44.0455 28.8612 44.2625 45.911 39.1432C46.9089 41.0521 47.8199 43.0043 48.6876 44.9566C48.2538 45.0868 47.7766 45.217 47.3427 45.347C29.7289 51.0304 20.3579 66.5618 19.577 67.8634C14.154 61.833 10.8134 53.807 10.8134 45.0434ZM45 79.1866C37.1042 79.1866 29.8156 76.4967 24.0455 71.9848C24.653 70.7267 31.5944 57.3644 50.8568 50.6399C50.9436 50.5966 50.987 50.5966 51.0738 50.5531C55.8894 63.0043 57.8417 73.4598 58.3622 76.4534C54.2408 78.2321 49.7289 79.1866 45 79.1866ZM64.0456 73.3298C63.6985 71.2473 61.8764 61.269 57.4078 48.9914C68.1237 47.2994 77.4946 50.0759 78.6659 50.4664C77.1909 59.9674 71.7245 68.167 64.0456 73.3298Z" fill="#C32361"/>
</svg>
