<svg width="300" height="100" viewBox="0 0 300 100" fill="none" xmlns="http://www.w3.org/2000/svg">
<path d="M52.4674 35.4044L37.7337 44.8088L52.4674 54.2132L37.7337 63.6176L23 54.1348L37.7337 44.7304L23 35.4044L37.7337 26L52.4674 35.4044ZM37.6553 66.5956L52.389 57.1912L67.1227 66.5956L52.389 76L37.6553 66.5956ZM52.4674 54.1348L67.2011 44.7304L52.4674 35.4044L67.1227 26L81.8564 35.4044L67.1227 44.8088L81.8564 54.2132L67.1227 63.6176L52.4674 54.1348Z" fill="#0061FE"/>
<path d="M93.375 35.4053H105.287C112.889 35.4053 119.159 39.794 119.159 49.8254V51.9413C119.159 62.0511 113.281 66.5965 105.522 66.5965H93.375V35.4053ZM100.037 41.0479V60.8755H105.131C109.441 60.8755 112.341 58.0542 112.341 51.7846V50.1388C112.341 43.8692 109.284 41.0479 104.896 41.0479H100.037ZM122.686 41.3614H128.015L128.877 47.2392C129.896 43.2423 132.482 41.1263 137.184 41.1263H138.83V47.8661H136.087C130.679 47.8661 129.347 49.747 129.347 55.0761V66.6749H122.764V41.3614H122.686ZM140.162 54.5276V53.8222C140.162 45.3583 145.57 40.7345 152.937 40.7345C160.46 40.7345 165.711 45.3583 165.711 53.8222V54.5276C165.711 62.8348 160.617 67.3019 152.937 67.3019C144.786 67.2235 140.162 62.8348 140.162 54.5276ZM158.971 54.4492V53.8222C158.971 49.12 156.62 46.2987 152.858 46.2987C149.175 46.2987 146.745 48.8849 146.745 53.8222V54.4492C146.745 58.9946 149.097 61.5808 152.858 61.5808C156.62 61.5025 158.971 58.9946 158.971 54.4492ZM169.16 41.3614H174.645L175.272 46.142C176.605 42.9288 179.426 40.7345 183.58 40.7345C190.006 40.7345 194.238 45.3583 194.238 53.9006V54.6059C194.238 62.9131 189.536 67.3019 183.58 67.3019C179.583 67.3019 176.84 65.4993 175.508 62.5997V75.374H169.081L169.16 41.3614ZM187.577 54.4492V53.9006C187.577 48.8849 184.99 46.3771 181.542 46.3771C177.859 46.3771 175.429 49.1984 175.429 53.9006V54.3708C175.429 58.8379 177.78 61.6592 181.464 61.6592C185.226 61.5808 187.577 59.1514 187.577 54.4492ZM203.956 61.9727L203.408 66.5965H197.765V32.8975H204.191V45.8285C205.602 42.537 208.423 40.7345 212.42 40.7345C218.455 40.8128 222.922 44.9664 222.922 53.352V54.1357C222.922 62.5213 218.69 67.3019 212.263 67.3019C208.031 67.2235 205.288 65.2642 203.956 61.9727ZM216.182 54.1357V53.5087C216.182 48.8849 213.674 46.2987 210.147 46.2987C206.542 46.2987 204.035 49.1984 204.035 53.5871V54.1357C204.035 58.8379 206.464 61.5808 210.069 61.5808C213.909 61.5808 216.182 59.1514 216.182 54.1357ZM225.743 54.5276V53.8222C225.743 45.3583 231.151 40.7345 238.518 40.7345C246.041 40.7345 251.292 45.3583 251.292 53.8222V54.5276C251.292 62.8348 246.12 67.3019 238.518 67.3019C230.367 67.2235 225.743 62.8348 225.743 54.5276ZM244.631 54.4492V53.8222C244.631 49.12 242.279 46.2987 238.518 46.2987C234.834 46.2987 232.405 48.8849 232.405 53.8222V54.4492C232.405 58.9946 234.756 61.5808 238.518 61.5808C242.279 61.5025 244.631 58.9946 244.631 54.4492ZM259.913 53.5087L251.057 41.3614H258.659L263.753 48.9633L268.925 41.3614H276.449L267.436 53.4304L276.919 66.5965H269.474L263.675 58.2109L258.032 66.5965H250.273L259.913 53.5087Z" fill="#000008"/>
</svg>
