<svg width="354" height="100" viewBox="0 0 354 100" fill="none" xmlns="http://www.w3.org/2000/svg">
<path d="M94.7926 79.7949C111.361 79.7949 124.792 66.3635 124.792 49.7949C124.792 33.2264 111.361 19.7949 94.7926 19.7949C78.2243 19.7949 64.793 33.2264 64.793 49.7949C64.793 66.3635 78.2243 79.7949 94.7926 79.7949Z" fill="#DE5833"/>
<path d="M120.191 39.0451C118.791 35.7451 116.792 32.7951 114.292 30.2951C111.742 27.7451 108.792 25.7951 105.542 24.3951C102.142 22.9451 98.5418 22.2451 94.7918 22.2451C91.0418 22.2451 87.4419 22.9951 84.0419 24.3951C80.742 25.7951 77.792 27.7951 75.2921 30.2951C72.7421 32.8451 70.7921 35.7951 69.3921 39.0451C67.9421 42.4451 67.2422 46.0451 67.2422 49.7951C67.2422 53.4951 67.9921 57.1451 69.3921 60.5451C70.7921 63.8451 72.7921 66.7951 75.2921 69.2951C77.842 71.8451 80.792 73.7951 84.0419 75.1951C87.4419 76.6451 91.0418 77.3451 94.7918 77.3451C98.5418 77.3451 102.142 76.5951 105.542 75.1951C108.842 73.7951 111.792 71.7951 114.292 69.2951C116.842 66.7451 118.791 63.7951 120.191 60.5451C121.641 57.1451 122.341 53.5451 122.341 49.7951C122.341 46.0451 121.641 42.4451 120.191 39.0451ZM100.792 74.5451C99.1917 71.8451 94.9918 64.2951 94.9918 58.6951C94.9918 45.7951 103.642 56.8451 103.642 46.5451C103.642 44.0951 102.442 35.4951 94.9418 33.6951C93.0918 31.2451 88.7419 28.8951 81.842 29.8451C81.842 29.8451 82.992 30.1951 84.2919 30.8451C84.2919 30.8451 81.792 31.1951 81.692 32.8951C81.692 32.8951 86.6419 32.6451 89.4419 33.5451C82.992 34.3951 79.642 37.7451 80.242 43.9451C81.092 52.6951 84.7919 68.2951 86.0919 73.7451C76.292 70.1951 69.2421 60.7951 69.2421 49.7451C69.2421 35.6951 80.642 24.2451 94.7418 24.2451C108.842 24.2451 120.241 35.6451 120.241 49.7451C120.241 61.7951 111.942 71.8451 100.792 74.5451Z" fill="white"/>
<path fill-rule="evenodd" clip-rule="evenodd" d="M93.3922 53.945C93.3922 50.645 97.8922 49.595 99.5921 49.595C104.192 49.595 110.692 46.645 112.292 46.695C113.942 46.745 114.992 47.395 114.992 48.145C114.992 49.245 105.792 53.395 102.242 53.045C98.8421 52.745 98.0422 53.095 98.0422 54.495C98.0422 55.695 100.492 56.795 103.192 56.795C107.242 56.795 111.192 54.995 112.392 55.845C113.442 56.595 109.642 59.295 105.292 59.295C100.942 59.295 93.3922 57.245 93.3922 53.945Z" fill="#FED30A"/>
<path d="M101.392 39.9451C100.192 38.3951 98.0422 38.3451 97.2922 40.1451C98.4422 39.2451 99.8422 39.0451 101.392 39.9451Z" fill="#2D4F8D"/>
<path d="M87.9916 39.9951C86.3416 38.9951 83.5916 38.8951 83.7416 42.0451C84.5916 40.0951 85.6916 39.7451 87.9916 39.9951Z" fill="#2D4F8D"/>
<path d="M100.391 42.8951C99.4914 42.8951 98.7414 43.6451 98.7414 44.5451C98.7414 45.4451 99.4914 46.1951 100.391 46.1951C101.291 46.1951 102.041 45.4451 102.041 44.5451C102.041 43.6451 101.291 42.8951 100.391 42.8951ZM100.991 44.3951C100.741 44.3951 100.491 44.1951 100.491 43.8951C100.491 43.6451 100.691 43.3951 100.991 43.3951C101.291 43.3951 101.491 43.5951 101.491 43.8951C101.441 44.1951 101.241 44.3951 100.991 44.3951Z" fill="#2D4F8D"/>
<path d="M87.5908 43.7951C86.5408 43.7951 85.6908 44.6451 85.6908 45.6951C85.6908 46.7451 86.5408 47.5951 87.5908 47.5951C88.6408 47.5951 89.4907 46.7451 89.4907 45.6951C89.4907 44.6451 88.6408 43.7951 87.5908 43.7951ZM88.2908 45.5451C87.9908 45.5451 87.7408 45.2951 87.7408 44.9951C87.7408 44.6951 87.9908 44.4451 88.2908 44.4451C88.5908 44.4451 88.8408 44.6951 88.8408 44.9951C88.8408 45.2951 88.5908 45.5451 88.2908 45.5451Z" fill="#2D4F8D"/>
<path d="M83.4405 35.6953C81.0405 37.4453 79.9406 40.1453 80.2906 43.9453C81.1405 52.6953 84.8405 68.3453 86.1405 73.7953C86.5905 73.9453 87.0405 74.0953 87.4905 74.2453C86.6905 70.9453 82.8405 54.8453 81.1405 42.4953C80.6905 39.1953 81.9405 37.2453 83.4405 35.6953Z" fill="#D5D7D8"/>
<path d="M89.3909 33.5453C89.5909 33.5453 89.7409 33.4953 89.7409 33.4953C87.1409 32.2453 83.0409 32.1953 81.941 32.1953C81.841 32.3953 81.741 32.6453 81.741 32.8953C81.691 32.9453 86.5409 32.6453 89.3909 33.5453Z" fill="#D5D7D8"/>
<path d="M84.6901 30.8451C83.8902 30.2951 83.2402 29.9451 82.8402 29.7451C82.4902 29.7951 82.1902 29.7951 81.8402 29.8451C81.8402 29.8451 82.9902 30.1951 84.2902 30.8451C84.2902 30.8451 84.2402 30.8451 84.1902 30.8451C84.4901 30.8451 84.6901 30.8451 84.6901 30.8451Z" fill="#D5D7D8"/>
<path d="M104.843 64.0947C103.993 63.8947 100.693 66.2447 99.4435 67.1447C99.3935 66.8947 99.3435 66.6947 99.2935 66.5947C99.1435 66.0947 95.9435 66.3947 95.1935 67.1947C93.1936 66.2447 89.1936 64.3947 89.1436 65.5447C88.9936 67.0447 89.1436 73.2947 89.9436 73.7447C90.5436 74.0947 93.9436 72.2447 95.6435 71.2947C95.6435 71.2947 95.6435 71.2947 95.6935 71.2947C96.7435 71.5447 98.6935 71.2947 99.3935 70.8447C99.4935 70.7947 99.5435 70.6947 99.5935 70.5947C101.143 71.1947 104.493 72.3947 105.193 72.1447C106.093 71.8947 105.893 64.3447 104.843 64.0947Z" fill="#67BD47"/>
<path d="M95.6935 71.2947C94.6435 71.0947 94.9936 70.0449 94.9936 67.5949C94.7436 67.7449 94.5436 67.9449 94.5436 68.1449C94.5436 70.5949 94.1436 71.6949 95.2436 71.8449C96.2936 72.0949 98.2436 71.8449 99.0435 71.3949C99.1935 71.2949 99.2435 71.1449 99.2935 70.8949C98.5436 71.3449 96.6935 71.5447 95.6935 71.2947Z" fill="#43A347"/>
<path d="M118.392 71.345C117.942 71.345 117.542 71.695 117.542 72.145C117.542 72.595 117.892 72.995 118.392 72.995C118.842 72.995 119.242 72.645 119.242 72.145C119.242 71.745 118.892 71.345 118.392 71.345ZM118.442 72.845C118.092 72.845 117.792 72.545 117.792 72.195C117.792 71.845 118.042 71.545 118.442 71.545C118.792 71.545 119.092 71.845 119.092 72.195C119.042 72.545 118.792 72.845 118.442 72.845Z" fill="#4C4C4C"/>
<path d="M118.442 71.8448C118.542 71.8448 118.592 71.8948 118.642 71.9948L118.792 71.8948C118.742 71.7948 118.592 71.6448 118.442 71.6448C118.192 71.6448 117.942 71.8448 117.942 72.1448C117.942 72.4448 118.142 72.6448 118.442 72.6448C118.642 72.6448 118.742 72.5448 118.792 72.3948L118.642 72.2948C118.592 72.3948 118.542 72.4448 118.442 72.4448C118.292 72.4448 118.142 72.2948 118.142 72.1448C118.192 71.9948 118.292 71.8448 118.442 71.8448Z" fill="#4C4C4C"/>
<path d="M136.275 58.0195V40.1977H142.711C148.85 40.1977 151.622 44.6531 151.622 48.9105C151.622 53.465 148.85 58.0195 142.711 58.0195H136.275ZM138.355 55.9402H142.81C147.563 55.9402 149.642 52.3759 149.642 48.9105C149.642 45.6432 147.464 42.1779 142.81 42.1779H138.355V55.9402Z" fill="#4C4C4C"/>
<path d="M159.741 58.2179C156.375 58.2179 154.295 55.9407 154.295 52.4753V45.5446H156.276V52.3763C156.276 54.9506 157.761 56.4357 160.137 56.4357C162.414 56.4357 164.097 54.6535 164.097 52.2773V45.5446H166.078V58.0199H164.394L164.295 55.8417L163.998 56.2377C162.909 57.5248 161.523 58.1189 159.741 58.2179Z" fill="#4C4C4C"/>
<path d="M175.491 58.2185C172.224 58.2185 168.957 56.2383 168.957 51.7829C168.957 47.9215 171.531 45.3472 175.491 45.3472C177.273 45.3472 178.66 45.9413 179.947 47.1294L178.759 48.3175C177.868 47.5254 176.778 47.1294 175.59 47.1294C172.818 47.1294 170.937 49.0106 170.937 51.7829C170.937 54.9512 173.214 56.4363 175.59 56.4363C176.877 56.4363 178.066 56.0403 178.957 55.1492L180.145 56.3373C178.759 57.5254 177.174 58.2185 175.491 58.2185Z" fill="#4C4C4C"/>
<path d="M190.533 58.0195L184.395 51.8808V58.0195H182.513V40.1977H184.395V50.9898L189.741 45.5442H192.315L186.375 51.3858L193.008 57.9204V58.0195H190.533Z" fill="#4C4C4C"/>
<path d="M195.294 58.0195V40.1977H201.729C207.868 40.1977 210.64 44.6531 210.64 48.9105C210.64 53.465 207.868 58.0195 201.729 58.0195H195.294ZM197.472 55.9402H201.927C206.68 55.9402 208.759 52.3759 208.759 48.9105C208.759 45.6432 206.581 42.1779 201.927 42.1779H197.472V55.9402Z" fill="#4C4C4C"/>
<path d="M218.754 58.2179C215.387 58.2179 213.308 55.9407 213.308 52.4753V45.5446H215.288V52.3763C215.288 54.9506 216.773 56.4357 219.15 56.4357C221.427 56.4357 223.11 54.6535 223.11 52.2773V45.5446H225.09V58.0199H223.308L223.209 55.8417L222.912 56.2377C222.021 57.5248 220.536 58.1189 218.754 58.2179Z" fill="#4C4C4C"/>
<path d="M234.498 58.2185C231.231 58.2185 227.964 56.2383 227.964 51.7829C227.964 47.9215 230.538 45.3472 234.498 45.3472C236.28 45.3472 237.667 45.9413 238.954 47.1294L237.766 48.3175C236.874 47.5254 235.785 47.1294 234.597 47.1294C231.825 47.1294 229.944 49.0106 229.944 51.7829C229.944 54.9512 232.221 56.4363 234.597 56.4363C235.884 56.4363 237.072 56.0403 237.964 55.1492L239.152 56.3373L239.053 56.4363C237.766 57.6244 236.28 58.2185 234.498 58.2185Z" fill="#4C4C4C"/>
<path d="M249.541 58.0198L243.502 51.8812V58.0198H241.621V40.1981H243.502V50.9901L248.848 45.5446H251.323L245.482 51.3862L252.016 57.9208V58.0198H249.541Z" fill="#4C4C4C"/>
<path d="M262.018 58.3171C255.186 58.3171 252.81 53.3666 252.81 49.3072C252.81 46.535 253.701 44.1587 255.384 42.4755C257.067 40.7924 259.344 39.9013 262.018 39.9013C264.493 39.9013 266.671 40.7924 268.453 42.4755L267.265 43.8617C265.879 42.5746 263.899 41.7825 262.018 41.7825C257.067 41.7825 254.79 45.6439 254.79 49.3072C254.79 52.8716 257.067 56.4359 262.117 56.4359C263.899 56.4359 265.681 55.7429 267.067 54.6538L267.166 54.5548V50.0993H261.622V48.3171H269.047V55.2478C267.067 57.327 264.79 58.3171 262.018 58.3171Z" fill="#4C4C4C"/>
<path d="M277.863 58.2181C274.1 58.2181 271.427 55.5448 271.427 51.7825C271.427 48.0201 274.199 45.2478 277.863 45.2478C281.724 45.2478 284.397 47.9211 284.397 51.7825C284.199 55.4458 281.526 58.2181 277.863 58.2181ZM277.863 46.931C275.19 46.931 273.308 48.9112 273.308 51.6834C273.308 54.3567 275.19 56.3369 277.863 56.3369C280.536 56.3369 282.417 54.4557 282.516 51.6834C282.318 49.0102 280.536 46.931 277.863 46.931Z" fill="#4C4C4C"/>
<path d="M286.179 59.3064C286.377 59.2074 286.476 59.1084 286.476 58.9104C286.476 58.7124 286.377 58.6134 286.278 58.5144C286.179 58.4153 285.981 58.4153 285.684 58.4153C285.387 58.4153 285.189 58.4153 285.09 58.5144V60.0985H285.486V59.5045H285.684C285.882 59.5045 285.981 59.6035 285.981 59.8015C286.08 59.9995 286.08 60.0985 286.08 60.1975H286.476C286.476 60.0985 286.377 59.9995 286.377 59.8015C286.476 59.5044 286.377 59.4054 286.179 59.3064ZM285.783 59.2074H285.585V58.7124C285.585 58.7124 285.684 58.7124 285.783 58.7124C285.981 58.7124 286.08 58.8114 286.08 58.9104C286.179 59.2074 285.981 59.2074 285.783 59.2074Z" fill="#4C4C4C"/>
<path d="M285.785 57.7224C284.894 57.7224 284.102 58.4154 284.102 59.3065C284.102 60.1976 284.795 60.9897 285.785 60.9897C286.676 60.9897 287.468 60.2966 287.468 59.3065C287.468 58.4154 286.775 57.7224 285.785 57.7224ZM285.884 60.5936C285.191 60.5936 284.597 59.9996 284.597 59.3065C284.597 58.6134 285.092 58.0194 285.884 58.0194C286.577 58.0194 287.171 58.6134 287.171 59.3065C287.072 59.9996 286.577 60.5936 285.884 60.5936Z" fill="#4C4C4C"/>
</svg>
