<svg width="90" height="90" viewBox="0 0 90 90" fill="none" xmlns="http://www.w3.org/2000/svg">
<path d="M44.8773 81.6687C65.7511 81.6687 82.6726 64.7472 82.6726 43.8734C82.6726 22.9996 65.7511 6.07812 44.8773 6.07812C24.0036 6.07812 7.08203 22.9996 7.08203 43.8734C7.08203 64.7472 24.0036 81.6687 44.8773 81.6687Z" fill="#DE5833"/>
<path d="M76.8763 30.3303C75.1125 26.1729 72.5929 22.4563 69.4433 19.3067C66.2307 16.0941 62.5141 13.6374 58.4196 11.8736C54.1362 10.0469 49.6007 9.16499 44.8763 9.16499C40.1519 9.16499 35.6165 10.1099 31.333 11.8736C27.1755 13.6374 23.459 16.1571 20.3094 19.3067C17.0968 22.5193 14.6401 26.2359 12.8763 30.3303C11.0496 34.6138 10.1677 39.1492 10.1677 43.8736C10.1677 48.5351 11.1125 53.1335 12.8763 57.417C14.6401 61.5744 17.1598 65.291 20.3094 68.4406C23.522 71.6532 27.2385 74.1099 31.333 75.8736C35.6165 77.7004 40.1519 78.5823 44.8763 78.5823C49.6007 78.5823 54.1362 77.6374 58.4196 75.8736C62.5771 74.1099 66.2937 71.5902 69.4433 68.4406C72.6559 65.228 75.1125 61.5114 76.8763 57.417C78.7031 53.1335 79.585 48.5981 79.585 43.8736C79.585 39.1492 78.7031 34.6138 76.8763 30.3303ZM52.4354 75.0548C50.4196 71.6532 45.1283 62.1414 45.1283 55.0862C45.1283 38.8343 56.0259 52.7555 56.0259 39.7792C56.0259 36.6925 54.5141 25.8579 45.0653 23.5902C42.7346 20.5036 37.2543 17.5429 28.5614 18.7398C28.5614 18.7398 30.0102 19.1807 31.648 19.9996C31.648 19.9996 28.4984 20.4406 28.3724 22.5823C28.3724 22.5823 34.6086 22.2673 38.1362 23.4012C30.0102 24.4721 25.7897 28.6925 26.5456 36.5036C27.6165 47.5272 32.2779 67.1807 33.9157 74.0469C21.5692 69.5744 12.6873 57.7319 12.6873 43.8107C12.6873 26.1099 27.0496 11.6847 44.8133 11.6847C62.5771 11.6847 76.9393 26.0469 76.9393 43.8107C76.9393 58.9918 66.4826 71.6532 52.4354 75.0548Z" fill="white"/>
<path fill-rule="evenodd" clip-rule="evenodd" d="M43.113 49.1018C43.113 44.9443 48.7823 43.6215 50.9241 43.6215C56.7193 43.6215 64.9083 39.905 66.9241 39.9679C69.0028 40.0309 70.3256 40.8498 70.3256 41.7947C70.3256 43.1805 58.7351 48.4089 54.2626 47.9679C49.9792 47.59 48.9713 48.0309 48.9713 49.7947C48.9713 51.3065 52.0579 52.6924 55.4595 52.6924C60.5619 52.6924 65.5382 50.4246 67.05 51.4955C68.3729 52.4404 63.5855 55.842 58.1052 55.842C52.6248 55.842 43.113 53.2593 43.113 49.1018Z" fill="#FED30A"/>
<path d="M53.1918 31.4642C51.68 29.5114 48.9714 29.4484 48.0265 31.7162C49.4753 30.5823 51.2391 30.3303 53.1918 31.4642Z" fill="#2D4F8D"/>
<path d="M36.309 31.5272C34.2303 30.2673 30.7657 30.1413 30.9547 34.1099C32.0255 31.6532 33.4114 31.2122 36.309 31.5272Z" fill="#2D4F8D"/>
<path d="M51.931 35.1807C50.7972 35.1807 49.8523 36.1256 49.8523 37.2595C49.8523 38.3933 50.7972 39.3382 51.931 39.3382C53.0649 39.3382 54.0098 38.3933 54.0098 37.2595C54.0098 36.1256 53.0649 35.1807 51.931 35.1807ZM52.687 37.0705C52.372 37.0705 52.057 36.8185 52.057 36.4406C52.057 36.1256 52.309 35.8106 52.687 35.8106C53.0649 35.8106 53.3169 36.0626 53.3169 36.4406C53.2539 36.8185 53.0019 37.0705 52.687 37.0705Z" fill="#2D4F8D"/>
<path d="M35.804 36.3145C34.4812 36.3145 33.4103 37.3854 33.4103 38.7082C33.4103 40.0311 34.4812 41.1019 35.804 41.1019C37.1269 41.1019 38.1977 40.0311 38.1977 38.7082C38.1977 37.3854 37.1269 36.3145 35.804 36.3145ZM36.6859 38.5192C36.308 38.5192 35.993 38.2043 35.993 37.8263C35.993 37.4484 36.308 37.1334 36.6859 37.1334C37.0639 37.1334 37.3788 37.4484 37.3788 37.8263C37.3788 38.2043 37.0639 38.5192 36.6859 38.5192Z" fill="#2D4F8D"/>
<path d="M30.5753 26.1102C27.5517 28.3149 26.1659 31.7165 26.6068 36.5039C27.6777 47.5275 32.3391 67.244 33.9769 74.1102C34.5438 74.2991 35.1107 74.4881 35.6777 74.6771C34.6698 70.5196 29.8194 50.2361 27.6777 34.6771C27.1107 30.5196 28.6855 28.0629 30.5753 26.1102Z" fill="#D5D7D8"/>
<path d="M38.0719 23.4015C38.3239 23.4015 38.5128 23.3385 38.5128 23.3385C35.2373 21.7637 30.0719 21.7007 28.6861 21.7007C28.5601 21.9527 28.4341 22.2676 28.4341 22.5826C28.3711 22.6456 34.4814 22.2676 38.0719 23.4015Z" fill="#D5D7D8"/>
<path d="M32.1497 19.9997C31.1418 19.3068 30.3229 18.8658 29.819 18.6138C29.378 18.6768 29.0001 18.6768 28.5591 18.7398C28.5591 18.7398 30.0079 19.1808 31.6457 19.9997C31.6457 19.9997 31.5827 19.9997 31.5197 19.9997C31.8977 19.9997 32.1497 19.9997 32.1497 19.9997Z" fill="#D5D7D8"/>
<path d="M57.5399 61.8889C56.4691 61.6369 52.3116 64.5976 50.7368 65.7314C50.6738 65.4165 50.6108 65.1645 50.5478 65.0385C50.3588 64.4086 46.3273 64.7865 45.3825 65.7944C42.8628 64.5976 37.8234 62.2669 37.7604 63.7157C37.5714 65.6054 37.7604 73.4795 38.7683 74.0464C39.5242 74.4873 43.8076 72.1566 45.9494 70.9598C45.9494 70.9598 45.9494 70.9598 46.0124 70.9598C47.3352 71.2747 49.7919 70.9598 50.6738 70.3928C50.7998 70.3298 50.8628 70.2039 50.9258 70.0779C52.8785 70.8338 57.099 72.3456 57.9809 72.0306C59.1147 71.7157 58.8628 62.2039 57.5399 61.8889Z" fill="#67BD47"/>
<path d="M46.0124 70.9598C44.6895 70.7078 45.1306 69.3852 45.1306 66.2986C44.8156 66.4876 44.5636 66.7395 44.5636 66.9915C44.5636 70.0781 44.0597 71.4639 45.4455 71.6529C46.7684 71.9679 49.225 71.6529 50.2329 71.086C50.4219 70.96 50.4849 70.771 50.5479 70.4561C49.603 71.023 47.2722 71.2747 46.0124 70.9598Z" fill="#43A347"/>
<path d="M74.6093 71.0231C74.0423 71.0231 73.5384 71.464 73.5384 72.0309C73.5384 72.5979 73.9793 73.1018 74.6093 73.1018C75.1762 73.1018 75.6801 72.6609 75.6801 72.0309C75.6801 71.527 75.2392 71.0231 74.6093 71.0231ZM74.6722 72.9128C74.2313 72.9128 73.8533 72.5349 73.8533 72.0939C73.8533 71.653 74.1683 71.275 74.6722 71.275C75.1132 71.275 75.4911 71.653 75.4911 72.0939C75.4281 72.5349 75.1132 72.9128 74.6722 72.9128Z" fill="#4C4C4C"/>
<path d="M74.6727 71.6527C74.7987 71.6527 74.8617 71.7157 74.9247 71.8417L75.1137 71.7157C75.0507 71.5897 74.8617 71.4008 74.6727 71.4008C74.3578 71.4008 74.0428 71.6527 74.0428 72.0307C74.0428 72.4086 74.2948 72.6606 74.6727 72.6606C74.9247 72.6606 75.0507 72.5346 75.1137 72.3456L74.9247 72.2197C74.8617 72.3456 74.7987 72.4086 74.6727 72.4086C74.4838 72.4086 74.2948 72.2197 74.2948 72.0307C74.3578 71.8417 74.4838 71.6527 74.6727 71.6527Z" fill="#4C4C4C"/>
</svg>
