<svg width="300" height="100" viewBox="0 0 300 100" fill="none" xmlns="http://www.w3.org/2000/svg">
<path d="M137.828 26.5268C136.511 34.1197 132.871 36.8808 128.416 37.3828V39.5791H134.001V58.8436C134.001 64.2402 137.577 66.8758 142.347 66.8758C146.049 66.8758 149.877 65.307 151.194 62.0439L149.877 60.3497C149.249 61.4164 147.241 62.9852 144.731 62.9852C141.97 62.9852 140.464 61.1027 140.464 56.3336V39.3281L149.751 40.0183L150.253 35.7512L140.464 36.1277V26.5268H137.828ZM157.595 56.1453L155.211 56.2081C155.524 59.2201 155.587 62.2322 155.211 64.9932C155.211 64.9932 159.98 66.7503 164.811 66.7503C171.338 66.7503 176.546 63.6127 176.546 57.5259C176.546 46.8582 160.733 48.5525 160.733 41.3988C160.733 38.4495 163.431 37.32 166.192 37.32C168.514 37.32 170.396 38.1358 170.773 39.3281L172.342 44.0344L174.663 43.9089C174.789 41.3988 174.977 38.5123 175.354 36.1905C173.346 35.312 169.141 34.81 166.506 34.81C160.356 34.81 155.399 37.5083 155.399 43.5324C155.399 54.0745 170.836 51.7528 170.836 59.6594C170.836 62.2949 169.141 64.303 165.376 64.303C161.799 64.303 160.042 62.4832 159.352 60.6634L157.595 56.1453ZM183.26 76.4139C181.378 76.4139 180.813 75.5354 180.562 74.2804L179.621 69.3858L176.985 69.5113C176.609 72.3979 176.044 75.6609 175.291 78.2337C177.048 79.426 179.181 79.9907 182.068 79.9907C186.335 79.9907 192.736 78.7985 198.509 65.1815L208.549 41.3988C209.365 39.5163 209.616 39.2653 212.063 38.324L213.381 37.822V35.6257L207.42 35.9395L201.082 35.6257V37.822L202.713 38.324C204.345 38.826 205.098 39.3908 205.098 40.7086C205.098 41.3988 204.909 41.7126 204.533 42.5911C203.843 44.3481 199.387 55.3296 197.191 60.0986C194.43 53.196 190.665 42.9049 190.226 41.3988C190.1 41.0223 190.037 40.7086 190.037 40.3948C190.037 39.3908 190.728 38.575 192.234 38.2613L194.305 37.822V35.6257L185.708 35.9395L178.868 35.6257V37.822L179.997 38.1985C181.629 38.7633 181.817 38.9515 182.884 41.3361C187.214 51.1252 192.045 63.6127 193.614 67.6915C190.226 74.5314 186.21 76.4139 183.26 76.4139ZM100.554 24.7698C100.554 24.1423 100.617 23.7658 101.684 23.7658H116.054C118.564 23.7658 119.944 25.8993 120.948 29.9154L121.764 33.1157H124.211C124.651 24.0168 125.027 20.0635 125.027 20.0635C125.027 20.0635 118.878 20.7537 115.238 20.7537H96.8519L87 20.44V23.0755L90.3258 23.703C92.6476 24.1423 93.2124 24.6443 93.4006 26.7778C93.4006 26.7778 93.5889 33.0529 93.5889 43.4069C93.5889 53.7608 93.4006 59.9731 93.4006 59.9731C93.4006 61.8557 92.6476 62.5459 90.3258 62.9852L87 63.6127V66.2483L96.8519 65.9345H113.293C116.995 65.9345 125.592 66.2483 125.592 66.2483C125.78 63.9892 127.035 53.7608 127.224 52.6313H124.902L122.454 58.2161C120.509 62.6087 117.685 62.9224 114.548 62.9224H105.198C102.06 62.9224 100.554 61.6674 100.554 58.9691V44.6619C100.554 44.6619 107.52 44.6619 109.779 44.8501C111.536 44.9756 112.602 45.4777 113.167 47.9249L113.92 51.188H116.619L116.43 42.9676L116.807 34.6845H114.109L113.23 38.324C112.665 40.7086 112.289 41.1478 109.841 41.3988C106.641 41.7126 100.554 41.6498 100.554 41.6498V24.7698Z" fill="#F56502"/>
</svg>
