<svg width="90" height="90" viewBox="0 0 90 90" fill="none" xmlns="http://www.w3.org/2000/svg">
<path d="M77 5H13C8.58172 5 5 8.58172 5 13V77C5 81.4183 8.58172 85 13 85H77C81.4183 85 85 81.4183 85 77V13C85 8.58172 81.4183 5 77 5Z" fill="#F56502"/>
<path d="M38.0419 26.4837C38.0419 25.8859 38.1017 25.5272 39.118 25.5272H52.8082C55.1994 25.5272 56.5147 27.5598 57.4712 31.3859L58.2484 34.4348H60.5799C60.9983 25.7663 61.357 22 61.357 22C61.357 22 55.4984 22.6576 52.031 22.6576H34.5147L25.1289 22.3587V24.8696L28.2974 25.4674C30.5093 25.8859 31.0474 26.3641 31.2267 28.3967C31.2267 28.3967 31.4061 34.375 31.4061 44.2391C31.4061 54.1033 31.2267 60.0217 31.2267 60.0217C31.2267 61.8152 30.5093 62.4728 28.2974 62.8913L25.1289 63.4891V66L34.5147 65.7011H50.1777C53.7049 65.7011 61.8951 66 61.8951 66C62.0744 63.8478 63.2701 54.1033 63.4494 53.0272H61.2375L58.906 58.3478C57.0527 62.5326 54.3625 62.8315 51.3734 62.8315H42.4658C39.4767 62.8315 38.0419 61.6359 38.0419 59.0652V45.4348C38.0419 45.4348 44.6777 45.4348 46.8299 45.6141C48.5038 45.7337 49.5201 46.212 50.0582 48.5435L50.7756 51.6522H53.3462L53.1668 43.8207L53.5255 35.9293H50.9549L50.1179 39.3967C49.5799 41.6685 49.2212 42.087 46.8897 42.3261C43.8408 42.625 38.0419 42.5652 38.0419 42.5652V26.4837Z" fill="white"/>
</svg>
