<svg width="96" height="96" viewBox="0 0 96 96" fill="none" xmlns="http://www.w3.org/2000/svg">
<g filter="url(#filter0_d_874_4061)">
<rect x="8" y="6" width="80" height="80" rx="20.2105" fill="white" shape-rendering="crispEdges"/>
<path d="M39.3609 30.7732C39.4134 31.4962 39.2025 32.2137 38.7671 32.7931C38.1823 33.3375 37.2735 33.387 36.7427 33.387H30.9844C29.8739 33.3556 28.7626 33.3856 27.6554 33.4769C27.2996 33.5419 26.9524 33.6476 26.6207 33.7918C26.5532 33.8188 26.5307 33.7918 26.5802 33.7468L39.7208 20.3813C39.7658 20.3363 39.7928 20.3543 39.7658 20.4263C39.6215 20.758 39.5158 21.1052 39.4509 21.461C39.3596 22.5682 39.3295 23.6795 39.3609 24.79V30.7732ZM51.5747 71.1892C50.3969 70.4475 49.4727 69.3648 48.925 68.0851C48.5132 67.0513 48.3621 65.9321 48.4848 64.8261C48.6076 63.7201 49.0006 62.6613 49.6291 61.743C50.2576 60.8247 51.1023 60.0751 52.0888 59.5603C53.0754 59.0455 54.1734 58.7813 55.2861 58.7909C55.5523 58.7897 55.8161 58.8413 56.0623 58.9426C56.3084 59.0439 56.532 59.193 56.7203 59.3812C56.9085 59.5694 57.0575 59.793 57.1589 60.0392C57.2602 60.2853 57.3117 60.5491 57.3105 60.8153C57.3072 61.1762 57.2085 61.5299 57.0244 61.8404C56.8404 62.1509 56.5774 62.4072 56.2624 62.5833C56.0239 62.7126 55.7654 62.8008 55.4976 62.8442C54.9727 62.8865 54.4654 63.053 54.0175 63.33C53.7719 63.5142 53.5719 63.7524 53.4331 64.0262C53.2942 64.3 53.2202 64.6021 53.2168 64.9091C53.2151 65.5661 53.474 66.197 53.9365 66.6636C54.3374 67.0659 54.8144 67.3844 55.3395 67.6007C55.8647 67.8169 56.4277 67.9266 56.9956 67.9232C57.7236 67.9255 58.4448 67.7841 59.118 67.5071C59.7912 67.23 60.403 66.8227 60.9183 66.3086C61.4337 65.7945 61.8425 65.1837 62.1212 64.5112C62.3999 63.8387 62.5431 63.1178 62.5425 62.3898C62.5425 59.6456 60.698 57.2164 58.2687 56.1367C57.7888 55.9412 57.2919 55.7906 56.7842 55.6868C56.1094 55.5519 55.4796 55.4619 55.4346 55.4619C53.5452 55.237 48.8216 53.7524 48.5067 49.5686C48.5067 49.5686 47.1121 55.8668 44.3229 57.5763C43.9936 57.737 43.6462 57.8579 43.2882 57.9362C42.9626 58.0084 42.6316 58.0535 42.2985 58.0711C37.7549 58.341 32.9413 56.9015 29.6123 53.4825C29.6123 53.4825 27.363 51.638 26.1933 46.4646C25.9234 45.2049 25.3836 42.9556 25.0687 40.8412C24.9337 40.0765 24.8887 39.4916 24.8438 38.9518C24.8438 36.7699 26.1933 35.2629 27.8803 35.0515H28.1458H37.0351C38.6096 35.0515 39.5094 34.6466 40.0942 34.1067C40.859 33.387 41.0389 32.3523 41.0389 31.1376V21.9334C41.0389 21.8704 41.0389 21.7219 41.0389 21.6724C41.2503 19.9854 42.7574 18.6313 44.9392 18.6313H46.0189C46.5173 18.6342 47.0148 18.6718 47.508 18.7438C47.9155 18.8048 48.3194 18.8873 48.7181 18.9912C51.4623 19.675 52.0471 22.4552 52.0471 22.4552L59.8298 23.8048C62.304 24.2547 68.4222 24.6596 69.5919 30.8227C72.336 45.4884 70.6715 59.7041 70.5366 59.7041C68.6021 73.56 57.0856 72.8852 57.0856 72.8852C55.1219 72.8734 53.2052 72.2836 51.5747 71.1892ZM61.9442 41.696C60.4551 41.5385 59.191 42.1458 58.7276 43.275C58.6281 43.4692 58.5845 43.6873 58.6016 43.9048C58.6215 43.9566 58.6523 44.0034 58.6919 44.0422C58.7315 44.081 58.779 44.1109 58.8311 44.1298C59.3754 44.3907 60.2841 44.5211 61.5843 44.6786C62.8844 44.836 63.7976 44.9215 64.3869 44.7956C64.4421 44.7918 64.4956 44.7752 64.5433 44.7471C64.5909 44.7189 64.6313 44.6801 64.6613 44.6336C64.7328 44.4264 64.7422 44.2028 64.6883 43.9903C64.5084 42.7667 63.4422 41.8939 61.9442 41.696Z" fill="#00A82D"/>
</g>
<defs>
<filter id="filter0_d_874_4061" x="0" y="0" width="96" height="96" filterUnits="userSpaceOnUse" color-interpolation-filters="sRGB">
<feFlood flood-opacity="0" result="BackgroundImageFix"/>
<feColorMatrix in="SourceAlpha" type="matrix" values="0 0 0 0 0 0 0 0 0 0 0 0 0 0 0 0 0 0 127 0" result="hardAlpha"/>
<feOffset dy="2"/>
<feGaussianBlur stdDeviation="4"/>
<feComposite in2="hardAlpha" operator="out"/>
<feColorMatrix type="matrix" values="0 0 0 0 0 0 0 0 0 0 0 0 0 0 0 0 0 0 0.1 0"/>
<feBlend mode="normal" in2="BackgroundImageFix" result="effect1_dropShadow_874_4061"/>
<feBlend mode="normal" in="SourceGraphic" in2="effect1_dropShadow_874_4061" result="shape"/>
</filter>
</defs>
</svg>
