<svg width="300" height="100" viewBox="0 0 300 100" fill="none" xmlns="http://www.w3.org/2000/svg">
<path d="M93.3429 59.9342L91.9375 60.2244V60.2327L91.979 61.3935H115.223L115.804 51.6432H114.477C113.399 54.2549 112.612 55.996 111.865 57.1153C110.497 59.1425 109.838 59.557 106.522 59.557C102.5 59.557 102.376 59.1425 102.376 55.4571V47.5018H103.495C106.522 47.5018 107.061 47.7091 107.558 48.7455C108.089 49.8079 108.518 50.9183 108.839 52.0619H110.083V41.3747H108.839C108.553 42.4756 108.122 43.5337 107.558 44.5212C107.061 45.4332 106.397 45.7648 103.495 45.7648H102.376V35.1979C103.608 34.8826 104.878 34.743 106.149 34.7833C109.005 34.7833 109.876 34.9491 111.202 36.8561C112.101 38.2515 112.877 39.7217 113.524 41.2503H114.809L114.394 33.0049H91.9375V34.1656L93.3429 34.4558C94.5451 34.7419 94.9182 34.9491 94.9182 37.4365V56.9536C94.9182 59.4368 94.5865 59.6026 93.3429 59.9342Z" fill="#000008"/>
<path d="M116.842 41.4574C117.879 41.7849 118.335 42.3653 119.288 44.6868L126.049 61.3933H129.532L135.866 45.147C136.861 42.4524 137.317 41.8347 138.395 41.4616L139.179 41.2128V40.135H131.596V41.2128L132.716 41.503C133.586 41.7103 134.001 42.1663 134.001 43.0742C133.956 43.8599 133.774 44.6316 133.462 45.3542L130.145 54.8019H129.938L126.497 45.3542C126.199 44.6563 126.017 43.914 125.958 43.1571C125.958 42.1622 126.373 41.7476 127.243 41.4989L128.363 41.2087V40.1309H116.059V41.2087L116.842 41.4574Z" fill="#000008"/>
<path fill-rule="evenodd" clip-rule="evenodd" d="M138.23 50.653C138.23 43.5269 143.491 39.5928 148.918 39.5928C154.552 39.5928 158.075 42.4076 158.2 49.8281H144.681C144.805 56.5397 147.33 58.3596 151.559 58.3596C153.655 58.3497 155.718 57.8259 157.566 56.834V58.1979C156.445 59.3672 155.101 60.2998 153.613 60.9407C152.126 61.5815 150.525 61.9175 148.905 61.9289C141.779 61.8418 138.23 57.6134 138.23 50.653ZM144.693 48.2528L151.695 47.8797C151.695 42.9465 151.032 41.1266 148.586 41.1266C146.522 41.1266 144.863 43.1123 144.681 48.2528H144.693Z" fill="#000008"/>
<path d="M175.261 39.4678C172.524 39.4678 170.161 41.4949 169.005 42.7386L168.992 42.6971H168.868L168.951 39.8823L168.495 39.5507L159.889 40.5456V41.3747L161.257 42.2826L161.29 42.3049C162.417 43.0728 162.621 43.2112 162.621 44.9357V57.6625C162.621 59.4036 162.455 59.6109 161.091 59.984L160.013 60.2742V61.3935H171.82V60.2742L170.452 59.984C169.212 59.7767 169.046 59.5695 169.046 57.6625V44.3968C169.585 43.8993 170.452 43.3604 171.198 43.3604C171.425 43.3463 171.652 43.3926 171.856 43.4945C172.06 43.5964 172.233 43.7504 172.359 43.9408C172.602 44.508 173.007 44.9911 173.523 45.3301C174.039 45.6691 174.643 45.8491 175.261 45.8477C176.087 45.818 176.869 45.4688 177.443 44.8738C178.017 44.2789 178.338 43.4844 178.338 42.6578C178.338 41.8311 178.017 41.0367 177.443 40.4417C176.869 39.8467 176.087 39.4976 175.261 39.4678Z" fill="#000008"/>
<path d="M179.689 60.2662L180.767 59.976C182.135 59.603 182.301 59.3957 182.301 57.6545V44.9361C182.301 43.211 182.097 43.073 180.964 42.3046L180.932 42.2829L179.564 41.3751V40.5459L188.183 39.551L188.639 39.8412L188.556 42.4487H188.722C190.878 40.919 193.568 39.5469 196.553 39.5469C200.035 39.5469 201.897 41.3295 201.897 45.0148V57.6089C201.897 59.3915 202.063 59.5988 203.389 59.9304L204.467 60.2206V61.3399H193.075V60.2206L194.07 59.9719C195.314 59.6403 195.438 59.5159 195.438 57.6089V46.6357C195.438 44.1484 194.526 43.3608 192.619 43.3608C191.333 43.3998 190.055 43.5806 188.809 43.8997V57.6628C188.809 59.6112 188.933 59.6942 190.177 60.0258L191.172 60.2745V61.3938H179.776V60.2745L179.689 60.2662Z" fill="#000008"/>
<path fill-rule="evenodd" clip-rule="evenodd" d="M216.316 39.584C210.807 39.584 205.256 42.946 205.256 50.7769C205.256 58.2762 210.392 61.8413 216.316 61.833C221.954 61.833 227.422 58.3923 227.422 50.5614C227.422 43.145 222.245 39.584 216.316 39.584ZM216.2 41.1676C219.019 41.1676 220.595 42.7387 220.595 50.9842H220.586C220.586 58.8151 218.887 60.266 216.449 60.266C213.468 60.266 212.1 58.442 212.1 50.0722C212.1 43.0289 213.634 41.1676 216.2 41.1676Z" fill="#000008"/>
<path d="M230.992 56.2067V42.5264H228.426V41.5398C229.994 40.9609 231.415 40.0444 232.589 38.8552C233.763 37.666 234.661 36.2331 235.22 34.6582H237.542V40.1303H242.969L242.43 42.5306H237.542V55.7963C237.542 57.8234 238.164 58.6525 240.191 58.6525C241.182 58.6259 242.168 58.5009 243.134 58.2794V59.4402C241.373 61.0482 239.056 61.9101 236.671 61.8446C232.982 61.8404 230.992 60.2237 230.992 56.2067Z" fill="#000008"/>
<path fill-rule="evenodd" clip-rule="evenodd" d="M254.631 39.5928C249.204 39.5928 243.943 43.5269 243.943 50.653C243.943 57.6134 247.475 61.8418 254.643 61.9289C256.263 61.9175 257.864 61.5815 259.351 60.9407C260.839 60.2998 262.183 59.3672 263.303 58.1979V56.834C261.456 57.8259 259.393 58.3497 257.296 58.3596C253.072 58.3596 250.543 56.5397 250.419 49.8281H263.913C263.788 42.4076 260.269 39.5928 254.631 39.5928ZM250.377 48.2521L257.367 47.8797C257.367 42.9465 256.704 41.1266 254.258 41.1266C252.201 41.1266 250.543 43.1122 250.377 48.2521Z" fill="#000008"/>
<path d="M50.4027 36.1846C50.4506 36.852 50.2563 37.5144 49.8555 38.0501C49.3166 38.5517 48.475 38.5932 47.99 38.5932H42.6836C41.6603 38.5643 40.6361 38.592 39.6159 38.6761C39.288 38.736 38.968 38.8333 38.6624 38.9663C38.6002 38.9912 38.5795 38.9663 38.6209 38.9248L50.7344 26.6126C50.7758 26.5712 50.8007 26.5877 50.7758 26.6541C50.6429 26.9597 50.5455 27.2796 50.4856 27.6075C50.4015 28.6278 50.3738 29.6519 50.4027 30.6752V36.1846ZM61.658 73.4157C60.5726 72.7322 59.7209 71.7345 59.2163 70.5552C58.8394 69.6032 58.7021 68.5732 58.8165 67.5558C58.9309 66.5383 59.2935 65.5645 59.8724 64.72C60.4512 63.8754 61.2287 63.186 62.1364 62.7122C63.0441 62.2385 64.0543 61.995 65.0781 62.003C65.3234 62.0035 65.5662 62.0527 65.7924 62.1475C66.0186 62.2424 66.2238 62.3811 66.3961 62.5558C66.5684 62.7304 66.7044 62.9374 66.7962 63.1648C66.8881 63.3923 66.934 63.6357 66.9312 63.8809C66.9277 64.2135 66.8366 64.5392 66.667 64.8252C66.4974 65.1113 66.2554 65.3475 65.9653 65.5101C65.7448 65.6275 65.5068 65.7087 65.2605 65.7506C64.7764 65.7875 64.3084 65.9411 63.8966 66.1983C63.6703 66.368 63.486 66.5875 63.3581 66.8398C63.2301 67.0921 63.1619 67.3705 63.1587 67.6534C63.1572 68.2588 63.3957 68.8402 63.822 69.2701C64.1915 69.6409 64.631 69.9344 65.1149 70.1337C65.5989 70.333 66.1176 70.434 66.641 70.4309C67.3108 70.4314 67.9741 70.2999 68.593 70.0438C69.2119 69.7878 69.7742 69.4122 70.2478 68.9386C70.7214 68.465 71.097 67.9027 71.3531 67.2838C71.6091 66.6649 71.7407 66.0016 71.7401 65.3319C71.7401 62.8031 70.0404 60.5645 67.8018 59.5696C67.3596 59.3895 66.9016 59.2507 66.4337 59.155C65.8119 59.0307 65.2315 58.9478 65.1901 58.9478C63.4489 58.7405 59.096 57.3725 58.8058 53.5171C58.8058 53.5171 57.5207 59.3209 54.9504 60.8962C54.647 61.0443 54.3269 61.1556 53.997 61.2278C53.6969 61.2943 53.3918 61.3359 53.0849 61.3522C48.8979 61.6009 44.4621 60.2743 41.3943 57.1237C41.3943 57.1237 39.3215 55.424 38.2437 50.6567C37.9949 49.4959 37.4975 47.4232 37.2073 45.4748C37.0829 44.77 37.0415 44.2311 37 43.7337C37 41.7231 38.2437 40.3343 39.7983 40.1395H40.0429H48.247C49.698 40.1395 50.5271 39.7664 51.066 39.2689C51.7708 38.6056 51.9366 37.6522 51.9366 36.5329V28.0428C51.9366 27.9848 51.9366 27.848 51.9366 27.7982C52.1314 26.2478 53.5202 25 55.5308 25H56.5258C56.985 25.0026 57.4435 25.0372 57.898 25.1036C58.2738 25.1578 58.6462 25.2339 59.0131 25.3316C61.5419 25.9618 62.0809 28.5237 62.0809 28.5237L69.2528 29.7674C71.5328 30.1819 77.1708 30.555 78.2487 36.2344C80.7775 49.7488 79.2436 62.8487 79.1193 62.8487C77.3367 75.6169 66.7239 74.9951 66.7239 74.9951C64.9169 74.9769 63.1552 74.4276 61.658 73.4157ZM71.2136 46.2334C69.8414 46.0925 68.6765 46.648 68.2495 47.6926C68.1574 47.8715 68.1172 48.0725 68.1334 48.273C68.151 48.3207 68.1792 48.3637 68.2158 48.3989C68.2524 48.4341 68.2966 48.4605 68.3449 48.4761C69.1629 48.7627 70.0167 48.9343 70.882 48.986C72.08 49.1311 72.9216 49.2099 73.4647 49.0938C73.5154 49.0897 73.5645 49.0742 73.6083 49.0483C73.6521 49.0225 73.6895 48.987 73.7176 48.9446C73.7834 48.7536 73.7921 48.5476 73.7424 48.3518C73.5642 47.2408 72.5775 46.4365 71.2136 46.25V46.2334Z" fill="#00A82D"/>
</svg>
