<svg version="1.1" id="Camada_1" xmlns="http://www.w3.org/2000/svg" xmlns:xlink="http://www.w3.org/1999/xlink" x="0px" y="0px"
	 viewBox="0 0 1842.7 873.9" style="enable-background:new 0 0 1842.7 873.9;" xml:space="preserve">
<style type="text/css">
	.st0{fill:#E3131A;}
	.st1{fill:#FFFFFF;}
	.st2{fill:#0773B8;}
</style>
<g>
	<path class="st0" d="M1056.1,547.2c27,0,53.9,0.1,80.9,0c15.3,0,17-1.9,17-16.8c0-27.1,0-54.1,0-81.2c0-14.5-2.8-17.5-17.7-17.6
		c-26.1-0.2-52.2-0.1-78.3-0.1c-4.3,0-8.6-0.1-12.8-0.2c-6.1-0.2-9.3-3.7-10.1-9.5c-0.4-2.7-0.4-5.5-0.4-8.3
		c0-31.1,0-91.1-0.1-122.2c0-3.2-0.3-6.4-0.6-9.5c-0.5-4-2.9-5.9-7-6c-5.2-0.1-10.2,0.8-15.2,2c-32.6,8.1-65.6,13.8-98,22.9
		c-10.4,2.9-13,5.3-13,16.4c0,9.6,0.6,48,0.6,57.6c0.1,56.7,0,113.4,0,170c0.2,0,0.3,0,0.5,0c0,65.8-0.4,131.7,0.2,197.5
		c0.2,24.9,8.2,48.2,21.2,69.5c20.3,33.4,52.2,50.3,88.9,58.7c23.8,5.5,48.5,4.9,72.8,4c18.3-0.7,36.8-1.7,54.6-6.5
		c10.9-3,14.2-7.7,14.3-18.9c0-25.6,0-51.1,0-76.7c0-11.6-1.9-13.2-13.6-11.8c-1.1,0.1-2.1,0.4-3.1,0.6c-16,2.5-32,5.2-48.4,3.2
		c-20.2-2.5-35.8-11.2-45.6-29.8c-5.9-11.3-8.4-23.2-8.4-35.7c-0.2-43.5-0.1-86.9-0.2-130.4C1034.6,549.4,1036.8,547.2,1056.1,547.2
		z"/>
	<path class="st0" d="M889.2,845.8c-46.4-63-92.8-126.1-139.3-189.1c-13.7-18.6-13.5-21,0.3-39.6c41.9-56.3,83.6-112.7,125.3-169.1
		c2.5-3.3,5.7-6.7,3.2-11.5c-2.3-4.6-6.6-4.9-11-4.9c-40.4,0-80.8,0-121.3-0.3c-9.8-0.1-16.3,3.7-21.6,11.9
		c-19.9,30.1-40.2,59.8-60.4,89.6c-7.5,11.1-10.9,10.6-18.2-0.6c-19.5-30-39.4-59.8-59.1-89.7c-5.1-7.7-11.7-11.3-21.4-11.2
		c-41.1,0.4-82.1,0.1-123.2,0.1c-2.8,0-5.6,0-8.3,0.3c-8.5,0.7-11.3,5.3-7.6,13.1c1.5,3.2,3.5,6.3,5.7,9.2
		c37.7,50.9,75.5,101.7,113.3,152.6c5.5,7.4,11.2,14.5,16.5,22c5.4,7.8,5.2,12-0.3,19.8c-3.1,4.3-6.6,8.4-9.8,12.7
		c-30.9,41.6-61.8,83.2-92.7,124.8c-15.2,20.4-30.5,40.6-45.6,61c-2.6,3.5-5.8,7.5-3.2,12.3c2.4,4.5,7.2,4.1,11.4,4.1
		c42.1,0,84.3,0,126.4,0.1c7.9,0,13.9-2.6,18.4-9.4c14-21.1,28.2-42.2,42.6-63.1c11.2-16.1,21.5-32.8,33.8-48.1
		c4.8-6,8.5-5.9,13.5-0.1c1.4,1.6,2.4,3.5,3.6,5.3c12.5,18.8,25,37.6,37.5,56.5c10.1,15.3,20.6,30.4,30.1,46
		c5.4,8.8,12.1,13.1,22.4,12.9c21.6-0.2,43.2-0.1,64.8-0.1c0,0,0,0,0,0.1c23.3,0,46.6,0.2,69.9-0.1c9.1-0.1,11.6-5.3,6.9-13.2
		C891.3,848.5,890.2,847.1,889.2,845.8z"/>
	<path class="st0" d="M401.5,796.4c-8.4-16.8-16.9-33.5-25.1-50.3c-6.9-14.1-9.9-15.4-24.1-8.9c-2.1,1-4.3,1.9-6.4,3
		c-21.4,11.1-43.6,19.2-67.5,23.3c-27.4,4.7-54.5,6.2-80.9-3.6c-29.9-11-50.4-31.5-60.1-62c-2.3-7.2,0.7-11.5,8.2-12.6
		c2.5-0.4,5.1-0.2,7.7-0.2c44.3,0,88.5,0,132.8,0c44.5,0,89,0,133.5,0c17.9,0,24.9-5.8,25.7-23.6c2.1-45-3.8-88.6-23.8-129.8
		c-24-49.6-62.7-82.8-114.5-99.7c-29.2-9.6-59.9-13.4-91.1-11c-31.8,2.4-62.6,7.9-91.5,22.2C61.7,474.1,21.5,523.3,6.8,591
		C-4.7,644.2-2.6,697.1,20,748.1c13.8,31.2,34,57.2,60.8,77.8c36.1,27.8,77,44.4,123,47.5c30.6,2.1,61.1,1.7,91.4-2.7
		c21.5-3.1,41.8-10.9,62-18.2c16.1-5.8,30.5-15.4,44.7-24.9c8.3-5.6,9.2-9.9,5.3-19.1C405.6,804.3,403.5,800.4,401.5,796.4z
		 M138.7,581.4c9-31.9,29.1-52.5,61.9-60.8c32.6-8.2,62.3-3.7,88.2,18.4c13.6,11.6,20.6,27,23.8,44.1c1.7,9-2.1,13.4-11.3,13.4
		c-25.2,0.1-50.4,0-75.6,0c0,0,0,0,0,0c-22.4,0-44.9,0-67.3,0c-3,0-6,0-9-0.1C138.7,595.8,135.8,591.8,138.7,581.4z"/>
	<g>
		<path class="st1" d="M1183.5,11.5c-9.2-10.8-22.7-12.1-32.1-12.1l-0.7,0c-21.4,0.2-279,0.3-297.1,0.6
			c-32.6,0.5-62.5,8.1-88.9,22.6c-55,30.2-86,77.6-89.7,137.2c-1.8,28.9-1.2,81.3-1.3,109.5c-0.2,55.5,57,88,74.7,98.9
			c22.3,13.7,48.2,21.1,79.2,22.7c0.7,0,1.5,0.1,2.1,0.1h0c10.5,0,17.2-4.5,20.9-8.2c5.5-5.5,8.2-12.8,8.1-21.7
			c-0.2-12.7,0.2-130.1,0.2-130.1c13.3-3.2,20-4.5,32.2-6.9c41.9-8.3,86.9-17.9,132-32.3c32.9-10.5,75.5-26.6,112.8-57
			c30.9-25.2,48.6-54.1,54.2-88.5C1191.2,38.8,1193.7,23.5,1183.5,11.5z"/>
		<path class="st2" d="M835.9,306.3c0-18.3-0.1-36.6,0.1-54.9c0.1-5.4-1.9-7.2-7.3-7.1c-10.2,0.2-19.5,3.9-28.7,7.5
			c-22.7,8.9-42.6,22-57.3,41.8c-5.8,7.8-7.8,16.5-5.5,26c3.1,13.2,11.9,22.5,22.9,29.3c20.9,12.8,44.2,18.1,68.5,19.4
			c5.3,0.3,7.4-1.6,7.3-7C835.8,342.9,835.9,324.6,835.9,306.3z"/>
		<path class="st0" d="M1150.9,22c-49.4,0.4-98.8,0.1-148.2,0.1c0,0.1,0,0.2,0,0.2c-49.6,0-99.2-0.5-148.8,0.2
			c-27.5,0.4-53.9,6.4-78.4,19.8c-47.2,25.9-74.7,65.4-78.1,118.8c-2.5,40.4-0.6,81.1-0.6,121.7c0,1.9-0.1,4,2.1,4.8
			c2.3,0.8,3.9-0.8,5.3-2.4c1.3-1.6,2.6-3.2,3.8-4.9c14.8-20,34.8-33.3,57.3-43.1c38.9-17,79.8-27.1,121.3-35.3
			c43.6-8.6,87-18.1,129.5-31.7c38-12.2,74.3-27.6,105.4-53c23.9-19.5,41.1-43.4,46.2-74.6C1170.2,27.8,1168.3,21.9,1150.9,22z"/>
	</g>
	<path class="st0" d="M1842.2,604.6c-0.2-25.7-4.6-50.7-13.8-74.9c-20.6-54-60.7-86.3-115.5-100.4c-29.9-7.7-60.8-10.6-92.2-8.3
		c-42.3,3.1-81.3,14.9-117.4,36.8c-13.6,8.3-15.6,13.3-8,27.1c11.8,21.5,22.1,43.7,33.9,65.3c5.3,9.7,8.2,10.4,17.8,4.9
		c24.2-13.8,49.8-23.6,77.7-26.5c21.8-2.3,43.1-0.9,63,9.9c15.1,8.2,21.6,21.3,23,37.5c0.9,10.9-3,14.8-13.9,15.3
		c-2.6,0.1-5.1,0.1-7.7,0.1c-29.9,0-59.9-0.1-89.6,3.7c-35.4,4.5-70,11.7-101.6,29.1c-31.3,17.3-53.6,42-62.4,77.3
		c-4.2,16.9-4.4,34.2-2.9,51.5c1.2,14,3.9,27.7,9.9,40.7c19.4,41.8,54.2,65.1,97,76c31.8,8.1,65.1,7.5,97.4,1.1
		c25.3-5,48.7-15.7,69.4-31.6c3.4-2.6,6.8-5.2,10.5-7.3c5.8-3.4,8.8-2.4,11.7,3.8c2,4.2,3.8,8.6,5.2,13c3.5,11,10.9,15.1,22.3,14.8
		c22.2-0.6,44.5-0.3,66.7-0.2c18.2,0,19.9-1.5,19.9-19.6c0-40.9,0-81.8,0-122.7c-0.1,0-0.2,0-0.3,0
		C1842.3,682.2,1842.6,643.4,1842.2,604.6z M1685.8,752.7c-18,16.3-39.3,25.4-62.8,24.1c-14.7,0.2-27.1-1.9-38.9-8.9
		c-25.8-15.4-23.4-53.5-6.4-69.7c15.4-14.6,34.1-20.2,54.4-23.2c21.3-3.1,42.6-2.6,64-2.2c12.7,0.2,14.3,2.7,14.8,15.4
		C1712,713.5,1704.6,735.6,1685.8,752.7z"/>
	<path class="st0" d="M1336.9,852c0.2-2.8,0.1-5.5,0.1-8.3c0-81.6,0.3-163.2-0.4-244.8c-0.1-13.4,4.5-22.4,15.2-29.3
		c2.5-1.6,5-3.2,7.6-4.7c27.5-16.2,57.7-23.2,89.2-25.4c9.2-0.7,12.6-3.5,12.6-12.6c0.2-31.3,0.1-62.6,0-93.9c0-6.6-3.3-9.6-9.8-8.8
		c-15,1.9-30.3,2.5-44.9,6.9c-25.3,7.6-49.3,18-71,33.4c-7.6,5.4-10.9,4.2-14.3-4.5c-2.1-5.6-3.8-11.3-6.2-16.8
		c-3.5-7.8-9.1-12.1-18.5-11.9c-25.4,0.4-50.9,0-76.4,0.1c-13.4,0.1-17.1,3.8-17.1,17.1c0,14.5,0.6,29,0.6,43.4
		c0.1,51.6,0,103.1,0,154.7c0,57.1,0,114.2,0,171.3c0,11.3-1.4,22.5,0,33.8c1.1,8.5,3.6,11.3,12.3,11.3c36.6,0.1,73.1,0.1,109.7-0.1
		C1333.8,862.9,1336.4,860,1336.9,852z"/>
</g>
</svg>
