<svg width="100" height="100" viewBox="0 0 100 100" fill="none" xmlns="http://www.w3.org/2000/svg">
<path d="M94.4436 28.6135V16.6951H51.5V83.7225H66.6664V57.7693H88.6382V46.3241H66.6664V28.6135H94.4436Z" fill="#111111"/>
<path d="M11.9157 21.1785V41.0611C11.9193 41.595 11.818 42.1244 11.6176 42.6192C11.4172 43.1138 11.1215 43.564 10.7475 43.9442C10.3735 44.3243 9.92847 44.6267 9.43783 44.8345C8.9472 45.0423 8.42056 45.151 7.88798 45.1547H5.55469V54.901H7.8602C8.39276 54.901 8.92012 55.0062 9.41217 55.2104C9.9042 55.4149 10.3513 55.7143 10.7278 56.0919C11.1044 56.4693 11.4032 56.9176 11.607 57.4108C11.8108 57.9041 11.9157 58.4328 11.9157 58.9667V78.6544C11.9157 88.8742 17.3045 94.4436 27.082 94.4436H36.2485V83.3049H30.6931C30.1751 83.3151 29.659 83.2399 29.1653 83.0821C26.8598 82.5808 25.6099 80.7151 25.6099 77.5126V60.8046C25.6099 56.3769 25.6099 51.9214 19.8044 49.8885C25.6099 47.8 25.6099 42.6762 25.6099 38.4993V22.2645C25.4334 21.0625 25.696 19.837 26.3493 18.8136C27.0026 17.7903 28.0026 17.0379 29.1653 16.6951C29.6905 16.5558 30.234 16.4994 30.7764 16.5281H36.3319V5.5564H27.082C17.1656 5.5564 11.9157 11.1258 11.9157 21.1785Z" fill="#111111"/>
</svg>
