<svg width="396" height="100" viewBox="0 0 396 100" fill="none" xmlns="http://www.w3.org/2000/svg">
<g clip-path="url(#clip0_1350_175)">
<mask id="mask0_1350_175" style="mask-type:luminance" maskUnits="userSpaceOnUse" x="-49" y="0" width="494" height="100">
<path d="M444.75 0H-49V100H444.75V0Z" fill="white"/>
</mask>
<g mask="url(#mask0_1350_175)">
<path d="M395.537 71.2915V81.0972H387.312C378.534 80.8213 373.845 76.0815 373.845 67.1787V44.7837H368.102V36.1818H373.845V26.5517H385.982V36.0815H395.261V44.6583H385.982V65.9749C385.982 68.8589 386.559 71.1661 390.998 71.1661L395.537 71.2915Z" fill="#111111"/>
<path d="M319.726 58.7273V58.0753C319.594 55.1909 320.034 52.3089 321.018 49.5946C322.003 46.8803 323.515 44.387 325.464 42.2577C327.413 40.1283 329.764 38.4046 332.382 37.1856C335 35.9665 337.833 35.276 340.717 35.1536C341.293 35.1536 341.895 35.1536 342.472 35.1536C353.933 35.1536 363.989 41.8245 363.989 57.7242V61.1097H332.14C332.466 68.4326 336.428 72.5706 343.099 72.5706C348.842 72.5706 351.525 70.0627 352.303 66.4013H363.764C362.359 75.9561 354.735 81.2727 342.673 81.2727C329.431 81.1724 319.726 72.7963 319.726 58.7273ZM352.052 53.4358C351.626 46.7649 348.265 43.5549 342.422 43.5549C336.579 43.5549 333.218 47.1662 332.391 53.4358H352.052Z" fill="#111111"/>
<path d="M270.171 58.7273V58.0753C270.039 55.1949 270.477 52.3169 271.459 49.6058C272.44 46.8946 273.947 44.4035 275.891 42.2747C277.835 40.1461 280.181 38.4213 282.793 37.1995C285.404 35.9777 288.231 35.2824 291.112 35.1536C291.689 35.1536 292.291 35.1536 292.867 35.1536C304.328 35.1536 314.41 41.8245 314.41 57.7242V61.1097H282.585C282.911 68.4326 286.874 72.5706 293.544 72.5706C299.287 72.5706 301.971 70.0627 302.748 66.4013H314.209C312.78 75.9561 305.156 81.2727 293.093 81.2727C279.877 81.1724 270.171 72.7963 270.171 58.7273ZM302.497 53.4358C302.071 46.7649 298.711 43.5549 292.867 43.5549C287.024 43.5549 283.764 47.2665 282.836 53.4107L302.497 53.4358Z" fill="#111111"/>
<path d="M200.625 36.0815H213.465L221.315 65.8244L229.917 36.0815H239.948L247.722 65.8244L255.998 36.0815H267.76L253.816 80.2696H241.779L234.255 52.5329L226.205 80.2696H214.017L200.625 36.0815Z" fill="#111111"/>
<path d="M159.824 66.3762H171.285C171.812 70.3636 173.793 72.6458 179.059 72.6458C183.774 72.6458 185.956 70.8652 185.956 67.8307C185.956 64.7962 183.448 63.5172 177.028 62.6144C165.266 60.8338 160.727 57.4483 160.727 48.8213C160.727 39.6175 169.153 35.0533 178.282 35.0533C188.088 35.0533 195.486 38.6144 196.539 48.7712H185.229C185.157 47.9859 184.929 47.2228 184.56 46.5258C184.192 45.829 183.689 45.212 183.08 44.7106C182.472 44.2092 181.769 43.8336 181.015 43.605C180.26 43.3765 179.467 43.2997 178.683 43.3793H178.307C174.345 43.3793 172.037 45.2351 172.037 47.9436C172.037 50.652 174.169 51.8307 180.639 52.7586C191.624 54.4138 197.768 57.1975 197.768 66.652C197.768 76.1066 190.821 81.1724 179.185 81.1724C167.548 81.1724 160.15 75.931 159.824 66.3762Z" fill="#111111"/>
<path d="M111.121 36.0815H123.259V43.0784C124.627 40.5102 126.704 38.3887 129.242 36.9663C131.781 35.5437 134.674 34.8798 137.579 35.0533C146.181 35.0533 152.425 40.2947 152.425 52.2571V80.3699H140.438V54.0126C140.438 48.0188 138.105 45.1599 132.688 45.1599C131.544 45.0602 130.39 45.1876 129.295 45.5349C128.199 45.8821 127.183 46.4422 126.305 47.1832C125.426 47.9244 124.703 48.8315 124.176 49.8529C123.649 50.8741 123.329 51.9896 123.234 53.1348C123.171 53.668 123.171 54.2067 123.234 54.7398V80.2696H111.121V36.0815Z" fill="#111111"/>
<path d="M87.6993 24.9718C87.6554 23.7616 87.9715 22.5655 88.6075 21.5351C89.2437 20.5046 90.1714 19.6861 91.273 19.1831C92.3746 18.6802 93.6006 18.5154 94.796 18.7096C95.9913 18.9038 97.1021 19.4484 97.9877 20.2743C98.8734 21.1002 99.494 22.1704 99.7712 23.3492C100.048 24.5281 99.9694 25.7627 99.5445 26.8966C99.1195 28.0307 98.3677 29.0131 97.3841 29.7194C96.4005 30.426 95.2294 30.8247 94.0191 30.8652H93.7934C93.0422 30.9127 92.289 30.8115 91.577 30.5673C90.8651 30.3232 90.2084 29.9406 89.6444 29.4421C89.0807 28.9435 88.6207 28.3385 88.2912 27.6617C87.9618 26.9849 87.7691 26.2498 87.7244 25.4984C87.7035 25.3237 87.6952 25.1477 87.6993 24.9718ZM87.6993 36.0815H99.9627V80.2696H87.7495L87.6993 36.0815Z" fill="#111111"/>
<path d="M41.4805 19.8809H80.2516V30.5893H55.1733V46.5642H75.0353V56.8715H55.1482V80.2696H41.4805V19.8809Z" fill="#111111"/>
<path d="M18.0815 39.6426C18.0815 43.4295 18.0815 48.0439 12.8652 49.9248C18.2069 51.7555 18.0815 55.6426 18.0815 59.7053V74.7524C18.0815 77.6113 19.2351 79.3417 21.2915 79.768C21.7434 79.9205 22.2194 79.9885 22.6959 79.9686H27.7116V90H19.4357C10.6081 90 5.74295 84.9843 5.74295 75.6803V57.8746C5.68033 56.9604 5.27727 56.1031 4.61333 55.4716C3.94941 54.8401 3.07285 54.4807 2.15674 54.4639H0V45.6614H2.15674C3.09113 45.6491 3.9849 45.2776 4.65264 44.6239C5.32036 43.9702 5.71081 43.0844 5.74295 42.1505V24.094C5.74295 14.9404 10.5078 10 19.4357 10H27.7868V19.8809H22.7712C22.2942 19.8823 21.8202 19.9584 21.3668 20.1066C19.3103 20.6332 18.1567 22.3386 18.1567 25.1223L18.0815 39.6426Z" fill="#111111"/>
</g>
</g>
<defs>
<clipPath id="clip0_1350_175">
<rect width="396" height="100" fill="white"/>
</clipPath>
</defs>
</svg>
