<svg width="364" height="100" viewBox="0 0 364 100" fill="none" xmlns="http://www.w3.org/2000/svg">
<path d="M92.2793 38.2466H108.344V42.5891H96.888V48.4774H108.344V52.7869H96.888V62.2624H92.2793V38.2466ZM113.808 36.5689C113.837 36.5681 113.865 36.5674 113.894 36.5674C115.311 36.5674 116.477 37.7336 116.477 39.1504C116.477 39.1901 116.476 39.2291 116.474 39.2689C116.474 39.2801 116.474 39.2906 116.474 39.3019C116.474 40.7734 115.263 41.9846 113.792 41.9846C112.332 41.9846 111.127 40.7944 111.109 39.3349C111.107 39.3019 111.107 39.2681 111.107 39.2351C111.107 37.7734 112.31 36.5704 113.771 36.5704C113.784 36.5704 113.796 36.5704 113.808 36.5704V36.5689ZM111.537 44.4971H116.08V62.2624H111.537V44.4971ZM129.247 49.4314C128.618 48.9349 127.843 48.6574 127.042 48.6416C125.198 48.6416 124.145 49.8259 124.145 52.4246V62.2624H119.635V44.4986H123.947V47.0644C124.604 45.3229 126.336 44.2091 128.194 44.3336C129.272 44.3306 130.328 44.6516 131.222 45.2546L129.247 49.4314ZM131.122 53.4814C131.12 53.3974 131.118 53.3134 131.118 53.2294C131.118 48.2419 135.222 44.1386 140.209 44.1386C140.23 44.1386 140.251 44.1386 140.272 44.1386C145.604 44.1386 149.39 47.9216 149.39 53.1851V55.0601H135.567C136.061 57.2974 137.806 58.7779 140.472 58.7779C142.327 58.8356 144.053 57.8059 144.884 56.1461L148.669 58.4156C146.794 61.1794 144.126 62.6261 140.344 62.6261C134.579 62.6216 131.123 58.7756 131.123 53.4791L131.122 53.4814ZM135.632 51.4744H144.982C144.488 49.2049 142.645 47.9546 140.242 47.9546C138.071 47.8766 136.13 49.3579 135.633 51.4721L135.632 51.4744ZM150.511 44.4994H153.704V43.6099C153.704 38.7739 155.745 36.7676 160.222 36.7676H161.804V40.6826H160.52C158.414 40.6826 157.953 41.4056 157.953 43.6076V44.4964H161.804V48.5749H158.054V62.2624H153.704V48.5771H150.511V44.4994ZM162.661 53.3809C162.66 53.3314 162.659 53.2826 162.659 53.2331C162.659 48.2426 166.767 44.1349 171.758 44.1349C171.82 44.1349 171.882 44.1356 171.944 44.1371C177.015 44.1371 181.188 48.3101 181.188 53.3809C181.188 58.4516 177.015 62.6246 171.944 62.6246C171.836 62.6284 171.727 62.6306 171.618 62.6306C166.701 62.6306 162.655 58.5844 162.655 53.6674C162.655 53.5714 162.656 53.4761 162.659 53.3801L162.661 53.3809ZM176.816 53.3809C176.819 53.3239 176.819 53.2669 176.819 53.2099C176.819 50.5354 174.619 48.3349 171.944 48.3349C169.27 48.3349 167.069 50.5354 167.069 53.2099C167.069 53.2669 167.07 53.3239 167.072 53.3809C167.07 53.4379 167.069 53.4949 167.069 53.5519C167.069 56.2264 169.27 58.4269 171.944 58.4269C174.619 58.4269 176.819 56.2264 176.819 53.5519C176.819 53.4949 176.819 53.4379 176.816 53.3809ZM187.35 53.1836L180.929 44.4986H186.262L190.048 49.9594L193.932 44.4986H199.166L192.648 53.1499L199.496 62.2624H194.195L189.949 56.4724L185.834 62.2624H180.534L187.35 53.1836ZM225.887 49.8574C227.9 48.9356 229.172 46.8874 229.107 44.6741C229.107 40.8034 226.119 38.3096 221.607 38.3096H211.245V62.2586H221.936C226.517 62.2586 229.605 59.6996 229.605 55.5004C229.718 53.0194 228.211 50.7326 225.887 49.8574ZM214.004 40.8034H221.575C224.529 40.8034 226.355 42.3784 226.355 44.6741C226.355 46.9699 224.762 48.6769 221.807 48.6769H214.004V40.8034ZM221.906 59.7326H214.004V51.2021H221.774C225.094 51.2021 226.82 52.9414 226.82 55.4681C226.817 57.9611 224.891 59.7326 221.903 59.7326H221.906ZM235.52 47.8894V44.5466H232.895V62.2586H235.585V52.5484C235.585 48.6439 237.31 46.9376 240.299 46.9376C241.068 46.9069 241.829 47.1011 242.49 47.4956L243.615 44.9374C242.694 44.4604 241.664 44.2339 240.628 44.2811C238.293 44.1221 236.149 45.6364 235.517 47.8894H235.52ZM253.05 44.1821C248.035 44.2421 243.941 48.3844 243.941 53.4004C243.941 58.4576 248.103 62.6194 253.16 62.6194C258.218 62.6194 262.379 58.4584 262.379 53.4011C262.379 53.3779 262.379 53.3539 262.379 53.3306C262.379 48.3109 258.249 44.1806 253.229 44.1806C253.169 44.1806 253.107 44.1806 253.046 44.1821H253.05ZM253.05 60.0604C253.022 60.0611 252.992 60.0611 252.964 60.0611C249.422 60.0611 246.507 57.1466 246.507 53.6044C246.507 53.5361 246.508 53.4686 246.51 53.4011C246.509 53.3546 246.509 53.3074 246.509 53.2609C246.509 49.6631 249.47 46.7021 253.067 46.7021C256.665 46.7021 259.626 49.6631 259.626 53.2609C259.626 53.3074 259.625 53.3546 259.625 53.4011C259.626 53.4596 259.627 53.5189 259.627 53.5774C259.627 57.1339 256.7 60.0611 253.143 60.0611C253.111 60.0611 253.079 60.0611 253.046 60.0604H253.05ZM284.228 58.4854L278.879 44.5466H276.356L270.881 58.5874L266.363 44.5466H263.504L269.381 62.2624H272.037L277.55 48.2216L283.061 62.2624H285.519L291.728 44.5466H288.905L284.228 58.4854ZM301.328 52.0226C298.539 51.4654 296.378 51.1039 296.378 49.2679C296.378 47.6269 297.503 46.4456 300.263 46.4456C302.189 46.3676 304.034 47.2541 305.177 48.8081L307.434 47.2991C305.84 45.3634 303.583 44.1491 300.263 44.1491C296.013 44.1161 293.588 46.5439 293.588 49.2994C293.588 52.8424 296.874 53.6629 299.963 54.2494C302.588 54.7744 305.042 55.1681 305.042 57.1369C305.042 58.9084 303.581 60.2209 300.792 60.2209C298.5 60.3206 296.312 59.2271 295.017 57.3334L292.66 58.9084C294.254 61.1719 296.81 62.6156 300.728 62.6156C305.409 62.6479 307.799 59.8931 307.799 57.1039C307.798 53.4664 304.412 52.6136 301.324 52.0226H301.328ZM319.391 44.1821C319.316 44.1806 319.242 44.1791 319.167 44.1791C314.153 44.1791 310.028 48.3049 310.028 53.3186C310.028 53.3681 310.028 53.4169 310.029 53.4664C310.029 58.6504 313.747 62.6164 319.49 62.6164C322.877 62.7626 326.082 61.0324 327.819 58.1216L325.494 56.7769C324.328 58.9826 321.977 60.3176 319.485 60.1886C315.701 60.1886 313.077 57.7939 312.679 54.4136H328.516V53.2039C328.517 47.9546 324.629 44.1821 319.386 44.1821H319.391ZM312.751 52.0571C313.319 48.8636 316.148 46.5311 319.391 46.5821C322.877 46.5821 325.301 48.7144 325.732 52.0609L312.751 52.0571ZM339.512 44.2826C337.178 44.1229 335.032 45.6371 334.4 47.8909V44.5466H331.775V62.2586H334.464V52.5484C334.464 48.6439 336.189 46.9376 339.178 46.9376C339.947 46.9069 340.709 47.1011 341.369 47.4956L342.494 44.9374C341.573 44.4604 340.544 44.2339 339.508 44.2811L339.512 44.2826Z" fill="#20123A"/>
<path d="M76.9676 40.1211C75.7042 37.0822 73.1454 33.8014 71.1361 32.7645C72.7714 35.9704 73.7179 39.1864 74.0795 41.5865C74.0795 41.5912 74.0814 41.6029 74.0852 41.6349C70.7983 33.4422 65.2248 30.1387 60.6736 22.9457C60.4438 22.582 60.2134 22.2173 59.9889 21.8329C59.8746 21.6366 59.7678 21.4359 59.6689 21.2315C59.4798 20.8665 59.334 20.4806 59.2343 20.0817C59.2357 20.0428 59.2068 20.0088 59.1682 20.0038C59.1505 19.9987 59.1315 19.9987 59.1137 20.0038C59.1096 20.0053 59.1035 20.01 59.0992 20.0117C59.0928 20.0142 59.0847 20.02 59.0779 20.0238C59.0812 20.0194 59.0879 20.0096 59.09 20.0073C51.7879 24.2838 49.3108 32.1949 49.0832 36.1529C46.1677 36.3533 43.3791 37.4279 41.083 39.2358C40.8425 39.0327 40.5912 38.843 40.33 38.6673C39.6676 36.3495 39.6394 33.8958 40.2485 31.5634C37.2624 32.9231 34.9398 35.0723 33.2513 36.9701H33.2378C32.0855 35.5105 32.1668 30.6958 32.2325 29.6905C32.2187 29.6282 31.3728 30.1296 31.262 30.2052C30.2452 30.931 29.2946 31.7454 28.4213 32.6388C27.4275 33.6466 26.5196 34.7354 25.7068 35.8941C25.7068 35.8955 25.706 35.8972 25.7055 35.8987C25.7055 35.8971 25.7064 35.8955 25.7068 35.8941C23.8377 38.5429 22.5119 41.536 21.8064 44.7002C21.7925 44.7633 21.7808 44.8286 21.7672 44.8921C21.7125 45.148 21.5156 46.4282 21.4812 46.7064C21.4785 46.7278 21.4773 46.7484 21.4747 46.7698C21.2201 48.0934 21.0625 49.4338 21.003 50.7803C21.003 50.8299 21 50.879 21 50.9287C21.0005 66.9811 34.0152 79.9937 50.0688 79.9937C64.4461 79.9937 76.3837 69.5567 78.7208 55.8474C78.7701 55.4753 78.8095 55.1013 78.8529 54.726C79.4307 49.7414 78.7888 44.5022 76.9676 40.1211ZM43.4637 62.8721C43.5997 62.937 43.7274 63.008 43.867 63.0703C43.8728 63.0743 43.8808 63.0788 43.8867 63.0824C43.7446 63.0144 43.6037 62.9444 43.4637 62.8721ZM74.0875 41.642L74.0837 41.6138C74.0851 41.6241 74.0869 41.6349 74.0885 41.6451L74.0875 41.642Z" fill="url(#paint0_linear_897_6740)"/>
<path d="M76.9693 40.1213C75.7059 37.0824 73.1471 33.8016 71.1378 32.7646C72.7731 35.9706 73.7196 39.1865 74.0813 41.5866C74.0813 41.5796 74.0826 41.5925 74.0856 41.614C74.0871 41.6243 74.0889 41.635 74.0905 41.6453C76.8331 49.0804 75.3389 56.6411 73.1858 61.2612C69.8549 68.4097 61.7901 75.736 49.1671 75.3787C35.5289 74.9925 23.5139 64.873 21.2711 51.6189C20.8624 49.5288 21.2711 48.4676 21.4767 46.7706C21.2262 48.0788 21.1308 48.4567 21.005 50.7811C21.005 50.8307 21.002 50.8798 21.002 50.9295C21.0022 66.9812 34.0169 79.9939 50.0705 79.9939C64.4478 79.9939 76.3854 69.5569 78.7225 55.8475C78.7718 55.4755 78.8112 55.1015 78.8546 54.7262C79.4324 49.7416 78.7905 44.5024 76.9693 40.1213Z" fill="url(#paint1_radial_897_6740)"/>
<path d="M76.9693 40.1213C75.7059 37.0824 73.1471 33.8016 71.1378 32.7646C72.7731 35.9706 73.7196 39.1865 74.0813 41.5866C74.0813 41.5796 74.0826 41.5925 74.0856 41.614C74.0871 41.6243 74.0889 41.635 74.0905 41.6453C76.8331 49.0804 75.3389 56.6411 73.1858 61.2612C69.8549 68.4097 61.7901 75.736 49.1671 75.3787C35.5289 74.9925 23.5139 64.873 21.2711 51.6189C20.8624 49.5288 21.2711 48.4676 21.4767 46.7706C21.2262 48.0788 21.1308 48.4567 21.005 50.7811C21.005 50.8307 21.002 50.8798 21.002 50.9295C21.0022 66.9812 34.0169 79.9939 50.0705 79.9939C64.4478 79.9939 76.3854 69.5569 78.7225 55.8475C78.7718 55.4755 78.8112 55.1015 78.8546 54.7262C79.4324 49.7416 78.7905 44.5024 76.9693 40.1213Z" fill="url(#paint2_radial_897_6740)"/>
<path d="M62.8417 43.5377C62.9051 43.5822 62.9627 43.6265 63.0223 43.6708C62.2929 42.3761 61.3844 41.1906 60.3238 40.1495C51.2879 31.1146 57.9544 20.5594 59.0787 20.0233C59.082 20.0189 59.0888 20.0091 59.0908 20.0068C51.7888 24.2833 49.3116 32.1944 49.084 36.1524C49.4227 36.129 49.7604 36.1006 50.1051 36.1006C55.5542 36.1006 60.3002 39.0966 62.8417 43.5377Z" fill="url(#paint3_radial_897_6740)"/>
<path d="M50.1248 45.3418C50.0772 46.0649 47.5225 48.5584 46.6292 48.5584C38.3632 48.5584 37.0215 53.5581 37.0215 53.5581C37.3876 57.7685 40.3188 61.2357 43.8689 63.0704C44.0308 63.1541 44.1947 63.2297 44.3587 63.3044C44.6399 63.4289 44.9247 63.5454 45.2125 63.6535C46.4297 64.0845 47.7047 64.3304 48.9949 64.383C63.4829 65.0625 66.2898 47.0629 55.8343 41.8359C58.5119 41.3702 61.2912 42.4471 62.8433 43.5374C60.3018 39.0966 55.5557 36.1006 50.1067 36.1006C49.762 36.1006 49.4244 36.129 49.0856 36.1525C46.1701 36.3529 43.3815 37.4275 41.0854 39.2354C41.5286 39.6103 42.0289 40.1116 43.0829 41.1499C45.0547 43.0933 50.114 45.1057 50.1248 45.3418Z" fill="url(#paint4_radial_897_6740)"/>
<path d="M50.1248 45.3418C50.0772 46.0649 47.5225 48.5584 46.6292 48.5584C38.3632 48.5584 37.0215 53.5581 37.0215 53.5581C37.3876 57.7685 40.3188 61.2357 43.8689 63.0704C44.0308 63.1541 44.1947 63.2297 44.3587 63.3044C44.6399 63.4289 44.9247 63.5454 45.2125 63.6535C46.4297 64.0845 47.7047 64.3304 48.9949 64.383C63.4829 65.0625 66.2898 47.0629 55.8343 41.8359C58.5119 41.3702 61.2912 42.4471 62.8433 43.5374C60.3018 39.0966 55.5557 36.1006 50.1067 36.1006C49.762 36.1006 49.4244 36.129 49.0856 36.1525C46.1701 36.3529 43.3815 37.4275 41.0854 39.2354C41.5286 39.6103 42.0289 40.1116 43.0829 41.1499C45.0547 43.0933 50.114 45.1057 50.1248 45.3418Z" fill="url(#paint5_radial_897_6740)"/>
<path d="M39.7282 38.2693C39.9307 38.3999 40.1315 38.5329 40.3307 38.6684C39.6682 36.3505 39.6401 33.8968 40.2492 31.5645C37.2631 32.9241 34.9405 35.0734 33.252 36.9712C33.3917 36.9672 37.608 36.8913 39.7282 38.2693Z" fill="url(#paint6_radial_897_6740)"/>
<path d="M21.2699 51.6189C23.5128 64.8729 35.5277 74.9924 49.166 75.3786C61.7889 75.7359 69.8537 68.4092 73.1847 61.2612C75.3377 56.6407 76.832 49.081 74.0893 41.6453L74.0884 41.6421L74.0845 41.6139C74.0815 41.5924 74.0797 41.5796 74.0801 41.5866C74.0801 41.5913 74.0819 41.603 74.0858 41.635C75.1168 48.3675 71.6921 54.8898 66.3385 59.2998L66.3225 59.3376C55.8907 67.8315 45.9084 64.4623 43.8873 63.0832C43.7453 63.0148 43.6041 62.9445 43.4639 62.8723C37.3821 59.9659 34.8696 54.425 35.4084 49.6732C30.273 49.6732 28.5219 45.3419 28.5219 45.3419C28.5219 45.3419 33.1326 42.0545 39.2092 44.9136C44.8373 47.5617 50.1227 45.3421 50.1233 45.3419C50.1126 45.1058 45.0533 43.0933 43.081 41.1501C42.0271 40.1118 41.5267 39.6112 41.0835 39.2356C40.8431 39.0325 40.5917 38.8427 40.3306 38.6671C40.1312 38.5319 39.9304 38.3988 39.7281 38.2679C37.608 36.89 33.3916 36.9659 33.2518 36.9695H33.2384C32.0861 35.5099 32.1674 30.6952 32.233 29.6899C32.2193 29.6276 31.3734 30.129 31.2626 30.2046C30.2458 30.9304 29.2952 31.7448 28.4219 32.6382C27.4281 33.6462 26.5201 34.7353 25.7074 35.8942C25.7074 35.8957 25.7066 35.8973 25.7061 35.8988C25.7061 35.8972 25.7069 35.8957 25.7074 35.8942C23.8383 38.543 22.5125 41.5362 21.807 44.7004C21.7931 44.7634 20.7607 49.2775 21.2699 51.6189Z" fill="url(#paint7_radial_897_6740)"/>
<path d="M60.3235 40.1494C61.3841 41.1905 62.2926 42.376 63.022 43.6707C63.1821 43.7909 63.3316 43.9108 63.4584 44.0277C70.0483 50.0997 66.5955 58.6875 66.338 59.2995C71.6916 54.8895 75.1163 48.3672 74.0853 41.6347C70.7983 33.4422 65.2249 30.1387 60.6737 22.9457C60.4439 22.582 60.2135 22.2173 59.989 21.8329C59.8747 21.6366 59.7679 21.4359 59.6689 21.2315C59.4799 20.8665 59.334 20.4806 59.2343 20.0817C59.2358 20.0428 59.2069 20.0088 59.1683 20.0038C59.1505 19.9987 59.1315 19.9987 59.1137 20.0038C59.1096 20.0053 59.1036 20.01 59.0992 20.0117C59.0928 20.0142 59.0847 20.02 59.0779 20.0238C57.9541 20.5594 51.2876 31.1146 60.3235 40.1494Z" fill="url(#paint8_radial_897_6740)"/>
<path d="M63.4586 44.0286C63.3317 43.9116 63.1822 43.7917 63.0222 43.6715C62.963 43.627 62.905 43.5827 62.8416 43.5385C61.2895 42.4482 58.5102 41.3713 55.8326 41.837C66.2881 47.0639 63.4812 65.0636 48.9932 64.384C47.703 64.3314 46.428 64.0855 45.2109 63.6545C44.923 63.5463 44.6383 63.4299 44.3571 63.3055C44.193 63.2307 44.0291 63.1551 43.8672 63.0714C43.873 63.0754 43.881 63.0799 43.8869 63.0835C45.9081 64.4624 55.8903 67.8319 66.3221 59.338L66.3382 59.3002C66.5957 58.6888 70.0485 50.1006 63.4586 44.0286Z" fill="url(#paint9_radial_897_6740)"/>
<path d="M37.0196 53.5581C37.0196 53.5581 38.3614 48.5584 46.6273 48.5584C47.5209 48.5584 50.0756 46.065 50.1229 45.3419C50.1702 44.6188 44.8372 47.5617 39.2088 44.9136C33.1322 42.0544 28.5215 45.3419 28.5215 45.3419C28.5215 45.3419 30.2725 49.6732 35.4079 49.6732C34.8693 54.425 37.3818 59.9665 43.4635 62.8723C43.5995 62.9373 43.7272 63.0083 43.8668 63.0706C40.317 61.2358 37.3858 57.7686 37.0196 53.5581Z" fill="url(#paint10_radial_897_6740)"/>
<path d="M76.9691 40.1211C75.7057 37.0822 73.1469 33.8014 71.1376 32.7645C72.7729 35.9704 73.7194 39.1864 74.081 41.5865C74.081 41.5912 74.0828 41.6029 74.0867 41.6349C70.7998 33.4422 65.2263 30.1387 60.6751 22.9457C60.4453 22.582 60.2149 22.2173 59.9904 21.8329C59.8761 21.6366 59.7693 21.4359 59.6703 21.2315C59.4813 20.8665 59.3354 20.4806 59.2358 20.0817C59.2372 20.0428 59.2083 20.0088 59.1697 20.0038C59.1519 19.9987 59.1329 19.9987 59.1152 20.0038C59.111 20.0053 59.105 20.01 59.1006 20.0117C59.0942 20.0142 59.0861 20.02 59.0794 20.0238C59.0826 20.0194 59.0894 20.0096 59.0915 20.0073C51.7894 24.2838 49.3123 32.1949 49.0846 36.1529C49.4233 36.1295 49.761 36.101 50.1057 36.101C55.5551 36.101 60.3011 39.0971 62.8423 43.5379C61.2902 42.4476 58.5109 41.3707 55.8333 41.8364C66.2887 47.0633 63.4819 65.0629 48.9939 64.3834C47.7037 64.3308 46.4287 64.0849 45.2115 63.6539C44.9237 63.5457 44.6389 63.4293 44.3577 63.3049C44.1937 63.2301 44.0298 63.1545 43.8678 63.0708C43.8737 63.0748 43.8816 63.0793 43.8876 63.0829C43.7456 63.0146 43.6044 62.9443 43.4642 62.8721C43.6002 62.937 43.7279 63.008 43.8675 63.0703C40.3175 61.2357 37.3862 57.7685 37.0201 53.558C37.0201 53.558 38.3619 48.5583 46.6278 48.5583C47.5214 48.5583 50.0761 46.0649 50.1234 45.3418C50.1126 45.1057 45.0533 43.0932 43.081 41.15C42.0272 40.1117 41.5268 39.611 41.0836 39.2355C40.8431 39.0324 40.5918 38.8426 40.3306 38.667C39.6682 36.3491 39.64 33.8954 40.2491 31.563C37.263 32.9227 34.9404 35.0719 33.2519 36.9697H33.2385C32.0861 35.5102 32.1674 30.6954 32.2331 29.6902C32.2193 29.6279 31.3735 30.1292 31.2627 30.2048C30.2458 30.9307 29.2952 31.7451 28.4219 32.6384C27.4285 33.6464 26.5208 34.7353 25.7083 35.8941C25.7083 35.8955 25.7075 35.8972 25.707 35.8987C25.707 35.8971 25.7078 35.8955 25.7083 35.8941C23.8392 38.5429 22.5134 41.536 21.8079 44.7002C21.794 44.7633 21.7822 44.8286 21.7687 44.8921C21.714 45.148 21.468 46.4467 21.4336 46.7253C21.431 46.7467 21.4362 46.704 21.4336 46.7253C21.2093 48.0673 21.0662 49.4216 21.005 50.7809C21.005 50.8305 21.002 50.8796 21.002 50.9293C21.002 66.9811 34.0167 79.9937 50.0703 79.9937C64.4476 79.9937 76.3852 69.5567 78.7223 55.8474C78.7715 55.4753 78.811 55.1013 78.8544 54.726C79.4322 49.7414 78.7903 44.5022 76.9691 40.1211ZM74.0854 41.6138C74.0868 41.6241 74.0886 41.6349 74.0902 41.6451L74.0892 41.642L74.0854 41.6138Z" fill="url(#paint11_linear_897_6740)"/>
<defs>
<linearGradient id="paint0_linear_897_6740" x1="71.6562" y1="29.299" x2="26.4573" y2="75.8539" gradientUnits="userSpaceOnUse">
<stop stop-color="#FFF44F"/>
<stop offset="0.05" stop-color="#FFF44F"/>
<stop offset="0.37" stop-color="#FF980E"/>
<stop offset="0.53" stop-color="#FF3647"/>
<stop offset="0.7" stop-color="#E31587"/>
<stop offset="1" stop-color="#E31587"/>
</linearGradient>
<radialGradient id="paint1_radial_897_6740" cx="0" cy="0" r="1" gradientUnits="userSpaceOnUse" gradientTransform="translate(122.488 26.6721) scale(74.3148 74.3152)">
<stop stop-color="#FFBD4F"/>
<stop offset="0.13" stop-color="#FFBD4F"/>
<stop offset="0.28" stop-color="#FF980E"/>
<stop offset="0.47" stop-color="#FF3750"/>
<stop offset="0.78" stop-color="#EB0878"/>
<stop offset="0.86" stop-color="#E50080"/>
<stop offset="1" stop-color="#E50080"/>
</radialGradient>
<radialGradient id="paint2_radial_897_6740" cx="0" cy="0" r="1" gradientUnits="userSpaceOnUse" gradientTransform="translate(77.8993 70.548) scale(74.3148 74.3152)">
<stop stop-color="#960E18"/>
<stop offset="0.3" stop-color="#960E18"/>
<stop offset="0.35" stop-color="#B11927" stop-opacity="0.74"/>
<stop offset="0.43" stop-color="#DB293D" stop-opacity="0.34"/>
<stop offset="0.5" stop-color="#F5334B" stop-opacity="0.09"/>
<stop offset="0.53" stop-color="#FF3750" stop-opacity="0"/>
<stop offset="1" stop-color="#FF3750" stop-opacity="0"/>
</radialGradient>
<radialGradient id="paint3_radial_897_6740" cx="0" cy="0" r="1" gradientUnits="userSpaceOnUse" gradientTransform="translate(55.7744 17.1672) scale(33.1294 33.1296)">
<stop stop-color="#FFF44F"/>
<stop offset="0.13" stop-color="#FFF44F"/>
<stop offset="0.53" stop-color="#FF980E"/>
<stop offset="1" stop-color="#FF980E"/>
</radialGradient>
<radialGradient id="paint4_radial_897_6740" cx="0" cy="0" r="1" gradientUnits="userSpaceOnUse" gradientTransform="translate(42.8986 67.2629) scale(28.301 28.3011)">
<stop stop-color="#3A8EE6"/>
<stop offset="0.35" stop-color="#3A8EE6"/>
<stop offset="0.67" stop-color="#9059FF"/>
<stop offset="1" stop-color="#C139E6"/>
</radialGradient>
<radialGradient id="paint5_radial_897_6740" cx="0" cy="0" r="1" gradientUnits="userSpaceOnUse" gradientTransform="translate(49.1061 45.4399) scale(15.0278 16.6976)">
<stop stop-color="#9059FF" stop-opacity="0"/>
<stop offset="0.21" stop-color="#9059FF" stop-opacity="0"/>
<stop offset="0.97" stop-color="#6E008B" stop-opacity="0.6"/>
<stop offset="1" stop-color="#6E008B" stop-opacity="0.6"/>
</radialGradient>
<radialGradient id="paint6_radial_897_6740" cx="0" cy="0" r="1" gradientUnits="userSpaceOnUse" gradientTransform="translate(48.1173 24.4605) scale(20.6014 20.6015)">
<stop stop-color="#FFE226"/>
<stop offset="0.1" stop-color="#FFE226"/>
<stop offset="0.79" stop-color="#FF7139"/>
<stop offset="1" stop-color="#FF7139"/>
</radialGradient>
<radialGradient id="paint7_radial_897_6740" cx="0" cy="0" r="1" gradientUnits="userSpaceOnUse" gradientTransform="translate(66.8655 10.9449) scale(98.007 98.0075)">
<stop stop-color="#FFF44F"/>
<stop offset="0.11" stop-color="#FFF44F"/>
<stop offset="0.46" stop-color="#FF980E"/>
<stop offset="0.72" stop-color="#FF3647"/>
<stop offset="0.9" stop-color="#E31587"/>
<stop offset="1" stop-color="#E31587"/>
</radialGradient>
<radialGradient id="paint8_radial_897_6740" cx="0" cy="0" r="1" gradientUnits="userSpaceOnUse" gradientTransform="translate(61.6307 5.2233) scale(137.077 137.078)">
<stop stop-color="#FFF44F"/>
<stop offset="0.3" stop-color="#FF980E"/>
<stop offset="0.57" stop-color="#FF3647"/>
<stop offset="0.74" stop-color="#E31587"/>
<stop offset="1" stop-color="#E31587"/>
</radialGradient>
<radialGradient id="paint9_radial_897_6740" cx="0" cy="0" r="1" gradientUnits="userSpaceOnUse" gradientTransform="translate(48.3282 31.8703) scale(56.2703 56.2706)">
<stop stop-color="#FFF44F"/>
<stop offset="0.14" stop-color="#FFF44F"/>
<stop offset="0.48" stop-color="#FF980E"/>
<stop offset="0.66" stop-color="#FF3647"/>
<stop offset="0.9" stop-color="#E31587"/>
<stop offset="1" stop-color="#E31587"/>
</radialGradient>
<radialGradient id="paint10_radial_897_6740" cx="0" cy="0" r="1" gradientUnits="userSpaceOnUse" gradientTransform="translate(62.9331 35.1028) scale(67.6351 67.6355)">
<stop stop-color="#FFF44F"/>
<stop offset="0.09" stop-color="#FFF44F"/>
<stop offset="0.63" stop-color="#FF980E"/>
<stop offset="1" stop-color="#FF980E"/>
</radialGradient>
<linearGradient id="paint11_linear_897_6740" x1="67.4486" y1="28.3991" x2="31.4522" y2="70.3945" gradientUnits="userSpaceOnUse">
<stop stop-color="#FFF44F" stop-opacity="0.8"/>
<stop offset="0.17" stop-color="#FFF44F" stop-opacity="0.8"/>
<stop offset="0.6" stop-color="#FFF44F" stop-opacity="0"/>
<stop offset="1" stop-color="#FFF44F" stop-opacity="0"/>
</linearGradient>
</defs>
</svg>
