<svg width="100" height="100" viewBox="0 0 100 100" fill="none" xmlns="http://www.w3.org/2000/svg">
<path d="M73.9822 25.1124C73.854 24.3583 73.3159 23.7387 72.5871 23.5062C71.8584 23.2737 71.0608 23.4672 70.5196 24.0077L59.8965 34.6564L51.5443 18.7549C51.1906 18.0826 50.4934 17.6616 49.7337 17.6616C48.974 17.6616 48.2768 18.0826 47.9231 18.7549L43.3557 27.4498L31.8989 6.08087C31.4834 5.30472 30.618 4.88141 29.7502 5.02991C28.8824 5.1784 28.207 5.86539 28.0732 6.73554L17 77.6193L46.6138 94.2214C48.4734 95.2597 50.7383 95.2597 52.5979 94.2214L82.4674 77.6193L73.9822 25.1124Z" fill="url(#paint0_linear_1351_557)"/>
<mask id="mask0_1351_557" style="mask-type:luminance" maskUnits="userSpaceOnUse" x="17" y="5" width="66" height="90">
<path d="M73.9861 25.112C73.8579 24.3578 73.3198 23.7382 72.591 23.5057C71.8623 23.2732 71.0647 23.4667 70.5235 24.0072L59.9004 34.6559L51.5482 18.7545C51.1945 18.0821 50.4973 17.6611 49.7376 17.6611C48.9779 17.6611 48.2807 18.0821 47.927 18.7545L43.3596 27.4493L31.9029 6.08038C31.4873 5.30423 30.6219 4.88093 29.7541 5.02942C28.8864 5.17792 28.2109 5.8649 28.0771 6.73506L17.0039 77.6188L46.6177 94.221C48.4773 95.2592 50.7422 95.2592 52.6018 94.221L82.4713 77.6188L73.9861 25.112Z" fill="white"/>
</mask>
<g mask="url(#mask0_1351_557)">
<path d="M17.0039 77.6188L28.0822 6.72987C28.2176 5.86047 28.8938 5.17504 29.7612 5.02775C30.6287 4.88047 31.4932 5.30433 31.908 6.08031L43.3648 27.4493L47.9321 18.7544C48.2858 18.082 48.983 17.6611 49.7427 17.6611C50.5024 17.6611 51.1996 18.082 51.5533 18.7544L82.4713 77.6188H17.0039Z" fill="#FFA000"/>
<path d="M55.2768 50.0048L43.3596 27.439L17.0039 77.6187L55.2768 50.0048Z" fill="#F57C00"/>
</g>
<mask id="mask1_1351_557" style="mask-type:luminance" maskUnits="userSpaceOnUse" x="17" y="5" width="66" height="90">
<path d="M73.9861 25.112C73.8579 24.3578 73.3198 23.7382 72.591 23.5057C71.8623 23.2732 71.0647 23.4667 70.5235 24.0072L59.9004 34.6559L51.5482 18.7545C51.1945 18.0821 50.4973 17.6611 49.7376 17.6611C48.9779 17.6611 48.2807 18.0821 47.927 18.7545L43.3596 27.4493L31.9029 6.08038C31.4873 5.30423 30.6219 4.88093 29.7541 5.02942C28.8864 5.17792 28.2109 5.8649 28.0771 6.73506L17.0039 77.6188L46.6177 94.221C48.4773 95.2592 50.7422 95.2592 52.6018 94.221L82.4713 77.6188L73.9861 25.112Z" fill="white"/>
</mask>
<g mask="url(#mask1_1351_557)">
<path d="M82.4713 77.6191L73.9861 25.1123C73.8579 24.3581 73.3198 23.7385 72.591 23.506C71.8623 23.2735 71.0647 23.467 70.5235 24.0075L17.0039 77.6191L46.6177 94.2264C48.4773 95.2647 50.7422 95.2647 52.6018 94.2264L82.4713 77.6191Z" fill="#FFCA28"/>
</g>
<mask id="mask2_1351_557" style="mask-type:luminance" maskUnits="userSpaceOnUse" x="17" y="5" width="66" height="90">
<path d="M73.9861 25.112C73.8579 24.3578 73.3198 23.7382 72.591 23.5057C71.8623 23.2732 71.0647 23.4667 70.5235 24.0072L59.9004 34.6559L51.5482 18.7545C51.1945 18.0821 50.4973 17.6611 49.7376 17.6611C48.9779 17.6611 48.2807 18.0821 47.927 18.7545L43.3596 27.4493L31.9029 6.08038C31.4873 5.30423 30.6219 4.88093 29.7541 5.02942C28.8864 5.17792 28.2109 5.8649 28.0771 6.73506L17.0039 77.6188L46.6177 94.221C48.4773 95.2592 50.7422 95.2592 52.6018 94.221L82.4713 77.6188L73.9861 25.112Z" fill="white"/>
</mask>
<g mask="url(#mask2_1351_557)">
<path d="M73.9867 25.112C73.8586 24.3578 73.3204 23.7382 72.5917 23.5057C71.8629 23.2732 71.0654 23.4667 70.5241 24.0072L59.901 34.6559L51.5488 18.7545C51.1951 18.0821 50.498 17.6611 49.7382 17.6611C48.9785 17.6611 48.2814 18.0821 47.9277 18.7545L43.3603 27.4493L31.9035 6.08038C31.488 5.30423 30.6225 4.88093 29.7548 5.02942C28.887 5.17792 28.2115 5.8649 28.0777 6.73506L17.0046 77.6188H16.9688L17.0046 77.6597L17.2961 77.803L59.8806 35.1673L70.5088 24.5289C71.0497 23.9854 71.8492 23.79 72.5799 24.0228C73.3105 24.2555 73.8497 24.8774 73.9765 25.6336L82.3901 77.67L82.4719 77.6188L73.9867 25.112ZM17.1017 77.5216L28.0829 7.23629C28.2167 6.36614 28.8921 5.67915 29.7599 5.53066C30.6276 5.38216 31.4931 5.80546 31.9086 6.58162L43.3654 27.9506L47.9328 19.2557C48.2865 18.5833 48.9836 18.1624 49.7434 18.1624C50.5031 18.1624 51.2002 18.5833 51.5539 19.2557L59.7374 34.8195L17.1017 77.5216Z" fill="white" fill-opacity="0.2"/>
</g>
<mask id="mask3_1351_557" style="mask-type:luminance" maskUnits="userSpaceOnUse" x="17" y="5" width="66" height="90">
<path d="M73.9861 25.112C73.8579 24.3578 73.3198 23.7382 72.591 23.5057C71.8623 23.2732 71.0647 23.4667 70.5235 24.0072L59.9004 34.6559L51.5482 18.7545C51.1945 18.0821 50.4973 17.6611 49.7376 17.6611C48.9779 17.6611 48.2807 18.0821 47.927 18.7545L43.3596 27.4493L31.9029 6.08038C31.4873 5.30423 30.6219 4.88093 29.7541 5.02942C28.8864 5.17792 28.2109 5.8649 28.0771 6.73506L17.0039 77.6188L46.6177 94.221C48.4773 95.2592 50.7422 95.2592 52.6018 94.221L82.4713 77.6188L73.9861 25.112Z" fill="white"/>
</mask>
<g mask="url(#mask3_1351_557)">
<path opacity="0.2" d="M52.6018 93.7247C50.7422 94.763 48.4773 94.763 46.6177 93.7247L17.0755 77.1635L17.0039 77.6187L46.6177 94.2209C48.4773 95.2591 50.7422 95.2591 52.6018 94.2209L82.4713 77.6187L82.3946 77.1482L52.6018 93.7247Z" fill="#A52714"/>
</g>
<path d="M73.8962 25.1232C73.7685 24.3694 73.2322 23.7501 72.5061 23.5177C71.7799 23.2853 70.9851 23.4786 70.4457 24.0189L59.8598 34.663L51.5368 18.7685C51.1843 18.0964 50.4896 17.6756 49.7325 17.6756C48.9755 17.6756 48.2807 18.0964 47.9283 18.7685L43.3769 27.4596L31.9601 6.09993C31.5461 5.32411 30.6836 4.901 29.8189 5.04943C28.9542 5.19786 28.2811 5.88455 28.1478 6.75432L17.1133 77.6072L46.6235 94.2021C48.4766 95.2399 50.7336 95.2399 52.5867 94.2021L82.3518 77.6072L73.8962 25.1232Z" fill="url(#paint1_linear_1351_557)"/>
<defs>
<linearGradient id="paint0_linear_1351_557" x1="-211.624" y1="1536.95" x2="7947.18" y2="5853.76" gradientUnits="userSpaceOnUse">
<stop stop-color="white" stop-opacity="0.1"/>
<stop offset="0.14" stop-color="white" stop-opacity="0.08"/>
<stop offset="0.61" stop-color="white" stop-opacity="0.02"/>
<stop offset="1" stop-color="white" stop-opacity="0"/>
</linearGradient>
<linearGradient id="paint1_linear_1351_557" x1="-210.712" y1="1536.31" x2="7930.46" y2="5830.59" gradientUnits="userSpaceOnUse">
<stop stop-color="white" stop-opacity="0.1"/>
<stop offset="0.14" stop-color="white" stop-opacity="0.08"/>
<stop offset="0.61" stop-color="white" stop-opacity="0.02"/>
<stop offset="1" stop-color="white" stop-opacity="0"/>
</linearGradient>
</defs>
</svg>
