<svg width="300" height="100" viewBox="0 0 300 100" fill="none" xmlns="http://www.w3.org/2000/svg">
<path d="M86.5537 46.9148H81V40.0773H86.7106V38.3414C86.7106 29.9304 90.5352 27 98.0794 27C100.123 27 101.694 27.3255 102.899 27.5429L102.323 34.2715C101.537 34.0001 100.751 33.8372 99.337 33.8372C96.9271 33.8372 95.9839 35.5736 95.9839 38.3414V40.0776H102.69V46.9151H95.9839V68.3484H86.5537V46.9148Z" fill="#0063DC"/>
<path d="M117.044 27.6514H107.613V68.3481H117.044V27.6514Z" fill="#0063DC"/>
<path d="M134.54 28.3027H125.109V35.4655H134.54V28.3027Z" fill="#0063DC"/>
<path d="M134.54 40.0771H125.109V68.3477H134.54V40.0771Z" fill="#0063DC"/>
<path d="M162.884 48.1622C161.155 47.0777 159.427 46.589 157.174 46.589C153.087 46.589 149.944 49.5192 149.944 54.4031C149.944 58.9071 153.611 61.8367 157.698 61.8367C159.846 61.8367 161.994 61.3488 163.566 60.4803L163.775 67.7515C161.417 68.566 158.589 69 156.074 69C147.062 69 140.199 63.5736 140.199 54.2405C140.199 44.8528 147.062 39.4268 156.074 39.4268C158.903 39.4268 161.417 39.9152 163.566 41.0003L162.884 48.1622Z" fill="#0063DC"/>
<path d="M167.707 27.6514H177.137V51.9614H177.242L185.1 40.0773H195.421L185.939 53.0459L196.207 68.3481H184.786L177.242 54.3487H177.137V68.3481H167.707V27.6514Z" fill="#0063DC"/>
<path d="M219.204 47.8905C218.156 47.5655 217.108 47.5655 216.008 47.5655C211.608 47.5655 209.145 50.8751 209.145 56.4102V68.3477H199.715V40.0769H208.307V45.2861H208.411C210.035 41.7046 212.393 39.4258 216.48 39.4258C217.579 39.4258 218.732 39.5884 219.676 39.7511L219.204 47.8905Z" fill="#FF0084"/>
</svg>
