<svg width="90" height="90" viewBox="0 0 90 90" fill="none" xmlns="http://www.w3.org/2000/svg">
<rect x="5" y="5" width="80.0006" height="80" rx="17.4746" fill="#F94877"/>
<path d="M54.4725 30.7761L53.5144 35.4024C53.4049 35.8951 52.9395 36.3331 52.3646 36.3331H44.0427C43.1119 36.3331 42.3454 37.0996 42.3454 38.0304V39.0432C42.3454 39.974 43.1119 40.7405 44.0427 40.7405H51.078C51.735 40.7405 52.2825 41.3701 52.1456 42.0545C52.0088 42.7662 51.2696 46.3797 51.1875 46.7629C51.1328 47.1735 50.6948 47.6936 50.0378 47.6936H44.289C43.0845 47.721 42.8382 47.7484 42.1264 48.6244C41.4147 49.5004 35.1184 57.3843 35.1184 57.3843C35.0637 57.4664 35.0089 57.439 35.0089 57.3569V30.5571C35.0089 29.9275 35.5291 29.4073 36.1587 29.4073H53.4323C54.0345 29.4073 54.6368 30.0096 54.4725 30.7761ZM55.7318 25C55.7318 25 37.3632 25 34.4067 25C31.4776 25 30.6016 27.2174 30.6016 28.6135V62.5034C30.6016 64.1732 31.4502 64.666 31.9156 64.8576C32.3809 65.0492 33.6128 65.1861 34.4888 64.3101C34.4888 64.3101 44.6175 52.5116 44.7818 52.32C44.946 52.1284 45.0282 52.1284 45.1377 52.1284C45.2472 52.1284 49.4355 52.1284 51.5434 52.1284C54.2809 52.1284 54.801 50.2395 55.1021 49.0898C55.3485 48.1316 58.1681 34.4443 59.0441 30.1191C59.7011 26.7794 58.8525 25 55.7318 25Z" fill="white"/>
</svg>
