<svg width="300" height="100" viewBox="0 0 300 100" fill="none" xmlns="http://www.w3.org/2000/svg">
<path d="M224.31 64.1902C224.31 66.8756 226.354 68.9995 229.267 68.9995C230.978 68.9995 232.367 68.2651 233.194 67.2094V63.4478C233.194 63.2308 233.02 63.0549 232.802 63.0549H229.38C229.163 63.0549 228.987 63.2316 228.987 63.4493V64.2632C228.987 64.4811 229.163 64.6578 229.38 64.6578H231.391V66.6753C230.857 67.1028 230.161 67.3964 229.308 67.3964C227.508 67.3964 226.121 66.0146 226.114 64.2047C226.107 62.4829 227.454 61.012 229.175 60.9844C229.982 60.9714 230.688 61.2652 231.234 61.7075C231.386 61.8314 231.628 61.8085 231.763 61.6652L232.379 61.0127C232.536 60.8482 232.524 60.5828 232.348 60.4407C231.534 59.7861 230.465 59.3809 229.24 59.3809C226.328 59.3809 224.31 61.5052 224.31 64.1902ZM181.93 64.1902C181.93 66.8756 183.974 68.9995 186.886 68.9995C188.428 68.9995 189.709 68.4026 190.553 67.5114C190.704 67.3524 190.688 67.0977 190.525 66.9515L189.869 66.3665C189.708 66.2232 189.467 66.2396 189.317 66.3943C188.766 66.9641 187.969 67.3964 186.926 67.3964C185.127 67.3964 183.741 66.0146 183.733 64.2047C183.726 62.4829 185.074 61.012 186.795 60.9842C187.601 60.9714 188.307 61.2652 188.852 61.7075C189.005 61.8314 189.247 61.8085 189.382 61.6649L190 61.0127C190.155 60.8482 190.143 60.5828 189.967 60.4407C189.154 59.7861 188.085 59.3809 186.859 59.3809C183.947 59.3809 181.93 61.5052 181.93 64.1902ZM266.363 59.5145C266.145 59.5145 265.969 59.6904 265.969 59.9074V68.4732C265.969 68.6902 266.145 68.8661 266.363 68.8661H271.027C271.208 68.8661 271.367 68.7407 271.408 68.5631L271.602 67.7461C271.66 67.4993 271.471 67.263 271.218 67.263H267.774V64.6578H269.988C270.169 64.6578 270.328 64.5324 270.369 64.3547L270.563 63.5377C270.621 63.291 270.432 63.0549 270.178 63.0549H267.774V61.1178H270.819C271.002 61.1178 271.16 60.9922 271.201 60.8148L271.394 59.9971C271.452 59.7506 271.266 59.5145 271.012 59.5145H266.363ZM255.005 59.5145C254.788 59.5145 254.614 59.6904 254.614 59.9074V68.4732C254.614 68.6902 254.788 68.8661 255.005 68.8661H257.552C259.036 68.8661 260.01 68.5457 260.771 67.9846C261.921 67.1296 262.629 65.7404 262.629 64.1902C262.629 62.6407 261.921 61.2515 260.771 60.3963C260.01 59.8354 259.036 59.5145 257.552 59.5145H255.005ZM256.416 61.1178H257.753C258.862 61.1178 259.623 61.5052 260.143 62.1596C260.57 62.6941 260.824 63.4157 260.824 64.1902C260.824 64.9652 260.57 65.6865 260.143 66.221C259.623 66.8756 258.862 67.263 257.753 67.263H256.416V61.1178ZM249.208 59.5145C248.99 59.5145 248.814 59.6904 248.814 59.9074V68.4732C248.814 68.6902 248.99 68.8661 249.208 68.8661H250.225C250.443 68.8661 250.617 68.6902 250.617 68.4732V59.9074C250.617 59.6904 250.443 59.5145 250.225 59.5145H249.208ZM243.474 59.5145C243.258 59.5145 243.082 59.6904 243.082 59.9074V65.0587C243.082 65.9136 242.855 66.4346 242.468 66.7957C242.067 67.1828 241.506 67.3964 240.878 67.3964C240.25 67.3964 239.689 67.1828 239.288 66.7957C238.899 66.4346 238.674 65.9136 238.674 65.0587V59.9074C238.674 59.6904 238.498 59.5145 238.28 59.5145H237.263C237.046 59.5145 236.869 59.6904 236.869 59.9074V64.925C236.869 66.3546 237.297 67.3435 238.073 68.0377C238.793 68.6791 239.822 68.9997 240.878 68.9997C241.932 68.9997 242.961 68.6791 243.684 68.0377C244.457 67.3435 244.885 66.3546 244.885 64.925V59.9074C244.885 59.6904 244.708 59.5145 244.493 59.5145H243.474ZM214.935 59.5145C214.799 59.5145 214.673 59.5846 214.601 59.6998L212.673 62.8009L210.73 59.6989C210.659 59.5841 210.533 59.5145 210.398 59.5145H209.263C208.956 59.5145 208.769 59.8518 208.932 60.1118L211.764 64.6314V68.4732C211.764 68.6902 211.94 68.8661 212.157 68.8661H213.173C213.391 68.8661 213.568 68.6899 213.568 68.4722V64.6314L216.395 60.1186C216.56 59.8559 216.371 59.5145 216.061 59.5145H214.935ZM199.465 59.5145C199.248 59.5145 199.072 59.6904 199.072 59.9074V60.7249C199.072 60.9419 199.248 61.1178 199.465 61.1178H201.543V68.4732C201.543 68.6902 201.719 68.8661 201.936 68.8661H202.954C203.171 68.8661 203.347 68.6902 203.347 68.4732V61.1178H205.425C205.642 61.1178 205.818 60.9419 205.818 60.7249V59.9074C205.818 59.6904 205.642 59.5145 205.425 59.5145H199.465ZM194.401 59.5145C194.184 59.5145 194.008 59.6904 194.008 59.9074V68.4732C194.008 68.6902 194.184 68.8661 194.401 68.8661H195.418C195.635 68.8661 195.811 68.6902 195.811 68.4732V59.9074C195.811 59.6904 195.635 59.5145 195.418 59.5145H194.401Z" fill="#2B5AE1"/>
<path d="M150.264 33.7664C147.616 38.5489 148.112 44.8596 151.715 49.0482C154.828 52.6649 159.717 54.1738 164.296 53.5351C164.358 53.5965 164.426 53.6617 164.499 53.7296C167.035 56.1239 171.158 57.4542 174.675 57.4542L176.126 50.391C176.159 50.1346 175.97 49.8678 175.644 49.9904C174.822 50.2997 173.297 50.7097 171.485 50.3009C171.483 50.3009 171.483 50.2997 171.477 50.2997C171.739 50.0694 171.992 49.8323 172.234 49.582C175.712 45.8905 176.698 40.3654 174.996 35.6593C173.231 30.7804 168.571 27.4674 163.342 27.0449C162.968 27.015 162.593 27 162.219 27C157.356 26.9998 152.613 29.5178 150.264 33.7664ZM156.542 40.341C156.542 36.73 158.832 33.8046 162.201 33.8046C165.567 33.8046 167.857 36.73 167.857 40.341C167.857 43.9496 165.573 46.8777 162.201 46.8777C158.826 46.8777 156.542 43.9496 156.542 40.341ZM49.3985 33.7664C46.751 38.5489 47.2471 44.8596 50.8503 49.0482C55.9787 55.0099 65.9275 55.2523 71.369 49.582C74.8468 45.8915 75.833 40.3654 74.1306 35.6593C72.366 30.7804 67.706 27.4674 62.4769 27.0449C62.1031 27.015 61.728 27 61.3547 27C56.4927 26.9998 51.7481 29.5178 49.3985 33.7664ZM55.679 40.341C55.679 36.73 57.9696 33.8046 61.3354 33.8046C64.702 33.8046 66.9922 36.73 66.9922 40.341C66.9922 43.9496 64.7071 46.8777 61.3354 46.8777C57.9641 46.8777 55.679 43.9496 55.679 40.341ZM127.06 34.9295C127.06 38.1705 128.936 41.1554 132.956 42.5171L136.711 43.808C138.553 44.4336 138.85 44.9142 138.85 45.687C138.85 46.3871 138.111 47.1961 136.638 47.1961C134.557 47.1961 132.114 45.9459 130.469 44.5832C130.205 44.3638 129.837 44.3966 129.63 44.6663L126.253 49.1013C126.046 49.3708 126.079 49.7837 126.335 50.0053C128.775 52.1203 132.4 53.6837 136.97 53.6837C142.717 53.6837 146.881 50.3664 146.881 45.3582C146.881 41.9291 144.744 39.2384 140.69 37.8409L136.453 36.3661C135.203 35.9237 135.053 35.2238 135.053 34.8181C135.053 34.1562 135.679 33.4946 136.932 33.4946C138.293 33.4946 140.252 33.8706 142.167 35.3476C142.436 35.5573 142.815 35.5259 143.024 35.2562L146.314 31.1032C146.525 30.835 146.497 30.4305 146.236 30.2101C143.438 27.8351 139.996 27.0099 136.821 27.0087C130.704 27.0087 127.06 30.8024 127.06 34.9295ZM253.471 28.599V52.6819C253.471 53.097 253.981 53.5122 254.326 53.5122H270.251C270.616 53.5122 270.973 53.2236 271.048 52.8667L272.124 47.779C272.22 47.3378 271.933 46.9091 271.324 46.9091H260.943V43.5117H268.53C268.895 43.5117 269.255 43.2203 269.328 42.8639L270.464 37.6256C270.534 37.3095 270.367 36.9596 269.927 36.9596H260.943V33.9967H270.495C270.86 33.9967 271.215 33.708 271.292 33.3518L272.368 28.2675C272.46 27.8264 272.155 27.3985 271.732 27.3985C271.732 27.3985 254.797 27.3531 254.299 27.3531C253.884 27.3531 253.471 28.2339 253.471 28.599ZM192.431 28.1836V43.1318C192.431 45.5614 191.545 46.7566 189.3 46.7566C187.054 46.7566 186.19 45.5614 186.19 43.1318V28.165C186.19 27.7684 185.697 27.3579 185.359 27.3579H179.584C179.252 27.3579 178.728 27.8844 178.728 28.1836V44.5097C178.728 49.5928 182.413 53.6808 189.227 53.6808C196.115 53.6808 199.874 49.5928 199.874 44.5097V28.1836C199.874 27.8008 199.541 27.3579 199.141 27.3579C199.141 27.3579 193.624 27.3531 193.248 27.3531C192.84 27.3531 192.431 27.7808 192.431 28.1836ZM91.5297 28.1836V43.0345C91.5297 45.464 90.6569 46.7566 88.4127 46.7566C86.1658 46.7566 85.3016 45.5614 85.3016 43.1318V28.165C85.3016 27.7684 84.8215 27.3579 84.4711 27.3579H78.5753C78.1306 27.3579 77.8402 27.6392 77.8402 28.0679V44.5097C77.8402 49.5928 81.5246 53.6808 88.3392 53.6808C95.2268 53.6808 98.9854 49.5928 98.9854 44.5097V28.0679C98.9854 27.6851 98.6529 27.3579 98.2527 27.3579C98.2527 27.3579 92.7363 27.3531 92.3603 27.3531C91.9517 27.3531 91.5297 27.7808 91.5297 28.1836ZM28.8252 27.3576C28.4152 27.3576 28 27.817 28 28.1834V52.6816C28 53.0849 28.3634 53.436 28.7351 53.436H34.8124C35.1773 53.436 35.474 53.0438 35.474 52.6816V44.3773H43.0692C43.4343 44.3773 43.7603 44.1526 43.8673 43.7275L44.9543 38.4011C45.0246 38.0835 44.833 37.7334 44.4178 37.7334H35.474V33.9612H45.1974C45.5654 33.9612 45.9221 33.6708 45.9982 33.3143L47.0223 28.2295C47.1144 27.7856 46.6944 27.3576 46.1659 27.3576H28.8252ZM228.97 27.3579C228.602 27.3579 228.141 27.7356 228.141 28.1048V52.6821C228.141 53.0509 228.547 53.5122 228.914 53.5122H234.81C235.178 53.5122 235.615 53.0509 235.615 52.6821V44.7929H238.106L242.517 52.9252C242.691 53.2509 243.133 53.5122 243.5 53.5122H250.443C250.812 53.5122 250.962 53.2536 250.774 52.9351L245.334 43.5521C248.459 42.0053 250.078 39.5786 250.078 35.971C250.078 31.4094 246.402 27.3579 240.185 27.3579H228.97ZM235.615 33.9967H239.351C241.485 33.9967 242.497 35.0317 242.497 36.32C242.497 37.607 241.654 38.5642 239.523 38.5642H235.615V33.9967ZM209.447 27.3579C209.106 27.3579 208.689 27.6225 208.593 27.9492L201.177 52.8802C201.076 53.2048 201.27 53.5122 201.613 53.5122H208.228C208.569 53.5122 208.92 53.2048 209.012 52.8776L210.061 48.9447H216.701L217.842 52.8802C217.94 53.2048 218.297 53.5122 218.637 53.5122H225.215C225.552 53.5122 225.751 53.2048 225.65 52.8802L218.232 27.9492C218.133 27.6225 217.691 27.3579 217.354 27.3579H209.447ZM213.376 34.111L215.769 41.8861H210.987L213.376 34.111ZM103.156 27.3579C102.789 27.3579 102.326 27.8146 102.326 28.1836V52.6821C102.326 53.0509 102.732 53.5122 103.1 53.5122H108.995C109.364 53.5122 109.8 53.0509 109.8 52.6821V44.7929H112.291L116.702 52.9252C116.877 53.2509 117.318 53.5122 117.685 53.5122H124.628C124.998 53.5122 125.148 53.2536 124.96 52.9351L119.519 43.5521C122.645 42.0053 124.263 39.5786 124.263 35.971C124.263 31.4094 120.587 27.3579 114.369 27.3579H103.156ZM109.8 33.9967H113.537C115.669 33.9967 116.684 35.0317 116.684 36.32C116.684 37.607 115.84 38.5642 113.707 38.5642H109.8V33.9967Z" fill="#0332A0"/>
</svg>
