<svg width="300" height="100" viewBox="0 0 300 100" fill="none" xmlns="http://www.w3.org/2000/svg">
<path d="M85.7668 26.7883C79.4908 26.7883 77.288 31.1524 77.288 35.2255V37.7193H75.958C75.002 37.7193 74.2539 38.4675 74.2539 39.4234C74.2539 40.3794 75.002 41.1275 75.958 41.1275H77.288V58.3345C77.288 59.332 78.0777 60.1633 79.1168 60.1633C80.1143 60.1633 80.9455 59.3736 80.9455 58.3345V41.1275H84.9771C85.9331 41.1275 86.6812 40.3794 86.6812 39.4234C86.6812 38.4675 85.9331 37.7193 84.9771 37.7193H80.9455V35.2255C80.9455 32.9396 81.7768 30.238 85.8084 30.238C86.7643 30.238 87.5125 29.4899 87.5125 28.5339C87.4709 27.5364 86.7228 26.7883 85.7668 26.7883Z" fill="#4D4D4D"/>
<path d="M99.8969 37.1376C97.1953 37.1376 94.9094 38.2598 93.6209 40.0886V39.1326C93.6209 38.1351 92.8312 37.3039 91.7922 37.3039C90.7947 37.3039 89.9634 38.0936 89.9634 39.1326V58.3347C89.9634 59.3322 90.7531 60.1635 91.7922 60.1635C92.7897 60.1635 93.6209 59.3738 93.6209 58.3347V47.7362C93.6209 43.2889 95.99 40.6289 99.8969 40.6289C100.853 40.6289 101.643 39.8392 101.643 38.8832C101.684 37.9273 100.894 37.1376 99.8969 37.1376Z" fill="#4D4D4D"/>
<path d="M122.134 46.5724C122.134 45.5333 121.968 42.8317 120.389 40.5873C118.768 38.2598 116.232 37.0545 112.783 37.0545C106.382 37.0545 102.725 41.2939 102.725 48.6921C102.725 56.3397 106.382 60.4128 113.24 60.4128C117.853 60.4128 120.389 58.1269 120.846 57.6697C121.137 57.3787 121.469 57.0047 121.469 56.3812C121.469 55.4668 120.721 54.7187 119.807 54.7187C119.35 54.7187 119.059 54.8434 118.768 55.0512C117.438 56.0487 115.9 57.0462 113.282 57.0462C109.167 57.0462 106.548 54.3446 106.424 49.939H119.932C122.134 49.8974 122.134 47.9024 122.134 46.5724ZM112.783 40.3795C116.523 40.3795 118.477 42.4992 118.56 46.6555H106.465C106.798 42.6239 109.042 40.3795 112.783 40.3795Z" fill="#4D4D4D"/>
<path d="M134.353 46.8635C131.651 45.9491 129.324 45.1179 129.324 43.1228C129.324 40.92 131.776 40.5875 133.23 40.5875C135.849 40.5875 137.137 41.5019 138.176 42.4994C138.509 42.8319 138.925 42.9981 139.382 42.9981C140.296 42.9981 141.044 42.25 141.044 41.3356C141.044 40.8369 140.836 40.5044 140.67 40.255C139.132 38.2184 136.514 37.0962 133.23 37.0962C128.575 37.0962 125.708 39.4237 125.708 43.1228C125.708 47.6532 129.698 49.0248 133.189 50.1885C135.849 51.1029 138.135 51.851 138.135 53.8045C138.135 56.4645 135.184 56.8802 133.397 56.8802C130.986 56.8802 129.116 56.132 127.578 54.6358C127.121 54.1786 126.622 54.0954 126.331 54.0954C125.417 54.0954 124.668 54.8436 124.668 55.758C124.668 56.132 124.793 56.423 125.084 56.8386C126.456 58.5842 129.573 60.3714 133.397 60.3714C138.634 60.3714 141.751 57.9192 141.751 53.8461C141.751 49.4404 137.844 48.0688 134.353 46.8635Z" fill="#4D4D4D"/>
<path d="M155.924 37.0545C153.43 37.0545 151.186 38.052 149.939 39.6314V27.3288C149.939 26.3313 149.149 25.5 148.11 25.5C147.112 25.5 146.281 26.2897 146.281 27.3288V58.3763C146.281 59.3738 147.071 60.205 148.11 60.205C149.107 60.205 149.939 59.4153 149.939 58.3763V46.6971C149.939 42.4992 151.975 40.3795 155.924 40.3795C159.748 40.3795 161.327 42.1252 161.327 46.3646V58.3763C161.327 59.3738 162.117 60.205 163.156 60.205C164.153 60.205 164.984 59.4153 164.984 58.3763V45.7411C164.901 39.9639 161.867 37.0545 155.924 37.0545Z" fill="#4D4D4D"/>
<path d="M195.201 37.3454C194.411 37.3454 193.788 37.8026 193.497 38.5507L188.301 53.3471L184.062 38.5507C183.896 37.9689 183.272 37.3454 182.358 37.3454C181.443 37.3454 180.82 37.9689 180.654 38.5507L176.414 53.3056L171.219 38.5092C170.928 37.7611 170.305 37.3454 169.515 37.3454C168.517 37.3454 167.686 38.1351 167.686 39.1742C167.686 39.4236 167.728 39.6729 167.852 39.9223L174.793 58.9997C175.084 59.7478 175.708 60.1635 176.497 60.1635C177.329 60.1635 178.035 59.6231 178.243 58.875L182.316 44.8683L186.389 58.875C186.597 59.6231 187.345 60.1635 188.135 60.1635C188.925 60.1635 189.548 59.7063 189.839 58.9581L196.78 39.8808C196.905 39.6314 196.946 39.3404 196.946 39.0911C196.988 38.1351 196.198 37.3454 195.201 37.3454Z" fill="#4D4D4D"/>
<path d="M208.42 37.0544C201.812 37.0544 198.196 41.2107 198.196 48.692C198.196 56.2565 201.812 60.4128 208.42 60.4128C215.029 60.4128 218.645 56.2565 218.645 48.692C218.645 41.1691 214.987 37.0544 208.42 37.0544ZM208.42 57.0877C204.015 57.0877 201.853 54.3446 201.853 48.7336C201.853 43.2057 204.056 40.421 208.42 40.421C212.784 40.421 214.987 43.2057 214.987 48.7336C214.987 54.3446 212.826 57.0877 208.42 57.0877Z" fill="#4D4D4D"/>
<path d="M232.691 37.1376C229.989 37.1376 227.703 38.2598 226.415 40.0886V39.1326C226.415 38.1351 225.625 37.3039 224.586 37.3039C223.588 37.3039 222.757 38.0936 222.757 39.1326V58.3347C222.757 59.3322 223.547 60.1635 224.586 60.1635C225.583 60.1635 226.415 59.3738 226.415 58.3347V47.7362C226.415 43.2889 228.784 40.6289 232.691 40.6289C233.646 40.6289 234.436 39.8392 234.436 38.8832C234.436 37.9273 233.646 37.1376 232.691 37.1376Z" fill="#4D4D4D"/>
<path d="M246.489 46.6139L254.012 40.5873C254.636 40.0886 254.719 39.4651 254.719 39.1326C254.719 38.1351 253.929 37.3039 252.89 37.3039C252.599 37.3039 252.1 37.3454 251.643 37.7611L240.962 46.4893V27.3288C240.962 26.3313 240.172 25.5 239.133 25.5C238.135 25.5 237.304 26.2897 237.304 27.3288V58.3763C237.304 59.3738 238.094 60.205 239.133 60.205C240.13 60.205 240.962 59.4153 240.962 58.3763V50.8949L243.497 48.8583L251.685 59.3738C252.142 59.9141 252.641 60.205 253.223 60.205C254.22 60.205 255.051 59.4153 255.051 58.3763C255.051 58.0853 255.01 57.6697 254.677 57.2541L246.489 46.6139Z" fill="#4D4D4D"/>
<path d="M266.981 46.8635C264.279 45.9491 261.951 45.1179 261.951 43.1228C261.951 40.92 264.404 40.5875 265.858 40.5875C268.477 40.5875 269.765 41.5019 270.804 42.4994C271.137 42.8319 271.553 42.9981 272.01 42.9981C272.924 42.9981 273.672 42.25 273.672 41.3356C273.672 40.7953 273.381 40.4212 273.298 40.255C271.76 38.2184 269.142 37.0962 265.858 37.0962C261.203 37.0962 258.335 39.4237 258.335 43.1228C258.335 47.6532 262.326 49.0248 265.817 50.1885C268.477 51.1029 270.763 51.851 270.763 53.8045C270.763 56.4645 267.812 56.8802 266.025 56.8802C263.614 56.8802 261.744 56.132 260.206 54.6358C259.749 54.1786 259.291 54.0954 258.959 54.0954C258.045 54.0954 257.296 54.8436 257.296 55.758C257.296 56.132 257.421 56.423 257.712 56.8386C259.084 58.5842 262.201 60.3714 266.025 60.3714C271.262 60.3714 274.379 57.9192 274.379 53.8461C274.379 49.4404 270.472 48.0688 266.981 46.8635Z" fill="#4D4D4D"/>
<path d="M38.2454 62.2369C34.6261 62.2369 30.8811 61.3652 27.5115 59.4099C26.5963 58.8691 25.7226 58.2867 24.8906 57.6211C25.5978 62.2388 27.9226 66.5863 31.0427 69.7064L38.2454 62.2369Z" fill="#9B65C3"/>
<path d="M41.0315 72.9716C39.0762 69.6019 38.161 65.9411 38.161 62.3218L30.8809 69.6019C34.0425 72.7636 38.161 74.9269 42.7787 75.5925C42.1547 74.7604 41.5723 73.8868 41.0315 72.9716Z" fill="#BF63C6"/>
<path d="M65.2821 34.3242L48.8498 43.8508C42.0272 47.8029 33.9151 47.5117 27.5501 43.8508C25.7197 46.9709 24.6797 50.6318 24.6797 54.5007C24.6797 55.5823 24.7629 56.6223 24.9293 57.6623C25.7613 58.3279 26.6349 58.9104 27.5501 59.4512C30.9198 61.4064 34.5807 62.3216 38.2 62.3216L65.7397 34.7818C65.5733 34.6154 65.4485 34.449 65.2821 34.3242Z" fill="#3278B1"/>
<path d="M27.5111 43.8506C25.6806 46.9707 24.6406 50.6315 24.6406 54.5004C24.6406 55.582 24.7238 56.6221 24.8902 57.6621L48.8523 43.8506C41.9882 47.7611 33.876 47.5115 27.5111 43.8506Z" fill="#45A4EC"/>
<path d="M48.851 43.8503L65.2833 34.3653C65.0753 34.1989 64.8673 34.0325 64.6177 33.9077L27.5098 43.8503C33.8747 47.5112 41.9869 47.7608 48.851 43.8503Z" fill="#08C7FB"/>
<path d="M61.9553 33.1592H45.9805C38.0764 33.1592 31.2122 37.4441 27.5098 43.809L64.6177 33.8664C63.8273 33.4504 62.9537 33.1592 61.9553 33.1592Z" fill="#59F2F6"/>
<path d="M38.1602 62.2802C38.1602 65.8995 39.0754 69.5604 41.0306 72.93C41.5714 73.8453 42.1538 74.7189 42.8195 75.5509L56.6309 51.6304C52.6789 58.4529 45.5235 62.2802 38.1602 62.2802Z" fill="#D33C4E"/>
<path d="M56.6318 51.6304L42.8203 75.5925C43.8603 75.7589 44.9004 75.8421 45.982 75.8421C49.8509 75.8421 53.5117 74.8021 56.6318 72.9716C52.9709 66.5651 52.6797 58.4529 56.6318 51.6304Z" fill="#EE5A24"/>
<path d="M65.2814 34.3242L48.849 43.8508C42.0265 47.8029 38.1992 54.9583 38.1992 62.3216L65.739 34.7818C65.5726 34.6154 65.4478 34.449 65.2814 34.3242Z" fill="#25C16F"/>
<path d="M38.1602 62.2795C45.5235 62.2795 52.6789 58.4523 56.6309 51.6297L66.1159 35.1974C65.9911 35.031 65.8663 34.9061 65.6999 34.7397L38.1602 62.2795Z" fill="#8BDF55"/>
<path d="M66.1182 35.1968L56.6332 51.6291C52.6812 58.4517 52.9724 66.5639 56.6332 72.9288L66.5758 35.8208C66.451 35.6128 66.2846 35.4048 66.1182 35.1968Z" fill="#FFBB00"/>
<path d="M56.6309 72.9718C62.9958 69.2693 67.2807 62.4052 67.2807 54.501V38.5262C67.2807 37.5694 67.0311 36.6542 66.5735 35.8638L56.6309 72.9718Z" fill="#FFA800"/>
</svg>
