<svg width="90" height="90" viewBox="0 0 90 90" fill="none" xmlns="http://www.w3.org/2000/svg">
<path d="M30.4995 59.5C23.7159 59.5 16.6967 57.8661 10.381 54.2014C8.66561 53.1878 7.02819 52.0962 5.46875 50.8486C6.79428 59.5036 11.1516 67.6521 16.9995 73.5L30.4995 59.5Z" fill="#9B65C3"/>
<path d="M35.7205 79.6201C32.0558 73.3044 30.3404 66.4428 30.3404 59.6592L16.6953 73.3044C22.6212 79.2303 30.3404 83.2848 38.9954 84.5324C37.8258 82.9729 36.7342 81.3355 35.7205 79.6201Z" fill="#BF63C6"/>
<path d="M81.1751 7.18359L50.3761 25.0393C37.5886 32.4467 22.384 31.9008 10.4543 25.0393C7.02352 30.8872 5.07422 37.7488 5.07422 45.0002C5.07422 47.0275 5.23016 48.9768 5.54205 50.9261C7.10149 52.1737 8.73891 53.2653 10.4543 54.2789C16.77 57.9436 23.6316 59.659 30.4152 59.659L82.0328 8.0413C81.7209 7.72941 81.487 7.41751 81.1751 7.18359Z" fill="#3278B1"/>
<path d="M10.3801 25.0391C6.9493 30.887 5 37.7486 5 45C5 47.0273 5.15594 48.9766 5.46783 50.9259L50.3798 25.0391C37.5144 32.3685 22.3098 31.9006 10.3801 25.0391Z" fill="#45A4EC"/>
<path d="M50.3786 25.0387L81.1777 7.26102C80.7878 6.94913 80.3979 6.63724 79.9301 6.40332L10.3789 25.0387C22.3087 31.9003 37.5132 32.3681 50.3786 25.0387Z" fill="#08C7FB"/>
<path d="M74.9399 5H44.9986C30.1838 5 17.3184 13.0312 10.3789 24.9609L79.9301 6.32554C78.4486 5.54582 76.8112 5 74.9399 5Z" fill="#59F2F6"/>
<path d="M30.3398 59.581C30.3398 66.3646 32.0552 73.2262 35.7199 79.542C36.7336 81.2574 37.8252 82.8948 39.0727 84.4543L64.9595 39.6201C57.5521 52.4076 44.1409 59.581 30.3398 59.581Z" fill="#D33C4E"/>
<path d="M64.9629 39.6201L39.0762 84.5322C41.0255 84.8441 42.9748 85 45.0021 85C52.2535 85 59.115 83.0507 64.9629 79.62C58.1014 67.6122 57.5556 52.4076 64.9629 39.6201Z" fill="#EE5A24"/>
<path d="M81.174 7.18359L50.3749 25.0393C37.5875 32.4467 30.4141 45.8579 30.4141 59.659L82.0316 8.0413C81.7198 7.72941 81.4858 7.41751 81.174 7.18359Z" fill="#25C16F"/>
<path d="M30.3398 59.5806C44.1409 59.5806 57.5521 52.4072 64.9595 39.6197L82.7372 8.82059C82.5032 8.5087 82.2693 8.27478 81.9574 7.96289L30.3398 59.5806Z" fill="#8BDF55"/>
<path d="M82.7398 8.81934L64.9622 39.6184C57.5548 52.4059 58.1006 67.6105 64.9622 79.5403L83.5975 9.98892C83.3636 9.59906 83.0517 9.2092 82.7398 8.81934Z" fill="#FFBB00"/>
<path d="M64.959 79.6207C76.8887 72.6812 84.9199 59.8158 84.9199 45.001V15.0596C84.9199 13.2662 84.452 11.5508 83.5943 10.0693L64.959 79.6207Z" fill="#FFA800"/>
</svg>
