<svg width="90" height="90" viewBox="0 0 90 90" fill="none" xmlns="http://www.w3.org/2000/svg">
<path d="M83.4946 41.4373L48.5645 6.51027C48.086 6.03147 47.5179 5.65166 46.8925 5.39252C46.2672 5.13338 45.5969 5 44.92 5C44.2431 5 43.5728 5.13338 42.9475 5.39252C42.3221 5.65166 41.754 6.03147 41.2755 6.51027L34.0248 13.7644L43.224 22.9634C44.3055 22.5961 45.4683 22.5388 46.5807 22.7979C47.6931 23.057 48.7108 23.6222 49.5187 24.4296C50.3311 25.2428 50.8983 26.2683 51.1552 27.3887C51.4122 28.5091 51.3486 29.6792 50.9718 30.7652L59.841 39.6316C60.9273 39.2544 62.0979 39.1908 63.2186 39.4483C64.3394 39.7057 65.3649 40.2738 66.1776 41.0873C66.7469 41.6565 67.1984 42.3322 67.5065 43.0759C67.8146 43.8197 67.9732 44.6168 67.9732 45.4218C67.9732 46.2268 67.8146 47.0239 67.5065 47.7676C67.1984 48.5113 66.7469 49.187 66.1776 49.7562C65.0267 50.9059 63.4664 51.5517 61.8396 51.5517C60.2128 51.5517 58.6526 50.9059 57.5016 49.7562C56.6467 48.8998 56.0641 47.8097 55.8274 46.623C55.5907 45.4363 55.7103 44.206 56.1713 43.0872L47.9002 34.8188V56.5819C48.7732 57.0132 49.5309 57.6462 50.1106 58.4286C50.6902 59.211 51.0751 60.1202 51.2334 61.0809C51.3917 62.0417 51.3188 63.0263 51.0207 63.9533C50.7227 64.8802 50.2081 65.7229 49.5196 66.4114C48.9504 66.9806 48.2747 67.4322 47.531 67.7403C46.7873 68.0484 45.9901 68.207 45.1851 68.207C44.3801 68.207 43.583 68.0484 42.8393 67.7403C42.0955 67.4322 41.4198 66.9806 40.8506 66.4114C40.2812 65.8422 39.8295 65.1664 39.5213 64.4226C39.2132 63.6788 39.0546 62.8816 39.0546 62.0765C39.0546 61.2714 39.2132 60.4742 39.5213 59.7304C39.8295 58.9866 40.2812 58.3108 40.8506 57.7416C41.4242 57.1669 42.106 56.7115 42.8566 56.4017V34.4383C42.1091 34.1304 41.4297 33.6779 40.8577 33.1067C40.2856 32.5355 39.832 31.8568 39.5229 31.1098C39.2139 30.3628 39.0555 29.562 39.0568 28.7536C39.0582 27.9452 39.2192 27.1449 39.5307 26.3989L30.4604 17.327L6.50733 41.2737C5.5421 42.2408 5 43.5513 5 44.9177C5 46.284 5.5421 47.5946 6.50733 48.5617L41.4392 83.4931C42.4063 84.4581 43.7166 85 45.0828 85C46.449 85 47.7594 84.4581 48.7264 83.4931L83.4946 48.7254C84.4598 47.7583 85.002 46.4477 85.002 45.0814C85.002 43.715 84.4598 42.4044 83.4946 41.4373Z" fill="#F03C2E"/>
</svg>
