<svg width="300" height="100" viewBox="0 0 300 100" fill="none" xmlns="http://www.w3.org/2000/svg">
<path d="M147.734 27.2278C146.765 28.0248 146.119 29.1449 145.903 30.3726C145.515 32.9574 147.303 34.9607 149.888 34.9607C152.538 34.9607 154.735 33.1729 155.122 30.6957C155.553 28.0463 153.765 26 151.18 26C149.931 26 148.703 26.4308 147.734 27.2278ZM125.375 48.8971C125.44 47.6909 125.418 46.4846 125.311 45.2784H105.558L102.22 52.1497H116.932C115.812 56.1131 111.611 58.6332 106.592 58.6332C98.9887 58.6332 93.9483 53.5498 93.9483 46.3339C93.9483 39.2902 99.0964 34.1422 105.968 34.1422C111.159 34.1422 114.239 36.8131 115.812 39.958H124.363C122.295 32.0097 115.639 26.6462 105.968 26.6462C94.4437 26.6462 86 35.0253 86 46.3339C86 57.7286 94.336 66.0215 106.571 66C117.836 66 124.923 58.0086 125.375 48.8971ZM132.742 27.2709L126.711 65.3968H134.422L140.454 27.2709H132.742ZM141.186 65.3968L145.322 39.1179H153.033L148.897 65.3968H141.186ZM187.476 27.2709H179.764L177.395 41.9612C175.995 39.8934 173.475 38.4933 169.856 38.4933C163.695 38.4933 157.169 42.629 155.833 51.1373C154.218 61.4119 160.917 66 166.129 66C169.597 66 172.441 64.5999 174.465 62.0797L176.102 65.3968H184.675L182.758 58.3748L187.476 27.2709ZM170.588 45.2138C173.561 45.2138 176.727 47.9063 176.016 52.602C175.241 57.6424 171.428 59.301 168.757 59.301C165.246 59.301 162.661 56.2854 163.329 51.9774C163.932 47.9063 166.905 45.2138 170.588 45.2138ZM215.198 54.7776H195.467C196.307 58.1378 198.655 59.7964 201.886 59.7964C204.859 59.7964 206.409 59.064 207.486 57.4485H214.465C212.785 63.5444 207.25 66 202.058 66C193.722 66 188.316 60.1195 188.316 52.2358C188.316 44.4168 193.895 38.4933 201.843 38.4933C209.791 38.4933 215.262 44.4168 215.262 52.2574C215.262 53.3128 215.262 53.7006 215.198 54.7776ZM195.402 49.6295H208.219C207.723 46.7862 205.031 44.7614 201.843 44.7614C198.483 44.7614 196.156 46.7216 195.402 49.6295Z" fill="#000008"/>
</svg>
