<svg width="300" height="100" viewBox="0 0 300 100" fill="none" xmlns="http://www.w3.org/2000/svg">
<path d="M192.585 63.7978C187.513 63.7978 183.27 62.0911 179.856 58.6777C176.475 55.2649 174.784 51.0061 174.784 45.9013C174.784 40.7965 176.475 36.5537 179.856 33.1728C183.237 29.7275 187.48 28.0048 192.585 28.0048C197.753 28.0048 201.948 29.871 205.17 33.6035L202.012 36.666C199.555 33.6992 196.412 32.2158 192.585 32.2158C188.788 32.2158 185.614 33.4918 183.062 36.0439C180.542 38.5647 179.282 41.8505 179.282 45.9013C179.282 49.9521 180.542 53.2389 183.062 55.7617C185.615 58.3144 188.789 59.5905 192.585 59.5898C196.572 59.5898 200.033 57.915 202.969 54.5654L206.175 57.6757C204.551 59.619 202.506 61.1655 200.193 62.1972C197.802 63.2713 195.207 63.8172 192.585 63.7978ZM213.457 28.7705V63.0322H209.055V28.7705H213.457ZM216.639 51.3085C216.639 47.7044 217.771 44.7216 220.036 42.3603C222.333 39.9996 225.22 38.8193 228.697 38.8193C232.174 38.8193 235.045 39.9996 237.31 42.3603C239.607 44.719 240.756 47.7018 240.756 51.3085C240.756 54.9453 239.607 57.928 237.31 60.2568C235.046 62.6181 232.175 63.7985 228.697 63.7978C225.219 63.7972 222.332 62.6158 220.036 60.2539C217.771 57.8958 216.639 54.914 216.639 51.3085ZM221.041 51.3085C221.041 53.8294 221.775 55.871 223.242 57.4335C224.71 58.996 226.528 59.7773 228.697 59.7773C230.867 59.7773 232.685 58.996 234.152 57.4335C235.619 55.871 236.353 53.8294 236.353 51.3085C236.353 48.8203 235.62 46.7945 234.152 45.2314C232.655 43.637 230.836 42.8395 228.697 42.8388C226.558 42.8382 224.739 43.6357 223.242 45.2314C221.775 46.7952 221.042 48.8209 221.041 51.3085ZM264.476 63.0322H260.265V59.7783H260.07C259.4 60.9267 258.371 61.8837 256.983 62.6494C255.662 63.3974 254.171 63.7929 252.653 63.7978C249.782 63.7978 247.573 62.9762 246.025 61.333C244.478 59.6897 243.704 57.3531 243.705 54.3232V39.5849H248.107V54.038C248.203 57.8662 250.133 59.7802 253.897 59.7802C255.651 59.7802 257.119 59.0703 258.3 57.6503C259.481 56.2304 260.071 54.5319 260.07 52.5546V39.5849H264.473L264.476 63.0322ZM278.778 63.7978C275.718 63.7978 273.086 62.5856 270.883 60.1611C268.713 57.7047 267.628 54.7539 267.629 51.3085C267.629 47.8632 268.714 44.9124 270.883 42.456C273.084 40.0322 275.716 38.8199 278.778 38.8193C280.501 38.8193 282.072 39.1862 283.492 39.9199C284.912 40.6536 286.004 41.6266 286.769 42.8388H286.965L286.769 39.5849V28.7705H291.172V63.0322H286.961V59.7783H286.765C286.002 60.9912 284.911 61.9635 283.49 62.6953C282.069 63.427 280.499 63.7946 278.778 63.7978ZM279.496 59.7783C281.665 59.7783 283.436 58.997 284.807 57.4345C286.243 55.872 286.961 53.8304 286.961 51.3095C286.961 48.8538 286.243 46.8281 284.807 45.2324C283.404 43.638 281.634 42.8404 279.496 42.8398C277.39 42.8398 275.62 43.6373 274.184 45.2324C272.749 46.8274 272.031 48.8531 272.031 51.3095C272.031 53.7978 272.749 55.8235 274.184 57.3867C275.62 58.9817 277.39 59.7789 279.496 59.7783Z" fill="#55585D"/>
<path d="M27.7676 48.0059V42.707H45.5019C45.6992 43.7787 45.7953 44.8664 45.789 45.9561C45.789 49.9287 44.7011 54.8486 41.1992 58.3486C37.7949 61.8965 33.4433 63.7891 27.6738 63.7891C16.9863 63.7891 8.00195 55.085 8.00195 44.3945C8.00195 33.7041 16.9863 25 27.6748 25C33.5879 25 37.7959 27.3184 40.9638 30.3457L37.2275 34.082C34.955 31.9541 31.8838 30.2979 27.6748 30.2979C19.8721 30.2979 13.7715 36.5889 13.7715 44.3945C13.7715 52.2002 19.8721 58.4961 27.6748 58.4961C32.7353 58.4961 35.6201 56.4619 37.4638 54.6172C38.9668 53.1143 39.957 50.958 40.3408 48.0107L27.7676 48.0059Z" fill="#4285F4"/>
<path d="M72.8105 51.3008C72.8105 58.4961 67.1816 63.7891 60.2792 63.7891C53.3769 63.7891 47.748 58.4961 47.748 51.3008C47.748 44.0635 53.3759 38.8125 60.2812 38.8125C67.1864 38.8125 72.8105 44.0635 72.8105 51.3008ZM67.3251 51.3008C67.3251 46.8086 64.0624 43.7325 60.2792 43.7325C56.496 43.7325 53.2324 46.8067 53.2324 51.3008C53.2324 55.7471 56.4951 58.8692 60.2792 58.8692C64.0634 58.8692 67.3251 55.7471 67.3251 51.3008Z" fill="#EA4335"/>
<path d="M100.149 51.3008C100.149 58.4961 94.525 63.7891 87.6178 63.7891C80.7106 63.7891 75.0856 58.4961 75.0856 51.3008C75.0856 44.0635 80.7125 38.8125 87.6178 38.8125C94.5231 38.8125 100.149 44.0635 100.149 51.3008ZM94.6637 51.3008C94.6637 46.8086 91.401 43.7325 87.6178 43.7325C83.8346 43.7325 80.5709 46.8067 80.5709 51.3008C80.5709 55.7471 83.8336 58.8692 87.6178 58.8692C91.402 58.8692 94.6637 55.7471 94.6637 51.3008Z" fill="#FBBC05"/>
<path d="M126.355 39.5694V61.9913C126.355 71.2159 120.916 75 114.484 75C108.43 75 104.789 70.9317 103.418 67.6211L108.197 65.6338C109.048 67.668 111.127 70.0801 114.487 70.0801C118.602 70.0801 121.155 67.5254 121.155 62.7481V60.9512H120.966C119.736 62.4649 117.372 63.7891 114.393 63.7891C108.149 63.7891 102.428 58.3487 102.428 51.3487C102.428 44.2998 108.149 38.8125 114.393 38.8125C117.372 38.8125 119.736 40.1368 120.966 41.6036H121.155V39.5694H126.355ZM121.53 51.3487C121.53 46.9493 118.601 43.7315 114.862 43.7315C111.079 43.7315 107.91 46.9483 107.91 51.3487C107.91 55.7002 111.079 58.8682 114.862 58.8682C118.599 58.8692 121.53 55.7002 121.53 51.3487Z" fill="#4285F4"/>
<path d="M135.645 26.4473V63.0323H130.16V26.4473H135.645Z" fill="#34A853"/>
<path d="M156.83 55.4161L161.085 58.2549C159.718 60.2881 156.404 63.7891 150.681 63.7891C143.587 63.7891 138.29 58.3018 138.29 51.3008C138.29 43.8789 143.635 38.8125 150.066 38.8125C156.545 38.8125 159.713 43.9688 160.754 46.7598L161.322 48.1788L144.622 55.085C145.9 57.5918 147.886 58.8692 150.677 58.8692C153.468 58.8692 155.411 57.4981 156.83 55.4161ZM143.729 50.9239L154.89 46.2891C154.275 44.7266 152.431 43.6407 150.255 43.6407C147.465 43.6377 143.587 46.0948 143.729 50.9239Z" fill="#EA4335"/>
</svg>
