<svg width="90" height="90" viewBox="0 0 90 90" fill="none" xmlns="http://www.w3.org/2000/svg">
<path d="M52.0057 81.7188L38.1035 68.1625L67.9602 37.6733L82.3538 51.7803L52.0057 81.7188Z" fill="#8AB4F8"/>
<path d="M52.0659 21.7825L38.2138 7.63916L7.92483 37.6414C6.05188 39.5183 5 42.0616 5 44.7131C5 47.3647 6.05188 49.9079 7.92483 51.7848L37.7587 81.8144L51.8657 68.6175L29.1353 44.7131L52.0659 21.7825Z" fill="#4285F4"/>
<path d="M82.1538 37.8738L52.1197 7.83965C50.234 6.00297 47.7008 4.98288 45.0685 5.00022C42.4362 5.01755 39.9167 6.07092 38.0553 7.93226C36.194 9.79361 35.1406 12.3132 35.1233 14.9455C35.1059 17.5777 36.126 20.1109 37.9627 21.9966L67.9968 52.0308C68.9219 52.9805 70.0264 53.7371 71.2462 54.2565C72.466 54.776 73.7768 55.0479 75.1026 55.0567C76.4284 55.0654 77.7427 54.8107 78.9693 54.3074C80.1958 53.8041 81.3102 53.0621 82.2477 52.1246C83.1852 51.1871 83.9271 50.0728 84.4304 48.8462C84.9338 47.6197 85.1884 46.3054 85.1797 44.9796C85.171 43.6538 84.899 42.343 84.3796 41.1231C83.8601 39.9033 83.1036 38.7988 82.1538 37.8738Z" fill="#8AB4F8"/>
<path d="M44.8112 84.9998C50.2147 84.9998 54.595 80.6194 54.595 75.216C54.595 69.8125 50.2147 65.4321 44.8112 65.4321C39.4077 65.4321 35.0273 69.8125 35.0273 75.216C35.0273 80.6194 39.4077 84.9998 44.8112 84.9998Z" fill="#1967D2"/>
</svg>
