<svg width="364" height="100" viewBox="0 0 364 100" fill="none" xmlns="http://www.w3.org/2000/svg">
<path d="M58.9766 30.7396C59.4588 29.4738 60.1218 28.3085 61.1063 27.3642C65.0443 23.5267 71.554 24.4911 74.2262 29.3131C76.2354 32.9698 78.3651 36.5461 80.4345 40.1626C83.8903 46.1701 87.3863 52.1775 90.8019 58.205C93.675 63.248 90.5608 69.6171 84.8547 70.481C81.3587 71.0034 78.0838 69.3961 76.2755 66.2618C73.2417 60.9777 70.1877 55.6935 67.1539 50.4295C67.0936 50.309 67.0133 50.2085 66.9329 50.108C66.6114 49.8468 66.4708 49.4651 66.2699 49.1235C64.9237 46.7527 63.5374 44.402 62.1912 42.0513C61.3273 40.5243 60.4232 39.0174 59.5592 37.4904C58.7757 36.1242 58.414 34.6374 58.4542 33.0703C58.5145 32.2666 58.6149 31.4629 58.9766 30.7396Z" fill="#4285F4"/>
<path d="M58.9781 30.7397C58.7973 31.463 58.6365 32.1863 58.5964 32.9498C58.5361 34.6375 58.958 36.2047 59.8019 37.6714C62.0119 41.4687 64.222 45.2862 66.412 49.1036C66.613 49.4451 66.7737 49.7867 66.9746 50.1082C65.7691 52.1977 64.5636 54.2672 63.338 56.3567C61.6503 59.27 59.9626 62.2034 58.2548 65.1167C58.1744 65.1167 58.1543 65.0765 58.1342 65.0162C58.1142 64.8555 58.1744 64.7148 58.2146 64.5541C59.0384 61.5404 58.3553 58.8682 56.2858 56.5777C55.02 55.1914 53.4127 54.4078 51.5643 54.1466C49.1532 53.805 47.0235 54.4279 45.1148 55.9348C44.7733 56.196 44.5522 56.5777 44.1504 56.7786C44.07 56.7786 44.0299 56.7384 44.0098 56.6782C44.9742 55.0105 45.9185 53.3429 46.8829 51.6753C50.861 44.7638 54.8392 37.8522 58.8375 30.9608C58.8776 30.8804 58.9379 30.8201 58.9781 30.7397Z" fill="#FBBC05"/>
<path d="M44.0891 56.7381C44.4708 56.3965 44.8325 56.0349 45.2343 55.7134C50.1166 51.8558 57.4501 54.6485 58.515 60.7564C58.7761 62.2231 58.6355 63.6295 58.1935 65.036C58.1734 65.1565 58.1533 65.257 58.1131 65.3775C57.9323 65.699 57.7716 66.0405 57.5706 66.362C55.7825 69.3155 53.1505 70.7822 49.6947 70.5612C45.7366 70.2799 42.6224 67.3063 42.0799 63.3684C41.8187 61.4596 42.2005 59.6715 43.185 58.0239C43.3859 57.6623 43.627 57.3408 43.848 56.9792C43.9485 56.8988 43.9083 56.7381 44.0891 56.7381Z" fill="#34A853"/>
<path d="M44.0894 56.7381C44.009 56.8184 44.009 56.9591 43.8684 56.9792C43.8483 56.8385 43.9286 56.7582 44.009 56.6577L44.0894 56.7381Z" fill="#FBBC05"/>
<path d="M132.06 31.8037C122.718 31.8037 114.947 39.3054 114.947 48.5382C114.947 57.771 122.718 65.1903 132.06 65.1903C137.103 65.1903 140.823 63.5416 143.799 60.4914C146.858 57.4413 147.767 53.2371 147.767 49.8572C147.767 48.7855 147.685 47.7963 147.519 46.9719H132.06V51.5059H143.055C142.725 54.0614 141.898 55.9574 140.575 57.2764C139.004 58.8427 136.442 60.6563 132.06 60.6563C125.281 60.6563 119.99 55.2155 119.99 48.5382C119.99 41.8609 125.281 36.4201 132.06 36.4201C135.698 36.4201 138.426 37.8215 140.327 39.7176L143.551 36.5026C140.823 33.8646 137.186 31.8037 132.06 31.8037ZM160.085 43.7569C154.216 43.7569 149.338 48.2909 149.338 54.6385C149.338 60.9036 154.133 65.52 160.085 65.52C166.038 65.52 170.832 60.9036 170.832 54.6385C170.832 48.3733 165.955 43.7569 160.085 43.7569ZM160.085 61.2334C156.861 61.2334 154.05 58.513 154.05 54.6385C154.05 50.764 156.861 48.0436 160.085 48.0436C163.309 48.0436 166.12 50.6816 166.12 54.6385C166.12 58.513 163.309 61.2334 160.085 61.2334ZM183.398 43.7569C177.446 43.7569 172.651 48.2909 172.651 54.6385C172.651 60.9036 177.446 65.52 183.398 65.52C189.268 65.52 194.145 60.9036 194.145 54.6385C194.145 48.3733 189.351 43.7569 183.398 43.7569ZM183.398 61.2334C180.174 61.2334 177.363 58.513 177.363 54.6385C177.363 50.764 180.174 48.0436 183.398 48.0436C186.622 48.0436 189.433 50.6816 189.433 54.6385C189.433 58.513 186.705 61.2334 183.398 61.2334ZM206.629 43.7569C201.255 43.7569 196.378 48.4558 196.378 54.556C196.378 60.5739 201.255 65.2727 206.629 65.2727C209.191 65.2727 211.176 64.1186 212.25 62.7996H212.416V64.3659C212.416 68.4877 210.266 70.7135 206.711 70.7135C203.818 70.7135 202.082 68.6526 201.338 66.9214L197.204 68.6526C198.362 71.5378 201.503 75.0001 206.711 75.0001C212.25 75.0001 216.88 71.7027 216.88 63.7889V44.4988H212.416V46.23H212.25C211.176 44.911 209.191 43.7569 206.629 43.7569ZM207.042 61.0685C203.818 61.0685 201.09 58.3481 201.09 54.556C201.09 50.764 203.818 47.9612 207.042 47.9612C210.266 47.9612 212.746 50.764 212.746 54.556C212.746 58.3481 210.266 61.0685 207.042 61.0685ZM220.352 33.1227H225.064V64.943H220.352V33.1227ZM237.713 43.7569C232.091 43.7569 227.379 48.126 227.379 54.6385C227.379 60.7387 232.009 65.52 238.209 65.52C243.252 65.52 246.145 62.4699 247.303 60.7387L243.582 58.2657C242.342 60.0792 240.606 61.2334 238.209 61.2334C235.729 61.2334 233.993 60.1617 232.918 57.9359L247.551 51.9181L247.055 50.6815C246.145 48.2909 243.334 43.7569 237.713 43.7569ZM232.091 54.3087C231.926 50.1045 235.398 47.9612 237.795 47.9612C239.697 47.9612 241.35 48.8679 241.846 50.2694L232.091 54.3087Z" fill="#55585D"/>
<path d="M255.817 64.4484L266.73 35.5133H270.946L281.859 64.4484H277.725L274.914 56.6169H262.762L259.951 64.4484H255.817ZM264.002 53.1546H273.674L268.962 40.1297H268.797L264.002 53.1546Z" fill="#55585D"/>
<path d="M285.662 62.0577C283.843 59.9968 282.933 57.5237 282.933 54.556C282.933 51.6708 283.843 49.1977 285.662 47.0544C287.563 44.9935 289.712 44.0042 292.358 44.0042C293.846 44.0042 295.169 44.334 296.326 44.911C297.566 45.5705 298.475 46.3124 299.137 47.3841H299.302L299.137 44.6637V35.5133H302.857V64.4484H299.302V61.728H299.137C298.475 62.7172 297.566 63.5416 296.326 64.2011C295.086 64.8605 293.763 65.1078 292.358 65.1078C289.712 65.1078 287.48 64.1186 285.662 62.0577ZM297.401 59.7495C298.641 58.4305 299.219 56.6994 299.219 54.556C299.219 52.4951 298.641 50.764 297.401 49.445C296.243 48.126 294.755 47.4665 292.937 47.4665C291.118 47.4665 289.63 48.126 288.472 49.445C287.232 50.764 286.654 52.4951 286.654 54.556C286.654 56.6169 287.232 58.3481 288.472 59.6671C289.712 60.9861 291.2 61.6455 292.937 61.6455C294.755 61.728 296.243 61.0685 297.401 59.7495Z" fill="#55585D"/>
<path d="M320.052 63.2943C318.564 64.4484 316.663 65.1079 314.348 65.1079C312.364 65.1079 310.628 64.6132 309.057 63.5416C307.569 62.4699 306.494 61.1509 305.833 59.4198L309.14 58.0184C309.636 59.1725 310.297 60.1617 311.289 60.8212C312.199 61.4807 313.273 61.8104 314.348 61.8104C315.505 61.8104 316.498 61.5631 317.324 61.0685C318.151 60.5739 318.482 59.9144 318.482 59.2549C318.482 58.0184 317.49 57.0291 315.588 56.4521L312.199 55.6277C308.313 54.6385 306.412 52.8249 306.412 50.0221C306.412 48.2085 307.156 46.8071 308.644 45.653C310.132 44.5813 312.033 44.0043 314.265 44.0043C316.002 44.0043 317.572 44.4165 319.06 45.2408C320.466 46.0652 321.458 47.2193 322.036 48.6207L318.73 50.0221C318.316 49.1977 317.738 48.5382 316.911 48.0436C316.084 47.549 315.092 47.3017 314.017 47.3017C313.025 47.3017 312.199 47.549 311.372 48.0436C310.628 48.5382 310.215 49.1153 310.215 49.8572C310.215 51.0113 311.289 51.8357 313.439 52.2479L316.415 52.9898C320.383 53.979 322.284 55.9575 322.284 58.9252C322.367 60.6563 321.54 62.1402 320.052 63.2943Z" fill="#55585D"/>
</svg>
