<svg width="300" height="100" viewBox="0 0 300 100" fill="none" xmlns="http://www.w3.org/2000/svg">
<path d="M72.0129 20.5584C72.0129 20.5584 89.3092 19.4246 98.8476 36.6252L70.8887 37.2094C70.8887 37.2094 65.6043 37.1459 61.2376 43.646C59.9947 46.3574 58.6687 49.1568 60.3403 54.5763C58.0105 50.8152 47.9627 34.1375 47.9627 34.1375C47.9627 34.1375 54.5425 21.6164 72.0129 20.5584Z" fill="#EA4335"/>
<path d="M98.5251 64.1998C98.5251 64.1998 90.8627 79.7485 71.1952 79.4031L84.6681 54.899C84.6681 54.899 87.365 50.3548 83.922 43.3209C82.1956 40.8899 80.4357 38.3411 74.9051 37.0775C79.328 36.942 98.7932 36.5784 98.7932 36.5784C98.7932 36.5784 106.346 48.5413 98.5251 64.1998Z" fill="#FBBC05"/>
<path d="M47.4775 65.3841C47.4775 65.3841 37.8423 50.968 47.9793 34.1098L62.4614 58.0353C62.4614 58.0353 65.0476 62.643 72.86 63.1781C75.828 62.899 78.9152 62.6471 82.7756 58.4925C80.6799 62.3905 71.2584 79.4292 71.2584 79.4292C71.2584 79.4292 57.1247 79.9874 47.4775 65.3841Z" fill="#34A853"/>
<path d="M59.4652 50.4871C59.4108 47.8959 60.1259 45.3468 61.5203 43.1621C62.9146 40.9774 64.9255 39.2553 67.2986 38.2134C69.6717 37.1716 72.3004 36.857 74.8523 37.3092C77.4043 37.7615 79.7648 38.9603 81.6353 40.7542C83.5059 42.5481 84.8026 44.8564 85.3613 47.3872C85.92 49.918 85.7156 52.5576 84.7741 54.9723C83.8326 57.387 82.1962 59.4683 80.0719 60.9529C77.9476 62.4375 75.4307 63.2589 72.8395 63.313C69.3653 63.3856 66.0044 62.0751 63.4963 59.6698C60.9881 57.2646 59.5381 53.9615 59.4652 50.4871Z" fill="white"/>
<path d="M61.6557 50.4421C61.6103 48.2848 62.2056 46.1625 63.3663 44.3436C64.527 42.5246 66.2009 41.0907 68.1765 40.223C70.152 39.3553 72.3405 39.0929 74.4651 39.4689C76.5898 39.8448 78.5553 40.8424 80.1131 42.3354C81.6709 43.8283 82.7511 45.7497 83.2171 47.8565C83.683 49.9633 83.5139 52.161 82.731 54.1717C81.9481 56.1824 80.5866 57.9158 78.8187 59.1528C77.0507 60.3898 74.9558 61.0748 72.7986 61.1212C71.3656 61.152 69.9407 60.9002 68.6051 60.3801C67.2695 59.8601 66.0495 59.082 65.0147 58.0902C63.9799 57.0985 63.1507 55.9126 62.5743 54.6004C61.998 53.2881 61.6858 51.8751 61.6557 50.4421Z" fill="#4285F4"/>
<path d="M127.649 63.1913C125.648 63.1913 123.851 62.7183 122.256 61.7722C120.661 60.799 119.418 59.488 118.526 57.8391C117.634 56.1631 117.188 54.2844 117.188 52.203C117.188 50.1216 117.634 48.2429 118.526 46.5669C119.418 44.891 120.661 43.58 122.256 42.6339C123.851 41.6878 125.648 41.2147 127.649 41.2147C129.892 41.2147 131.771 41.7418 133.285 42.7961C134.826 43.8233 135.92 45.2019 136.569 46.9319L133.447 48.2294C132.933 46.9589 132.163 45.9993 131.136 45.3505C130.136 44.6747 128.919 44.3369 127.487 44.3369C126.27 44.3369 125.135 44.6747 124.081 45.3505C123.026 45.9993 122.175 46.9184 121.526 48.1077C120.904 49.2971 120.593 50.6622 120.593 52.203C120.593 53.7438 120.904 55.1089 121.526 56.2983C122.175 57.4877 123.026 58.4203 124.081 59.096C125.135 59.7448 126.27 60.0692 127.487 60.0692C128.946 60.0692 130.203 59.7313 131.257 59.0555C132.312 58.3797 133.096 57.4201 133.609 56.1766L136.691 57.4741C135.988 59.1771 134.853 60.5557 133.285 61.61C131.744 62.6642 129.865 63.1913 127.649 63.1913Z" fill="#55585D"/>
<path d="M140.417 33.5107H143.863V42.0662L143.701 44.9045H143.863C144.431 43.8503 145.323 42.9718 146.54 42.2689C147.783 41.5661 149.135 41.2147 150.594 41.2147C153.108 41.2147 155.028 41.9581 156.352 43.4448C157.677 44.9045 158.339 46.8508 158.339 49.2836V62.5426H154.892V49.8107C154.892 47.9456 154.419 46.5669 153.473 45.6749C152.527 44.7829 151.297 44.3369 149.783 44.3369C148.702 44.3369 147.702 44.6612 146.783 45.31C145.891 45.9587 145.175 46.7967 144.634 47.8239C144.12 48.8511 143.863 49.9189 143.863 51.0271V62.5426H140.417V33.5107Z" fill="#55585D"/>
<path d="M163.304 41.8635H166.588V45.1883H166.751C167.156 44.053 167.94 43.1204 169.102 42.3906C170.265 41.6337 171.481 41.2553 172.752 41.2553C173.698 41.2553 174.509 41.3904 175.184 41.6607V45.3911C174.319 44.9586 173.346 44.7423 172.265 44.7423C171.265 44.7423 170.346 45.0262 169.508 45.5938C168.67 46.1615 167.994 46.9319 167.48 47.905C166.994 48.8511 166.751 49.8783 166.751 50.9866V62.5426H163.304V41.8635Z" fill="#55585D"/>
<path d="M186.81 63.1913C184.783 63.1913 182.958 62.7047 181.336 61.7316C179.715 60.7585 178.444 59.4339 177.525 57.758C176.633 56.082 176.187 54.2304 176.187 52.203C176.187 50.1757 176.633 48.324 177.525 46.648C178.444 44.9721 179.715 43.6475 181.336 42.6744C182.958 41.7013 184.783 41.2147 186.81 41.2147C188.838 41.2147 190.662 41.7013 192.284 42.6744C193.906 43.6475 195.163 44.9721 196.055 46.648C196.974 48.324 197.434 50.1757 197.434 52.203C197.434 54.2304 196.974 56.082 196.055 57.758C195.163 59.4339 193.906 60.7585 192.284 61.7316C190.662 62.7047 188.838 63.1913 186.81 63.1913ZM186.81 60.0692C188.081 60.0692 189.257 59.7583 190.338 59.1366C191.446 58.4878 192.325 57.5688 192.974 56.3794C193.649 55.19 193.987 53.7979 193.987 52.203C193.987 50.6082 193.649 49.216 192.974 48.0266C192.325 46.8373 191.446 45.9317 190.338 45.31C189.257 44.6612 188.081 44.3369 186.81 44.3369C185.54 44.3369 184.35 44.6612 183.242 45.31C182.134 45.9317 181.242 46.8373 180.566 48.0266C179.917 49.216 179.593 50.6082 179.593 52.203C179.593 53.7979 179.917 55.19 180.566 56.3794C181.242 57.5688 182.134 58.4878 183.242 59.1366C184.35 59.7583 185.54 60.0692 186.81 60.0692Z" fill="#55585D"/>
<path d="M201.04 41.8635H204.324V44.9045H204.486C205.081 43.8503 205.973 42.9718 207.163 42.2689C208.352 41.5661 209.609 41.2147 210.933 41.2147C212.447 41.2147 213.758 41.5796 214.867 42.3095C216.002 43.0393 216.813 44.0125 217.299 45.2289C218.029 44.0125 218.989 43.0393 220.178 42.3095C221.395 41.5796 222.8 41.2147 224.395 41.2147C226.774 41.2147 228.558 41.9446 229.747 43.4043C230.964 44.8369 231.572 46.7967 231.572 49.2836V62.5426H228.166V49.8107C228.166 47.8915 227.774 46.4994 226.99 45.6344C226.206 44.7694 225.044 44.3369 223.503 44.3369C222.476 44.3369 221.543 44.6342 220.705 45.2289C219.867 45.8236 219.205 46.621 218.718 47.6212C218.259 48.6213 218.029 49.7026 218.029 50.865V62.5426H214.583V49.8513C214.583 47.905 214.191 46.4994 213.407 45.6344C212.623 44.7694 211.474 44.3369 209.96 44.3369C208.933 44.3369 208.001 44.6477 207.163 45.2694C206.325 45.8641 205.662 46.6751 205.176 47.7023C204.716 48.7024 204.486 49.7837 204.486 50.946V62.5426H201.04V41.8635Z" fill="#55585D"/>
<path d="M245.723 63.1913C243.75 63.1913 241.979 62.7183 240.411 61.7722C238.843 60.8261 237.614 59.5285 236.721 57.8796C235.856 56.2037 235.424 54.325 235.424 52.2436C235.424 50.2432 235.829 48.4051 236.64 46.7291C237.478 45.0532 238.654 43.7151 240.168 42.715C241.682 41.7148 243.439 41.2147 245.439 41.2147C247.467 41.2147 249.224 41.6742 250.71 42.5933C252.197 43.4854 253.332 44.7288 254.116 46.3237C254.927 47.9185 255.333 49.7431 255.333 51.7975C255.333 52.203 255.292 52.5544 255.211 52.8518H238.87C238.952 54.4196 239.33 55.7441 240.006 56.8254C240.682 57.9067 241.533 58.7176 242.56 59.2582C243.615 59.7989 244.709 60.0692 245.845 60.0692C248.494 60.0692 250.535 58.8257 251.967 56.3388L254.887 57.758C253.995 59.4339 252.778 60.7585 251.237 61.7316C249.724 62.7047 247.885 63.1913 245.723 63.1913ZM251.683 50.0135C251.629 49.1485 251.386 48.2834 250.954 47.4184C250.521 46.5534 249.832 45.8236 248.886 45.2289C247.967 44.6342 246.804 44.3369 245.399 44.3369C243.777 44.3369 242.398 44.864 241.263 45.9182C240.154 46.9454 239.425 48.3105 239.073 50.0135H251.683Z" fill="#55585D"/>
</svg>
