<svg width="364" height="100" viewBox="0 0 364 100" fill="none" xmlns="http://www.w3.org/2000/svg">
<path d="M259.512 43.356C258.249 46.5185 256.988 49.681 255.727 52.8435C254.652 55.5518 253.576 58.2602 252.499 60.9685H250.184C247.867 55.1352 245.552 49.3143 243.24 43.506C243.18 43.4248 243.143 43.3279 243.043 43.2716C242.868 43.2716 242.865 43.3841 242.915 43.5185C243.052 49.3154 242.952 55.1123 242.987 60.956H240.34V38.556H244.221C246.552 44.5518 248.891 50.5664 251.237 56.5998L251.434 56.6185L258.443 38.5498H262.38V60.9373H259.662V46.3279C259.765 45.3351 259.774 44.3347 259.687 43.3404C259.687 43.2373 259.687 43.3841 259.634 43.2998C259.612 43.2654 259.543 43.3029 259.512 43.356Z" fill="#55585D"/>
<path d="M89.8461 41.4529L87.7867 43.2623C87.1617 42.8904 86.6024 42.2029 85.8274 41.7591C80.8524 38.9123 74.1274 41.9029 72.9618 47.5154C72.1118 51.6248 73.568 55.3748 76.843 57.4654C79.9086 59.4185 84.5899 59.4904 87.6086 56.5623C88.9867 55.2279 89.5774 53.5591 89.818 51.5623H81.6399C81.4524 50.7185 81.5461 49.9091 81.568 49.0373H92.4524C92.8274 52.5341 92.218 55.706 89.6586 58.306C86.8118 61.1966 83.2805 61.9248 79.4492 61.2685C77.1572 60.8932 75.0358 59.8225 73.3723 58.2016C71.7089 56.5806 70.5838 54.4876 70.1493 52.206C69.1774 47.1185 71.2118 42.3154 75.4618 39.6623C79.7118 37.0091 86.218 37.5998 89.5024 41.0154C89.6118 41.1529 89.693 41.2748 89.8461 41.4529Z" fill="#55585D"/>
<path d="M285.552 60.9622H282.974V44.9997H285.449C285.731 45.6403 285.465 46.306 285.637 47.0028C286.146 46.5685 286.534 46.0653 287.049 45.6778C289.406 43.9466 292.987 44.0403 294.996 45.9341C296.293 47.1653 296.699 48.7653 296.712 50.4778C296.743 53.8622 296.731 57.2466 296.731 60.631C296.718 60.7435 296.693 60.8544 296.659 60.9622H294.112C293.89 60.6497 293.977 60.3372 293.974 60.0247C293.949 56.8997 293.974 53.7747 293.896 50.6497C293.846 48.6935 292.959 47.5466 291.396 47.1341C290.552 46.8781 289.649 46.8966 288.816 47.1869C287.983 47.4773 287.264 48.0245 286.762 48.7497C285.996 49.8761 285.608 51.2165 285.652 52.5778C285.631 55.0778 285.652 57.5778 285.652 60.0778C285.694 60.3763 285.66 60.6805 285.552 60.9622Z" fill="#55585D"/>
<path d="M190.828 60.9718H188.053V41.1781H181.803V38.5781H196.959V41.1406H190.828V60.9718Z" fill="#55585D"/>
<path d="M362.056 44.8841V47.6404C361.565 47.7966 361.212 47.4904 360.824 47.3998C358.012 46.7404 356.096 49.0466 355.724 51.0435C355.484 52.3341 355.59 53.6373 355.577 54.9373C355.577 56.9154 355.577 58.8935 355.577 60.9373H352.874V45.0154H355.374C355.593 45.6966 355.374 46.381 355.521 47.081C357.852 44.6185 360.024 43.8935 362.056 44.8841Z" fill="#55585D"/>
<path d="M154.302 60.9748H151.718V38.5591H154.302V60.9748Z" fill="#55585D"/>
<path d="M228.674 45.7654C228.674 45.5154 228.753 45.2404 228.543 45.0279C227.704 44.8996 226.848 44.9186 226.015 45.0841V47.0935C225.881 46.9836 225.753 46.8668 225.631 46.7435C223.265 43.7716 218.321 43.6966 215.524 46.431C212.818 49.0654 212.153 53.8216 214.018 57.3685C216.653 62.3685 223.109 62.3685 225.69 58.9904C225.702 58.9613 225.721 58.9357 225.746 58.9159C225.77 58.896 225.799 58.8825 225.83 58.8767C225.861 58.8708 225.893 58.8727 225.923 58.8821C225.953 58.8916 225.981 58.9084 226.003 58.931C226.042 59.6134 226.028 60.2978 225.959 60.9779C225.674 65.4466 221.678 66.3591 218.962 65.3529C217.671 64.881 216.843 63.906 216.237 62.6216L213.756 63.6591C213.915 64.3674 214.25 65.024 214.731 65.5685C216.293 67.481 218.378 68.2341 220.793 68.231C223.209 68.2279 225.415 67.606 227.043 65.6248C228.328 64.0623 228.649 62.1873 228.668 60.2873C228.712 55.4466 228.681 50.606 228.674 45.7654ZM225.531 55.481C225.195 56.4176 224.586 57.2319 223.783 57.8186C222.98 58.4053 222.019 58.7373 221.024 58.7716C220.016 58.8202 219.017 58.5516 218.169 58.0034C217.321 57.4552 216.666 56.655 216.296 55.7154C215.874 54.7739 215.667 53.7501 215.691 52.7186C215.715 51.6871 215.969 50.6739 216.434 49.7529C217.299 47.9623 219.246 46.8154 221.121 46.9748C223.309 47.1591 224.774 48.3404 225.565 50.3623C225.876 51.2198 226.021 52.1286 225.993 53.0404C225.976 53.874 225.82 54.6989 225.531 55.481Z" fill="#55585D"/>
<path d="M147.818 45.6904C147.818 45.4654 147.881 45.2216 147.69 45.006H145.134V47.1404C142.352 43.431 136.652 43.7029 134.027 47.1716C131.865 50.0435 131.615 53.231 132.821 56.4935C134.131 60.0248 137.324 61.756 141.037 61.181C142.699 60.9248 144.002 60.0529 145.099 58.7279C145.468 62.1498 144.499 64.4029 142.287 65.2904C141.196 65.7302 139.996 65.8261 138.849 65.5654C137.205 65.2154 136.112 64.156 135.412 62.606L132.956 63.6466C133.03 64.1219 133.217 64.5727 133.499 64.9623C135.012 67.2466 137.209 68.1935 139.881 68.2154C142.359 68.2341 144.568 67.6091 146.218 65.6248C147.468 64.1216 147.815 62.3123 147.827 60.4435C147.818 55.5341 147.818 50.6248 147.818 45.6904ZM144.546 55.7841C143.609 57.8466 141.684 58.9716 139.618 58.756C138.561 58.6642 137.559 58.2407 136.757 57.5459C135.954 56.8512 135.392 55.9207 135.149 54.8873C134.991 54.2752 134.916 53.6444 134.927 53.0123C134.896 50.9529 135.449 49.2623 136.993 48.0373C137.561 47.5781 138.224 47.253 138.935 47.0861C139.646 46.9193 140.385 46.915 141.097 47.0736C141.81 47.2322 142.478 47.5496 143.05 48.0022C143.623 48.4547 144.086 49.0307 144.405 49.6873C144.899 50.6237 145.168 51.6625 145.189 52.7209C145.211 53.7793 144.985 54.8282 144.531 55.7841H144.546Z" fill="#55585D"/>
<path d="M331.446 45.0217H328.902V47.0592C328.746 46.9561 328.693 46.9404 328.668 46.9029C326.227 43.5936 320.596 43.5905 317.824 47.0811C315.637 49.8373 315.262 54.2217 316.902 57.3279C319.568 62.3779 326.165 62.3904 328.74 58.8217C328.74 58.8217 328.821 58.8405 328.862 58.8498C329.174 62.9842 327.781 64.6655 325.834 65.3717C323.14 66.353 321.206 65.5686 319.052 62.653L316.69 63.6436C316.73 64.1176 316.906 64.57 317.196 64.9467C318.609 67.0842 320.634 68.1029 323.171 68.2061C325.79 68.3092 328.137 67.7561 329.909 65.6623C331.212 64.1217 331.531 62.2561 331.543 60.3342C331.574 55.4905 331.543 50.6467 331.543 45.8029C331.593 45.5388 331.559 45.2658 331.446 45.0217ZM328.887 52.8936C328.837 55.2248 328.087 57.1998 325.877 58.2967C322.752 59.8592 319.087 57.6498 318.712 53.9998C318.574 52.6467 318.609 51.2998 319.199 50.0217C320.137 48.0373 322.159 46.7655 324.115 46.978C325.227 47.0701 326.277 47.5244 327.106 48.2712C327.935 49.0181 328.496 50.0161 328.702 51.1123C328.848 51.6943 328.91 52.2941 328.887 52.8936Z" fill="#55585D"/>
<path d="M349.734 53.5216C349.781 53.2812 349.812 53.038 349.827 52.7935C349.832 52.3761 349.813 51.9588 349.771 51.5435C349.459 48.6029 348.209 46.231 345.352 45.0685C342.496 43.906 339.752 44.1498 337.349 46.1591C334.946 48.1685 334.252 50.8466 334.443 53.8716C334.796 59.4966 339.902 62.9341 345.552 60.9216C347.343 60.2966 348.627 58.9779 349.502 57.206L347.221 56.1123C344.83 58.9248 342.718 59.6185 340.23 58.4623C338.402 57.6154 336.974 55.2591 337.287 53.5185L349.734 53.5216ZM342.287 46.9591C344.715 46.9935 346.799 48.9091 346.79 51.1498H337.477C337.571 48.9248 339.871 46.9279 342.287 46.9623V46.9591Z" fill="#55585D"/>
<path d="M172.559 53.5122C172.716 52.828 172.733 52.1188 172.609 51.4278C171.881 44.4341 165.04 43.2091 161.256 45.4184C158.043 47.2934 156.727 50.9216 157.418 54.8372C158.224 59.4122 161.871 61.9966 166.481 61.4184C169.146 61.0872 171.062 59.6497 172.377 57.2184L170.071 56.0966C167.806 58.9372 165.446 59.6653 162.921 58.3841C161.152 57.4841 159.762 55.0559 160.184 53.5122H172.559ZM165.059 46.9497C167.515 46.9309 169.718 48.9309 169.618 51.1466H160.368C160.281 49.1028 162.662 46.9809 165.049 46.9591L165.059 46.9497Z" fill="#55585D"/>
<path d="M210.362 50.5841C210.343 48.5435 209.621 46.806 207.862 45.6529C205.846 44.3373 203.615 44.1998 201.337 44.6966C200.482 44.857 199.669 45.1889 198.946 45.6723C198.223 46.1557 197.605 46.7805 197.131 47.5091C197.713 48.1547 198.411 48.6847 199.19 49.0716C201.474 46.9029 203.771 46.3841 205.827 47.5716C206.523 47.9461 207.077 48.5372 207.405 49.2551C207.734 49.9731 207.82 50.7787 207.649 51.5498C207.527 51.5287 207.405 51.4995 207.287 51.4623C205.235 50.6733 202.995 50.5134 200.852 51.0029C196.881 51.831 195.121 56.281 197.555 59.3748C199.652 62.0498 204.48 62.1873 206.984 59.6873C207.206 59.4623 207.352 59.1435 207.706 59.0123C207.877 59.6966 207.649 60.3529 207.862 60.9685H210.362C210.368 57.4435 210.39 54.0123 210.362 50.5841ZM202.302 59.0216C200.065 58.781 198.749 56.9373 199.546 55.0466C199.749 54.5779 200.064 54.1661 200.464 53.8474C200.863 53.5287 201.335 53.3127 201.837 53.2185C203.674 52.7691 205.611 52.9908 207.299 53.8435C207.454 53.9349 207.6 54.0395 207.737 54.156C207.649 56.9904 204.952 59.2998 202.302 59.0123V59.0216Z" fill="#55585D"/>
<path d="M279.265 50.1154C279.266 49.3062 279.08 48.5076 278.72 47.7827C278.361 47.0577 277.838 46.426 277.193 45.9373C274.452 43.8279 269.777 43.9748 267.177 46.2498C266.74 46.631 266.265 47.0154 266.093 47.6654C266.752 48.156 267.393 48.6373 268.071 49.1466C270.393 46.8873 272.759 46.3623 274.846 47.5841C276.249 48.4216 276.996 50.0841 276.565 51.5123C276.421 51.4748 276.271 51.4435 276.13 51.3935C274.094 50.6381 271.88 50.499 269.765 50.9935C265.824 51.8779 264.121 56.1341 266.443 59.2841C268.184 61.6435 272.359 62.2248 274.943 60.4873C275.542 60.0271 276.106 59.5214 276.627 58.9748C276.827 59.6873 276.593 60.3498 276.796 60.9341H279.296C279.287 57.2904 279.334 53.7029 279.265 50.1154ZM270.318 58.806C269.24 58.431 268.443 57.7248 268.284 56.556C268.198 56.0371 268.263 55.5046 268.469 55.0209C268.676 54.5372 269.016 54.1223 269.449 53.8248C271.102 52.5748 275.074 52.7748 276.637 54.1998C276.521 57.4123 273.234 59.8123 270.318 58.806Z" fill="#55585D"/>
<path d="M313.274 51.1154C313.29 50.647 313.272 50.1781 313.221 49.7123C313.006 48.1904 312.381 46.8685 311.137 45.9185C308.552 43.9404 304.181 43.9466 301.543 45.9185C300.89 46.3454 300.365 46.943 300.027 47.6466L301.993 49.1248C304.865 46.7748 306.849 46.3654 308.899 47.6685C309.55 48.06 310.058 48.6485 310.352 49.3486C310.645 50.0487 310.708 50.8241 310.531 51.5623C308.388 50.6651 306.016 50.4704 303.756 51.006C301.765 51.506 300.118 52.5341 299.577 54.6623C299.037 56.7904 299.474 58.656 301.187 60.106C303.171 61.7904 306.609 61.9654 308.806 60.5498C309.47 60.0972 310.065 59.5497 310.571 58.9248C310.824 59.6654 310.571 60.3341 310.762 60.9373H313.284C313.277 57.6185 313.277 54.3748 313.274 51.1154ZM304.381 58.8279C303.109 58.431 302.34 57.5341 302.243 56.3279C302.192 55.725 302.337 55.1218 302.656 54.6078C302.976 54.0938 303.452 53.6965 304.015 53.4748C306.287 52.581 308.477 52.9091 310.599 54.0404C310.596 57.3123 307.331 59.7529 304.381 58.8279Z" fill="#55585D"/>
<path d="M111.356 52.5216C111.341 51.2668 111.039 50.032 110.473 48.9123C109.906 47.7926 109.09 46.8179 108.088 46.0632C107.085 45.3085 105.923 44.7939 104.69 44.5592C103.457 44.3244 102.187 44.3757 100.977 44.7091C97.2805 45.6685 94.8961 48.9029 94.8899 52.8998C94.9086 53.2123 94.9243 53.4779 94.9399 53.7373C95.3336 60.0841 101.696 63.2154 106.934 60.5841C110.184 58.956 111.44 56.0529 111.356 52.5216ZM107.506 56.6623C106.872 57.5812 105.966 58.2774 104.915 58.6521C103.863 59.0268 102.721 59.061 101.649 58.7498C100.525 58.4017 99.5353 57.7136 98.8178 56.7801C98.1004 55.8466 97.6899 54.7137 97.643 53.5373C97.643 53.3529 97.643 53.1716 97.643 52.9904C97.6711 50.8341 98.3868 49.0123 100.271 47.8154C100.856 47.4362 101.511 47.1771 102.197 47.0533C102.883 46.9294 103.587 46.9432 104.268 47.0938C104.948 47.2444 105.592 47.5289 106.162 47.9307C106.732 48.3325 107.216 48.8435 107.587 49.4341C108.262 50.5221 108.613 51.7798 108.598 53.06C108.584 54.3402 108.205 55.5898 107.506 56.6623Z" fill="#55585D"/>
<path d="M121.827 44.4404C117.087 44.3935 113.581 47.9685 113.531 52.8935C113.481 57.8185 116.918 61.4622 121.656 61.4872C126.393 61.5122 129.937 57.9779 129.974 53.1247C130.006 48.1404 126.59 44.4872 121.827 44.4404ZM121.481 58.9404C120.644 58.9206 119.825 58.6954 119.096 58.2845C118.367 57.8736 117.75 57.2896 117.299 56.5841C116.575 55.4536 116.209 54.1309 116.249 52.7889C116.288 51.4469 116.732 50.1481 117.521 49.0622C118.177 48.2317 119.061 47.6115 120.065 47.2782C121.069 46.945 122.149 46.9133 123.171 47.1872C124.222 47.5087 125.156 48.1291 125.859 48.9726C126.563 49.8161 127.006 50.8462 127.134 51.9372C127.174 52.3247 127.19 52.7154 127.209 52.956C127.124 56.6029 124.727 59.0622 121.481 58.9404Z" fill="#55585D"/>
<path d="M37.2891 75.2469L27.7422 65.9375L48.2453 45L58.1297 54.6875L37.2891 75.2469Z" fill="#8AB4F8"/>
<path d="M37.3308 34.0875L27.8183 24.375L7.0183 44.9781C5.73211 46.267 5.00977 48.0135 5.00977 49.8344C5.00977 51.6552 5.73211 53.4017 7.0183 54.6906L27.5058 75.3125L37.1933 66.25L21.5839 49.8344L37.3308 34.0875Z" fill="#4285F4"/>
<path d="M57.9922 45.1375L37.3672 24.5125C36.0723 23.2513 34.3327 22.5507 32.525 22.5626C30.7174 22.5746 28.9872 23.2979 27.709 24.5761C26.4307 25.8544 25.7074 27.5846 25.6955 29.3922C25.6836 31.1999 26.3841 32.9395 27.6453 34.2344L48.2704 54.8594C48.9056 55.5116 49.6641 56.0312 50.5018 56.3879C51.3394 56.7446 52.2396 56.9314 53.15 56.9374C54.0605 56.9433 54.963 56.7684 55.8053 56.4228C56.6476 56.0772 57.4129 55.5676 58.0567 54.9239C58.7005 54.2801 59.21 53.5148 59.5556 52.6725C59.9013 51.8302 60.0762 50.9277 60.0702 50.0172C60.0642 49.1068 59.8774 48.2066 59.5207 47.3689C59.164 46.5313 58.6444 45.7728 57.9922 45.1375Z" fill="#8AB4F8"/>
<path d="M32.3496 77.5C36.0603 77.5 39.0684 74.4919 39.0684 70.7812C39.0684 67.0706 36.0603 64.0625 32.3496 64.0625C28.6389 64.0625 25.6309 67.0706 25.6309 70.7812C25.6309 74.4919 28.6389 77.5 32.3496 77.5Z" fill="#1967D2"/>
</svg>
