<svg width="90" height="90" viewBox="0 0 90 90" fill="none" xmlns="http://www.w3.org/2000/svg">
<path d="M58.9968 17.5909V71.5908C58.9968 77.6377 63.1641 80.9999 67.5871 80.9999C71.6777 80.9999 76.1773 78.1363 76.1773 71.5908V18C76.1773 12.4645 72.0867 9 67.5871 9C63.0874 9 58.9968 12.8224 58.9968 17.5909Z" fill="#F8AB00"/>
<path d="M36.4984 44.9995V71.5904C36.4984 77.6373 40.6657 80.9995 45.0887 80.9995C49.1793 80.9995 53.6789 78.1359 53.6789 71.5904V45.4086C53.6789 39.8731 49.5883 36.4087 45.0887 36.4087C40.589 36.4087 36.4984 40.2311 36.4984 44.9995Z" fill="#E37300"/>
<path d="M31.1805 72.4091C31.1805 77.152 27.3328 81 22.5903 81C17.8477 81 14 77.152 14 72.4091C14 67.6662 17.8477 63.8182 22.5903 63.8182C27.3328 63.8182 31.1805 67.6662 31.1805 72.4091Z" fill="#E37300"/>
</svg>
