<svg width="360" height="100" viewBox="0 0 360 100" fill="none" xmlns="http://www.w3.org/2000/svg">
<path d="M153.315 43.6781L148.576 56.7867H158.245L153.467 43.6781H153.315ZM144.486 68.1372H140.359L151.289 39.0921H155.531L166.461 68.1372H162.334L159.544 60.2645H147.314L144.486 68.1372Z" fill="#55585D"/>
<path d="M168.334 48.2638H171.926V51.0154H172.079C172.633 50.0504 173.503 49.2479 174.678 48.6077C175.872 47.9485 177.095 47.6141 178.347 47.6141C180.793 47.6141 182.665 48.3211 183.965 49.716C185.283 51.0918 185.952 53.0696 185.952 55.6397V68.1368H182.207V55.9072C182.13 52.6492 180.496 51.0154 177.315 51.0154C175.834 51.0154 174.582 51.6269 173.569 52.8498C172.576 54.0537 172.079 55.4773 172.079 57.1302V68.1368H168.334V48.2638Z" fill="#55585D"/>
<path d="M192.875 62.0602C192.875 63.0347 193.276 63.8469 194.098 64.5061C194.91 65.1462 195.875 65.4615 197.002 65.4615C198.55 65.4615 199.945 64.8883 201.168 63.7418C202.41 62.5761 203.041 61.2003 203.041 59.6143C201.865 58.6971 200.232 58.2385 198.149 58.2385C196.639 58.2385 195.378 58.6111 194.365 59.3468C193.372 60.0633 192.875 60.971 192.875 62.0602ZM197.69 47.6141C200.442 47.6141 202.601 48.3593 204.187 49.8307C205.792 51.3116 206.595 53.3371 206.595 55.9072V68.1367H203.041V65.3851H202.888C201.33 67.659 199.267 68.7864 196.697 68.7864C194.499 68.7864 192.665 68.1368 191.193 66.8374C189.741 65.538 189.015 63.9233 189.015 61.9838C189.015 59.92 189.789 58.2958 191.346 57.092C192.894 55.869 194.977 55.2575 197.576 55.2575C199.792 55.2575 201.608 55.6588 203.041 56.4423V55.6015C203.041 54.3021 202.515 53.2129 201.474 52.3148C200.451 51.3976 199.257 50.939 197.881 50.939C195.789 50.939 194.146 51.818 192.951 53.576L189.665 51.5122C191.47 48.9135 194.146 47.6141 197.69 47.6141Z" fill="#55585D"/>
<path d="M214.407 39.0922V68.1373H210.662V39.0922H214.407Z" fill="#55585D"/>
<path d="M236.422 48.2645L223.963 76.8892H220.142L224.766 66.8763L216.549 48.2645H220.6L226.524 62.5577H226.6L232.371 48.2645H236.422Z" fill="#55585D"/>
<path d="M246.684 68.4436C245.079 68.4436 243.741 67.9467 242.671 66.9531C241.601 65.9594 241.047 64.5741 241.028 62.7874V51.6662H237.512V48.2648H241.028V42.1883H244.735V48.2648H249.626V51.6662H244.735V61.5645C244.735 62.8925 244.983 63.8002 245.499 64.2779C246.034 64.7365 246.617 64.9658 247.257 64.9658C247.563 64.9658 247.849 64.9467 248.136 64.8894C248.413 64.8129 248.681 64.7269 248.939 64.6218L250.085 67.9467C249.111 68.2716 247.983 68.4436 246.684 68.4436Z" fill="#55585D"/>
<path d="M257.795 41.4233C257.795 42.1399 257.527 42.7609 256.992 43.296C256.476 43.8119 255.865 44.0603 255.158 44.0603C254.413 44.0603 253.792 43.8119 253.285 43.296C252.769 42.7609 252.521 42.1399 252.521 41.4233C252.521 40.6876 252.769 40.0666 253.285 39.5507C253.792 39.0443 254.413 38.7863 255.158 38.7863C255.865 38.7863 256.476 39.0443 256.992 39.5507C257.527 40.0666 257.795 40.6876 257.795 41.4233ZM257.031 48.2642V68.1372H253.285V48.2642H257.031Z" fill="#55585D"/>
<path d="M269.606 68.7864C266.644 68.7864 264.198 67.7832 262.268 65.7673C260.358 63.7322 259.402 61.2099 259.402 58.2003C259.402 55.1429 260.358 52.6205 262.268 50.6332C264.198 48.6268 266.644 47.6141 269.606 47.6141C271.641 47.6141 273.409 48.13 274.918 49.1428C276.418 50.1651 277.555 51.5696 278.32 53.3467L274.918 54.7607C273.867 52.267 272.023 51.0154 269.377 51.0154C267.667 51.0154 266.186 51.7033 264.944 53.0791C263.721 54.455 263.109 56.1652 263.109 58.2003C263.109 60.2449 263.721 61.9455 264.944 63.3214C266.186 64.6972 267.667 65.3851 269.377 65.3851C272.1 65.3851 274.011 64.143 275.109 61.6398L278.434 63.0538C277.718 64.8405 276.581 66.245 275.033 67.2578C273.476 68.2705 271.67 68.7864 269.606 68.7864Z" fill="#55585D"/>
<path d="M296.893 62.6337C296.893 64.3726 296.129 65.8344 294.6 67.0287C293.091 68.1943 291.199 68.7867 288.906 68.7867C286.919 68.7867 285.161 68.2612 283.632 67.2198C282.122 66.1783 281.043 64.8025 280.383 63.0923L283.708 61.6783C284.215 62.8821 284.931 63.8089 285.849 64.4681C286.785 65.1369 287.807 65.4618 288.906 65.4618C290.1 65.4618 291.094 65.2134 291.887 64.6974C292.699 64.191 293.11 63.5796 293.11 62.863C293.11 61.5923 292.126 60.6655 290.167 60.0731L286.766 59.2323C282.887 58.2387 280.957 56.366 280.957 53.6144C280.957 51.8086 281.692 50.3564 283.173 49.2576C284.645 48.1684 286.536 47.6143 288.829 47.6143C290.587 47.6143 292.173 48.0347 293.607 48.8755C295.03 49.7162 296.024 50.8437 296.588 52.2386L293.263 53.6144C292.881 52.7736 292.25 52.1239 291.39 51.6653C290.549 51.1876 289.603 50.9392 288.562 50.9392C287.587 50.9392 286.708 51.1876 285.925 51.6653C285.161 52.1526 284.778 52.7545 284.778 53.4615C284.778 54.5889 285.849 55.4011 287.989 55.9074L290.97 56.6718C294.916 57.6463 296.893 59.6336 296.893 62.6337Z" fill="#55585D"/>
<path d="M101.5 28.1591V73.1591C101.5 78.1981 104.973 81 108.659 81C112.068 81 115.818 78.6136 115.818 73.1591V28.5C115.818 23.8871 112.409 21 108.659 21C104.909 21 101.5 24.1854 101.5 28.1591Z" fill="#F8AB00"/>
<path d="M82.7406 51.0001V73.1592C82.7406 78.1982 86.2136 81.0001 89.8997 81.0001C93.3088 81.0001 97.0588 78.6137 97.0588 73.1592V51.341C97.0588 46.7281 93.6497 43.841 89.8997 43.841C86.1497 43.841 82.7406 47.0264 82.7406 51.0001Z" fill="#E37300"/>
<path d="M78.3182 73.8411C78.3182 77.7935 75.1115 81.0002 71.1591 81.0002C67.2067 81.0002 64 77.7935 64 73.8411C64 69.8887 67.2067 66.682 71.1591 66.682C75.1115 66.682 78.3182 69.8887 78.3182 73.8411Z" fill="#E37300"/>
</svg>
