<svg width="90" height="90" viewBox="0 0 90 90" fill="none" xmlns="http://www.w3.org/2000/svg">
<path d="M85 44.9219C85 67.0133 67.0914 84.9219 45 84.9219C22.9086 84.9219 5 67.0133 5 44.9219C5 22.8305 22.9086 4.92188 45 4.92188C67.0914 4.92188 85 22.8305 85 44.9219Z" fill="#15C39A"/>
<path fill-rule="evenodd" clip-rule="evenodd" d="M53.1383 50.5814C52.7376 50.5814 52.3417 50.67 51.9791 50.8407C51.4325 51.0981 50.9868 51.5296 50.7119 52.0677C50.4371 52.6058 50.3486 53.2199 50.4605 53.8136C50.6975 55.1299 51.9354 56.0315 53.2734 56.0315H57.4859L59.9284 55.6889C56.0206 61.422 49.2367 64.0592 41.8185 62.8952C35.781 61.9466 30.5978 57.8627 28.3986 52.1567C23.4355 39.2032 32.8958 26.836 45.2223 26.836C51.6479 26.836 57.2802 30.5976 60.5111 35.1386V35.2373C60.9181 35.8361 61.5457 36.2492 62.2566 36.3864C62.9674 36.5235 63.7037 36.3736 64.3043 35.9693C64.8633 35.5827 65.2551 34.9987 65.4008 34.3348C65.5465 33.6709 65.4353 32.9765 65.0895 32.3914H65.1101C62.8275 28.8164 59.6233 25.923 55.8348 24.0158C52.0462 22.1086 47.8136 21.2581 43.5824 21.5538C31.834 22.3453 22.3204 31.9659 21.6449 43.7269C20.8596 57.4152 31.7177 68.5919 45.2223 68.5919C48.5926 68.6052 51.9258 67.8893 54.9935 66.4933C58.0611 65.0974 60.7905 63.0545 62.9944 60.5047L62.4823 63.3744V65.9658C62.4823 67.301 63.3821 68.5403 64.7001 68.7773C65.0941 68.8518 65.4997 68.8384 65.8879 68.7382C66.2761 68.6379 66.6375 68.4533 66.9461 68.1974C67.2548 67.9415 67.5032 67.6207 67.6737 67.2577C67.8442 66.8948 67.9325 66.4988 67.9324 66.0978V50.5814H53.1383Z" fill="white"/>
</svg>
