<svg width="300" height="100" viewBox="0 0 300 100" fill="none" xmlns="http://www.w3.org/2000/svg">
<path fill-rule="evenodd" clip-rule="evenodd" d="M99.3206 64.4478C98.3734 64.086 97.7537 63.3228 97.7537 62.3053C97.7537 61.0716 98.7733 60.0555 100.013 60.0555C100.377 60.0555 100.668 60.1275 100.923 60.2365C102.527 60.9628 104.239 61.3981 106.316 61.3981C110.105 61.3981 111.89 59.5834 111.89 56.0971V55.153C110.25 57.1146 108.466 58.3115 105.515 58.3115C100.96 58.3115 96.8421 55.0074 96.8421 49.2344V49.1623C96.8421 43.3525 101.032 40.0852 105.515 40.0852C108.538 40.0852 110.323 41.3556 111.817 42.9893V42.9525C111.817 41.4643 113.056 40.2306 114.586 40.2306C116.116 40.2306 117.354 41.4644 117.354 42.9893V55.5161C117.354 59.0025 116.518 61.5437 114.877 63.1772C113.056 64.9932 110.25 65.7919 106.462 65.7919C103.874 65.7919 101.615 65.3566 99.3206 64.4478ZM111.89 49.2344V49.1623C111.89 46.511 109.813 44.6597 107.117 44.6597C104.421 44.6597 102.381 46.511 102.381 49.1623V49.2344C102.381 51.921 104.421 53.737 107.117 53.737C109.813 53.737 111.89 51.8855 111.89 49.2344ZM120.489 42.9893C120.489 41.4644 121.727 40.2306 123.259 40.2306C124.789 40.2306 126.027 41.4644 126.027 42.9893V43.86C126.83 41.9731 128.14 40.2306 129.78 40.2306C131.493 40.2306 132.476 41.3556 132.476 42.9159C132.476 44.3687 131.529 45.2406 130.4 45.495C127.594 46.1491 126.027 48.2904 126.027 52.212V57.3675C126.027 58.8924 124.789 60.1275 123.259 60.1275C121.727 60.1275 120.489 58.8924 120.489 57.3675V42.9893ZM131.821 54.3177V54.2458C131.821 49.9976 135.063 48.036 139.691 48.036C141.658 48.036 143.079 48.3625 144.464 48.8345V48.5079C144.464 46.2213 143.042 44.9494 140.274 44.9494C138.744 44.9494 137.505 45.1685 136.448 45.495C136.121 45.6038 135.902 45.6406 135.647 45.6406C134.372 45.6406 133.351 44.6597 133.351 43.3878C133.351 42.4084 133.969 41.5733 134.846 41.2455C136.594 40.5924 138.489 40.2306 141.075 40.2306C144.099 40.2306 146.285 41.029 147.669 42.4084C149.127 43.86 149.783 46.0037 149.783 48.6182V57.4764C149.783 58.9659 148.581 60.1275 147.087 60.1275C145.484 60.1275 144.427 59.0025 144.427 57.8396V57.8028C143.079 59.2924 141.221 60.2718 138.524 60.2718C134.846 60.2718 131.821 58.1674 131.821 54.3177ZM144.537 53.0473V52.0664C143.589 51.6311 142.351 51.3401 141.002 51.3401C138.633 51.3401 137.177 52.2842 137.177 54.028V54.1002C137.177 55.5896 138.416 56.4602 140.2 56.4602C142.788 56.4602 144.537 55.0442 144.537 53.0473ZM152.736 42.9893C152.736 41.4644 153.974 40.2306 155.505 40.2306C157.035 40.2306 158.275 41.4644 158.275 42.9893V43.2084C159.548 41.5733 161.226 40.0852 164.031 40.0852C166.58 40.0852 168.512 41.21 169.531 43.1715C171.244 41.1746 173.285 40.0852 175.944 40.0852C180.062 40.0852 182.539 42.554 182.539 47.2388V57.3675C182.539 58.8924 181.3 60.1275 179.77 60.1275C178.24 60.1275 177 58.8924 177 57.3675V49.0535C177 46.4391 175.834 45.095 173.758 45.095C171.681 45.095 170.406 46.4391 170.406 49.0535V57.3675C170.406 58.8924 169.168 60.1275 167.637 60.1275C166.107 60.1275 164.867 58.8924 164.867 57.3675V49.0535C164.867 46.4391 163.703 45.095 161.626 45.095C159.548 45.095 158.275 46.4391 158.275 49.0535V57.3675C158.275 58.8924 157.035 60.1275 155.505 60.1275C153.974 60.1275 152.736 58.8924 152.736 57.3675V42.9893ZM185.528 42.9893C185.528 41.4644 186.766 40.2306 188.298 40.2306C189.828 40.2306 191.067 41.4644 191.067 42.9893V43.2084C192.34 41.5733 194.018 40.0852 196.823 40.0852C199.373 40.0852 201.304 41.21 202.324 43.1715C204.037 41.1746 206.077 40.0852 208.736 40.0852C212.854 40.0852 215.331 42.554 215.331 47.2388V57.3675C215.331 58.8924 214.093 60.1275 212.562 60.1275C211.032 60.1275 209.793 58.8924 209.793 57.3675V49.0535C209.793 46.4391 208.627 45.095 206.551 45.095C204.473 45.095 203.199 46.4391 203.199 49.0535V57.3675C203.199 58.8924 201.961 60.1275 200.429 60.1275C198.899 60.1275 197.661 58.8924 197.661 57.3675V49.0535C197.661 46.4391 196.495 45.095 194.418 45.095C192.34 45.095 191.067 46.4391 191.067 49.0535V57.3675C191.067 58.8924 189.828 60.1275 188.298 60.1275C186.766 60.1275 185.528 58.8924 185.528 57.3675V42.9893ZM217.155 54.3177V54.2458C217.155 49.9976 220.398 48.036 225.024 48.036C226.992 48.036 228.413 48.3625 229.797 48.8345V48.5079C229.797 46.2213 228.377 44.9494 225.607 44.9494C224.077 44.9494 222.839 45.1685 221.782 45.495C221.454 45.6038 221.236 45.6406 220.981 45.6406C219.705 45.6406 218.685 44.6597 218.685 43.3878C218.685 42.4084 219.305 41.5733 220.178 41.2455C221.928 40.5924 223.823 40.2306 226.409 40.2306C229.434 40.2306 231.619 41.029 233.004 42.4084C234.46 43.86 235.116 46.0037 235.116 48.6182V57.4764C235.116 58.9659 233.914 60.1275 232.422 60.1275C230.818 60.1275 229.761 59.0025 229.761 57.8396V57.8028C228.413 59.2924 226.554 60.2718 223.859 60.2718C220.178 60.2718 217.155 58.1674 217.155 54.3177ZM229.871 53.0473V52.0664C228.923 51.6311 227.684 51.3401 226.337 51.3401C223.967 51.3401 222.511 52.2842 222.511 54.028V54.1002C222.511 55.5896 223.749 56.4602 225.534 56.4602C228.121 56.4602 229.871 55.0442 229.871 53.0473ZM238.068 42.9893C238.068 41.4644 239.308 40.2306 240.838 40.2306C242.368 40.2306 243.606 41.4644 243.606 42.9893V43.86C244.408 41.9731 245.721 40.2306 247.361 40.2306C249.073 40.2306 250.055 41.3556 250.055 42.9159C250.055 44.3687 249.109 45.2406 247.979 45.495C245.175 46.1491 243.606 48.2904 243.606 52.212V57.3675C243.606 58.8924 242.368 60.1275 240.838 60.1275C239.308 60.1275 238.068 58.8924 238.068 57.3675V42.9893ZM251.733 35.9445C251.733 34.4195 252.971 33.1857 254.501 33.1857C256.033 33.1857 257.271 34.4195 257.271 35.9445V57.3675C257.271 58.8924 256.033 60.1275 254.501 60.1275C252.971 60.1275 251.733 58.8924 251.733 57.3675V35.9445ZM261.681 65.3198C260.877 65.03 259.931 64.3757 259.931 63.0331C259.931 61.6891 260.987 60.7806 262.117 60.7806C262.553 60.7806 262.809 60.854 263.027 60.926C263.501 61.0716 263.793 61.145 264.195 61.145C265.177 61.145 265.651 60.9628 266.161 59.9821L266.343 59.5468L259.677 44.151C259.531 43.7878 259.385 43.2437 259.385 42.8806C259.385 41.319 260.587 40.2306 262.117 40.2306C263.501 40.2306 264.303 40.9924 264.775 42.2984L269.003 53.628L273.083 42.335C273.521 41.1746 274.321 40.2306 275.744 40.2306C277.164 40.2306 278.366 41.319 278.366 42.7716C278.366 43.2084 278.22 43.8246 278.112 44.079L271.297 60.3819C269.657 64.3391 268.019 65.8285 264.703 65.8285C263.465 65.8285 262.591 65.6476 261.681 65.3198Z" fill="#0E101A"/>
<path d="M81 50C81 66.5685 67.5685 80 51 80C34.4315 80 21 66.5685 21 50C21 33.4315 34.4315 20 51 20C67.5685 20 81 33.4315 81 50Z" fill="#15C39A"/>
<path fill-rule="evenodd" clip-rule="evenodd" d="M57.1037 54.2446C56.8032 54.2446 56.5063 54.3111 56.2344 54.4391C55.8244 54.6321 55.4901 54.9558 55.2839 55.3594C55.0778 55.7629 55.0115 56.2235 55.0954 56.6688C55.2731 57.656 56.2015 58.3322 57.2051 58.3322H60.3645L62.1963 58.0753C59.2655 62.3751 54.1776 64.353 48.6139 63.48C44.0857 62.7685 40.1983 59.7057 38.5489 55.4261C34.8266 45.711 41.9218 36.4356 51.1667 36.4356C55.9859 36.4356 60.2102 39.2568 62.6333 42.6625V42.7366C62.9386 43.1856 63.4093 43.4955 63.9424 43.5984C64.4756 43.7013 65.0278 43.5888 65.4782 43.2855C65.8975 42.9956 66.1913 42.5576 66.3006 42.0597C66.4099 41.5618 66.3265 41.041 66.0672 40.6021H66.0826C64.3707 37.9209 61.9675 35.7509 59.1261 34.3204C56.2847 32.89 53.1102 32.2521 49.9368 32.474C41.1255 33.0676 33.9903 40.283 33.4836 49.1038C32.8947 59.37 41.0383 67.7525 51.1667 67.7525C53.6944 67.7625 56.1944 67.2255 58.4951 66.1786C60.7958 65.1317 62.8429 63.5995 64.4958 61.6871L64.1117 63.8394V65.7829C64.1117 66.7843 64.7866 67.7138 65.7751 67.8916C66.0706 67.9474 66.3748 67.9374 66.6659 67.8622C66.9571 67.787 67.2281 67.6485 67.4596 67.4566C67.6911 67.2647 67.8774 67.0241 68.0053 66.7519C68.1331 66.4797 68.1994 66.1827 68.1993 65.882V54.2446H57.1037Z" fill="white"/>
</svg>
