<svg width="100" height="100" viewBox="0 0 100 100" fill="none" xmlns="http://www.w3.org/2000/svg">
<g clip-path="url(#clip0_1351_307)">
<path d="M50 100C77.6142 100 100 77.6142 100 50C100 22.3858 77.6142 0 50 0C22.3858 0 0 22.3858 0 50C0 77.6142 22.3858 100 50 100Z" fill="#FF90E8"/>
<path d="M45.6603 75.1984C31.014 75.1984 22.3984 63.4509 22.3984 48.8381C22.3984 33.6525 31.8757 21.3318 49.9682 21.3318C68.635 21.3318 74.9532 33.9388 75.2403 41.1019H61.7428C61.4557 37.0906 58.0094 31.0736 49.681 31.0736C40.7782 31.0736 35.0344 38.8097 35.0344 48.265C35.0344 57.7203 40.7782 65.4566 49.681 65.4566C57.7222 65.4566 61.1685 59.1531 62.6044 52.8494H49.681V47.6922H76.7985V74.0525H64.9016V57.4341C64.04 63.4509 60.3069 75.1984 45.6603 75.1984Z" fill="black"/>
</g>
<defs>
<clipPath id="clip0_1351_307">
<rect width="100" height="100" fill="white"/>
</clipPath>
</defs>
</svg>
