<svg width="957" height="100" viewBox="0 0 957 100" fill="none" xmlns="http://www.w3.org/2000/svg">
<g clip-path="url(#clip0_1502_2851)">
<path d="M73.3712 0.0488281H51.0014C50.1429 0.0488281 49.436 0.726138 49.436 1.54859V36.6236H25.5007V1.54859C25.5007 0.726138 24.7937 0.0488281 23.9353 0.0488281H1.56539C0.70695 0.0488281 0 0.726138 0 1.54859V96.6625C0 97.485 0.70695 98.1619 1.56539 98.1619H23.8848C24.7432 98.1619 25.4502 97.485 25.4502 96.6625V58.491H49.3855V96.6625C49.3855 97.485 50.0925 98.1619 50.9509 98.1619H73.3712C74.23 98.1619 74.9369 97.485 74.9369 96.6625V1.54859C74.9369 0.726138 74.23 0.0488281 73.3712 0.0488281Z" fill="#121418"/>
<path d="M127.531 21.0449C120.915 21.0449 114.452 22.0125 108.392 23.8993C102.383 25.7861 96.6769 28.1567 91.4256 31.011C90.6681 31.398 90.4156 32.3173 90.8194 33.043L98.7475 47.0246C99.1512 47.7503 100.111 48.0405 100.868 47.6535C105.009 45.67 108.998 44.025 112.634 42.864C116.169 41.7029 119.703 41.1223 123.137 41.1223C127.934 41.1223 131.519 41.9447 133.843 43.5897C135.66 44.8959 136.822 46.5408 137.377 48.6695C129.146 49.2017 121.976 50.0725 116.068 51.282C109.654 52.6366 104.302 54.4266 100.161 56.6037C95.9194 58.8775 92.7888 61.6836 90.8194 64.9731C88.85 68.2631 87.8906 72.1337 87.8906 76.4394C87.8906 79.7287 88.5469 82.825 89.7587 85.6312C91.0212 88.4375 92.7887 90.9044 95.0612 93.0331C97.3337 95.1619 100.111 96.855 103.393 98.0162C106.625 99.1775 110.261 99.8062 114.3 99.8062C119.35 99.8062 124.349 98.7906 129.096 96.855C133.186 95.1619 137.024 93.0819 140.558 90.6625L141.821 96.855C141.972 97.5812 142.629 98.065 143.386 98.065H161.666C162.524 98.065 163.231 97.3875 163.231 96.565V55.1523C163.231 43.6864 159.999 35.0265 153.586 29.3662C147.174 23.8509 138.437 21.0449 127.531 21.0449ZM137.68 74.1656C135.307 75.8587 132.832 77.2619 130.207 78.4225C127.48 79.6325 124.551 80.2612 121.42 80.2612C118.491 80.2612 116.169 79.7775 114.552 78.81C113.139 77.9875 112.483 76.7294 112.483 74.9394C112.483 73.6819 112.836 72.4719 113.543 71.3594C114.25 70.2469 115.562 69.2306 117.381 68.36C119.401 67.3925 122.177 66.57 125.662 65.9406C128.894 65.3606 132.883 64.8769 137.629 64.5862L137.68 74.1656Z" fill="#121418"/>
<path d="M243.962 73.392C243.709 73.0533 243.355 72.8114 242.901 72.7145C242.497 72.6183 242.043 72.7145 241.689 72.9564C239.164 74.747 236.235 76.2951 233.004 77.6014C229.873 78.8589 226.389 79.5364 222.652 79.5364C216.744 79.5364 212.099 77.8433 208.462 74.4564C204.827 71.0214 203.059 66.4739 203.059 60.5232C203.059 54.5726 204.877 50.0249 208.665 46.59C212.401 43.2035 217.35 41.4618 223.41 41.4618C228.61 41.4618 233.964 43.3002 239.215 46.8803C239.922 47.3641 240.881 47.2189 241.386 46.5416L251.738 33.2857C252.243 32.6568 252.142 31.786 251.536 31.2538C248.153 28.351 243.911 25.8836 238.962 23.9485C229.166 20.1749 216.087 20.1265 205.079 23.7066C199.625 25.4483 194.778 28.0123 190.637 31.3505C186.497 34.6887 183.114 38.8493 180.639 43.7356C178.165 48.6219 176.902 54.2823 176.902 60.5232C176.902 66.7158 178.013 72.3764 180.235 77.2626C182.457 82.1489 185.588 86.3577 189.526 89.6958C193.465 93.0339 198.111 95.5983 203.362 97.3395C208.564 99.0814 214.32 100.001 220.48 100.001C225.783 100.001 231.337 99.1301 237.044 97.3883C242.75 95.6464 248.001 92.792 252.748 89.0189C253.354 88.5345 253.505 87.6639 253.051 87.0351L243.962 73.392Z" fill="#121418"/>
<path d="M315.815 54.1848L343.588 25.3507C343.992 24.9153 344.144 24.2864 343.891 23.7059C343.639 23.1737 343.083 22.7866 342.427 22.7866H317.936C317.481 22.7866 317.078 22.9802 316.775 23.2704L291.223 49.492V1.49976C291.223 0.677312 290.516 0 289.658 0H267.288C266.43 0 265.723 0.677312 265.723 1.49976V96.6137C265.723 97.4356 266.43 98.1131 267.288 98.1131H289.658C290.516 98.1131 291.223 97.4356 291.223 96.6137V79.2937L300.616 70.5369L319.198 97.4356C319.501 97.8712 320.006 98.1131 320.511 98.1131H344.699C345.305 98.1131 345.81 97.7744 346.113 97.2906C346.366 96.8069 346.366 96.1781 346.012 95.7425L315.815 54.1848Z" fill="#121418"/>
<path d="M415.84 31.446C412.76 28.1562 408.821 25.5921 404.175 23.7537C399.53 21.9153 394.177 20.9961 388.218 20.9961C382.967 20.9961 377.816 21.9153 372.969 23.7053C368.071 25.4953 363.677 28.1562 359.89 31.5427C356.103 34.9293 353.023 39.0899 350.75 43.9278C348.478 48.7658 347.316 54.3294 347.316 60.4252C347.316 66.6662 348.478 72.23 350.75 77.0675C353.023 81.9056 356.153 86.0662 360.041 89.4525C363.93 92.8393 368.576 95.4518 373.827 97.1937C379.028 98.935 384.735 99.8544 390.794 99.8544C395.995 99.8544 401.398 99.08 406.751 97.5318C412.154 95.9837 417.103 93.8556 421.445 91.1462C422.152 90.7106 422.354 89.84 422.001 89.1625L414.729 76.3906C414.325 75.665 413.366 75.3744 412.608 75.7612C409.376 77.3581 406.195 78.5675 403.216 79.39C400.287 80.1637 397.106 80.5512 393.824 80.5512C388.572 80.5512 384.078 79.39 380.391 77.0675C377.21 75.0843 375.09 72.0362 373.878 67.8275H422.758C423.516 67.8275 424.121 67.3437 424.323 66.6175C424.526 65.6987 424.728 64.4406 424.98 62.7475C425.182 61.1025 425.283 59.2157 425.283 57.2322C425.283 52.1523 424.475 47.3144 422.91 42.9603C421.294 38.6062 418.92 34.6874 415.84 31.446ZM373.575 51.5234C374.534 47.9917 376.251 45.2825 378.725 43.5408C381.654 41.4605 384.936 40.3962 388.673 40.3962C393.319 40.3962 396.702 41.5573 398.722 43.7827C400.489 45.8147 401.55 48.3787 401.802 51.475H373.575V51.5234Z" fill="#121418"/>
<path d="M510.648 24.0928C508.325 23.0769 506.053 22.3028 503.881 21.819C501.71 21.2868 498.831 21.0449 495.347 21.0449C489.035 21.0449 483.026 22.5447 477.522 25.5442C472.977 28.0115 468.938 31.64 465.453 36.2844L464.04 24.1412C463.938 23.3671 463.282 22.7865 462.474 22.7865H444.195C443.336 22.7865 442.629 23.4639 442.629 24.2863V96.6131C442.629 97.4356 443.336 98.1131 444.195 98.1131H466.565C467.423 98.1131 468.13 97.4356 468.13 96.6131V59.3129C471.21 53.2655 474.846 48.9597 478.986 46.5408C483.228 44.0734 487.571 42.8156 491.964 42.8156C494.691 42.8156 496.963 42.9607 498.73 43.2994C500.548 43.638 502.619 44.1218 504.891 44.7991C505.295 44.9443 505.75 44.8475 506.153 44.654C506.507 44.4605 506.81 44.1218 506.911 43.6864L511.456 25.7377C511.708 25.1088 511.355 24.383 510.648 24.0928Z" fill="#121418"/>
<path d="M581.66 59.2646C586.457 56.9424 590.446 53.6043 593.526 49.2985C596.96 44.5573 598.677 38.4616 598.677 31.1563C598.677 25.3024 597.616 20.3193 595.445 16.3038C593.274 12.2883 590.345 9.04694 586.608 6.62794C582.973 4.25738 578.681 2.51573 573.883 1.49976C569.187 0.532172 564.087 0 558.684 0H523.538C522.68 0 521.973 0.677312 521.973 1.49976V96.6138C521.973 97.4356 522.68 98.1131 523.538 98.1131H545.908C546.766 98.1131 547.473 97.4356 547.473 96.6138V63.8606H556.664L575.246 97.3394C575.499 97.8231 576.055 98.1619 576.661 98.1619H601.758C602.313 98.1619 602.818 97.8713 603.121 97.3875C603.424 96.9038 603.424 96.3231 603.121 95.8875L581.66 59.2646ZM556.916 43.7833H547.524V20.1258H556.916C562.572 20.1258 566.865 20.9966 569.591 22.6415C572.166 24.1896 573.429 26.9956 573.429 31.1079C573.429 39.7678 568.177 43.7833 556.916 43.7833Z" fill="#121418"/>
<path d="M647.404 21.0449C640.785 21.0449 634.323 22.0125 628.26 23.8993C622.254 25.7861 616.548 28.1567 611.296 31.011C610.539 31.398 610.287 32.3173 610.69 33.043L618.619 47.0246C619.022 47.7503 619.982 48.0405 620.739 47.6535C624.88 45.67 628.867 44.025 632.504 42.864C636.042 41.7029 639.573 41.1223 643.01 41.1223C647.804 41.1223 651.392 41.9447 653.71 43.5897C655.529 44.8959 656.692 46.5408 657.248 48.6695C649.017 49.2017 641.848 50.0725 635.942 51.282C629.523 52.6366 624.173 54.4266 620.032 56.6037C615.79 58.8775 612.66 61.6836 610.69 64.9731C608.721 68.2631 607.762 72.1337 607.762 76.4394C607.762 79.7287 608.418 82.825 609.63 85.6312C610.892 88.4375 612.66 90.9044 614.932 93.0331C617.204 95.1619 619.982 96.855 623.264 98.0162C626.498 99.1775 630.129 99.8062 634.173 99.8062C639.223 99.8062 644.223 98.7906 648.967 96.855C653.054 95.1619 656.892 93.0819 660.429 90.6625L661.692 96.855C661.842 97.5812 662.498 98.065 663.254 98.065H681.535C682.398 98.065 683.104 97.3875 683.104 96.565V55.1523C683.104 43.6864 679.873 35.0265 673.46 29.3662C667.098 23.8509 658.36 21.0449 647.404 21.0449ZM657.554 74.1656C655.179 75.8587 652.704 77.2619 650.079 78.4225C647.348 79.6325 644.423 80.2612 641.292 80.2612C638.36 80.2612 636.042 79.7775 634.423 78.81C633.01 77.9875 632.354 76.7294 632.354 74.9394C632.354 73.6819 632.704 72.4719 633.417 71.3594C634.123 70.2469 635.435 69.2306 637.254 68.36C639.273 67.3925 642.048 66.57 645.535 65.9406C648.767 65.3606 652.754 64.8769 657.498 64.5862V74.1656H657.554Z" fill="#121418"/>
<path d="M747.687 21.0449C741.774 21.0449 736.524 22.2544 732.081 24.5766C728.443 26.5118 725.162 28.7856 722.187 31.3497L720.924 24.0928C720.768 23.3671 720.112 22.8349 719.355 22.8349H701.074C700.218 22.8349 699.512 23.5122 699.512 24.3347V96.6619C699.512 97.4844 700.218 98.1612 701.074 98.1612H723.449C724.305 98.1612 725.012 97.4844 725.012 96.6619V49.0082C727.387 46.7827 729.555 45.1378 731.624 43.9767C733.649 42.864 736.068 42.2834 738.849 42.2834C742.431 42.2834 744.905 43.2026 746.218 44.9927C747.637 46.9762 748.393 50.266 748.393 54.7653V96.6131C748.393 97.4356 749.099 98.1131 749.955 98.1131H772.324C773.187 98.1131 773.893 97.4356 773.893 96.6131V52.0077C773.893 42.5737 771.774 35.0265 767.63 29.5113C763.493 23.8993 756.724 21.0449 747.687 21.0449Z" fill="#121418"/>
<path d="M870.821 95.7913L840.621 54.1848L868.396 25.3508C868.802 24.9153 868.952 24.2864 868.696 23.7059C868.446 23.1737 867.89 22.7866 867.234 22.7866H842.746C842.29 22.7866 841.884 22.9802 841.584 23.2704L816.027 49.492V1.49976C816.027 0.677312 815.321 0 814.465 0H792.096C791.234 0 790.527 0.677312 790.527 1.49976V96.6138C790.527 97.4356 791.234 98.1131 792.096 98.1131H814.465C815.321 98.1131 816.027 97.4356 816.027 96.6138V79.2938L825.421 70.5369L843.952 97.4844C844.259 97.92 844.765 98.1619 845.265 98.1619H869.459C870.059 98.1619 870.565 97.8231 870.871 97.3394C871.171 96.8556 871.121 96.2263 870.821 95.7913Z" fill="#121418"/>
<path d="M954.669 98.1619C955.531 98.1619 956.238 97.485 956.238 96.6625V1.54859C956.238 0.726138 955.531 0.0488281 954.669 0.0488281H882.813C881.956 0.0488281 881.25 0.726138 881.25 1.54859V96.6625C881.25 97.485 881.956 98.1619 882.813 98.1619H954.669Z" fill="#32C766"/>
</g>
<defs>
<clipPath id="clip0_1502_2851">
<rect width="956.25" height="100" fill="white"/>
</clipPath>
</defs>
</svg>
