<svg width="90" height="90" viewBox="0 0 90 90" fill="none" xmlns="http://www.w3.org/2000/svg">
<rect x="5" y="5" width="80" height="80" rx="8" fill="url(#paint0_linear_806_7845)"/>
<path d="M31.9121 44.6339H36.9071V26.2236H31.9022V33.0942H28.6644V26.2236H23.541V44.6339H28.6742V37.4968H31.9121V44.6339Z" fill="white"/>
<path d="M63.5307 35.256C63.5307 37.3093 61.8525 38.948 59.8585 38.948C57.8052 38.948 56.1665 37.3093 56.1665 35.256C56.1665 33.2027 57.8052 31.5838 59.8585 31.5838C61.8525 31.5838 63.5307 33.2027 63.5307 35.256Z" fill="white"/>
<path fill-rule="evenodd" clip-rule="evenodd" d="M69.1674 35.256C69.1674 40.4484 64.9818 44.7129 59.8585 44.7129C54.6759 44.7129 52.129 40.942 51.4084 39.4415C51.4084 41.8699 49.1281 44.6339 45.8902 44.6339H37.9338V26.2137H46.4825C49.1281 26.2137 51.4084 28.9383 51.4084 31.2186C52.0402 29.6786 54.666 25.9077 59.8585 25.9077C64.9818 25.9077 69.1674 29.9846 69.1674 35.256ZM46.5911 38.7703C46.5911 37.9509 45.9988 37.2303 45.2584 37.2303H42.7116V40.3497H45.2584C45.9988 40.3497 46.5911 39.6291 46.5911 38.7703ZM46.5911 31.8602C46.5911 31.0409 45.9988 30.3203 45.2584 30.3203H42.7116V33.4002H45.2584C45.9988 33.4002 46.5911 32.6796 46.5911 31.8602ZM50.5496 34.1307C50.1844 34.5354 49.2169 35.2165 48.6247 35.256C49.2169 35.3646 50.1449 36.0754 50.5496 36.6775C50.4114 36.1839 50.4114 34.6242 50.5496 34.1307ZM59.898 30.5769C57.3017 30.5671 55.1892 32.6598 55.1892 35.256C55.1892 37.8621 57.282 39.9548 59.8683 39.9548C62.4349 39.9548 64.508 37.8917 64.5475 35.3251C64.5771 32.719 62.504 30.5967 59.898 30.5769Z" fill="white"/>
<path d="M32.8836 46.1867C36.5541 46.1867 39.5503 48.4245 39.6439 52.6567C39.6439 52.6614 39.6463 52.6661 39.6475 52.6684C39.6486 52.6708 39.6486 52.6708 39.6439 52.6661V63.6586C39.6439 63.8084 39.5222 63.9301 39.3724 63.9301H37.8556C36.9754 63.9301 36.2544 63.2185 36.2544 62.329V52.6754C36.1889 50.5874 34.7095 49.4826 32.8836 49.4826C31.0578 49.4826 29.5784 50.5874 29.5128 52.6754V63.6679C29.5128 63.8177 29.3911 63.9395 29.2413 63.9395H27.7244C26.8443 63.9395 26.1233 63.2279 26.1233 62.3383V52.6848C26.0578 50.5968 24.5784 49.4919 22.7525 49.4919C20.9267 49.4919 19.4473 50.5968 19.3817 52.6848V63.6773C19.3817 63.8271 19.26 63.9488 19.1102 63.9488H17.5933C16.7132 63.9488 15.9922 63.2372 15.9922 62.3477V52.6661C16.0858 48.4339 19.0821 46.1867 22.7525 46.1867C24.7656 46.1867 26.5821 46.8609 27.8181 48.1717C29.054 46.8609 30.8705 46.1867 32.8836 46.1867Z" fill="white"/>
<path d="M71.2171 46.4582H73.792C73.9512 46.4582 74.0448 46.6455 73.9512 46.7766L68.8763 54.3047C68.5111 54.8477 68.5111 55.5593 68.8763 56.1024L73.9606 63.6211C74.0448 63.7522 73.9512 63.9301 73.792 63.9301H71.2171C70.5055 63.9301 69.8313 63.5743 69.4381 62.9844L66.5916 58.7709C66.2171 58.2185 65.4118 58.2185 65.0373 58.7709L62.1909 62.9844C61.7882 63.5743 61.1234 63.9301 60.4118 63.9301H57.8369C57.6777 63.9301 57.5747 63.7522 57.6684 63.6211L62.7433 56.093C63.1085 55.55 63.1085 54.8384 62.7433 54.2953L57.6684 46.7672C57.5841 46.6361 57.6777 46.4582 57.8369 46.4582H60.4118C61.1234 46.4582 61.7976 46.814 62.1909 47.4039L65.0373 51.6174C65.4118 52.1698 66.2171 52.1698 66.5916 51.6174L69.4381 47.4039C69.8407 46.814 70.5055 46.4582 71.2171 46.4582Z" fill="white"/>
<path fill-rule="evenodd" clip-rule="evenodd" d="M54.9905 46.4582H56.5073C56.6571 46.4582 56.7695 46.58 56.7788 46.7298V63.6773C56.7788 63.8271 56.6571 63.9488 56.5073 63.9488H54.9905C54.1478 63.9488 53.4642 63.3028 53.3893 62.4882C52.041 63.4994 50.365 64.0144 48.5485 64.0144C44.1009 64.0144 40.5054 60.9245 40.5054 55.0912C40.5054 49.2578 44.1103 46.168 48.5485 46.168C50.3743 46.168 52.0691 46.6923 53.4174 47.7223C53.5766 47.0013 54.2227 46.4582 54.9905 46.4582ZM43.7451 55.1005C43.7451 58.7616 45.8987 60.6998 48.5485 60.6998C51.1983 60.6998 53.3519 58.7616 53.3519 55.1005C53.3519 51.4395 51.1983 49.5013 48.5485 49.5013C45.8987 49.5013 43.7451 51.4395 43.7451 55.1005Z" fill="white"/>
<defs>
<linearGradient id="paint0_linear_806_7845" x1="74.9922" y1="1.49902" x2="29.9922" y2="73.999" gradientUnits="userSpaceOnUse">
<stop stop-color="#220635"/>
<stop offset="1" stop-color="#37086E"/>
</linearGradient>
</defs>
</svg>
