<svg width="90" height="90" viewBox="0 0 90 90" fill="none" xmlns="http://www.w3.org/2000/svg">
<path d="M77 4H13C8.58172 4 5 7.58172 5 12V76C5 80.4183 8.58172 84 13 84H77C81.4183 84 85 80.4183 85 76V12C85 7.58172 81.4183 4 77 4Z" fill="url(#paint0_linear_897_5169)"/>
<path d="M31.1571 66L38.2286 59.7143L31.1571 53.4286V66ZM56.6143 40.5429C55.3571 39.2857 53 37.7143 49.0714 37.7143C44.8286 37.7143 40.4286 38.8143 37.2857 39.9143V22H31V49.1857L35.4 47.1429C35.4 47.1429 42.6286 43.8429 48.9143 43.8429C52.0571 43.8429 52.8429 45.5714 52.8429 47.1429V66H59.1286V47.1429C59.2857 46.6714 59.2857 43.2143 56.6143 40.5429ZM48.2857 32.2143H54.5714C57.4 28.9143 58.8143 25.6143 59.2857 22H53C52.3714 25.6143 50.8 28.9143 48.2857 32.2143Z" fill="white"/>
<defs>
<linearGradient id="paint0_linear_897_5169" x1="85" y1="4" x2="5" y2="78" gradientUnits="userSpaceOnUse">
<stop stop-color="#4640B8"/>
<stop offset="1" stop-color="#520F95"/>
</linearGradient>
</defs>
</svg>
