<svg width="354" height="100" viewBox="0 0 354 100" fill="none" xmlns="http://www.w3.org/2000/svg">
<path d="M117.45 20H74.4C71.4 20 69 22.4 69 25.4V74.6C69 77.6 71.4 80 74.4 80H117.45C120.45 80 122.85 77.6 122.85 74.6V25.4C122.85 22.4 120.45 20 117.45 20ZM119.85 74.6C119.85 75.95 118.8 77 117.45 77H74.4C73.05 77 72 75.95 72 74.6V25.4C72 24.05 73.05 23 74.4 23H117.45C118.8 23 119.85 24.05 119.85 25.4V74.6ZM82.5 71L89.25 65L82.5 59V71ZM106.8 46.7C105.6 45.5 103.35 44 99.6 44C95.55 44 91.35 45.05 88.35 46.1V29H82.35V54.95L86.55 53C86.55 53 93.45 49.85 99.45 49.85C102.45 49.85 103.2 51.5 103.2 53V71H109.2V53C109.35 52.55 109.35 49.25 106.8 46.7ZM98.85 38.75H104.85C107.55 35.6 108.9 32.45 109.35 29H103.35C102.75 32.45 101.25 35.6 98.85 38.75ZM264.6 52.85V39.65H270.6V52.85C270.6 55.85 271.65 57.35 274.05 57.35C276.45 57.35 277.35 56 277.35 52.85V39.65H283.2V53C283.2 58.85 280.35 62.3 273.9 62.3C267.45 62.15 264.6 58.7 264.6 52.85ZM239.4 39.65H245.4V47.75L251.55 39.65H258.45L250.95 48.35L259.05 61.85H252.3L247.05 53L245.4 54.95V61.85H239.4V39.65ZM210.9 50.6C210.9 42.5 216.45 39.05 221.85 39.05C227.25 39.05 232.8 42.5 232.8 50.6C232.8 58.7 227.25 62.15 221.85 62.15C216.45 62.15 210.9 58.85 210.9 50.6ZM226.65 50.6C226.65 46.55 224.85 44 221.7 44C218.55 44 216.75 46.55 216.75 50.6C216.75 54.65 218.55 57.35 221.7 57.35C224.85 57.35 226.65 54.8 226.65 50.6ZM186.75 39.65H195.45C201.15 39.65 204.6 41.6 204.6 46.85C204.6 50.3 203.1 52.4 200.25 53.3L204.9 61.85H198.6L194.25 54.2H192.6V61.85H186.75V39.65ZM195.3 49.55C197.7 49.55 198.9 48.8 198.9 47C198.9 45.2 197.85 44.45 195.3 44.45H192.75V49.55H195.3ZM163.8 39.65H179.7V44.6H169.8V48.2H176.85V52.85H169.8V56.9H180.15V61.7H163.8V39.65ZM136.65 39.65H142.65V47.9H150V39.65H156V61.85H150V52.85H142.65V61.85H136.65V39.65Z" fill="#79589F"/>
</svg>
