<svg width="364" height="100" viewBox="0 0 364 100" fill="none" xmlns="http://www.w3.org/2000/svg">
<path d="M126.407 67.9256V22.4995H133.481V40.3972C135.697 37.0734 139.021 35.4541 143.453 35.4541C147.203 35.4541 150.186 36.562 152.231 38.7779C154.277 40.9938 155.3 44.1472 155.3 48.1529V67.9256H148.226V49.1756C148.226 43.9768 145.925 41.42 141.322 41.42C139.021 41.42 137.146 42.1018 135.612 43.5507C134.163 44.9143 133.396 46.8745 133.396 49.4313V68.0109L126.407 67.9256Z" fill="#323232"/>
<path d="M188.708 64.0053C185.555 67.1587 181.635 68.6928 176.862 68.6928C172.089 68.6928 168.169 67.1587 165.015 64.0053C161.862 60.8519 160.242 56.8462 160.242 52.0735C160.242 47.2155 161.862 43.2951 165.015 40.1417C168.169 36.9883 172.089 35.4542 176.862 35.4542C181.635 35.4542 185.555 36.9883 188.708 40.1417C191.862 43.2951 193.396 47.2155 193.396 52.0735C193.396 56.9315 191.862 60.9371 188.708 64.0053ZM170.214 60.0849C171.919 62.0451 174.134 63.0678 176.947 63.0678C179.759 63.0678 181.975 62.0451 183.68 60.0849C185.385 58.1246 186.237 55.4826 186.237 52.0735C186.237 48.7496 185.385 46.1076 183.68 44.1474C181.975 42.1871 179.76 41.1644 177.032 41.1644C174.22 41.1644 172.004 42.1019 170.299 44.0621C168.595 46.0224 167.742 48.6644 167.742 51.9883C167.657 55.3974 168.509 58.1246 170.214 60.0849Z" fill="#323232"/>
<path d="M209.76 68.778C203.282 68.778 200.044 65.2837 200.044 58.2951V42.1871H195.1V36.2212H200.214L201.833 26.8462H207.118V36.2212H219.731V42.1871H207.118V58.0394C207.118 60.9371 208.225 62.386 210.356 62.386C212.402 62.386 214.191 60.5962 215.811 56.9315L221.265 59.744C218.538 65.7951 214.703 68.778 209.76 68.778Z" fill="#323232"/>
<path d="M223.481 82.4996C220.328 82.4996 217.771 81.6474 215.725 79.8576L218.368 74.3178C219.646 75.7667 221.01 76.5337 222.458 76.5337C224.419 76.5337 225.441 75.2553 225.441 72.7837V36.2212H232.515V72.7837C232.515 76.1928 231.663 78.6644 229.958 80.1133C228.254 81.7326 226.123 82.4996 223.481 82.4996ZM228.936 30.8519C227.743 30.8519 226.635 30.4258 225.782 29.6587C225.356 29.2326 225.015 28.8065 224.845 28.2951C224.589 27.7837 224.504 27.1871 224.589 26.6758C224.589 26.0792 224.674 25.5678 224.93 25.0565C225.186 24.5451 225.441 24.0337 225.868 23.6928C226.72 22.9258 227.828 22.4996 229.021 22.4996C230.214 22.4996 231.322 22.9258 232.174 23.6928C232.601 24.119 232.941 24.5451 233.112 25.0565C233.368 25.5678 233.453 26.1644 233.453 26.6758C233.453 27.2724 233.368 27.7837 233.112 28.2951C232.856 28.8065 232.601 29.2326 232.174 29.6587C231.748 30.0849 231.237 30.3405 230.726 30.5962C230.129 30.7667 229.532 30.9371 228.936 30.8519Z" fill="#323232"/>
<path d="M249.987 68.7782C246.408 68.7782 243.425 67.8407 241.209 66.0509C238.993 64.2611 237.885 61.7895 237.885 58.8066C237.885 55.9941 239.078 53.693 241.379 51.7327C243.681 49.7725 246.664 48.835 250.158 48.835C253.737 48.835 256.806 50.0282 259.277 52.3293V48.4941C259.277 46.193 258.681 44.4884 257.573 43.21C256.379 41.9316 254.76 41.335 252.629 41.335C248.283 41.335 245.641 43.5509 244.618 47.8975L238.141 46.5339C238.993 43.1248 240.698 40.4827 243.34 38.5225C245.896 36.5623 249.135 35.5395 252.97 35.5395C257.146 35.5395 260.47 36.6475 262.857 38.8634C265.243 41.0793 266.521 44.318 266.521 48.4941V68.0111H259.618V64.0055C257.232 67.1589 254.078 68.7782 249.987 68.7782ZM251.351 63.4941C254.504 63.4941 257.146 61.96 259.362 58.8066V57.7839C257.146 55.1418 254.504 53.8634 251.351 53.8634C249.561 53.8634 248.027 54.2895 246.919 55.227C246.408 55.6532 245.982 56.1645 245.641 56.7611C245.385 57.3577 245.215 58.0395 245.215 58.7214C245.215 59.4032 245.3 60.085 245.641 60.6816C245.896 61.2782 246.323 61.7895 246.919 62.2157C247.942 63.068 249.476 63.4941 251.351 63.4941Z" fill="#323232"/>
<path d="M273.254 67.9258V36.2212H280.157V41.6758C281.862 37.6701 284.93 35.6246 289.192 35.6246C291.748 35.6246 293.794 36.4769 295.498 38.0962C297.203 39.7155 297.97 42.0167 297.97 44.744C297.97 46.4485 297.629 48.0678 297.118 49.6871L290.64 49.0053C290.811 48.153 290.896 47.3008 290.896 46.3633C290.896 43.1246 289.532 41.4201 286.805 41.4201C285.015 41.4201 283.396 42.3576 282.203 44.3178C280.925 46.278 280.328 48.8349 280.328 51.9883V67.7553H273.254V67.9258Z" fill="#323232"/>
<path d="M82.3445 41.0792C87.6286 38.1815 94.7877 34.1758 94.7877 22.4996H86.0093C86.0093 28.9769 82.8559 30.7667 77.9979 33.4087C72.7138 36.3065 65.5547 40.3121 65.5547 51.9883H74.2479C74.3331 45.511 77.4865 43.8065 82.3445 41.0792Z" fill="#FF3C00"/>
<path d="M97.4298 38.4371C97.4298 44.9144 94.2763 46.7042 89.4184 49.3462C84.1343 52.244 76.9752 56.2496 76.9752 67.9258H85.6684C85.6684 61.4485 88.8218 59.6587 93.6798 57.0167C98.9639 54.1189 106.123 50.1133 106.123 38.4371H97.4298Z" fill="#FF3C00"/>
</svg>
