<svg width="90" height="90" viewBox="0 0 90 90" fill="none" xmlns="http://www.w3.org/2000/svg">
<rect x="5" y="5" width="80" height="80" rx="8" fill="#FF3C00"/>
<path d="M41.4804 40.4503C47.2965 37.2608 55.1765 32.8518 55.1765 20H45.5141C45.5141 27.1295 42.0432 29.0994 36.6961 32.0075C30.88 35.197 23 39.606 23 52.4578H32.5685C32.6623 45.3283 36.1333 43.4522 41.4804 40.4503Z" fill="white"/>
<path d="M58.0845 37.5422C58.0845 44.6717 54.6135 46.6416 49.2664 49.5497C43.4503 52.7392 35.5703 57.1482 35.5703 70H45.1388C45.1388 62.8705 48.6098 60.9006 53.9569 57.9925C59.773 54.803 67.653 50.394 67.653 37.5422H58.0845Z" fill="white"/>
</svg>
