<svg width="90" height="90" viewBox="0 0 90 90" fill="none" xmlns="http://www.w3.org/2000/svg">
<rect x="5" y="5" width="80" height="80" rx="8" fill="url(#paint0_linear_806_7988)"/>
<path d="M51.75 54.7778H56.5278V35H51.75V54.7778ZM43.3611 49.1389C43.3611 49.8333 42.7778 50.4167 42.0833 50.4167H39.3056C38.6111 50.4167 38.0278 49.8333 38.0278 49.1389V41.1667H33.25V49.5278C33.25 52.9444 35.4444 54.75 38.6667 54.75H43.3333C46.3056 54.75 48.1111 52.6111 48.1111 49.5278V41.1667H43.3333C43.3611 41.1667 43.3611 48.8889 43.3611 49.1389ZM70.2222 41.1667V49.1389C70.2222 49.8333 69.6389 50.4167 68.9444 50.4167H66.1667C65.4722 50.4167 64.8889 49.8333 64.8889 49.1389V41.1667H60.1111V49.5278C60.1111 52.9444 62.3055 54.75 65.5278 54.75H70.1944C73.1667 54.75 74.9722 52.6111 74.9722 49.5278V41.1667H70.2222ZM24.4444 41.1667H21.3889C20.3056 41.1667 19.7778 41.4444 19.7778 41.4444V35H15V54.75H19.75V46.8056C19.75 46.1111 20.3333 45.5278 21.0278 45.5278H23.8056C24.5 45.5278 25.0833 46.1111 25.0833 46.8056V54.7778H29.8611V46.1667C29.8611 42.5556 27.4444 41.1667 24.4444 41.1667Z" fill="#1CE783"/>
<defs>
<linearGradient id="paint0_linear_806_7988" x1="7" y1="85" x2="82.5" y2="7" gradientUnits="userSpaceOnUse">
<stop stop-color="#04080B"/>
<stop offset="1" stop-color="#183545"/>
</linearGradient>
</defs>
</svg>
