<svg width="300" height="100" viewBox="0 0 300 100" fill="none" xmlns="http://www.w3.org/2000/svg">
<path d="M170.25 77.3333H184.583V18H170.25V77.3333ZM145.083 60.4167C145.083 62.5 143.333 64.25 141.25 64.25H132.917C130.833 64.25 129.083 62.5 129.083 60.4167V36.5H114.75V61.5833C114.75 71.8333 121.333 77.25 131 77.25H145C153.917 77.25 159.333 70.8333 159.333 61.5833V36.5H145C145.083 36.5 145.083 59.6667 145.083 60.4167ZM225.667 36.5V60.4167C225.667 62.5 223.917 64.25 221.833 64.25H213.5C211.417 64.25 209.667 62.5 209.667 60.4167V36.5H195.333V61.5833C195.333 71.8333 201.917 77.25 211.583 77.25H225.583C234.5 77.25 239.917 70.8333 239.917 61.5833V36.5H225.667ZM88.3333 36.5H79.1667C75.9167 36.5 74.3333 37.3333 74.3333 37.3333V18H60V77.25H74.25V53.4167C74.25 51.3333 76 49.5833 78.0833 49.5833H86.4167C88.5 49.5833 90.25 51.3333 90.25 53.4167V77.3333H104.583V51.5C104.583 40.6667 97.3333 36.5 88.3333 36.5Z" fill="#1CE783"/>
</svg>
