<svg width="90" height="90" viewBox="0 0 90 90" fill="none" xmlns="http://www.w3.org/2000/svg">
<path d="M15.6486 38.2692C15.3897 38.2668 15.1357 38.1982 14.9107 38.07L7.76084 33.9379C7.10012 33.5722 6.79087 32.7898 7.02298 32.0711C7.30749 31.2838 8.17511 30.8747 8.96356 31.1562C9.05005 31.1835 9.13208 31.2232 9.20706 31.2742L16.3643 35.4063C17.0667 35.8149 17.3418 36.6914 16.9989 37.4281C16.7419 37.9392 16.2207 38.2639 15.6486 38.2692ZM28.0078 25.8731C27.4704 25.8766 26.971 25.596 26.6944 25.1352L22.5698 17.9852C22.1762 17.3404 22.2971 16.5068 22.8575 16.0004C23.1595 15.7312 23.5587 15.5977 23.9618 15.6312C24.3649 15.6646 24.7366 15.8621 24.99 16.1774C25.0499 16.2468 25.1042 16.3208 25.1523 16.3988L29.277 23.5119C29.7009 24.2019 29.5281 25.1015 28.8785 25.5853C28.6242 25.7673 28.3205 25.8676 28.0078 25.8731ZM43.3775 19.734V11.6174C43.3635 10.7728 44.0109 10.0639 44.8533 10.0015C45.2595 9.98352 45.6558 10.1299 45.9529 10.4075C46.25 10.6851 46.4228 11.0707 46.4323 11.4772C46.4323 11.4772 46.4323 11.5215 46.4323 11.5436V19.8225C46.4323 20.662 45.7518 21.3425 44.9123 21.3425H44.8459C44.0093 21.2765 43.3672 20.5731 43.3775 19.734ZM61.7799 25.8731C61.4706 25.8747 61.1686 25.7792 60.9166 25.6C60.2668 25.1086 60.1003 24.2022 60.5329 23.5119L64.6576 16.3693C65.0784 15.6459 66.0029 15.3958 66.731 15.8085C66.8082 15.8578 66.8821 15.912 66.9523 15.9708C67.51 16.4788 67.6306 17.3103 67.2401 17.9557L63.108 25.1057C62.8363 25.5825 62.3287 25.8758 61.7799 25.8731ZM74.1391 38.2693C73.5777 38.2683 73.062 37.9595 72.7962 37.465C72.4338 36.7132 72.7222 35.8094 73.4529 35.4063L80.5511 31.3111C81.1885 30.9177 82.0163 31.0391 82.5139 31.5989C82.7848 31.8989 82.9207 32.2969 82.8901 32.6999C82.8594 33.103 82.6647 33.4758 82.3515 33.7313C82.2841 33.7936 82.2098 33.848 82.1302 33.8937L74.8991 38.07C74.6676 38.2019 74.4055 38.2706 74.1391 38.2693ZM25.6688 72.831C18.4912 65.6986 15.8693 55.1697 18.864 45.5042C21.8586 35.8386 29.9741 28.6365 39.9269 26.8116C49.8797 24.9868 60.0224 28.8413 66.2513 36.8156C66.7162 37.4059 67.1589 38.0257 67.5647 38.6455L65.0412 40.3131C64.6797 39.7597 64.3034 39.2137 63.868 38.6898C58.3487 31.5583 49.3167 28.0946 40.4442 29.707C31.5717 31.3195 24.3359 37.7395 21.6786 46.357C19.0213 54.9745 21.385 64.3546 27.8086 70.6838L25.6688 72.831ZM64.2739 80.7926H22.437C17.7755 80.7595 13.3186 78.8744 10.0481 75.5527C6.77757 72.2309 4.96194 67.7452 5.00061 63.0838H8.02647C7.98716 66.9434 9.48529 70.66 12.1902 73.4135C14.8952 76.1669 18.5846 77.7308 22.4443 77.76H64.2591C71.2718 77.7964 77.6453 73.6911 80.5123 67.2911C83.3793 60.8911 82.1995 53.4022 77.5038 48.1936L79.7174 46.1718C85.1744 52.2808 86.5331 61.0259 83.1867 68.5026C79.8404 75.9794 72.4136 80.7926 64.2222 80.7926H64.2739ZM8.02647 63.1207H5.00123C5.04173 54.5887 11.2185 47.3247 19.6331 45.9136L20.1348 48.865C13.1668 50.036 8.05449 56.0549 8.02647 63.1207ZM46.5135 59.8888H43.4809C43.5419 51.3083 48.8729 43.6485 56.8978 40.6107C64.9228 37.5729 73.9897 39.7825 79.7174 46.1718L77.5038 48.1936C72.6345 42.6723 64.8572 40.7393 57.9697 43.3386C51.0821 45.9378 46.521 52.5271 46.5135 59.8888Z" fill="url(#paint0_linear_897_5745)"/>
<defs>
<linearGradient id="paint0_linear_897_5745" x1="55.8306" y1="7.95036" x2="10.7386" y2="71.0789" gradientUnits="userSpaceOnUse">
<stop stop-color="#36E3DA"/>
<stop offset="1" stop-color="#0062FE"/>
</linearGradient>
</defs>
</svg>
