<svg width="300" height="100" viewBox="0 0 300 100" fill="none" xmlns="http://www.w3.org/2000/svg">
<path d="M113.033 65.2294V63.0383H116.102V45.6326H113.033V43.4497H121.765V45.6326H118.72V63.0711H121.765V65.2294H113.033ZM126.574 43.4169H135.543C139.137 43.4169 141.353 45.6326 141.353 49.0382C141.353 52.3208 139.26 53.4451 137.824 53.6666V53.8554C140.382 54.1068 142.276 56.3464 142.1 58.9105C142.1 62.5049 139.695 65.2294 136.479 65.2294H126.574V43.4169ZM129.191 52.9199H135.231C137.291 52.9199 138.514 51.8284 138.514 49.8917V48.8167C138.514 46.88 137.266 45.7885 135.231 45.7885H129.191V52.9199ZM129.191 62.9808H135.666C137.915 62.9808 139.285 61.7991 139.285 59.608V58.5412C139.285 56.3583 137.915 55.1684 135.666 55.1684H129.191V62.9808ZM163.945 46.8882H163.789L161.975 50.54L156.756 60.0429L151.537 50.54L149.666 46.921H149.51V65.2294H146.974V43.4497H150.413L156.666 55.2012H156.789L163.075 43.4497H166.514V65.2294H163.945V46.8882ZM177.075 54.5119C177.075 47.1262 180.858 43.0722 186.734 43.0722C190.73 43.0722 193.299 44.7135 194.891 48.2012L190.788 50.3184C190.371 48.4241 188.618 47.13 186.685 47.2903C183.911 47.2903 182.064 49.1695 182.064 52.5998V56.1039C182.064 59.5424 183.911 61.4134 186.685 61.4134C188.71 61.4307 190.495 60.0839 191.034 58.1309L194.907 60.3876C193.266 63.6701 190.689 65.6071 186.701 65.6071C180.891 65.6397 177.108 61.8894 177.108 54.5119H177.075ZM202.638 65.2294C199.486 65.2294 198.05 63.6373 198.05 60.7241V42.1367H202.67V61.6678H204.738V65.2294H202.638ZM206.486 57.023C206.486 51.7463 209.359 48.4638 214.176 48.4638C218.993 48.4638 221.865 51.7463 221.865 57.023C221.865 62.2997 218.993 65.6233 214.176 65.6233C209.359 65.6233 206.486 62.3243 206.486 57.023ZM217.048 55.3817C217.048 53.3138 215.989 52.0992 214.176 52.0992C212.362 52.0992 211.303 53.2809 211.303 55.3817V58.7217C211.303 60.7897 212.362 62.0043 214.176 62.0043C215.989 62.0043 217.048 60.7897 217.048 58.7299V55.3817ZM234.831 62.4966H234.675C234.063 64.4855 232.154 65.7844 230.079 65.6233C226.739 65.6233 224.959 63.2762 224.959 59.1485V48.8577H229.579V58.7628C229.579 60.7651 230.235 61.8894 231.926 61.8894C233.362 61.8894 234.831 61.0687 234.831 59.5095V48.8413H239.459V65.254H234.831V62.4966ZM253.837 62.4966H253.681C253.076 64.4069 251.277 65.6836 249.274 65.6233C245.113 65.6233 242.963 62.5869 242.963 57.023C242.963 51.4591 245.122 48.4638 249.274 48.4638C251.281 48.3892 253.088 49.6714 253.681 51.5904H253.837V42.1367H258.465V65.2294H253.837V62.4966ZM253.837 54.6186C253.837 53.1168 252.556 52.2141 250.808 52.2141C249.061 52.2141 247.772 53.5517 247.772 55.6197V58.4591C247.772 60.5271 249.052 61.873 250.808 61.873C252.565 61.873 253.837 60.9785 253.837 59.4849V54.6186Z" fill="#000008"/>
<path d="M49.5326 45.3548C49.3494 45.3531 49.1698 45.3046 49.0106 45.2139L43.953 42.291C43.4856 42.0323 43.2668 41.4788 43.431 40.9705C43.6323 40.4135 44.246 40.1241 44.8037 40.3232C44.8649 40.3425 44.9229 40.3707 44.976 40.4067L50.0388 43.3297C50.5357 43.6187 50.7303 44.2387 50.4877 44.7598C50.3059 45.1214 49.9373 45.351 49.5326 45.3548ZM58.2752 36.5861C57.895 36.5886 57.5417 36.3901 57.3461 36.0641L54.4284 31.0064C54.15 30.5503 54.2355 29.9607 54.632 29.6024C54.8456 29.412 55.1279 29.3176 55.4131 29.3412C55.6982 29.3649 55.9612 29.5046 56.1404 29.7277C56.1828 29.7767 56.2212 29.8291 56.2552 29.8843L59.1729 34.9158C59.4728 35.404 59.3505 36.0403 58.8911 36.3825C58.7112 36.5113 58.4964 36.5822 58.2752 36.5861ZM69.1473 32.2435V26.502C69.1374 25.9046 69.5953 25.4031 70.1912 25.359C70.4786 25.3462 70.7589 25.4498 70.9691 25.6462C71.1792 25.8426 71.3014 26.1153 71.3082 26.4029C71.3082 26.4029 71.3082 26.4342 71.3082 26.4498V32.3061C71.3082 32.8999 70.8268 33.3813 70.233 33.3813H70.186C69.5942 33.3346 69.14 32.8371 69.1473 32.2435ZM82.1647 36.5861C81.9459 36.5873 81.7323 36.5197 81.554 36.393C81.0944 36.0453 80.9766 35.4041 81.2826 34.9158L84.2003 29.8634C84.4979 29.3517 85.1519 29.1748 85.6669 29.4667C85.7216 29.5015 85.7739 29.5399 85.8235 29.5815C86.218 29.9408 86.3033 30.529 86.0271 30.9856L83.1042 36.0433C82.912 36.3805 82.5529 36.588 82.1647 36.5861ZM90.9073 45.3548C90.5101 45.3542 90.1454 45.1357 89.9573 44.7859C89.701 44.2541 89.905 43.6148 90.4219 43.3297L95.443 40.4328C95.8938 40.1545 96.4794 40.2404 96.8314 40.6364C97.023 40.8486 97.1192 41.1301 97.0975 41.4152C97.0758 41.7004 96.9381 41.9641 96.7165 42.1448C96.6688 42.1889 96.6163 42.2274 96.56 42.2597L91.4449 45.2139C91.2811 45.3072 91.0957 45.3558 90.9073 45.3548ZM56.6206 69.8029C51.5433 64.7576 49.6887 57.3097 51.807 50.4726C53.9254 43.6355 59.6661 38.5409 66.7064 37.25C73.7468 35.9592 80.9215 38.6857 85.3277 44.3266C85.6565 44.7441 85.9697 45.1826 86.2567 45.621L84.4717 46.8006C84.2159 46.4092 83.9497 46.0229 83.6418 45.6523C79.7375 40.6077 73.3485 38.1576 67.0723 39.2982C60.7961 40.4387 55.6777 44.9801 53.798 51.0759C51.9183 57.1717 53.5903 63.8069 58.1342 68.284L56.6206 69.8029ZM83.9288 75.4347H54.3345C51.0371 75.4113 47.8843 74.0778 45.5709 71.7281C43.2574 69.3784 41.9731 66.2053 42.0004 62.908H44.1409C44.113 65.6382 45.1728 68.2672 47.0862 70.2149C48.9996 72.1626 51.6094 73.2689 54.3397 73.2895H83.9184C88.879 73.3153 93.3875 70.4113 95.4155 65.8841C97.4435 61.3569 96.609 56.0595 93.2874 52.375L94.8532 50.9449C98.7134 55.2662 99.6744 61.4523 97.3073 66.7411C94.9402 72.03 89.6867 75.4347 83.8923 75.4347H83.9288ZM44.1409 62.9341H42.0009C42.0295 56.8988 46.3988 51.7604 52.3511 50.7622L52.706 52.85C47.777 53.6783 44.1607 57.9359 44.1409 62.9341ZM71.3656 60.6479H69.2204C69.2636 54.5783 73.0346 49.1599 78.7112 47.0111C84.3879 44.8623 90.8016 46.4253 94.8532 50.9449L93.2874 52.375C89.8429 48.4694 84.3415 47.1021 79.4694 48.9407C74.5974 50.7794 71.3709 55.4404 71.3656 60.6479Z" fill="url(#paint0_linear_897_5747)"/>
<defs>
<linearGradient id="paint0_linear_897_5747" x1="77.9563" y1="23.9081" x2="46.0594" y2="68.5636" gradientUnits="userSpaceOnUse">
<stop stop-color="#36E3DA"/>
<stop offset="1" stop-color="#0062FE"/>
</linearGradient>
</defs>
</svg>
