<svg width="90" height="90" viewBox="0 0 90 90" fill="none" xmlns="http://www.w3.org/2000/svg">
<path d="M50.8732 19C47.0212 19.0078 43.2408 20.0407 39.92 21.9927C36.5992 23.9447 33.8578 26.7454 31.9772 30.1072C30.3586 29.319 28.5823 28.9081 26.7819 28.9056C23.9601 28.913 21.2327 29.9225 19.0861 31.7541C16.9395 33.5857 15.5133 36.1203 15.0618 38.9058C12.0811 40.1539 9.53578 42.2551 7.74558 44.9454C5.95538 47.6356 5.00018 50.795 5 54.0265C5.00421 58.373 6.7343 62.5399 9.80992 65.6111C12.8855 68.6823 17.0549 70.4064 21.4013 70.4043C22.0891 70.3981 22.7759 70.3486 23.4575 70.2561H69.0297C69.2691 70.2734 69.5088 70.285 69.7486 70.2909C69.9772 70.2844 70.2056 70.2728 70.4337 70.2561H71.525V70.175C75.2356 69.7361 78.6569 67.9447 81.1405 65.1402C83.6241 62.3357 84.9974 58.7132 85 54.9592V54.9297C84.9914 51.3645 83.7464 47.9137 81.4793 45.1711C79.2121 42.4285 76.0646 40.5655 72.5781 39.9027C72.3711 34.286 69.9932 28.9688 65.9448 25.0701C61.8965 21.1714 56.4936 18.9954 50.8732 19Z" fill="url(#paint0_linear_825_4080)"/>
<defs>
<linearGradient id="paint0_linear_825_4080" x1="85.2429" y1="55.0007" x2="4.97045" y2="53.8935" gradientUnits="userSpaceOnUse">
<stop stop-color="#3E82F4"/>
<stop offset="1" stop-color="#93DCF7"/>
</linearGradient>
</defs>
</svg>
