<svg width="300" height="100" viewBox="0 0 300 100" fill="none" xmlns="http://www.w3.org/2000/svg">
<path d="M91.1002 23.7232C87.4277 23.7306 83.8232 24.7154 80.6571 26.5764C77.4909 28.4375 74.8772 31.1077 73.0842 34.3129C71.541 33.5614 69.8473 33.1697 68.1308 33.1673C65.4404 33.1743 62.84 34.1368 60.7934 35.8831C58.7468 37.6294 57.387 40.0459 56.9565 42.7016C54.1147 43.8916 51.6878 45.8949 49.981 48.4598C48.2742 51.0248 47.3634 54.037 47.3633 57.1179C47.3673 61.2619 49.0168 65.2347 51.9492 68.1628C54.8816 71.091 58.8568 72.7347 63.0008 72.7327C63.6566 72.7268 64.3114 72.6796 64.9612 72.5914H108.411C108.639 72.6079 108.868 72.6189 109.097 72.6246C109.315 72.6184 109.532 72.6074 109.75 72.5914H110.79V72.5141C114.328 72.0957 117.59 70.3877 119.958 67.7139C122.326 65.04 123.635 61.5862 123.638 58.0071V57.9791C123.63 54.5799 122.443 51.2899 120.281 48.675C118.119 46.0602 115.118 44.284 111.794 43.652C111.597 38.2971 109.33 33.2275 105.47 29.5105C101.61 25.7934 96.4588 23.7187 91.1002 23.7232Z" fill="url(#paint0_linear_825_4082)"/>
<path d="M136.268 67.1873V44.1984H140.743V67.1873H136.268ZM138.528 40.6512C137.75 40.6512 137.081 40.3918 136.522 39.873C135.974 39.3441 135.699 38.7155 135.699 37.9872C135.699 37.2488 135.974 36.6202 136.522 36.1013C137.081 35.5725 137.75 35.3081 138.528 35.3081C139.306 35.3081 139.97 35.5725 140.519 36.1013C141.077 36.6202 141.357 37.2488 141.357 37.9872C141.357 38.7155 141.077 39.3441 140.519 39.873C139.97 40.3918 139.306 40.6512 138.528 40.6512Z" fill="#000008"/>
<path d="M171.924 46.5032H167.255C167.075 45.5054 166.741 44.6274 166.252 43.8691C165.763 43.1108 165.164 42.4672 164.456 41.9384C163.748 41.4095 162.954 41.0104 162.076 40.741C161.208 40.4716 160.285 40.3369 159.307 40.3369C157.541 40.3369 155.96 40.7809 154.563 41.669C153.176 42.557 152.078 43.8591 151.27 45.5753C150.472 47.2915 150.073 49.3868 150.073 51.8613C150.073 54.3558 150.472 56.4611 151.27 58.1773C152.078 59.8935 153.181 61.1906 154.578 62.0686C155.975 62.9467 157.546 63.3857 159.292 63.3857C160.26 63.3857 161.178 63.256 162.046 62.9966C162.924 62.7272 163.718 62.3331 164.426 61.8142C165.134 61.2954 165.733 60.6618 166.222 59.9134C166.721 59.1551 167.065 58.287 167.255 57.3092L171.924 57.3242C171.675 58.8308 171.191 60.2178 170.473 61.4849C169.764 62.7421 168.851 63.8297 167.734 64.7477C166.626 65.6557 165.359 66.3591 163.932 66.858C162.505 67.3569 160.949 67.6063 159.263 67.6063C156.608 67.6063 154.244 66.9777 152.168 65.7205C150.093 64.4533 148.457 62.6424 147.259 60.2876C146.072 57.9328 145.478 55.1241 145.478 51.8613C145.478 48.5886 146.077 45.7798 147.274 43.435C148.471 41.0803 150.108 39.2743 152.183 38.0171C154.259 36.7499 156.618 36.1163 159.263 36.1163C160.889 36.1163 162.406 36.3508 163.812 36.8197C165.229 37.2787 166.501 37.9572 167.629 38.8552C168.756 39.7433 169.689 40.8308 170.428 42.118C171.166 43.3951 171.665 44.8569 171.924 46.5032Z" fill="#000008"/>
<path d="M180.898 36.5354V67.1873H176.423V36.5354H180.898Z" fill="#000008"/>
<path d="M194.685 67.6512C192.529 67.6512 190.649 67.1573 189.042 66.1695C187.436 65.1817 186.188 63.7998 185.3 62.0237C184.412 60.2477 183.968 58.1723 183.968 55.7976C183.968 53.4129 184.412 51.3275 185.3 49.5415C186.188 47.7554 187.436 46.3685 189.042 45.3807C190.649 44.3929 192.529 43.899 194.685 43.899C196.84 43.899 198.721 44.3929 200.327 45.3807C201.934 46.3685 203.181 47.7554 204.069 49.5415C204.957 51.3275 205.401 53.4129 205.401 55.7976C205.401 58.1723 204.957 60.2477 204.069 62.0237C203.181 63.7998 201.934 65.1817 200.327 66.1695C198.721 67.1573 196.84 67.6512 194.685 67.6512ZM194.7 63.8946C196.096 63.8946 197.254 63.5254 198.172 62.7871C199.09 62.0487 199.768 61.0659 200.207 59.8386C200.656 58.6113 200.881 57.2593 200.881 55.7826C200.881 54.3159 200.656 52.9689 200.207 51.7416C199.768 50.5043 199.09 49.5115 198.172 48.7632C197.254 48.0149 196.096 47.6407 194.7 47.6407C193.293 47.6407 192.125 48.0149 191.197 48.7632C190.279 49.5115 189.596 50.5043 189.147 51.7416C188.708 52.9689 188.488 54.3159 188.488 55.7826C188.488 57.2593 188.708 58.6113 189.147 59.8386C189.596 61.0659 190.279 62.0487 191.197 62.7871C192.125 63.5254 193.293 63.8946 194.7 63.8946Z" fill="#000008"/>
<path d="M223.042 57.6535V44.1984H227.532V67.1873H223.132V63.2061H222.892C222.363 64.4334 221.515 65.4561 220.348 66.2743C219.19 67.0825 217.749 67.4866 216.022 67.4866C214.546 67.4866 213.239 67.1623 212.101 66.5138C210.974 65.8552 210.086 64.8824 209.437 63.5953C208.798 62.3081 208.479 60.7167 208.479 58.8209V44.1984H212.954V58.2821C212.954 59.8486 213.388 61.0958 214.256 62.0237C215.124 62.9517 216.252 63.4157 217.639 63.4157C218.477 63.4157 219.31 63.2061 220.138 62.7871C220.976 62.368 221.67 61.7344 222.219 60.8863C222.777 60.0382 223.052 58.9606 223.042 57.6535Z" fill="#000008"/>
<path d="M240.234 67.6363C238.378 67.6363 236.722 67.1623 235.265 66.2144C233.818 65.2566 232.681 63.8946 231.852 62.1285C231.034 60.3525 230.625 58.2222 230.625 55.7377C230.625 53.2532 231.039 51.128 231.867 49.3619C232.705 47.5958 233.853 46.2438 235.31 45.3059C236.766 44.368 238.418 43.899 240.264 43.899C241.69 43.899 242.838 44.1385 243.706 44.6174C244.584 45.0864 245.263 45.6352 245.741 46.2638C246.23 46.8924 246.61 47.4461 246.879 47.9251H247.148V36.5354H251.623V67.1873H247.253V63.6102H246.879C246.61 64.0991 246.22 64.6579 245.712 65.2865C245.213 65.9151 244.524 66.4639 243.646 66.9328C242.768 67.4018 241.631 67.6363 240.234 67.6363ZM241.222 63.8198C242.509 63.8198 243.596 63.4805 244.484 62.802C245.382 62.1135 246.061 61.1607 246.52 59.9434C246.989 58.7261 247.223 57.3092 247.223 55.6928C247.223 54.0964 246.994 52.6995 246.535 51.5021C246.076 50.3048 245.402 49.3719 244.514 48.7033C243.626 48.0348 242.529 47.7006 241.222 47.7006C239.875 47.7006 238.752 48.0498 237.854 48.7482C236.956 49.4467 236.278 50.3996 235.819 51.6069C235.37 52.8142 235.145 54.1762 235.145 55.6928C235.145 57.2294 235.375 58.6113 235.834 59.8386C236.292 61.0659 236.971 62.0387 237.869 62.7571C238.777 63.4655 239.894 63.8198 241.222 63.8198Z" fill="#000008"/>
<defs>
<linearGradient id="paint0_linear_825_4082" x1="123.869" y1="58.0467" x2="47.3351" y2="56.9911" gradientUnits="userSpaceOnUse">
<stop stop-color="#3E82F4"/>
<stop offset="1" stop-color="#93DCF7"/>
</linearGradient>
</defs>
</svg>
