<svg width="300" height="100" viewBox="0 0 300 100" fill="none" xmlns="http://www.w3.org/2000/svg">
<path d="M85.1385 21H45.3969C39.3787 21 34.5 25.8789 34.5 31.8974V70.1026C34.5 76.1211 39.3787 81 45.3969 81H85.1385C91.1567 81 96.0354 76.1211 96.0354 70.1026V31.8974C96.0354 25.8789 91.1567 21 85.1385 21Z" fill="#330000"/>
<path d="M64.3197 57.01H54.7841L52.844 63.0372C52.8175 63.1471 52.7536 63.2443 52.6631 63.3121C52.5727 63.38 52.4615 63.4141 52.3486 63.4087H47.5188C47.2434 63.4087 47.1471 63.2574 47.2299 62.9546L55.4858 39.1761C55.5684 38.9285 55.651 38.6464 55.7336 38.3298C55.8415 37.7791 55.8968 37.2192 55.8987 36.658C55.8931 36.6187 55.8967 36.5787 55.9092 36.5411C55.9218 36.5035 55.9429 36.4693 55.9709 36.4413C55.999 36.4132 56.0331 36.3921 56.0708 36.3795C56.1084 36.367 56.1484 36.3634 56.1876 36.369H62.7511C62.9434 36.369 63.0534 36.4378 63.0813 36.5754L72.452 62.9959C72.5345 63.2713 72.4519 63.4089 72.2042 63.4087H66.8378C66.7456 63.4189 66.6529 63.3952 66.5769 63.3421C66.501 63.2889 66.447 63.2099 66.425 63.1198L64.3197 57.01ZM56.2701 51.8085H62.7924C62.6273 51.2583 62.4346 50.639 62.2145 49.9508C61.9939 49.2632 61.76 48.527 61.5128 47.7422C61.265 46.9578 61.0173 46.1735 60.7696 45.3891C60.522 44.6048 60.295 43.8479 60.0886 43.1186C59.8821 42.3897 59.6964 41.7223 59.5313 41.1164H59.49C59.2576 42.2313 58.9683 43.3336 58.6232 44.419C58.2375 45.6574 57.8453 46.9234 57.4466 48.2169C57.0474 49.5109 56.6552 50.708 56.2701 51.8085Z" fill="#FF9A00"/>
<path d="M78.0322 40.7448C77.6112 40.7617 77.1913 40.6895 76.8001 40.533C76.4088 40.3765 76.055 40.1392 75.7618 39.8366C75.4694 39.5208 75.2423 39.1504 75.0935 38.7466C74.9447 38.3427 74.8772 37.9135 74.8948 37.4835C74.8798 37.0577 74.9548 36.6336 75.1149 36.2388C75.2749 35.844 75.5164 35.4874 75.8237 35.1923C76.1279 34.9003 76.487 34.6714 76.8803 34.5191C77.2736 34.3668 77.6931 34.2939 78.1147 34.3048C79.1055 34.3048 79.8829 34.6006 80.4471 35.1923C80.7318 35.4998 80.9531 35.8605 81.0983 36.2536C81.2435 36.6468 81.3098 37.0647 81.2933 37.4835C81.3105 37.9152 81.2408 38.3459 81.0884 38.7501C80.9359 39.1543 80.7038 39.5238 80.4058 39.8366C80.0943 40.1436 79.7226 40.3828 79.3141 40.5392C78.9056 40.6955 78.4691 40.7655 78.0322 40.7448ZM75.1838 62.9957V43.2629C75.1838 43.0153 75.2935 42.8914 75.5141 42.8914H80.5915C80.8115 42.8914 80.9216 43.0152 80.9218 43.2629V62.9957C80.9218 63.2712 80.8117 63.4088 80.5915 63.4086H75.5554C75.3077 63.4086 75.1839 63.271 75.1838 62.9957Z" fill="#FF9A00"/>
<path d="M118.642 40.9587V64.666C118.642 64.9253 118.568 64.9994 118.346 64.9994H114.456C114.234 64.9994 114.16 64.8883 114.16 64.666V40.9587C114.16 40.6994 114.271 40.6623 114.456 40.6623H118.346C118.568 40.6623 118.642 40.7364 118.642 40.9587Z" fill="#000008"/>
<path d="M123.52 60.5913V38.9213C123.52 38.7361 123.631 38.625 123.853 38.625H127.669C127.891 38.625 128.002 38.7361 128.002 38.9213V60.1839C128.002 61.3322 128.409 61.7026 129.298 61.7026C129.595 61.7026 129.669 61.7026 130.002 61.6656C130.113 61.6285 130.15 61.7026 130.15 61.8878V64.666C130.15 64.9253 130.113 64.9624 129.928 65.0735C129.521 65.2587 128.854 65.3698 127.817 65.3698C125.446 65.3698 123.52 64.4808 123.52 60.5913Z" fill="#000008"/>
<path d="M133.323 60.5913V38.9213C133.323 38.7361 133.434 38.625 133.656 38.625H137.472C137.694 38.625 137.805 38.7361 137.805 38.9213V60.1839C137.805 61.3322 138.213 61.7026 139.102 61.7026C139.398 61.7026 139.472 61.7026 139.806 61.6656C139.917 61.6285 139.954 61.7026 139.954 61.8878V64.666C139.954 64.9253 139.917 64.9624 139.732 65.0735C139.324 65.2587 138.657 65.3698 137.62 65.3698C135.249 65.3698 133.323 64.4808 133.323 60.5913Z" fill="#000008"/>
<path d="M158.321 46.9967V60.9247C158.321 62.8509 158.469 63.9622 158.543 64.7401C158.58 64.9253 158.469 64.9994 158.247 64.9994H154.839C154.58 64.9994 154.505 64.9253 154.468 64.7772C154.357 64.4067 154.246 63.8511 154.209 63.4807C152.616 64.9624 150.727 65.3698 149.06 65.3698C145.541 65.3698 142.837 63.4807 142.837 58.2947V46.9967C142.837 46.7744 142.911 46.7374 143.133 46.7374H147.023C147.245 46.7374 147.282 46.8114 147.282 46.9967V57.7761C147.282 60.0727 148.282 61.4804 150.505 61.4804C151.912 61.4804 152.95 60.9988 153.876 60.1468V46.9967C153.876 46.8114 153.95 46.7374 154.172 46.7374H158.062C158.284 46.7374 158.321 46.8114 158.321 46.9967Z" fill="#000008"/>
<path d="M173.643 51.0343C172.495 50.4046 170.643 49.9601 169.013 49.9601C167.05 49.9601 166.383 50.775 166.383 51.5529C166.383 52.3679 166.939 52.9235 169.309 53.8496C173.532 55.4054 174.977 57.0723 174.977 59.7023C174.977 63.1843 172.236 65.3698 167.679 65.3698C165.494 65.3698 163.568 64.9624 162.456 64.3326C162.271 64.2215 162.197 64.1474 162.197 63.9252V60.4061C162.197 60.2209 162.345 60.1468 162.493 60.2209C164.086 61.2581 166.124 61.7026 167.79 61.7026C169.717 61.7026 170.643 61.0358 170.643 60.0727C170.643 59.1467 169.939 58.554 167.642 57.6279C163.605 56.1462 162.16 54.4793 162.16 51.8122C162.16 48.997 164.457 46.3669 169.087 46.3669C171.235 46.3669 172.865 46.6633 173.754 47.1078C173.94 47.2189 173.977 47.3671 173.977 47.5523V50.8121C173.977 50.9973 173.866 51.1084 173.643 51.0343Z" fill="#000008"/>
<path d="M187.245 61.7397V64.4067C187.245 64.629 187.208 64.7772 187.022 64.8512C186.022 65.2217 185.096 65.3698 183.874 65.3698C180.836 65.3698 179.021 63.8881 179.021 60.2209V50.4787H176.687C176.502 50.4416 176.428 50.3675 176.428 50.1453V47.0337C176.428 46.8114 176.502 46.7374 176.724 46.7374H179.058C179.095 45.4409 179.243 43.1072 179.429 42.1811C179.466 41.9959 179.54 41.8848 179.725 41.8477L183.466 41.3291C183.651 41.2921 183.726 41.3291 183.726 41.5143C183.614 42.7367 183.54 44.9223 183.54 46.7374H187.133C187.319 46.7374 187.393 46.8114 187.393 46.9967V50.2194C187.393 50.4046 187.319 50.4787 187.133 50.4787H183.503V59.2578C183.503 60.8877 184.022 61.6656 185.615 61.6656C186.096 61.6656 186.504 61.6285 187.022 61.5174C187.133 61.4804 187.245 61.5174 187.245 61.7397Z" fill="#000008"/>
<path d="M190.444 46.7374H193.926C194.148 46.7374 194.259 46.8114 194.333 47.0337C194.518 47.5153 194.666 48.4413 194.703 49.2563C195.963 47.7005 198.074 46.3669 200.63 46.3669C200.853 46.3669 200.927 46.404 200.927 46.6262V50.5528C200.927 50.738 200.853 50.8121 200.593 50.8121C197.963 50.738 195.778 51.664 194.926 52.7753V64.7031C194.926 64.9253 194.815 64.9994 194.592 64.9994H190.74C190.481 64.9994 190.407 64.8883 190.407 64.7031V51.9233C190.407 50.3305 190.369 48.182 190.221 46.9596C190.221 46.7744 190.258 46.7374 190.444 46.7374Z" fill="#000008"/>
<path d="M212.512 61.4063V56.85C211.956 56.7759 211.326 56.7389 210.474 56.7389C207.548 56.7389 206.252 57.702 206.252 59.2948C206.252 60.6654 207.215 61.8508 209.882 61.8508C210.845 61.8508 211.697 61.7397 212.512 61.4063ZM216.846 53.7014V61.2211C216.846 62.036 216.846 62.7769 216.92 63.5548C216.92 63.6288 216.92 63.6659 216.846 63.7029C213.808 64.9994 211.66 65.3698 209.141 65.3698C205.103 65.3698 201.881 63.4807 201.881 59.2948C201.881 55.3683 205.4 53.405 210.215 53.405C211.326 53.405 212.178 53.4421 212.512 53.4791V53.0346C212.512 52.1826 212.03 50.2564 208.77 50.2564C206.918 50.2564 205.288 50.6268 203.918 51.2936C203.807 51.3307 203.622 51.2936 203.622 51.0714V47.8486C203.622 47.6634 203.659 47.5893 203.844 47.4782C205.437 46.7374 207.474 46.3669 209.474 46.3669C214.623 46.3669 216.846 49.5896 216.846 53.7014Z" fill="#000008"/>
<path d="M229.967 61.7397V64.4067C229.967 64.629 229.93 64.7772 229.744 64.8512C228.744 65.2217 227.818 65.3698 226.596 65.3698C223.558 65.3698 221.743 63.8881 221.743 60.2209V50.4787H219.41C219.224 50.4416 219.15 50.3675 219.15 50.1453V47.0337C219.15 46.8114 219.224 46.7374 219.447 46.7374H221.78C221.817 45.4409 221.965 43.1072 222.151 42.1811C222.188 41.9959 222.262 41.8848 222.447 41.8477L226.188 41.3291C226.374 41.2921 226.448 41.3291 226.448 41.5143C226.337 42.7367 226.262 44.9223 226.262 46.7374H229.856C230.041 46.7374 230.115 46.8114 230.115 46.9967V50.2194C230.115 50.4046 230.041 50.4787 229.856 50.4787H226.225V59.2578C226.225 60.8877 226.744 61.6656 228.337 61.6656C228.818 61.6656 229.226 61.6285 229.744 61.5174C229.856 61.4804 229.967 61.5174 229.967 61.7397Z" fill="#000008"/>
<path d="M240.873 46.3669C246.578 46.3669 249.689 50.7009 249.689 55.7758C249.689 61.5174 246.022 65.3698 240.799 65.3698C234.613 65.3698 231.872 60.5913 231.872 55.8869C231.872 50.6268 235.317 46.3669 240.873 46.3669ZM240.651 50.1082C238.169 50.1082 236.391 52.2938 236.391 55.8128C236.391 59.2208 238.058 61.5915 240.873 61.5915C243.17 61.5915 245.133 59.7023 245.133 55.8869C245.133 52.8124 243.8 50.1082 240.651 50.1082Z" fill="#000008"/>
<path d="M253.206 46.7374H256.688C256.911 46.7374 257.022 46.8114 257.096 47.0337C257.281 47.5153 257.429 48.4413 257.466 49.2563C258.726 47.7005 260.837 46.3669 263.393 46.3669C263.615 46.3669 263.689 46.404 263.689 46.6262V50.5528C263.689 50.738 263.615 50.8121 263.356 50.8121C260.726 50.738 258.541 51.664 257.689 52.7753V64.7031C257.689 64.9253 257.577 64.9994 257.355 64.9994H253.503C253.243 64.9994 253.169 64.8883 253.169 64.7031V51.9233C253.169 50.3305 253.132 48.182 252.984 46.9596C252.984 46.7744 253.021 46.7374 253.206 46.7374Z" fill="#000008"/>
</svg>
