<svg width="90" height="90" viewBox="0 0 90 90" fill="none" xmlns="http://www.w3.org/2000/svg">
<path d="M70.8333 6H19.1667C11.3426 6 5 12.343 5 20.1674V69.8368C5 77.6612 11.3426 84.0042 19.1667 84.0042H70.8333C78.6574 84.0042 85 77.6612 85 69.8368V20.1674C85 12.343 78.6574 6 70.8333 6Z" fill="#330000"/>
<path d="M43.765 52.8143H31.3681L28.8458 60.6501C28.8114 60.793 28.7282 60.9194 28.6107 61.0076C28.4931 61.0958 28.3485 61.1402 28.2017 61.1331H21.9227C21.5647 61.1331 21.4394 60.9364 21.5471 60.5428L32.2803 29.6291C32.3877 29.3071 32.4951 28.9404 32.6024 28.5289C32.7428 27.8128 32.8147 27.085 32.8171 26.3553C32.8098 26.3043 32.8145 26.2523 32.8308 26.2033C32.8471 26.1544 32.8746 26.11 32.911 26.0735C32.9475 26.0371 32.9919 26.0096 33.0408 25.9933C33.0897 25.977 33.1417 25.9723 33.1928 25.9796H41.7256C41.9756 25.9796 42.1188 26.069 42.155 26.248L54.3375 60.5964C54.4447 60.9545 54.3373 61.1334 54.0154 61.1331H47.0386C46.9188 61.1464 46.7983 61.1156 46.6995 61.0465C46.6007 60.9773 46.5305 60.8746 46.502 60.7575L43.765 52.8143ZM33.3 46.052H41.7794C41.5647 45.3367 41.3142 44.5317 41.0281 43.6368C40.7413 42.7429 40.4372 41.7858 40.1158 40.7655C39.7937 39.7458 39.4716 38.7261 39.1496 37.7063C38.8277 36.6867 38.5326 35.7027 38.2642 34.7545C37.9958 33.807 37.7544 32.9393 37.5398 32.1516H37.4861C37.1839 33.6011 36.8078 35.0341 36.3591 36.4451C35.8576 38.0552 35.3478 39.7011 34.8295 41.3827C34.3105 43.0649 33.8006 44.6214 33.3 46.052Z" fill="#FF9A00"/>
<path d="M61.5912 31.6687C61.0438 31.6907 60.498 31.5969 59.9893 31.3934C59.4807 31.19 59.0207 30.8814 58.6395 30.488C58.2593 30.0775 57.9641 29.5959 57.7706 29.0709C57.5772 28.5459 57.4894 27.9879 57.5124 27.4288C57.4929 26.8753 57.5904 26.324 57.7984 25.8107C58.0065 25.2974 58.3205 24.8338 58.7199 24.4502C59.1155 24.0705 59.5824 23.773 60.0936 23.5749C60.6049 23.3769 61.1503 23.2822 61.6984 23.2963C62.9865 23.2963 63.9973 23.6809 64.7307 24.4502C65.1009 24.8499 65.3886 25.3188 65.5774 25.8299C65.7661 26.3411 65.8522 26.8844 65.8308 27.4288C65.8532 27.9901 65.7626 28.5501 65.5644 29.0756C65.3662 29.6011 65.0644 30.0814 64.6769 30.488C64.272 30.8872 63.7887 31.1982 63.2577 31.4014C62.7266 31.6046 62.1592 31.6957 61.5912 31.6687ZM57.8881 60.5966V34.9425C57.8881 34.6206 58.0306 34.4595 58.3174 34.4595H64.9185C65.2045 34.4595 65.3476 34.6205 65.3478 34.9425V60.5966C65.3478 60.9547 65.2047 61.1336 64.9185 61.1333H58.3711C58.0492 61.1333 57.8882 60.9544 57.8881 60.5966Z" fill="#FF9A00"/>
</svg>
