<svg width="300" height="100" viewBox="0 0 300 100" fill="none" xmlns="http://www.w3.org/2000/svg">
<path d="M73.7084 27.1683C70.2452 28.618 66.438 32.7134 65.2356 37.8541C63.7128 44.3676 70.0499 47.1219 70.5696 46.2188C71.1814 45.1576 69.4341 44.7988 69.0744 41.4193C68.6096 37.0544 70.6388 32.1771 73.1926 30.0371C73.6673 29.6395 73.6448 30.1929 73.6448 31.2165C73.6448 33.0469 73.5436 49.4787 73.5436 52.908C73.5436 57.5483 73.352 59.0136 73.0077 60.4615C72.659 61.9289 72.0983 62.9203 72.5231 63.3022C72.9978 63.7294 75.0246 62.7133 76.1979 61.0757C77.6049 59.1116 78.0974 56.7529 78.1858 54.1914C78.2926 51.1036 78.2881 46.2038 78.2926 43.409C78.2969 40.8458 78.3358 33.3401 78.2477 28.8279C78.2261 27.7212 75.1567 26.5601 73.7083 27.167M196.686 48.8846C196.574 51.297 196.04 53.1826 195.378 54.5126C194.095 57.0874 191.432 57.8869 190.302 54.1855C189.686 52.1679 189.657 48.7982 190.1 45.9826C190.551 43.1143 191.81 40.9481 193.894 41.1435C195.95 41.3366 196.912 43.986 196.686 48.8846ZM162.026 63.8516C161.998 67.8599 161.367 71.3744 160.014 72.3951C158.096 73.8425 155.517 72.7568 156.051 69.8319C156.523 67.2436 158.758 64.6003 162.031 61.3706C162.031 61.3706 162.038 62.1072 162.026 63.8516ZM161.502 48.8612C161.384 51.0584 160.815 53.2657 160.193 54.5129C158.911 57.0877 156.229 57.8926 155.118 54.1858C154.358 51.6531 154.54 48.3752 154.916 46.3098C155.404 43.6301 156.586 41.1441 158.71 41.1441C160.775 41.1441 161.793 43.4092 161.502 48.8612ZM141.423 48.8276C141.297 51.1547 140.843 53.1 140.115 54.5129C138.797 57.07 136.189 57.8809 135.039 54.1858C134.21 51.5213 134.492 47.8882 134.837 45.9256C135.349 43.0132 136.63 40.9484 138.631 41.1441C140.686 41.3448 141.685 43.986 141.423 48.8276ZM233.439 51.5457C232.937 51.5457 232.707 52.0636 232.518 52.9353C231.86 55.9661 231.168 56.6505 230.277 56.6505C229.28 56.6505 228.385 55.1497 228.155 52.1455C227.974 49.7832 228.003 45.4341 228.235 41.1079C228.282 40.2191 228.037 39.3396 225.653 38.4735C224.627 38.101 223.136 37.5524 222.393 39.3447C220.295 44.4082 219.474 48.4282 219.281 50.0613C219.271 50.1458 219.168 50.1631 219.15 49.9656C219.026 48.6576 218.751 46.2808 218.717 41.2871C218.711 40.3128 218.504 39.4834 217.429 38.8044C216.731 38.3639 214.612 37.5846 213.849 38.5117C213.188 39.2698 212.423 41.3101 211.627 43.7287C210.981 45.6944 210.53 47.0242 210.53 47.0242C210.53 47.0242 210.539 41.7203 210.547 39.7084C210.55 38.9494 210.029 38.6965 209.872 38.6507C209.166 38.4456 207.774 38.103 207.183 38.103C206.454 38.103 206.275 38.5105 206.275 39.1043C206.275 39.1821 206.16 46.0874 206.16 50.916C206.16 51.1257 206.16 51.3546 206.162 51.5976C205.759 53.8169 204.451 56.8295 203.029 56.8295C201.605 56.8295 200.933 55.57 200.933 49.8136C200.933 46.4555 201.034 44.9953 201.083 42.5665C201.112 41.1676 201.168 40.0933 201.165 39.8495C201.154 39.1019 199.861 38.7251 199.26 38.5858C198.655 38.4454 198.13 38.391 197.72 38.4144C197.14 38.4471 196.729 38.8279 196.729 39.3517C196.729 39.6325 196.732 40.1665 196.732 40.1665C195.985 38.9917 194.782 38.174 193.982 37.937C191.827 37.2971 189.579 37.8641 187.883 40.2374C186.535 42.1231 185.722 44.2588 185.403 47.3273C185.169 49.5706 185.245 51.8454 185.661 53.7693C185.159 55.9401 184.226 56.8295 183.206 56.8295C181.724 56.8295 180.65 54.4108 180.774 50.2277C180.857 47.4764 181.407 45.5456 182.009 42.7522C182.266 41.5614 182.057 40.938 181.534 40.3405C181.055 39.7925 180.033 39.5126 178.564 39.8569C177.517 40.1024 176.021 40.3664 174.653 40.5692C174.653 40.5692 174.735 40.2397 174.803 39.6587C175.159 36.6118 171.848 36.8591 170.792 37.8322C170.161 38.4132 169.732 39.0985 169.569 40.3305C169.311 42.2857 170.905 43.2079 170.905 43.2079C170.382 45.6028 169.1 48.7314 167.776 50.9933C167.067 52.2052 166.524 53.1032 165.824 54.0578C165.821 53.7023 165.819 53.3469 165.818 52.9931C165.802 47.958 165.869 43.9953 165.899 42.567C165.927 41.1681 165.983 40.1223 165.98 39.8785C165.972 39.3316 165.653 39.1252 164.989 38.8637C164.402 38.6324 163.707 38.4724 162.987 38.4166C162.078 38.3457 161.53 38.8278 161.545 39.398C161.547 39.5057 161.547 40.1667 161.547 40.1667C160.8 38.9919 159.597 38.1742 158.797 37.9372C156.643 37.2976 154.394 37.8646 152.698 40.2376C151.35 42.1233 150.468 44.7694 150.218 47.3041C149.985 49.6666 150.028 51.6742 150.345 53.3653C150.003 55.0588 149.018 56.8297 147.904 56.8297C146.48 56.8297 145.669 55.5702 145.669 49.8138C145.669 46.4557 145.77 44.9955 145.82 42.567C145.849 41.1681 145.904 40.0935 145.901 39.85C145.891 39.1024 144.598 38.7256 143.996 38.586C143.367 38.4405 142.823 38.387 142.406 38.4177C141.856 38.4587 141.469 38.9517 141.469 39.3194V40.1667C140.721 38.9919 139.519 38.1742 138.719 37.9372C136.564 37.2976 134.328 37.8737 132.619 40.2376C131.505 41.779 130.603 43.4878 130.139 47.2705C130.005 48.3637 129.946 49.3873 129.953 50.3441C129.509 53.0612 127.547 56.1929 125.942 56.1929C125.002 56.1929 124.108 54.371 124.108 50.4883C124.108 45.3162 124.428 37.9523 124.482 37.2426C124.482 37.2426 126.51 37.2081 126.903 37.2036C127.914 37.1925 128.831 37.2164 130.178 37.1475C130.854 37.113 131.505 34.6876 130.807 34.3875C130.491 34.2516 128.257 34.1326 127.371 34.1138C126.627 34.0969 124.553 33.9434 124.553 33.9434C124.553 33.9434 124.739 29.0556 124.783 28.5393C124.819 28.109 124.262 27.8874 123.943 27.7529C123.167 27.4246 122.472 27.2673 121.649 27.0976C120.511 26.8629 119.995 27.0925 119.894 28.0526C119.743 29.5096 119.664 33.7774 119.664 33.7774C118.829 33.7774 115.978 33.6142 115.143 33.6142C114.367 33.6142 113.53 36.9507 114.602 36.9917C115.836 37.0395 117.987 37.0808 119.413 37.1238C119.413 37.1238 119.349 44.609 119.349 46.9199C119.349 47.1658 119.351 47.4026 119.352 47.6323C118.567 51.7221 115.803 53.9313 115.803 53.9313C116.397 51.2257 115.184 49.1939 113.001 47.4739C112.196 46.8402 110.608 45.6403 108.831 44.3254C108.831 44.3254 109.86 43.311 110.773 41.2701C111.419 39.8244 111.447 38.17 109.86 37.8052C107.237 37.2019 105.074 39.1283 104.429 41.1849C103.929 42.7781 104.196 43.9603 105.175 45.1884C105.246 45.2781 105.324 45.3698 105.404 45.4621C104.812 46.6033 103.998 48.1399 103.309 49.3314C101.397 52.6397 99.9528 55.2565 98.8612 55.2565C97.9885 55.2565 98.0002 52.5998 98.0002 50.1124C98.0002 47.968 98.1586 44.7441 98.285 41.4062C98.3269 40.3023 97.7749 39.6734 96.8496 39.1039C96.2874 38.7578 95.0876 38.0774 94.3926 38.0774C93.3525 38.0774 90.3516 38.219 87.5162 46.421C87.1588 47.4548 86.4568 49.3385 86.4568 49.3385L86.5172 39.4752C86.5172 39.244 86.3941 39.0204 86.1121 38.8675C85.6343 38.608 84.3581 38.0774 83.2233 38.0774C82.6827 38.0774 82.4129 38.3289 82.4129 38.8302L82.3139 54.2614C82.3139 55.4339 82.3445 56.8017 82.4604 57.3999C82.5759 57.9989 82.763 58.4862 82.9947 58.7761C83.2261 59.0655 83.4938 59.2862 83.9351 59.3773C84.3459 59.4619 86.595 59.7507 86.7119 58.8912C86.852 57.8611 86.8573 56.7469 88.0384 52.5916C89.877 46.1223 92.2742 42.9658 93.4011 41.8448C93.5982 41.6489 93.8232 41.6372 93.8123 41.9579C93.7642 43.3762 93.595 46.9203 93.4811 49.9312C93.1759 57.9889 94.6417 59.4824 96.7364 59.4824C98.339 59.4824 100.598 57.89 103.02 53.8593C104.529 51.3473 105.995 48.8843 107.048 47.1091C107.782 47.7885 108.606 48.5198 109.429 49.301C111.342 51.1164 111.97 52.8414 111.553 54.4779C111.234 55.7289 110.034 57.0182 107.898 55.765C107.276 55.3994 107.01 55.117 106.384 54.7048C106.048 54.4834 105.534 54.4172 105.226 54.6492C104.427 55.2522 103.969 56.0191 103.708 56.9687C103.454 57.8926 104.379 58.381 105.339 58.8082C106.164 59.1759 107.94 59.5091 109.072 59.547C113.483 59.6945 117.016 57.4172 119.476 51.5429C119.916 56.6161 121.79 59.4869 125.046 59.4869C127.223 59.4869 129.405 56.6733 130.36 53.9054C130.634 55.0337 131.039 56.0148 131.563 56.8445C134.072 60.8195 138.939 59.964 141.383 56.5886C142.139 55.5456 142.254 55.1708 142.254 55.1708C142.611 58.358 145.177 59.4716 146.647 59.4716C148.293 59.4716 149.992 58.6935 151.183 56.0121C151.323 56.3031 151.475 56.581 151.642 56.8444C154.15 60.8194 159.017 59.9639 161.462 56.5885C161.577 56.4301 161.677 56.2865 161.765 56.1576L161.837 58.2511C161.837 58.2511 160.442 59.5305 159.586 60.3154C155.818 63.7723 152.953 66.3951 152.742 69.4493C152.471 73.3437 155.63 74.7911 158.019 74.9808C160.557 75.1821 162.73 73.7804 164.066 71.8186C165.24 70.0918 166.009 66.3754 165.953 62.7049C165.931 61.235 165.894 59.3661 165.864 57.3628C167.189 55.8249 168.681 53.8811 170.055 51.6058C171.552 49.1262 173.157 45.7964 173.978 43.2049C173.978 43.2049 175.372 43.2169 176.86 43.1195C177.336 43.0885 177.473 43.1856 177.385 43.5345C177.278 43.956 175.505 50.7964 177.123 55.3532C178.231 58.4727 180.729 59.4763 182.209 59.4763C183.943 59.4763 185.601 58.1674 186.489 56.2236C186.596 56.4403 186.708 56.65 186.831 56.8436C189.339 60.8186 194.189 59.9579 196.651 56.5876C197.207 55.8272 197.522 55.1698 197.522 55.1698C198.05 58.4684 200.615 59.4874 202.085 59.4874C203.615 59.4874 205.068 58.86 206.246 56.0715C206.296 57.2993 206.373 58.3032 206.495 58.6197C206.57 58.8133 207.005 59.0563 207.321 59.1736C208.721 59.6928 210.149 59.4473 210.678 59.3405C211.044 59.2664 211.329 58.9728 211.368 58.2147C211.471 56.2239 211.408 52.8791 212.011 50.3934C213.024 46.2216 213.969 44.6033 214.417 43.8022C214.668 43.3533 214.951 43.2793 214.962 43.7543C214.983 44.7155 215.031 47.5382 215.423 51.3307C215.711 54.1199 216.096 55.7685 216.392 56.2902C217.237 57.7823 218.28 57.853 219.129 57.853C219.669 57.853 220.799 57.7037 220.698 56.7542C220.649 56.2914 220.735 53.4311 221.734 49.3211C222.386 46.6371 223.473 44.212 223.865 43.3254C224.01 42.9984 224.077 43.2562 224.075 43.3064C223.992 45.1548 223.807 51.2006 224.56 54.5071C225.581 58.9865 228.534 59.4878 229.563 59.4878C231.759 59.4878 233.556 57.8168 234.161 53.42C234.307 52.3619 234.091 51.5449 233.444 51.5449" fill="#000008"/>
</svg>
