<svg width="364" height="100" viewBox="0 0 364 100" fill="none" xmlns="http://www.w3.org/2000/svg">
<path d="M148.431 42.4674C148.431 41.4243 147.626 40.5685 146.5 40.5685C145.373 40.5685 144.569 41.4243 144.569 42.4674V57.8731C144.569 58.9163 145.373 59.7722 146.5 59.7722C147.653 59.7722 148.431 58.9163 148.431 57.8731V42.4674Z" fill="#081D34"/>
<path d="M167.445 40.5685C166.319 40.5685 165.541 41.4243 165.541 42.4674V49.047L165.648 54.9312L163.315 49.4213L160.258 43.1628C159.32 41.2103 158.247 40.5685 156.718 40.5685C154.466 40.5685 153.473 41.986 153.473 44.0187V57.8731C153.473 58.9163 154.251 59.7722 155.377 59.7722C156.504 59.7722 157.281 58.9163 157.281 57.8731L157.255 51.3739L157.174 44.7141L159.668 50.8121L162.752 57.1777C163.718 59.2104 164.737 59.7989 166.292 59.7989C168.303 59.7989 169.349 58.5685 169.349 56.2952V42.4674C169.349 41.4243 168.572 40.5685 167.445 40.5685Z" fill="#081D34"/>
<path d="M183.589 44.4997L187.96 44.6067C188.979 44.6335 189.784 43.8578 189.784 42.7345C189.784 41.6112 188.979 40.8355 187.96 40.8355L175.302 40.8088C174.31 40.8088 173.479 41.5844 173.479 42.7078C173.479 43.8311 174.31 44.6067 175.302 44.58L179.7 44.4997V57.8727C179.7 58.9159 180.505 59.7718 181.631 59.7718C182.784 59.7718 183.589 58.9159 183.589 57.8727V44.4997Z" fill="#081D34"/>
<path d="M196.547 59.5315H205.96C206.952 59.5315 207.757 58.7826 207.757 57.7394C207.757 56.6696 206.952 55.9207 205.96 55.9207L197.78 55.9475V51.4808H204.86C205.826 51.4808 206.603 50.7586 206.603 49.7692C206.603 48.7527 205.826 48.0306 204.86 48.0306L197.78 48.0841V44.3932H205.96C206.952 44.3932 207.757 43.6443 207.757 42.5745C207.757 41.5046 206.952 40.7825 205.96 40.7825L196.574 40.8092C194.857 40.8092 193.892 41.7721 193.892 43.4838V56.8569C193.892 58.5685 194.857 59.5315 196.547 59.5315Z" fill="#081D34"/>
<path d="M223.09 51.9084C225.637 51.2398 227.139 49.2606 227.139 46.6394C227.139 43.7241 225.235 40.8088 220.676 40.8088H214.776C213.06 40.8088 212.094 41.7716 212.094 43.4834V57.8727C212.094 58.9159 212.899 59.7718 214.079 59.7718C215.232 59.7718 216.063 58.9159 216.063 57.8727L216.037 52.8444H219.282L222.58 58.7821C223.116 59.6916 224.243 60.0659 225.289 59.531C226.335 58.9694 226.63 57.8459 226.066 56.9367L223.09 51.9084ZM216.037 44.366H220.703C222.285 44.366 223.277 45.3556 223.277 46.8266C223.277 48.2709 222.339 49.3409 220.757 49.3409H216.037V44.366Z" fill="#081D34"/>
<path d="M238.982 59.8789C242.898 59.8789 245.418 58.1138 246.277 55.2519C246.732 53.6204 245.767 52.4436 244.319 52.4436C243.434 52.4436 242.844 52.8982 242.495 53.8879C241.959 55.3857 240.645 56.3219 238.768 56.3219C235.791 56.3219 234.504 54.3158 234.504 50.1434C234.504 46.0513 235.818 44.0989 238.768 44.0989C240.618 44.0989 241.691 44.8745 242.361 46.6665C242.737 47.6828 243.354 48.1375 244.265 48.1375C245.66 48.1375 246.679 47.0142 246.25 45.4629C245.392 42.3069 242.898 40.5416 238.875 40.5416C233.35 40.5416 230.534 43.9116 230.534 50.1434C230.534 56.4287 233.35 59.8789 238.982 59.8789Z" fill="#081D34"/>
<path d="M258.048 59.8253C263.734 59.8253 266.55 56.3481 266.55 50.1431C266.55 43.8846 263.653 40.4343 258.048 40.4343C252.417 40.4343 249.601 43.9381 249.574 50.1431C249.574 56.3749 252.444 59.8253 258.048 59.8253ZM258.048 56.2413C254.884 56.2413 253.516 54.2354 253.516 50.1431C253.516 45.9975 254.911 43.9916 258.022 43.9916C261.159 43.9916 262.634 45.9975 262.608 50.1431C262.608 54.2619 261.213 56.2413 258.048 56.2413Z" fill="#081D34"/>
<path d="M291.516 43.9116C291.516 41.7987 290.202 40.5416 288.164 40.5416C286.502 40.5416 285.241 41.451 284.624 43.5372L282.559 50.2504L281.192 55.0914L279.878 50.2504L277.679 43.5372C277.062 41.5847 275.989 40.5416 274.112 40.5416C272.047 40.5416 270.759 41.7719 270.759 43.9116V57.873C270.759 58.9162 271.51 59.7721 272.61 59.7721C273.709 59.7721 274.46 58.9162 274.46 57.873L274.434 51.1331L274.246 43.9116L276.365 51.2936L278.617 57.8195C279.1 59.2638 280.012 59.7454 281.192 59.7454C282.291 59.7454 283.176 59.3441 283.632 57.873L285.777 51.2936L288.057 43.8581L287.843 51.1331V57.873C287.843 58.9162 288.62 59.7721 289.693 59.7721C290.792 59.7721 291.543 58.9162 291.543 57.873L291.516 43.9116Z" fill="#081D34"/>
<path d="M116.599 52.6706C116.599 53.1164 116.423 53.5438 116.11 53.859C115.797 54.1741 115.373 54.3513 114.931 54.3513C114.489 54.3513 114.065 54.1741 113.752 53.859C113.439 53.5438 113.263 53.1164 113.263 52.6706V37.6568C113.263 37.2111 113.439 36.7837 113.752 36.4685C114.065 36.1533 114.489 35.9763 114.931 35.9763C115.373 35.9763 115.797 36.1533 116.11 36.4685C116.423 36.7837 116.599 37.2111 116.599 37.6568V52.6706ZM116.02 63.0735C115.799 63.2956 109.598 68.504 98.2289 68.504C86.8599 68.504 80.6999 63.3235 80.4381 63.1011C80.2731 62.961 80.1372 62.7893 80.0381 62.5961C79.9391 62.4026 79.8789 62.1917 79.8609 61.9748C79.843 61.7581 79.8677 61.5399 79.9337 61.3327C79.9996 61.1257 80.1054 60.9336 80.2451 60.7678C80.5329 60.4322 80.9407 60.225 81.3796 60.191C81.8184 60.1572 82.2528 60.2998 82.5879 60.5873C82.6843 60.6568 88.2241 65.1844 98.215 65.1844C108.206 65.1844 113.787 60.6289 113.842 60.5873C114.181 60.3022 114.617 60.1616 115.057 60.1954C115.497 60.2292 115.907 60.4344 116.199 60.7678C116.48 61.0985 116.62 61.5276 116.589 61.9618C116.558 62.3961 116.359 62.8007 116.033 63.0873L116.02 63.0735ZM79.8455 37.6568C79.8704 37.2097 80.07 36.7907 80.4005 36.4914C80.731 36.1921 81.1657 36.0369 81.6094 36.0596C82.0208 36.0832 82.409 36.2594 82.6991 36.5543C82.9892 36.8493 83.1607 37.242 83.1804 37.6568V52.643C83.1804 53.0886 83.0047 53.516 82.692 53.8311C82.3793 54.1465 81.9552 54.3235 81.513 54.3235C81.0707 54.3235 80.6466 54.1465 80.3339 53.8311C80.0212 53.516 79.8455 53.0886 79.8455 52.643V37.6568ZM88.2104 34.3235C88.2353 33.8764 88.4348 33.4574 88.7653 33.1581C89.0959 32.8588 89.5305 32.7036 89.9743 32.7263C90.3857 32.7498 90.7738 32.9261 91.0639 33.221C91.354 33.5159 91.5255 33.9087 91.5453 34.3235V56.5456C91.5453 56.9914 91.3696 57.4189 91.0569 57.734C90.7442 58.0491 90.32 58.2261 89.8778 58.2261C89.4356 58.2261 89.0115 58.0491 88.6987 57.734C88.386 57.4189 88.2104 56.9914 88.2104 56.5456V34.3235ZM96.6166 33.4902C96.6166 33.0445 96.7922 32.617 97.105 32.3019C97.4177 31.9867 97.8418 31.8096 98.2839 31.8096C98.7262 31.8096 99.1504 31.9867 99.4631 32.3019C99.7758 32.617 99.9515 33.0445 99.9515 33.4902V57.6568C99.9515 58.1024 99.7758 58.5298 99.4631 58.8452C99.1504 59.1603 98.7262 59.3373 98.2839 59.3373C97.8418 59.3373 97.4177 59.1603 97.105 58.8452C96.7922 58.5298 96.6166 58.1024 96.6166 57.6568V33.4902ZM104.885 34.3235C104.885 33.8778 105.061 33.4503 105.373 33.1352C105.686 32.82 106.11 32.643 106.552 32.643C106.995 32.643 107.419 32.82 107.731 33.1352C108.044 33.4503 108.22 33.8778 108.22 34.3235V56.5456C108.22 56.9914 108.044 57.4189 107.731 57.734C107.419 58.0491 106.995 58.2261 106.552 58.2261C106.11 58.2261 105.686 58.0491 105.373 57.734C105.061 57.4189 104.885 56.9914 104.885 56.5456V34.3235ZM117.053 25.1569H79.4596C78.6405 25.1514 77.8283 25.3088 77.0696 25.6201C76.3109 25.9314 75.6206 26.3904 75.0382 26.971C74.4558 27.5515 73.9927 28.2422 73.6754 29.0033C73.3582 29.7645 73.1931 30.5813 73.1895 31.4069V68.9068C73.1931 69.7323 73.3582 70.5491 73.6754 71.3103C73.9927 72.0713 74.4558 72.7621 75.0382 73.3426C75.6206 73.923 76.3109 74.3823 77.0696 74.6934C77.8283 75.0048 78.6405 75.1621 79.4596 75.1566H117.053C117.871 75.1621 118.682 75.0053 119.44 74.6948C120.198 74.3844 120.888 73.9266 121.47 73.3474C122.052 72.7684 122.515 72.0794 122.833 71.3198C123.152 70.5603 123.318 69.745 123.323 68.9206V31.4069C123.32 30.5824 123.155 29.7668 122.839 29.0066C122.522 28.2463 122.061 27.5563 121.479 26.9759C120.899 26.3956 120.21 25.9362 119.453 25.6241C118.696 25.312 117.885 25.1532 117.067 25.1569" fill="#081D34"/>
</svg>
