<svg width="90" height="90" viewBox="0 0 90 90" fill="none" xmlns="http://www.w3.org/2000/svg">
<path d="M74.2687 48.9085C74.2687 49.6199 73.9884 50.302 73.4893 50.805C72.9902 51.3079 72.3137 51.5906 71.6078 51.5906C70.9023 51.5906 70.2254 51.3079 69.7264 50.805C69.2273 50.302 68.947 49.6199 68.947 48.9085V24.9485C68.947 24.2372 69.2273 23.555 69.7264 23.0521C70.2254 22.5491 70.9023 22.2665 71.6078 22.2665C72.3137 22.2665 72.9902 22.5491 73.4893 23.0521C73.9884 23.555 74.2687 24.2372 74.2687 24.9485V48.9085ZM73.3451 65.5101C72.9934 65.8646 63.0978 74.1764 44.9558 74.1764C26.8141 74.1764 16.9846 65.909 16.5668 65.5541C16.3035 65.3305 16.0866 65.0565 15.9285 64.7482C15.7705 64.4395 15.6745 64.1028 15.6458 63.7567C15.6172 63.4109 15.6567 63.0627 15.7619 62.732C15.8671 62.4016 16.036 62.095 16.2589 61.8305C16.7182 61.295 17.3689 60.9643 18.0692 60.91C18.7695 60.8561 19.4625 61.0836 19.9972 61.5424C20.1512 61.6534 28.9912 68.8789 44.9341 68.8789C60.8769 68.8789 69.7827 61.6089 69.8706 61.5424C70.4113 61.0875 71.1067 60.8631 71.8087 60.917C72.5111 60.9709 73.1649 61.2985 73.6311 61.8305C74.0797 62.3582 74.3037 63.0431 74.254 63.736C74.2047 64.429 73.8858 65.0747 73.3672 65.5321L73.3451 65.5101ZM15.6212 24.9485C15.661 24.235 15.9794 23.5663 16.5068 23.0887C17.0342 22.611 17.7278 22.3633 18.4359 22.3995C19.0924 22.4371 19.7118 22.7184 20.1747 23.189C20.6376 23.6597 20.9113 24.2865 20.9428 24.9485V48.8644C20.9428 49.5755 20.6625 50.2576 20.1635 50.7605C19.6645 51.2638 18.9877 51.5462 18.282 51.5462C17.5763 51.5462 16.8995 51.2638 16.4005 50.7605C15.9015 50.2576 15.6212 49.5755 15.6212 48.8644V24.9485ZM28.9692 19.6289C29.0089 18.9154 29.3274 18.2467 29.8548 17.7691C30.3822 17.2915 31.0758 17.0437 31.7839 17.08C32.4404 17.1176 33.0598 17.3988 33.5227 17.8695C33.9856 18.3402 34.2592 18.9669 34.2908 19.6289V55.0925C34.2908 55.8039 34.0104 56.486 33.5114 56.9889C33.0125 57.4919 32.3357 57.7743 31.63 57.7743C30.9243 57.7743 30.2475 57.4919 29.7485 56.9889C29.2495 56.486 28.9692 55.8039 28.9692 55.0925V19.6289ZM42.3831 18.2991C42.3831 17.5878 42.6635 16.9056 43.1625 16.4027C43.6616 15.8997 44.3381 15.6171 45.044 15.6171C45.7496 15.6171 46.4264 15.8997 46.9255 16.4027C47.4245 16.9056 47.7049 17.5878 47.7049 18.2991V56.8658C47.7049 57.5769 47.4245 58.259 46.9255 58.7623C46.4264 59.2652 45.7496 59.5476 45.044 59.5476C44.3381 59.5476 43.6616 59.2652 43.1625 58.7623C42.6635 58.259 42.3831 57.5769 42.3831 56.8658V18.2991ZM55.5772 19.6289C55.5772 18.9177 55.8576 18.2355 56.3566 17.7325C56.8553 17.2296 57.5322 16.947 58.2381 16.947C58.9436 16.947 59.6205 17.2296 60.1196 17.7325C60.6183 18.2355 60.8986 18.9177 60.8986 19.6289V55.0925C60.8986 55.8039 60.6183 56.486 60.1196 56.9889C59.6205 57.4919 58.9436 57.7743 58.2381 57.7743C57.5322 57.7743 56.8553 57.4919 56.3566 56.9889C55.8576 56.486 55.5772 55.8039 55.5772 55.0925V19.6289ZM74.9946 5.00022H15.0055C13.6984 4.99146 12.4024 5.24267 11.1917 5.73945C9.981 6.23623 8.87945 6.96883 7.95006 7.89531C7.02067 8.82179 6.28171 9.92392 5.7755 11.1387C5.26928 12.3534 5.00575 13.6568 5 14.9744V74.8193C5.00575 76.1366 5.26928 77.4402 5.7755 78.655C6.28171 79.8694 7.02067 80.9718 7.95006 81.8982C8.87945 82.8245 9.981 83.5574 11.1917 84.054C12.4024 84.5509 13.6984 84.8019 15.0055 84.7931H74.9946C76.2996 84.8019 77.5938 84.5516 78.803 84.0561C80.0125 83.5609 81.1128 82.8301 82.042 81.9059C82.9712 80.9819 83.7107 79.8823 84.2182 78.67C84.7256 77.4581 84.9912 76.1569 85 74.8413V14.9744C84.994 13.6587 84.7312 12.3571 84.2266 11.1438C83.7215 9.93054 82.9845 8.82939 82.0574 7.90318C81.1307 6.977 80.0314 6.24393 78.8233 5.74584C77.6152 5.24775 76.3217 4.99439 75.0163 5.00022" fill="#081D34"/>
</svg>
