<svg width="90" height="90" viewBox="0 0 90 90" fill="none" xmlns="http://www.w3.org/2000/svg">
<path d="M77 5H13C8.58172 5 5 8.58172 5 13V77C5 81.4183 8.58172 85 13 85H77C81.4183 85 85 81.4183 85 77V13C85 8.58172 81.4183 5 77 5Z" fill="#FF0066"/>
<path d="M32.2216 30.7442C33.1281 30.7309 34.0105 30.45 34.7578 29.9367C35.5051 29.4235 36.084 28.7008 36.4218 27.8594C36.7595 27.0181 36.8411 26.0957 36.6561 25.2082C36.4712 24.3206 36.028 23.5076 35.3823 22.8712C34.7366 22.2348 33.9172 21.8035 33.0271 21.6314C32.137 21.4594 31.2159 21.5543 30.3795 21.9042C29.5432 22.2541 28.8289 22.8435 28.3266 23.5981C27.8242 24.3528 27.5561 25.2392 27.556 26.1458C27.5581 26.7547 27.6807 27.3572 27.9167 27.9186C28.1528 28.48 28.4976 28.989 28.9313 29.4165C29.365 29.844 29.879 30.1814 30.4437 30.4092C31.0085 30.6371 31.6127 30.7509 32.2216 30.7442Z" fill="white"/>
<path d="M22.5484 55.3618C22.2835 56.4939 22.145 57.6519 22.1356 58.8146C22.1356 62.8626 24.3308 65.5506 28.9964 65.5506C32.8652 65.5506 36.0044 63.253 38.2604 59.541L36.8812 65.077H44.5612L48.9548 47.477C50.0524 43.0162 52.1772 40.7026 55.4028 40.7026C57.9404 40.7026 59.518 42.2802 59.518 44.8882C59.5305 45.7243 59.415 46.5574 59.1756 47.3586L56.9132 55.4514C56.5895 56.5659 56.4278 57.7212 56.4332 58.8818C56.4332 62.7218 58.6956 65.5378 63.4284 65.5378C67.4764 65.5378 70.702 62.933 72.4844 56.6898L69.4668 55.5218C67.9564 59.7074 66.654 60.4626 65.6268 60.4626C64.5996 60.4626 64.046 59.7778 64.046 58.405C64.0756 57.6846 64.1905 56.9703 64.3884 56.277L66.5868 48.389C67.0803 46.7673 67.3347 45.0824 67.342 43.3874C67.342 37.4866 63.774 34.4082 59.4508 34.4082C55.4028 34.4082 51.2876 38.0594 49.23 41.9026L50.7372 35.0034H39.0092L37.3612 41.0834H42.8524L39.4732 54.6002C36.8172 60.501 31.9404 60.597 31.3292 60.4594C30.3244 60.2322 29.6844 59.8514 29.6844 58.5394C29.7137 57.4771 29.8749 56.4226 30.1644 55.4002L35.31 34.9874H22.2796L20.6348 41.0674H26.0524L22.5484 55.3618Z" fill="white"/>
</svg>
