<svg width="300" height="100" viewBox="0 0 300 100" fill="none" xmlns="http://www.w3.org/2000/svg">
<path d="M130.886 57.7864L125.106 41.7209H121.996V20H62V80H121.996V50.9948L127.838 65.5705H133.844L143.403 41.7209H136.713L130.886 57.7864Z" fill="#FF0066"/>
<path d="M151.916 41.721H145.453V65.5706H151.916V41.721Z" fill="#FF0066"/>
<path d="M162.299 48.6842C162.299 47.3641 163.478 46.3622 165.576 46.3622C167.895 46.3622 169.034 47.7295 169.171 49.2311H175.406C175.224 45.7257 172.766 41.1736 165.621 41.1736C159.751 41.1736 156.064 44.7238 156.064 49.0472C156.064 58.5145 169.307 54.7379 169.307 58.7431C169.307 60.0609 168.032 60.9261 165.576 60.9261C162.891 60.9261 161.707 59.4244 161.615 57.8308H155.062C155.38 62.2933 157.929 66.1146 165.394 66.1146C171.856 66.1146 175.498 62.7483 175.498 58.4697C175.498 48.6842 162.299 52.6894 162.299 48.6842Z" fill="#FF0066"/>
<path d="M185.224 41.721H178.76V65.5706H185.224V41.721Z" fill="#FF0066"/>
<path d="M200.575 41.1737C192.931 41.1737 188.06 46.8644 188.06 53.6442C188.06 60.424 192.931 66.1147 200.575 66.1147C208.22 66.1147 213.093 60.4264 213.093 53.6442C213.093 46.862 208.222 41.1737 200.575 41.1737ZM200.575 60.4264C197.164 60.4264 194.524 57.9228 194.524 53.6442C194.524 49.3655 197.16 46.8644 200.575 46.8644C203.991 46.8644 206.629 49.3679 206.629 53.6442C206.629 57.9205 203.996 60.4264 200.575 60.4264Z" fill="#FF0066"/>
<path d="M229.007 41.1738C225.457 41.1738 223.001 42.5882 221.907 44.6344V41.7207H215.945V65.5703H222.409V51.9164C222.409 48.7292 224.137 46.7302 227.277 46.7302C230.146 46.7302 231.329 48.642 231.329 51.4166V65.5727H237.791V50.6858C237.791 44.9975 234.743 41.1738 229.007 41.1738Z" fill="#FF0066"/>
<path d="M83.0165 38.8945C83.6964 38.8866 84.3588 38.6777 84.9202 38.2943C85.4817 37.9108 85.9172 37.3698 86.1719 36.7394C86.4266 36.1089 86.4892 35.4173 86.3517 34.7514C86.2142 34.0855 85.8829 33.4751 85.3993 32.9971C84.9158 32.5191 84.3016 32.1949 83.6342 32.0651C82.9668 31.9353 82.2759 32.0059 81.6485 32.2679C81.0211 32.5299 80.4852 32.9716 80.1082 33.5374C79.7313 34.1033 79.5301 34.768 79.53 35.448C79.5316 35.9035 79.6231 36.3543 79.7994 36.7744C79.9756 37.1944 80.2331 37.5755 80.5571 37.8958C80.8811 38.216 81.2651 38.4691 81.6872 38.6405C82.1092 38.8119 82.561 38.8982 83.0165 38.8945Z" fill="white"/>
<path d="M75.7532 57.3577C75.5553 58.2081 75.4517 59.0777 75.4444 59.9508C75.4444 62.9871 77.0946 65.0027 80.5905 65.0027C83.4923 65.0027 85.845 63.2794 87.5375 60.4954L86.505 64.6467H92.2663L95.5666 51.4454C96.3846 48.0909 97.9805 46.3464 100.399 46.3464C102.301 46.3464 103.485 47.5251 103.485 49.4841C103.494 50.1112 103.407 50.7359 103.228 51.337L101.531 57.4261C101.288 58.2618 101.167 59.1279 101.17 59.998C101.17 62.881 102.867 64.9885 106.417 64.9885C109.454 64.9885 111.872 63.0343 113.209 58.3525L110.946 57.4779C109.814 60.6156 108.824 61.1814 108.065 61.1814C107.306 61.1814 106.886 60.6675 106.886 59.6397C106.909 59.0994 106.995 58.5637 107.143 58.0437L108.794 52.129C109.165 50.9125 109.356 49.6481 109.362 48.3761C109.362 43.9513 106.686 41.6411 103.442 41.6411C100.409 41.6411 97.3134 44.3803 95.7764 47.2611L96.9102 42.089H88.1009L86.8657 46.6458H90.9839L88.4474 56.7943C86.4579 61.2191 82.7899 61.2898 82.342 61.1884C81.5876 61.0187 81.1067 60.7311 81.1067 59.7528C81.1297 58.9552 81.2509 58.1634 81.4674 57.3954L85.3263 42.0866H75.5505L74.3153 46.6434H78.3793L75.7532 57.3577Z" fill="white"/>
</svg>
