<svg width="380" height="100" viewBox="0 0 380 100" fill="none" xmlns="http://www.w3.org/2000/svg">
<path d="M226.727 41.1592V45.1994H220.348V66.5551H216.208V45.1994H212.18V41.1592H216.152V38.3888C216.152 33.6559 218.725 30.4814 223.984 30.4814C225.166 30.4814 225.969 30.6758 226.655 30.8416C226.717 30.8565 226.778 30.8712 226.838 30.8855V34.9257C226.111 34.7526 225.159 34.6948 224.153 34.6948C221.523 34.6948 220.236 36.2532 220.236 38.5619V41.1592H226.727Z" fill="#253858"/>
<path d="M103.585 34.4633C103.585 32.5009 102.354 31.4043 100.619 31.4043C98.8851 31.4043 97.6543 32.5009 97.6543 34.4633C97.6543 36.4257 98.8851 37.5224 100.619 37.5224C102.354 37.5224 103.585 36.368 103.585 34.4633Z" fill="#253858"/>
<path d="M102.745 41.1586H98.4934V66.5544H102.745V41.1586Z" fill="#253858"/>
<path d="M92.57 33.1943H88.1502V56.6855C88.1502 60.033 86.8634 62.3417 83.115 62.3417C81.4925 62.3417 79.87 62.0532 78.5273 61.476V65.9202C79.7581 66.3821 81.5484 66.786 83.8423 66.786C89.9405 66.786 92.57 62.5149 92.57 56.3969V33.1943Z" fill="#253858"/>
<path d="M113.273 66.5555H109.133V41.1596H113.273V45.6039C114.728 42.6025 117.189 40.467 122.001 40.7556V45.0267C116.574 44.4495 113.273 46.1233 113.273 51.5488V66.5555Z" fill="#253858"/>
<path fill-rule="evenodd" clip-rule="evenodd" d="M133.464 67.0743C137.268 67.0743 140.233 65.3428 141.8 61.9953V66.5549H146.052V41.1591H141.8V45.6034C140.345 42.3135 137.548 40.6396 133.967 40.6396C127.086 40.6396 123.617 46.6999 123.617 53.857C123.617 61.3603 126.918 67.0743 133.464 67.0743ZM141.744 54.8382C141.744 60.4945 138.387 62.9764 134.583 62.9764C130.219 62.9764 127.869 59.9751 127.813 53.7993C127.813 47.9121 130.275 44.6799 135.03 44.6799C138.667 44.6799 141.744 47.1618 141.744 52.8181V54.8382Z" fill="#253858"/>
<path d="M171.119 67.0756C164.853 67.0756 161.943 65.8059 159.426 64.4784V59.8032C162.447 61.4193 167.035 62.5737 171.342 62.5737C176.21 62.5737 178.056 60.6112 178.056 57.6676C178.056 54.724 176.266 53.1657 170.112 51.6073C162.839 49.7603 159.594 47.1631 159.594 41.6799C159.594 36.4853 163.454 32.6182 170.951 32.6182C175.65 32.6182 178.616 33.7725 180.853 35.0423V39.602C177.609 37.6973 174.084 37.0624 170.783 37.0624C166.531 37.0624 164.013 38.5631 164.013 41.6221C164.013 44.3926 166.083 45.7201 171.79 47.2207C178.616 49.0099 182.476 51.261 182.476 57.2637C182.476 63.1509 179.119 67.0756 171.119 67.0756Z" fill="#253858"/>
<path fill-rule="evenodd" clip-rule="evenodd" d="M197.921 40.6396C190.536 40.6396 186.229 46.1806 186.229 53.7993C186.229 61.4181 190.536 67.0743 197.921 67.0743C205.25 67.0743 209.558 61.4181 209.558 53.7993C209.558 46.1806 205.25 40.6396 197.921 40.6396ZM197.977 62.9764C192.663 62.9764 190.369 58.6476 190.369 53.7993C190.369 49.0087 192.663 44.7376 197.977 44.6799C203.236 44.6799 205.474 49.0087 205.474 53.7993C205.474 58.5898 203.18 62.9764 197.977 62.9764Z" fill="#253858"/>
<path d="M243.006 62.2255C242.393 62.3362 241.722 62.4576 240.991 62.4576C238.361 62.4576 237.132 60.8991 237.075 58.6482V45.1999H243.621V41.1597H237.075V35.792H232.935V41.1597H228.963V45.1999H232.991V58.8213C232.991 63.5541 235.564 66.7287 240.824 66.7287C242.11 66.7287 242.949 66.5556 243.677 66.3246V62.1113C243.462 62.143 243.238 62.1835 243.006 62.2255Z" fill="#253858"/>
<path d="M272.332 66.556L268.079 54.2621L265.841 46.4124L263.604 54.2621L259.352 66.556H253.924L244.861 41.1602H249.561L256.666 62.6888L263.827 41.1602H267.855L275.016 62.6888L282.122 41.1602H286.821L277.758 66.556H272.332Z" fill="#253858"/>
<path fill-rule="evenodd" clip-rule="evenodd" d="M297.788 67.0743C301.593 67.0743 304.559 65.3428 306.124 61.9953V66.5549H310.377V41.1591H306.124V45.6034C304.671 42.3135 301.873 40.6396 298.293 40.6396C291.41 40.6396 287.941 46.6999 287.941 53.857C287.941 61.3603 291.243 67.0743 297.788 67.0743ZM306.124 54.8382C306.124 60.4945 302.768 62.9764 298.963 62.9764C294.599 62.9764 292.195 59.9751 292.195 53.7993C292.195 47.9121 294.655 44.6799 299.412 44.6799C303.048 44.6799 306.124 47.1618 306.124 52.8181V54.8382Z" fill="#253858"/>
<path d="M320.889 66.5555H316.75V41.1596H320.889V45.6039C322.344 42.6025 324.806 40.467 329.617 40.7556V45.0267C324.191 44.4495 320.889 46.1233 320.889 51.5488V66.5555Z" fill="#253858"/>
<path fill-rule="evenodd" clip-rule="evenodd" d="M331.301 53.7993C331.301 61.5912 335.329 67.0743 344.56 67.0743C347.079 67.0743 350.155 66.6703 352.226 65.516V61.4757C349.987 62.2839 347.582 62.8609 344.729 62.8609C338.91 62.8609 336.224 60.0906 335.609 55.7617H353.568V53.7993C353.568 46.0651 350.546 40.6396 342.938 40.6396C335.441 40.6396 331.301 46.1228 331.301 53.7993ZM349.26 52.0101H335.552C336.001 47.6235 338.238 44.6221 342.715 44.6221C346.966 44.6221 349.037 47.2771 349.26 52.0101Z" fill="#253858"/>
<path d="M67.6669 48.8272L49.3751 30.5352L47.6162 28.7764L33.8975 42.4954L27.6243 48.7686C26.9794 49.4135 26.9794 50.4688 27.6243 51.1724L40.1706 63.7188L47.6162 71.2232L61.3351 57.5042L61.5696 57.2697L67.6669 51.1724C68.3119 50.5274 68.3119 49.4722 67.6669 48.8272ZM47.6162 56.2731L41.3432 49.9998L47.6162 43.7265L53.8895 49.9998L47.6162 56.2731Z" fill="#2684FF"/>
<path d="M47.6173 43.7265C43.5135 39.6226 43.5135 32.939 47.5588 28.835L33.8398 42.554L41.2856 49.9998L47.6173 43.7265Z" fill="url(#paint0_linear_874_4157)"/>
<path d="M53.8904 50L47.6172 56.2733C51.721 60.3772 51.721 67.0608 47.6172 71.2234L61.3946 57.4457L53.8904 50Z" fill="url(#paint1_linear_874_4157)"/>
<defs>
<linearGradient id="paint0_linear_874_4157" x1="46.4983" y1="37.3709" x2="37.7373" y2="46.1318" gradientUnits="userSpaceOnUse">
<stop offset="0.176" stop-color="#0052CC"/>
<stop offset="1" stop-color="#2684FF"/>
</linearGradient>
<linearGradient id="paint1_linear_874_4157" x1="48.817" y1="62.5381" x2="57.5605" y2="53.7948" gradientUnits="userSpaceOnUse">
<stop offset="0.176" stop-color="#0052CC"/>
<stop offset="1" stop-color="#2684FF"/>
</linearGradient>
</defs>
</svg>
