<svg width="90" height="90" viewBox="0 0 90 90" fill="none" xmlns="http://www.w3.org/2000/svg">
<rect x="5" y="5" width="80" height="80" rx="8" fill="#FFB3C7"/>
<path d="M62.4121 54.459C61.4769 54.459 60.5627 54.7364 59.785 55.256C59.0074 55.7757 58.4014 56.5142 58.0435 57.3783C57.6856 58.2423 57.592 59.1931 57.7745 60.1104C57.957 61.0277 58.4074 61.8703 59.0687 62.5316C59.73 63.1929 60.5726 63.6432 61.4899 63.8257C62.4072 64.0081 63.358 63.9144 64.222 63.5565C65.0861 63.1986 65.8246 62.5925 66.3442 61.8149C66.8638 61.0372 67.1411 60.123 67.1411 59.1877C67.1412 58.5667 67.0189 57.9518 66.7812 57.378C66.5436 56.8043 66.1953 56.2829 65.7561 55.8438C65.317 55.4047 64.7957 55.0564 64.2219 54.8188C63.6481 54.5812 63.0332 54.4589 62.4121 54.459Z" fill="#000008"/>
<path d="M23.5 27H31.6857V63.394H23.5V27Z" fill="#000008"/>
<path d="M44.3702 27H52.5413C52.5576 30.8374 51.8108 34.6398 50.3444 38.186C48.8779 41.7322 46.7211 44.9514 43.9993 47.6566L55.5403 63.3955H45.2279L32.6845 46.2906L35.9215 43.8661C38.5534 41.914 40.6895 39.3704 42.1571 36.4405C43.6247 33.5107 44.3828 30.2768 44.3702 27Z" fill="#000008"/>
</svg>
