<svg width="90" height="90" viewBox="0 0 90 90" fill="none" xmlns="http://www.w3.org/2000/svg">
<path d="M19.6814 29.326L44.593 42.3429C44.8922 42.4925 45.2663 42.4925 45.6403 42.3429L70.5519 29.326C71.0756 29.0268 71.0756 28.4283 70.5519 28.1291L45.6403 15.1122C45.3411 14.9626 44.967 14.9626 44.593 15.1122L19.6814 28.1291C19.2325 28.4283 19.2325 29.0268 19.6814 29.326ZM12.7989 41.3704L44.593 57.9781C44.8922 58.1277 45.2663 58.1277 45.6403 57.9781L77.4344 41.3704C77.9581 41.0711 77.9581 40.4727 77.4344 40.1734L68.3076 35.3856L45.6403 47.2803C45.3411 47.43 44.967 47.43 44.593 47.2803L21.9257 35.4604L12.7989 40.2482C12.2752 40.4727 12.2752 41.146 12.7989 41.3704ZM84.6161 52.9659L74.5916 47.7292L45.5655 62.9904C45.2663 63.14 44.8922 63.14 44.5182 62.9904L15.4172 47.7292L5.39275 52.9659C4.86908 53.2651 4.86908 53.8636 5.39275 54.1628L44.4434 74.6607C44.7426 74.8103 45.1167 74.8103 45.4907 74.6607L84.5413 54.1628C85.1398 53.8636 85.1398 53.2651 84.6161 52.9659Z" fill="#603EFF"/>
</svg>
