<svg width="364" height="100" viewBox="0 0 364 100" fill="none" xmlns="http://www.w3.org/2000/svg">
<path d="M44.281 36.9837L65.1196 47.8723C65.3699 47.9975 65.6828 47.9975 65.9957 47.8723L86.8342 36.9837C87.2723 36.7334 87.2723 36.2328 86.8342 35.9825L65.9957 25.0939C65.7453 24.9687 65.4325 24.9687 65.1196 25.0939L44.281 35.9825C43.9055 36.2328 43.9055 36.7334 44.281 36.9837ZM38.5238 47.0588L65.1196 60.9512C65.3699 61.0763 65.6828 61.0763 65.9957 60.9512L92.5914 47.0588C93.0295 46.8085 93.0295 46.3079 92.5914 46.0576L84.9569 42.0526L65.9957 52.0025C65.7453 52.1277 65.4325 52.1277 65.1196 52.0025L46.1583 42.1151L38.5238 46.1201C38.0857 46.3079 38.0857 46.8711 38.5238 47.0588ZM98.5989 56.7584L90.2135 52.378L65.9331 65.1439C65.6828 65.2691 65.3699 65.2691 65.057 65.1439L40.714 52.378L32.3285 56.7584C31.8905 57.0088 31.8905 57.5094 32.3285 57.7597L64.9944 74.9061C65.2447 75.0313 65.5576 75.0313 65.8705 74.9061L98.5364 57.7597C99.037 57.5094 99.037 57.0088 98.5989 56.7584Z" fill="#603EFF"/>
<path d="M225.445 61.2638C224.005 62.4528 222.066 63.2038 219.562 63.2038C216.684 63.2038 214.431 62.2025 213.305 60.8258V71.7144H207.547V38.6105H212.491L212.867 41.2388C214.306 38.986 216.934 38.0473 219.562 38.0473C221.94 38.0473 223.88 38.8608 225.382 40.1124C228.261 42.4904 229.638 46.0573 229.638 50.563C229.763 55.3189 228.323 58.9484 225.445 61.2638ZM222.378 44.8683C221.565 43.8045 220.313 42.991 218.499 42.991C213.993 42.991 213.054 47.2463 213.054 50.6881C213.054 54.1299 213.993 58.3852 218.499 58.3852C220.313 58.3852 221.565 57.5717 222.378 56.5079C223.567 54.9434 223.88 52.7532 223.88 50.6881C223.88 48.623 223.567 46.4328 222.378 44.8683Z" fill="#603EFF"/>
<path d="M113.18 62.6407V30.0374H119.125V57.0712H130.389L133.643 62.7033L113.18 62.6407Z" fill="#603EFF"/>
<path d="M198.161 62.6407L197.786 60.0124C196.346 62.2652 193.718 63.2039 191.09 63.2039C188.712 63.2039 186.709 62.3904 185.27 61.2014C182.391 58.8234 181.015 55.2564 181.015 50.7508C181.015 46.0575 182.454 42.4279 185.27 40.0499C186.709 38.861 188.649 38.1726 191.09 38.1726C194.156 38.1726 196.284 39.1738 197.347 40.4254V30.0374H203.042V62.6407H198.161ZM192.279 42.9285C190.526 42.9285 189.212 43.7421 188.399 44.8059C187.21 46.3703 186.897 48.5606 186.897 50.5631C186.897 52.6282 187.21 54.8184 188.399 56.3829C189.212 57.4467 190.464 58.2602 192.279 58.2602C196.784 58.2602 197.66 54.0049 197.66 50.5631C197.66 47.0587 196.784 42.9285 192.279 42.9285Z" fill="#603EFF"/>
<path d="M276.572 60.0123C274.319 58.4479 271.19 58.4479 268.812 58.4479H264.87C263.681 58.4479 262.241 58.135 262.241 56.6957C262.241 55.9447 262.867 55.319 263.43 55.0061C264.619 55.4441 265.996 55.6319 267.31 55.6319C272.442 55.6319 276.822 52.5029 276.822 47.4341C276.822 43.6794 273.881 42.4904 273.818 42.3653H278.762L281.265 38.11H267.248C261.866 38.11 257.485 41.1763 257.485 46.8709C257.485 49.3115 258.424 51.2514 259.863 52.7533C257.986 53.9422 256.985 55.5693 256.985 57.5718C256.985 59.1362 257.861 60.8258 259.363 61.6394C256.609 63.0161 255.733 66.583 257.298 69.6494C259.989 73.3415 264.056 73.717 267.873 73.717C273.193 73.717 279.388 72.0273 279.388 65.7069C279.513 63.4541 278.637 61.4516 276.572 60.0123ZM267.31 42.4279C269.939 42.4279 271.566 44.3052 271.566 46.8709C271.566 49.4366 270.001 51.2514 267.31 51.2514C264.682 51.2514 263.055 49.4366 263.055 46.8709C263.055 44.3052 264.682 42.4279 267.31 42.4279ZM267.748 69.2739C265.495 69.2739 261.678 69.0236 261.678 65.9573C261.678 64.4554 262.617 63.3916 263.868 63.0161H268.374C270.564 63.0161 274.069 63.0161 274.069 65.9573C274.069 69.0862 270.001 69.2739 267.748 69.2739Z" fill="#603EFF"/>
<path d="M328.887 43.9925C327.198 43.9925 325.946 42.6783 325.946 40.9887C325.946 39.2991 327.198 37.985 328.887 37.985C330.577 37.985 331.829 39.2991 331.829 40.9887C331.829 42.6783 330.577 43.9925 328.887 43.9925ZM328.887 38.4856C327.448 38.4856 326.509 39.5494 326.509 40.9887C326.509 42.428 327.448 43.4919 328.887 43.4919C330.327 43.4919 331.265 42.428 331.265 40.9887C331.265 39.5494 330.327 38.4856 328.887 38.4856ZM329.576 42.4906L329.013 41.3642H328.387V42.4906H327.886V39.3617H329.013C329.576 39.3617 330.076 39.7372 330.076 40.363C330.076 40.801 329.889 41.1139 329.513 41.3016L330.076 42.5532H329.576V42.4906ZM329.013 39.9249H328.387V40.8636H329.013C329.325 40.8636 329.576 40.7384 329.576 40.363C329.576 40.0501 329.325 39.9249 329.013 39.9249Z" fill="#603EFF"/>
<path d="M314.119 63.2665C312.805 63.2665 311.24 63.0788 309.989 62.7033C306.922 61.7021 304.419 59.4492 303.731 56.2577L308.424 54.5681C308.925 57.3216 311.616 58.6357 314.182 58.6357C315.621 58.6357 316.747 58.448 317.561 57.9474C318.312 57.5093 318.75 56.8835 318.75 56.07C318.75 54.6307 317.811 53.8172 316.309 53.5669L310.615 52.5656C306.735 51.8773 304.544 49.1238 304.544 46.1201C304.544 41.4267 308.8 38.2352 314.182 38.2352C318.812 38.2352 322.567 40.1752 323.693 44.4931L318.938 46.3078C318.437 43.9298 316.247 42.7409 314.182 42.7409C313.431 42.7409 312.617 42.8034 311.804 43.1163C310.74 43.5544 309.989 44.2427 309.989 45.4317C309.989 47.1213 311.428 47.3717 312.742 47.622L317.498 48.5606C321.253 49.3116 324.131 51.6895 324.131 55.4442C324.131 60.1376 320.252 63.2665 314.119 63.2665Z" fill="#603EFF"/>
<path d="M154.106 52.1275H137.773C137.836 55.6945 140.526 58.1976 143.843 58.1976C147.097 58.1976 148.724 56.5706 149.6 54.4429L154.106 56.3203C152.917 59.8872 149.35 63.0161 143.906 63.0161C136.959 63.0161 131.891 57.9473 131.891 50.5005C131.891 43.8046 136.021 37.8597 143.342 37.8597C147.347 37.8597 150.602 39.6119 152.541 42.866C153.793 45.0562 154.231 47.5593 154.168 50.125C154.231 51.314 154.106 52.1275 154.106 52.1275ZM147.097 43.9298C146.284 43.0537 145.032 42.4905 143.342 42.4905C140.276 42.4905 137.961 44.6807 137.71 47.9348H148.411C148.474 46.3078 148.036 44.931 147.097 43.9298Z" fill="#603EFF"/>
<path d="M177.385 56.6956C177.385 57.7595 178.011 58.1975 178.949 58.1975C179.325 58.1975 179.638 58.1349 179.638 58.1349V62.2025C179.012 62.6405 178.324 63.016 176.884 63.016C174.381 63.016 172.629 61.4516 172.504 59.6368C171.19 61.6393 168.624 63.2038 165.245 63.2038C159.55 63.2038 156.609 59.6368 156.609 55.6944C156.609 51.1262 160.176 48.4979 164.682 48.185L171.753 47.6844V46.7457C171.753 44.18 170.063 42.7407 167.247 42.7407C163.993 42.7407 162.491 44.3051 162.053 46.6831L157.235 45.6193C157.61 41.6143 161.428 38.0473 167.435 38.0473C173.63 38.0473 177.448 41.1136 177.448 47.1212L177.385 56.6956ZM171.753 52.0023L165.683 52.4403C163.931 52.5655 162.241 53.6293 162.241 55.5692C162.241 57.4466 163.743 58.573 165.62 58.573C169.187 58.573 171.753 56.633 171.753 53.0661V52.0023Z" fill="#603EFF"/>
<path d="M252.291 56.6956C252.291 57.7595 252.917 58.1975 253.856 58.1975C254.231 58.1975 254.544 58.1349 254.544 58.1349V62.2025C253.918 62.6405 253.23 63.016 251.791 63.016C249.288 63.016 247.535 61.4516 247.41 59.6368C246.096 61.6393 243.53 63.2038 240.151 63.2038C234.457 63.2038 231.515 59.6368 231.515 55.6944C231.515 51.1262 235.082 48.4979 239.588 48.185L246.659 47.6844V46.7457C246.659 44.18 244.97 42.7407 242.154 42.7407C238.9 42.7407 237.398 44.3051 236.96 46.6831L232.141 45.6193C232.517 41.6143 236.334 38.0473 242.341 38.0473C248.537 38.0473 252.354 41.1136 252.354 47.1212L252.291 56.6956ZM246.659 52.0023L240.589 52.4403C238.837 52.5655 237.147 53.6293 237.147 55.5692C237.147 57.4466 238.649 58.573 240.527 58.573C244.094 58.573 246.659 56.633 246.659 53.0661V52.0023Z" fill="#603EFF"/>
<path d="M302.104 52.1275H285.771C285.833 55.6945 288.524 58.1976 291.841 58.1976C295.095 58.1976 296.722 56.5706 297.598 54.4429L302.104 56.3203C300.915 59.8872 297.348 63.0161 291.903 63.0161C284.957 63.0161 279.888 57.9473 279.888 50.5005C279.888 43.8046 284.018 37.8597 291.34 37.8597C295.345 37.8597 298.599 39.6119 300.539 42.866C301.791 45.0562 302.229 47.5593 302.166 50.125C302.229 51.314 302.104 52.1275 302.104 52.1275ZM295.095 43.9298C294.281 43.0537 293.03 42.4905 291.34 42.4905C288.274 42.4905 285.958 44.6807 285.708 47.9348H296.471C296.471 46.3078 296.033 44.931 295.095 43.9298Z" fill="#603EFF"/>
</svg>
