<svg width="758" height="100" viewBox="0 0 758 100" fill="none" xmlns="http://www.w3.org/2000/svg">
<g clip-path="url(#clip0_1351_318)">
<path fill-rule="evenodd" clip-rule="evenodd" d="M152.086 49.4785H174.599C173.1 43.7593 168.993 41.4403 163.99 41.4403C158.49 41.4403 154.083 44.4382 152.086 49.4785ZM187.807 59.2596H151.288C152.787 66.626 158.988 69.3403 164.39 69.3403C171.193 69.3403 174.102 65.27 174.102 65.27H186.706C182.902 74.956 173.8 80.281 163.991 80.281C150.481 80.281 138.676 70.3028 138.676 55.1968C138.676 40.1785 150.383 30.8785 163.591 30.8785C176.4 30.8785 189.412 39.4993 187.807 59.2596Z" fill="white"/>
<path fill-rule="evenodd" clip-rule="evenodd" d="M311.869 55.5828C311.869 48.026 307.266 42.1185 299.664 42.1185C292.055 42.1185 286.953 48.026 286.953 55.5828C286.953 63.1396 292.055 69.0475 299.664 69.0475C307.266 69.0475 311.869 63.1396 311.869 55.5828ZM273.844 55.6771C273.844 40.1785 286.253 30.8785 299.663 30.8785C313.173 30.8785 324.978 40.2728 324.978 55.4803C324.978 70.8857 312.765 80.28 299.257 80.28C285.649 80.28 273.844 70.8857 273.844 55.6771Z" fill="white"/>
<path fill-rule="evenodd" clip-rule="evenodd" d="M378.54 53.5489V79.7996H365.226V56.4514C365.226 54.8032 366.433 42.5996 356.825 42.1196C352.116 41.8275 343.714 44.3428 343.714 57.0353V79.7996H330.508V31.3598H342.631L342.671 38.0843C342.671 38.0843 348.137 30.8785 358.333 30.8785C371.24 30.8785 378.54 40.1785 378.54 53.5489Z" fill="white"/>
<path fill-rule="evenodd" clip-rule="evenodd" d="M427.204 41.1485C423 41.1485 421.2 43.1835 421.2 45.2189C421.2 48.5085 425.704 49.4785 428.704 50.0625C437.618 51.8996 446.622 54.5189 446.622 64.7803C446.622 74.7593 438.114 80.281 427.807 80.281C416.304 80.281 407.397 73.505 406.793 63.235H419.097C419.4 66.1375 421.404 69.9157 427.507 69.9157C432.607 69.9157 433.814 67.3053 433.814 65.27C433.814 61.681 430.307 60.6157 426.904 59.8425C421.004 58.5807 408.293 56.2621 408.293 45.2189C408.293 35.7221 417.704 30.8785 427.407 30.8785C438.611 30.8785 446.018 37.4653 446.622 45.605H434.307C433.911 43.9568 432.314 41.1485 427.204 41.1485Z" fill="white"/>
<path fill-rule="evenodd" clip-rule="evenodd" d="M487.077 55.5828C487.077 47.5375 482.569 42.7964 476.069 42.7964C469.966 42.7964 463.855 47.056 463.855 55.5828C463.855 64.1025 469.966 68.3693 476.069 68.3693C482.569 68.3693 487.077 63.621 487.077 55.5828ZM499.584 31.3598V99.1718H487.077V75.0503C483.877 78.5368 479.369 80.28 474.162 80.28C461.462 80.28 450.852 70.2078 450.852 55.5828C450.852 40.9507 461.462 30.8785 474.162 30.8785C484.148 30.8785 487.887 37.366 487.887 37.366L487.866 31.3598H499.584Z" fill="white"/>
<path fill-rule="evenodd" clip-rule="evenodd" d="M571.087 49.4785H593.601C592.101 43.7593 587.994 41.4403 582.994 41.4403C577.494 41.4403 573.083 44.4382 571.087 49.4785ZM606.808 59.2596H570.283C571.79 66.626 577.99 69.3403 583.39 69.3403C590.194 69.3403 593.104 65.27 593.104 65.27H605.708C601.904 74.956 592.801 80.281 582.994 80.281C569.483 80.281 557.676 70.3028 557.676 55.1968C557.676 40.1785 569.387 30.8785 582.594 30.8785C595.401 30.8785 608.415 39.4993 606.808 59.2596Z" fill="white"/>
<path fill-rule="evenodd" clip-rule="evenodd" d="M624.251 49.4785H646.761C645.265 43.7593 641.158 41.4403 636.154 41.4403C630.654 41.4403 626.247 44.4382 624.251 49.4785ZM659.972 59.2596H623.454C624.951 66.626 631.151 69.3403 636.554 69.3403C643.358 69.3403 646.265 65.27 646.265 65.27H658.872C655.065 74.956 645.965 80.281 636.154 80.281C622.647 80.281 610.84 70.3028 610.84 55.1968C610.84 40.1785 622.547 30.8785 635.754 30.8785C648.565 30.8785 661.576 39.4993 659.972 59.2596Z" fill="white"/>
<path fill-rule="evenodd" clip-rule="evenodd" d="M704.525 68.9532V79.7986H662V73.4025L686.118 42.2136H663.004V31.3599H703.529V37.7561L679.411 68.9532H704.525Z" fill="white"/>
<path fill-rule="evenodd" clip-rule="evenodd" d="M756.588 31.3599V73.9861V74.9561C756.588 88.0347 749.677 99.6618 732.57 99.6618C716.559 99.6618 707.855 89.4857 707.855 81.835H720.363C720.363 81.835 722.263 88.3264 732.17 88.3264C740.577 88.3264 744.08 83.6721 744.08 76.8961V74.8611C741.873 77.2832 737.677 80.2811 730.173 80.2811C717.063 80.2811 708.859 71.0836 708.859 57.6182L708.752 31.3599H721.763V54.7082C721.763 61.2939 724.17 69.0486 732.47 69.0486C736.773 69.0486 743.877 67.0132 743.877 54.1243V31.3599H756.588Z" fill="white"/>
<path fill-rule="evenodd" clip-rule="evenodd" d="M129.153 65.2582C129.153 68.2789 130.343 69.525 132.551 69.525C134.107 69.525 135.118 69.3443 136.592 68.9021L137.416 78.8568C134.661 79.74 131.997 80.2764 128.599 80.2764C120.802 80.2764 116.027 77.7918 116.027 67.0332V11.9873H129.153V65.2582Z" fill="white"/>
<path fill-rule="evenodd" clip-rule="evenodd" d="M268.193 53.549V79.7997H254.879V56.4515C254.879 49.7704 255.581 41.339 246.373 42.1197C243.978 42.309 237.37 43.3729 237.37 57.0354V79.7997H224.162V56.4515C224.162 49.7704 224.863 41.339 215.656 42.1197C213.252 42.309 206.653 43.3729 206.653 57.0354V79.7997H193.445V31.3599H205.57L205.581 38.0843C205.581 38.0843 210.215 30.8786 218.858 30.8786C229.272 30.8786 233.36 38.7229 233.36 38.7229C233.36 38.7229 237.844 30.7844 249.282 30.7844C262.286 30.7844 268.193 40.0843 268.193 53.549Z" fill="white"/>
<path fill-rule="evenodd" clip-rule="evenodd" d="M505.195 57.6107V31.3599H518.51V54.7082C518.51 56.3561 517.302 68.5597 526.91 69.04C531.62 69.3322 540.02 66.8164 540.02 54.1243V31.3599H553.227V79.7997H541.12L541.063 73.0754C541.063 73.0754 535.595 80.2811 525.402 80.2811C512.495 80.2811 505.195 70.9811 505.195 57.6107Z" fill="white"/>
<path fill-rule="evenodd" clip-rule="evenodd" d="M24.7465 61.3771L51.5725 73.7796C54.8975 75.3174 57.2443 77.8985 58.5118 80.8592C61.7175 88.3567 57.336 96.0246 50.4582 98.7824C43.5789 101.539 36.2475 99.7649 32.9138 91.9682L21.2392 64.5949C20.3345 62.4732 22.6071 60.3882 24.7465 61.3771Z" fill="#FFC233"/>
<path fill-rule="evenodd" clip-rule="evenodd" d="M26.3538 53.3485L54.0453 42.8807C63.2486 39.4018 73.3018 45.9843 73.1661 55.5485C73.1639 55.6735 73.1618 55.7982 73.1586 55.9243C72.9596 65.2378 63.1861 71.4978 54.185 68.2028L26.38 58.026C24.162 57.2146 24.1456 54.1832 26.3538 53.3485Z" fill="#FFC233"/>
<path fill-rule="evenodd" clip-rule="evenodd" d="M24.8045 49.7229L52.0263 38.1561C61.072 34.312 63.3678 22.7748 56.2831 16.1087C56.1903 16.0209 56.0974 15.9341 56.0035 15.8474C49.0574 9.40025 37.5753 11.6703 33.6209 20.1621L21.4054 46.3982C20.4307 48.4904 22.6335 50.645 24.8045 49.7229Z" fill="#FFC233"/>
<path fill-rule="evenodd" clip-rule="evenodd" d="M17.7982 45.1521L27.6952 18.0148C28.9222 14.65 28.6949 11.2186 27.4264 8.25786C24.2141 0.763501 15.5146 -1.65564 8.63761 1.10622C1.76173 3.86914 -2.12365 10.1439 1.21651 17.9376L12.9677 45.2811C13.8789 47.4 17.0093 47.3164 17.7982 45.1521Z" fill="#FFC233"/>
</g>
<defs>
<clipPath id="clip0_1351_318">
<rect width="757.143" height="100" fill="white"/>
</clipPath>
</defs>
</svg>
