<svg width="100" height="100" viewBox="0 0 100 100" fill="none" xmlns="http://www.w3.org/2000/svg">
<g clip-path="url(#clip0_1351_340)">
<path fill-rule="evenodd" clip-rule="evenodd" d="M36.7465 61.3771L63.5725 73.7796C66.8975 75.3174 69.2443 77.8985 70.5118 80.8592C73.7175 88.3567 69.336 96.0246 62.4582 98.7824C55.5789 101.539 48.2475 99.7649 44.9138 91.9682L33.2392 64.5949C32.3345 62.4732 34.6071 60.3882 36.7465 61.3771Z" fill="#FFC233"/>
<path fill-rule="evenodd" clip-rule="evenodd" d="M38.3538 53.3485L66.0453 42.8807C75.2486 39.4018 85.3018 45.9843 85.1661 55.5485C85.1639 55.6735 85.1618 55.7982 85.1586 55.9243C84.9596 65.2378 75.1861 71.4978 66.185 68.2028L38.38 58.026C36.162 57.2146 36.1456 54.1832 38.3538 53.3485Z" fill="#FFC233"/>
<path fill-rule="evenodd" clip-rule="evenodd" d="M36.8045 49.7229L64.0263 38.1561C73.072 34.312 75.3678 22.7748 68.2831 16.1087C68.1903 16.0209 68.0974 15.9341 68.0035 15.8474C61.0574 9.40025 49.5753 11.6703 45.6209 20.1621L33.4054 46.3982C32.4307 48.4904 34.6335 50.645 36.8045 49.7229Z" fill="#FFC233"/>
<path fill-rule="evenodd" clip-rule="evenodd" d="M29.7982 45.1521L39.6952 18.0148C40.9222 14.65 40.6949 11.2186 39.4264 8.25786C36.2141 0.763501 27.5146 -1.65564 20.6376 1.10622C13.7617 3.86914 9.87635 10.1439 13.2165 17.9376L24.9677 45.2811C25.8789 47.4 29.0093 47.3164 29.7982 45.1521Z" fill="#FFC233"/>
</g>
<defs>
<clipPath id="clip0_1351_340">
<rect width="100" height="100" fill="white"/>
</clipPath>
</defs>
</svg>
