<svg width="90" height="90" viewBox="0 0 90 90" fill="none" xmlns="http://www.w3.org/2000/svg">
<path d="M66.9647 85H23.035C13.0743 85 5 76.9252 5 66.9647V23.0352C5 13.0747 13.0743 5 23.035 5H66.9647C76.9255 5 85 13.0747 85 23.0352V66.9647C85 76.9252 76.9255 85 66.9647 85Z" fill="#06C755"/>
<path fill-rule="evenodd" clip-rule="evenodd" d="M44.9926 19.5859C59.6998 19.5859 71.6646 29.2959 71.6646 41.2309C71.6646 46.0072 69.8126 50.3092 65.9473 54.5484H65.9486C60.3526 60.9887 47.8391 68.8339 44.9926 70.0337C42.2243 71.1999 42.5449 69.3754 42.6716 68.6543C42.6752 68.6338 42.6786 68.6143 42.6818 68.5957C42.7498 68.1944 43.0628 66.3122 43.0628 66.3122C43.1523 65.6312 43.2453 64.5747 42.9763 63.9007C42.6776 63.1582 41.4951 62.7729 40.6268 62.5852C27.8091 60.8914 18.3203 51.9304 18.3203 41.2309C18.3203 29.2959 30.2863 19.5859 44.9926 19.5859ZM35.0731 48.1226C35.3543 48.1226 35.5823 47.8949 35.5823 47.6134V45.7216C35.5823 45.4416 35.3531 45.2126 35.0731 45.2126H29.9803V35.9731C29.9803 35.6929 29.7513 35.4639 29.4713 35.4639H27.5796C27.2983 35.4639 27.0703 35.6919 27.0703 35.9731V47.6134C27.0703 47.8949 27.2983 48.1226 27.5796 48.1226H35.0731ZM62.7879 48.1226H55.2944C55.0132 48.1226 54.7852 47.8949 54.7852 47.6134V35.9731C54.7852 35.6919 55.0132 35.4639 55.2944 35.4639H62.7879C63.0679 35.4639 63.2972 35.6929 63.2972 35.9731V37.8646C63.2972 38.1459 63.0692 38.3739 62.7879 38.3739H57.6954V40.3381H62.7879C63.0679 40.3381 63.2972 40.5674 63.2972 40.8474V42.7391C63.2972 43.0204 63.0692 43.2484 62.7879 43.2484H57.6954V45.2126H62.7879C63.0679 45.2126 63.2972 45.4416 63.2972 45.7216V47.6134C63.2972 47.8949 63.0692 48.1226 62.7879 48.1226ZM37.6921 35.4639H39.5834C39.8649 35.4639 40.0926 35.6921 40.0926 35.9731V47.6136C40.0926 47.8949 39.8649 48.1229 39.5834 48.1229H37.6921C37.4109 48.1229 37.1826 47.8949 37.1826 47.6136V35.9731C37.1826 35.6921 37.4109 35.4639 37.6921 35.4639ZM52.4631 35.4639H50.5716C50.2903 35.4639 50.0623 35.6921 50.0623 35.9731V42.8869L44.7366 35.6946C44.7241 35.6761 44.7101 35.6586 44.6956 35.6421C44.6946 35.6409 44.6936 35.6396 44.6923 35.6384C44.6826 35.6274 44.6723 35.6166 44.6616 35.6066L44.6521 35.5979C44.6431 35.5899 44.6341 35.5821 44.6246 35.5744L44.6106 35.5641C44.6021 35.5579 44.5931 35.5519 44.5836 35.5456C44.5786 35.5424 44.5733 35.5394 44.5681 35.5364C44.5625 35.533 44.5569 35.5298 44.5512 35.5267C44.5475 35.5247 44.5438 35.5227 44.5401 35.5209L44.536 35.5188C44.5319 35.5168 44.5279 35.5147 44.5238 35.5129C44.5141 35.5084 44.5041 35.5041 44.4941 35.5001L44.4776 35.4941C44.4673 35.4904 44.4571 35.4871 44.4466 35.4841C44.4406 35.4824 44.4346 35.4809 44.4283 35.4794C44.4183 35.4771 44.4083 35.4749 44.3981 35.4729L44.3866 35.471L44.3766 35.4694L44.367 35.4683C44.3611 35.4676 44.3551 35.4669 44.3491 35.4664C44.3401 35.4654 44.3311 35.4651 44.3221 35.4649L44.3149 35.4644C44.3126 35.4642 44.3103 35.464 44.3079 35.4639C44.3067 35.4639 44.3055 35.4639 44.3043 35.4639H42.4233C42.1421 35.4639 41.9141 35.6921 41.9141 35.9731V47.6136C41.9141 47.8949 42.1421 48.1229 42.4233 48.1229H44.3148C44.5961 48.1229 44.8241 47.8949 44.8241 47.6136V40.7021L50.1566 47.9034C50.1933 47.9554 50.2383 47.9979 50.2881 48.0316L50.2898 48.0328L50.2938 48.0356C50.2987 48.039 50.3038 48.0422 50.3089 48.0453C50.3145 48.0487 50.3202 48.052 50.3258 48.0551C50.3272 48.0559 50.3285 48.0566 50.3299 48.0574C50.3334 48.0595 50.337 48.0615 50.3408 48.0631C50.3488 48.0676 50.3568 48.0716 50.3653 48.0751C50.3738 48.0791 50.3818 48.0826 50.3903 48.0859C50.3956 48.0881 50.4011 48.0901 50.4063 48.0919C50.412 48.0938 50.4178 48.0958 50.4236 48.0977C50.4295 48.0996 50.4355 48.1015 50.4416 48.1031L50.4439 48.1038C50.4447 48.104 50.4456 48.1043 50.4464 48.1045C50.4473 48.1046 50.448 48.1048 50.4488 48.1049C50.4913 48.1161 50.5358 48.1229 50.5821 48.1229H52.4631C52.7443 48.1229 52.9723 47.8949 52.9723 47.6136V35.9731C52.9723 35.6921 52.7443 35.4639 52.4631 35.4639Z" fill="white"/>
</svg>
