<svg width="300" height="100" viewBox="0 0 300 100" fill="none" xmlns="http://www.w3.org/2000/svg">
<path d="M166.417 29H172.111C172.32 28.9997 172.528 29.0422 172.721 29.1249C172.914 29.2077 173.088 29.3288 173.232 29.4811C173.377 29.6334 173.489 29.8135 173.561 30.0105C173.634 30.2075 173.665 30.4172 173.654 30.6268V65.4561C173.654 65.8657 173.491 66.2583 173.202 66.5475C172.912 66.837 172.52 66.9998 172.111 66.9998H166.417C166.186 67.0038 165.956 66.9553 165.747 66.8575C165.537 66.76 165.353 66.6161 165.207 66.4364L149.252 44.7463V65.4561C149.252 65.8657 149.09 66.2583 148.8 66.5475C148.511 66.837 148.118 66.9998 147.709 66.9998H142.015C141.812 66.9998 141.612 66.9597 141.424 66.8821C141.237 66.8045 141.067 66.691 140.924 66.5475C140.78 66.4042 140.667 66.2341 140.589 66.0471C140.512 65.8597 140.472 65.6591 140.472 65.4561V30.6268C140.472 30.4241 140.512 30.2234 140.589 30.0361C140.667 29.8489 140.78 29.6788 140.924 29.5355C141.067 29.3922 141.237 29.2784 141.424 29.2009C141.612 29.1233 141.812 29.0834 142.015 29.0834H147.709C147.964 29.0821 148.217 29.1442 148.442 29.2643C148.668 29.3845 148.86 29.5588 149.002 29.7717L164.873 51.1699V30.5433C164.873 30.134 165.036 29.7415 165.325 29.452C165.615 29.1626 166.008 29 166.417 29Z" fill="#06C755"/>
<path d="M104.718 58.1984H119.985C120.394 58.1984 120.786 58.361 121.076 58.6504C121.365 58.9399 121.528 59.3324 121.528 59.7417V65.3729C121.528 65.7821 121.365 66.1747 121.076 66.4642C120.786 66.7537 120.394 66.9162 119.985 66.9162H97.5433C97.134 66.9162 96.7415 66.7537 96.452 66.4642C96.1626 66.1747 96 65.7821 96 65.3729V30.5225C96.0055 30.1168 96.1705 29.7296 96.4593 29.4446C96.7482 29.1597 97.1376 29 97.5433 29H103.195C103.599 29 103.986 29.1604 104.272 29.4459C104.557 29.7314 104.718 30.1187 104.718 30.5225V58.1984Z" fill="#06C755"/>
<path d="M127.848 29H133.521C134.361 29 135.043 29.6816 135.043 30.5225V65.4147C135.043 66.2553 134.361 66.9371 133.521 66.9371H127.848C127.007 66.9371 126.325 66.2553 126.325 65.4147V30.5225C126.325 29.6816 127.007 29 127.848 29Z" fill="#06C755"/>
<path d="M203.094 29H180.653C180.247 29 179.857 29.1597 179.569 29.4446C179.28 29.7296 179.115 30.1168 179.109 30.5225V65.3729C179.109 65.7821 179.272 66.1747 179.561 66.4642C179.851 66.7537 180.243 66.9162 180.653 66.9162H203.094C203.504 66.9162 203.896 66.7537 204.185 66.4642C204.475 66.1747 204.637 65.7821 204.637 65.3729V59.7417C204.637 59.3324 204.475 58.9399 204.185 58.6504C203.896 58.361 203.504 58.1984 203.094 58.1984H187.765V52.317H203.032C203.441 52.317 203.833 52.1544 204.123 51.865C204.412 51.5756 204.575 51.183 204.575 50.7737V45.1425C204.575 44.7332 204.412 44.3406 204.123 44.0512C203.833 43.7618 203.441 43.5992 203.032 43.5992H187.765V37.6552H203.032C203.441 37.6552 203.833 37.4926 204.123 37.2032C204.412 36.9138 204.575 36.5212 204.575 36.1119V30.5225C204.57 30.1274 204.413 29.7493 204.138 29.466C203.862 29.1828 203.489 29.016 203.094 29Z" fill="#06C755"/>
</svg>
