<svg width="364" height="100" viewBox="0 0 364 100" fill="none" xmlns="http://www.w3.org/2000/svg">
<path d="M236.557 67.3548H229.148V55.7525C229.148 52.9858 229.098 49.4243 225.295 49.4243C221.436 49.4243 220.846 52.4387 220.846 55.5511V67.3541H213.437V43.495H220.549V46.7556H220.649C221.36 45.5386 222.389 44.5374 223.625 43.8587C224.861 43.18 226.257 42.8492 227.666 42.9015C235.175 42.9015 236.56 47.8407 236.56 54.2661L236.557 67.3548ZM205.077 40.2336C204.227 40.2338 203.396 39.9818 202.689 39.5095C201.982 39.0372 201.43 38.3658 201.105 37.5803C200.779 36.7947 200.694 35.9303 200.86 35.0963C201.025 34.2622 201.435 33.4961 202.036 32.8947C202.637 32.2933 203.403 31.8837 204.237 31.7177C205.071 31.5516 205.936 31.6366 206.721 31.9619C207.507 32.2872 208.178 32.8381 208.651 33.545C209.124 34.252 209.376 35.0832 209.376 35.9335C209.376 36.4981 209.265 37.0572 209.049 37.5789C208.833 38.1005 208.516 38.5745 208.117 38.9738C207.718 39.3731 207.244 39.6899 206.723 39.9061C206.201 40.1222 205.642 40.2335 205.077 40.2336ZM208.782 67.3548H201.365V43.495H208.782V67.3548ZM240.25 24.7549H197.642C196.675 24.744 195.744 25.1174 195.052 25.7932C194.36 26.469 193.965 27.3918 193.953 28.3589V71.1433C193.964 72.1108 194.359 73.0343 195.051 73.7108C195.743 74.3873 196.675 74.7615 197.642 74.7512H240.25C241.22 74.7633 242.154 74.3902 242.849 73.7137C243.543 73.0373 243.941 72.1128 243.954 71.1433V28.3558C243.941 27.3868 243.543 26.463 242.848 25.7872C242.153 25.1114 241.219 24.739 240.25 24.7518M173.788 49.2537C170.084 49.2537 167.861 51.7271 167.861 55.3312C167.861 58.9352 170.083 61.4109 173.788 61.4109C177.493 61.4109 179.72 58.9413 179.72 55.3312C179.72 51.721 177.497 49.2537 173.788 49.2537ZM186.541 67.3409H179.72V64.1768H179.619C178.764 65.3277 177.654 66.2655 176.376 66.9172C175.099 67.5688 173.688 67.9166 172.254 67.9336C165.135 67.9336 160.446 62.7962 160.446 55.531C160.446 48.8586 164.596 42.7317 171.417 42.7317C174.483 42.7317 177.347 43.5706 179.027 45.8959H179.125V32.1427H186.54L186.541 67.3409ZM150.934 52.6409C150.948 52.0398 150.84 51.4421 150.616 50.884C150.393 50.3259 150.058 49.819 149.633 49.394C149.208 48.969 148.701 48.6348 148.142 48.4116C147.584 48.1883 146.986 48.0807 146.385 48.0953C145.091 48.0148 143.817 48.4462 142.837 49.2965C141.858 50.1468 141.252 51.3479 141.15 52.6409H150.934ZM157.21 63.2137C155.979 64.7066 154.431 65.907 152.679 66.7281C150.926 67.5491 149.013 67.9701 147.078 67.9606C139.67 67.9606 133.738 63.0154 133.738 55.3574C133.738 47.6994 139.669 42.7564 147.078 42.7564C154.003 42.7564 158.346 47.6956 158.346 55.3574V57.6803H141.15C141.364 58.9977 142.047 60.1934 143.073 61.047C144.099 61.9006 145.399 62.3546 146.733 62.3254C147.788 62.3189 148.824 62.0487 149.747 61.5395C150.671 61.0302 151.452 60.2981 152.021 59.4098L157.21 63.2137ZM83.5598 43.4888H90.6744V46.7494H90.7755C91.4861 45.5319 92.5141 44.5303 93.7496 43.8515C94.9852 43.1727 96.3819 42.8422 97.7906 42.8954C105.303 42.8954 106.686 47.8383 106.686 54.26V67.344H99.2777V55.744C99.2777 52.975 99.2268 49.4158 95.419 49.4158C91.5681 49.4158 90.9738 52.431 90.9738 55.5426V67.3409H83.5652L83.5598 43.4888ZM110.443 32.145H117.852V53.1865L126.248 43.4757H135.332L125.608 54.5216L135.127 67.3556H125.815L117.951 55.5619H117.853V67.3541H110.445L110.443 32.145ZM72.0431 43.4865H79.4518V67.3456H72.0431V43.4865ZM75.7475 31.6249C76.5975 31.625 77.4283 31.8772 78.135 32.3496C78.8417 32.8219 79.3924 33.4932 79.7176 34.2785C80.0428 35.0639 80.1278 35.928 79.9618 36.7616C79.7959 37.5953 79.3865 38.361 78.7854 38.962C78.1844 39.563 77.4186 39.9722 76.5849 40.138C75.7512 40.3038 74.8871 40.2186 74.1018 39.8933C73.3166 39.568 72.6454 39.0171 72.1732 38.3104C71.701 37.6036 71.4489 36.7727 71.4489 35.9227C71.4489 35.3582 71.5601 34.7993 71.7761 34.2778C71.9922 33.7563 72.3088 33.2825 72.708 32.8834C73.1072 32.4843 73.581 32.1678 74.1025 31.9518C74.6241 31.7359 75.183 31.6248 75.7475 31.6249ZM46.6445 32.1504H54.3565V60.2417H68.6336V67.3587H46.6445V32.1504Z" fill="#2867B2"/>
<path d="M256.217 67.862C254.209 67.862 252.53 67.2693 251.18 66.084C249.862 64.8986 249.204 63.2193 249.204 61.0461C249.204 58.4119 250.373 56.4033 252.711 55.0203C255.048 53.6045 258.786 52.6166 263.922 52.0569C263.922 51.2995 263.84 50.5587 263.675 49.8343C263.544 49.1099 263.297 48.4678 262.935 47.908C262.572 47.3483 262.062 46.9037 261.403 46.5745C260.778 46.2123 259.971 46.0312 258.983 46.0312C257.6 46.0312 256.3 46.2946 255.081 46.8214C253.863 47.3483 252.776 47.9409 251.822 48.5995L250.241 45.7842C251.361 45.0598 252.727 44.3683 254.341 43.7098C255.954 43.0183 257.732 42.6726 259.675 42.6726C262.605 42.6726 264.729 43.5781 266.046 45.3891C267.363 47.1672 268.022 49.5544 268.022 52.5508V67.2693H264.663L264.318 64.4047H264.169C263.017 65.3596 261.782 66.1827 260.465 66.8742C259.148 67.5328 257.732 67.862 256.217 67.862ZM257.403 64.6022C258.555 64.6022 259.642 64.3388 260.663 63.812C261.683 63.2522 262.77 62.4455 263.922 61.3918V54.724C261.914 54.9874 260.218 55.3002 258.835 55.6624C257.485 56.0246 256.382 56.4527 255.526 56.9466C254.703 57.4405 254.094 58.0167 253.698 58.6753C253.336 59.3009 253.155 59.9924 253.155 60.7497C253.155 62.1327 253.567 63.1205 254.39 63.7132C255.213 64.3059 256.217 64.6022 257.403 64.6022Z" fill="#2867B2"/>
<path d="M283.773 67.862C280.744 67.862 278.323 66.7754 276.512 64.6022C274.734 62.429 273.845 59.3338 273.845 55.3167C273.845 53.374 274.125 51.6288 274.685 50.0812C275.278 48.5007 276.051 47.1672 277.006 46.0805C277.961 44.9939 279.064 44.1543 280.316 43.5616C281.567 42.9689 282.884 42.6726 284.267 42.6726C285.65 42.6726 286.852 42.9195 287.872 43.4134C288.893 43.9073 289.93 44.5823 290.984 45.4385L290.786 41.339V32.1029H294.886V67.2693H291.527L291.182 64.4541H291.033C290.079 65.376 288.975 66.1827 287.724 66.8742C286.506 67.5328 285.189 67.862 283.773 67.862ZM284.662 64.4541C285.782 64.4541 286.835 64.1906 287.823 63.6638C288.811 63.104 289.799 62.2644 290.786 61.1448V48.5995C289.766 47.6775 288.778 47.0354 287.823 46.6732C286.901 46.2781 285.946 46.0805 284.958 46.0805C284.003 46.0805 283.098 46.311 282.242 46.772C281.419 47.2001 280.694 47.8257 280.069 48.6489C279.443 49.4391 278.949 50.394 278.587 51.5136C278.225 52.6331 278.044 53.8843 278.044 55.2673C278.044 58.1649 278.62 60.4204 279.772 62.0339C280.925 63.6473 282.555 64.4541 284.662 64.4541Z" fill="#2867B2"/>
<path d="M309.243 67.862C307.531 67.862 305.901 67.5492 304.354 66.9236C302.806 66.298 301.456 65.5077 300.303 64.5528L302.329 61.8363C303.382 62.6924 304.452 63.3839 305.539 63.9107C306.658 64.4376 307.943 64.701 309.391 64.701C310.972 64.701 312.157 64.3388 312.948 63.6144C313.738 62.89 314.133 62.001 314.133 60.9473C314.133 60.3217 313.968 59.7784 313.639 59.3174C313.31 58.8564 312.882 58.4613 312.355 58.132C311.861 57.7698 311.285 57.457 310.626 57.1936C309.968 56.9301 309.309 56.6667 308.651 56.4033C307.794 56.107 306.938 55.7777 306.082 55.4155C305.226 55.0203 304.452 54.5594 303.761 54.0325C303.102 53.4728 302.559 52.8307 302.131 52.1063C301.703 51.3819 301.489 50.5093 301.489 49.4885C301.489 48.5336 301.67 47.6446 302.032 46.8214C302.427 45.9653 302.971 45.2409 303.662 44.6482C304.386 44.0226 305.259 43.5451 306.28 43.2159C307.301 42.8537 308.453 42.6726 309.737 42.6726C311.252 42.6726 312.635 42.936 313.886 43.4628C315.17 43.9897 316.273 44.6317 317.195 45.3891L315.269 47.9574C314.446 47.3318 313.59 46.8214 312.701 46.4263C311.812 46.0312 310.84 45.8336 309.787 45.8336C308.272 45.8336 307.152 46.1793 306.428 46.8708C305.737 47.5623 305.391 48.369 305.391 49.291C305.391 49.8507 305.539 50.3447 305.835 50.7727C306.132 51.1678 306.527 51.53 307.021 51.8593C307.515 52.1557 308.074 52.4355 308.7 52.699C309.359 52.9295 310.034 53.1764 310.725 53.4398C311.581 53.7691 312.437 54.1148 313.293 54.477C314.182 54.8392 314.973 55.3002 315.664 55.86C316.356 56.3868 316.915 57.0454 317.343 57.8356C317.804 58.6259 318.035 59.5808 318.035 60.7003C318.035 61.6881 317.837 62.6101 317.442 63.4662C317.08 64.3223 316.52 65.0797 315.763 65.7382C315.038 66.3968 314.117 66.9071 312.997 67.2693C311.91 67.6645 310.659 67.862 309.243 67.862Z" fill="#2867B2"/>
</svg>
