<svg width="90" height="90" viewBox="0 0 90 90" fill="none" xmlns="http://www.w3.org/2000/svg">
<rect x="5" y="5" width="80" height="80" rx="8" fill="#070707"/>
<path d="M28.6274 40.9044C28.6546 40.9044 28.6819 40.9044 28.7061 40.9044C29.4689 40.9044 30.2317 40.9044 30.9975 40.9044C31.0581 40.9044 31.0914 40.9226 31.1247 40.977C31.9147 42.2877 32.7048 43.5984 33.4948 44.9091C33.5099 44.9334 33.5251 44.9606 33.5402 44.9818C33.5493 44.9788 33.5523 44.9788 33.5523 44.9788C33.5554 44.9788 33.5554 44.9757 33.5554 44.9727C33.5584 44.9667 33.5584 44.9606 33.5584 44.9515C33.5584 43.6106 33.5614 42.2666 33.5614 40.9256C33.5614 40.9226 33.5614 40.9226 33.5644 40.9195C33.5644 40.9195 33.5675 40.9165 33.5705 40.9165C33.5735 40.9135 33.5735 40.9135 33.5765 40.9135C33.5856 40.9104 33.5947 40.9104 33.6038 40.9104C34.3969 40.9104 35.1899 40.9104 35.986 40.9104C35.9951 40.9104 36.0042 40.9135 36.0133 40.9135C36.0284 40.9649 36.0315 48.9926 36.0163 49.0955C35.9982 49.0985 35.977 49.1016 35.9558 49.1016C35.1748 49.1016 34.3969 49.1016 33.6159 49.1046C33.5614 49.1046 33.5402 49.0774 33.516 49.038C33.068 48.2934 32.62 47.5517 32.172 46.8071C31.8239 46.232 31.4788 45.6568 31.1307 45.0817C31.1186 45.0635 31.1065 45.0454 31.0853 45.0272C31.0732 45.1241 31.0762 45.2209 31.0762 45.3178C31.0762 45.4147 31.0762 45.5085 31.0762 45.6054C31.0762 45.7022 31.0762 45.8021 31.0762 45.899C31.0762 45.9958 31.0762 46.0897 31.0762 46.1865C31.0762 46.2834 31.0762 46.3833 31.0762 46.4802C31.0762 46.577 31.0762 46.6709 31.0762 46.7677C31.0762 46.8646 31.0762 46.9645 31.0762 47.0614C31.0762 47.1582 31.0762 47.2521 31.0762 47.3489C31.0762 47.4458 31.0762 47.5457 31.0762 47.6425C31.0762 47.7394 31.0762 47.8332 31.0762 47.9301C31.0762 48.027 31.0762 48.1269 31.0762 48.2237C31.0762 48.3206 31.0762 48.4144 31.0762 48.5113C31.0762 48.6082 31.0762 48.7081 31.0762 48.8049C31.0762 48.8988 31.0762 48.9956 31.0762 49.0895C31.0187 49.1046 28.703 49.1076 28.6243 49.0955C28.6092 49.0289 28.6092 40.977 28.6274 40.9044Z" fill="url(#paint0_linear_876_5069)"/>
<path d="M19.401 45.009C19.407 44.4127 19.4736 43.8315 19.6522 43.2685C19.8127 42.7569 20.0548 42.2908 20.412 41.8851C20.8146 41.4311 21.311 41.1193 21.8831 40.9256C22.201 40.8166 22.5309 40.75 22.8639 40.7107C23.1696 40.6774 23.4723 40.6622 23.7781 40.6743C24.3138 40.6925 24.8375 40.7682 25.34 40.9559C26.3026 41.31 26.9655 41.9699 27.356 42.9143C27.5134 43.2957 27.6133 43.6923 27.6708 44.1009C27.7192 44.44 27.7404 44.782 27.7344 45.1271C27.7253 45.5236 27.6859 45.9171 27.6012 46.3076C27.4771 46.8676 27.2743 47.3913 26.9352 47.8605C26.5054 48.4568 25.9303 48.8534 25.2401 49.0864C24.9102 49.1954 24.5742 49.265 24.2291 49.2983C23.9839 49.3225 23.7417 49.3377 23.4965 49.3316C22.9335 49.3225 22.3796 49.2529 21.8468 49.0652C20.86 48.7171 20.1759 48.0512 19.7794 47.0856C19.625 46.7102 19.5281 46.3197 19.4706 45.9202C19.4252 45.6144 19.407 45.3057 19.401 45.009ZM21.9074 45.009C21.9104 45.3027 21.9285 45.6054 21.9861 45.905C22.0375 46.1593 22.1102 46.4075 22.2373 46.6345C22.431 46.9827 22.7095 47.2278 23.1 47.3338C23.4088 47.4185 23.7175 47.4185 24.0263 47.3368C24.3169 47.2611 24.559 47.1037 24.7467 46.8676C24.8799 46.7011 24.9737 46.5165 25.0433 46.3167C25.1463 46.0231 25.1947 45.7204 25.2159 45.4116C25.2431 44.9757 25.2371 44.5398 25.1553 44.107C25.1069 43.8497 25.0312 43.5984 24.9041 43.3684C24.7073 43.0082 24.4137 42.76 24.0111 42.657C23.7781 42.5965 23.5419 42.5904 23.3028 42.6237C22.9154 42.6752 22.5975 42.8538 22.3614 43.1716C22.1949 43.3926 22.095 43.6408 22.0284 43.9042C21.9376 44.2644 21.9104 44.6307 21.9074 45.009Z" fill="url(#paint1_linear_876_5069)"/>
<path d="M52.4409 43.4168C51.6085 43.4168 50.7851 43.4168 49.9587 43.4168C49.9527 43.4077 49.9466 43.3956 49.9436 43.3835C49.8528 43.0475 49.6379 42.8175 49.314 42.7024C48.9144 42.5602 48.5118 42.5662 48.1153 42.7176C47.8398 42.8235 47.634 43.0173 47.4826 43.2685C47.3373 43.5107 47.2526 43.774 47.2011 44.0464C47.1255 44.4551 47.1073 44.8668 47.1255 45.2815C47.1406 45.5963 47.1799 45.9081 47.2707 46.2108C47.3404 46.4469 47.4433 46.6709 47.5946 46.8646C47.8307 47.1643 48.1395 47.3338 48.5149 47.3792C48.7419 47.4064 48.9659 47.3943 49.1869 47.3368C49.5894 47.2339 49.871 46.9887 50.0405 46.6103C50.1192 46.4348 50.1646 46.2501 50.1827 46.0564C50.1858 46.0382 50.1827 46.0201 50.1827 45.9928C49.9224 45.9928 49.6681 45.9928 49.4169 45.9928C49.1657 45.9928 48.9144 45.9928 48.6601 45.9928C48.6601 45.4177 48.6601 44.8516 48.6601 44.2916C48.7146 44.2765 52.5438 44.2704 52.6649 44.2856C52.6679 44.3037 52.6709 44.3249 52.6709 44.3431C52.6679 44.7033 52.674 45.0635 52.6558 45.4207C52.6255 46.0564 52.5075 46.6769 52.2562 47.2642C52.0201 47.8121 51.6751 48.2782 51.1907 48.6354C50.8184 48.9078 50.4007 49.0834 49.9557 49.1924C49.6379 49.2681 49.314 49.3074 48.9871 49.3225C48.7237 49.3347 48.4604 49.3286 48.197 49.3044C47.6158 49.2529 47.0589 49.1107 46.5443 48.8261C45.9056 48.472 45.4424 47.9574 45.1216 47.3065C44.9278 46.9161 44.8037 46.5014 44.7281 46.0715C44.6554 45.672 44.6251 45.2663 44.6342 44.8607C44.6493 44.2402 44.7371 43.6348 44.949 43.0506C45.0974 42.6419 45.3032 42.2635 45.5847 41.9306C45.9843 41.4553 46.4837 41.1284 47.0679 40.9256C47.3827 40.8166 47.7066 40.75 48.0366 40.7107C48.3332 40.6774 48.6329 40.6653 48.9296 40.6743C49.4926 40.6925 50.0435 40.7742 50.5732 40.9801C51.0606 41.1708 51.4844 41.4493 51.8204 41.8549C52.1473 42.2484 52.3471 42.6994 52.4258 43.2049C52.4318 43.2715 52.4348 43.3412 52.4409 43.4168Z" fill="url(#paint2_linear_876_5069)"/>
<path d="M67.1916 49.0925C67.1916 46.3621 67.1916 43.6408 67.1916 40.9165C67.246 40.9014 73.624 40.8953 73.7481 40.9074C73.7632 40.9559 73.7723 42.9688 73.7541 43.1232C73.7299 43.1232 73.7057 43.1262 73.6815 43.1262C73.5453 43.1262 73.4121 43.1262 73.2759 43.1262C72.1044 43.1262 70.9329 43.1262 69.7615 43.1262C69.7282 43.1262 69.6979 43.1262 69.6676 43.1262C69.6495 43.1837 69.6434 43.8769 69.6586 43.9829C69.8251 43.992 69.9915 43.9859 70.158 43.9859C70.3245 43.9859 70.491 43.9859 70.6545 43.9859C70.824 43.9859 70.9905 43.9859 71.16 43.9859C71.3295 43.9859 71.496 43.9859 71.6655 43.9859C71.832 43.9859 71.9985 43.9859 72.1619 43.9859C72.3284 43.9859 72.4979 43.9859 72.6553 43.9859C72.6674 43.995 72.6674 43.998 72.6705 43.998C72.6705 44.001 72.6735 44.001 72.6735 44.0041C72.6765 44.0192 72.6765 44.0313 72.6765 44.0464C72.6765 44.6851 72.6765 45.3269 72.6765 45.9656C72.6765 45.9716 72.6735 45.9777 72.6674 45.9958C72.4707 45.9989 72.2709 45.9958 72.0711 45.9958C71.8713 45.9958 71.6685 45.9958 71.4687 45.9958C71.2689 45.9958 71.0661 45.9958 70.8663 45.9958C70.6666 45.9958 70.4638 45.9958 70.264 45.9958C70.0642 45.9958 69.8644 45.9958 69.6646 45.9958C69.6465 46.0564 69.6434 46.7677 69.6616 46.8555C70.3427 46.8555 71.0268 46.8555 71.7079 46.8555C72.3889 46.8555 73.07 46.8555 73.7541 46.8555C73.7541 47.6032 73.7541 48.3418 73.7541 49.0834C71.5686 49.0925 69.3831 49.0925 67.1916 49.0925Z" fill="url(#paint3_linear_876_5069)"/>
<path d="M43.8714 43.2231C43.0753 43.2231 42.2943 43.2231 41.5103 43.2231C41.5043 43.1989 41.5012 43.1777 41.4982 43.1535C41.4679 42.9325 41.3499 42.769 41.1622 42.654C41.0199 42.5662 40.8625 42.5208 40.6991 42.5027C40.4266 42.4694 40.1542 42.4784 39.8848 42.542C39.7607 42.5723 39.6457 42.6177 39.5428 42.6964C39.3702 42.8326 39.3036 43.0142 39.3369 43.2291C39.3551 43.3442 39.4217 43.435 39.5125 43.5076C39.6003 43.5803 39.7002 43.6257 39.8061 43.6681C40.015 43.7468 40.2359 43.7952 40.4569 43.8346C40.8383 43.9072 41.2227 43.9708 41.6042 44.0464C41.9916 44.1221 42.37 44.2311 42.7302 44.3946C42.933 44.4884 43.1237 44.6004 43.2963 44.7366C43.6413 45.0121 43.8774 45.3602 43.9985 45.784C44.1408 46.2864 44.1529 46.798 44.0258 47.3065C43.8653 47.9422 43.487 48.4205 42.93 48.7595C42.5667 48.9835 42.1672 49.1167 41.7525 49.2045C41.4195 49.2741 41.0805 49.3074 40.7384 49.3195C40.4478 49.3316 40.1542 49.3225 39.8636 49.3014C39.346 49.259 38.8375 49.1621 38.3592 48.9532C37.9384 48.7686 37.5752 48.5113 37.2907 48.1481C37.0243 47.809 36.8669 47.4216 36.7972 46.9978C36.7791 46.8828 36.77 46.7647 36.7579 46.6497C36.7549 46.6285 36.7579 46.6073 36.7579 46.5831C37.5873 46.5831 38.4106 46.5831 39.2401 46.5831C39.2431 46.6073 39.2491 46.6315 39.2522 46.6557C39.2733 46.8918 39.3853 47.0704 39.5821 47.1945C39.7213 47.2823 39.8727 47.3308 40.0331 47.358C40.3631 47.4095 40.693 47.4095 41.0199 47.3338C41.1592 47.3035 41.2924 47.2521 41.4074 47.1643C41.5618 47.0462 41.6435 46.8918 41.6435 46.6951C41.6405 46.5528 41.586 46.4378 41.4831 46.344C41.3862 46.2562 41.2712 46.1987 41.1531 46.1502C40.9382 46.0655 40.7112 46.017 40.4842 45.9686C40.0937 45.8899 39.7032 45.8142 39.3127 45.7295C38.9706 45.6538 38.6377 45.5448 38.3198 45.3935C37.9959 45.2361 37.7084 45.0363 37.4783 44.7578C37.2331 44.4611 37.0878 44.1191 37.0182 43.7437C36.9819 43.553 36.9637 43.3593 36.9637 43.1656C36.9637 42.8508 37.0455 42.5572 37.1817 42.2756C37.4329 41.7489 37.8325 41.3675 38.3501 41.1012C38.6922 40.9256 39.0584 40.8166 39.4368 40.75C39.8394 40.6804 40.242 40.6562 40.6506 40.6713C41.1531 40.6865 41.6435 40.7591 42.1187 40.9347C42.5577 41.0981 42.9481 41.3433 43.2569 41.7005C43.5868 42.0819 43.7866 42.5208 43.8502 43.0203C43.8623 43.0869 43.8653 43.1504 43.8714 43.2231Z" fill="url(#paint4_linear_876_5069)"/>
<path d="M60.8197 49.0925C59.9449 49.0925 59.0791 49.0925 58.2104 49.0925C58.1983 49.0592 58.1862 49.0259 58.1741 48.9956C58.0954 48.7565 58.0167 48.5174 57.9349 48.2782C57.9107 48.2056 57.9107 48.2056 57.8381 48.2056C56.9269 48.2056 56.0188 48.2056 55.1077 48.2056C55.035 48.2056 55.035 48.2056 55.0139 48.2722C54.9321 48.5234 54.8474 48.7716 54.7656 49.0229C54.7596 49.0441 54.7505 49.0683 54.7414 49.0925C53.8757 49.0925 53.007 49.0925 52.1321 49.0925C53.2128 46.3621 54.2904 43.6378 55.3711 40.9105C56.1036 40.9105 56.8361 40.9105 57.5777 40.9105C58.6584 43.6348 59.739 46.3591 60.8197 49.0925ZM56.488 43.9072C56.482 43.9072 56.4759 43.9072 56.4699 43.9072C56.3912 44.1252 56.3215 44.3461 56.2489 44.5641C56.1732 44.785 56.1006 45.006 56.0279 45.227C55.9553 45.451 55.8796 45.672 55.8069 45.896C55.7343 46.1169 55.6586 46.3349 55.589 46.5558C55.6798 46.571 57.3083 46.568 57.3659 46.5498C57.0753 45.675 56.7816 44.7911 56.488 43.9072Z" fill="url(#paint5_linear_876_5069)"/>
<path d="M61.8125 49.0925C61.8125 49.0531 61.8125 49.0198 61.8125 48.9865C61.8125 47.0765 61.8125 45.1664 61.8125 43.2594C61.8125 43.1202 61.8277 43.1353 61.6915 43.1353C61.0013 43.1353 60.3081 43.1353 59.618 43.1353C59.5877 43.1353 59.5574 43.1353 59.5302 43.1353C59.515 43.0778 59.512 41.0043 59.5241 40.9195C59.5756 40.9044 66.4257 40.9014 66.5317 40.9135C66.5468 40.9619 66.5528 43.0051 66.5377 43.1293C66.5105 43.1323 66.4802 43.1353 66.453 43.1353C65.7628 43.1353 65.0696 43.1353 64.3795 43.1353C64.3492 43.1353 64.3189 43.1353 64.2826 43.1353C64.2705 43.2836 64.2796 43.4259 64.2765 43.5682C64.2765 43.7074 64.2765 43.8497 64.2765 43.9889C64.2765 44.1312 64.2765 44.2735 64.2765 44.4157C64.2765 44.558 64.2765 44.7003 64.2765 44.8426C64.2765 44.9848 64.2765 45.1271 64.2765 45.2694C64.2765 45.4086 64.2765 45.5509 64.2765 45.6901C64.2765 45.8324 64.2765 45.9747 64.2765 46.1169C64.2765 46.2592 64.2765 46.4015 64.2765 46.5437C64.2765 46.683 64.2765 46.8252 64.2765 46.9645C64.2765 47.1068 64.2765 47.249 64.2765 47.3913C64.2765 47.5336 64.2765 47.6758 64.2765 47.8181C64.2765 47.9604 64.2765 48.1027 64.2765 48.2449C64.2765 48.3842 64.2765 48.5264 64.2765 48.6657C64.2765 48.8079 64.2765 48.9502 64.2765 49.0955C63.4562 49.0925 62.6419 49.0925 61.8125 49.0925Z" fill="url(#paint6_linear_876_5069)"/>
<path d="M12.2088 46.8646C13.238 46.8646 14.2581 46.8646 15.2752 46.8646C15.2933 46.9191 15.2994 48.9775 15.2843 49.0864C15.2328 49.1016 9.83866 49.1046 9.75391 49.0895C9.75391 46.3651 9.75391 43.6408 9.75391 40.9105C10.5742 40.9105 11.3885 40.9105 12.2118 40.9105C12.2088 42.8932 12.2088 44.8728 12.2088 46.8646Z" fill="url(#paint7_linear_876_5069)"/>
<path d="M80.0019 43.995C79.9625 44.0646 79.9353 44.1191 79.905 44.1706C79.5811 44.7548 79.2572 45.336 78.9333 45.9202C78.9243 45.9353 78.9152 45.9535 78.9061 45.9686C78.894 45.9959 78.8728 46.0049 78.8456 46.0049C78.8274 46.0049 78.8092 46.0049 78.7911 46.0049C78.3582 46.0049 77.9223 46.0049 77.4895 46.0049C77.4592 46.0049 77.4289 46.008 77.3896 46.008C77.3896 46.1835 77.3896 46.353 77.3896 46.5226C77.3896 46.6921 77.3896 46.8646 77.3896 47.0341C77.3896 47.2036 77.3896 47.3762 77.3896 47.5457C77.3896 47.7152 77.3896 47.8847 77.3896 48.0603C76.7176 48.0603 76.0546 48.0603 75.3796 48.0603C75.3796 47.8333 75.3796 47.6093 75.3796 47.3822C75.3796 47.1522 75.3796 46.9251 75.3796 46.6951C75.3796 46.4681 75.3796 46.2441 75.3796 46.008C75.201 46.0019 75.0315 46.0049 74.862 46.0049C74.6925 46.0049 74.52 46.0049 74.3504 46.0049C74.1809 46.0049 74.0084 46.0049 73.8389 46.0049C73.6694 46.0049 73.4998 46.0049 73.3243 46.0049C73.3243 45.3329 73.3243 44.673 73.3243 44.001C73.3545 43.998 73.3878 43.995 73.4181 43.995C74.0356 43.995 74.6562 43.995 75.2737 43.995C75.3039 43.995 75.3342 43.995 75.3736 43.995C75.3736 43.9072 75.3736 43.8224 75.3766 43.7407C75.3766 43.6529 75.3766 43.5682 75.3766 43.4804C75.3766 43.3956 75.3766 43.3109 75.3766 43.2292C75.3766 43.1414 75.3766 43.0566 75.3766 42.9688C75.3766 42.8841 75.3766 42.7993 75.3766 42.7176C75.3766 42.6359 75.3766 42.5481 75.3766 42.4663C75.3766 42.3786 75.3766 42.2938 75.3766 42.206C75.3766 42.1213 75.3766 42.0395 75.3766 41.9457C75.4038 41.9427 75.425 41.9396 75.4462 41.9396C76.0698 41.9396 76.6934 41.9396 77.3169 41.9396C77.3381 41.9396 77.3593 41.9427 77.3865 41.9457C77.3865 42.6268 77.3865 43.3048 77.3865 43.9889C77.4229 43.992 77.4531 43.995 77.4834 43.995C78.2886 43.995 79.0938 43.995 79.899 43.995C79.9262 43.995 79.9565 43.995 80.0019 43.995Z" fill="url(#paint8_linear_876_5069)"/>
<path d="M18.5262 49.0925C17.7028 49.0925 16.8886 49.0925 16.0713 49.0925C16.0713 46.3651 16.0713 43.6378 16.0713 40.9105C16.8916 40.9105 17.7059 40.9105 18.5262 40.9105C18.5262 43.6408 18.5262 46.3651 18.5262 49.0925Z" fill="url(#paint9_linear_876_5069)"/>
<path d="M78.9969 49.2136C78.7245 49.2136 78.5096 48.9956 78.5126 48.7232C78.5156 48.4568 78.7336 48.2389 78.9999 48.2389C79.2693 48.2389 79.4903 48.4598 79.4903 48.7292C79.4873 48.9986 79.2693 49.2136 78.9969 49.2136ZM79.3995 48.7292C79.3995 48.5083 79.2239 48.3266 79.003 48.3266C78.779 48.3266 78.5974 48.5083 78.5974 48.7292C78.5974 48.9472 78.782 49.1288 78.9999 49.1288C79.2209 49.1288 79.3995 48.9502 79.3995 48.7292Z" fill="url(#paint10_linear_876_5069)"/>
<path d="M78.8395 48.4719C78.9212 48.4719 78.9999 48.4659 79.0786 48.475C79.1362 48.478 79.1785 48.5143 79.1937 48.5718C79.2118 48.6354 79.2027 48.6929 79.1483 48.7383C79.1331 48.7504 79.118 48.7595 79.0968 48.7746C79.1331 48.8412 79.1694 48.9048 79.2088 48.9775C79.1725 48.9775 79.1452 48.9775 79.1059 48.9775C79.0786 48.929 79.0514 48.8776 79.0211 48.8231C78.9939 48.7777 78.9939 48.7777 78.9212 48.7868C78.9182 48.8473 78.9152 48.9109 78.9122 48.9805C78.8849 48.9805 78.8607 48.9805 78.8334 48.9805C78.8395 48.811 78.8395 48.6445 78.8395 48.4719ZM78.9273 48.6959C78.9787 48.6929 79.0181 48.6929 79.0605 48.6869C79.0968 48.6808 79.1119 48.6536 79.1089 48.6203C79.1089 48.59 79.0907 48.5688 79.0605 48.5628C79.0181 48.5537 78.9727 48.5506 78.9273 48.5658C78.9273 48.6082 78.9273 48.6445 78.9273 48.6959Z" fill="url(#paint11_linear_876_5069)"/>
<defs>
<linearGradient id="paint0_linear_876_5069" x1="79.9482" y1="43.7001" x2="9.75391" y2="43.7001" gradientUnits="userSpaceOnUse">
<stop stop-color="#42EEFF"/>
<stop offset="0.724679" stop-color="#F9FFDD"/>
<stop offset="1" stop-color="#F8F761"/>
</linearGradient>
<linearGradient id="paint1_linear_876_5069" x1="79.9482" y1="43.7001" x2="9.75391" y2="43.7001" gradientUnits="userSpaceOnUse">
<stop stop-color="#42EEFF"/>
<stop offset="0.724679" stop-color="#F9FFDD"/>
<stop offset="1" stop-color="#F8F761"/>
</linearGradient>
<linearGradient id="paint2_linear_876_5069" x1="79.9482" y1="43.7001" x2="9.75391" y2="43.7001" gradientUnits="userSpaceOnUse">
<stop stop-color="#42EEFF"/>
<stop offset="0.724679" stop-color="#F9FFDD"/>
<stop offset="1" stop-color="#F8F761"/>
</linearGradient>
<linearGradient id="paint3_linear_876_5069" x1="79.9482" y1="43.7001" x2="9.75391" y2="43.7001" gradientUnits="userSpaceOnUse">
<stop stop-color="#42EEFF"/>
<stop offset="0.724679" stop-color="#F9FFDD"/>
<stop offset="1" stop-color="#F8F761"/>
</linearGradient>
<linearGradient id="paint4_linear_876_5069" x1="79.9482" y1="43.7001" x2="9.75391" y2="43.7001" gradientUnits="userSpaceOnUse">
<stop stop-color="#42EEFF"/>
<stop offset="0.724679" stop-color="#F9FFDD"/>
<stop offset="1" stop-color="#F8F761"/>
</linearGradient>
<linearGradient id="paint5_linear_876_5069" x1="79.9482" y1="43.7001" x2="9.75391" y2="43.7001" gradientUnits="userSpaceOnUse">
<stop stop-color="#42EEFF"/>
<stop offset="0.724679" stop-color="#F9FFDD"/>
<stop offset="1" stop-color="#F8F761"/>
</linearGradient>
<linearGradient id="paint6_linear_876_5069" x1="79.9482" y1="43.7001" x2="9.75391" y2="43.7001" gradientUnits="userSpaceOnUse">
<stop stop-color="#42EEFF"/>
<stop offset="0.724679" stop-color="#F9FFDD"/>
<stop offset="1" stop-color="#F8F761"/>
</linearGradient>
<linearGradient id="paint7_linear_876_5069" x1="79.9482" y1="43.7001" x2="9.75391" y2="43.7001" gradientUnits="userSpaceOnUse">
<stop stop-color="#42EEFF"/>
<stop offset="0.724679" stop-color="#F9FFDD"/>
<stop offset="1" stop-color="#F8F761"/>
</linearGradient>
<linearGradient id="paint8_linear_876_5069" x1="79.9482" y1="43.7001" x2="9.75391" y2="43.7001" gradientUnits="userSpaceOnUse">
<stop stop-color="#42EEFF"/>
<stop offset="0.724679" stop-color="#F9FFDD"/>
<stop offset="1" stop-color="#F8F761"/>
</linearGradient>
<linearGradient id="paint9_linear_876_5069" x1="79.9482" y1="43.7001" x2="9.75391" y2="43.7001" gradientUnits="userSpaceOnUse">
<stop stop-color="#42EEFF"/>
<stop offset="0.724679" stop-color="#F9FFDD"/>
<stop offset="1" stop-color="#F8F761"/>
</linearGradient>
<linearGradient id="paint10_linear_876_5069" x1="79.9482" y1="43.7001" x2="9.75391" y2="43.7001" gradientUnits="userSpaceOnUse">
<stop stop-color="#42EEFF"/>
<stop offset="0.724679" stop-color="#F9FFDD"/>
<stop offset="1" stop-color="#F8F761"/>
</linearGradient>
<linearGradient id="paint11_linear_876_5069" x1="79.9482" y1="43.7001" x2="9.75391" y2="43.7001" gradientUnits="userSpaceOnUse">
<stop stop-color="#42EEFF"/>
<stop offset="0.724679" stop-color="#F9FFDD"/>
<stop offset="1" stop-color="#F8F761"/>
</linearGradient>
</defs>
</svg>
