<svg width="376" height="100" viewBox="0 0 376 100" fill="none" xmlns="http://www.w3.org/2000/svg">
<path d="M113.643 31.3966C113.768 31.3966 113.894 31.3966 114.006 31.3966C117.527 31.3966 121.048 31.3966 124.583 31.3966C124.862 31.3966 125.016 31.4804 125.17 31.7319C128.816 37.7818 132.463 43.8317 136.11 49.8815C136.179 49.9933 136.249 50.1191 136.319 50.2169C136.361 50.2029 136.375 50.2029 136.375 50.2029C136.389 50.2029 136.389 50.1889 136.389 50.1749C136.403 50.147 136.403 50.1191 136.403 50.0771C136.403 43.8875 136.417 37.684 136.417 31.4944C136.417 31.4804 136.417 31.4804 136.431 31.4664C136.431 31.4664 136.445 31.4525 136.459 31.4525C136.473 31.4385 136.473 31.4385 136.487 31.4385C136.529 31.4245 136.571 31.4245 136.613 31.4245C140.273 31.4245 143.934 31.4245 147.609 31.4245C147.65 31.4245 147.692 31.4385 147.734 31.4385C147.804 31.676 147.818 68.7298 147.748 69.2048C147.664 69.2188 147.567 69.2327 147.469 69.2327C143.864 69.2327 140.273 69.2327 136.669 69.2467C136.417 69.2467 136.319 69.121 136.207 68.9393C134.14 65.5022 132.072 62.0791 130.004 58.642C128.397 55.9873 126.804 53.3326 125.198 50.6779C125.142 50.5941 125.086 50.5103 124.988 50.4264C124.932 50.8735 124.946 51.3206 124.946 51.7677C124.946 52.2149 124.946 52.648 124.946 53.0951C124.946 53.5422 124.946 54.0033 124.946 54.4504C124.946 54.8975 124.946 55.3306 124.946 55.7777C124.946 56.2248 124.946 56.6859 124.946 57.133C124.946 57.5801 124.946 58.0132 124.946 58.4603C124.946 58.9074 124.946 59.3685 124.946 59.8156C124.946 60.2627 124.946 60.6959 124.946 61.143C124.946 61.5901 124.946 62.0511 124.946 62.4982C124.946 62.9454 124.946 63.3785 124.946 63.8256C124.946 64.2727 124.946 64.7338 124.946 65.1809C124.946 65.628 124.946 66.0611 124.946 66.5082C124.946 66.9553 124.946 67.4164 124.946 67.8635C124.946 68.2966 124.946 68.7437 124.946 69.1769C124.681 69.2467 113.992 69.2607 113.629 69.2048C113.559 68.8974 113.559 31.7319 113.643 31.3966Z" fill="#006576"/>
<path d="M71.0559 50.3426C71.0839 47.5901 71.3913 44.9075 72.2156 42.3087C72.9561 39.9474 74.0739 37.7958 75.7226 35.9235C77.5808 33.8277 79.8722 32.3886 82.513 31.4944C83.98 30.9914 85.503 30.684 87.0399 30.5024C88.451 30.3487 89.8482 30.2788 91.2594 30.3347C93.7325 30.4185 96.1496 30.7678 98.469 31.6341C102.912 33.2688 105.972 36.3147 107.774 40.674C108.501 42.4345 108.962 44.2648 109.227 46.151C109.451 47.7159 109.549 49.2947 109.521 50.8875C109.479 52.7178 109.297 54.5342 108.906 56.3366C108.333 58.9214 107.397 61.3386 105.832 63.5042C103.848 66.2567 101.193 68.087 98.0079 69.1629C96.4849 69.6659 94.934 69.9872 93.3412 70.1409C92.2095 70.2527 91.0917 70.3226 89.96 70.2946C87.3612 70.2527 84.8044 69.9313 82.3453 69.0651C77.7904 67.4583 74.6328 64.3845 72.8024 59.9274C72.0899 58.1949 71.6427 56.3925 71.3773 54.5482C71.1677 53.137 71.0839 51.7119 71.0559 50.3426ZM82.6247 50.3426C82.6387 51.6979 82.7225 53.0951 82.988 54.4783C83.2255 55.652 83.5609 56.7977 84.1477 57.8456C85.0419 59.4523 86.3273 60.5841 88.1297 61.0731C89.5548 61.4643 90.98 61.4643 92.4051 61.0871C93.7464 60.7378 94.8642 60.0112 95.7304 58.9214C96.3452 58.153 96.7783 57.3007 97.0997 56.3785C97.5747 55.0232 97.7983 53.626 97.8961 52.2009C98.0218 50.1889 97.9939 48.1769 97.6167 46.179C97.3931 44.9913 97.0438 43.8317 96.457 42.7698C95.5488 41.1071 94.1935 39.9614 92.3353 39.4864C91.2594 39.2069 90.1696 39.179 89.0658 39.3327C87.2774 39.5702 85.8103 40.3945 84.7205 41.8616C83.9521 42.8816 83.491 44.0273 83.1836 45.2428C82.7644 46.9055 82.6387 48.5961 82.6247 50.3426Z" fill="#006576"/>
<path d="M223.56 42.9934C219.718 42.9934 215.917 42.9934 212.103 42.9934C212.075 42.9514 212.047 42.8955 212.033 42.8397C211.614 41.2888 210.622 40.2269 209.127 39.696C207.283 39.0393 205.425 39.0672 203.594 39.7658C202.323 40.2548 201.373 41.149 200.674 42.3087C200.003 43.4265 199.612 44.642 199.375 45.8995C199.025 47.7857 198.942 49.6859 199.025 51.6001C199.095 53.0532 199.277 54.4923 199.696 55.8895C200.017 56.9793 200.492 58.0133 201.191 58.9075C202.281 60.2907 203.706 61.0731 205.439 61.2827C206.486 61.4084 207.52 61.3526 208.54 61.0871C210.399 60.612 211.698 59.4803 212.48 57.7338C212.844 56.9234 213.053 56.0711 213.137 55.1769C213.151 55.0931 213.137 55.0093 213.137 54.8835C211.935 54.8835 210.762 54.8835 209.602 54.8835C208.442 54.8835 207.283 54.8835 206.109 54.8835C206.109 52.2288 206.109 49.6161 206.109 47.0313C206.361 46.9614 224.035 46.9335 224.594 47.0033C224.608 47.0871 224.622 47.185 224.622 47.2688C224.608 48.9315 224.636 50.5941 224.552 52.2428C224.412 55.1769 223.868 58.0412 222.708 60.7518C221.618 63.2807 220.025 65.4324 217.79 67.0811C216.071 68.3386 214.143 69.1489 212.089 69.6519C210.622 70.0012 209.127 70.1829 207.618 70.2527C206.403 70.3086 205.187 70.2807 203.971 70.1689C201.289 69.9314 198.718 69.2747 196.343 67.9613C193.395 66.3266 191.257 63.9514 189.776 60.9474C188.882 59.145 188.309 57.2308 187.96 55.2468C187.624 53.4025 187.485 51.5302 187.526 49.658C187.596 46.7937 188.001 43.9993 188.98 41.3027C189.664 39.4165 190.614 37.67 191.914 36.1331C193.758 33.9395 196.063 32.4305 198.76 31.4944C200.213 30.9914 201.708 30.684 203.231 30.5024C204.6 30.3487 205.983 30.2928 207.353 30.3347C209.951 30.4186 212.494 30.7958 214.939 31.7459C217.189 32.6261 219.145 33.9116 220.696 35.7838C222.205 37.6002 223.127 39.682 223.49 42.0153C223.518 42.3227 223.532 42.6441 223.56 42.9934Z" fill="#006576"/>
<path d="M291.646 69.1908C291.646 56.5881 291.646 44.0273 291.646 31.4525C291.897 31.3826 321.336 31.3547 321.909 31.4105C321.979 31.6341 322.021 40.9255 321.937 41.638C321.825 41.638 321.713 41.652 321.602 41.652C320.973 41.652 320.358 41.652 319.729 41.652C314.322 41.652 308.915 41.652 303.508 41.652C303.354 41.652 303.214 41.652 303.075 41.652C302.991 41.9175 302.963 45.1171 303.033 45.6061C303.801 45.648 304.57 45.6201 305.338 45.6201C306.107 45.6201 306.875 45.6201 307.63 45.6201C308.412 45.6201 309.18 45.6201 309.963 45.6201C310.745 45.6201 311.514 45.6201 312.296 45.6201C313.065 45.6201 313.833 45.6201 314.588 45.6201C315.356 45.6201 316.139 45.6201 316.865 45.6201C316.921 45.662 316.921 45.676 316.935 45.676C316.935 45.6899 316.949 45.6899 316.949 45.7039C316.963 45.7738 316.963 45.8296 316.963 45.8995C316.963 48.8476 316.963 51.8097 316.963 54.7578C316.963 54.7857 316.949 54.8136 316.921 54.8975C316.013 54.9114 315.091 54.8975 314.168 54.8975C313.246 54.8975 312.31 54.8975 311.388 54.8975C310.466 54.8975 309.53 54.8975 308.608 54.8975C307.685 54.8975 306.749 54.8975 305.827 54.8975C304.905 54.8975 303.983 54.8975 303.061 54.8975C302.977 55.1769 302.963 58.4603 303.047 58.8655C306.19 58.8655 309.348 58.8655 312.492 58.8655C315.636 58.8655 318.779 58.8655 321.937 58.8655C321.937 62.3166 321.937 65.7258 321.937 69.1489C311.849 69.1908 301.761 69.1908 291.646 69.1908Z" fill="#006576"/>
<path d="M184.005 42.0991C180.331 42.0991 176.726 42.0991 173.107 42.0991C173.079 41.9874 173.065 41.8896 173.051 41.7778C172.912 40.7578 172.367 40.0033 171.5 39.4724C170.844 39.0672 170.117 38.8576 169.363 38.7738C168.105 38.6201 166.848 38.662 165.604 38.9554C165.031 39.0952 164.501 39.3047 164.025 39.668C163.229 40.2967 162.922 41.1351 163.075 42.1271C163.159 42.658 163.467 43.0772 163.886 43.4125C164.291 43.7478 164.752 43.9574 165.241 44.153C166.205 44.5163 167.225 44.7398 168.245 44.9215C170.005 45.2568 171.78 45.5502 173.54 45.8995C175.329 46.2488 177.075 46.7518 178.738 47.5063C179.674 47.9394 180.554 48.4564 181.351 49.0851C182.944 50.3566 184.033 51.9634 184.592 53.9194C185.249 56.2388 185.305 58.6001 184.718 60.9474C183.977 63.8815 182.231 66.0891 179.66 67.6539C177.983 68.6878 176.139 69.3026 174.225 69.7078C172.688 70.0292 171.123 70.1829 169.544 70.2387C168.203 70.2946 166.848 70.2527 165.506 70.1549C163.117 69.9593 160.77 69.5122 158.562 68.5481C156.62 67.6958 154.944 66.5082 153.63 64.8316C152.401 63.2667 151.674 61.4783 151.353 59.5222C151.269 58.9913 151.227 58.4464 151.171 57.9154C151.157 57.8176 151.171 57.7198 151.171 57.6081C155 57.6081 158.8 57.6081 162.628 57.6081C162.642 57.7198 162.67 57.8316 162.684 57.9434C162.782 59.0332 163.299 59.8575 164.207 60.4304C164.85 60.8356 165.548 61.0591 166.289 61.1849C167.812 61.4224 169.335 61.4224 170.844 61.0731C171.486 60.9334 172.101 60.6959 172.632 60.2907C173.345 59.7458 173.722 59.0332 173.722 58.125C173.708 57.4683 173.457 56.9374 172.981 56.5043C172.534 56.0991 172.003 55.8336 171.459 55.6101C170.467 55.2188 169.419 54.9953 168.371 54.7717C166.568 54.4085 164.766 54.0592 162.964 53.6679C161.385 53.3186 159.848 52.8157 158.381 52.1171C156.886 51.3905 155.558 50.4684 154.497 49.1829C153.365 47.8137 152.694 46.2348 152.373 44.5023C152.205 43.6221 152.121 42.7279 152.121 41.8337C152.121 40.3806 152.499 39.0253 153.127 37.7259C154.287 35.2948 156.131 33.5343 158.52 32.3048C160.099 31.4944 161.79 30.9914 163.536 30.684C165.395 30.3627 167.253 30.2509 169.139 30.3207C171.459 30.3906 173.722 30.7259 175.916 31.5363C177.942 32.2908 179.744 33.4225 181.169 35.0712C182.692 36.8317 183.614 38.8576 183.908 41.163C183.963 41.4704 183.977 41.7638 184.005 42.0991Z" fill="#006576"/>
<path d="M262.235 69.1909C258.197 69.1909 254.201 69.1909 250.191 69.1909C250.135 69.0372 250.079 68.8835 250.023 68.7438C249.66 67.64 249.297 66.5362 248.919 65.4324C248.808 65.0971 248.808 65.0971 248.472 65.0971C244.267 65.0971 240.075 65.0971 235.869 65.0971C235.534 65.0971 235.534 65.0971 235.436 65.4044C235.059 66.5641 234.668 67.7098 234.291 68.8695C234.263 68.9673 234.221 69.0791 234.179 69.1909C230.183 69.1909 226.173 69.1909 222.135 69.1909C227.123 56.5881 232.097 44.0133 237.085 31.4245C240.466 31.4245 243.847 31.4245 247.271 31.4245C252.259 43.9993 257.247 56.5741 262.235 69.1909ZM242.241 45.2568C242.213 45.2568 242.185 45.2568 242.157 45.2568C241.794 46.2628 241.472 47.2828 241.137 48.2887C240.788 49.3087 240.452 50.3287 240.117 51.3486C239.782 52.3825 239.432 53.4025 239.097 54.4364C238.762 55.4564 238.412 56.4624 238.091 57.4823C238.51 57.5522 246.027 57.5382 246.293 57.4544C244.951 53.4165 243.596 49.3366 242.241 45.2568Z" fill="#006576"/>
<path d="M266.817 69.1908C266.817 69.0092 266.817 68.8555 266.817 68.7018C266.817 59.8855 266.817 51.0692 266.817 42.2668C266.817 41.6241 266.887 41.6939 266.259 41.6939C263.073 41.6939 259.873 41.6939 256.688 41.6939C256.548 41.6939 256.408 41.6939 256.283 41.6939C256.213 41.4285 256.199 31.8577 256.255 31.4664C256.492 31.3966 288.111 31.3826 288.6 31.4385C288.67 31.662 288.698 41.0931 288.628 41.666C288.502 41.68 288.362 41.6939 288.236 41.6939C285.051 41.6939 281.851 41.6939 278.666 41.6939C278.526 41.6939 278.386 41.6939 278.219 41.6939C278.163 42.3786 278.205 43.0353 278.191 43.6919C278.191 44.3347 278.191 44.9913 278.191 45.634C278.191 46.2907 278.191 46.9474 278.191 47.6041C278.191 48.2608 278.191 48.9175 278.191 49.5742C278.191 50.2308 278.191 50.8875 278.191 51.5442C278.191 52.1869 278.191 52.8436 278.191 53.4863C278.191 54.143 278.191 54.7997 278.191 55.4564C278.191 56.113 278.191 56.7697 278.191 57.4264C278.191 58.0691 278.191 58.7258 278.191 59.3685C278.191 60.0252 278.191 60.6819 278.191 61.3386C278.191 61.9953 278.191 62.6519 278.191 63.3086C278.191 63.9653 278.191 64.622 278.191 65.2787C278.191 65.9214 278.191 66.5781 278.191 67.2208C278.191 67.8775 278.191 68.5342 278.191 69.2048C274.404 69.1908 270.646 69.1908 266.817 69.1908Z" fill="#006576"/>
<path d="M37.8586 58.9075C42.6091 58.9075 47.3176 58.9075 52.0122 58.9075C52.0961 59.159 52.124 68.6599 52.0541 69.1629C51.8166 69.2328 26.9186 69.2467 26.5273 69.1769C26.5273 56.6021 26.5273 44.0273 26.5273 31.4245C30.3138 31.4245 34.0722 31.4245 37.8726 31.4245C37.8586 40.5762 37.8586 49.7139 37.8586 58.9075Z" fill="#006576"/>
<path d="M350.775 45.662C350.593 45.9834 350.468 46.2349 350.328 46.4724C348.833 49.169 347.338 51.8516 345.843 54.5482C345.801 54.6181 345.759 54.7019 345.717 54.7718C345.661 54.8975 345.563 54.9394 345.438 54.9394C345.354 54.9394 345.27 54.9394 345.186 54.9394C343.188 54.9394 341.176 54.9394 339.178 54.9394C339.039 54.9394 338.899 54.9534 338.717 54.9534C338.717 55.7638 338.717 56.5462 338.717 57.3286C338.717 58.1111 338.717 58.9075 338.717 59.6899C338.717 60.4723 338.717 61.2687 338.717 62.0512C338.717 62.8336 338.717 63.616 338.717 64.4264C335.615 64.4264 332.556 64.4264 329.44 64.4264C329.44 63.3785 329.44 62.3446 329.44 61.2967C329.44 60.2348 329.44 59.1869 329.44 58.125C329.44 57.0771 329.44 56.0432 329.44 54.9534C328.615 54.9254 327.833 54.9394 327.051 54.9394C326.268 54.9394 325.472 54.9394 324.689 54.9394C323.907 54.9394 323.11 54.9394 322.328 54.9394C321.546 54.9394 320.763 54.9394 319.953 54.9394C319.953 51.8376 319.953 48.7917 319.953 45.69C320.093 45.676 320.246 45.662 320.386 45.662C323.236 45.662 326.1 45.662 328.951 45.662C329.091 45.662 329.23 45.662 329.412 45.662C329.412 45.2568 329.412 44.8656 329.426 44.4884C329.426 44.0832 329.426 43.692 329.426 43.2868C329.426 42.8956 329.426 42.5043 329.426 42.1271C329.426 41.7219 329.426 41.3307 329.426 40.9255C329.426 40.5343 329.426 40.1431 329.426 39.7658C329.426 39.3886 329.426 38.9834 329.426 38.6062C329.426 38.201 329.426 37.8097 329.426 37.4046C329.426 37.0133 329.426 36.6361 329.426 36.203C329.552 36.189 329.649 36.175 329.747 36.175C332.625 36.175 335.504 36.175 338.382 36.175C338.48 36.175 338.577 36.189 338.703 36.203C338.703 39.3467 338.703 42.4764 338.703 45.6341C338.871 45.648 339.011 45.662 339.15 45.662C342.867 45.662 346.583 45.662 350.3 45.662C350.426 45.662 350.565 45.662 350.775 45.662Z" fill="#006576"/>
<path d="M67.018 69.1909C63.2177 69.1909 59.4592 69.1909 55.6868 69.1909C55.6868 56.6021 55.6868 44.0133 55.6868 31.4245C59.4732 31.4245 63.2316 31.4245 67.018 31.4245C67.018 44.0273 67.018 56.6021 67.018 69.1909Z" fill="#006576"/>
<path d="M346.136 69.7497C344.879 69.7497 343.887 68.7437 343.901 67.4862C343.915 66.2567 344.921 65.2507 346.15 65.2507C347.394 65.2507 348.414 66.2707 348.414 67.5142C348.4 68.7577 347.394 69.7497 346.136 69.7497ZM347.995 67.5142C347.995 66.4942 347.184 65.6559 346.164 65.6559C345.13 65.6559 344.292 66.4942 344.292 67.5142C344.292 68.5201 345.144 69.3585 346.15 69.3585C347.17 69.3585 347.995 68.5341 347.995 67.5142Z" fill="#006576"/>
<path d="M345.41 66.3266C345.787 66.3266 346.15 66.2986 346.514 66.3405C346.779 66.3545 346.975 66.5222 347.044 66.7876C347.128 67.081 347.086 67.3465 346.835 67.5561C346.765 67.612 346.695 67.6539 346.597 67.7238C346.765 68.0311 346.933 68.3246 347.114 68.6599C346.947 68.6599 346.821 68.6599 346.639 68.6599C346.514 68.4363 346.388 68.1988 346.248 67.9473C346.122 67.7377 346.122 67.7377 345.787 67.7796C345.773 68.0591 345.759 68.3525 345.745 68.6738C345.619 68.6738 345.508 68.6738 345.382 68.6738C345.41 67.8914 345.41 67.123 345.41 66.3266ZM345.815 67.3605C346.052 67.3465 346.234 67.3465 346.43 67.3186C346.597 67.2906 346.667 67.1649 346.653 67.0112C346.653 66.8715 346.569 66.7737 346.43 66.7457C346.234 66.7038 346.025 66.6898 345.815 66.7597C345.815 66.9553 345.815 67.123 345.815 67.3605Z" fill="#006576"/>
</svg>
