<svg width="100" height="100" viewBox="0 0 100 100" fill="none" xmlns="http://www.w3.org/2000/svg">
<g clip-path="url(#clip0_1353_642)">
<path d="M99.7953 44.3485H70.6137L95.8863 29.7574L90.3363 20.1417L65.0637 34.7328L79.6516 9.46216L70.0358 3.90883L55.4479 29.1794V0H44.3473V29.1822L29.7538 3.90883L20.1411 9.45937L34.7318 34.73L9.45911 20.1417L3.90873 29.7546L29.1814 44.3457H0V55.4468H29.1786L3.90873 70.0379L9.45911 79.6537L34.729 65.0653L20.1383 90.3358L29.7538 95.8863L44.3445 70.6132V99.7953H55.4453V70.6158L70.0332 95.8863L79.6484 90.3358L65.0579 65.0626L90.3305 79.6537L95.8811 70.0379L70.6111 55.4495H99.7895V44.3485H99.7953ZM49.8976 64.9953C41.5274 64.9953 34.7429 58.2111 34.7429 49.8404C34.7429 41.4699 41.5274 34.6853 49.8976 34.6853C58.2679 34.6853 65.0521 41.4699 65.0521 49.8404C65.0521 58.2111 58.2679 64.9953 49.8976 64.9953Z" fill="#625DF5"/>
</g>
<defs>
<clipPath id="clip0_1353_642">
<rect width="100" height="100" fill="white"/>
</clipPath>
</defs>
</svg>
