<svg width="445" height="100" viewBox="0 0 445 100" fill="none" xmlns="http://www.w3.org/2000/svg">
<path d="M56.551 1.21219e-06H43.1224C31.688 0.0135088 20.726 4.56249 12.6416 12.6488C4.55719 20.7351 0.0108022 31.6982 0 43.1327C0.0135026 54.5653 4.56108 65.5258 12.6452 73.6099C20.7293 81.694 31.6898 86.2416 43.1224 86.2551H56.602C68.0364 86.2443 78.9996 81.6979 87.0859 73.6135C95.1722 65.5291 99.7212 54.5671 99.7347 43.1327C99.7239 31.6876 95.1691 20.7152 87.0714 12.6272C78.9738 4.53911 67.996 -0.00270894 56.551 1.21219e-06ZM5.33673 43.1327C5.33673 33.1194 9.31449 23.5162 16.3949 16.4358C23.4754 9.35531 33.0786 5.37755 43.0918 5.37755C45.201 5.37755 47.3071 5.55102 49.3878 5.89796C58.1957 7.35473 66.1974 11.8995 71.9599 18.7183C77.7223 25.5372 80.8691 34.1847 80.8367 43.1122C80.8265 48.8451 78.7901 54.3899 75.0874 58.7667C71.3846 63.1435 66.254 66.0705 60.602 67.0306C64.3669 64.282 67.4291 60.6828 69.5393 56.5263C71.6494 52.3699 72.7478 47.7737 72.7449 43.1122C72.7564 36.5358 70.5768 30.1429 66.5504 24.9431C62.524 19.7434 56.8802 16.033 50.5102 14.398C48.0872 13.7718 45.5944 13.4563 43.0918 13.4592C35.2405 13.4835 27.7185 16.6174 22.1725 22.1749C16.6264 27.7324 13.5081 35.2608 13.5 43.1122C13.4799 50.3982 15.3112 57.5699 18.822 63.9543C22.3328 70.3387 27.408 75.7265 33.5714 79.6122C25.5049 77.4941 18.3652 72.7681 13.264 66.1701C8.16284 59.5722 5.38651 51.4726 5.36735 43.1327H5.33673ZM49.8163 19.8367C54.8694 21.292 59.3118 24.352 62.4725 28.5546C65.6332 32.7572 67.3405 37.8742 67.3367 43.1327C67.3383 48.3894 65.6299 53.504 62.4694 57.7046C59.3089 61.9051 54.8678 64.9636 49.8163 66.4184C44.7649 64.9636 40.3238 61.9051 37.1632 57.7046C34.0027 53.504 32.2943 48.3894 32.2959 43.1327C32.2921 37.8742 33.9995 32.7572 37.1602 28.5546C40.3209 24.352 44.7632 21.292 49.8163 19.8367ZM56.551 80.8673H56.398C54.3466 80.8561 52.2993 80.6821 50.2755 80.3469C41.6857 78.9224 33.8572 74.5587 28.1284 68.0016C22.3996 61.4446 19.126 53.1013 18.8673 44.398V43.1327C18.8737 37.3987 20.9088 31.8519 24.6122 27.4744C28.3156 23.0968 33.4484 20.1707 39.102 19.2143C35.3353 21.9618 32.2711 25.5605 30.1592 29.7171C28.0472 33.8736 26.9473 38.4703 26.949 43.1327C26.9396 49.7074 29.1201 56.098 33.1464 61.2957C37.1727 66.4935 42.8153 70.2023 49.1837 71.8367C51.6051 72.4673 54.099 72.7837 56.602 72.7755C64.4623 72.7674 71.9984 69.6421 77.5574 64.085C83.1164 58.5279 86.2443 50.9929 86.2551 43.1327C86.2779 35.8461 84.4477 28.6735 80.9367 22.2886C77.4256 15.9038 72.349 10.5164 66.1837 6.63265C74.2484 8.75344 81.3841 13.4845 86.4771 20.0875C91.57 26.6904 94.3337 34.7937 94.3367 43.1327C94.3339 48.0915 93.3543 53.0013 91.4537 57.5816C89.5532 62.1618 86.769 66.3228 83.2602 69.8269C79.7514 73.331 75.5866 76.1095 71.0038 78.0039C66.421 79.8982 61.5099 80.8712 56.551 80.8673Z" fill="#FC5200"/>
<path d="M186.071 78.7347H124.652V71.8061C132.224 70.5306 133.714 67.8673 133.714 65.3061V21.9081C133.714 17.0102 132.224 14.9796 124.652 14.449V7.52039H163.254V14.449C155.683 14.9796 154.193 17.0102 154.193 21.9081V67.8265C154.193 70.3775 154.938 72.1939 161.336 72.1939H168.265C172.203 72.1939 176.897 70.2755 180.203 59.8265H187.132L186.071 78.7347ZM191.612 52.6122C191.612 35.3469 204.091 22.551 221.785 22.551C240.448 22.551 251.214 35.1326 251.214 50.4796C251.214 67.653 238.53 80.2347 221.152 80.2347C202.173 80.2347 191.612 67.9694 191.612 52.6122ZM231.173 56.5612C231.173 39.6122 225.305 29.4796 219.55 29.4796C214.112 29.4796 211.877 36.3061 211.877 46.1122C211.877 63.3877 217.846 73.3061 223.489 73.3061C228.836 73.3061 231.173 66.5816 231.173 56.5612ZM257.826 52.6122C257.826 35.3469 270.305 22.551 287.999 22.551C306.663 22.551 317.428 35.1326 317.428 50.4796C317.428 67.653 304.744 80.2347 287.356 80.2347C268.387 80.2347 257.826 67.9694 257.826 52.6122ZM297.387 56.5612C297.387 39.6122 291.52 29.4796 285.765 29.4796C280.326 29.4796 278.081 36.3061 278.081 46.1122C278.081 63.3877 284.061 73.3061 289.703 73.3061C295.04 73.3061 297.387 66.5816 297.387 56.5612ZM383.244 49.6326C383.244 68.2857 371.948 80.2449 355.632 80.2449C352.34 80.3053 349.072 79.687 346.03 78.4285V86.3163C346.03 90.2653 347.632 91.8673 354.887 92.9285V99.8979H320.02V92.9694C325.56 91.6939 326.203 90.3061 326.203 86.3571V39.4183C326.203 36.6428 325.244 35.0408 321.724 33.449L320.02 32.7041V27.153L341.765 22.5714H346.03V29.3979C347.378 27.2622 349.255 25.5113 351.479 24.3151C353.703 23.119 356.199 22.5183 358.724 22.5714C375.673 22.551 383.244 35.6122 383.244 49.6326ZM362.775 53.4694C362.775 42.3775 359.714 32.7857 352.326 32.7857C349.122 32.7857 348.591 32.5714 346.03 34.4898V55.9183C346.03 68.6122 348.071 72.3469 353.601 72.3469C358.724 72.3469 362.775 66.051 362.775 53.4694ZM434.775 28.8367L424.969 42.2755C420.275 32.8877 415.785 28.949 410.469 28.949C407.265 28.949 403.112 30.8673 403.112 34.1734C403.112 45.3979 436.479 38.1122 435.846 62.8571C435.52 71.8061 426.887 80.2041 411.958 80.2041C398.948 80.2041 388.081 73.6939 385.428 71.3469L396.948 59.3061C403.346 69.3265 408.571 73.8061 413.683 73.8061C416.346 73.8061 421.04 72.6326 421.152 67.4081C421.152 55.3571 388.203 65.0612 388.305 40.8775C388.305 29.4694 397.795 22.5102 412.938 22.5102C424.856 22.551 432.54 26.7041 434.775 28.8367Z" fill="#371200"/>
</svg>
