<svg width="100" height="100" viewBox="0 0 100 100" fill="none" xmlns="http://www.w3.org/2000/svg">
<path d="M56.42 8H43.26C32.0543 8.01324 21.3115 12.4712 13.3888 20.3958C5.46605 28.3204 1.01059 39.0643 1 50.27C1.01323 61.474 5.46986 72.2153 13.3923 80.1377C21.3147 88.0601 32.056 92.5168 43.26 92.53H56.47C67.6757 92.5194 78.4196 88.064 86.3442 80.1412C94.2688 72.2185 98.7268 61.4757 98.74 50.27C98.7294 39.0539 94.2657 28.3009 86.33 20.3746C78.3943 12.4483 67.6361 7.99735 56.42 8ZM6.23 50.27C6.23 40.457 10.1282 31.0459 17.067 24.1071C24.0059 17.1682 33.417 13.27 43.23 13.27C45.297 13.27 47.361 13.44 49.4 13.78C58.0318 15.2076 65.8735 19.6615 71.5207 26.344C77.1679 33.0264 80.2517 41.501 80.22 50.25C80.21 55.8682 78.2143 61.3021 74.5856 65.5914C70.957 69.8806 65.9289 72.7491 60.39 73.69C64.0795 70.9963 67.0805 67.4691 69.1485 63.3958C71.2164 59.3225 72.2928 54.8182 72.29 50.25C72.3012 43.8051 70.1653 37.5401 66.2194 32.4443C62.2735 27.3485 56.7426 23.7123 50.5 22.11C48.1255 21.4963 45.6825 21.1872 43.23 21.19C35.5357 21.2138 28.1641 24.285 22.729 29.7314C17.2939 35.1778 14.2379 42.5556 14.23 50.25C14.2103 57.3903 16.005 64.4185 19.4456 70.6752C22.8861 76.9319 27.8599 82.212 33.9 86.02C25.9948 83.9442 18.9979 79.3127 13.9987 72.8467C8.99958 66.3807 6.27878 58.4431 6.26 50.27H6.23ZM49.82 27.44C54.7721 28.8662 59.1256 31.865 62.223 35.9835C65.3205 40.1021 66.9937 45.1167 66.99 50.27C66.9916 55.4216 65.3173 60.4339 62.22 64.5505C59.1227 68.667 54.7704 71.6643 49.82 73.09C44.8696 71.6643 40.5173 68.667 37.42 64.5505C34.3227 60.4339 32.6484 55.4216 32.65 50.27C32.6463 45.1167 34.3195 40.1021 37.417 35.9835C40.5144 31.865 44.8679 28.8662 49.82 27.44ZM56.42 87.25H56.27C54.2597 87.239 52.2534 87.0685 50.27 86.74C41.8519 85.344 34.1801 81.0675 28.5658 74.6416C22.9516 68.2157 19.7435 60.0393 19.49 51.51V50.27C19.4963 44.6507 21.4906 39.2149 25.1199 34.9249C28.7492 30.6348 33.7794 27.7673 39.32 26.83C35.6286 29.5226 32.6257 33.0493 30.556 37.1227C28.4863 41.1961 27.4083 45.7009 27.41 50.27C27.4008 56.7132 29.5377 62.976 33.4835 68.0698C37.4292 73.1636 42.959 76.7982 49.2 78.4C51.573 79.018 54.017 79.328 56.47 79.32C64.173 79.3121 71.5584 76.2492 77.0062 70.8033C82.454 65.3574 85.5194 57.973 85.53 50.27C85.5523 43.1292 83.7588 36.1 80.3179 29.8428C76.8771 23.5857 71.902 18.306 65.86 14.5C73.7634 16.5784 80.7564 21.2148 85.7475 27.6857C90.7386 34.1566 93.447 42.0979 93.45 50.27C93.4472 55.1297 92.4872 59.9413 90.6247 64.4299C88.7621 68.9186 86.0336 72.9963 82.595 76.4303C79.1563 79.8644 75.0749 82.5873 70.5837 84.4438C66.0926 86.3003 61.2797 87.2538 56.42 87.25Z" fill="#FC5200"/>
</svg>
