<svg width="90" height="90" viewBox="0 0 90 90" fill="none" xmlns="http://www.w3.org/2000/svg">
<path d="M63.6947 42.803C64.2787 42.7332 64.838 42.7301 65.352 42.803C65.6495 42.1206 65.7006 40.9443 65.4331 39.6635C65.0354 37.7595 64.497 36.6073 63.3843 36.7867C62.2719 36.9661 62.2309 38.3454 62.6285 40.2494C62.8523 41.3202 63.2508 42.2357 63.6947 42.803Z" fill="#000008"/>
<path d="M54.1528 44.3119L54.2778 44.3669C55.0001 44.6847 55.4481 44.8818 55.6295 44.6903C55.7525 44.5638 55.7158 44.3232 55.5257 44.0128C55.133 43.3715 54.3249 42.7211 53.4675 42.3559C51.7138 41.6013 49.6231 41.852 48.0099 43.0112C47.4773 43.4015 46.9722 43.9421 47.0447 44.2703C47.068 44.3765 47.1479 44.4564 47.3346 44.4824C47.5072 44.5021 47.8491 44.3942 48.3079 44.2494C49.0161 44.0259 50.0029 43.7145 51.0752 43.6489C52.3232 43.5723 53.3569 43.9626 54.1528 44.3119Z" fill="#000008"/>
<path d="M50.5716 46.0463C50.9386 45.7282 51.5107 45.3866 52.5472 45.2228C53.9749 45.0532 55.0217 45.7193 55.2645 46.1133C55.3692 46.2823 55.3278 46.3934 55.2942 46.4445C55.1825 46.6189 54.9455 46.5923 54.4501 46.5366L54.4126 46.5324C53.4692 46.4249 52.5175 46.3625 51.0748 46.8789C51.0748 46.8789 50.5501 47.0892 50.316 47.0892C50.2489 47.0892 50.1929 47.0662 50.1455 47.0243C50.1109 46.9952 50.0671 46.9367 50.0662 46.8357C50.0647 46.6227 50.2581 46.3202 50.5716 46.0463Z" fill="#000008"/>
<path d="M60.4772 48.5777C61.1813 48.9236 61.9563 48.7877 62.2086 48.2743C62.4608 47.761 62.0947 47.0646 61.3907 46.7187C60.6866 46.3728 59.9116 46.5084 59.6593 47.0217C59.4071 47.5351 59.7732 48.2318 60.4772 48.5777Z" fill="#000008"/>
<path d="M63.945 46.0254C63.9581 45.2411 64.4329 44.6133 65.0044 44.6228C65.5765 44.6326 66.0292 45.276 66.0161 46.0606C66.0026 46.8445 65.5285 47.4724 64.9563 47.4629C64.3845 47.4531 63.9318 46.8096 63.945 46.0254Z" fill="#000008"/>
<path d="M25.9907 58.6929L25.9879 58.6936C25.8306 58.7301 25.6525 58.7716 25.4574 58.7679C25.0368 58.7599 24.6805 58.5803 24.4807 58.2729C24.2202 57.8728 24.2352 57.2765 24.5226 56.5933C24.5594 56.5063 24.6023 56.4099 24.6489 56.3052L24.6567 56.2878C25.1155 55.2587 25.8832 53.5365 25.0212 51.8951C24.3726 50.66 23.3147 49.8907 22.0428 49.7291C20.8215 49.5745 19.5643 50.0272 18.7626 50.9122C17.4975 52.3078 17.2997 54.2069 17.5443 54.8779C17.634 55.1237 17.7742 55.1916 17.8761 55.2057C18.0913 55.2348 18.4097 55.0781 18.6089 54.5417C18.6233 54.5032 18.6423 54.4432 18.6662 54.3673C18.7549 54.0835 18.9202 53.5558 19.1915 53.1324C19.5181 52.6218 20.0268 52.2704 20.6243 52.1425C21.2329 52.0124 21.8546 52.1281 22.3753 52.4691C23.2614 53.0491 23.6027 54.1352 23.2244 55.1714C23.0288 55.7071 22.7111 56.7317 22.7812 57.5735C22.9229 59.2779 23.971 59.962 24.9126 60.0346C25.8281 60.0692 26.4682 59.5555 26.6298 59.1796C26.7256 58.9574 26.6448 58.8221 26.5931 58.7642C26.4508 58.5858 26.2168 58.6403 25.9907 58.6929Z" fill="#000008"/>
<path fill-rule="evenodd" clip-rule="evenodd" d="M79.4093 55.5762C79.4185 55.6091 79.4252 55.6332 79.4293 55.6476C80.576 55.6476 82.3765 56.9675 82.3765 60.1526C82.3765 63.3218 81.0615 66.9118 80.7517 67.7086C76.0141 79.062 64.7078 85.3822 51.2388 84.9821C38.6824 84.609 27.9733 77.9829 23.2865 67.1821C20.4523 67.1843 17.5317 65.9387 15.3103 63.9707C12.9704 61.8978 11.5265 59.2147 11.2455 56.4156C11.0264 54.2367 11.2945 52.2103 11.9774 50.4416L9.34492 48.2119C-2.6988 38.042 34.9721 -3.83084 47.0207 6.67854C47.0813 6.7315 51.1194 10.6935 51.1292 10.7033C51.1417 10.697 52.4983 10.1216 53.0936 9.86908C53.2592 9.79883 53.3659 9.75356 53.3684 9.7525C63.9361 5.37665 72.5113 7.48942 72.5217 14.4721C72.5272 18.1029 70.2137 22.3355 66.5074 26.1775C67.8503 27.4239 68.9262 29.3723 69.5439 31.5987C70.0622 33.244 70.154 34.9138 70.2008 35.9837C70.2453 37.0024 70.2928 38.9537 70.3205 40.0908C70.333 40.6054 70.3415 40.9532 70.3438 40.9724C70.3962 40.9882 70.7515 41.0864 71.112 41.186C71.3986 41.2652 71.6884 41.3452 71.8321 41.3856C74.6684 42.1818 76.6869 43.2428 77.6735 44.279C78.6607 45.3149 79.1501 46.3171 79.3277 47.4934C79.4939 48.4418 79.4719 50.1171 78.2205 51.9905C78.2205 51.9905 78.5434 52.6946 78.8554 53.6943C79.1308 54.5773 79.3401 55.3279 79.4093 55.5762ZM50.1659 60.9017L50.1647 60.8998L50.1675 60.9054L50.1659 60.9017ZM74.9443 70.2913C77.4757 67.6456 78.9821 64.7697 79.5667 61.2258C79.8542 59.3292 79.4336 58.5954 78.86 58.2428C78.2533 57.869 77.5272 57.9991 77.5272 57.9991C77.5272 57.9991 77.1957 55.7312 76.2574 53.6704C73.4762 55.8656 69.895 57.408 67.1686 58.1908C64.0224 59.0938 59.7648 59.7877 55.0146 59.5046C54.4971 59.4629 54.014 59.3997 53.5667 59.3412C51.7363 59.1017 50.5067 58.9408 49.9798 60.6537C56 62.8577 62.3728 61.9143 62.3728 61.9143C62.4959 61.9017 62.6061 61.9914 62.6186 62.1148C62.6287 62.2149 62.5678 62.3162 62.4793 62.3536C62.4793 62.3536 57.5844 64.6261 49.8102 62.2219C50.0263 64.0454 51.8033 64.8627 52.6524 65.193C53.721 65.609 54.8916 65.8013 54.8916 65.8013C64.5247 67.4582 73.5307 61.9501 75.5583 60.5628C75.7104 60.459 75.8111 60.5601 75.689 60.7443C75.5721 60.921 75.5647 60.9314 75.4903 61.0272C73.009 64.2285 66.3372 67.9355 57.6572 67.9339C53.8713 67.9333 50.0876 66.5996 48.6985 64.5502C46.5432 61.3706 48.5919 56.7291 52.1832 57.2127C52.1874 57.2134 53.4119 57.352 53.7562 57.3906C58.2459 57.8905 64.7442 57.2611 70.1004 54.7749C75.0006 52.5005 76.8519 49.9971 76.574 47.9707C76.4984 47.4249 76.2544 46.8524 75.7294 46.314C74.8491 45.452 73.4523 44.781 71.0965 44.1195C70.9434 44.0765 70.7999 44.0366 70.6639 43.9988C70.109 43.8443 69.6784 43.7245 69.2216 43.5743C68.2099 43.2413 67.7101 42.9731 67.5968 41.0709C67.5472 40.2392 67.4024 37.3413 67.3501 36.1438C67.2579 34.0457 67.0054 31.1778 65.2257 29.9934C64.762 29.6849 64.2462 29.5361 63.7044 29.507C63.2682 29.4866 63.0108 29.5473 62.8738 29.5796C62.8441 29.5866 62.82 29.5923 62.801 29.5955C61.8406 29.7581 61.2519 30.2504 60.5575 30.8311C60.5174 30.8646 60.477 30.8985 60.4361 30.9326C58.2165 32.7821 56.3419 33.0851 54.2579 32.9951C53.6092 32.9679 52.9401 32.9022 52.2341 32.8329C51.5851 32.7692 50.9048 32.7025 50.1803 32.6596C50.1198 32.6561 50.0593 32.6524 49.9987 32.6488C49.7645 32.6348 49.5299 32.6207 49.2957 32.6088C45.8048 32.4301 42.0609 35.4449 41.4389 39.7259C40.7444 44.503 43.3798 47.4294 45.0945 49.3334C45.5188 49.8046 45.8868 50.2132 46.1339 50.5717C46.2931 50.7878 46.4767 51.0927 46.4767 51.3817C46.4767 51.7272 46.253 52.0018 46.0332 52.2351L46.0335 52.2369C42.4726 55.8989 41.3333 61.7165 42.6752 66.5656C42.8427 67.1714 43.0551 67.7506 43.3061 68.3037C46.4556 75.6623 56.2238 79.0889 65.7666 75.9721C67.0452 75.5546 68.2555 75.0381 69.3921 74.4409C71.5327 73.3922 73.4036 71.9501 74.9443 70.2913ZM45.2477 19.331C41.955 21.0155 38.2786 24.0157 35.2926 27.4665C35.187 27.5883 35.3437 27.7607 35.4738 27.6658C38.0533 25.7899 41.5889 24.0454 46.2208 22.9155C51.4093 21.6501 56.4044 22.1806 59.4559 22.88C59.6084 22.9149 59.7057 22.6508 59.5692 22.5739C57.5526 21.4432 54.4581 20.6748 52.2631 20.6592C52.155 20.6586 52.0941 20.5334 52.1587 20.4465C52.5386 19.9362 53.0583 19.4314 53.5337 19.0668C53.6405 18.9851 53.5756 18.8127 53.4413 18.821C50.3153 19.0132 46.7516 20.5095 44.7029 21.9063C44.6018 21.9752 44.4714 21.8849 44.4962 21.7652C44.6557 20.9956 45.1593 19.9821 45.4207 19.5085C45.4825 19.3965 45.3616 19.2728 45.2477 19.331ZM13.2352 48.0524C14.6923 45.9356 17.075 44.4033 19.7788 43.8777C23.221 34.6399 28.9672 26.1269 36.5742 20.2698C42.2194 15.5616 48.3073 12.1839 48.3073 12.1839C48.3073 12.1839 45.0279 8.38174 44.0383 8.10164C37.948 6.45569 24.7922 15.5285 16.3927 27.5155C12.9937 32.3658 8.12846 40.9543 10.4549 45.3718C10.7414 45.9197 12.364 47.326 13.2352 48.0524ZM23.0744 64.2361C23.4953 64.2459 23.9128 64.2184 24.3221 64.1486C28.7238 63.398 29.8763 58.6175 29.1509 53.9227C28.3314 48.6218 24.7457 46.753 22.3122 46.6198C21.6357 46.5846 21.0082 46.6449 20.489 46.7496C16.1457 47.6254 13.6928 51.3204 14.1756 56.1212C14.6121 60.4646 19.0062 64.1269 23.0744 64.2361Z" fill="#000008"/>
</svg>
