<svg width="90" height="90" viewBox="0 0 90 90" fill="none" xmlns="http://www.w3.org/2000/svg">
<path d="M77 5H13C8.58172 5 5 8.58172 5 13V77C5 81.4183 8.58172 85 13 85H77C81.4183 85 85 81.4183 85 77V13C85 8.58172 81.4183 5 77 5Z" fill="#6D00CC"/>
<path d="M55.8479 28.9014C55.7004 28.9014 55.5543 28.9305 55.418 28.987C55.2817 29.0435 55.1579 29.1263 55.0537 29.2306C54.9494 29.335 54.8667 29.4588 54.8103 29.5952C54.7539 29.7315 54.725 29.8776 54.7251 30.0251V60.055C54.725 60.3529 54.8432 60.6386 55.0538 60.8493C55.2644 61.0601 55.55 61.1785 55.8479 61.1787H63.9827C64.1303 61.1787 64.2763 61.1496 64.4126 61.0931C64.5489 61.0366 64.6727 60.9538 64.777 60.8495C64.8812 60.7451 64.9639 60.6212 65.0203 60.4849C65.0767 60.3486 65.1056 60.2025 65.1055 60.055V30.0251C65.1057 29.8776 65.0768 29.7314 65.0205 29.5951C64.9641 29.4587 64.8814 29.3348 64.7772 29.2304C64.6729 29.1261 64.549 29.0433 64.4127 28.9868C64.2764 28.9303 64.1303 28.9013 63.9827 28.9014H55.8479ZM31.9863 29.2981L18.5026 56.1281C18.3687 56.3943 18.3461 56.7027 18.4396 56.9856C18.5331 57.2685 18.7352 57.5026 19.0013 57.6365L26.2691 61.2895C26.401 61.3559 26.5446 61.3956 26.6918 61.4064C26.8391 61.4172 26.987 61.3988 27.1271 61.3524C27.2672 61.3059 27.3968 61.2323 27.5084 61.1357C27.62 61.0391 27.7115 60.9215 27.7776 60.7895L41.262 33.9596C41.3283 33.8278 41.368 33.6842 41.3788 33.5369C41.3896 33.3897 41.3713 33.2418 41.3248 33.1017C41.2784 32.9616 41.2048 32.832 41.1082 32.7204C41.0116 32.6088 40.8939 32.5173 40.762 32.4512L33.4946 28.7986C33.2282 28.6652 32.9198 28.6429 32.637 28.7367C32.3542 28.8304 32.1202 29.0325 31.9862 29.2986M43.3287 29.3945L37.559 58.6407C37.5013 58.9323 37.5616 59.2348 37.7265 59.4821C37.8914 59.7293 38.1476 59.9011 38.439 59.9598L46.4121 61.5701C46.5573 61.5993 46.7067 61.5995 46.852 61.5707C46.9972 61.542 47.1353 61.4849 47.2584 61.4026C47.3815 61.3204 47.4872 61.2147 47.5694 61.0915C47.6515 60.9684 47.7086 60.8302 47.7373 60.685L53.5073 31.4392C53.5649 31.1475 53.5045 30.8449 53.3394 30.5977C53.1743 30.3504 52.9179 30.1787 52.6265 30.1201L44.653 28.5098C44.5796 28.4951 44.505 28.4876 44.4301 28.4873C44.17 28.4877 43.9181 28.5782 43.7173 28.7434C43.5165 28.9087 43.3792 29.1384 43.3288 29.3936" fill="white"/>
</svg>
