<svg width="364" height="100" viewBox="0 0 364 100" fill="none" xmlns="http://www.w3.org/2000/svg">
<path d="M134.851 70.558C134.752 70.2609 134.613 69.852 134.433 69.3319C134.254 68.8118 134.065 68.2728 133.867 67.7156C133.669 67.1577 133.483 66.6195 133.31 66.0994C133.136 65.5786 133.006 65.1582 132.919 64.8355H132.901C132.827 65.1333 132.718 65.5015 132.576 65.9414C132.433 66.3806 132.272 66.8576 132.093 67.3717C131.913 67.8857 131.727 68.4187 131.535 68.9698C131.343 69.5208 131.16 70.05 130.987 70.558H134.851ZM130.559 71.9883L129.222 75.7416C129.197 75.8156 129.148 75.8527 129.073 75.8527H127.81C127.711 75.8527 127.674 75.8035 127.699 75.7038L131.749 64.4273C131.774 64.3524 131.798 64.2693 131.823 64.1763C131.848 64.0833 131.866 63.9132 131.879 63.6653C131.879 63.6033 131.91 63.5723 131.972 63.5723H133.793C133.854 63.5723 133.891 63.6033 133.904 63.6653L138.269 75.7227C138.307 75.8096 138.281 75.8527 138.195 75.8527H136.783C136.721 75.8527 136.672 75.8217 136.635 75.7597L135.279 71.9883H130.559Z" fill="#4E4E4E"/>
<path d="M139.849 68.9229C139.849 68.7619 139.845 68.5827 139.839 68.3839C139.833 68.1866 139.827 67.9939 139.821 67.8087C139.814 67.6227 139.808 67.4496 139.802 67.2878C139.796 67.1275 139.787 67.0096 139.774 66.9355C139.774 66.8607 139.811 66.8236 139.886 66.8236H141.038C141.112 66.8236 141.168 66.8607 141.205 66.9355C141.23 67.0217 141.249 67.1457 141.261 67.3067C141.273 67.4677 141.292 67.6537 141.317 67.8638C142.134 67.0467 143.082 66.6377 144.159 66.6377C144.493 66.6377 144.837 66.6876 145.19 66.7866C145.543 66.8856 145.868 67.0686 146.165 67.3347C146.462 67.6008 146.707 67.9659 146.899 68.4308C147.091 68.895 147.187 69.4929 147.187 70.2232V75.7227C147.187 75.8096 147.143 75.8527 147.057 75.8527H145.756C145.67 75.8527 145.626 75.8036 145.626 75.7038V70.3721C145.626 69.666 145.471 69.0968 145.162 68.6629C144.852 68.2297 144.369 68.0128 143.713 68.0128C143.242 68.0128 142.812 68.1118 142.422 68.3098C142.032 68.5079 141.688 68.7869 141.391 69.1459V75.7227C141.391 75.8096 141.354 75.8527 141.28 75.8527H139.96C139.886 75.8527 139.849 75.8096 139.849 75.7227V68.9229Z" fill="#4E4E4E"/>
<path d="M160.079 70.558C159.98 70.2609 159.841 69.852 159.661 69.3319C159.482 68.8118 159.293 68.2728 159.095 67.7156C158.897 67.1577 158.711 66.6195 158.538 66.0994C158.364 65.5786 158.234 65.1582 158.147 64.8355H158.129C158.055 65.1333 157.946 65.5015 157.804 65.9414C157.661 66.3806 157.5 66.8576 157.321 67.3717C157.141 67.8857 156.955 68.4187 156.764 68.9698C156.571 69.5208 156.389 70.05 156.216 70.558H160.079ZM155.788 71.9883L154.451 75.7416C154.426 75.8156 154.377 75.8527 154.302 75.8527H153.039C152.94 75.8527 152.903 75.8035 152.927 75.7038L156.977 64.4273C157.002 64.3524 157.026 64.2693 157.051 64.1763C157.076 64.0833 157.095 63.9132 157.107 63.6653C157.107 63.6033 157.138 63.5723 157.2 63.5723H159.021C159.082 63.5723 159.119 63.6033 159.132 63.6653L163.498 75.7227C163.536 75.8096 163.51 75.8527 163.424 75.8527H162.012C161.95 75.8527 161.901 75.8217 161.864 75.7597L160.507 71.9883H155.788Z" fill="#4E4E4E"/>
<path d="M170.596 68.1618C170.448 68.0998 170.268 68.0529 170.057 68.0219C169.847 67.9917 169.624 67.9758 169.389 67.9758C168.856 67.9758 168.379 68.059 167.958 68.2268C167.536 68.3939 167.177 68.629 166.88 68.9321C166.583 69.236 166.353 69.5921 166.193 70.001C166.031 70.4092 165.951 70.8552 165.951 71.3383C165.951 71.9453 166.038 72.4594 166.211 72.8804C166.384 73.3015 166.62 73.6454 166.917 73.9116C167.214 74.1776 167.552 74.3727 167.93 74.4967C168.308 74.6206 168.701 74.6826 169.11 74.6826C169.358 74.6826 169.614 74.6667 169.881 74.6357C170.147 74.6055 170.385 74.5405 170.596 74.4407V68.1618ZM168.961 76.0388C168.317 76.0388 167.716 75.9428 167.159 75.7508C166.601 75.5588 166.115 75.2677 165.7 74.8777C165.285 74.4876 164.96 74.0045 164.725 73.4285C164.49 72.8525 164.372 72.1804 164.372 71.4124C164.372 70.7313 164.493 70.1001 164.734 69.518C164.976 68.9359 165.32 68.4309 165.765 68.0038C166.211 67.5759 166.743 67.2418 167.363 67.0006C167.982 66.7587 168.67 66.6378 169.426 66.6378C169.686 66.6378 169.902 66.6506 170.076 66.6749C170.249 66.6998 170.422 66.7247 170.596 66.7497V62.6434C170.596 62.5693 170.633 62.5322 170.708 62.5322H172.045C172.119 62.5322 172.157 62.5632 172.157 62.6252V74.7567C172.157 74.9056 172.169 75.0606 172.194 75.2208C172.194 75.2836 172.163 75.3267 172.101 75.3509C171.568 75.5988 171.042 75.7757 170.522 75.8808C170.002 75.9859 169.482 76.0388 168.961 76.0388Z" fill="#4E4E4E"/>
<path d="M178.305 67.9757C177.909 67.9757 177.55 68.0566 177.228 68.2169C176.906 68.3779 176.63 68.6047 176.401 68.895C176.172 69.186 175.993 69.536 175.863 69.945C175.732 70.3539 175.667 70.806 175.667 71.3011C175.667 71.7721 175.729 72.2143 175.853 72.6294C175.977 73.0444 176.153 73.4065 176.383 73.7164C176.612 74.0256 176.896 74.2675 177.237 74.4406C177.578 74.6145 177.971 74.7006 178.417 74.7006C178.751 74.7006 179.073 74.6356 179.383 74.5056C179.692 74.3756 179.971 74.1715 180.219 73.8925C180.466 73.6143 180.664 73.2674 180.813 72.8524C180.962 72.4373 181.036 71.9392 181.036 71.3571C181.036 70.9232 180.983 70.5051 180.878 70.103C180.773 69.7008 180.612 69.341 180.395 69.025C180.178 68.7097 179.896 68.4558 179.55 68.2637C179.203 68.0717 178.788 67.9757 178.305 67.9757ZM178.38 66.6377C179.036 66.6377 179.624 66.7556 180.144 66.9907C180.664 67.2266 181.107 67.5547 181.473 67.9757C181.838 68.3968 182.12 68.8919 182.318 69.4619C182.516 70.0319 182.615 70.651 182.615 71.3193C182.615 72.0253 182.51 72.6694 182.299 73.2515C182.089 73.8343 181.798 74.3295 181.426 74.7377C181.055 75.1467 180.609 75.4657 180.089 75.6947C179.569 75.9238 178.999 76.0387 178.38 76.0387C177.637 76.0387 176.996 75.9019 176.457 75.6297C175.918 75.3576 175.475 74.9985 175.128 74.5525C174.782 74.1065 174.524 73.6015 174.357 73.0383C174.19 72.4744 174.106 71.9082 174.106 71.3382C174.106 70.682 174.205 70.0689 174.404 69.499C174.602 68.9297 174.887 68.4308 175.259 68.0037C175.63 67.5758 176.079 67.2417 176.606 67.0006C177.132 66.7586 177.723 66.6377 178.38 66.6377Z" fill="#4E4E4E"/>
<path d="M190.77 71.1153C190.77 70.162 190.51 69.4031 189.989 68.8399C189.469 68.2759 188.763 67.994 187.871 67.994C187.475 67.994 187.141 68.0219 186.868 68.0779C186.596 68.1338 186.342 68.2109 186.107 68.3099V74.5526C186.28 74.6146 186.466 74.6546 186.664 74.6728C186.862 74.6917 187.085 74.7007 187.333 74.7007C187.779 74.7007 188.209 74.6267 188.624 74.4777C189.038 74.3296 189.404 74.1066 189.72 73.8095C190.036 73.5116 190.29 73.1374 190.482 72.6854C190.674 72.2333 190.77 71.7102 190.77 71.1153ZM185.977 62.5322C186.026 62.5322 186.06 62.5353 186.079 62.5413C186.097 62.5481 186.107 62.5821 186.107 62.6434V67.0097C186.713 66.7618 187.382 66.6378 188.113 66.6378C188.757 66.6378 189.339 66.7466 189.859 66.9628C190.38 67.1798 190.826 67.4837 191.197 67.8738C191.569 68.2638 191.854 68.7219 192.052 69.2481C192.25 69.775 192.349 70.354 192.349 70.9853C192.349 71.8274 192.203 72.5614 191.913 73.1866C191.622 73.8125 191.238 74.3387 190.761 74.7658C190.284 75.1936 189.735 75.5126 189.116 75.7228C188.497 75.9329 187.859 76.0388 187.203 76.0388C186.732 76.0388 186.289 76.0108 185.875 75.9549C185.459 75.8989 185.054 75.8037 184.658 75.6668C184.583 75.6548 184.546 75.5988 184.546 75.4998V62.6434C184.546 62.5693 184.59 62.5322 184.676 62.5322H185.977Z" fill="#4E4E4E"/>
<path d="M198.833 70.3721C199.292 70.3721 199.598 70.3691 199.753 70.363C199.908 70.357 199.998 70.3471 200.023 70.335C200.035 70.3101 200.041 70.2761 200.041 70.233V70.1309C200.041 69.9699 200.01 69.762 199.948 69.508C199.886 69.2548 199.772 69.0099 199.605 68.7748C199.437 68.5396 199.211 68.3378 198.926 68.1708C198.641 68.0037 198.282 67.9198 197.849 67.9198C197.465 67.9198 197.127 67.9878 196.836 68.1239C196.545 68.2607 196.298 68.4429 196.093 68.672C195.889 68.9018 195.728 69.1648 195.61 69.4619C195.492 69.759 195.415 70.0629 195.378 70.3721H198.833ZM195.36 71.5241C195.36 71.9702 195.421 72.3852 195.545 72.7684C195.669 73.1525 195.861 73.4874 196.121 73.7716C196.381 74.0573 196.706 74.2796 197.096 74.4406C197.486 74.6016 197.942 74.6825 198.462 74.6825C198.871 74.6825 199.27 74.6424 199.66 74.5616C200.051 74.4814 200.425 74.3544 200.785 74.1805C200.847 74.1435 200.878 74.1685 200.878 74.2546V75.3137C200.878 75.4007 200.847 75.4627 200.785 75.4997C200.462 75.6607 200.094 75.7907 199.679 75.8898C199.264 75.9888 198.759 76.0387 198.165 76.0387C197.359 76.0387 196.678 75.9056 196.121 75.6388C195.564 75.3727 195.115 75.0197 194.774 74.5804C194.434 74.1405 194.186 73.6453 194.031 73.0935C193.876 72.5432 193.799 71.9823 193.799 71.4123C193.799 70.769 193.892 70.1559 194.078 69.573C194.264 68.991 194.533 68.4837 194.886 68.0498C195.239 67.6166 195.669 67.2727 196.177 67.0187C196.685 66.7647 197.26 66.6377 197.904 66.6377C198.573 66.6377 199.137 66.7586 199.595 67.0005C200.054 67.2417 200.425 67.5456 200.71 67.9107C200.995 68.2758 201.203 68.6788 201.333 69.118C201.463 69.5579 201.528 69.976 201.528 70.3721C201.528 70.608 201.521 70.806 201.509 70.967C201.497 71.128 201.478 71.252 201.453 71.3382C201.453 71.4123 201.41 71.4493 201.323 71.4493C201.187 71.475 200.936 71.4932 200.571 71.5053C200.206 71.5181 199.818 71.5241 199.409 71.5241H195.36Z" fill="#4E4E4E"/>
<path d="M216.018 75.4998C216.018 75.6117 215.987 75.6737 215.925 75.6857C215.616 75.8218 215.25 75.9148 214.829 75.9639C214.408 76.0138 213.937 76.0388 213.417 76.0388C212.637 76.0388 211.872 75.9208 211.123 75.6857C210.373 75.4507 209.704 75.0787 209.116 74.5707C208.528 74.0635 208.051 73.4066 207.686 72.6015C207.321 71.7964 207.138 70.8242 207.138 69.685C207.138 68.756 207.293 67.9048 207.602 67.1307C207.912 66.3566 208.348 65.6936 208.912 65.1425C209.475 64.5914 210.159 64.1613 210.965 63.8514C211.77 63.5422 212.667 63.3872 213.659 63.3872C214.29 63.3872 214.792 63.4182 215.164 63.4794C215.535 63.5422 215.826 63.6223 216.037 63.7213C216.099 63.7463 216.13 63.7954 216.13 63.8695V65.1146C216.13 65.2015 216.086 65.2325 216 65.2075C215.467 64.9225 214.674 64.7804 213.621 64.7804C212.89 64.7804 212.225 64.8946 211.624 65.1236C211.023 65.3534 210.506 65.6785 210.073 66.0996C209.639 66.5206 209.305 67.0317 209.07 67.6319C208.835 68.2328 208.717 68.9049 208.717 69.648C208.717 70.6141 208.878 71.4192 209.2 72.0625C209.522 72.7073 209.927 73.2176 210.417 73.5956C210.906 73.9735 211.435 74.2396 212.005 74.3946C212.574 74.5496 213.101 74.6267 213.584 74.6267C214.055 74.6267 214.473 74.6055 214.839 74.5617C215.204 74.5186 215.56 74.4286 215.907 74.2925C215.981 74.2797 216.018 74.3046 216.018 74.3666V75.4998Z" fill="#4E4E4E"/>
<path d="M221.405 67.9757C221.008 67.9757 220.649 68.0566 220.327 68.2169C220.005 68.3779 219.729 68.6047 219.5 68.895C219.271 69.186 219.092 69.536 218.962 69.945C218.832 70.3539 218.767 70.806 218.767 71.3011C218.767 71.7721 218.828 72.2143 218.952 72.6294C219.076 73.0444 219.252 73.4065 219.482 73.7164C219.711 74.0256 219.995 74.2675 220.336 74.4406C220.677 74.6145 221.07 74.7006 221.516 74.7006C221.851 74.7006 222.173 74.6356 222.483 74.5056C222.792 74.3756 223.071 74.1715 223.319 73.8925C223.566 73.6143 223.764 73.2674 223.913 72.8524C224.062 72.4373 224.136 71.9392 224.136 71.3571C224.136 70.9232 224.083 70.5051 223.978 70.103C223.873 69.7008 223.712 69.341 223.495 69.025C223.278 68.7097 222.996 68.4558 222.65 68.2637C222.303 68.0717 221.888 67.9757 221.405 67.9757ZM221.479 66.6377C222.136 66.6377 222.724 66.7556 223.244 66.9907C223.764 67.2266 224.207 67.5547 224.573 67.9757C224.938 68.3968 225.219 68.8919 225.418 69.4619C225.616 70.0319 225.715 70.651 225.715 71.3193C225.715 72.0253 225.61 72.6694 225.399 73.2515C225.188 73.8343 224.898 74.3295 224.526 74.7377C224.155 75.1467 223.709 75.4657 223.189 75.6947C222.669 75.9238 222.099 76.0387 221.479 76.0387C220.736 76.0387 220.095 75.9019 219.556 75.6297C219.017 75.3576 218.574 74.9985 218.228 74.5525C217.881 74.1065 217.624 73.6015 217.457 73.0383C217.29 72.4744 217.206 71.9082 217.206 71.3382C217.206 70.682 217.305 70.0689 217.503 69.499C217.701 68.9297 217.986 68.4308 218.358 68.0037C218.729 67.5758 219.178 67.2417 219.705 67.0006C220.231 66.7586 220.823 66.6377 221.479 66.6377Z" fill="#4E4E4E"/>
<path d="M227.759 75.8527C227.684 75.8527 227.647 75.8096 227.647 75.7227V68.7748C227.647 68.3658 227.641 68.0007 227.629 67.6786C227.616 67.3566 227.598 67.1086 227.573 66.9355C227.573 66.8607 227.61 66.8236 227.684 66.8236H228.855C228.917 66.8236 228.966 66.8546 229.003 66.9166C229.028 67.0157 229.05 67.1517 229.068 67.3256C229.087 67.4987 229.103 67.6597 229.115 67.8087C229.945 67.0278 230.874 66.6377 231.902 66.6377C233.041 66.6377 233.865 67.0905 234.373 67.9939C234.769 67.6106 235.215 67.2878 235.71 67.0278C236.205 66.7677 236.794 66.6377 237.475 66.6377C237.822 66.6377 238.172 66.6906 238.525 66.7957C238.878 66.9015 239.2 67.0867 239.492 67.3528C239.782 67.6197 240.021 67.9818 240.207 68.4399C240.392 68.8987 240.485 69.4801 240.485 70.1861V75.7416C240.485 75.8157 240.442 75.8527 240.355 75.8527H239.074C238.987 75.8527 238.943 75.8096 238.943 75.7227V70.298C238.943 69.666 238.792 69.127 238.488 68.6818C238.185 68.2358 237.704 68.0128 237.048 68.0128C236.577 68.0128 236.153 68.1088 235.775 68.3008C235.397 68.4928 235.06 68.7559 234.763 69.09C234.788 69.2019 234.809 69.3719 234.828 69.601C234.847 69.8308 234.856 70.0561 234.856 70.2791V75.7227C234.856 75.8096 234.812 75.8527 234.726 75.8527H233.425C233.339 75.8527 233.295 75.8096 233.295 75.7227V70.2421C233.295 69.536 233.138 68.9879 232.822 68.5979C232.506 68.2078 232.044 68.0128 231.438 68.0128C231.004 68.0128 230.611 68.0967 230.258 68.2637C229.905 68.4308 229.549 68.6939 229.189 69.053V75.7416C229.189 75.8157 229.152 75.8527 229.078 75.8527H227.759Z" fill="#4E4E4E"/>
<path d="M246.375 67.9939C246.052 67.9939 245.749 68.0188 245.464 68.0687C245.179 68.1179 244.907 68.1927 244.647 68.2917V74.5895C244.808 74.6387 244.981 74.6704 245.167 74.6825C245.353 74.6946 245.532 74.7006 245.706 74.7006C246.152 74.7006 246.591 74.6296 247.025 74.4875C247.458 74.3454 247.845 74.1284 248.186 73.8374C248.526 73.5463 248.802 73.1744 249.012 72.7223C249.223 72.2703 249.328 71.7351 249.328 71.1152C249.328 70.1619 249.071 69.403 248.557 68.8398C248.043 68.2758 247.316 67.9939 246.375 67.9939ZM246.56 66.6377C247.241 66.6377 247.851 66.7496 248.39 66.9726C248.929 67.1956 249.384 67.5018 249.756 67.8918C250.127 68.2819 250.412 68.7468 250.61 69.285C250.808 69.824 250.907 70.4031 250.907 71.0222C250.907 71.8651 250.755 72.6014 250.452 73.2334C250.148 73.8646 249.746 74.3885 249.245 74.8027C248.743 75.2185 248.173 75.5277 247.536 75.7318C246.898 75.9366 246.251 76.0387 245.595 76.0387C245.384 76.0387 245.207 76.0319 245.065 76.0198C244.922 76.0077 244.783 75.9888 244.647 75.9638V79.6801C244.647 79.7542 244.616 79.7973 244.554 79.8101C244.442 79.8222 244.315 79.8343 244.173 79.8472C244.03 79.8593 243.888 79.8751 243.745 79.8933C243.603 79.9122 243.479 79.9273 243.374 79.9401C243.268 79.9522 243.209 79.9583 243.197 79.9583C243.135 79.9583 243.104 79.9213 243.104 79.8472V68.2728C243.104 68.1866 243.101 68.0589 243.095 67.8918C243.089 67.7248 243.079 67.5796 243.067 67.4556C243.067 67.4178 243.079 67.3937 243.104 67.3808C243.426 67.2576 243.885 67.1026 244.479 66.9166C245.074 66.7307 245.768 66.6377 246.56 66.6377Z" fill="#4E4E4E"/>
<path d="M257.725 71.5423C257.589 71.5181 257.422 71.4992 257.224 71.4871C257.025 71.475 256.784 71.4682 256.499 71.4682C255.595 71.4682 254.923 71.6141 254.484 71.9051C254.044 72.1962 253.824 72.6014 253.824 73.1215C253.824 73.3324 253.861 73.5365 253.936 73.7345C254.01 73.9334 254.137 74.1095 254.316 74.2645C254.496 74.4194 254.725 74.5427 255.004 74.6356C255.282 74.7286 255.626 74.7755 256.035 74.7755C256.654 74.7755 257.217 74.6704 257.725 74.4595V71.5423ZM259.231 74.7286C259.231 74.8715 259.243 75.0166 259.268 75.1656C259.268 75.2026 259.255 75.2275 259.231 75.2396C258.562 75.5617 257.952 75.7756 257.4 75.8807C256.849 75.9858 256.301 76.0387 255.756 76.0387C255.261 76.0387 254.802 75.9767 254.381 75.8527C253.96 75.7287 253.595 75.5458 253.285 75.3046C252.976 75.0635 252.734 74.7596 252.561 74.3945C252.387 74.0294 252.301 73.6045 252.301 73.1215C252.301 72.6263 252.409 72.2022 252.626 71.8492C252.842 71.4962 253.137 71.2021 253.508 70.967C253.88 70.7312 254.316 70.558 254.818 70.4462C255.319 70.335 255.861 70.2791 256.443 70.2791C256.79 70.2791 257.066 70.2821 257.27 70.2882C257.475 70.295 257.626 70.3041 257.725 70.3161V69.8709C257.725 69.722 257.701 69.5428 257.651 69.3319C257.602 69.121 257.502 68.9199 257.354 68.7279C257.205 68.5359 256.994 68.3688 256.722 68.2267C256.449 68.0838 256.084 68.0128 255.626 68.0128C255.18 68.0128 254.756 68.0627 254.354 68.1617C253.951 68.2607 253.589 68.3968 253.267 68.5699C253.18 68.5948 253.137 68.5638 253.137 68.4769V67.3437C253.137 67.2817 253.167 67.2326 253.23 67.1956C253.589 67.0217 253.994 66.8856 254.446 66.7866C254.898 66.6876 255.372 66.6377 255.867 66.6377C256.462 66.6377 256.973 66.7307 257.4 66.9166C257.828 67.1026 258.174 67.3528 258.441 67.6688C258.707 67.9848 258.906 68.3537 259.036 68.7748C259.166 69.1958 259.231 69.6479 259.231 70.1309V74.7286Z" fill="#4E4E4E"/>
<path d="M261.831 68.9229C261.831 68.7619 261.828 68.5827 261.822 68.3839C261.816 68.1866 261.81 67.9939 261.803 67.8087C261.797 67.6227 261.791 67.4496 261.785 67.2878C261.778 67.1275 261.769 67.0096 261.757 66.9355C261.757 66.8607 261.794 66.8236 261.868 66.8236H263.02C263.094 66.8236 263.15 66.8607 263.187 66.9355C263.212 67.0217 263.231 67.1457 263.243 67.3067C263.255 67.4677 263.274 67.6537 263.299 67.8638C264.116 67.0467 265.064 66.6377 266.141 66.6377C266.475 66.6377 266.819 66.6876 267.172 66.7866C267.525 66.8856 267.851 67.0686 268.148 67.3347C268.445 67.6008 268.69 67.9659 268.882 68.4308C269.074 68.895 269.17 69.4929 269.17 70.2232V75.7227C269.17 75.8096 269.126 75.8527 269.04 75.8527H267.739C267.652 75.8527 267.609 75.8036 267.609 75.7038V70.3721C267.609 69.666 267.454 69.0968 267.144 68.6629C266.835 68.2297 266.351 68.0128 265.695 68.0128C265.224 68.0128 264.794 68.1118 264.404 68.3098C264.014 68.5079 263.67 68.7869 263.373 69.1459V75.7227C263.373 75.8096 263.336 75.8527 263.262 75.8527H261.943C261.868 75.8527 261.831 75.8096 261.831 75.7227V68.9229Z" fill="#4E4E4E"/>
<path d="M271.975 66.8237C272.037 66.8237 272.08 66.8547 272.105 66.9167C272.489 67.9448 272.826 68.8489 273.117 69.6291C273.408 70.4092 273.659 71.0843 273.87 71.6543C274.08 72.2242 274.25 72.6975 274.38 73.0754C274.51 73.4534 274.606 73.7475 274.668 73.9576C274.966 73.1034 275.315 72.1154 275.718 70.9943C276.12 69.874 276.606 68.514 277.176 66.9167C277.213 66.8547 277.263 66.8237 277.325 66.8237H278.644C278.731 66.8237 278.755 66.8676 278.718 66.9538C278.371 67.9569 277.996 69.0009 277.594 70.0841C277.191 71.1682 276.774 72.2583 276.34 73.3544C275.907 74.4505 275.464 75.5368 275.012 76.6148C274.56 77.692 274.111 78.7262 273.665 79.7172C273.628 79.7913 273.56 79.8344 273.461 79.8472L272.068 79.9584C271.993 79.9584 271.975 79.9092 272.012 79.8102C272.284 79.2402 272.581 78.5992 272.904 77.887C273.225 77.1749 273.541 76.447 273.851 75.7039C273.888 75.6426 273.888 75.5618 273.851 75.4627C273.777 75.2768 273.665 75.0046 273.517 74.6455C273.368 74.2865 273.198 73.8715 273.006 73.4005C272.814 72.9303 272.606 72.4193 272.384 71.8674C272.161 71.3171 271.934 70.7562 271.705 70.1862C271.476 69.617 271.25 69.053 271.027 68.4959C270.804 67.9388 270.6 67.4179 270.414 66.9356C270.377 66.8608 270.408 66.8237 270.507 66.8237H271.975Z" fill="#4E4E4E"/>
<path d="M102.7 20.3838V66.4219L114.467 57.031V26.7733L102.7 20.3838Z" fill="#5C4C9F"/>
<path d="M97.2401 56.3685L87.7373 60.5114V24.3691L97.2401 27.1961V56.3685Z" fill="#5C4C9F"/>
<path d="M75.0391 55.2978L82.2773 53.4017L82.2828 30.3139L75.0446 29.1665L75.0391 55.2978Z" fill="#5C4C9F"/>
<path d="M153.238 26.7734L143.209 43.238L133.051 26.7734H127.691V57.031H132.749V34.9428L143.08 51.5465L153.454 34.8136V57.031H158.468V26.7734H153.238Z" fill="#1F1646"/>
<path d="M169.95 53.4866C173.063 53.4866 175.224 51.4549 175.224 48.5586V47.392L170.512 48.1698C168.221 48.5586 167.055 49.5524 167.055 51.066C167.097 52.579 168.264 53.4866 169.95 53.4866ZM175.397 57.0308L175.354 54.3074C173.841 56.5121 171.377 57.5495 168.74 57.5495C164.893 57.5495 162.213 55.0427 162.213 51.4549C162.213 47.5212 164.72 45.1874 169.691 44.409L175.18 43.5445V43.1993C175.18 40.951 173.495 39.697 170.599 39.697C167.832 39.697 165.455 40.8643 163.424 42.7237V37.8388C165.282 36.3258 167.832 35.332 170.945 35.332C176.866 35.332 180.065 38.3575 180.065 43.4147V57.0308H175.397Z" fill="#1F1646"/>
<path d="M196.714 40.6487C196.498 40.5188 196.066 40.4757 195.417 40.4757C191.743 40.4757 189.495 43.3289 189.495 47.6945V57.0311H184.524V35.8505H189.452V39.4814C190.49 37.0177 192.997 35.418 195.764 35.418C196.325 35.418 196.627 35.4616 196.714 35.5484V40.6487Z" fill="#1F1646"/>
<path d="M199.918 26.7734V57.031H204.889V48.6457L205.97 47.6513L213.534 57.031H219.672L209.774 45.0578L218.981 35.8504H212.843L204.889 43.8475V26.7734H199.918Z" fill="#1F1646"/>
<path d="M234.831 44.2798C234.529 41.3841 232.454 39.3949 229.471 39.3949C226.445 39.3949 224.241 41.7724 223.895 44.2798H234.831ZM238.505 55.3023C236.301 56.6855 233.491 57.55 230.336 57.55C223.333 57.55 218.924 52.7956 218.924 46.3977C218.924 40.0434 223.333 35.332 229.558 35.332C235.739 35.332 239.716 40.0003 239.716 46.2678C239.716 46.96 239.716 47.3489 239.586 47.9969H223.895C224.284 50.9362 226.704 53.2706 230.682 53.2706C233.361 53.2706 235.955 52.32 238.505 50.4175V55.3023Z" fill="#1F1646"/>
<path d="M252.324 52.9678C253.144 52.9678 254.009 52.7949 254.658 52.3193V56.7716C253.837 57.2473 252.583 57.5494 250.854 57.5494C246.575 57.5494 244.067 54.9565 244.067 50.5041V40.0864H240.307L249.038 28.9614V35.8507H254.658V40.0864H249.038V49.596C249.038 51.9735 250.076 52.9678 252.324 52.9678Z" fill="#1F1646"/>
<path d="M261.143 46.4408C261.143 50.0717 263.909 52.968 267.454 52.968C270.998 52.968 273.765 50.0717 273.765 46.4408C273.765 42.8099 270.998 39.9131 267.454 39.9131C263.909 39.9131 261.143 42.8099 261.143 46.4408ZM278.736 46.4408C278.736 52.6653 273.938 57.5501 267.454 57.5501C260.97 57.5501 256.172 52.6653 256.172 46.4408C256.172 40.2164 260.97 35.3315 267.454 35.3315C273.938 35.3315 278.736 40.2164 278.736 46.4408Z" fill="#1F1646"/>
<path d="M278.878 31.6191H282.708V32.4536H281.248V36.8856H280.338V32.4536H278.878V31.6191Z" fill="#000008"/>
<path d="M284.727 33.0405V36.8856H283.847V31.6191H284.78L286.548 34.305L288.293 31.6191H289.204V36.8856H288.331V33.0185L286.743 35.4262H286.307L284.727 33.0405Z" fill="#000008"/>
</svg>
