<svg width="90" height="90" viewBox="0 0 90 90" fill="none" xmlns="http://www.w3.org/2000/svg">
<path d="M81.7741 22.7112C80.6177 14.1156 73.1261 7.34162 64.2453 6.029C62.7469 5.8072 57.0701 5 43.9198 5H43.8215C30.6676 5 27.8456 5.8072 26.3473 6.029C17.7137 7.30525 9.82936 13.392 7.91645 22.0894C6.99637 26.3728 6.89818 31.1214 7.0691 35.4775C7.31276 41.7241 7.36004 47.96 7.92736 54.1813C8.31957 58.3138 9.00377 62.4133 9.97482 66.4493C11.7932 73.9033 19.1538 80.1064 26.3654 82.637C34.0864 85.2762 42.3898 85.7144 50.3458 83.9025C51.221 83.6988 52.0854 83.4625 52.9388 83.1934C54.8735 82.5789 57.1391 81.8916 58.8048 80.6845C58.8276 80.6675 58.8464 80.6456 58.8595 80.6205C58.8728 80.5953 58.8802 80.5675 58.8811 80.539V74.5105C58.8807 74.4839 58.8744 74.4578 58.8626 74.434C58.8507 74.4102 58.8338 74.3893 58.8129 74.3729C58.7919 74.3565 58.7676 74.3451 58.7417 74.3393C58.7157 74.3335 58.6888 74.3336 58.663 74.3396C53.5657 75.5569 48.3423 76.1673 43.1015 76.1577C34.0825 76.1577 31.6569 71.878 30.9622 70.0963C30.4039 68.5564 30.0494 66.9503 29.9076 65.3186C29.9061 65.2911 29.9111 65.2638 29.9223 65.2387C29.9333 65.2135 29.9502 65.1915 29.9715 65.1742C29.9928 65.1567 30.0178 65.1447 30.0446 65.1388C30.0714 65.1329 30.0992 65.1334 30.1258 65.1403C35.1382 66.3494 40.2764 66.9598 45.4327 66.9584C46.6728 66.9584 47.9092 66.9584 49.1493 66.9256C54.3353 66.7802 59.8012 66.5148 64.9035 65.5186C65.0308 65.493 65.1581 65.4713 65.2671 65.4386C73.3152 63.8931 80.9741 59.0427 81.7523 46.7601C81.7814 46.2765 81.8542 41.6951 81.8542 41.1933C81.8578 39.488 82.4033 29.0961 81.7741 22.7112Z" fill="url(#paint0_linear_799_5860)"/>
<path d="M69.0249 32.3676V53.7223H60.5623V32.9967C60.5623 28.6335 58.7439 26.4082 55.0454 26.4082C50.9796 26.4082 48.9431 29.0407 48.9431 34.2403V45.5848H40.5313V34.2403C40.5313 29.0407 38.4912 26.4082 34.4254 26.4082C30.7486 26.4082 28.9121 28.6335 28.9121 32.9967V53.7223H20.4531V32.3676C20.4531 28.0044 21.5672 24.5381 23.7953 21.9686C26.0936 19.4051 29.1085 18.0889 32.8506 18.0889C37.182 18.0889 40.455 19.7542 42.6371 23.0812L44.7427 26.6154L46.852 23.0812C49.0339 19.7542 52.307 18.0889 56.631 18.0889C60.3696 18.0889 63.3843 19.4051 65.6901 21.9686C67.9157 24.5357 69.0273 28.002 69.0249 32.3676Z" fill="white"/>
<defs>
<linearGradient id="paint0_linear_799_5860" x1="44.5385" y1="5" x2="44.5385" y2="85" gradientUnits="userSpaceOnUse">
<stop stop-color="#6364FF"/>
<stop offset="1" stop-color="#563ACC"/>
</linearGradient>
</defs>
</svg>
