<svg width="300" height="100" viewBox="0 0 300 100" fill="none" xmlns="http://www.w3.org/2000/svg">
<path d="M143.201 30.4411L143.147 30.4529C141.143 30.9054 140.126 31.5801 140.126 34.0136H140.117L140.126 63.207C140.297 65.129 141.33 65.7224 143.147 66.1323L143.201 66.1447V66.5578H129.214V66.1447L129.268 66.1323C131.083 65.7224 132.092 65.129 132.263 63.207V34.8064L118.782 66.4923H118.039L104.939 35.666V62.5034C104.939 64.9368 105.957 65.6116 107.962 66.0641L108.015 66.0759V66.4923H99.9854V66.0746L100.038 66.0627C102.043 65.6103 103.065 64.9355 103.065 62.5021V34.0136C103.065 31.5801 102.047 30.9054 100.042 30.4529L99.9893 30.4411V30.0247H111.824L122.021 53.9919L132.219 30.0247H143.201V30.4411Z" fill="#000008"/>
<path fill-rule="evenodd" clip-rule="evenodd" d="M165.791 50.7677H149.398L149.396 50.769C149.078 56.3873 152.582 61.0254 157.156 61.3677C160.507 61.6182 163.452 59.5644 165.091 56.1755L165.562 56.3414C164.629 62.647 160.887 67.3447 154.461 67.3447C147.139 67.3447 143.017 61.2464 142.84 53.6155C142.835 53.3205 142.837 53.0273 142.843 52.7362C142.847 52.5546 142.854 52.3736 142.863 52.1932C142.868 52.0968 142.873 52.0064 142.88 51.9054C142.887 51.8044 142.894 51.7034 142.903 51.6024C143.166 48.2332 144.251 45.2352 146.041 43.0168C147.153 41.6398 148.49 40.5906 150.005 39.889C151.336 39.2188 153.207 38.849 154.732 38.849H154.798C157.737 38.849 160.535 39.8431 162.425 41.6496C164.611 43.7401 165.745 46.7847 165.791 50.6988V50.7677ZM154.688 40.4483C151.603 40.5119 149.765 44.2064 149.536 49.325H158.899C158.995 45.3296 158.376 42.6562 157.057 41.3768C156.437 40.7762 155.639 40.4641 154.688 40.4483Z" fill="#000008"/>
<path fill-rule="evenodd" clip-rule="evenodd" d="M192.179 62.3729C192.179 64.9303 193.197 65.6365 195.201 66.1106L195.254 66.1211V66.5578H184.326V62.3414C183.075 65.4824 180.34 67.3447 176.941 67.3447C171.132 67.3447 167.228 62.0149 167.229 54.085C167.229 49.645 168.505 45.8168 170.92 43.0155C173.237 40.3277 176.45 38.8477 179.964 38.8477C181.697 38.8477 183.126 39.2208 184.326 39.9873V35.3224C184.326 34.289 184.074 33.5545 183.556 33.0759C182.894 32.4647 181.755 32.2326 180.075 32.3683L180 32.3742V31.9349L192.179 28.3467V62.3729ZM181.163 63.0857C182.667 63.0857 183.789 62.3841 184.326 61.1087V42.3191C183.795 41.0949 182.682 40.3932 181.267 40.3932C177.89 40.3932 175.707 44.9316 175.707 51.948C175.707 55.3191 176.259 58.165 177.309 60.1782C178.285 62.0536 179.659 63.0857 181.163 63.0857Z" fill="#000008"/>
<path d="M201.303 28.6306C203.779 28.6306 205.646 30.4982 205.646 32.9742C205.646 35.4503 203.779 37.3178 201.303 37.3178C198.84 37.3178 196.909 35.4096 196.909 32.9742C196.909 30.5388 198.838 28.6306 201.303 28.6306Z" fill="#000008"/>
<path d="M205.499 62.3729C205.499 64.9303 206.516 65.6365 208.521 66.1106L208.577 66.1211V66.5578H197.639V46.2864C197.639 43.5231 196.992 42.7086 194.627 42.4982L194.562 42.4923V42.066L205.49 38.9283V62.3729H205.499Z" fill="#000008"/>
<path d="M233.502 62.3729C233.502 64.9303 234.52 65.6365 236.524 66.1106L236.576 66.1283V66.565H225.648V62.2372C224.406 65.3532 221.586 67.3447 218.369 67.3447C214.571 67.3447 212.147 65.6109 211.221 62.2955L211.025 61.4398C210.868 60.5784 210.792 59.7042 210.797 58.8286V46.2864C210.797 43.5224 210.149 42.708 207.785 42.4982L207.719 42.4923V42.0667L218.648 38.929V58.6221C218.648 61.5355 219.956 63.1401 222.332 63.1401C223.797 63.089 225.006 62.3316 225.65 61.0562V46.2365C225.65 43.4608 225.092 42.5998 223.158 42.3965L223.097 42.39V41.9624L233.502 38.9283V62.3729Z" fill="#000008"/>
<path d="M278.979 66.1205V66.5578H268.052V47.1008C268.052 43.9552 266.933 42.4267 264.629 42.4267C262.726 42.4267 261.747 43.8057 261.261 44.9709C261.361 45.5707 261.409 46.178 261.405 46.786V63.0483C261.405 64.9565 261.965 65.7001 263.7 66.108L263.754 66.1211V66.5578H253.555V47.1008C253.555 44.0005 252.403 42.4267 250.132 42.4267C248.303 42.4267 247.377 43.6968 246.918 44.769V63.0483C246.918 64.9565 247.478 65.7001 249.214 66.108L249.267 66.1211V66.5578H239.071V46.1119C239.071 43.4195 238.395 42.5814 236.059 42.3742L235.993 42.3683V41.9395L246.922 38.9303V43.5119C248.027 40.5821 250.602 38.8477 253.889 38.8477C257.631 38.8477 260.161 40.6352 261.04 43.8877C262.147 40.8182 265.023 38.8477 268.433 38.8477C273.111 38.8477 275.903 41.8155 275.903 46.788V62.7355C275.903 64.6608 276.751 65.6064 278.926 66.108L278.979 66.1205Z" fill="#000008"/>
<path d="M40.6897 67.6538C51.3553 67.6538 60.0012 58.9482 60.0012 48.2099C60.0012 37.4715 51.3546 28.7666 40.6897 28.7666C30.0248 28.7666 21.3789 37.4689 21.3789 48.2099C21.3789 58.9509 30.0242 67.6538 40.6897 67.6538Z" fill="#000008"/>
<path d="M71.5298 66.5131C76.8622 66.5131 81.1855 58.319 81.1855 48.2102C81.1855 38.1039 76.8622 29.9072 71.5298 29.9072C66.1973 29.9072 61.874 38.1039 61.874 48.2102C61.874 58.3164 66.1973 66.5131 71.5298 66.5131Z" fill="#000008"/>
<path d="M89.8507 48.2102C89.8507 57.2673 88.3301 64.6089 86.4547 64.6089C84.5793 64.6089 83.0586 57.2646 83.0586 48.2102C83.0586 39.1558 84.5793 31.8115 86.4553 31.8115C88.3314 31.8115 89.8507 39.1538 89.8507 48.2102Z" fill="#000008"/>
</svg>
