<svg width="300" height="100" viewBox="0 0 300 100" fill="none" xmlns="http://www.w3.org/2000/svg">
<path d="M87.9999 18C71.4311 18 58 31.4311 58 48C58 64.5689 71.4311 78 87.9999 78C104.569 78 118 64.5689 118 48C118 31.4311 104.569 18 87.9999 18ZM103.573 58.6087C103.573 59.1234 103.158 59.5385 102.643 59.5385H98.7248C98.2102 59.5385 97.7951 59.1234 97.7951 58.6087V46.539C97.7951 46.4394 97.6789 46.3896 97.5959 46.456L89.2949 54.7571C88.581 55.4709 87.4022 55.4709 86.6883 54.7571L78.3873 46.456C78.3209 46.3896 78.1881 46.4394 78.1881 46.539V58.6087C78.1881 59.1234 77.773 59.5385 77.2584 59.5385H73.3403C72.8256 59.5385 72.4106 59.1234 72.4106 58.6087V37.3913C72.4106 36.8766 72.8256 36.4615 73.3403 36.4615H76.0298C76.5113 36.4615 76.9927 36.6608 77.3414 37.0094L87.6679 47.3359C87.8505 47.5185 88.1327 47.5185 88.3153 47.3359L98.6418 37.0094C98.9905 36.6608 99.4553 36.4615 99.9534 36.4615H102.643C103.158 36.4615 103.573 36.8766 103.573 37.3913V58.6087Z" fill="#D9272E"/>
<path d="M102.642 59.5383C103.157 59.5383 103.572 59.1233 103.572 58.6086V37.3911C103.572 36.8765 103.157 36.4614 102.642 36.4614H99.953C99.4549 36.4614 98.99 36.6606 98.6414 37.0093L88.3149 47.3358C88.1323 47.5184 87.8501 47.5184 87.6674 47.3358L77.341 37.0093C76.9923 36.6606 76.5109 36.4614 76.0294 36.4614H73.3399C72.8252 36.4614 72.4102 36.8765 72.4102 37.3911V58.6086C72.4102 59.1233 72.8252 59.5383 73.3399 59.5383H77.258C77.7726 59.5383 78.1877 59.1233 78.1877 58.6086V46.5389C78.1877 46.4393 78.3205 46.3895 78.3869 46.4559L86.6879 54.7569C87.4018 55.4708 88.5806 55.4708 89.2944 54.7569L97.5955 46.4559C97.6785 46.3895 97.7947 46.4393 97.7947 46.5389V58.6086C97.7947 59.1233 98.2097 59.5383 98.7244 59.5383H102.642Z" fill="white"/>
<path d="M187.828 41.1932V37.9558C187.828 37.4411 187.413 37.0261 186.898 37.0261H169.134C168.619 37.0261 168.204 37.4411 168.204 37.9558V59.1899C168.204 59.7046 168.619 60.1196 169.134 60.1196H186.898C187.413 60.1196 187.828 59.7046 187.828 59.1899V55.9691C187.828 55.4544 187.413 55.0394 186.898 55.0394H174.198C174.065 55.0394 173.965 54.9398 173.965 54.8069V51.1213C173.965 50.9885 174.065 50.8888 174.198 50.8888H186.898C187.413 50.8888 187.828 50.4738 187.828 49.9591V47.1866C187.828 46.6719 187.413 46.2569 186.898 46.2569H174.198C174.065 46.2569 173.965 46.1572 173.965 46.0244V42.3388C173.965 42.2059 174.065 42.1063 174.198 42.1063H186.898C187.43 42.1229 187.828 41.7079 187.828 41.1932Z" fill="#000008"/>
<path d="M237.218 60.1196H241.253C241.767 60.1196 242.099 59.5883 241.884 59.1235L231.673 38.072C231.358 37.4411 230.727 37.0261 230.013 37.0261H227.705C226.991 37.0261 226.361 37.4245 226.045 38.072L215.835 59.1235C215.619 59.5883 215.951 60.1196 216.466 60.1196H220.5C221.031 60.1196 221.513 59.8208 221.745 59.3393L223.704 55.305C223.787 55.139 223.937 55.0394 224.119 55.0394H233.616C233.798 55.0394 233.948 55.139 234.031 55.305L235.99 59.3393C236.206 59.8208 236.687 60.1196 237.218 60.1196ZM225.979 50.5568L228.635 45.0781C228.718 44.9121 228.967 44.9121 229.05 45.0781L231.706 50.5568C231.773 50.7062 231.673 50.8888 231.491 50.8888H226.178C226.029 50.8888 225.912 50.7062 225.979 50.5568Z" fill="#000008"/>
<path d="M158.658 37.574L148.332 47.9005C148.149 48.0831 147.867 48.0831 147.684 47.9005L137.341 37.574C136.992 37.2253 136.527 37.0261 136.029 37.0261H133.34C132.825 37.0261 132.41 37.4411 132.41 37.9558V59.1899C132.41 59.7046 132.825 60.1196 133.34 60.1196H137.258C137.773 60.1196 138.188 59.7046 138.188 59.1899V47.1202C138.188 47.0206 138.304 46.9708 138.387 47.0372L146.688 55.3382C147.402 56.0521 148.581 56.0521 149.294 55.3382L157.595 47.0372C157.662 46.9708 157.795 47.0206 157.795 47.1202V59.1899C157.795 59.7046 158.21 60.1196 158.724 60.1196H162.642C163.157 60.1196 163.572 59.7046 163.572 59.1899V37.9558C163.572 37.4411 163.157 37.0261 162.642 37.0261H159.953C159.472 37.0427 159.007 37.2253 158.658 37.574Z" fill="#000008"/>
<path d="M213.561 46.5059H204.447C203.932 46.5059 203.517 46.9209 203.517 47.4356V49.7433C203.517 50.258 203.932 50.673 204.447 50.673H209.676C209.842 50.673 209.942 50.839 209.892 50.9885C208.896 53.6282 206.306 55.5042 203.284 55.4046C199.765 55.2884 196.876 52.4494 196.71 48.9298C196.527 45.0283 199.649 41.8075 203.517 41.8075C205.094 41.8075 206.555 42.3554 207.717 43.2519C208.082 43.5341 208.614 43.5175 208.946 43.1855L211.403 40.7284C211.785 40.3465 211.751 39.7156 211.336 39.367C209.195 37.5574 206.422 36.4782 203.401 36.4948C196.743 36.5446 191.331 42.0565 191.397 48.7306C191.464 55.3714 196.859 60.7339 203.517 60.7339C210.207 60.7339 215.636 55.305 215.636 48.6144V48.5977C215.636 47.419 214.707 46.5059 213.561 46.5059Z" fill="#000008"/>
</svg>
