<svg width="90" height="90" viewBox="0 0 90 90" fill="none" xmlns="http://www.w3.org/2000/svg">
<path d="M45.0079 5C22.9237 5 5 22.9077 5 44.9917C5 67.0757 22.9079 84.9834 44.9921 84.9834C67.0763 84.9834 85 67.0757 85 44.9917C85 22.9077 67.0922 5 45.0079 5ZM65.7791 59.1502C65.7791 59.8304 65.2254 60.3841 64.5452 60.3841H59.3089C58.6286 60.3841 58.0749 59.8304 58.0749 59.1502V43.0617C58.0749 42.9193 57.9168 42.8561 57.806 42.951L46.7323 54.0246C45.7673 54.9896 44.2169 54.9896 43.2519 54.0246L32.1782 42.951C32.0833 42.8561 31.9092 42.9193 31.9092 43.0617V59.1502C31.9092 59.8304 31.3555 60.3841 30.6753 60.3841H25.439C24.7588 60.3841 24.2051 59.8304 24.2051 59.1502V30.8332C24.2051 30.153 24.7588 29.5993 25.439 29.5993H29.0617C29.7103 29.5993 30.3431 29.8524 30.8019 30.327L44.565 44.09C44.8023 44.3273 45.1978 44.3273 45.435 44.09L59.1981 30.327C59.6569 29.8683 60.2897 29.5993 60.9383 29.5993H64.5294C65.2096 29.5993 65.7633 30.153 65.7633 30.8332V59.1502H65.7791Z" fill="#D9272E"/>
</svg>
