<svg width="382" height="100" viewBox="0 0 382 100" fill="none" xmlns="http://www.w3.org/2000/svg">
<path fill-rule="evenodd" clip-rule="evenodd" d="M164.774 39.1663V62.6946H159.24V47.1747L153.952 54.9036H151.185L146.02 47.2367V62.6946H140.487V39.1663H146.881L152.63 47.8575L158.379 39.1663H164.774ZM173.879 55.616C174.107 56.6027 174.579 57.3735 175.294 57.9285C176.01 58.4835 177.062 58.7608 178.451 58.7608C179.26 58.7608 180.032 58.6632 180.768 58.4679C181.504 58.2726 182.349 57.9385 183.303 57.4659L184.702 61.5975C183.624 62.1936 182.556 62.6098 181.499 62.846C180.441 63.0825 179.177 63.2008 177.705 63.2008C175.652 63.2008 173.905 62.8152 172.464 62.0445C171.023 61.2737 169.929 60.1894 169.183 58.7916C168.436 57.3939 168.063 55.7701 168.063 53.9202C168.063 51.9879 168.447 50.3284 169.214 48.9407C169.981 47.5534 171.018 46.505 172.324 45.7959C173.63 45.0867 175.092 44.7322 176.709 44.7322C179.301 44.7322 181.333 45.4773 182.805 46.9675C184.277 48.4577 185.013 50.6314 185.013 53.4885V55.616H173.879ZM176.883 49.2001C176.15 49.2001 175.555 49.3836 175.096 49.751C174.639 50.1184 174.318 50.7511 174.135 51.6489H179.448C179.366 50.792 179.117 50.1694 178.699 49.7815C178.282 49.394 177.677 49.2001 176.883 49.2001ZM208.906 44.7322C211.072 44.7322 212.691 45.3226 213.763 46.5036C214.836 47.6845 215.373 49.5595 215.373 52.1286V62.6946H210.139V52.1286C210.139 51.2791 209.959 50.6316 209.598 50.1863C209.237 49.7406 208.615 49.5181 207.733 49.5181C206.65 49.5181 205.547 50.0153 204.424 51.0096C204.444 51.2376 204.454 51.6105 204.454 52.1286V62.6946H199.221V52.1286C199.221 51.2791 199.04 50.6316 198.679 50.1863C198.318 49.7406 197.697 49.5181 196.815 49.5181C195.752 49.5181 194.659 49.9945 193.536 50.9475V62.6946H188.302V45.1051H193.536V46.4725C194.238 45.8716 194.945 45.4314 195.657 45.1517C196.368 44.872 197.145 44.7322 197.988 44.7322C200.655 44.7322 202.479 45.6127 203.462 47.3736C204.364 46.4621 205.241 45.794 206.094 45.3693C206.946 44.9445 207.883 44.7322 208.906 44.7322ZM229.413 44.6853C230.967 44.6853 232.341 45.0257 233.536 45.7066C234.732 46.3875 235.672 47.414 236.356 48.7858C237.041 50.1579 237.383 51.8297 237.383 53.8013C237.383 55.7933 237.041 57.4752 236.356 58.847C235.672 60.2191 234.732 61.2454 233.536 61.9264C232.341 62.6074 230.967 62.9477 229.413 62.9477C227.758 62.9477 226.205 62.399 224.754 61.3013V62.4295H219.421V36.6364H224.754V46.3316C226.205 45.234 227.758 44.6853 229.413 44.6853ZM228.357 57.8878C229.501 57.8878 230.363 57.5232 230.945 56.7942C231.526 56.0649 231.817 54.9909 231.817 53.5722C231.817 52.1731 231.526 51.1089 230.945 50.3796C230.363 49.6506 229.501 49.286 228.357 49.286C227.234 49.286 226.11 49.6899 224.986 50.498V56.6758C226.11 57.4839 227.234 57.8878 228.357 57.8878ZM245.476 55.616C245.704 56.6027 246.176 57.3735 246.891 57.9285C247.607 58.4835 248.659 58.7608 250.048 58.7608C250.857 58.7608 251.629 58.6632 252.365 58.4679C253.101 58.2726 253.946 57.9385 254.9 57.4659L256.3 61.5975C255.222 62.1936 254.154 62.6098 253.096 62.846C252.039 63.0825 250.774 63.2008 249.302 63.2008C247.249 63.2008 245.502 62.8152 244.061 62.0445C242.62 61.2737 241.526 60.1894 240.78 58.7916C240.033 57.3939 239.66 55.7701 239.66 53.9202C239.66 51.9879 240.044 50.3284 240.811 48.9407C241.578 47.5534 242.615 46.505 243.921 45.7959C245.227 45.0867 246.689 44.7322 248.307 44.7322C250.898 44.7322 252.93 45.4773 254.403 46.9675C255.874 48.4577 256.611 50.6314 256.611 53.4885V55.616H245.476ZM247.994 49.2001C247.261 49.2001 246.666 49.3836 246.208 49.751C245.749 50.1184 245.429 50.7511 245.246 51.6489H250.558C250.477 50.792 250.228 50.1694 249.81 49.7815C249.393 49.394 248.788 49.2001 247.994 49.2001ZM270.272 44.7322V49.5181H269.559C267.969 49.5181 266.377 50.0878 264.786 51.2273V62.6946H259.394V45.1051H264.786V46.659C265.551 46.0167 266.321 45.535 267.096 45.2139C267.87 44.8927 268.692 44.7322 269.559 44.7322H270.272ZM281.585 63.2008C279.954 63.2008 278.446 63.0623 277.06 62.7852C275.674 62.5081 274.339 62.0616 273.055 61.4461V56.4593C275.644 57.8344 278.487 58.5216 281.585 58.5216C282.787 58.5216 283.669 58.3165 284.229 57.9061C284.79 57.4956 285.07 56.9518 285.07 56.2746C285.07 55.5975 284.82 55.0896 284.321 54.7509C283.822 54.4122 282.93 54.0685 281.646 53.7197L279.567 53.1347C278.344 52.7859 277.284 52.3806 276.388 51.9189C275.491 51.4572 274.726 50.7645 274.095 49.841C273.463 48.9175 273.147 47.7274 273.147 46.2703C273.147 43.8693 273.876 42.0429 275.333 40.791C276.79 39.5392 278.844 38.9133 281.493 38.9133C283.083 38.9133 284.479 39.057 285.681 39.3443C286.884 39.6316 288.117 40.0728 289.381 40.6679V45.47C287.057 44.2182 284.428 43.5922 281.493 43.5922C280.413 43.5922 279.659 43.7769 279.231 44.1463C278.803 44.5157 278.589 45.0493 278.589 45.747C278.589 46.219 278.691 46.5936 278.895 46.8706C279.098 47.1476 279.414 47.3785 279.842 47.5632C280.27 47.7478 280.912 47.9633 281.768 48.2095L283.878 48.7945C285.182 49.1638 286.303 49.5947 287.241 50.0873C288.178 50.5798 288.958 51.3083 289.579 52.2729C290.201 53.2375 290.512 54.479 290.512 55.9975C290.491 58.2345 289.692 59.9941 288.112 61.2767C286.532 62.5594 284.357 63.2008 281.585 63.2008ZM300.087 50.3622V56.2975C300.087 56.9813 300.196 57.4629 300.417 57.7427C300.635 58.0223 301.036 58.1622 301.614 58.1622C302.274 58.1622 302.863 58.0793 303.381 57.9135V62.5127C302.702 62.6575 302.127 62.7664 301.657 62.8389C301.188 62.9115 300.684 62.9477 300.147 62.9477C298.368 62.9477 297.046 62.5438 296.176 61.7357C295.308 60.9279 294.872 59.7677 294.872 58.2555V50.3622H292.536V45.5766H294.872V39.6723H300.087V45.5766H303.921V50.3622H300.087ZM313.614 44.9852C315.85 44.9852 317.552 45.2902 318.719 45.9003C319.887 46.5105 320.664 47.3224 321.051 48.3358C321.438 49.349 321.629 50.6417 321.629 52.2137V62.5444H316.327V61.1175C315.616 61.7791 314.915 62.2498 314.225 62.5288C313.535 62.8081 312.771 62.9477 311.939 62.9477C309.989 62.9477 308.459 62.4255 307.352 61.3809C306.245 60.3366 305.691 58.8835 305.691 57.0222C305.691 55.1401 306.256 53.6925 307.382 52.679C308.511 51.6655 310.079 51.1588 312.092 51.1588C313.758 51.1588 315.168 51.4692 316.327 52.0896C316.308 51.5104 316.221 51.0503 316.068 50.7091C315.916 50.3676 315.61 50.1039 315.155 49.9179C314.697 49.7316 314.031 49.6386 313.158 49.6386H309.684V44.9852H313.614ZM313.537 58.6468C314.582 58.6468 315.676 58.1698 316.824 57.2161V55.5675C315.839 55.0905 314.847 54.8518 313.846 54.8518C313.107 54.8518 312.534 55.0127 312.125 55.334C311.716 55.6555 311.511 56.1481 311.511 56.8116C311.511 57.4959 311.686 57.9729 312.032 58.2424C312.381 58.5121 312.883 58.6468 313.537 58.6468ZM333.823 63.2008C330.937 63.1801 328.731 62.363 327.207 60.7495C325.682 59.1361 324.918 56.8596 324.918 53.9202C324.918 51.0015 325.682 48.7455 327.207 47.1525C328.731 45.5595 330.937 44.7527 333.823 44.7322C334.873 44.7322 335.77 44.7938 336.512 44.9172C337.254 45.0405 338.028 45.2666 338.83 45.5955V50.4669C338.069 50.0971 337.352 49.8402 336.681 49.6962C336.013 49.5522 335.266 49.4805 334.442 49.4805C333.059 49.5009 332.061 49.8811 331.442 50.621C330.823 51.3612 330.515 52.4505 330.515 53.8894C330.515 55.3692 330.815 56.4999 331.412 57.281C332.009 58.0621 332.967 58.4526 334.287 58.4526C335.028 58.4526 335.746 58.3395 336.436 58.1134C337.126 57.8873 337.843 57.5379 338.585 57.065L340.098 61.505C338.203 62.6355 336.111 63.2008 333.823 63.2008ZM349.477 56.8733L348.046 58.3825V62.6946H342.629V36.6364H348.046V51.6985L353.555 45.8769H360.032L353.026 53.2078L360.591 62.6946H354.117L349.477 56.8733Z" fill="#393939"/>
<path d="M100.514 41.9902L111.287 66.2401C113.467 71.1475 111.265 76.8966 106.368 79.0815C101.472 81.2663 95.7358 79.0594 93.5559 74.1522L84.8477 54.5491L84.8063 54.647L81.0099 41.9902H100.514Z" fill="#2AA8FF"/>
<path d="M101.747 44.0346L103.976 49.106C102.629 48.6323 101.183 48.3748 99.6776 48.3748C93.4586 48.3748 88.2536 52.7674 86.9279 58.6539L84.9146 54.0724L82.7808 59.1653V44.0346H101.747Z" fill="#393939" fill-opacity="0.2"/>
<path d="M69.372 40.9877V58.1123H51.2902L49.4158 53.9363L47.6288 58.1123H27.6281V55.2066L40.1636 25.9119C41.749 22.2068 45.384 19.9869 49.2022 20.0001C52.9585 19.9871 56.5478 22.134 58.1738 25.7566L67.2431 45.963L69.372 40.9877Z" fill="#017ACE"/>
<path d="M66.9473 46.0752L66.9604 46.1046L75.535 25.9442C77.1193 22.219 80.752 19.9869 84.5677 20.0002C88.3213 19.9871 91.9084 22.1457 93.5333 25.788L103.966 49.1745C101.862 47.3611 99.121 46.2645 96.1232 46.2645C90.9146 46.2645 86.4806 49.5751 84.8178 54.2035L84.781 54.1212L76.3581 73.9253C74.2496 78.8832 68.5134 81.1962 63.5459 79.0918C63.0599 78.8859 62.599 78.6454 62.1656 78.3743C60.3438 77.3856 58.8217 75.8128 57.9133 73.7761L49.1789 54.1973C50.4937 54.5731 51.8824 54.7744 53.3181 54.7744C59.3595 54.7744 64.5673 51.2112 66.9473 46.0752Z" fill="#AEDEFF"/>
<path d="M49.3433 54.2543L43.0152 68.9183C41.4719 69.6151 39.7522 70.0032 37.9393 70.0032C31.5798 70.0032 26.3679 65.228 25.8924 59.1017L30.2352 49.0384C32.3264 47.3352 35.0112 46.3113 37.9393 46.3113C43.2098 46.3113 47.692 49.6283 49.3433 54.2543Z" fill="#000008"/>
<path d="M47.2798 58.6656L40.7762 73.9468C38.6737 78.8867 32.9541 81.1915 28.001 79.0948C23.0479 76.9978 20.7371 71.2935 22.8395 66.3533L30.0613 49.385C31.59 48.71 33.2807 48.3353 35.059 48.3353C41.1982 48.3353 46.2948 52.8025 47.2798 58.6656Z" fill="#393939"/>
</svg>
