<svg width="90" height="90" viewBox="0 0 90 90" fill="none" xmlns="http://www.w3.org/2000/svg">
<path fill-rule="evenodd" clip-rule="evenodd" d="M73.7788 36.7745L83.112 57.7265C85.0008 61.9664 83.093 66.9337 78.8509 68.8214C74.6088 70.7091 69.6389 68.8023 67.7503 64.5625L60.2055 47.6254L56.8804 55.4546V36.7745H73.7788Z" fill="#2AA8FF"/>
<path fill-rule="evenodd" clip-rule="evenodd" d="M74.7904 39.0453L76.7214 43.3802C75.555 42.9753 74.3019 42.7552 72.9974 42.7552C67.6088 42.7552 63.0987 46.51 61.9499 51.5415L60.2055 47.6254L58.3566 51.9787V39.0453H74.7904Z" fill="#393939" fill-opacity="0.2"/>
<path fill-rule="evenodd" clip-rule="evenodd" d="M46.7021 36.4066V51.2436H31.1535L29.5417 47.6253L28.005 51.2437H10.8063V48.7261L21.5856 23.3448C22.949 20.1347 26.0747 18.2112 29.358 18.2227C32.5878 18.2114 35.6746 20.0716 37.0726 23.2102L44.8713 40.7173L46.7021 36.4066Z" fill="#017ACE"/>
<path fill-rule="evenodd" clip-rule="evenodd" d="M44.8601 40.692L44.8713 40.7173L52.2494 23.3448C53.6128 20.1347 56.7385 18.2112 60.0218 18.2227C63.2516 18.2114 66.3384 20.0716 67.7364 23.2102L76.7135 43.3627C74.9032 41.8001 72.5445 40.8552 69.965 40.8552C65.4832 40.8552 61.6678 43.7079 60.237 47.6963L60.2055 47.6254L52.9578 64.691C51.1434 68.9631 46.2075 70.9564 41.9331 69.1429C41.5215 68.9685 41.1244 68.7617 40.7454 68.5246C39.1779 67.6727 37.8682 66.3175 37.0865 64.5625L29.5708 47.6909C30.7021 48.0147 31.897 48.1882 33.1324 48.1882C38.3309 48.1882 42.8122 45.1177 44.8601 40.692Z" fill="#AEDEFF"/>
<path fill-rule="evenodd" clip-rule="evenodd" d="M29.495 47.7352L24.0827 60.479C22.7628 61.0846 21.292 61.4219 19.7414 61.4219C14.3023 61.4219 9.8446 57.2718 9.43809 51.948L13.1523 43.2022C14.9409 41.7221 17.2371 40.8323 19.7414 40.8323C24.2492 40.8323 28.0828 43.7149 29.495 47.7352Z" fill="#000008"/>
<path fill-rule="evenodd" clip-rule="evenodd" d="M27.9065 51.4755L22.2939 64.691C20.4796 68.9631 15.5436 70.9564 11.2693 69.1429C6.99492 67.3295 5.00076 62.3961 6.81505 58.124L13.0472 43.4495C14.3665 42.8658 15.8257 42.5416 17.3602 42.5416C22.6582 42.5416 27.0564 46.4048 27.9065 51.4755Z" fill="#393939"/>
</svg>
