<svg width="300" height="100" viewBox="0 0 300 100" fill="none" xmlns="http://www.w3.org/2000/svg">
<path d="M117.467 48.2759C117.467 32.6987 98.1124 20 74.2369 20C50.3623 20 31.0085 32.6987 31.0085 48.2759C31.0085 48.6777 31.0039 49.7899 31.0039 49.9312C31.0039 66.4565 47.9199 79.841 74.2312 79.841C100.705 79.841 117.467 66.4602 117.467 49.9346V48.2759Z" fill="#1D3086"/>
<path d="M115.811 48.2614C115.811 62.9478 97.2011 74.8528 74.2445 74.8528C51.2875 74.8528 32.679 62.9478 32.679 48.2614C32.679 33.5748 51.2875 21.6698 74.2445 21.6698C97.2011 21.6698 115.811 33.5748 115.811 48.2614Z" fill="#FFE000"/>
<path d="M97.3074 51.354C95.3314 49.6285 83.8947 39.6463 81.0505 37.5076C79.5406 36.3747 78.5939 35.8452 77.7889 35.6047C77.0553 35.3831 75.9446 35.1463 74.2111 35.6979C72.574 36.2172 70.9455 37.5232 69.3045 38.8276C67.7891 40.0293 66.2257 41.2731 65.0055 41.5472C62.9567 42.0065 60.9315 41.5256 60.2746 40.6879C60.0065 40.3432 60.4208 39.9141 60.4427 39.8723L64.0694 35.9638C66.9332 33.102 69.6392 30.3977 75.886 30.2533C80.0891 30.154 84.3502 32.171 84.3906 32.1872C92.264 36.0329 100.316 34.5886 106.904 31.8218C111.631 35.6601 114.748 40.3478 115.583 45.4722C105.972 47.5907 98.8987 50.6357 97.3074 51.354ZM97.7359 54.6082C97.6975 55.391 97.25 56.0661 96.5496 56.5142C94.5915 57.7603 93.007 56.6328 92.9419 56.5865C92.9419 56.5865 88.3557 52.3813 86.6607 50.9638C86.4218 50.7639 86.057 50.4693 85.8946 50.674C85.6961 50.9163 86.2575 51.3963 86.2575 51.3963L91.5767 56.7434C91.5767 56.7434 92.3166 57.4191 92.3988 58.3674C92.432 59.0849 92.1949 60.0346 91.0162 60.8072C89.0738 62.084 87.6067 61.1758 87.2803 60.9375C85.6114 59.3024 83.8694 57.5544 82.6367 56.5239C82.3924 56.3214 82.035 56.0496 81.8649 56.2296C81.6758 56.4366 82.2329 56.9513 82.2329 56.9513L86.1261 61.3231C86.1261 61.3231 87.0733 62.4272 86.2205 63.5186C86.2336 63.5138 86.2438 63.499 86.2575 63.4885C86.0874 63.7048 85.8835 63.9139 85.6791 64.0819C84.8706 64.7459 83.7033 64.8147 83.0433 64.6964C82.2773 64.5588 82.1396 64.2878 82.1052 64.265C82.1052 64.265 80.0322 62.1258 78.3355 60.7083C78.0949 60.5075 77.7562 60.2123 77.568 60.4182C77.3863 60.6181 77.9354 61.1374 77.9354 61.1374L81.2706 64.8429C81.3855 64.9816 81.2615 65.1759 81.1449 65.3425C80.9738 65.5836 80.4969 66.0141 79.2394 66.1717C77.6664 66.371 75.8743 65.4773 75.1705 65.082C75.5271 64.4214 75.731 63.6696 75.731 62.8697C75.7321 60.2846 73.6307 58.1846 71.047 58.1826C70.8881 58.1826 70.7317 58.1897 70.5767 58.2079C70.7746 56.5941 70.4354 54.4543 68.2563 53.5188C67.5892 53.2302 66.9266 53.0849 66.2908 53.0849C65.6433 53.0829 65.0934 53.2322 64.6458 53.434C64.2889 52.631 63.6011 51.743 62.2668 51.2857C61.693 51.0903 61.1243 50.9885 60.5763 50.9885C59.3698 50.988 58.4365 51.4447 57.7594 51.9795C57.0429 50.9638 55.865 50.3072 54.557 50.3052C53.3922 50.3052 52.3501 50.814 51.6269 51.6187C50.959 51.0537 47.2776 48.3463 35.4588 45.7185C34.9506 45.6065 33.7415 45.2462 32.9911 45.048C34 39.6932 37.4931 34.8315 42.7156 30.9437C47.0746 32.978 49.9924 33.8647 53.3166 34.774C53.8665 34.9239 56.7642 35.3988 57.3047 35.3988C58.5997 35.3996 59.8799 35.0439 61.2116 34.6694C62.2779 34.3722 63.3744 34.0694 64.5593 33.915C64.1194 34.335 63.6889 34.7613 63.2624 35.1878L59.5882 39.1617C59.4707 39.2823 58.755 40.0014 59.1431 40.9009C59.287 41.2373 59.5862 41.568 60.0121 41.854C61.0623 42.5641 63.3645 43.0626 65.2498 42.6403C66.7239 42.3102 68.3149 41.045 70.0009 39.7017C71.63 38.4104 73.4644 37.184 74.8677 36.8021C75.3804 36.6613 76.1132 36.563 76.6441 36.6315C77.6629 36.7617 78.6338 37.0953 80.3789 38.4039C83.3956 40.6717 96.7085 52.3208 96.8422 52.4399C96.8422 52.4399 97.803 53.2478 97.7359 54.6082ZM71.0425 66.5138C69.0849 66.5118 67.4738 64.9711 67.401 63.0312C67.3873 62.6669 67.3168 62.6286 67.0583 62.8651C66.4648 63.4137 65.5586 64.0501 64.027 63.4279C62.0146 62.6118 61.8903 61.1758 61.9887 60.5055C62.0211 60.29 61.9833 60.2214 61.7541 60.3838C60.9821 60.9249 60.0514 61.2412 58.9563 60.8163C56.2267 59.7545 56.4514 57.1472 56.5734 56.4306C56.5816 56.3755 56.5745 56.3479 56.5583 56.3325C56.0376 56.8327 55.3316 57.1441 54.5524 57.1421C52.9506 57.1421 51.6517 55.8431 51.6522 54.2413C51.6542 52.6393 52.9538 51.3412 54.5564 51.3429C56.0311 51.3437 57.2351 52.4499 57.4176 53.874C57.8254 53.2447 59.4318 51.5001 61.9307 52.2653C63.6792 52.7991 63.9423 54.3912 63.9835 54.9787C63.9963 55.1266 64.0461 55.1357 64.1581 55.0205C64.5835 54.578 65.8219 53.5984 67.8477 54.4694C70.4945 55.604 69.4085 58.8716 69.3298 59.0612C69.2521 59.2521 69.137 59.5836 69.2021 59.6268C69.3201 59.6985 70.2215 59.2085 71.0465 59.2182C73.0626 59.2404 74.6951 60.8527 74.6937 62.8697C74.6931 64.8852 73.0586 66.5158 71.0425 66.5138Z" fill="white"/>
<path d="M97.358 51.0452C93.2572 47.466 83.7792 39.2266 81.212 37.2995C79.7461 36.1968 78.7457 35.6135 77.8673 35.3525C77.4732 35.2333 76.9275 35.0977 76.2237 35.0971C75.5717 35.0971 74.8702 35.2149 74.138 35.4475C72.4793 35.9727 70.8266 37.2867 69.2279 38.5569L69.146 38.6221C67.6568 39.805 66.1181 41.0297 64.9531 41.2902C64.4453 41.4051 63.922 41.4637 63.4008 41.4637C62.0959 41.4617 60.924 41.0852 60.485 40.5256C60.4127 40.4332 60.4588 40.2824 60.6289 40.0669L60.651 40.0382L64.2587 36.1504C67.0841 33.3244 69.7537 30.6569 75.8967 30.5155C75.998 30.513 76.102 30.511 76.2036 30.511C80.0276 30.5135 83.8503 32.2254 84.2791 32.4236C87.8646 34.1727 91.5653 35.0613 95.2864 35.0639C99.1639 35.065 103.164 34.1056 107.37 32.1688C106.9 31.7735 106.412 31.3891 105.909 31.0117C102.214 32.6138 98.6927 33.4234 95.2961 33.4223C91.828 33.4188 88.3608 32.5857 84.9963 30.9441C84.8182 30.8593 80.5978 28.8685 76.205 28.8674C76.0904 28.8674 75.9738 28.8685 75.8583 28.8705C70.6983 28.9916 67.7916 30.8243 65.8366 32.4296C63.9357 32.4756 62.2955 32.9343 60.8362 33.3421C59.5338 33.7035 58.4094 34.0177 57.3124 34.0169C56.8602 34.0169 56.0472 33.9753 55.9745 33.9733C54.7133 33.935 48.3584 32.3761 43.3039 30.4621C42.7872 30.8275 42.2908 31.2048 41.8073 31.589C47.0882 33.7544 53.5145 35.4293 55.5425 35.5595C56.1072 35.5968 56.7087 35.6605 57.3098 35.6619C58.652 35.6619 59.9905 35.2854 61.2869 34.9231C62.0518 34.7076 62.8966 34.4744 63.7853 34.3035C63.5481 34.5369 63.3109 34.7727 63.0738 35.0104L59.4081 38.9758C59.1195 39.267 58.4936 40.0441 58.9065 41.0019C59.0709 41.3875 59.4035 41.7569 59.8702 42.0714C60.7437 42.6591 62.3077 43.0569 63.7605 43.0584C64.311 43.0589 64.8328 43.0038 65.3128 42.8963C66.849 42.5508 68.4607 41.2675 70.168 39.9099C71.5289 38.8291 73.4612 37.4565 74.9413 37.0532C75.3542 36.9406 75.8623 36.871 76.2701 36.871C76.3927 36.8721 76.5078 36.8755 76.6147 36.8912C77.5926 37.0149 78.5379 37.3478 80.225 38.6141C83.2341 40.8742 96.549 52.5224 96.6786 52.637C96.6877 52.6444 97.5371 53.3767 97.478 54.594C97.4458 55.2731 97.0693 55.8762 96.4142 56.2945C95.846 56.6548 95.2591 56.8385 94.6662 56.8385C93.7764 56.8365 93.1634 56.4202 93.1244 56.3914C93.0746 56.3511 88.5132 52.1681 86.8352 50.7637C86.5676 50.5422 86.3083 50.3428 86.045 50.3428C85.9051 50.3414 85.7805 50.4014 85.6966 50.5069C85.4319 50.8319 85.7285 51.2829 86.0768 51.5798L91.4057 56.9354C91.4128 56.9414 92.0697 57.5576 92.1414 58.3791C92.1835 59.2669 91.7589 60.0096 90.8763 60.5875C90.2475 61.0018 89.6111 61.2122 88.9875 61.2122C88.1694 61.2122 87.5947 60.8394 87.4679 60.7515L86.703 59.9977C85.3062 58.6234 83.8639 57.2019 82.8081 56.3212C82.5508 56.1068 82.2752 55.9095 82.0139 55.9095C81.8842 55.9095 81.7676 55.9569 81.6778 56.0514C81.5578 56.1856 81.4739 56.4259 81.7736 56.8254C81.8973 56.9895 82.0432 57.1251 82.0432 57.1251L85.9318 61.4929C85.9636 61.5313 86.7328 62.4452 86.0191 63.356L85.8815 63.5306C85.7654 63.6588 85.6398 63.7768 85.5206 63.8792C84.8569 64.4232 83.9708 64.4818 83.6197 64.4818C83.4328 64.4818 83.2517 64.4653 83.0947 64.4368C82.7109 64.3677 82.4529 64.2608 82.3278 64.1135L82.2817 64.0649C82.0688 63.8454 80.1084 61.8441 78.4864 60.4902C78.2734 60.3111 78.007 60.085 77.7306 60.085C77.5946 60.085 77.4732 60.1385 77.3797 60.2423C77.0583 60.594 77.5403 61.1189 77.7442 61.3117L81.0616 64.9697C81.0576 65.0016 81.0158 65.0772 80.9359 65.1924C80.8173 65.3565 80.4146 65.7591 79.2115 65.9104C79.0673 65.9297 78.9183 65.9371 78.771 65.9371C77.5307 65.9371 76.207 65.3351 75.5256 64.9729C75.8356 64.3174 75.9965 63.5957 75.9965 62.8714C75.998 60.141 73.7811 57.921 71.0521 57.919C70.9935 57.919 70.9315 57.921 70.8729 57.923C70.9622 56.6767 70.7862 54.3165 68.3635 53.2774C67.6671 52.976 66.9715 52.8222 66.2953 52.8222C65.7664 52.8222 65.2582 52.9129 64.7794 53.0966C64.2778 52.1212 63.4446 51.4106 62.3572 51.0404C61.7566 50.8319 61.1592 50.7273 60.5814 50.7273C59.5736 50.7273 58.6446 51.0242 57.8168 51.6131C57.0232 50.626 55.8246 50.0417 54.5615 50.0417C53.4573 50.0417 52.3946 50.4841 51.6072 51.2633C50.5753 50.475 46.4802 47.8737 35.5199 45.3853C34.989 45.2656 33.7708 44.9155 33.0246 44.6974C32.9009 45.2909 32.8065 45.8903 32.7445 46.4954C32.7445 46.4954 34.766 46.9794 35.1633 47.0693C46.3605 49.556 50.0592 52.1414 50.6848 52.6308C50.4729 53.1387 50.3629 53.688 50.3615 54.2411C50.3603 56.5535 52.2417 58.4377 54.5569 58.4397C54.8163 58.4397 55.0736 58.4175 55.3261 58.3706C55.6747 60.0728 56.7889 61.3632 58.491 62.0252C58.9887 62.216 59.4923 62.315 59.9859 62.315C60.3058 62.3158 60.6272 62.2751 60.9411 62.1952C61.255 62.9937 61.9631 63.9893 63.5441 64.6316C64.0986 64.8543 64.6537 64.9709 65.1923 64.9709C65.6327 64.9709 66.0633 64.8941 66.4736 64.7428C67.2314 66.5892 69.0351 67.8119 71.0455 67.8119C72.3783 67.8139 73.658 67.2705 74.5907 66.3102C75.39 66.7547 77.0754 67.5577 78.7787 67.5606C78.9997 67.5606 79.207 67.5441 79.4134 67.5202C81.1051 67.3058 81.8927 66.6446 82.2542 66.1299C82.3196 66.0406 82.3787 65.9448 82.4288 65.8459C82.8283 65.9605 83.2673 66.0543 83.7701 66.0557C84.6945 66.0557 85.5812 65.7404 86.4775 65.0875C87.3584 64.4525 87.9837 63.5411 88.0742 62.7651C88.0756 62.7549 88.0776 62.7429 88.0787 62.7313C88.3759 62.7924 88.6801 62.8245 88.9844 62.8245C89.9356 62.8245 90.8717 62.5274 91.7654 61.9419C93.4904 60.811 93.7901 59.334 93.7614 58.3672C94.0631 58.4306 94.371 58.463 94.6779 58.463C95.571 58.463 96.448 58.194 97.2837 57.6611C98.3526 56.9784 98.9964 55.9316 99.0934 54.714C99.1605 53.8865 98.9561 53.0516 98.519 52.3336C101.409 51.0887 108.014 48.6796 115.79 46.9265C115.744 46.3234 115.657 45.7279 115.549 45.1351C106.139 47.2237 99.117 50.2626 97.358 51.0452ZM71.047 66.2536C69.2197 66.2525 67.7336 64.8321 67.6671 63.0219C67.6619 62.8669 67.6463 62.4546 67.2971 62.4546C67.1538 62.4546 67.0287 62.541 66.8854 62.6707C66.4841 63.0426 65.972 63.4217 65.2244 63.4217C64.8854 63.4217 64.5181 63.3424 64.1299 63.184C62.2002 62.4023 62.1735 61.0766 62.2517 60.5437C62.2733 60.4018 62.2804 60.2539 62.1826 60.1385L62.064 60.0324H61.9435C61.8459 60.0324 61.745 60.0728 61.6082 60.1686C61.0497 60.5607 60.5143 60.7515 59.9703 60.7515C59.67 60.7515 59.3632 60.691 59.0552 60.5724C56.5145 59.5834 56.7152 57.1857 56.8395 56.4637C56.8577 56.3178 56.8213 56.2038 56.7289 56.129L56.5491 55.9811L56.3817 56.1412C55.8857 56.6189 55.2388 56.8805 54.5575 56.8805C53.1021 56.8788 51.9178 55.6965 51.9192 54.2411C51.9206 52.7852 53.1061 51.6034 54.5615 51.6054C55.8761 51.6054 56.9959 52.5941 57.1634 53.9076L57.2538 54.6162L57.6434 54.0162C57.6872 53.9465 58.7529 52.3342 60.713 52.3362C61.0864 52.3362 61.4714 52.3968 61.8582 52.5159C63.421 52.9928 63.6854 54.4103 63.7267 55.0001C63.7545 55.3439 63.9988 55.3609 64.0472 55.3609C64.1819 55.3609 64.2809 55.2748 64.352 55.2011C64.6472 54.8937 65.2887 54.3819 66.2939 54.3819C66.754 54.383 67.2436 54.4919 67.7492 54.7095C70.232 55.7744 69.1056 58.9308 69.0926 58.9635C68.8787 59.4864 68.8705 59.7176 69.0709 59.8507L69.1688 59.8976H69.241C69.353 59.8976 69.4927 59.8487 69.7224 59.7711C70.0605 59.6539 70.5707 59.4787 71.0475 59.4799H71.049C72.9183 59.4995 74.4388 61.0214 74.4382 62.8695C74.4362 64.7366 72.9152 66.2536 71.047 66.2536Z" fill="#1D3086"/>
<path d="M154.951 46.3769C153.433 46.2734 152.675 45.5488 152.675 44.1V34.7167C152.571 32.8197 151.535 31.8882 149.5 31.8882C147.465 31.8882 146.43 32.8197 146.395 34.7167V46.3078H141.773V34.6482C141.669 32.7506 140.635 31.8191 138.6 31.8191C136.564 31.8191 135.529 32.7506 135.494 34.6482V46.3078H130.838V35.5792C130.838 30.3702 133.459 27.7826 138.669 27.7826C141.014 27.7826 142.808 28.3007 144.119 29.3352C145.43 28.3345 147.223 27.8525 149.569 27.8525C154.779 27.8525 157.366 30.4393 157.331 35.6477V46.3769H154.951ZM188.238 32.5891C185.685 32.5891 184.483 34.2353 184.483 36.8918V46.378H179.827V36.9609C179.964 31.0615 182.879 27.7826 188.985 27.7826H190.37V32.5433L188.238 32.5891ZM218.659 46.496C214.278 46.8407 211.241 44.8055 211.241 40.7699C211.345 36.3882 214.519 35.2157 219.141 34.7676C221.108 34.5259 222.109 33.939 222.109 32.9389C222.005 31.9038 221.039 31.4113 219.141 31.3865C216.993 31.3584 216.3 32.6437 216.059 33.5062L211.786 33.501C211.95 29.9755 213.724 27.6264 218.934 27.6264C223.971 27.6264 226.524 29.2817 226.628 32.6627V38.8723C226.628 43.9086 223.592 46.1508 218.659 46.496ZM222.178 37.1713C221.108 37.62 219.866 37.8031 218.521 38.0787C216.693 38.4239 215.76 39.2866 215.76 40.6317C215.864 42.0805 216.623 42.7698 218.072 42.7698C220.625 42.7698 222.178 41.2518 222.178 38.665V37.1713ZM237.751 46.5839C232.093 46.4798 229.264 43.4101 229.264 37.3388C229.264 31.1292 231.679 27.9555 236.543 27.7826C238.82 27.7826 240.581 28.7141 241.752 30.6119V24.7951L241.763 24.2818C243.281 22.0174 246.306 21.9589 246.306 21.9589V38.4082C246.306 43.893 243.443 46.6186 237.751 46.5839ZM237.889 31.8882C235.406 31.8882 234.129 33.6131 233.991 37.1315C233.957 40.8233 235.198 42.6859 237.82 42.6859C240.442 42.6859 241.752 40.8233 241.752 37.1315C241.649 33.6131 240.373 31.8882 237.889 31.8882ZM161.216 73.3257V52.1101C161.216 51.4217 162.642 49.1571 164.604 49.1571H165.805V73.3257H161.216ZM188.393 73.3251C182.701 73.3595 179.837 70.6339 179.837 65.1495V51.4046C180.415 50.4065 181.617 49.1852 183.906 49.1571H184.425L184.425 57.3523C185.598 55.4554 187.324 54.5238 189.6 54.5238C194.464 54.6964 196.879 57.871 196.879 64.0797C196.879 70.1514 194.05 73.2208 188.393 73.3251ZM188.324 58.6291C185.84 58.6291 184.564 60.3535 184.425 63.8727C184.391 67.5643 185.633 69.4263 188.255 69.4263C190.877 69.4263 192.188 67.5643 192.188 63.8727C192.084 60.3535 190.808 58.6291 188.324 58.6291ZM177.136 38.284H164.308C164.377 39.8656 164.778 41.013 165.512 41.723C166.245 42.4336 167.3 42.7894 168.676 42.7894C169.662 42.7894 170.51 42.5431 171.22 42.05C171.931 41.5567 172.367 41.0349 172.527 40.4852H176.827C176.139 42.6173 175.084 44.1424 173.663 45.0589C172.241 45.9762 170.521 46.4349 168.504 46.4349C167.106 46.4349 165.844 46.2114 164.721 45.7638C163.597 45.3171 162.646 44.6804 161.866 43.8552C161.086 43.0297 160.484 42.0441 160.061 40.8975C159.636 39.7516 159.424 38.4904 159.424 37.1147C159.424 35.785 159.642 34.5466 160.078 33.4001C160.513 32.2536 161.132 31.2626 161.935 30.4248C162.737 29.5885 163.694 28.9291 164.806 28.4471C165.919 27.9665 167.15 27.7254 168.504 27.7254C170.017 27.7254 171.335 28.0177 172.459 28.6021C173.582 29.1873 174.505 29.973 175.228 30.9577C175.95 31.9442 176.471 33.068 176.792 34.3291C177.114 35.5897 177.228 36.908 177.136 38.284ZM171.032 32.3682C170.447 31.7266 169.558 31.4053 168.366 31.4053C167.586 31.4053 166.939 31.5375 166.423 31.8009C165.908 32.0647 165.494 32.3918 165.185 32.7813C164.876 33.1709 164.657 33.5838 164.532 34.0189C164.405 34.4548 164.331 34.8444 164.308 35.1882H172.252C172.023 33.9506 171.616 33.0105 171.032 32.3682ZM200.698 31.3482C199.911 31.3482 199.25 31.5279 198.718 31.8862C198.185 32.2456 197.751 32.7088 197.415 33.2755C197.079 33.8437 196.842 34.469 196.703 35.1518C196.564 35.8351 196.495 36.5127 196.495 37.1844C196.495 37.8333 196.564 38.493 196.703 39.1641C196.842 39.8363 197.068 40.4443 197.381 40.988C197.693 41.5328 198.115 41.9784 198.648 42.3256C199.181 42.6728 199.829 42.8465 200.593 42.8465C201.775 42.8465 202.683 42.5164 203.321 41.8564C203.957 41.1967 204.357 40.3106 204.519 39.1993H209.279C208.954 41.5848 208.028 43.4025 206.5 44.6531C204.971 45.904 203.014 46.5293 200.629 46.5293C199.285 46.5293 198.052 46.3032 196.928 45.8517C195.805 45.4004 194.85 44.7691 194.063 43.9587C193.275 43.1483 192.662 42.1809 192.222 41.0579C191.781 39.9347 191.562 38.7014 191.562 37.3581C191.562 35.9682 191.764 34.6774 192.17 33.4848C192.575 32.2919 193.171 31.2609 193.959 30.3924C194.746 29.524 195.707 28.8464 196.842 28.3604C197.977 27.8738 199.274 27.631 200.733 27.631C201.798 27.631 202.823 27.7698 203.807 28.0479C204.791 28.3254 205.672 28.7482 206.447 29.3155C207.223 29.8837 207.855 30.5898 208.341 31.4346C208.827 32.2803 209.105 33.2821 209.174 34.4397H204.346C204.021 32.3787 202.805 31.3482 200.698 31.3482ZM267.102 41.005C266.662 42.1632 266.037 43.1534 265.227 43.9757C264.415 44.7978 263.438 45.4291 262.291 45.8687C261.145 46.3083 259.865 46.5287 258.453 46.5287C257.039 46.5287 255.766 46.3083 254.631 45.8687C253.496 45.4291 252.523 44.7978 251.713 43.9757C250.902 43.1534 250.277 42.1632 249.837 41.005C249.397 39.8474 249.177 38.551 249.177 37.1147C249.177 35.679 249.397 34.376 249.837 33.2067C250.277 32.0372 250.902 31.0413 251.713 30.2184C252.523 29.3969 253.496 28.7599 254.631 28.3083C255.766 27.8562 257.039 27.631 258.453 27.631C259.865 27.631 261.145 27.8562 262.291 28.3083C263.438 28.7599 264.415 29.3969 265.227 30.2184C266.037 31.0413 266.662 32.0372 267.102 33.2067C267.542 34.376 267.762 35.679 267.762 37.1147C267.762 38.551 267.542 39.8474 267.102 41.005ZM262.621 34.9954C262.482 34.3004 262.245 33.6873 261.909 33.1538C261.573 32.6215 261.121 32.1879 260.554 31.8515C259.986 31.5162 259.287 31.3482 258.453 31.3482C257.619 31.3482 256.924 31.5162 256.368 31.8515C255.813 32.1879 255.366 32.6215 255.031 33.1538C254.695 33.6873 254.458 34.3004 254.319 34.9954C254.179 35.69 254.11 36.3967 254.11 37.1147C254.11 37.8324 254.179 38.5334 254.319 39.2161C254.458 39.8994 254.695 40.5139 255.031 41.0571C255.366 41.6019 255.813 42.0364 256.368 42.36C256.924 42.6845 257.619 42.8465 258.453 42.8465C259.287 42.8465 259.986 42.6845 260.554 42.36C261.121 42.0364 261.573 41.6019 261.909 41.0571C262.245 40.5139 262.482 39.8994 262.621 39.2161C262.76 38.5334 262.83 37.8324 262.83 37.1147C262.83 36.3967 262.76 35.69 262.621 34.9954ZM207.989 59.4845C205.436 59.4845 204.234 61.13 204.234 63.7865V73.2737H199.577V63.8556C199.715 57.9569 202.63 54.6782 208.736 54.6782H210.122V59.4384L207.989 59.4845ZM229.005 65.1793H216.177C216.246 66.7612 216.646 67.9083 217.381 68.6184C218.114 69.3299 219.169 69.6847 220.545 69.6847C221.53 69.6847 222.379 69.4385 223.09 68.9454C223.8 68.4529 224.236 67.9305 224.397 67.3806H228.696C228.008 69.513 226.953 71.038 225.531 71.9545C224.11 72.8724 222.39 73.3302 220.373 73.3302C218.974 73.3302 217.713 73.1067 216.589 72.66C215.466 72.2124 214.514 71.5766 213.735 70.7514C212.955 69.9253 212.353 68.9403 211.929 67.7932C211.505 66.6472 211.293 65.3861 211.293 64.0101C211.293 62.6804 211.511 61.4428 211.947 60.2954C212.382 59.1498 213.002 58.1582 213.803 57.321C214.606 56.4839 215.563 55.8247 216.676 55.3433C217.787 54.8619 219.019 54.6208 220.373 54.6208C221.886 54.6208 223.204 54.9134 224.328 55.4977C225.451 56.0827 226.374 56.8683 227.097 57.8539C227.819 58.8404 228.34 59.9639 228.662 61.2245C228.982 62.4856 229.097 63.8036 229.005 65.1793ZM222.901 59.2644C222.316 58.6226 221.427 58.301 220.235 58.301C219.455 58.301 218.808 58.4332 218.292 58.6962C217.777 58.9607 217.364 59.2871 217.054 59.6767C216.744 60.0668 216.526 60.4791 216.4 60.9151C216.275 61.351 216.199 61.7406 216.177 62.0838H224.122C223.892 60.846 223.485 59.9059 222.901 59.2644ZM170.727 53.3363V49.1571H175.316V53.3363H170.727ZM170.727 73.3257V55.4377H175.316V73.3257H170.727Z" fill="#1D3086"/>
</svg>
