<svg width="90" height="90" viewBox="0 0 90 90" fill="none" xmlns="http://www.w3.org/2000/svg">
<path d="M84.7537 44.0809C84.7537 29.7123 66.9011 17.999 44.8783 17.999C22.8563 17.999 5.0042 29.7123 5.0042 44.0809C5.0042 44.4515 5 45.4773 5 45.6077C5 60.8507 20.6034 73.1967 44.8731 73.1967C69.2927 73.1967 84.7537 60.8541 84.7537 45.6108V44.0809Z" fill="#1D3086"/>
<path d="M83.2265 44.0675C83.2265 57.6143 66.0606 68.5955 44.8853 68.5955C23.7097 68.5955 6.54508 57.6143 6.54508 44.0675C6.54508 30.5205 23.7097 19.5392 44.8853 19.5392C66.0606 19.5392 83.2265 30.5205 83.2265 44.0675Z" fill="#FFE000"/>
<path d="M66.1586 46.92C64.3359 45.3284 53.7867 36.1208 51.1632 34.1481C49.7704 33.1031 48.8973 32.6147 48.1547 32.3928C47.478 32.1885 46.4535 31.97 44.8545 32.4789C43.3445 32.9578 41.8423 34.1625 40.3286 35.3657C38.9308 36.4741 37.4887 37.6214 36.3632 37.8743C34.4734 38.2979 32.6053 37.8543 31.9994 37.0816C31.7521 36.7637 32.1342 36.3679 32.1544 36.3294L35.4998 32.7241C38.1413 30.0844 40.6373 27.5899 46.3994 27.4567C50.2764 27.3652 54.2069 29.2256 54.2441 29.2406C61.5066 32.7878 68.9335 31.4557 75.0103 28.9035C79.3704 32.444 82.2457 36.7679 83.0161 41.4947C74.1505 43.4488 67.6264 46.2575 66.1586 46.92ZM66.5539 49.9217C66.5185 50.6438 66.1057 51.2665 65.4596 51.6799C63.6535 52.8293 62.1919 51.7893 62.1319 51.7465C62.1319 51.7465 57.9016 47.8677 56.338 46.5602C56.1177 46.3758 55.7812 46.104 55.6314 46.2929C55.4483 46.5164 55.9661 46.9591 55.9661 46.9591L60.8726 51.8913C60.8726 51.8913 61.5551 52.5145 61.6309 53.3893C61.6616 54.0511 61.4428 54.9271 60.3556 55.6398C58.5639 56.8175 57.2107 55.9797 56.9096 55.7599C55.3702 54.2517 53.7634 52.6394 52.6263 51.6888C52.401 51.5021 52.0713 51.2513 51.9144 51.4174C51.74 51.6083 52.2538 52.0831 52.2538 52.0831L55.8449 56.1156C55.8449 56.1156 56.7186 57.1341 55.932 58.1408C55.9441 58.1363 55.9535 58.1227 55.9661 58.113C55.8093 58.3126 55.6212 58.5054 55.4326 58.6604C54.6869 59.2728 53.6102 59.3363 53.0014 59.2272C52.2948 59.1002 52.1678 58.8503 52.1361 58.8293C52.1361 58.8293 50.2239 56.856 48.6588 55.5485C48.4369 55.3633 48.1245 55.0911 47.9509 55.281C47.7833 55.4654 48.2898 55.9443 48.2898 55.9443L51.3662 59.3623C51.4722 59.4903 51.3578 59.6694 51.2503 59.8231C51.0924 60.0456 50.6525 60.4427 49.4927 60.588C48.0417 60.7718 46.3887 59.9475 45.7395 59.5829C46.0684 58.9736 46.2565 58.28 46.2565 57.5422C46.2575 55.1577 44.3192 53.2206 41.9359 53.2188C41.7893 53.2188 41.6451 53.2254 41.5021 53.2421C41.6847 51.7536 41.3717 49.7798 39.3618 48.9169C38.7464 48.6507 38.1353 48.5166 37.5488 48.5166C36.9516 48.5148 36.4443 48.6525 36.0314 48.8387C35.7022 48.098 35.0677 47.2789 33.8371 46.8571C33.3077 46.6769 32.7832 46.583 32.2777 46.583C31.1648 46.5825 30.3039 47.0037 29.6794 47.4971C29.0184 46.5602 27.932 45.9545 26.7255 45.9527C25.6511 45.9527 24.6898 46.4219 24.0228 47.1642C23.4066 46.6431 20.011 44.1457 9.10919 41.7219C8.64047 41.6185 7.52519 41.2862 6.83299 41.1034C7.76362 36.1641 10.9856 31.6797 15.803 28.0936C19.8237 29.97 22.5151 30.7878 25.5813 31.6267C26.0886 31.7649 28.7614 32.2029 29.26 32.2029C30.4545 32.2037 31.6354 31.8756 32.8637 31.5301C33.8473 31.256 34.8587 30.9767 35.9517 30.8343C35.5459 31.2217 35.1488 31.6149 34.7554 32.0083L31.3662 35.6739C31.2579 35.7851 30.5977 36.4484 30.9557 37.2781C31.0885 37.5884 31.3644 37.8934 31.7573 38.1573C32.726 38.8122 34.8495 39.272 36.5885 38.8825C37.9483 38.578 39.4158 37.4111 40.971 36.172C42.4737 34.9809 44.1657 33.8496 45.4601 33.4974C45.9331 33.3675 46.609 33.2768 47.0987 33.34C48.0385 33.4601 48.934 33.7678 50.5437 34.9749C53.3264 37.0667 65.6062 47.8118 65.7295 47.9217C65.7295 47.9217 66.6158 48.6669 66.5539 49.9217ZM41.9317 60.9035C40.1261 60.9017 38.6399 59.4806 38.5728 57.6912C38.5602 57.3552 38.4952 57.3198 38.2567 57.538C37.7093 58.044 36.8734 58.631 35.4607 58.0571C33.6044 57.3043 33.4898 55.9797 33.5805 55.3615C33.6104 55.1627 33.5756 55.0995 33.3641 55.2492C32.652 55.7484 31.7935 56.04 30.7834 55.6482C28.2656 54.6688 28.4729 52.2638 28.5854 51.6028C28.593 51.5519 28.5864 51.5265 28.5715 51.5123C28.0912 51.9737 27.4399 52.2609 26.7213 52.2591C25.2437 52.2591 24.0456 51.0609 24.0461 49.5834C24.0479 48.1056 25.2466 46.9082 26.7249 46.9098C28.0852 46.9106 29.1957 47.9309 29.3641 49.2445C29.7403 48.664 31.222 47.0549 33.527 47.7607C35.1399 48.253 35.3825 49.7216 35.4205 50.2635C35.4323 50.3999 35.4782 50.4083 35.5816 50.3021C35.974 49.8939 37.1163 48.9903 38.9849 49.7937C41.4263 50.8403 40.4246 53.8543 40.3519 54.0293C40.2803 54.2053 40.1741 54.5111 40.2342 54.551C40.343 54.6171 41.1745 54.1652 41.9354 54.1741C43.7951 54.1945 45.3009 55.6817 45.2996 57.5422C45.2991 59.4014 43.7914 60.9054 41.9317 60.9035Z" fill="white"/>
<path d="M66.2053 46.6352C62.4227 43.3337 53.6802 35.7337 51.3122 33.9562C49.96 32.939 49.0373 32.401 48.227 32.1602C47.8635 32.0503 47.3602 31.9252 46.711 31.9247C46.1095 31.9247 45.4624 32.0333 44.787 32.2478C43.2571 32.7323 41.7326 33.9444 40.258 35.116L40.1824 35.1761C38.8088 36.2672 37.3895 37.3969 36.3149 37.6372C35.8464 37.7432 35.3638 37.7972 34.883 37.7972C33.6794 37.7954 32.5984 37.4481 32.1935 36.9319C32.1268 36.8467 32.1693 36.7076 32.3262 36.5088L32.3466 36.4823L35.6744 32.8962C38.2805 30.2895 40.743 27.8289 46.4093 27.6986C46.5027 27.6962 46.5987 27.6944 46.6923 27.6944C50.2197 27.6968 53.7457 29.2758 54.1413 29.4586C57.4485 31.072 60.8621 31.8916 64.2944 31.894C67.8711 31.895 71.5611 31.0101 75.4404 29.2236C75.0071 28.859 74.5565 28.5044 74.0927 28.1563C70.6845 29.6341 67.4365 30.3808 64.3034 30.3798C61.1044 30.3766 57.9062 29.6081 54.8028 28.0939C54.6386 28.0157 50.7456 26.1794 46.6937 26.1783C46.588 26.1783 46.4804 26.1794 46.3739 26.1812C41.6143 26.2929 38.9331 27.9834 37.1299 29.4641C35.3764 29.5066 33.8635 29.9297 32.5174 30.3058C31.3161 30.6392 30.279 30.929 29.267 30.9282C28.85 30.9282 28.1001 30.8899 28.0329 30.8881C26.8697 30.8527 21.0079 29.4148 16.3456 27.6493C15.869 27.9863 15.411 28.3344 14.9651 28.6888C19.8362 30.6861 25.7638 32.231 27.6345 32.3512C28.1554 32.3855 28.7102 32.4443 29.2647 32.4456C30.5027 32.4456 31.7373 32.0983 32.9331 31.7642C33.6387 31.5653 34.418 31.3503 35.2377 31.1926C35.0189 31.408 34.8002 31.6254 34.5814 31.8447L31.2002 35.5024C30.9339 35.771 30.3566 36.4878 30.7375 37.3712C30.8891 37.7269 31.196 38.0676 31.6264 38.3577C32.4322 38.8999 33.8748 39.2669 35.2148 39.2682C35.7226 39.2687 36.204 39.2178 36.6467 39.1187C38.0636 38.8 39.5503 37.6162 41.1251 36.364C42.3805 35.367 44.1628 34.1009 45.528 33.729C45.9089 33.6251 46.3776 33.5609 46.7537 33.5609C46.8668 33.5619 46.973 33.5651 47.0716 33.5795C47.9737 33.6936 48.8455 34.0008 50.4017 35.1688C53.1773 37.2535 65.459 47.9979 65.5786 48.1036C65.587 48.1104 66.3705 48.7858 66.316 49.9087C66.2863 50.535 65.939 51.0914 65.3347 51.4772C64.8106 51.8095 64.2693 51.979 63.7224 51.979C62.9017 51.9771 62.3362 51.5931 62.3002 51.5667C62.2543 51.5294 58.0468 47.671 56.499 46.3756C56.2522 46.1712 56.013 45.9874 55.7701 45.9874C55.6411 45.9861 55.5262 46.0414 55.4488 46.1387C55.2046 46.4385 55.4782 46.8545 55.7995 47.1284L60.7149 52.0684C60.7215 52.0739 61.3274 52.6423 61.3935 53.4001C61.4323 54.219 61.0407 54.9041 60.2265 55.4371C59.6466 55.8192 59.0596 56.0133 58.4843 56.0133C57.7297 56.0133 57.1996 55.6695 57.0826 55.5884L56.3771 54.8931C55.0887 53.6254 53.7583 52.3142 52.7844 51.5019C52.547 51.3041 52.2929 51.1221 52.0518 51.1221C51.9322 51.1221 51.8247 51.1659 51.7418 51.2529C51.6311 51.3768 51.5537 51.5984 51.8302 51.9669C51.9443 52.1183 52.0788 52.2434 52.0788 52.2434L55.6657 56.2722C55.6951 56.3076 56.4046 57.1507 55.7463 57.9908L55.6193 58.1518C55.5123 58.2701 55.3963 58.379 55.2864 58.4734C54.6742 58.9752 53.8569 59.0292 53.533 59.0292C53.3607 59.0292 53.1936 59.014 53.0488 58.9878C52.6947 58.924 52.4568 58.8254 52.3414 58.6895L52.2989 58.6447C52.1024 58.4422 50.2942 56.5962 48.798 55.3474C48.6016 55.1821 48.3558 54.9736 48.1009 54.9736C47.9755 54.9736 47.8635 55.0229 47.7772 55.1187C47.4808 55.4431 47.9254 55.9273 48.1135 56.1051L51.1734 59.4793C51.1697 59.5087 51.1312 59.5785 51.0575 59.6847C50.9481 59.836 50.5767 60.2074 49.4669 60.347C49.3339 60.3648 49.1965 60.3716 49.0606 60.3716C47.9165 60.3716 46.6955 59.8164 46.067 59.4822C46.3529 58.8776 46.5014 58.2119 46.5014 57.5438C46.5027 55.0253 44.4579 52.9775 41.9406 52.9757C41.8866 52.9757 41.8294 52.9775 41.7754 52.9794C41.8577 51.8297 41.6954 49.6527 39.4606 48.6943C38.8183 48.4162 38.1767 48.2743 37.5529 48.2743C37.0651 48.2743 36.5964 48.358 36.1546 48.5274C35.692 47.6278 34.9234 46.9723 33.9204 46.6308C33.3664 46.4385 32.8154 46.342 32.2824 46.342C31.3528 46.342 30.4959 46.6158 29.7324 47.159C29.0003 46.2486 27.8947 45.7096 26.7296 45.7096C25.7111 45.7096 24.7309 46.1177 24.0046 46.8364C23.0527 46.1093 19.2754 43.7099 9.16553 41.4145C8.67583 41.3041 7.55216 40.9812 6.86389 40.78C6.7498 41.3274 6.66271 41.8804 6.60553 42.4385C6.60553 42.4385 8.47019 42.885 8.83661 42.9678C19.165 45.2616 22.5767 47.6464 23.1537 48.0978C22.9583 48.5663 22.8568 49.073 22.8555 49.5832C22.8545 51.7162 24.5898 53.4541 26.7254 53.456C26.9646 53.456 27.202 53.4355 27.4349 53.3922C27.7565 54.9623 28.7842 56.1526 30.3543 56.7632C30.8133 56.9392 31.2778 57.0305 31.7331 57.0305C32.0282 57.0313 32.3246 56.9938 32.6142 56.9201C32.9038 57.6566 33.5569 58.5749 35.0152 59.1674C35.5267 59.3728 36.0387 59.4804 36.5355 59.4804C36.9418 59.4804 37.3389 59.4095 37.7174 59.27C38.4164 60.9731 40.0802 62.101 41.9346 62.101C43.164 62.1028 44.3443 61.6015 45.2046 60.7158C45.9419 61.1257 47.4965 61.8665 49.0677 61.8691C49.2715 61.8691 49.4627 61.8539 49.6531 61.8318C51.2135 61.6341 51.9401 61.0242 52.2735 60.5495C52.3338 60.4671 52.3883 60.3787 52.4345 60.2874C52.803 60.3931 53.208 60.4797 53.6718 60.481C54.5245 60.481 55.3423 60.1901 56.1691 59.5879C56.9817 59.0022 57.5584 58.1615 57.6419 57.4457C57.6432 57.4363 57.645 57.4253 57.646 57.4145C57.9201 57.4709 58.2008 57.5006 58.4815 57.5006C59.3588 57.5006 60.2223 57.2265 61.0467 56.6864C62.6378 55.6432 62.9142 54.2809 62.8878 53.3891C63.166 53.4476 63.4501 53.4775 63.7331 53.4775C64.557 53.4775 65.3659 53.2293 66.1368 52.7378C67.1228 52.108 67.7166 51.1425 67.8061 50.0194C67.868 49.2561 67.6794 48.486 67.2762 47.8237C69.9417 46.6754 76.0342 44.4532 83.2075 42.8362C83.1645 42.2798 83.0845 41.7306 82.9845 41.1837C74.3047 43.1103 67.8278 45.9134 66.2053 46.6352ZM41.9359 60.6636C40.2504 60.6625 38.8796 59.3524 38.8183 57.6826C38.8135 57.5396 38.7991 57.1593 38.477 57.1593C38.3448 57.1593 38.2294 57.239 38.0972 57.3587C37.7271 57.7017 37.2547 58.0514 36.5651 58.0514C36.2525 58.0514 35.9136 57.9782 35.5556 57.8321C33.7756 57.111 33.751 55.8882 33.8231 55.3967C33.843 55.2658 33.8496 55.1294 33.7594 55.0229L33.65 54.9251H33.5388C33.4488 54.9251 33.3557 54.9623 33.2295 55.0507C32.7144 55.4124 32.2205 55.5884 31.7187 55.5884C31.4417 55.5884 31.1587 55.5326 30.8746 55.4232C28.531 54.5109 28.7162 52.2992 28.8308 51.6333C28.8476 51.4987 28.8141 51.3935 28.7288 51.3246L28.563 51.1882L28.4085 51.3358C27.9511 51.7765 27.3544 52.0178 26.7259 52.0178C25.3835 52.0162 24.291 50.9256 24.2924 49.5832C24.2937 48.2402 25.3872 47.1501 26.7296 47.152C27.9422 47.152 28.9751 48.064 29.1296 49.2755L29.213 49.9291L29.5724 49.3757C29.6127 49.3114 30.5958 47.8242 32.4038 47.8261C32.7482 47.8261 33.1034 47.8819 33.4601 47.9918C34.9017 48.4317 35.1456 49.7392 35.1836 50.2832C35.2093 50.6004 35.4346 50.6161 35.4792 50.6161C35.6036 50.6161 35.6948 50.5366 35.7604 50.4687C36.0327 50.1851 36.6244 49.713 37.5516 49.713C37.976 49.7141 38.4277 49.8145 38.8941 50.0152C41.1842 50.9975 40.1452 53.909 40.1331 53.9391C39.9359 54.4215 39.9283 54.6347 40.1132 54.7575L40.2034 54.8008H40.2701C40.3734 54.8008 40.5022 54.7556 40.7141 54.684C41.026 54.576 41.4965 54.4144 41.9364 54.4154H41.9377C43.6621 54.4335 45.0645 55.8373 45.064 57.542C45.0622 59.2642 43.6592 60.6636 41.9359 60.6636Z" fill="#1D3086"/>
</svg>
