<svg width="300" height="100" viewBox="0 0 300 100" fill="none" xmlns="http://www.w3.org/2000/svg">
<path fill-rule="evenodd" clip-rule="evenodd" d="M61.0001 24C46.3536 24 35 34.729 35 49.2201C35 56.7998 38.1064 63.3499 43.1653 67.874C43.5898 68.2542 43.8465 68.7866 43.8641 69.3566L44.0058 73.9814C44.0513 75.4569 45.5749 76.4163 46.9249 75.8209L52.0853 73.5426C52.5227 73.3496 53.0128 73.3138 53.4737 73.4406C55.8449 74.0925 58.3689 74.4403 61.0001 74.4403C75.6465 74.4403 87.0001 63.7113 87.0001 49.2201C87.0001 34.729 75.6465 24 61.0001 24Z" fill="url(#paint0_radial_799_6009)"/>
<path d="M52.8714 44.3133L45.2948 56.3321C45.0493 56.7242 45.0508 57.133 45.2021 57.4696C45.352 58.285 46.3569 58.8597 47.1753 58.239L55.379 52.0126C55.9341 51.5914 56.7011 51.5895 57.2581 52.0074L63.333 56.5633C65.1557 57.9303 67.7576 57.4499 68.9725 55.5227L76.61 43.4053C77.1169 42.6013 76.5901 41.7268 75.8547 41.5381C75.465 41.3028 74.9503 41.2749 74.494 41.6237L66.3539 47.8C65.8023 48.216 65.0417 48.216 64.49 47.8L58.4648 43.2814C58.3807 43.2186 58.2943 43.1589 58.2053 43.1028C56.3979 41.9642 54.01 42.5059 52.8714 44.3133Z" fill="white"/>
<path d="M111.193 61.2953L105 44.9524V61.2953H100.109V36.2725H106.304L112.987 53.9176L119.632 36.2725H125.745V61.2953H120.812V44.9524L114.74 61.2953H111.193Z" fill="#000008"/>
<path fill-rule="evenodd" clip-rule="evenodd" d="M144.611 55.3444C143.958 59.2168 141.106 61.7088 136.54 61.7088C131.243 61.7088 127.696 57.8296 127.696 52.2063C127.696 46.7043 131.364 42.6709 136.458 42.6709C141.797 42.6709 144.73 46.3787 144.73 51.718V53.2662H132.587C132.753 55.9956 134.298 57.627 136.539 57.627C138.251 57.627 139.514 56.8927 139.923 55.3444H144.611ZM132.71 50.2095H139.76C139.72 48.2941 138.579 46.7857 136.501 46.7857C134.544 46.7857 133.158 47.9686 132.71 50.2095Z" fill="#000008"/>
<path d="M153.859 57.8677C152.353 57.8677 151.211 57.1781 150.803 55.874L145.791 55.879C146.321 59.5868 149.459 61.7066 153.901 61.7066C158.139 61.7066 161.358 59.5054 161.358 55.7976C161.358 53.0267 159.687 51.2741 156.509 50.4999L152.76 49.6426C151.618 49.3586 151.13 48.9499 151.13 48.2174C151.13 47.0761 152.311 46.5063 153.534 46.5063C155.205 46.5063 156.054 47.2805 156.386 48.2987H161.195C160.584 44.8749 158.057 42.6755 153.452 42.6755C149.377 42.6755 146.198 45.0377 146.198 48.5845C146.198 51.6362 148.155 53.0701 150.932 53.7113L154.6 54.5252C155.856 54.8526 156.428 55.2595 156.428 56.0734C156.428 57.2563 155.409 57.8677 153.859 57.8677Z" fill="#000008"/>
<path d="M167.596 55.874C168.003 57.1781 169.144 57.8677 170.652 57.8677C172.201 57.8677 173.219 57.2563 173.219 56.0734C173.219 55.2595 172.649 54.8526 171.392 54.5252L167.724 53.7113C164.946 53.0701 162.991 51.6362 162.991 48.5845C162.991 45.0377 166.169 42.6755 170.244 42.6755C174.849 42.6755 177.375 44.8749 177.987 48.2987H173.179C172.847 47.2805 171.996 46.5063 170.325 46.5063C169.102 46.5063 167.921 47.0761 167.921 48.2174C167.921 48.9499 168.41 49.3586 169.551 49.6426L173.3 50.4999C176.48 51.2741 178.149 53.0267 178.149 55.7976C178.149 59.5054 174.93 61.7066 170.692 61.7066C166.25 61.7066 163.112 59.5868 162.582 55.879L167.596 55.874Z" fill="#000008"/>
<path fill-rule="evenodd" clip-rule="evenodd" d="M188.255 61.7089C192.815 61.7089 195.672 59.217 196.325 55.3446L191.637 55.3514C191.23 56.8996 189.968 57.6339 188.255 57.6339C186.014 57.6339 184.469 56.0025 184.303 53.2732H196.446V51.7249C196.446 46.3856 193.513 42.6778 188.173 42.6778C183.08 42.6778 179.413 46.7112 179.413 52.2133C179.413 57.8365 182.958 61.7089 188.255 61.7089ZM191.474 50.2097H184.424C184.873 47.9687 186.258 46.7858 188.215 46.7858C190.293 46.7858 191.435 48.2943 191.474 50.2097Z" fill="#000008"/>
<path d="M198.445 43.0779H203.499V44.7491C204.477 43.6078 206.27 42.6709 208.389 42.6709C212.506 42.6709 214.828 45.3604 214.828 49.3938V61.2946H209.775V50.4537C209.775 48.5383 208.796 47.2342 206.8 47.2342C205.251 47.2342 203.907 48.1711 203.499 49.761V61.2946H198.445V43.0779Z" fill="#000008"/>
<path fill-rule="evenodd" clip-rule="evenodd" d="M224.931 60.8863C226.925 60.8863 228.601 59.991 229.417 59.0125L229.42 60.0674C229.42 63.0012 228.074 64.5096 225.506 64.5096C223.551 64.5096 222.328 63.6523 221.921 61.9413H217.031C217.557 66.0144 220.776 68.42 225.503 68.42C230.637 68.42 234.428 65.5198 234.428 59.2834V43.0648H229.417V44.4901C228.599 43.5581 226.925 42.6628 224.931 42.6628C219.674 42.6628 216.658 46.9006 216.658 51.7497C216.658 56.6486 219.674 60.8863 224.931 60.8863ZM225.993 46.9087C227.379 46.9105 228.668 47.6164 229.417 48.7825V54.7313C228.687 55.9233 227.39 56.6495 225.993 56.6486C223.303 56.6486 221.713 54.6102 221.713 51.7578C221.713 48.9453 223.303 46.9087 225.993 46.9087Z" fill="#000008"/>
<path fill-rule="evenodd" clip-rule="evenodd" d="M252.968 55.3446C252.315 59.217 249.459 61.7089 244.899 61.7089C239.601 61.7089 236.055 57.8365 236.055 52.2133C236.055 46.7112 239.723 42.6778 244.818 42.6778C250.155 42.6778 253.089 46.3856 253.089 51.7249V53.2732H240.945C241.112 56.0025 242.656 57.6339 244.899 57.6339C246.61 57.6339 247.873 56.8996 248.281 55.3514L252.968 55.3446ZM241.068 50.2097H248.119C248.077 48.2943 246.936 46.7858 244.858 46.7858C242.902 46.7858 241.515 47.9687 241.068 50.2097Z" fill="#000008"/>
<path d="M263.406 47.4386C264.287 47.4174 265.159 47.6285 265.933 48.05V43.0032C265.647 42.8368 264.873 42.6709 264.017 42.6709C262.225 42.6709 260.716 43.5662 259.942 44.8703V43.0779H254.889V61.3014H259.942V50.0052C260.309 48.3339 261.695 47.4386 263.406 47.4386Z" fill="#000008"/>
<defs>
<radialGradient id="paint0_radial_799_6009" cx="0" cy="0" r="1" gradientUnits="userSpaceOnUse" gradientTransform="translate(45.14 75.6071) scale(56.6801 56.6803)">
<stop stop-color="#0099FF"/>
<stop offset="0.61" stop-color="#A033FF"/>
<stop offset="0.93" stop-color="#FF5280"/>
<stop offset="1" stop-color="#FF7061"/>
</radialGradient>
</defs>
</svg>
