<svg width="90" height="90" viewBox="0 0 90 90" fill="none" xmlns="http://www.w3.org/2000/svg">
<path fill-rule="evenodd" clip-rule="evenodd" d="M45.0002 8.99805C24.7204 8.99805 9 23.8535 9 43.9183C9 54.4132 13.3011 63.4826 20.3059 69.7466C20.8936 70.2731 21.2491 71.0102 21.2734 71.7995L21.4696 78.203C21.5326 80.2461 23.6422 81.5745 25.5115 80.7501L32.6566 77.5956C33.2624 77.3282 33.941 77.2787 34.5791 77.4542C37.8623 78.3569 41.357 78.8385 45.0002 78.8385C65.28 78.8385 81.0004 63.983 81.0004 43.9183C81.0004 23.8535 65.28 8.99805 45.0002 8.99805Z" fill="url(#paint0_radial_799_6004)"/>
<path fill-rule="evenodd" clip-rule="evenodd" d="M23.3806 54.1309L33.9556 37.353C35.6377 34.6836 39.2396 34.0194 41.7641 35.9121L50.1746 42.2203C50.9459 42.799 52.0079 42.7963 52.7765 42.2131L64.1355 33.5919C65.652 32.4417 67.6311 34.2561 66.6159 35.8662L56.0409 52.6441C54.3587 55.3126 50.756 55.9777 48.2324 54.085L39.821 47.7769C39.0497 47.1982 37.9876 47.2009 37.219 47.7841L25.8601 56.4052C24.3436 57.5554 22.3645 55.741 23.3797 54.1309H23.3806Z" fill="white"/>
<defs>
<radialGradient id="paint0_radial_799_6004" cx="0" cy="0" r="1" gradientUnits="userSpaceOnUse" gradientTransform="translate(23.0401 80.454) scale(78.4805 78.4805)">
<stop stop-color="#0099FF"/>
<stop offset="0.61" stop-color="#A033FF"/>
<stop offset="0.93" stop-color="#FF5280"/>
<stop offset="1" stop-color="#FF7061"/>
</radialGradient>
</defs>
</svg>
