<svg width="364" height="100" viewBox="0 0 364 100" fill="none" xmlns="http://www.w3.org/2000/svg">
<g clip-path="url(#clip0_887_4013)">
<path fill-rule="evenodd" clip-rule="evenodd" d="M83.7539 20C100.311 20 113.754 33.4426 113.754 50C113.754 66.5574 100.311 80 83.7539 80C67.1965 80 53.7539 66.5574 53.7539 50C53.7539 33.4426 67.1965 20 83.7539 20ZM83.7539 43.6067L74.8841 53.4089H92.6237L83.7539 43.6067Z" fill="url(#paint0_linear_887_4013)"/>
<path d="M115.258 -18.9594L164.416 35.855L125.207 71.0178L76.0491 16.2034L115.258 -18.9594Z" fill="url(#paint1_linear_887_4013)"/>
<path d="M66.0972 121.749L16.9395 66.9346L56.1486 31.7717L105.306 86.5861L66.0972 121.749Z" fill="url(#paint2_linear_887_4013)"/>
<path d="M74.9136 112.73L25.7559 57.916L64.965 22.7532L114.123 77.5676L74.9136 112.73Z" fill="url(#paint3_linear_887_4013)"/>
<path d="M118.878 128.294H45.25L45.25 75.6272L118.878 75.6272L118.878 128.294Z" fill="url(#paint4_linear_887_4013)"/>
<path d="M109.181 127.304L158.918 73.0142L120.085 37.4368L70.3473 91.7262L109.181 127.304Z" fill="url(#paint5_linear_887_4013)"/>
<path d="M58.083 -24.5648L8.3457 29.7246L47.1791 65.302L96.9164 11.0126L58.083 -24.5648Z" fill="url(#paint6_linear_887_4013)"/>
<path d="M66.8935 -15.7543L17.1562 38.5352L55.9897 74.1126L105.727 19.8232L66.8935 -15.7543Z" fill="url(#paint7_linear_887_4013)"/>
<path d="M115.091 53.4121H52.9062V65.0955H115.091V53.4121Z" fill="url(#paint8_linear_887_4013)"/>
</g>
<path d="M129.109 60.2851C129.758 58.0234 130.506 55.688 131.351 53.2788C132.197 50.8696 133.087 48.4998 134.021 46.1693C134.965 43.8289 135.909 41.6508 136.853 39.635H140.57C141.514 41.6508 142.458 43.8289 143.402 46.1693C144.346 48.4998 145.236 50.8696 146.072 53.2788C146.918 55.688 147.665 58.0234 148.314 60.2851H144.936C144.71 59.4197 144.459 58.5298 144.184 57.6153C143.918 56.7008 143.638 55.7715 143.343 54.8275H133.977C133.682 55.7715 133.397 56.7008 133.121 57.6153C132.856 58.5298 132.61 59.4197 132.384 60.2851H129.109ZM134.95 51.9365H142.37C141.78 50.2452 141.165 48.5834 140.526 46.951C139.897 45.3088 139.272 43.7699 138.653 42.3343C138.043 43.7699 137.419 45.3088 136.779 46.951C136.15 48.5834 135.54 50.2452 134.95 51.9365Z" fill="#000008"/>
<path d="M156.708 60.6391C155.4 60.6391 154.255 60.3096 153.271 59.6508C152.298 58.9821 151.541 58.0676 151 56.9073C150.459 55.7371 150.189 54.4047 150.189 52.91C150.189 51.4154 150.459 50.0879 151 48.9275C151.541 47.7574 152.298 46.8429 153.271 46.184C154.255 45.5154 155.4 45.181 156.708 45.181H157.033C158.006 45.181 158.906 45.3924 159.732 45.8153C160.568 46.2283 161.256 46.8478 161.797 47.6738V38.75H164.747V60.2851H161.797V57.9693C161.286 58.8543 160.617 59.523 159.791 59.9753C158.965 60.4178 158.046 60.6391 157.033 60.6391H156.708ZM157.446 57.9103H157.741C158.616 57.9103 159.403 57.6497 160.101 57.1285C160.809 56.6074 161.374 55.8945 161.797 54.9898V50.8303C161.374 49.9256 160.809 49.2127 160.101 48.6915C159.403 48.1704 158.616 47.9098 157.741 47.9098H157.446C156.158 47.9098 155.135 48.3424 154.378 49.2078C153.621 50.0731 153.242 51.3072 153.242 52.91C153.242 54.5129 153.621 55.747 154.378 56.6123C155.135 57.4776 156.158 57.9103 157.446 57.9103Z" fill="#000008"/>
<path d="M174.417 60.6391C172.932 60.6391 171.653 60.3981 170.582 59.9163C169.51 59.4345 168.615 58.7166 167.897 57.7628L169.903 55.919C170.965 57.3449 172.46 58.0578 174.387 58.0578H174.682C175.656 58.0578 176.408 57.9103 176.939 57.6153C177.48 57.3105 177.75 56.8729 177.75 56.3025C177.75 55.8305 177.573 55.4421 177.219 55.1373C176.875 54.8325 176.241 54.5866 175.316 54.3998L172.794 53.8688C169.864 53.2591 168.399 51.8923 168.399 49.7683C168.399 48.3916 168.934 47.2854 170.006 46.4495C171.078 45.6039 172.499 45.181 174.269 45.181H174.594C177.111 45.181 179.043 46.1152 180.39 47.9835L178.384 49.6503C177.873 48.9718 177.298 48.4899 176.659 48.2048C176.029 47.9098 175.331 47.7623 174.564 47.7623H174.269C173.394 47.7623 172.681 47.9147 172.13 48.2195C171.589 48.5244 171.319 48.957 171.319 49.5175C171.319 49.9404 171.486 50.2796 171.821 50.5353C172.165 50.7811 172.74 50.9925 173.546 51.1695L176.496 51.8038C177.765 52.0791 178.778 52.5708 179.535 53.2788C180.292 53.977 180.671 54.9259 180.671 56.1255C180.671 57.4334 180.164 58.5151 179.151 59.3706C178.148 60.2162 176.678 60.6391 174.741 60.6391H174.417Z" fill="#000008"/>
<path d="M191.132 60.2851V39.635H194.82L202.047 52.3053L209.23 39.635H212.918V60.2851H209.909V43.942L203.448 55.329H200.602L194.141 44.0158V60.2851H191.132Z" fill="#000008"/>
<path d="M221.963 60.5801C220.41 60.5801 219.2 60.1818 218.335 59.3853C217.479 58.579 217.051 57.5219 217.051 56.214C217.051 54.916 217.533 53.8295 218.497 52.9543C219.47 52.0791 221.019 51.6415 223.143 51.6415H227.155V51.5973C227.155 49.1193 226.015 47.8803 223.733 47.8803C222.779 47.8803 221.973 48.0524 221.314 48.3965C220.665 48.7407 220.139 49.2225 219.736 49.842L217.715 48.2048C218.345 47.2313 219.171 46.4839 220.193 45.9628C221.226 45.4416 222.396 45.181 223.704 45.181H224.028C225.838 45.181 227.293 45.7022 228.394 46.7445C229.496 47.7869 230.046 49.3454 230.046 51.4203V60.2851H227.214V57.8808C226.644 58.7461 225.911 59.4148 225.016 59.8868C224.122 60.349 223.104 60.5801 221.963 60.5801ZM222.612 57.9545C223.753 57.9545 224.702 57.6989 225.459 57.1875C226.216 56.6664 226.782 55.9633 227.155 55.0783V53.9573H223.261C222.101 53.9573 221.27 54.1441 220.768 54.5178C220.277 54.8816 220.031 55.3782 220.031 56.0075C220.031 57.3055 220.891 57.9545 222.612 57.9545Z" fill="#000008"/>
<path d="M234.142 60.2851V45.535H237.092V47.9983C237.632 47.1231 238.306 46.4348 239.112 45.9333C239.929 45.4318 240.873 45.181 241.944 45.181H242.269C243.901 45.181 245.18 45.7563 246.104 46.9068C247.038 48.0573 247.505 49.6749 247.505 51.7595V60.2851H244.555V52.1135C244.555 49.3209 243.542 47.9245 241.517 47.9245H241.222C240.219 47.9245 239.363 48.2343 238.655 48.8538C237.957 49.4733 237.436 50.255 237.092 51.199V60.2851H234.142Z" fill="#000008"/>
<path d="M255.612 60.5801C254.058 60.5801 252.848 60.1818 251.983 59.3853C251.128 58.579 250.7 57.5219 250.7 56.214C250.7 54.916 251.182 53.8295 252.145 52.9543C253.119 52.0791 254.668 51.6415 256.792 51.6415H260.804V51.5973C260.804 49.1193 259.663 47.8803 257.382 47.8803C256.428 47.8803 255.621 48.0524 254.963 48.3965C254.314 48.7407 253.788 49.2225 253.384 49.842L251.364 48.2048C251.993 47.2313 252.819 46.4839 253.842 45.9628C254.874 45.4416 256.044 45.181 257.352 45.181H257.677C259.486 45.181 260.941 45.7022 262.043 46.7445C263.144 47.7869 263.695 49.3454 263.695 51.4203V60.2851H260.863V57.8808C260.292 58.7461 259.56 59.4148 258.665 59.8868C257.77 60.349 256.752 60.5801 255.612 60.5801ZM256.261 57.9545C257.401 57.9545 258.35 57.6989 259.107 57.1875C259.865 56.6664 260.43 55.9633 260.804 55.0783V53.9573H256.91C255.749 53.9573 254.918 54.1441 254.417 54.5178C253.925 54.8816 253.679 55.3782 253.679 56.0075C253.679 57.3055 254.54 57.9545 256.261 57.9545Z" fill="#000008"/>
<path d="M273.498 60.3441C272.19 60.3441 271.045 60.0196 270.062 59.3706C269.088 58.7117 268.331 57.812 267.79 56.6713C267.249 55.5306 266.979 54.2277 266.979 52.7625C266.979 51.2974 267.249 49.9944 267.79 48.8538C268.331 47.7131 269.088 46.8183 270.062 46.1693C271.045 45.5104 272.19 45.181 273.498 45.181H273.823C274.747 45.181 275.603 45.3678 276.389 45.7415C277.186 46.1152 277.854 46.6659 278.395 47.3935V45.535H281.316V59.0313C281.316 60.7915 281.011 62.2468 280.401 63.3973C279.792 64.5576 278.951 65.4181 277.879 65.9786C276.817 66.5489 275.598 66.8341 274.221 66.8341H273.926C272.618 66.8341 271.433 66.5735 270.371 66.0523C269.309 65.5312 268.434 64.774 267.746 63.7808L269.885 61.9961C270.347 62.6844 270.902 63.2056 271.551 63.5596C272.21 63.9136 273.002 64.0906 273.926 64.0906C275.362 64.0906 276.463 63.7021 277.23 62.9253C278.007 62.1583 278.395 60.9586 278.395 59.3263V57.984C277.874 58.7609 277.22 59.3509 276.434 59.7541C275.647 60.1474 274.777 60.3441 273.823 60.3441H273.498ZM274.236 57.6153H274.531C275.347 57.6153 276.084 57.394 276.743 56.9515C277.412 56.4992 277.963 55.8748 278.395 55.0783V50.4468C277.963 49.6503 277.412 49.0308 276.743 48.5883C276.084 48.1359 275.347 47.9098 274.531 47.9098H274.236C272.948 47.9098 271.925 48.3326 271.168 49.1783C270.411 50.0141 270.032 51.2089 270.032 52.7625C270.032 54.3162 270.411 55.5159 271.168 56.3615C271.925 57.1974 272.948 57.6153 274.236 57.6153Z" fill="#000008"/>
<path d="M291.69 60.6391C290.274 60.6391 289.03 60.3146 287.959 59.6656C286.897 59.0166 286.066 58.1119 285.466 56.9515C284.876 55.7912 284.581 54.449 284.581 52.9248C284.581 51.4006 284.876 50.0584 285.466 48.898C286.066 47.7279 286.897 46.8183 287.959 46.1693C289.03 45.5104 290.274 45.181 291.69 45.181H292.015C293.303 45.181 294.434 45.5006 295.407 46.1398C296.391 46.7691 297.158 47.6836 297.708 48.8833C298.259 50.0731 298.534 51.5088 298.534 53.1903V54.09H287.634C287.811 55.2995 288.263 56.2534 288.991 56.9515C289.729 57.6399 290.687 57.984 291.867 57.984H292.162C292.87 57.984 293.549 57.8415 294.198 57.5563C294.847 57.2613 295.393 56.868 295.835 56.3763L297.649 58.2938C296.981 59.0116 296.155 59.582 295.171 60.0048C294.198 60.4276 293.146 60.6391 292.015 60.6391H291.69ZM291.602 47.836C290.55 47.836 289.67 48.1851 288.962 48.8833C288.263 49.5716 287.821 50.5156 287.634 51.7153H295.57C295.481 50.6238 295.122 49.7044 294.493 48.957C293.873 48.2097 293.008 47.836 291.897 47.836H291.602Z" fill="#000008"/>
<path d="M301.986 60.2851V45.535H304.936V47.777C305.919 46.0464 307.271 45.181 308.992 45.181C309.464 45.181 309.892 45.2204 310.275 45.299V48.2785C310.039 48.249 309.784 48.2244 309.508 48.2048C309.243 48.1851 308.982 48.1753 308.727 48.1753C307.753 48.1753 306.957 48.4555 306.337 49.016C305.718 49.5765 305.251 50.3435 304.936 51.317V60.2851H301.986Z" fill="#000008"/>
<defs>
<linearGradient id="paint0_linear_887_4013" x1="65.4364" y1="37.515" x2="103.606" y2="70.9569" gradientUnits="userSpaceOnUse">
<stop stop-color="#01BB99"/>
<stop offset="1" stop-color="#206ED4"/>
</linearGradient>
<linearGradient id="paint1_linear_887_4013" x1="112.13" y1="52.0084" x2="101.523" y2="17.1603" gradientUnits="userSpaceOnUse">
<stop stop-color="#094FCF" stop-opacity="0.4"/>
<stop offset="0.53" stop-color="#094FCF" stop-opacity="0.111373"/>
<stop offset="1" stop-color="#094FCF" stop-opacity="0"/>
</linearGradient>
<linearGradient id="paint2_linear_887_4013" x1="79.3531" y1="57.6806" x2="70.775" y2="65.5312" gradientUnits="userSpaceOnUse">
<stop stop-color="#094FCF" stop-opacity="0.1"/>
<stop offset="0.53" stop-color="#094FCF" stop-opacity="0.027451"/>
<stop offset="1" stop-color="#094FCF" stop-opacity="0"/>
</linearGradient>
<linearGradient id="paint3_linear_887_4013" x1="88.246" y1="48.6814" x2="80.1411" y2="56.5672" gradientUnits="userSpaceOnUse">
<stop stop-color="#094FCF" stop-opacity="0.1"/>
<stop offset="0.53" stop-color="#094FCF" stop-opacity="0.027451"/>
<stop offset="1" stop-color="#094FCF" stop-opacity="0"/>
</linearGradient>
<linearGradient id="paint4_linear_887_4013" x1="80.7673" y1="75.8076" x2="81.2069" y2="102.607" gradientUnits="userSpaceOnUse">
<stop stop-color="#5994FE" stop-opacity="0.2"/>
<stop offset="1" stop-color="#5994FE" stop-opacity="0"/>
</linearGradient>
<linearGradient id="paint5_linear_887_4013" x1="96.7497" y1="63.4258" x2="105.314" y2="71.2075" gradientUnits="userSpaceOnUse">
<stop stop-color="#094FCF" stop-opacity="0.3"/>
<stop offset="1" stop-color="#094FCF" stop-opacity="0"/>
</linearGradient>
<linearGradient id="paint6_linear_887_4013" x1="71.0907" y1="39.1248" x2="65.1303" y2="33.3257" gradientUnits="userSpaceOnUse">
<stop stop-color="#094FCF" stop-opacity="0.05"/>
<stop offset="0.53" stop-color="#094FCF" stop-opacity="0.0137255"/>
<stop offset="1" stop-color="#094FCF" stop-opacity="0"/>
</linearGradient>
<linearGradient id="paint7_linear_887_4013" x1="79.8263" y1="47.7578" x2="74.2814" y2="41.9029" gradientUnits="userSpaceOnUse">
<stop stop-color="#094FCF" stop-opacity="0.05"/>
<stop offset="0.53" stop-color="#094FCF" stop-opacity="0.0137255"/>
<stop offset="1" stop-color="#094FCF" stop-opacity="0"/>
</linearGradient>
<linearGradient id="paint8_linear_887_4013" x1="112.519" y1="58.6874" x2="63.6208" y2="58.5023" gradientUnits="userSpaceOnUse">
<stop stop-color="#094FCF" stop-opacity="0.4"/>
<stop offset="1" stop-color="#094FCF" stop-opacity="0"/>
</linearGradient>
<clipPath id="clip0_887_4013">
<rect x="53.7539" y="20" width="60" height="60" rx="30" fill="white"/>
</clipPath>
</defs>
</svg>
