<svg width="364" height="100" viewBox="0 0 364 100" fill="none" xmlns="http://www.w3.org/2000/svg">
<g clip-path="url(#clip0_897_6716)">
<path d="M119.802 62.9136H115.708V45.8023C115.708 44.4063 115.791 42.6883 115.95 40.6601H115.879C115.624 41.8126 115.4 42.6431 115.204 43.1458L107.774 62.9136H104.929L97.4821 43.297C97.2739 42.7197 97.0501 41.8381 96.8184 40.6601H96.7536C96.842 41.7184 96.8891 43.4423 96.8891 45.8396V62.9136H93.0742V36.476H98.8859L105.428 54.0841C105.925 55.4388 106.251 56.4441 106.406 57.1058H106.488C106.92 55.7157 107.264 54.6829 107.531 54.0095L114.196 36.476H119.802V62.9136ZM127.016 40.0691C126.358 40.0691 125.796 39.8433 125.327 39.3897C124.854 38.9303 124.622 38.357 124.622 37.6521C124.622 36.9551 124.854 36.368 125.327 35.9027C125.796 35.4374 126.358 35.2037 127.016 35.2037C127.697 35.2037 128.278 35.4374 128.751 35.9027C129.226 36.368 129.464 36.9551 129.464 37.6521C129.464 38.3197 129.226 38.8851 128.751 39.3583C128.278 39.8295 127.697 40.0691 127.016 40.0691ZM129.012 62.9136H124.983V44.0352H129.012V62.9136ZM146.5 62.0458C145.079 62.9215 143.39 63.3554 141.447 63.3554C138.81 63.3554 136.683 62.4797 135.06 60.7303C133.442 58.9809 132.631 56.7092 132.631 53.9152C132.631 50.8051 133.501 48.3077 135.244 46.4188C136.986 44.5379 139.314 43.5934 142.23 43.5934C143.852 43.5934 145.281 43.8958 146.518 44.4927V48.4765C145.281 47.4948 143.96 47.0039 142.56 47.0039C140.859 47.0039 139.462 47.6146 138.378 48.8358C137.288 50.063 136.742 51.6612 136.742 53.6384C136.742 55.5959 137.257 57.1372 138.283 58.2701C139.308 59.3971 140.677 59.9626 142.401 59.9626C143.852 59.9626 145.214 59.4148 146.5 58.327V62.0458ZM160.309 48.1054C159.824 47.7029 159.119 47.5007 158.206 47.5007C157.014 47.5007 156.021 48.074 155.22 49.2128C154.421 50.3594 154.022 51.9145 154.022 53.8779V62.9136H149.993V44.0352H154.022V47.9228H154.093C154.485 46.5955 155.09 45.5628 155.907 44.8147C156.724 44.0725 157.631 43.7014 158.638 43.7014C159.368 43.7014 159.924 43.8192 160.309 44.0529V48.1054ZM170.224 63.3554C167.487 63.3554 165.296 62.4738 163.66 60.7126C162.019 58.9494 161.2 56.609 161.2 53.6953C161.2 50.5224 162.054 48.0485 163.761 46.2618C165.467 44.4809 167.766 43.5934 170.664 43.5934C173.442 43.5934 175.606 44.4554 177.151 46.193C178.704 47.9228 179.48 50.328 179.48 53.3988C179.48 56.4127 178.645 58.8238 176.974 60.636C175.297 62.4483 173.051 63.3554 170.224 63.3554ZM170.42 47.0039C168.844 47.0039 167.601 47.5831 166.688 48.7553C165.775 49.9255 165.314 51.5296 165.314 53.5873C165.314 55.5645 165.781 57.1254 166.706 58.2563C167.63 59.3971 168.869 59.9626 170.42 59.9626C172.003 59.9626 173.222 59.403 174.07 58.2897C174.924 57.1686 175.351 55.5763 175.351 53.5127C175.351 51.4354 174.924 49.8313 174.07 48.6984C173.222 47.5655 172.003 47.0039 170.42 47.0039ZM181.971 62.3226V58.3584C183.477 59.5797 185.136 60.1845 186.954 60.1845C189.385 60.1845 190.598 59.4207 190.598 57.899C190.598 57.471 190.492 57.1058 190.284 56.8034C190.078 56.5011 189.799 56.2301 189.444 55.9984C189.094 55.7648 188.672 55.5566 188.193 55.374C187.714 55.1855 187.18 54.9794 186.587 54.7457C185.859 54.4375 185.201 54.1155 184.62 53.7699C184.033 53.4244 183.548 53.0336 183.163 52.5997C182.772 52.1599 182.482 51.669 182.285 51.1134C182.085 50.5597 181.989 49.9196 181.989 49.1755C181.989 48.2703 182.191 47.4634 182.593 46.7722C183.002 46.0791 183.548 45.4941 184.229 45.0228C184.91 44.5496 185.688 44.1923 186.552 43.9528C187.423 43.7132 188.319 43.5934 189.242 43.5934C190.889 43.5934 192.357 43.8585 193.657 44.3867V48.1251C192.407 47.218 190.965 46.7644 189.35 46.7644C188.839 46.7644 188.378 46.8154 187.967 46.9293C187.559 47.0373 187.209 47.1924 186.919 47.3888C186.628 47.5832 186.404 47.8227 186.243 48.0995C186.079 48.3764 186 48.6787 186 49.0125C186 49.415 186.079 49.7606 186.243 50.0453C186.404 50.328 186.64 50.5793 186.96 50.7934C187.28 51.0074 187.659 51.2018 188.111 51.3785C188.554 51.5611 189.065 51.7574 189.644 51.9635C190.41 52.2914 191.091 52.6311 191.702 52.9767C192.31 53.3242 192.827 53.713 193.253 54.1469C193.679 54.5828 194.013 55.0854 194.242 55.6587C194.474 56.2301 194.592 56.9095 194.592 57.6968C194.592 58.6549 194.386 59.4913 193.964 60.2021C193.549 60.9207 192.992 61.5039 192.299 61.9771C191.605 62.4424 190.806 62.788 189.893 63.0157C188.988 63.2415 188.028 63.3554 187.019 63.3554C185.077 63.3554 183.395 63.0157 181.971 62.3226ZM205.793 63.3554C203.056 63.3554 200.865 62.4738 199.229 60.7126C197.588 58.9494 196.769 56.609 196.769 53.6953C196.769 50.5224 197.623 48.0485 199.33 46.2618C201.036 44.4809 203.335 43.5934 206.233 43.5934C209.011 43.5934 211.175 44.4554 212.72 46.193C214.273 47.9228 215.048 50.328 215.048 53.3988C215.048 56.4127 214.214 58.8238 212.543 60.636C210.866 62.4483 208.62 63.3554 205.793 63.3554ZM205.989 47.0039C204.413 47.0039 203.17 47.5831 202.257 48.7553C201.344 49.9255 200.883 51.5296 200.883 53.5873C200.883 55.5645 201.35 57.1254 202.275 58.2563C203.199 59.3971 204.436 59.9626 205.989 59.9626C207.572 59.9626 208.791 59.403 209.639 58.2897C210.493 57.1686 210.919 55.5763 210.919 53.5127C210.919 51.4354 210.493 49.8313 209.639 48.6984C208.791 47.5655 207.572 47.0039 205.989 47.0039ZM228.111 38.4453C227.565 38.1194 226.945 37.9486 226.25 37.9486C224.296 37.9486 223.316 39.1247 223.316 41.473V44.0352H231.574V39.6666L235.603 38.4453V44.0352H239.852V47.3888H235.603V56.8289C235.603 57.9481 235.794 58.7472 236.173 59.2263C236.558 59.7054 237.192 59.9449 238.087 59.9449C238.766 59.9449 239.353 59.7368 239.852 59.3205V62.7133C239.069 63.1296 238.032 63.3358 236.746 63.3358C233.298 63.3358 231.574 61.5804 231.574 58.062V47.3888H223.336V62.9136H219.307V47.3888H216.272V44.0352H219.307V40.9762C219.307 38.9813 219.922 37.4126 221.149 36.262C222.376 35.1095 223.909 34.5381 225.747 34.5381C226.742 34.5381 227.53 34.6559 228.111 34.8895V38.4453ZM267.028 62.9136H253.056V36.476H266.47V40.2006H257.185V47.6833H265.742V51.3922H257.185V59.2086H267.028V62.9136ZM286.667 62.9136H282.637V59.7054H282.572C281.274 62.14 279.277 63.3554 276.581 63.3554C274.394 63.3554 272.641 62.5111 271.331 60.8186C270.016 59.132 269.358 56.8289 269.358 53.9152C269.358 50.7933 270.088 48.2939 271.539 46.4129C272.99 44.532 274.922 43.5934 277.345 43.5934C279.741 43.5934 281.482 44.6125 282.572 46.6525H282.637V34.9642H286.667V62.9136ZM282.69 54.2863V51.8124C282.69 50.4733 282.281 49.3384 281.459 48.4019C280.634 47.4712 279.591 47.0039 278.317 47.0039C276.813 47.0039 275.627 47.5969 274.769 48.7926C273.903 49.9825 273.471 51.6376 273.471 53.7522C273.471 55.6705 273.886 57.1824 274.714 58.2956C275.539 59.4089 276.652 59.9626 278.058 59.9626C279.432 59.9626 280.551 59.4285 281.406 58.3526C282.264 57.2746 282.69 55.9218 282.69 54.2863ZM307.609 61.4037C307.609 68.3327 304.326 71.8021 297.767 71.8021C295.45 71.8021 293.429 71.3917 291.706 70.5671V66.6598C293.649 67.8359 295.499 68.4269 297.246 68.4269C301.469 68.4269 303.58 66.2181 303.58 61.8062V59.7427H303.508C302.182 62.1538 300.18 63.3554 297.507 63.3554C295.344 63.3554 293.596 62.519 292.269 60.8383C290.948 59.1635 290.284 56.9094 290.284 54.0841C290.284 50.8758 290.995 48.3273 292.416 46.4326C293.844 44.5378 295.799 43.5934 298.289 43.5934C300.635 43.5934 302.377 44.6125 303.508 46.6525H303.58V44.0352H307.609V61.4037ZM303.616 54.2667V51.8124C303.616 50.4851 303.201 49.3522 302.377 48.4137C301.548 47.4712 300.517 47.0039 299.278 47.0039C297.749 47.0039 296.553 47.6028 295.693 48.7985C294.829 50.0001 294.395 51.6749 294.395 53.8268C294.395 55.6823 294.81 57.1627 295.64 58.276C296.463 59.3912 297.566 59.9449 298.929 59.9449C300.315 59.9449 301.448 59.4148 302.312 58.3526C303.184 57.2884 303.616 55.9297 303.616 54.2667ZM327.402 54.6377H315.29C315.333 56.3813 315.842 57.7282 316.808 58.6726C317.774 59.6229 319.101 60.0941 320.789 60.0941C322.692 60.0941 324.428 59.4913 326.016 58.2897V61.7316C324.398 62.8135 322.252 63.3554 319.592 63.3554C316.978 63.3554 314.929 62.4993 313.442 60.7872C311.954 59.0692 311.208 56.6581 311.208 53.55C311.208 50.6107 312.027 48.2193 313.668 46.3697C315.304 44.5182 317.336 43.5934 319.764 43.5934C322.199 43.5934 324.078 44.424 325.411 46.0791C326.738 47.7402 327.402 50.0453 327.402 52.9963V54.6377ZM323.515 51.6121C323.503 50.0767 323.165 48.881 322.49 48.0249C321.82 47.1747 320.895 46.7467 319.717 46.7467C318.555 46.7467 317.577 47.1924 316.772 48.0936C315.967 48.987 315.474 50.165 315.29 51.6121H323.515Z" fill="#737373"/>
</g>
<rect x="35.7285" y="28" width="20.9557" height="20.956" fill="#F25022"/>
<rect x="58.3594" y="28" width="20.9557" height="20.956" fill="#7FBA00"/>
<rect x="35.7285" y="50.6328" width="20.9557" height="20.956" fill="#00A4EF"/>
<rect x="58.3594" y="50.6328" width="20.9557" height="20.956" fill="#FFB900"/>
<defs>
<clipPath id="clip0_897_6716">
<rect width="234.665" height="37.4622" fill="white" transform="translate(93.0625 34.5381)"/>
</clipPath>
</defs>
</svg>
