<svg width="90" height="90" viewBox="0 0 90 90" fill="none" xmlns="http://www.w3.org/2000/svg">
<path d="M32.7813 10.4535H54.4797L31.9547 77.1926C31.7232 77.8784 31.2824 78.4743 30.6945 78.8965C30.1065 79.3187 29.401 79.5458 28.6772 79.546H11.7905C11.2421 79.546 10.7016 79.4155 10.2136 79.1652C9.72563 78.9149 9.30428 78.552 8.9844 78.1066C8.66452 77.6611 8.4553 77.1459 8.37406 76.6035C8.29281 76.0612 8.34187 75.5073 8.51717 74.9876L29.503 12.8068C29.7344 12.1207 30.1752 11.5245 30.7634 11.1022C31.3515 10.6799 32.0573 10.4535 32.7813 10.4535Z" fill="url(#paint0_linear_897_5761)"/>
<path d="M64.3131 55.2178H29.9048C29.5849 55.2174 29.2723 55.3134 29.0078 55.4932C28.7432 55.6731 28.539 55.9284 28.4216 56.226C28.3042 56.5236 28.2792 56.8496 28.3498 57.1616C28.4204 57.4737 28.5833 57.7572 28.8173 57.9753L50.9273 78.6119C51.571 79.2124 52.4186 79.5463 53.299 79.5461H72.7823L64.3131 55.2178Z" fill="#0078D4"/>
<path d="M32.7828 10.4532C32.0508 10.4503 31.3371 10.6816 30.746 11.1133C30.1548 11.5449 29.7172 12.1543 29.497 12.8523L8.54445 74.9306C8.35735 75.4522 8.29861 76.0111 8.3732 76.5601C8.44779 77.1091 8.65352 77.6321 8.97298 78.0848C9.29243 78.5375 9.71623 78.9066 10.2085 79.1609C10.7008 79.4152 11.2471 79.5471 11.8011 79.5457H29.1236C29.7688 79.4304 30.3718 79.1459 30.871 78.7213C31.3703 78.2968 31.7479 77.7473 31.9653 77.129L36.1436 64.8148L51.0686 78.7356C51.6941 79.253 52.4786 79.539 53.2903 79.5457H72.7011L64.1878 55.2173L39.3703 55.2232L54.5595 10.4532H32.7828Z" fill="url(#paint1_linear_897_5761)"/>
<path d="M60.4949 12.8031C60.2638 12.1182 59.8236 11.5229 59.2364 11.1014C58.6492 10.6798 57.9445 10.453 57.2216 10.4531H33.0391C33.7619 10.4532 34.4666 10.6799 35.0538 11.1015C35.641 11.5231 36.0812 12.1182 36.3124 12.8031L57.2991 74.9865C57.4745 75.5062 57.5237 76.0602 57.4425 76.6027C57.3613 77.1452 57.1521 77.6606 56.8323 78.1062C56.5124 78.5518 56.091 78.9149 55.603 79.1653C55.1149 79.4158 54.5743 79.5464 54.0257 79.5465H78.2091C78.7575 79.5463 79.2981 79.4156 79.786 79.1651C80.2739 78.9146 80.6952 78.5515 81.015 78.1059C81.3348 77.6603 81.5439 77.145 81.625 76.6025C81.7062 76.0601 81.657 75.5061 81.4816 74.9865L60.4949 12.8031Z" fill="url(#paint2_linear_897_5761)"/>
<defs>
<linearGradient id="paint0_linear_897_5761" x1="40.6897" y1="15.5735" x2="18.1555" y2="82.1451" gradientUnits="userSpaceOnUse">
<stop stop-color="#114A8B"/>
<stop offset="1" stop-color="#0669BC"/>
</linearGradient>
<linearGradient id="paint1_linear_897_5761" x1="47.7303" y1="46.5973" x2="42.5178" y2="48.3598" gradientUnits="userSpaceOnUse">
<stop stop-opacity="0.3"/>
<stop offset="0.071" stop-opacity="0.2"/>
<stop offset="0.321" stop-opacity="0.1"/>
<stop offset="0.623" stop-opacity="0.05"/>
<stop offset="1" stop-opacity="0"/>
</linearGradient>
<linearGradient id="paint2_linear_897_5761" x1="44.8616" y1="13.6315" x2="69.5974" y2="79.5323" gradientUnits="userSpaceOnUse">
<stop stop-color="#3CCBF4"/>
<stop offset="1" stop-color="#2892DF"/>
</linearGradient>
</defs>
</svg>
