<svg width="90" height="90" viewBox="0 0 90 90" fill="none" xmlns="http://www.w3.org/2000/svg">
<path d="M53.3314 53.588L69.8443 37.7962C66.4142 24.4215 52.7913 16.3597 39.4165 19.7897C33.3934 21.3344 28.1621 25.0681 24.7436 30.2621C24.9992 30.2556 53.3314 53.588 53.3314 53.588Z" fill="#0364B8"/>
<path d="M35.5056 33.235L35.5048 33.2377C32.3495 31.2835 28.7106 30.2505 24.9991 30.2556C24.9133 30.2556 24.8292 30.2611 24.7436 30.2621C13.7038 30.3989 4.86487 39.4592 5.00156 50.4991C5.05112 54.5037 6.30239 58.4011 8.59318 61.6862L33.3322 58.5877L52.299 43.294L35.5056 33.235Z" fill="#0078D4"/>
<path d="M69.8443 37.7962C69.4813 37.772 69.1166 37.7553 68.7476 37.7553C66.5322 37.7531 64.3401 38.2056 62.3067 39.0847L62.3062 39.083L52.299 43.294L63.3312 56.9212L83.0533 61.7154C87.3094 53.8142 84.3544 43.9588 76.4532 39.7028C74.4116 38.603 72.158 37.9529 69.8443 37.7962Z" fill="#1490DF"/>
<path d="M8.59318 61.6862C12.3286 67.0568 18.4574 70.2574 24.9993 70.254H68.7474C74.7235 70.2557 80.2182 66.9761 83.0533 61.7154L52.299 43.294L8.59318 61.6862Z" fill="#28A8EA"/>
</svg>
