<svg width="300" height="100" viewBox="0 0 300 100" fill="none" xmlns="http://www.w3.org/2000/svg">
<path d="M58.0631 67.9995C52.7161 67.9995 48.4335 66.2374 45.2163 62.7135C41.9992 59.1897 40.3906 54.6047 40.3906 48.9594C40.3906 42.8934 42.0303 38.0544 45.3085 34.4426C48.5867 30.8307 53.0491 29.0252 58.6941 29.0252C63.9007 29.0252 68.0954 30.7783 71.2778 34.2849C74.4597 37.7914 76.0506 42.376 76.0509 48.039C76.0509 54.1927 74.4202 59.058 71.1593 62.6345C67.8982 66.2114 63.5327 67.9995 58.0631 67.9995ZM58.3787 33.0228C54.4165 33.0228 51.1994 34.4515 48.7273 37.3094C46.2552 40.1672 45.0192 43.9191 45.0192 48.565C45.0192 53.211 46.2244 56.9497 48.6351 59.7812C51.0459 62.6127 54.1885 64.0283 58.0634 64.0283C62.2006 64.0283 65.4614 62.6782 67.8458 59.9784C70.23 57.2785 71.422 53.5003 71.4223 48.6437C71.4223 43.6644 70.265 39.8162 67.9509 37.0987C65.6364 34.3815 62.4456 33.0228 58.379 33.0228H58.3787ZM105.242 67.3685H100.929V52.0102C100.929 46.2946 98.8425 43.437 94.67 43.437C92.5136 43.437 90.7297 44.2479 89.3183 45.8697C87.9069 47.4914 87.2014 49.5384 87.2014 52.0102V67.3685H82.8885V40.4389H87.2014V44.9095H87.3067C89.3404 41.5083 92.2859 39.8075 96.1427 39.8075C99.0882 39.8075 101.341 40.7587 102.901 42.6609C104.461 44.563 105.242 47.3113 105.242 50.9055V67.3685ZM135.037 54.9821H116.024C116.094 57.9802 116.901 60.2944 118.443 61.9248C119.986 63.5552 122.108 64.3706 124.808 64.3706C127.841 64.3706 130.628 63.3712 133.171 61.3724V65.4224C130.804 67.1405 127.674 67.9995 123.782 67.9995C119.977 67.9995 116.988 66.7766 114.815 64.3308C112.641 61.885 111.553 58.4443 111.553 54.0087C111.553 49.8185 112.741 46.4041 115.117 43.7656C117.493 41.1271 120.442 39.8075 123.966 39.8075C127.49 39.8075 130.217 40.9473 132.145 43.2264C134.073 45.5055 135.037 48.6701 135.037 52.7203V54.9821ZM130.619 51.3265C130.601 48.837 130.001 46.8996 128.818 45.5145C127.635 44.1294 125.991 43.437 123.887 43.437C121.853 43.437 120.126 44.1647 118.706 45.6198C117.286 47.0749 116.41 48.9774 116.077 51.3265H130.619ZM142.164 67.3685V29.6566H152.578C165.868 29.6566 172.512 35.7843 172.512 48.0393C172.512 53.86 170.667 58.5368 166.977 62.0696C163.286 65.6025 158.346 67.3688 152.158 67.3688H142.164V67.3685ZM146.582 33.6538V63.3709H152.211C157.154 63.3709 161.003 62.0472 163.755 59.4C166.508 56.7528 167.884 53.0006 167.884 48.1443C167.884 38.4841 162.747 33.6538 152.473 33.6538H146.582ZM193.393 44.8045C192.639 44.2258 191.552 43.9367 190.132 43.9367C188.291 43.9367 186.753 44.8045 185.517 46.5402C184.281 48.276 183.663 50.6428 183.663 53.6407V67.3685H179.35V40.4389H183.663V45.9879H183.768C184.382 44.0944 185.32 42.6172 186.582 41.5565C187.844 40.4957 189.256 39.9655 190.816 39.9655C191.938 39.9655 192.797 40.0882 193.393 40.3336V44.8045ZM200.283 33.6015C199.511 33.6015 198.854 33.3385 198.31 32.8124C197.767 32.2864 197.495 31.6203 197.495 30.8137C197.495 30.007 197.767 29.3364 198.31 28.8017C198.854 28.267 199.511 27.9995 200.283 27.9995C201.072 27.9995 201.742 28.267 202.295 28.8017C202.847 29.3364 203.123 30.007 203.123 30.8137C203.123 31.585 202.847 32.2424 202.295 32.7861C201.742 33.3298 201.072 33.6015 200.283 33.6015ZM202.387 67.3685H198.074V40.4389H202.387V67.3685ZM232.288 40.4389L221.558 67.3685H217.324L207.12 40.4389H211.854L218.692 60.005C219.2 61.4428 219.516 62.6962 219.638 63.7656H219.744C219.919 62.4155 220.199 61.1971 220.585 60.11L227.738 40.4389H232.288ZM258.533 54.9821H239.519C239.589 57.9802 240.396 60.2944 241.939 61.9248C243.482 63.5552 245.603 64.3706 248.303 64.3706C251.336 64.3706 254.124 63.3712 256.666 61.3724V65.4224C254.299 67.1405 251.17 67.9995 247.277 67.9995C243.473 67.9995 240.484 66.7766 238.31 64.3308C236.136 61.885 235.049 58.4443 235.049 54.0087C235.049 49.8185 236.237 46.4041 238.613 43.7656C240.988 41.1271 243.938 39.8075 247.461 39.8075C250.985 39.8075 253.712 40.9473 255.64 43.2264C257.568 45.5055 258.533 48.6701 258.533 52.7203V54.9821ZM254.115 51.3265C254.097 48.837 253.497 46.8996 252.314 45.5145C251.13 44.1294 249.486 43.437 247.383 43.437C245.349 43.437 243.622 44.1647 242.202 45.6198C240.782 47.0749 239.905 48.9774 239.572 51.3265H254.115Z" fill="#737373"/>
</svg>
