<svg width="90" height="90" viewBox="0 0 90 90" fill="none" xmlns="http://www.w3.org/2000/svg">
<path d="M45.0013 11.667C40.6239 11.667 36.2894 12.5292 32.2452 14.2043C28.201 15.8795 24.5264 18.3348 21.4311 21.4301C15.1799 27.6813 11.668 36.1598 11.668 45.0003V78.3337H45.0013C53.8419 78.3337 62.3203 74.8218 68.5715 68.5705C74.8227 62.3193 78.3346 53.8409 78.3346 45.0003C78.3346 36.1598 74.8227 27.6813 68.5715 21.4301C62.3203 15.1789 53.8419 11.667 45.0013 11.667ZM45.0013 33.3337C46.5334 33.3337 48.0505 33.6354 49.4659 34.2217C50.8814 34.808 52.1675 35.6674 53.2509 36.7507C54.3342 37.8341 55.1936 39.1202 55.7799 40.5357C56.3662 41.9512 56.668 43.4682 56.668 45.0003C56.668 46.5324 56.3662 48.0495 55.7799 49.465C55.1936 50.8804 54.3342 52.1666 53.2509 53.2499C52.1675 54.3333 50.8814 55.1926 49.4659 55.7789C48.0505 56.3652 46.5334 56.667 45.0013 56.667H33.3346V45.0003C33.3346 41.9061 34.5638 38.9387 36.7517 36.7507C38.9396 34.5628 41.9071 33.3337 45.0013 33.3337Z" fill="url(#paint0_linear_874_4176)"/>
<path d="M78.3346 45C78.3346 53.8405 74.8227 62.319 68.5715 68.5702C62.3203 74.8214 53.8419 78.3333 45.0013 78.3333H11.668C11.668 72.587 13.9507 67.076 18.014 63.0127C22.0773 58.9494 27.5883 56.6667 33.3346 56.6667H45.0013C48.0955 56.6667 51.063 55.4375 53.2509 53.2496C55.4388 51.0617 56.668 48.0942 56.668 45H78.3346Z" fill="url(#paint1_linear_874_4176)"/>
<path d="M78.3346 45C78.3346 53.8405 74.8227 62.319 68.5715 68.5702C62.3203 74.8214 53.8419 78.3333 45.0013 78.3333H11.668C11.668 72.587 13.9507 67.076 18.014 63.0127C22.0773 58.9494 27.5883 56.6667 33.3346 56.6667H45.0013C48.0955 56.6667 51.063 55.4375 53.2509 53.2496C55.4388 51.0617 56.668 48.0942 56.668 45H78.3346Z" fill="url(#paint2_radial_874_4176)" fill-opacity="0.56"/>
<path d="M78.3346 45C78.3346 53.8405 74.8227 62.319 68.5715 68.5702C62.3203 74.8214 53.8419 78.3333 45.0013 78.3333H11.668C11.668 72.587 13.9507 67.076 18.014 63.0127C22.0773 58.9494 27.5883 56.6667 33.3346 56.6667H45.0013C48.0955 56.6667 51.063 55.4375 53.2509 53.2496C55.4388 51.0617 56.668 48.0942 56.668 45H78.3346Z" fill="url(#paint3_radial_874_4176)" fill-opacity="0.15"/>
<path d="M45.0013 11.667C40.6239 11.667 36.2894 12.5292 32.2452 14.2044C28.201 15.8795 24.5264 18.3348 21.4311 21.4301C15.1799 27.6813 11.668 36.1598 11.668 45.0003V78.3337C17.4028 78.3337 22.9037 76.0601 26.9651 72.0113C31.0265 67.9624 33.317 62.4685 33.3346 56.7337L33.4013 56.667H33.3346V45.0003C33.3277 42.6798 34.0129 40.4098 35.3027 38.4807C36.5925 36.5516 38.4283 35.051 40.5755 34.1707C42.7226 33.2903 45.0835 33.0703 47.3563 33.5388C49.6291 34.0072 51.7106 35.1428 53.3346 36.8003L68.668 21.5337C65.5731 18.4037 61.8873 15.9197 57.8245 14.226C53.7618 12.5322 49.403 11.6624 45.0013 11.667Z" fill="url(#paint4_linear_874_4176)"/>
<path d="M45.0013 11.667C40.6239 11.667 36.2894 12.5292 32.2452 14.2044C28.201 15.8795 24.5264 18.3348 21.4311 21.4301C15.1799 27.6813 11.668 36.1598 11.668 45.0003V78.3337C17.4028 78.3337 22.9037 76.0601 26.9651 72.0113C31.0265 67.9624 33.317 62.4685 33.3346 56.7337L33.4013 56.667H33.3346V45.0003C33.3277 42.6798 34.0129 40.4098 35.3027 38.4807C36.5925 36.5516 38.4283 35.051 40.5755 34.1707C42.7226 33.2903 45.0835 33.0703 47.3563 33.5388C49.6291 34.0072 51.7106 35.1428 53.3346 36.8003L68.668 21.5337C65.5731 18.4037 61.8873 15.9197 57.8245 14.226C53.7618 12.5322 49.403 11.6624 45.0013 11.667Z" fill="url(#paint5_radial_874_4176)"/>
<path d="M45.0013 11.667C40.6239 11.667 36.2894 12.5292 32.2452 14.2043C28.201 15.8795 24.5264 18.3348 21.4311 21.4301C15.1799 27.6813 11.668 36.1598 11.668 45.0003V78.3337H45.0013C53.8419 78.3337 62.3203 74.8218 68.5715 68.5705C74.8227 62.3193 78.3346 53.8409 78.3346 45.0003C78.3346 36.1598 74.8227 27.6813 68.5715 21.4301C62.3203 15.1789 53.8419 11.667 45.0013 11.667ZM45.0013 33.3337C46.5334 33.3337 48.0505 33.6354 49.4659 34.2217C50.8814 34.808 52.1675 35.6674 53.2509 36.7507C54.3342 37.8341 55.1936 39.1202 55.7799 40.5357C56.3662 41.9512 56.668 43.4682 56.668 45.0003C56.668 46.5324 56.3662 48.0495 55.7799 49.465C55.1936 50.8804 54.3342 52.1666 53.2509 53.2499C52.1675 54.3333 50.8814 55.1926 49.4659 55.7789C48.0505 56.3652 46.5334 56.667 45.0013 56.667H33.3346V45.0003C33.3346 41.9061 34.5638 38.9387 36.7517 36.7507C38.9396 34.5628 41.9071 33.3337 45.0013 33.3337Z" fill="url(#paint6_linear_874_4176)"/>
<path d="M78.3346 45C78.3346 53.8405 74.8227 62.319 68.5715 68.5702C62.3203 74.8214 53.8419 78.3333 45.0013 78.3333H11.668C11.668 72.587 13.9507 67.076 18.014 63.0127C22.0773 58.9494 27.5883 56.6667 33.3346 56.6667H45.0013C48.0955 56.6667 51.063 55.4375 53.2509 53.2496C55.4388 51.0617 56.668 48.0942 56.668 45H78.3346Z" fill="url(#paint7_linear_874_4176)"/>
<path d="M78.3346 45C78.3346 53.8405 74.8227 62.319 68.5715 68.5702C62.3203 74.8214 53.8419 78.3333 45.0013 78.3333H11.668C11.668 72.587 13.9507 67.076 18.014 63.0127C22.0773 58.9494 27.5883 56.6667 33.3346 56.6667H45.0013C48.0955 56.6667 51.063 55.4375 53.2509 53.2496C55.4388 51.0617 56.668 48.0942 56.668 45H78.3346Z" fill="url(#paint8_radial_874_4176)" fill-opacity="0.56"/>
<path d="M78.3346 45C78.3346 53.8405 74.8227 62.319 68.5715 68.5702C62.3203 74.8214 53.8419 78.3333 45.0013 78.3333H11.668C11.668 72.587 13.9507 67.076 18.014 63.0127C22.0773 58.9494 27.5883 56.6667 33.3346 56.6667H45.0013C48.0955 56.6667 51.063 55.4375 53.2509 53.2496C55.4388 51.0617 56.668 48.0942 56.668 45H78.3346Z" fill="url(#paint9_radial_874_4176)" fill-opacity="0.15"/>
<path d="M45.0013 11.667C40.6239 11.667 36.2894 12.5292 32.2452 14.2044C28.201 15.8795 24.5264 18.3348 21.4311 21.4301C15.1799 27.6813 11.668 36.1598 11.668 45.0003V78.3337C17.4028 78.3337 22.9037 76.0601 26.9651 72.0113C31.0265 67.9624 33.317 62.4685 33.3346 56.7337L33.4013 56.667H33.3346V45.0003C33.3277 42.6798 34.0129 40.4098 35.3027 38.4807C36.5925 36.5516 38.4283 35.051 40.5755 34.1707C42.7226 33.2903 45.0835 33.0703 47.3563 33.5388C49.6291 34.0072 51.7106 35.1428 53.3346 36.8003L68.668 21.5337C65.5731 18.4037 61.8873 15.9197 57.8245 14.226C53.7618 12.5322 49.403 11.6624 45.0013 11.667Z" fill="url(#paint10_linear_874_4176)"/>
<path d="M45.0013 11.667C40.6239 11.667 36.2894 12.5292 32.2452 14.2044C28.201 15.8795 24.5264 18.3348 21.4311 21.4301C15.1799 27.6813 11.668 36.1598 11.668 45.0003V78.3337C17.4028 78.3337 22.9037 76.0601 26.9651 72.0113C31.0265 67.9624 33.317 62.4685 33.3346 56.7337L33.4013 56.667H33.3346V45.0003C33.3277 42.6798 34.0129 40.4098 35.3027 38.4807C36.5925 36.5516 38.4283 35.051 40.5755 34.1707C42.7226 33.2903 45.0835 33.0703 47.3563 33.5388C49.6291 34.0072 51.7106 35.1428 53.3346 36.8003L68.668 21.5337C65.5731 18.4037 61.8873 15.9197 57.8245 14.226C53.7618 12.5322 49.403 11.6624 45.0013 11.667Z" fill="url(#paint11_radial_874_4176)"/>
<defs>
<linearGradient id="paint0_linear_874_4176" x1="52.3346" y1="35.3337" x2="41.3346" y2="80.3337" gradientUnits="userSpaceOnUse">
<stop stop-color="#9237E3"/>
<stop offset="1" stop-color="#48E6F3"/>
</linearGradient>
<linearGradient id="paint1_linear_874_4176" x1="33.3346" y1="73.3333" x2="62.668" y2="66.6667" gradientUnits="userSpaceOnUse">
<stop stop-color="#51E6FF"/>
<stop offset="1" stop-color="#71D4FF" stop-opacity="0"/>
</linearGradient>
<radialGradient id="paint2_radial_874_4176" cx="0" cy="0" r="1" gradientUnits="userSpaceOnUse" gradientTransform="translate(23.3346 64.1667) rotate(34.5085) scale(16.1804 28.4374)">
<stop/>
<stop offset="0.7" stop-opacity="0"/>
</radialGradient>
<radialGradient id="paint3_radial_874_4176" cx="0" cy="0" r="1" gradientUnits="userSpaceOnUse" gradientTransform="translate(19.3346 61.6667) rotate(31.866) scale(29.044 51.0457)">
<stop offset="0.33"/>
<stop offset="0.6" stop-opacity="0"/>
</radialGradient>
<linearGradient id="paint4_linear_874_4176" x1="25.3346" y1="47.3337" x2="42.3346" y2="23.3337" gradientUnits="userSpaceOnUse">
<stop stop-color="#6E06E9"/>
<stop offset="1" stop-color="#AB5ADD" stop-opacity="0"/>
</linearGradient>
<radialGradient id="paint5_radial_874_4176" cx="0" cy="0" r="1" gradientUnits="userSpaceOnUse" gradientTransform="translate(6.0013 32.3337) rotate(-9.73942) scale(45.32 119.152)">
<stop stop-color="#6D05E8"/>
<stop offset="1" stop-color="#6D05E8" stop-opacity="0"/>
</radialGradient>
<linearGradient id="paint6_linear_874_4176" x1="52.3346" y1="35.3337" x2="41.3346" y2="80.3337" gradientUnits="userSpaceOnUse">
<stop stop-color="#9237E3"/>
<stop offset="1" stop-color="#48E6F3"/>
</linearGradient>
<linearGradient id="paint7_linear_874_4176" x1="33.3346" y1="73.3333" x2="62.668" y2="66.6667" gradientUnits="userSpaceOnUse">
<stop stop-color="#51E6FF"/>
<stop offset="1" stop-color="#71D4FF" stop-opacity="0"/>
</linearGradient>
<radialGradient id="paint8_radial_874_4176" cx="0" cy="0" r="1" gradientUnits="userSpaceOnUse" gradientTransform="translate(23.3346 64.1667) rotate(34.5085) scale(16.1804 28.4374)">
<stop/>
<stop offset="0.7" stop-opacity="0"/>
</radialGradient>
<radialGradient id="paint9_radial_874_4176" cx="0" cy="0" r="1" gradientUnits="userSpaceOnUse" gradientTransform="translate(19.3346 61.6667) rotate(31.866) scale(29.044 51.0457)">
<stop offset="0.33"/>
<stop offset="0.6" stop-opacity="0"/>
</radialGradient>
<linearGradient id="paint10_linear_874_4176" x1="25.3346" y1="47.3337" x2="42.3346" y2="23.3337" gradientUnits="userSpaceOnUse">
<stop stop-color="#6E06E9"/>
<stop offset="1" stop-color="#AB5ADD" stop-opacity="0"/>
</linearGradient>
<radialGradient id="paint11_radial_874_4176" cx="0" cy="0" r="1" gradientUnits="userSpaceOnUse" gradientTransform="translate(6.0013 32.3337) rotate(-9.73942) scale(45.32 119.152)">
<stop stop-color="#6D05E8"/>
<stop offset="1" stop-color="#6D05E8" stop-opacity="0"/>
</radialGradient>
</defs>
</svg>
