<svg width="90" height="90" viewBox="0 0 90 90" fill="none" xmlns="http://www.w3.org/2000/svg">
<path d="M76.9148 63.8188C75.8858 64.3914 74.825 64.9034 73.7316 65.3242C70.2397 66.7136 66.5508 67.4642 62.7866 67.5429C48.3112 67.8453 35.4949 58.1633 35.2276 45.3719C35.1853 41.8827 37.0462 38.6293 40.072 36.9128C26.9853 37.7373 23.9041 51.4559 24.071 59.4429C24.5436 82.0573 45.4323 83.917 49.931 83.823C52.3487 83.7725 55.9757 82.9925 58.1645 82.2427L58.5597 82.112C66.9455 79.0283 73.9877 73.1869 78.6039 65.5286C78.959 64.9395 78.76 64.2089 78.2015 63.8532C77.7985 63.6167 77.3082 63.5963 76.9148 63.8188Z" fill="url(#paint0_linear_897_6714)"/>
<path opacity="0.35" d="M76.9148 63.8188C75.8858 64.3914 74.825 64.9034 73.7316 65.3242C70.2397 66.7136 66.5508 67.4642 62.7866 67.5429C48.3112 67.8453 35.4949 58.1633 35.2276 45.3719C35.1853 41.8827 37.0462 38.6293 40.072 36.9128C26.9853 37.7373 23.9041 51.4559 24.071 59.4429C24.5436 82.0573 45.4323 83.917 49.931 83.823C52.3487 83.7725 55.9757 82.9925 58.1645 82.2427L58.5597 82.112C66.9455 79.0283 73.9877 73.1869 78.6039 65.5286C78.959 64.9395 78.76 64.2089 78.2015 63.8532C77.7985 63.6167 77.3082 63.5963 76.9148 63.8188Z" fill="url(#paint1_radial_897_6714)"/>
<path d="M38.8924 80.1957C36.1335 78.5695 33.7304 76.3848 31.8093 73.8227C23.5304 62.9744 25.6251 47.4702 36.4741 39.1918C37.6198 38.3413 38.7973 37.5513 40.0699 36.9124C41.009 36.4336 42.6143 35.604 44.7878 35.5893C47.8794 35.5553 50.8174 36.9634 52.736 39.4031C53.9946 41.03 54.7401 43.0044 54.8141 45.0847C54.8129 45.0234 61.8029 20.5693 29.8226 21.2375C16.3877 21.5182 5.60663 34.5098 5.84002 45.6793C5.90223 51.5866 7.31034 57.4352 9.9011 62.7387C18.7236 80.5558 39.4731 88.9394 58.1936 82.2722C51.7785 84.4268 44.7213 83.6864 38.8924 80.1957Z" fill="url(#paint2_linear_897_6714)"/>
<path opacity="0.41" d="M38.8924 80.1957C36.1335 78.5695 33.7304 76.3848 31.8093 73.8227C23.5304 62.9744 25.6251 47.4702 36.4741 39.1918C37.6198 38.3413 38.7973 37.5513 40.0699 36.9124C41.009 36.4336 42.6143 35.604 44.7878 35.5893C47.8794 35.5553 50.8174 36.9634 52.736 39.4031C53.9946 41.03 54.7401 43.0044 54.8141 45.0847C54.8129 45.0234 61.8029 20.5693 29.8226 21.2375C16.3877 21.5182 5.60663 34.5098 5.84002 45.6793C5.90223 51.5866 7.31034 57.4352 9.9011 62.7387C18.7236 80.5558 39.4731 88.9394 58.1936 82.2722C51.7785 84.4268 44.7213 83.6864 38.8924 80.1957Z" fill="url(#paint3_radial_897_6714)"/>
<path d="M52.5609 51.5917C52.3224 51.9028 51.5669 52.3778 51.5874 53.3571C51.604 54.1527 52.1403 54.9069 53.0718 55.5303C57.5426 58.4984 65.8278 57.9273 65.8584 57.9266C69.1329 57.8582 72.2971 56.9043 75.0781 55.193C80.7611 51.7066 84.1826 45.4816 84.0432 38.8105C83.9918 31.9538 81.3564 27.4473 80.3043 25.4487C73.5511 12.8847 59.3819 5.86378 44.1721 6.18156C22.7499 6.62915 5.6654 24.1916 5.80697 45.619C5.72659 34.4463 16.6469 25.1867 29.8675 24.9105C30.9386 24.8881 37.0612 24.8521 42.7855 27.7327C47.8288 30.2602 50.5265 33.3572 52.398 36.4714C54.3638 39.7061 54.7861 43.7996 54.8207 45.4521C54.8545 47.074 54.0794 49.5394 52.5609 51.5917Z" fill="url(#paint4_radial_897_6714)"/>
<path d="M52.5609 51.5917C52.3224 51.9028 51.5669 52.3778 51.5874 53.3571C51.604 54.1527 52.1403 54.9069 53.0718 55.5303C57.5426 58.4984 65.8278 57.9273 65.8584 57.9266C69.1329 57.8582 72.2971 56.9043 75.0781 55.193C80.7611 51.7066 84.1826 45.4816 84.0432 38.8105C83.9918 31.9538 81.3564 27.4473 80.3043 25.4487C73.5511 12.8847 59.3819 5.86378 44.1721 6.18156C22.7499 6.62915 5.6654 24.1916 5.80697 45.619C5.72659 34.4463 16.6469 25.1867 29.8675 24.9105C30.9386 24.8881 37.0612 24.8521 42.7855 27.7327C47.8288 30.2602 50.5265 33.3572 52.398 36.4714C54.3638 39.7061 54.7861 43.7996 54.8207 45.4521C54.8545 47.074 54.0794 49.5394 52.5609 51.5917Z" fill="url(#paint5_radial_897_6714)"/>
<defs>
<linearGradient id="paint0_linear_897_6714" x1="24.1006" y1="60.7955" x2="78.6607" y2="59.6554" gradientUnits="userSpaceOnUse">
<stop stop-color="#0C59A4"/>
<stop offset="1" stop-color="#114A8B"/>
</linearGradient>
<radialGradient id="paint1_radial_897_6714" cx="0" cy="0" r="1" gradientUnits="userSpaceOnUse" gradientTransform="translate(54.2501 60.5991) rotate(-1.19692) scale(29.1928 27.7285)">
<stop offset="0.72" stop-opacity="0"/>
<stop offset="0.95" stop-opacity="0.53"/>
<stop offset="1"/>
</radialGradient>
<linearGradient id="paint2_linear_897_6714" x1="52.3919" y1="36.5467" x2="19.086" y2="74.384" gradientUnits="userSpaceOnUse">
<stop stop-color="#1B9DE2"/>
<stop offset="0.16" stop-color="#1595DF"/>
<stop offset="0.67" stop-color="#0680D7"/>
<stop offset="1" stop-color="#0078D4"/>
</linearGradient>
<radialGradient id="paint3_radial_897_6714" cx="0" cy="0" r="1" gradientUnits="userSpaceOnUse" gradientTransform="translate(27.8821 67.4479) rotate(-82.5792) scale(43.8913 35.4689)">
<stop offset="0.76" stop-opacity="0"/>
<stop offset="0.95" stop-opacity="0.5"/>
<stop offset="1"/>
</radialGradient>
<radialGradient id="paint4_radial_897_6714" cx="0" cy="0" r="1" gradientUnits="userSpaceOnUse" gradientTransform="translate(13.2148 21.3375) rotate(91.094) scale(61.9971 132.069)">
<stop stop-color="#35C1F1"/>
<stop offset="0.11" stop-color="#34C1ED"/>
<stop offset="0.23" stop-color="#2FC2DF"/>
<stop offset="0.31" stop-color="#2BC3D2"/>
<stop offset="0.67" stop-color="#36C752"/>
</radialGradient>
<radialGradient id="paint5_radial_897_6714" cx="0" cy="0" r="1" gradientUnits="userSpaceOnUse" gradientTransform="translate(78.9612 29.1522) rotate(72.5386) scale(29.7883 24.2297)">
<stop stop-color="#66EB6E"/>
<stop offset="1" stop-color="#66EB6E" stop-opacity="0"/>
</radialGradient>
</defs>
</svg>
