<svg width="300" height="100" viewBox="0 0 300 100" fill="none" xmlns="http://www.w3.org/2000/svg">
<path d="M93 25.001C89.717 25.001 86.4661 25.6476 83.4329 26.904C80.3998 28.1604 77.6438 30.0018 75.3223 32.3233C70.6339 37.0117 68 43.3706 68 50.001V75.001H93C99.6304 75.001 105.989 72.367 110.678 67.6786C115.366 62.9902 118 56.6314 118 50.001C118 43.3706 115.366 37.0117 110.678 32.3233C105.989 27.6349 99.6304 25.001 93 25.001ZM93 41.251C94.1491 41.251 95.2869 41.4773 96.3485 41.917C97.4101 42.3568 98.3747 43.0013 99.1872 43.8138C99.9997 44.6263 100.644 45.5909 101.084 46.6525C101.524 47.7141 101.75 48.8519 101.75 50.001C101.75 51.15 101.524 52.2878 101.084 53.3494C100.644 54.411 99.9997 55.3756 99.1872 56.1882C98.3747 57.0007 97.4101 57.6452 96.3485 58.0849C95.2869 58.5246 94.1491 58.751 93 58.751H84.25V50.001C84.25 47.6803 85.1719 45.4547 86.8128 43.8138C88.4538 42.1728 90.6794 41.251 93 41.251Z" fill="url(#paint0_linear_874_4191)"/>
<path d="M118 50.001C118 56.6314 115.366 62.9902 110.678 67.6786C105.989 72.3671 99.6304 75.001 93 75.001H68C68 70.6912 69.712 66.558 72.7595 63.5105C75.807 60.463 79.9402 58.751 84.25 58.751H93C95.3206 58.751 97.5462 57.8291 99.1872 56.1882C100.828 54.5472 101.75 52.3216 101.75 50.001H118Z" fill="url(#paint1_linear_874_4191)"/>
<path d="M118 50.001C118 56.6314 115.366 62.9902 110.678 67.6786C105.989 72.3671 99.6304 75.001 93 75.001H68C68 70.6912 69.712 66.558 72.7595 63.5105C75.807 60.463 79.9402 58.751 84.25 58.751H93C95.3206 58.751 97.5462 57.8291 99.1872 56.1882C100.828 54.5472 101.75 52.3216 101.75 50.001H118Z" fill="url(#paint2_radial_874_4191)" fill-opacity="0.56"/>
<path d="M118 50.001C118 56.6314 115.366 62.9902 110.678 67.6786C105.989 72.3671 99.6304 75.001 93 75.001H68C68 70.6912 69.712 66.558 72.7595 63.5105C75.807 60.463 79.9402 58.751 84.25 58.751H93C95.3206 58.751 97.5462 57.8291 99.1872 56.1882C100.828 54.5472 101.75 52.3216 101.75 50.001H118Z" fill="url(#paint3_radial_874_4191)" fill-opacity="0.15"/>
<path d="M93 25.001C89.717 25.001 86.4661 25.6476 83.4329 26.904C80.3998 28.1604 77.6438 30.0019 75.3223 32.3233C70.6339 37.0117 68 43.3706 68 50.001V75.001C72.3011 75.001 76.4268 73.2958 79.4728 70.2592C82.5189 67.2225 84.2368 63.1021 84.25 58.801L84.3 58.751H84.25V50.001C84.2448 48.2606 84.7587 46.5581 85.726 45.1113C86.6934 43.6644 88.0703 42.539 89.6806 41.8787C91.291 41.2185 93.0616 41.0535 94.7662 41.4048C96.4708 41.7561 98.032 42.6078 99.25 43.851L110.75 32.401C108.429 30.0535 105.664 28.1905 102.617 26.9202C99.5703 25.6499 96.3013 24.9975 93 25.001Z" fill="url(#paint4_linear_874_4191)"/>
<path d="M93 25.001C89.717 25.001 86.4661 25.6476 83.4329 26.904C80.3998 28.1604 77.6438 30.0019 75.3223 32.3233C70.6339 37.0117 68 43.3706 68 50.001V75.001C72.3011 75.001 76.4268 73.2958 79.4728 70.2592C82.5189 67.2225 84.2368 63.1021 84.25 58.801L84.3 58.751H84.25V50.001C84.2448 48.2606 84.7587 46.5581 85.726 45.1113C86.6934 43.6644 88.0703 42.539 89.6806 41.8787C91.291 41.2185 93.0616 41.0535 94.7662 41.4048C96.4708 41.7561 98.032 42.6078 99.25 43.851L110.75 32.401C108.429 30.0535 105.664 28.1905 102.617 26.9202C99.5703 25.6499 96.3013 24.9975 93 25.001Z" fill="url(#paint5_radial_874_4191)"/>
<path d="M135.941 68V36.5361H143.546V61.824H156.636V68H135.941Z" fill="#000008"/>
<path d="M171.588 68.4456C169.11 68.4456 166.979 67.9386 165.197 66.9246C163.425 65.9004 162.058 64.4767 161.095 62.6536C160.142 60.8203 159.666 58.695 159.666 56.2779C159.666 53.8505 160.142 51.7252 161.095 49.9021C162.058 48.0688 163.425 46.6451 165.197 45.6312C166.979 44.607 169.11 44.0948 171.588 44.0948C174.067 44.0948 176.192 44.607 177.964 45.6312C179.746 46.6451 181.113 48.0688 182.066 49.9021C183.029 51.7252 183.51 53.8505 183.51 56.2779C183.51 58.695 183.029 60.8203 182.066 62.6536C181.113 64.4767 179.746 65.9004 177.964 66.9246C176.192 67.9386 174.067 68.4456 171.588 68.4456ZM171.634 62.7765C172.536 62.7765 173.299 62.5 173.923 61.9469C174.548 61.3938 175.024 60.6257 175.352 59.6424C175.69 58.6592 175.859 57.5223 175.859 56.2318C175.859 54.9208 175.69 53.7737 175.352 52.7904C175.024 51.8072 174.548 51.039 173.923 50.4859C173.299 49.9329 172.536 49.6563 171.634 49.6563C170.702 49.6563 169.914 49.9329 169.268 50.4859C168.633 51.039 168.147 51.8072 167.809 52.7904C167.481 53.7737 167.317 54.9208 167.317 56.2318C167.317 57.5223 167.481 58.6592 167.809 59.6424C168.147 60.6257 168.633 61.3938 169.268 61.9469C169.914 62.5 170.702 62.7765 171.634 62.7765Z" fill="#000008"/>
<path d="M198.374 68.4456C195.896 68.4456 193.765 67.9386 191.983 66.9246C190.211 65.9004 188.844 64.4767 187.881 62.6536C186.928 60.8203 186.452 58.695 186.452 56.2779C186.452 53.8505 186.928 51.7252 187.881 49.9021C188.844 48.0688 190.211 46.6451 191.983 45.6312C193.765 44.607 195.896 44.0948 198.374 44.0948C200.853 44.0948 202.978 44.607 204.75 45.6312C206.532 46.6451 207.899 48.0688 208.852 49.9021C209.815 51.7252 210.296 53.8505 210.296 56.2779C210.296 58.695 209.815 60.8203 208.852 62.6536C207.899 64.4767 206.532 65.9004 204.75 66.9246C202.978 67.9386 200.853 68.4456 198.374 68.4456ZM198.42 62.7765C199.322 62.7765 200.085 62.5 200.709 61.9469C201.334 61.3938 201.81 60.6257 202.138 59.6424C202.476 58.6592 202.645 57.5223 202.645 56.2318C202.645 54.9208 202.476 53.7737 202.138 52.7904C201.81 51.8072 201.334 51.039 200.709 50.4859C200.085 49.9329 199.322 49.6563 198.42 49.6563C197.488 49.6563 196.7 49.9329 196.054 50.4859C195.419 51.039 194.933 51.8072 194.595 52.7904C194.267 53.7737 194.103 54.9208 194.103 56.2318C194.103 57.5223 194.267 58.6592 194.595 59.6424C194.933 60.6257 195.419 61.3938 196.054 61.9469C196.7 62.5 197.488 62.7765 198.42 62.7765Z" fill="#000008"/>
<path d="M214.145 76.8492V44.4021H221.58V48.4426H221.811C222.118 47.7257 222.553 47.0343 223.117 46.3686C223.69 45.7029 224.418 45.16 225.298 44.7401C226.189 44.3099 227.255 44.0948 228.494 44.0948C230.133 44.0948 231.664 44.525 233.088 45.3854C234.521 46.2457 235.679 47.5721 236.56 49.3644C237.441 51.1568 237.881 53.4408 237.881 56.2164C237.881 58.8896 237.456 61.1275 236.606 62.9302C235.766 64.7328 234.629 66.0847 233.195 66.9861C231.771 67.8874 230.189 68.338 228.448 68.338C227.26 68.338 226.23 68.1434 225.36 67.7542C224.489 67.365 223.757 66.8529 223.163 66.2179C222.579 65.5829 222.128 64.9018 221.811 64.1746H221.657V76.8492H214.145ZM221.504 56.2011C221.504 57.4711 221.673 58.5772 222.011 59.5195C222.359 60.4618 222.856 61.1941 223.501 61.7165C224.156 62.2286 224.94 62.4846 225.851 62.4846C226.773 62.4846 227.557 62.2286 228.202 61.7165C228.847 61.1941 229.334 60.4618 229.662 59.5195C230 58.5772 230.169 57.4711 230.169 56.2011C230.169 54.931 230 53.83 229.662 52.898C229.334 51.9659 228.847 51.2439 228.202 50.7318C227.567 50.2197 226.783 49.9636 225.851 49.9636C224.93 49.9636 224.146 50.2145 223.501 50.7164C222.856 51.2183 222.359 51.9352 222.011 52.8672C221.673 53.7993 221.504 54.9106 221.504 56.2011Z" fill="#000008"/>
<defs>
<linearGradient id="paint0_linear_874_4191" x1="98.5" y1="42.751" x2="90.25" y2="76.501" gradientUnits="userSpaceOnUse">
<stop stop-color="#9237E3"/>
<stop offset="1" stop-color="#48E6F3"/>
</linearGradient>
<linearGradient id="paint1_linear_874_4191" x1="84.25" y1="71.251" x2="106.25" y2="66.251" gradientUnits="userSpaceOnUse">
<stop stop-color="#51E6FF"/>
<stop offset="1" stop-color="#71D4FF" stop-opacity="0"/>
</linearGradient>
<radialGradient id="paint2_radial_874_4191" cx="0" cy="0" r="1" gradientUnits="userSpaceOnUse" gradientTransform="translate(76.75 64.376) rotate(34.5085) scale(12.1353 21.3281)">
<stop/>
<stop offset="0.7" stop-opacity="0"/>
</radialGradient>
<radialGradient id="paint3_radial_874_4191" cx="0" cy="0" r="1" gradientUnits="userSpaceOnUse" gradientTransform="translate(73.75 62.501) rotate(31.866) scale(21.783 38.2842)">
<stop offset="0.33"/>
<stop offset="0.6" stop-opacity="0"/>
</radialGradient>
<linearGradient id="paint4_linear_874_4191" x1="78.25" y1="51.751" x2="91" y2="33.751" gradientUnits="userSpaceOnUse">
<stop stop-color="#6E06E9"/>
<stop offset="1" stop-color="#AB5ADD" stop-opacity="0"/>
</linearGradient>
<radialGradient id="paint5_radial_874_4191" cx="0" cy="0" r="1" gradientUnits="userSpaceOnUse" gradientTransform="translate(63.75 40.501) rotate(-9.73941) scale(33.99 89.364)">
<stop stop-color="#6D05E8"/>
<stop offset="1" stop-color="#6D05E8" stop-opacity="0"/>
</radialGradient>
</defs>
</svg>
