<svg width="90" height="90" viewBox="0 0 90 90" fill="none" xmlns="http://www.w3.org/2000/svg">
<path d="M79 5H11C7.68629 5 5 7.68629 5 11V79C5 82.3137 7.68629 85 11 85H79C82.3137 85 85 82.3137 85 79V11C85 7.68629 82.3137 5 79 5Z" fill="#FFD02F"/>
<path fill-rule="evenodd" clip-rule="evenodd" d="M59.3899 15.0039H50.6076L57.9286 27.8604L41.8302 15.0039H33.048L41.0996 30.72L24.2705 15.0039H15.4883L24.2705 35.0023L15.4883 75.0039H24.2705L41.0996 32.1475L33.048 75.0039H41.8302L57.9286 29.2878L50.6076 75.0039H59.3899L75.4883 25.0055L59.3899 15.0039Z" fill="#050038"/>
</svg>
