<svg width="300" height="100" viewBox="0 0 300 100" fill="none" xmlns="http://www.w3.org/2000/svg">
<path d="M108.5 20H57.5C55.0147 20 53 22.0147 53 24.5V75.5C53 77.9853 55.0147 80 57.5 80H108.5C110.985 80 113 77.9853 113 75.5V24.5C113 22.0147 110.985 20 108.5 20Z" fill="#FFD02F"/>
<path fill-rule="evenodd" clip-rule="evenodd" d="M93.7934 27.5029H87.2067L92.6974 37.1453L80.6236 27.5029H74.0369L80.0757 39.29L67.4539 27.5029H60.8672L67.4539 42.5017L60.8672 72.5029H67.4539L80.0757 40.3606L74.0369 72.5029H80.6236L92.6974 38.2158L87.2067 72.5029H93.7934L105.867 35.0041L93.7934 27.5029Z" fill="#050038"/>
<path fill-rule="evenodd" clip-rule="evenodd" d="M186.19 37.4525V66.3257L179.747 65.0123V38.7074L186.19 37.4525Z" fill="#050038"/>
<path fill-rule="evenodd" clip-rule="evenodd" d="M212.02 36.7671V43.5427L208.314 44.2268C205.12 44.8525 203.068 46.5098 203.068 50.161V66.3098L196.625 64.9964V49.1915C196.625 41.3147 201.246 38.9768 208.314 37.3781L212.02 36.7671Z" fill="#050038"/>
<path fill-rule="evenodd" clip-rule="evenodd" d="M143.542 36.7118C144.988 36.7599 146.404 37.14 147.68 37.8226C148.955 38.5052 150.057 39.472 150.9 40.6484C152.667 38.3655 155.571 36.8252 159.164 36.7703C163.726 36.7118 169.371 39.5655 169.371 48.1118V66.2289L162.929 64.9191V48.1228C162.929 45.2691 160.876 43.2167 157.807 43.2167C154.737 43.2167 152.685 45.2691 152.685 48.1228V66.2289L146.242 64.9191V48.1228C146.242 45.2691 144.19 43.2167 141.12 43.2167C138.051 43.2167 135.933 45.2691 135.933 48.1228V66.2289L129.457 64.9008V38.5959L135.903 37.3264V40.2935C136.825 39.1605 137.991 38.2501 139.314 37.63C140.636 37.0098 142.082 36.696 143.542 36.7118Z" fill="#050038"/>
<path fill-rule="evenodd" clip-rule="evenodd" d="M232.228 60.8482C227.212 60.8482 223.905 57.2555 223.905 51.8335C223.905 46.4701 227.267 42.8738 232.228 42.8738C236.903 42.8738 239.98 46.4116 239.98 51.8335C239.98 57.2555 236.903 60.8482 232.228 60.8482ZM232.228 36.8262C223.279 36.8262 217.29 42.8189 217.29 51.8921C217.29 60.9652 223.279 67.0128 232.228 67.0128C240.836 67.0128 246.536 60.9652 246.536 51.8921C246.536 42.8189 240.836 36.8262 232.228 36.8262Z" fill="#050038"/>
<path fill-rule="evenodd" clip-rule="evenodd" d="M183.055 24.9355C185.312 24.9355 186.798 26.5636 186.798 28.9782C186.798 31.3929 185.312 33.0209 183.055 33.0209C180.684 33.0209 179.144 31.3929 179.144 28.9782C179.144 26.5636 180.681 24.9355 183.055 24.9355Z" fill="#050038"/>
</svg>
