<svg width="300" height="100" viewBox="0 0 300 100" fill="none" xmlns="http://www.w3.org/2000/svg">
<path d="M44 63.7855H56.6666V62.4393H55.7155C53.8641 62.4393 53.4182 61.9341 53.4182 60.0871V43.3864C54.7091 41.1995 56.4458 39.7983 58.6326 39.7983C61.38 39.7983 63.0615 41.8153 63.0615 45.6284V60.0913C63.0615 61.9425 62.6114 62.4435 60.8195 62.4435H59.8089V63.7898H72.1952V62.4435H71.2994C69.4479 62.4435 69.002 61.9383 69.002 60.0913V45.0085C69.002 44.5031 69.0021 43.9978 68.9469 43.4968C70.1783 41.2547 72.0297 39.7983 74.2164 39.7983C76.9639 39.7983 78.6454 41.8153 78.6454 45.6284V60.0913C78.6454 61.9425 78.1953 62.4435 76.4034 62.4435H75.3926V63.7898H87.7791V62.4435H86.9384C85.0318 62.4435 84.5859 61.9383 84.5859 60.0913V45.0085C84.5859 39.3482 81.3927 36.2102 76.7389 36.2102C73.2652 36.2102 70.2377 38.1167 68.6114 41.9256C67.6602 38.2272 64.8577 36.2102 61.155 36.2102C57.8471 36.2102 54.9894 38.0021 53.4182 41.5902V36.8811H44V38.2272H45.121C47.0276 38.2272 47.4734 38.7324 47.4734 40.5796V60.0871C47.4734 61.9383 47.0233 62.4393 45.121 62.4393H44V63.7855ZM95.2313 32.397C97.2483 32.397 98.9298 30.7155 98.9298 28.6985C98.9298 26.6815 97.2483 25 95.2313 25C93.2144 25 91.5329 26.6815 91.5329 28.6985C91.5329 30.7155 93.2144 32.397 95.2313 32.397ZM88.9553 63.7855H101.397V62.4393H100.556C98.7047 62.4393 98.2588 61.9341 98.2588 60.0871V36.8811H88.8407V38.2272H89.9616C91.8681 38.2272 92.314 38.7324 92.314 40.5796V60.0871C92.314 61.9383 91.8639 62.4393 89.9616 62.4393H88.9511V63.7855H88.9553ZM110.48 47.9808H114.068C113.172 47.4203 112.836 46.6348 112.386 45.1783L111.04 40.1889C110.424 37.9469 109.919 36.8811 107.452 36.8811H102.297V38.2272H103.028C104.539 38.2272 104.709 38.7877 105.159 40.4692L106.335 44.8429C106.951 46.9745 107.906 47.9808 110.484 47.9808H110.48ZM118.777 47.9808H122.365C124.942 47.9808 125.838 46.9702 126.458 44.8429L127.635 40.4692C128.085 38.7877 128.305 38.2272 129.766 38.2272H130.497V36.8811H125.397C122.874 36.8811 122.369 37.8917 121.809 40.1889L120.463 45.1783C120.012 46.69 119.673 47.4203 118.777 47.9808ZM114.068 52.6899H118.777V47.9808H114.068V52.6899ZM102.297 63.7898H107.452C109.919 63.7898 110.424 62.7239 111.04 60.4819L112.386 55.4926C112.836 54.0359 113.172 53.2505 114.068 52.6899H110.48C107.902 52.6899 106.947 53.7007 106.331 55.8281L105.155 60.2017C104.705 61.8832 104.539 62.4435 103.023 62.4435H102.293V63.7898H102.297ZM125.388 63.7898H130.488V62.4435H129.758C128.301 62.4435 128.076 61.8832 127.626 60.2017L126.45 55.8281C125.834 53.6964 124.938 52.6899 122.356 52.6899H118.777C119.673 53.2505 120 53.9808 120.45 55.4926L121.796 60.4819C122.356 62.779 122.862 63.7898 125.384 63.7898H125.388ZM131.218 75H144.221V73.6538H142.874C141.082 73.6538 140.632 73.1485 140.632 71.3013V60.5966C142.259 63.0083 145.006 64.465 148.255 64.465C154.365 64.465 159.24 59.0848 159.24 49.7813C159.24 41.3736 154.645 36.2187 148.7 36.2187C145.227 36.2187 142.31 38.2356 140.628 41.8237V36.8896H131.21V38.2356H132.331C134.182 38.2356 134.683 38.7409 134.683 40.5881V71.2971C134.683 73.1485 134.178 73.6495 132.331 73.6495H131.21V74.9958L131.218 75ZM146.577 39.6879C150.22 39.6879 153.193 43.1061 153.193 49.8874C153.193 57.2845 150.445 61.3226 146.692 61.3226C144.28 61.3226 142.153 60.0317 140.637 57.7897V43.8874C142.093 41.1401 144.169 39.6836 146.577 39.6836V39.6879ZM168.102 64.3503C171.745 64.3503 174.658 62.6135 176.845 58.69V59.3057C176.845 62.6686 178.976 64.1253 182.505 64.1253C183.571 64.1253 184.917 64.0148 185.813 63.7344V62.3334C185.363 62.4435 185.027 62.5031 184.692 62.5031C183.291 62.5031 182.84 61.6624 182.84 60.3161V45.9638C182.84 39.3482 179.142 36.2102 172.921 36.2102C168.772 36.2102 164.739 38.1167 162.161 40.1337L163.057 41.7048C165.749 39.8535 168.382 38.7919 171.24 38.7919C174.938 38.7919 176.845 40.8089 176.845 45.518V46.7494L169.949 49.4416C163.673 52.0189 161.371 54.431 161.371 58.0744C161.371 61.7174 163.949 64.3503 168.097 64.3503H168.102ZM167.261 56.6135C167.261 53.8111 168.887 51.7939 172.195 50.3375L176.849 48.3205V57.0636C175.112 59.4754 173.095 60.8767 170.908 60.8767C168.722 60.8767 167.265 59.365 167.265 56.6177L167.261 56.6135ZM186.934 63.7898H199.715V62.4435H198.649C196.798 62.4435 196.352 61.9383 196.352 60.0913V43.4416C197.643 41.1995 199.545 39.7983 201.787 39.7983C204.7 39.7983 206.551 41.8153 206.551 45.6284V60.0913C206.551 61.9425 206.102 62.4435 204.309 62.4435H203.244V63.7898H215.966V62.4435H214.844C212.938 62.4435 212.492 61.9383 212.492 60.0913V45.0085C212.492 39.3482 209.129 36.2102 204.365 36.2102C200.891 36.2102 197.974 38.0021 196.348 41.5902V36.8811H186.93V38.2272H188.051C189.957 38.2272 190.403 38.7324 190.403 40.5796V60.0871C190.403 61.9383 189.953 62.4393 188.051 62.4393H186.93V63.7855L186.934 63.7898ZM230.539 64.4608C234.237 64.4608 237.715 62.779 240.237 60.7621L239.397 59.5307C237.154 61.1571 234.632 61.8832 232.28 61.8832C226.564 61.8832 223.201 57.8493 223.201 50.0021V48.9914H240.913C240.802 41.4246 236.148 36.2696 229.367 36.2696C222.586 36.2696 217.146 42.38 217.146 50.4522C217.146 59.3099 222.191 64.465 230.543 64.465L230.539 64.4608ZM229.418 37.6666C232.781 37.6666 234.853 41.3099 235.193 47.4755H223.312C223.817 41.2547 226.169 37.6666 229.422 37.6666H229.418ZM242.14 63.7855H255.142V62.4393H253.851C251.999 62.4393 251.554 61.9341 251.554 60.0871V25.6709H242.135V27.017H243.257C245.108 27.017 245.609 27.5223 245.609 29.3694V60.0871C245.609 61.9383 245.103 62.4393 243.257 62.4393H242.135V63.7855H242.14Z" fill="#1B0B3B"/>
</svg>
