<svg width="90" height="90" viewBox="0 0 90 90" fill="none" xmlns="http://www.w3.org/2000/svg">
<path d="M28.2132 38.4892H38.3924C35.8506 36.8991 34.899 34.6705 33.6221 30.5386L29.8034 16.3841C28.0567 10.0236 26.6231 7 19.6243 7H5V10.8187H7.07196C11.3604 10.8187 11.8423 12.4088 13.1192 17.1792L16.456 29.5869C18.2027 35.6342 20.9132 38.4892 28.2253 38.4892H28.2132ZM51.7639 38.4892H61.9309C69.2434 38.4892 71.7849 35.6222 73.544 29.5869L76.8802 17.1792C78.1571 12.4088 78.7837 10.8187 82.9277 10.8187H85V7H70.5316C63.3765 7 61.943 9.86699 60.3528 16.3841L56.5342 30.5386C55.2572 34.8271 54.3056 36.8991 51.7639 38.4892ZM38.3924 51.8366H51.7642L51.7639 38.4892H38.3924V51.8366ZM5 83.3257H19.6243C26.6231 83.3257 28.0567 80.3019 29.8034 73.9419L33.6221 59.7873C34.899 55.6554 35.8506 53.4268 38.3924 51.8366H28.2132C20.9011 51.8366 18.1907 54.7037 16.444 60.7389L13.1071 73.1464C11.8303 77.917 11.3604 79.5072 7.05987 79.5072H5V83.3257ZM70.5081 83.3257H84.9757V79.5072H82.9033C78.7716 79.5072 78.1335 77.917 76.8567 73.1464L73.5196 60.7389C71.7728 54.6917 69.2312 51.8366 61.9068 51.8366H51.7642C54.306 53.4268 55.2211 55.4988 56.4981 59.7873L60.3167 73.9419C61.9068 80.4586 63.3404 83.3257 70.4959 83.3257H70.5081Z" fill="#1B0B3B"/>
</svg>
