<svg width="90" height="90" viewBox="0 0 90 90" fill="none" xmlns="http://www.w3.org/2000/svg">
<path d="M14.8965 68.5754C11.2992 68.5754 7.99353 66.7281 6.24346 63.6168C4.4934 60.6028 4.59063 56.9082 6.53514 53.9914L24.4247 26.6707C26.2719 23.6567 29.6748 21.9066 33.2722 22.0038C36.8695 22.1011 40.1752 24.0456 41.8281 27.1569C43.4809 30.2681 43.2864 33.9627 41.3419 36.7823L23.3552 64.103C21.5079 66.8253 18.2994 68.5754 14.8965 68.5754Z" fill="#FB275D"/>
<path d="M45.3251 68.5761C41.7278 68.5761 38.4221 66.7288 36.6721 63.7148C34.922 60.7008 35.0192 57.0062 36.9637 54.0894L54.8532 26.7687C56.7005 23.7547 60.0062 21.9074 63.7008 22.0046C67.3954 22.1018 70.6038 24.0464 72.2566 27.1576C73.9095 30.2689 73.715 33.9635 71.5761 36.8803L53.6865 64.1037C51.9365 66.8261 48.728 68.5761 45.3251 68.5761Z" fill="#FFCC00"/>
<path d="M75.083 68.5753C80.5276 68.5753 85 64.1029 85 58.6582C85 53.2135 80.5276 48.7411 75.083 48.7411C69.6384 48.7411 65.166 53.2135 65.166 58.6582C65.166 64.2001 69.5411 68.5753 75.083 68.5753Z" fill="#00CA72"/>
</svg>
