<svg width="364" height="100" viewBox="0 0 364 100" fill="none" xmlns="http://www.w3.org/2000/svg">
<path fill-rule="evenodd" clip-rule="evenodd" d="M78.3633 73.5396H90.9392C92.238 73.5396 93.3001 72.4775 93.3001 71.1787V49.3892L116.774 75.5332L140.25 49.3892V71.1787C140.25 72.4775 141.312 73.5396 142.611 73.5396H155.185V26.85H144.507C141.421 26.85 139.121 28.3364 137.878 29.7191L116.774 53.2225L95.6702 29.7191C94.4286 28.3364 92.1272 26.85 89.0424 26.85H78.3633V73.5396Z" fill="#24ABE2"/>
<path fill-rule="evenodd" clip-rule="evenodd" d="M219.577 73.5395H281.791C283.09 73.5395 284.152 72.4774 284.152 71.1786V58.7438H253.902L284.064 26.893H221.889C220.591 26.893 219.528 27.9562 219.528 29.2538V41.6887H249.74L219.577 73.5395Z" fill="#24ABE2"/>
<path fill-rule="evenodd" clip-rule="evenodd" d="M189.193 19.7324C208.178 19.7324 223.57 33.0032 223.57 49.733C223.57 66.4617 208.178 79.7324 189.193 79.7324C170.206 79.7324 154.815 66.4617 154.815 49.733C154.815 33.0032 170.206 19.7324 189.193 19.7324ZM189.193 34.724C198.451 34.724 206.39 41.4439 206.39 49.733C206.39 58.021 198.691 64.7409 189.193 64.7409C179.695 64.7409 171.994 58.021 171.994 49.733C171.994 41.4439 179.935 34.724 189.193 34.724Z" fill="#24ABE2"/>
</svg>
