<svg width="360" height="100" viewBox="0 0 360 100" fill="none" xmlns="http://www.w3.org/2000/svg">
<path fill-rule="evenodd" clip-rule="evenodd" d="M130.441 49.0172V58.9009H134.353V49.0655C134.353 46.4095 135.802 44.6227 138.232 44.6227C140.936 44.6227 141.999 46.4739 141.999 48.9689V58.9009H145.927V48.0353C145.927 44.0432 143.979 40.9043 139.504 40.9043C136.816 40.9043 135.094 41.9022 133.387 43.7856C132.389 42.0311 130.634 40.9043 127.962 40.9043C126.562 40.9043 124.389 41.4194 122.699 43.673V41.3067H118.867V58.9009H122.795V49.0977C122.795 46.4417 124.244 44.6227 126.674 44.6227C129.379 44.6227 130.441 46.5222 130.441 49.0172ZM153.727 51.1581V41.3067H149.799V52.124C149.799 56.1161 151.988 59.2711 156.399 59.2711C157.783 59.2711 160.085 58.8043 161.776 56.5346V58.9009H165.607V41.3067H161.679V51.0938C161.679 53.7498 160.101 55.5527 157.606 55.5527C154.902 55.5527 153.727 53.6532 153.727 51.1581ZM175.612 59.2067C179.99 59.2067 182.035 56.438 182.035 53.7176C182.035 51.2064 180.264 49.1138 177.044 48.4217L174.63 47.9065C173.648 47.6973 172.859 47.1177 172.859 46.0875C172.859 44.8964 174.034 44.0915 175.274 44.0915C177.35 44.0915 178.204 45.4115 178.461 46.5543L181.777 45.6207C181.471 43.9305 179.894 40.9203 175.274 40.9203C171.684 40.9203 169.06 43.512 169.06 46.4256C169.06 48.7275 170.509 50.7235 173.713 51.4801L175.966 52.0113C177.447 52.3655 178.058 52.9932 178.058 53.943C178.058 55.1664 177.173 56.0034 175.547 56.0034C173.536 56.0034 172.344 54.6995 172.022 53.2025L168.658 54.0878C168.883 56.0517 170.831 59.2067 175.612 59.2067ZM184.587 35.5922C184.587 34.1595 185.746 32.9844 187.163 32.9844C188.595 32.9844 189.754 34.1595 189.754 35.5922C189.754 37.0248 188.595 38.1677 187.163 38.1677C185.746 38.1677 184.587 37.0248 184.587 35.5922ZM185.215 58.9009V41.3067H189.143V58.9009H185.215ZM195.719 58.9009L200.146 52.7679L204.589 58.9009H209.096L202.432 49.9347L208.887 41.3067H204.46L200.194 47.1339L195.977 41.3067H191.486L197.924 49.9992L191.244 58.9009H195.719ZM222.788 49.0172V58.9009H226.699V49.0655C226.699 46.4095 228.148 44.6227 230.579 44.6227C233.283 44.6227 234.346 46.4739 234.346 48.9689V58.9009H238.273V48.0353C238.273 44.0432 236.325 40.9043 231.85 40.9043C229.162 40.9043 227.44 41.9022 225.733 43.7856C224.735 42.0311 222.981 40.9043 220.309 40.9043C218.908 40.9043 216.735 41.4194 215.045 43.673V41.3067H211.214V58.9009H215.141V49.0977C215.141 46.4417 216.59 44.6227 219.021 44.6227C221.725 44.6227 222.788 46.5222 222.788 49.0172ZM241.147 50.0796C241.147 54.8122 244.721 59.1746 249.808 59.1746C251.208 59.1746 254.202 58.4824 255.651 56.2287V58.9009H259.531V41.3067H255.651V43.8661C254.202 41.693 251.45 40.9526 249.904 40.9526C244.399 40.9526 241.147 45.6368 241.147 50.0796ZM255.667 50.0796C255.667 53.0898 253.574 55.6171 250.387 55.6171C247.216 55.6171 245.107 53.1059 245.107 50.0796C245.107 47.0212 247.2 44.51 250.387 44.51C253.574 44.51 255.667 47.0212 255.667 50.0796ZM273.737 44.832V41.3067H269.262V35.8497H265.351V41.3067H261.938V44.832H265.351V53.444C265.351 57.7258 267.298 59.0619 270.759 59.0619C271.242 59.0619 272.498 59.0297 273.576 58.7077V55.3756C272.819 55.4722 272.336 55.5044 271.982 55.5044C270.019 55.5044 269.262 54.7478 269.262 53.2347V44.832H273.737ZM284.531 59.2067C289.328 59.2067 292.049 56.1161 292.837 53.444L289.247 52.2849C288.733 53.6371 287.622 55.6332 284.612 55.6332C281.618 55.6332 279.396 53.283 279.396 49.9992C279.396 46.667 281.714 44.4939 284.579 44.4939C287.493 44.4939 288.781 46.4095 289.183 47.7777L292.741 46.6187C292 43.6407 288.958 40.9364 284.596 40.9364C279.348 40.9364 275.372 45.0412 275.372 50.0636C275.372 55.2468 279.348 59.2067 284.531 59.2067ZM307.527 49.0494V58.9009H311.455V48.0675C311.455 44.0593 309.33 40.9364 304.855 40.9364C303.47 40.9364 301.265 41.3871 299.575 43.5281V32.0508H295.648V58.9009H299.575V49.0977C299.575 46.4417 301.153 44.6549 303.647 44.6549C306.352 44.6549 307.527 46.5383 307.527 49.0494Z" fill="#131313"/>
<path fill-rule="evenodd" clip-rule="evenodd" d="M78 80C94.5685 80 108 66.5685 108 50C108 33.4315 94.5685 20 78 20C61.4315 20 48 33.4315 48 50C48 66.5685 61.4315 80 78 80Z" fill="url(#paint0_linear_827_6826)"/>
<mask id="mask0_827_6826" style="mask-type:luminance" maskUnits="userSpaceOnUse" x="61" y="35" width="33" height="31">
<path d="M93.9185 35.1172H61.9688V65.7864H93.9185V35.1172Z" fill="white"/>
</mask>
<g mask="url(#mask0_827_6826)">
<path fill-rule="evenodd" clip-rule="evenodd" d="M88.7388 35.9032C88.7388 35.9032 81.6035 41.4125 78.0358 44.1672C78.0051 44.1909 77.9436 44.2383 77.9436 44.2383L67.0474 35.9757C66.4468 35.5094 65.7477 35.2998 65.0642 35.2998C63.4762 35.2996 61.971 36.4299 61.971 38.0964V44.3625L61.9688 62.9897C61.9688 64.656 63.4741 65.7864 65.0619 65.7864C65.7456 65.7864 66.4445 65.5769 67.0451 65.1104L77.9436 56.7753C83.3665 60.986 88.7366 65.1104 88.7366 65.1104C89.3372 65.5767 90.0363 65.7864 90.7198 65.7864C92.3078 65.7864 93.9184 64.6561 93.9184 62.9897V44.3625V37.9698C93.9184 36.3035 92.3099 35.2273 90.7221 35.2273C90.0384 35.2273 89.3396 35.4368 88.7388 35.9032Z" fill="white" fill-opacity="0.7"/>
<path fill-rule="evenodd" clip-rule="evenodd" d="M69.9453 50.5192L77.9419 56.7755L85.8873 50.5175L77.9419 44.2385L69.9453 50.5192Z" fill="white" fill-opacity="0.6"/>
<path fill-rule="evenodd" clip-rule="evenodd" d="M61.9727 44.3403V56.698L69.9471 50.5191L61.9727 44.3403Z" fill="white" fill-opacity="0.6"/>
<path fill-rule="evenodd" clip-rule="evenodd" d="M85.8906 50.5173L93.92 56.7753V44.2383L85.8906 50.5173Z" fill="white" fill-opacity="0.6"/>
<path fill-rule="evenodd" clip-rule="evenodd" d="M88.5953 36.011L77.9453 44.2384L85.8908 50.5173L93.9202 44.2384V37.9699C93.9202 35.5879 90.8774 34.052 88.5953 36.011Z" fill="white"/>
<path fill-rule="evenodd" clip-rule="evenodd" d="M67.06 35.9269C65.0613 34.3782 61.9766 35.6642 61.9766 38.0462V44.3405L69.9488 50.5193L77.9453 44.2386L67.06 35.9269Z" fill="white"/>
</g>
<defs>
<linearGradient id="paint0_linear_827_6826" x1="48.4191" y1="20" x2="48.4191" y2="79.1617" gradientUnits="userSpaceOnUse">
<stop stop-color="#FF6633"/>
<stop offset="1" stop-color="#FF0E83"/>
</linearGradient>
</defs>
</svg>
