<svg viewBox="0 0 181.73491 180.98842"
   xmlns:dc="http://purl.org/dc/elements/1.1/"
   xmlns:cc="http://creativecommons.org/ns#"
   xmlns:rdf="http://www.w3.org/1999/02/22-rdf-syntax-ns#"
   xmlns:svg="http://www.w3.org/2000/svg"
   xmlns="http://www.w3.org/2000/svg"
   version="1.1"
   width="181.73491"
   height="180.98842"
   id="svg2">
  <defs
     id="defs4">
    <style
       type="text/css"
       id="style2989" />
  </defs>
  <g
     transform="translate(133.16472,-164.81557)"
     id="layer1">
    <g
       id="g3074">
      <g
         transform="translate(-416.58298,-239.90955)"
         id="layer1-0">
        <g
           transform="matrix(3.543307,0,0,3.543307,6.5289884,3.3058122)"
           id="g3006"
           style="fill-rule:evenodd">
          <g
             id="Camada_x0020_1">
            <metadata
               id="CorelCorpID_0Corel-Layer" />
            <path
               d="m 108.283,137.925 c -2.883,0.1051 -3.6768,14.3633 0,15.2577 3.8372,-0.398 3.4402,-15.5822 0,-15.2577 z"
               id="path2993"
               style="fill:none" />
            <ellipse
               cx="108.349"
               cy="133.493"
               rx="2.5136001"
               ry="2.5576501"
               id="ellipse2995"
               style="fill:none" />
            <path
               d="m 78.1567,138.839 c 0.6609,15.6935 16.1276,21.8201 16.1276,21.8201 6.5778,3.009 11.0675,3.3019 15.238,3.6695 7.0248,0.4124 9.4775,-2.3617 7.6224,-9.1601 -0.2452,-1.364 -0.4169,-2.739 -0.4169,-2.739 -0.8699,-2.9316 -0.4419,-7.5155 -0.4419,-7.5155 0,-3.8806 6.8791,-8.0257 6.8791,-8.0257 10.5833,-8.4667 4.5646,-16.6031 4.5646,-16.6031 -8.1168,-10.7163 -30.3502,-8.0246 -40.8391,0.6944 -2.0071,1.6684 -2.9509,2.8149 -4.3702,4.5123 -2.8471,3.4048 -4.5387,9.1891 -4.3636,13.3471 z m 18.0207,4.2231 c 8.9955,-0.1037 10.3772,14.9482 0.1764,15.2577 -10.3183,-0.7779 -8.3487,-15.1242 -0.1764,-15.2577 z m 11.7299,15.3459 c -3.6768,-0.8944 -2.883,-15.1526 0,-15.2577 3.4402,-0.3245 3.8372,14.8597 0,15.2577 z m 0.0662,-22.2473 c 1.3882,0 2.5136,1.145 2.5136,2.5576 0,1.4127 -1.1254,2.5577 -2.5136,2.5577 -1.3882,0 -2.5136,-1.145 -2.5136,-2.5577 0,-1.4126 1.1254,-2.5576 2.5136,-2.5576 z"
               id="path2997"
               style="fill:#ffcc33" />
            <path
               d="m 96.132981,146.89079 c -3.6161,0.1512 -4.0129,8.0154 0.1323,8.0258 4.086899,0.062 4.219199,-8.2431 -0.1323,-8.0258 z"
               id="path2999"
               style="fill:#ffcc33;stroke:#ffcc33;stroke-width:0.2" />
          </g>
        </g>
      </g>
      <path
         d="m -70.974232,323.95173 c -10.682144,-1.48003 -18.815716,-8.3729 -21.511083,-18.22976 -0.87495,-3.19966 -0.876302,-11.73322 -0.0024,-14.89653 1.610876,-5.8307 3.658938,-9.46559 7.584872,-13.4616 3.525108,-3.58802 7.242975,-5.59023 11.964286,-6.44321 16.164929,-2.92044 30.055393,10.77616 29.176489,28.76929 -0.23825,4.87754 -0.854953,7.37838 -2.795717,11.33711 -3.413443,6.96268 -10.783015,12.03137 -18.599538,12.7925 -1.235036,0.12027 -2.566948,0.26601 -2.959805,0.32388 -0.392857,0.0579 -1.678572,-0.0284 -2.857143,-0.19168 l 0,0 z m 6.501567,-12.17297 c 3.002305,-1.40509 5.68637,-5.31231 6.569951,-9.56394 0.606482,-2.9183 0.227225,-8.66466 -0.732879,-11.10432 -1.956295,-4.97102 -5.412466,-7.57118 -10.108597,-7.60496 -2.208106,-0.0159 -2.867437,0.1347 -4.499882,1.02774 -3.361274,1.83881 -5.381845,5.08278 -6.348762,10.19273 -1.633332,8.63183 2.117422,16.53567 8.456079,17.81922 2.081435,0.42148 4.791855,0.10974 6.66409,-0.76647 l 0,0 z"
         id="path3068"
         style="fill:#ffffff" />
      <path
         d="m -30.109462,323.0358 c -3.774147,-3.40972 -5.653198,-10.38762 -5.949196,-22.09249 -0.490665,-19.40273 4.580657,-33.28977 10.761823,-29.4696 4.110363,2.54035 6.97736,13.12111 6.994202,25.81237 0.01787,13.46457 -2.787918,23.65143 -7.266538,26.38236 -1.70008,1.03666 -2.873559,0.87314 -4.540291,-0.63264 z"
         id="path3070"
         style="fill:#ffffff" />
      <path
         d="m -30.988056,262.96849 c -1.817053,-0.82538 -4.195334,-3.4978 -4.744741,-5.33156 -0.646421,-2.15756 -0.501256,-4.34381 0.419747,-6.32159 2.174018,-4.66851 7.193913,-6.47049 11.683038,-4.19383 4.454277,2.25899 6.10064,7.64244 3.735768,12.21559 -0.653509,1.26375 -2.841725,3.18266 -4.346114,3.81123 -1.665239,0.69578 -5.016677,0.60646 -6.747698,-0.17984 l 0,0 z"
         id="path3072"
         style="fill:#ffffff" />
    </g>
  </g>
</svg>
