<svg width="386" height="100" viewBox="0 0 386 100" fill="none" xmlns="http://www.w3.org/2000/svg">
<path d="M132.124 66.908C128.806 62.99 126.658 57.206 126.514 50.708C126.514 50.69 126.514 49.31 126.514 49.292C126.658 42.794 128.806 37.01 132.124 33.092C136.432 27.506 142.828 23.96 149.968 23.96C154.36 23.96 158.476 25.304 161.992 27.638C156.712 22.91 149.752 20.03 142.114 20C142.078 20 142.036 20 142 20C125.434 20 112 33.434 112 50C112 66.092 124.666 79.22 140.572 79.964C141.046 79.988 141.52 80 142 80C149.68 80 156.688 77.114 161.992 72.368C158.476 74.696 154.366 76.04 149.968 76.04C142.828 76.04 136.432 72.494 132.124 66.908Z" fill="url(#paint0_linear_897_6707)"/>
<path d="M132.127 33.091C134.881 29.839 138.433 27.883 142.321 27.883C151.057 27.883 158.131 37.783 158.131 49.999C158.131 62.215 151.051 72.115 142.321 72.115C138.439 72.115 134.881 70.153 132.127 66.907C136.435 72.493 142.831 76.039 149.971 76.039C154.363 76.039 158.479 74.695 161.995 72.367C168.139 66.871 172.003 58.885 172.003 49.999C172.003 41.113 168.139 33.127 161.995 27.637C158.479 25.303 154.369 23.959 149.971 23.959C142.831 23.959 136.435 27.505 132.127 33.091Z" fill="url(#paint1_linear_897_6707)"/>
<path d="M217.513 62.4959C213.763 62.4959 210.712 59.1423 210.712 55.0196C210.712 50.8975 213.763 47.544 217.513 47.544C221.263 47.544 224.314 50.8975 224.314 55.0196C224.314 59.1423 221.263 62.4959 217.513 62.4959ZM217.513 45.4722C214.881 45.4722 212.613 46.7133 211.077 48.6786V45.9079H208.98V70.0011H211.077V61.3605C212.613 63.3265 214.881 64.5669 217.513 64.5669C222.405 64.5669 226.385 60.2844 226.385 55.0196C226.385 49.7555 222.405 45.4722 217.513 45.4722Z" fill="#030404"/>
<path d="M194.161 63.0744C188.259 63.0744 183.457 57.9967 183.457 51.7556C183.457 45.5152 188.259 40.4375 194.161 40.4375C200.064 40.4375 204.865 45.5152 204.865 51.7556C204.865 57.9967 200.064 63.0744 194.161 63.0744ZM194.161 38.4375C187.157 38.4375 181.457 44.4116 181.457 51.7556C181.457 59.0995 187.157 65.0744 194.161 65.0744C201.166 65.0744 206.865 59.0995 206.865 51.7556C206.865 44.4116 201.166 38.4375 194.161 38.4375Z" fill="#030404"/>
<path d="M255.72 45.5454C254.997 45.5772 254.315 45.7673 253.678 46.1061C252.336 46.8213 251.408 47.9108 250.815 49.2999C250.801 49.3332 250.785 49.365 250.771 49.3975C250.764 49.3968 250.758 49.3953 250.751 49.3938V46.0558H250.749V46.0225H248.652V64.0736H250.752V63.9523C250.752 60.7052 250.753 57.8472 250.752 54.6009C250.752 53.2688 250.961 52.1867 251.397 51.1312C251.801 50.1542 252.366 49.2866 253.176 48.5935C254.127 47.7777 255.217 47.4278 256.467 47.6268C256.669 47.6594 256.87 47.7037 257.081 47.7444C257.2 47.1468 257.485 46.3864 257.606 45.7814C257.025 45.6187 256.265 45.5218 255.72 45.5454Z" fill="#030404"/>
<path d="M237.138 47.572C240.842 47.572 243.433 50.0683 243.868 53.8916H230.427C230.936 50.3176 233.747 47.572 237.138 47.572ZM237.138 45.5003C232.246 45.5003 228.265 49.7836 228.265 55.0484C228.265 60.3124 232.246 64.5965 237.138 64.5965C240.637 64.5965 243.669 62.4042 245.112 59.2296L243.306 58.1786C242.226 60.74 239.87 62.5247 237.138 62.5247C233.595 62.5247 230.679 59.5284 230.368 55.72H245.986C246 55.4981 246.01 55.2747 246.01 55.0484C246.01 49.4271 242.362 45.5003 237.138 45.5003Z" fill="#030404"/>
<path d="M266.029 62.4959C262.279 62.4959 259.229 59.1423 259.229 55.0196C259.229 50.8975 262.279 47.544 266.029 47.544C269.78 47.544 272.83 50.8975 272.83 55.0196C272.83 59.1423 269.78 62.4959 266.029 62.4959ZM272.467 45.9079V48.6786C270.93 46.7133 268.662 45.4722 266.029 45.4722C261.137 45.4722 257.157 49.7555 257.157 55.0196C257.157 60.2844 261.137 64.5669 266.029 64.5669C268.662 64.5669 270.93 63.3265 272.467 61.3605V64.0736H274.563V45.9079H272.467Z" fill="#030404"/>
<defs>
<linearGradient id="paint0_linear_897_6707" x1="136.997" y1="20.9782" x2="136.997" y2="79.1268" gradientUnits="userSpaceOnUse">
<stop offset="0.3" stop-color="#FF1B2D"/>
<stop offset="0.4381" stop-color="#FA1A2C"/>
<stop offset="0.5939" stop-color="#ED1528"/>
<stop offset="0.7581" stop-color="#D60E21"/>
<stop offset="0.9272" stop-color="#B70519"/>
<stop offset="1" stop-color="#A70014"/>
</linearGradient>
<linearGradient id="paint1_linear_897_6707" x1="152.065" y1="24.4045" x2="152.065" y2="75.834" gradientUnits="userSpaceOnUse">
<stop stop-color="#9C0000"/>
<stop offset="0.7" stop-color="#FF4B4B"/>
</linearGradient>
</defs>
</svg>
