<svg width="90" height="90" viewBox="0 0 90 90" fill="none" xmlns="http://www.w3.org/2000/svg">
<path d="M31.832 67.544C27.408 62.32 24.544 54.608 24.352 45.944C24.352 45.92 24.352 44.08 24.352 44.056C24.544 35.392 27.408 27.68 31.832 22.456C37.576 15.008 46.104 10.28 55.624 10.28C61.48 10.28 66.968 12.072 71.656 15.184C64.616 8.88 55.336 5.04 45.152 5C45.104 5 45.048 5 45 5C22.912 5 5 22.912 5 45C5 66.456 21.888 83.96 43.096 84.952C43.728 84.984 44.36 85 45 85C55.24 85 64.584 81.152 71.656 74.824C66.968 77.928 61.488 79.72 55.624 79.72C46.104 79.72 37.576 74.992 31.832 67.544Z" fill="url(#paint0_linear_897_6705)"/>
<path d="M31.8359 22.4553C35.5079 18.1193 40.2439 15.5113 45.4279 15.5113C57.0759 15.5113 66.5079 28.7113 66.5079 44.9993C66.5079 61.2873 57.0679 74.4873 45.4279 74.4873C40.2519 74.4873 35.5079 71.8713 31.8359 67.5433C37.5799 74.9913 46.1079 79.7193 55.6279 79.7193C61.4839 79.7193 66.9719 77.9273 71.6599 74.8233C79.8519 67.4953 85.0039 56.8473 85.0039 44.9993C85.0039 33.1513 79.8519 22.5033 71.6599 15.1833C66.9719 12.0713 61.4919 10.2793 55.6279 10.2793C46.1079 10.2793 37.5799 15.0073 31.8359 22.4553Z" fill="url(#paint1_linear_897_6705)"/>
<defs>
<linearGradient id="paint0_linear_897_6705" x1="38.3298" y1="6.30432" x2="38.3298" y2="83.8357" gradientUnits="userSpaceOnUse">
<stop offset="0.3" stop-color="#FF1B2D"/>
<stop offset="0.4381" stop-color="#FA1A2C"/>
<stop offset="0.5939" stop-color="#ED1528"/>
<stop offset="0.7581" stop-color="#D60E21"/>
<stop offset="0.9272" stop-color="#B70519"/>
<stop offset="1" stop-color="#A70014"/>
</linearGradient>
<linearGradient id="paint1_linear_897_6705" x1="58.4207" y1="10.8734" x2="58.4207" y2="79.446" gradientUnits="userSpaceOnUse">
<stop stop-color="#9C0000"/>
<stop offset="0.7" stop-color="#FF4B4B"/>
</linearGradient>
</defs>
</svg>
