<svg width="300" height="100" viewBox="0 0 300 100" fill="none" xmlns="http://www.w3.org/2000/svg">
<path d="M97.0794 38.0162H110.728L103.63 26.5516L90.5278 47.8433H84.5226L100.901 22.1839C101.447 21.092 102.538 20.5465 104.176 20.5465C105.268 20.5465 106.36 21.092 107.452 22.1839L123.83 47.8433H117.825L115.095 42.9297H101.447L97.0794 38.0162ZM160.408 42.9297V21.0923H155.494V45.1136C155.494 45.6595 156.04 46.2051 156.04 46.751C156.586 47.2969 157.132 47.2968 157.678 47.2968H181.153L184.429 42.3839H160.408V42.9297ZM75.242 39.1078C80.1554 39.6537 84.5225 35.8321 85.0684 30.9187C85.6144 26.0053 81.7928 21.6382 76.8794 21.0923C76.3335 21.0923 75.7878 21.0923 75.7878 21.0923H53.4046V47.8433H58.3174V26.0058H75.242C77.4257 26.5518 79.6092 28.735 79.0633 30.9187C79.0633 33.1025 77.4257 34.7407 75.242 34.7407H60.5013L75.7878 48.3891H83.431L73.0581 39.6542L75.242 39.1078ZM20.6484 47.8433C13.0053 47.8433 7 41.838 7 34.1949C7 26.5518 13.0053 20.5465 20.6484 20.5465H36.48C44.1231 20.5465 50.1284 26.5518 50.1284 34.1949C50.1284 41.838 44.1231 47.8433 36.48 47.8433H20.6484ZM35.9342 42.9297C40.8476 42.9297 44.669 39.1082 44.669 34.7407C44.669 29.8272 40.8475 26.0058 36.48 26.0058H20.6484C15.735 26.0058 11.9129 29.8274 11.9129 34.1949C11.9129 39.1083 15.7344 42.9297 20.1019 42.9297H35.9342ZM134.203 47.8433C126.56 47.8433 120.554 41.838 120.554 34.1949C120.554 26.5518 126.56 20.5465 134.203 20.5465H152.765L149.489 25.4594H134.203C129.289 25.4594 125.468 29.8274 126.014 34.1949C126.014 38.5624 129.835 42.3839 134.203 42.3839H152.765L149.489 47.2968L134.203 47.8433ZM196.985 42.9297C193.164 42.9297 189.888 40.1996 188.796 36.3781H210.634L213.909 31.4652H188.796C189.888 27.6436 193.164 24.9136 196.985 24.9136H212.272L215.547 20H196.985C189.342 20 183.337 26.0053 183.337 33.6484C183.337 41.2915 189.342 47.2968 196.985 47.2968H212.818L216.093 42.3839L196.985 42.9297Z" fill="#C74634"/>
<path d="M24.8604 71.3791L27.9633 72.1628C27.3129 74.7112 26.1399 76.6572 24.4446 78.0007C22.7598 79.3336 20.6966 80 18.2548 80C15.7277 80 13.6698 79.4882 12.081 78.4646C10.5029 77.4303 9.29803 75.9375 8.46633 73.9862C7.64529 72.0349 7.23478 69.9396 7.23478 67.7004C7.23478 65.2587 7.69861 63.1314 8.62627 61.3187C9.5646 59.4954 10.8921 58.1146 12.6088 57.1762C14.3362 56.2273 16.2342 55.7528 18.3028 55.7528C20.6486 55.7528 22.6212 56.3499 24.2206 57.5441C25.8201 58.7383 26.9343 60.4177 27.5634 62.5823L24.5085 63.302C23.9647 61.596 23.1757 60.3538 22.1414 59.5754C21.1071 58.797 19.8062 58.4078 18.2388 58.4078C16.4368 58.4078 14.928 58.8396 13.7124 59.7033C12.5075 60.567 11.6598 61.7293 11.1694 63.1901C10.6789 64.6402 10.4336 66.1383 10.4336 67.6844C10.4336 69.6784 10.7215 71.4218 11.2973 72.9146C11.8838 74.3967 12.7901 75.5056 14.0163 76.2414C15.2425 76.9771 16.5701 77.345 17.9989 77.345C19.7369 77.345 21.2084 76.8438 22.4133 75.8415C23.6182 74.8392 24.4339 73.3517 24.8604 71.3791Z" fill="#000008"/>
<path d="M31.3701 79.6001V56.1526H34.249V79.6001H31.3701Z" fill="#000008"/>
<path d="M37.6558 71.1072C37.6558 67.9617 38.5301 65.6319 40.2788 64.1177C41.7396 62.8595 43.5203 62.2304 45.6209 62.2304C47.9561 62.2304 49.8647 62.9981 51.3468 64.5336C52.829 66.0584 53.57 68.1696 53.57 70.8673C53.57 73.0532 53.2395 74.7752 52.5784 76.0334C51.928 77.281 50.9736 78.2513 49.7154 78.9444C48.4679 79.6375 47.103 79.984 45.6209 79.984C43.2431 79.984 41.3185 79.2216 39.847 77.6968C38.3862 76.172 37.6558 73.9755 37.6558 71.1072ZM40.6147 71.1072C40.6147 73.2824 41.0892 74.9138 42.0382 76.0014C42.9872 77.0784 44.1814 77.6169 45.6209 77.6169C47.0497 77.6169 48.2386 77.0731 49.1876 75.9854C50.1366 74.8978 50.6111 73.2398 50.6111 71.0112C50.6111 68.9107 50.1313 67.3219 49.1716 66.245C48.2226 65.1574 47.0391 64.6136 45.6209 64.6136C44.1814 64.6136 42.9872 65.152 42.0382 66.229C41.0892 67.3059 40.6147 68.932 40.6147 71.1072Z" fill="#000008"/>
<path d="M68.0928 79.6001V77.105C66.7706 79.0243 64.9739 79.984 62.7027 79.984C61.7004 79.984 60.7621 79.7921 59.8877 79.4082C59.0241 79.0243 58.379 78.5445 57.9524 77.9687C57.5366 77.3823 57.2434 76.6679 57.0728 75.8255C56.9555 75.2604 56.8968 74.3647 56.8968 73.1385V62.6143H59.7758V72.0349C59.7758 73.5383 59.8344 74.5513 59.9517 75.0738C60.133 75.8308 60.5168 76.428 61.1033 76.8651C61.6898 77.2916 62.4148 77.5049 63.2785 77.5049C64.1422 77.5049 64.9526 77.2863 65.7096 76.8491C66.4667 76.4013 66.9998 75.7989 67.3091 75.0418C67.6289 74.2741 67.7889 73.1651 67.7889 71.715V62.6143H70.6678V79.6001H68.0928Z" fill="#000008"/>
<path d="M86.2142 79.6001V77.4569C85.1373 79.1416 83.5539 79.984 81.464 79.984C80.1098 79.984 78.8622 79.6108 77.7213 78.8644C76.591 78.118 75.7114 77.0784 75.0823 75.7455C74.4638 74.402 74.1546 72.8612 74.1546 71.1232C74.1546 69.4278 74.4371 67.8924 75.0023 66.5169C75.5674 65.1307 76.4151 64.0698 77.5454 63.334C78.6756 62.5983 79.9392 62.2304 81.336 62.2304C82.3596 62.2304 83.2713 62.449 84.071 62.8862C84.8707 63.3127 85.5211 63.8725 86.0223 64.5656V56.1526H88.8853V79.6001H86.2142ZM77.1135 71.1232C77.1135 73.2984 77.572 74.9245 78.489 76.0014C79.406 77.0784 80.4883 77.6169 81.7358 77.6169C82.9941 77.6169 84.0603 77.105 84.9347 76.0814C85.8197 75.0471 86.2622 73.4744 86.2622 71.3631C86.2622 69.0386 85.8144 67.3326 84.9187 66.245C84.023 65.1574 82.9194 64.6136 81.6079 64.6136C80.3284 64.6136 79.2567 65.136 78.3931 66.181C77.54 67.2259 77.1135 68.8734 77.1135 71.1232Z" fill="#000008"/>
<path d="M103.44 79.6001V56.1526H106.543V79.6001H103.44Z" fill="#000008"/>
<path d="M111.661 79.6001V62.6143H114.252V65.0294C115.5 63.1634 117.302 62.2304 119.658 62.2304C120.682 62.2304 121.62 62.417 122.473 62.7902C123.337 63.1528 123.982 63.6326 124.408 64.2297C124.835 64.8268 125.133 65.5359 125.304 66.3569C125.411 66.8901 125.464 67.8231 125.464 69.1559V79.6001H122.585V69.2679C122.585 68.095 122.473 67.2206 122.249 66.6448C122.025 66.0584 121.625 65.5945 121.05 65.2533C120.485 64.9015 119.818 64.7255 119.05 64.7255C117.824 64.7255 116.763 65.1147 115.868 65.8931C114.982 66.6715 114.54 68.1483 114.54 70.3235V79.6001H111.661Z" fill="#000008"/>
<path d="M130.582 79.6001V64.8535H128.039V62.6143H130.582V60.8069C130.582 59.666 130.683 58.8183 130.886 58.2639C131.163 57.5175 131.648 56.915 132.342 56.4565C133.045 55.9873 134.026 55.7528 135.284 55.7528C136.095 55.7528 136.991 55.8487 137.972 56.0407L137.54 58.5517C136.943 58.4451 136.377 58.3918 135.844 58.3918C134.97 58.3918 134.352 58.5784 133.989 58.9516C133.626 59.3248 133.445 60.0232 133.445 61.0468V62.6143H136.756V64.8535H133.445V79.6001H130.582Z" fill="#000008"/>
<path d="M138.979 79.6001V62.6143H141.57V65.1894C142.231 63.9845 142.839 63.1901 143.394 62.8062C143.959 62.4224 144.577 62.2304 145.249 62.2304C146.219 62.2304 147.206 62.5396 148.208 63.1581L147.216 65.8291C146.512 65.4133 145.809 65.2053 145.105 65.2053C144.476 65.2053 143.911 65.3973 143.41 65.7811C142.908 66.1543 142.551 66.6768 142.338 67.3486C142.018 68.3722 141.858 69.4918 141.858 70.7074V79.6001H138.979Z" fill="#000008"/>
<path d="M161.003 77.5049C159.937 78.4112 158.908 79.051 157.916 79.4242C156.935 79.7974 155.88 79.984 154.749 79.984C152.883 79.984 151.449 79.5308 150.447 78.6245C149.445 77.7075 148.944 76.5399 148.944 75.1218C148.944 74.2901 149.13 73.533 149.503 72.8506C149.887 72.1575 150.383 71.603 150.991 71.1872C151.609 70.7713 152.302 70.4568 153.07 70.2435C153.635 70.0942 154.488 69.9503 155.629 69.8117C157.954 69.5344 159.665 69.2039 160.763 68.82C160.774 68.4255 160.779 68.1749 160.779 68.0683C160.779 66.8954 160.507 66.069 159.964 65.5892C159.228 64.9388 158.135 64.6136 156.685 64.6136C155.331 64.6136 154.328 64.8535 153.678 65.3333C153.038 65.8025 152.564 66.6395 152.254 67.8444L149.439 67.4605C149.695 66.2556 150.116 65.2853 150.703 64.5496C151.289 63.8032 152.137 63.2327 153.246 62.8382C154.355 62.433 155.64 62.2304 157.101 62.2304C158.551 62.2304 159.729 62.401 160.635 62.7422C161.542 63.0834 162.208 63.5153 162.635 64.0378C163.061 64.5496 163.36 65.2 163.53 65.9891C163.626 66.4795 163.674 67.3646 163.674 68.6441V72.4827C163.674 75.1591 163.733 76.8545 163.85 77.5689C163.978 78.2726 164.223 78.9497 164.586 79.6001H161.579C161.28 79.003 161.089 78.3046 161.003 77.5049ZM160.763 71.0752C159.718 71.5017 158.151 71.8643 156.061 72.1628C154.877 72.3334 154.04 72.5254 153.55 72.7386C153.059 72.9519 152.681 73.2664 152.414 73.6823C152.148 74.0875 152.014 74.5406 152.014 75.0418C152.014 75.8095 152.302 76.4493 152.878 76.9611C153.465 77.4729 154.318 77.7288 155.437 77.7288C156.546 77.7288 157.532 77.4889 158.396 77.0091C159.26 76.5186 159.894 75.8522 160.299 75.0098C160.609 74.3594 160.763 73.3997 160.763 72.1308V71.0752Z" fill="#000008"/>
<path d="M167.001 74.53L169.848 74.0821C170.008 75.2231 170.45 76.0974 171.176 76.7052C171.911 77.313 172.935 77.6169 174.246 77.6169C175.569 77.6169 176.55 77.3503 177.189 76.8172C177.829 76.2733 178.149 75.6389 178.149 74.9138C178.149 74.2634 177.866 73.7516 177.301 73.3784C176.907 73.1225 175.926 72.7973 174.358 72.4027C172.247 71.8696 170.781 71.4111 169.96 71.0272C169.15 70.6327 168.531 70.0942 168.105 69.4118C167.689 68.7187 167.481 67.9563 167.481 67.1246C167.481 66.3676 167.651 65.6692 167.993 65.0294C168.345 64.379 168.819 63.8405 169.416 63.414C169.864 63.0834 170.472 62.8062 171.239 62.5823C172.018 62.3477 172.85 62.2304 173.735 62.2304C175.067 62.2304 176.235 62.4224 177.237 62.8062C178.25 63.1901 178.997 63.7126 179.477 64.3736C179.956 65.0241 180.287 65.8984 180.468 66.9967L177.653 67.3806C177.525 66.5062 177.152 65.8238 176.534 65.3333C175.926 64.8428 175.062 64.5976 173.943 64.5976C172.62 64.5976 171.677 64.8162 171.112 65.2533C170.546 65.6905 170.264 66.2023 170.264 66.7888C170.264 67.162 170.381 67.4978 170.616 67.7964C170.85 68.1056 171.218 68.3615 171.719 68.5641C172.007 68.6708 172.855 68.916 174.262 69.2999C176.299 69.8437 177.717 70.2915 178.517 70.6434C179.327 70.9846 179.962 71.4857 180.42 72.1468C180.879 72.8079 181.108 73.629 181.108 74.6099C181.108 75.5696 180.825 76.4759 180.26 77.329C179.706 78.1713 178.901 78.8271 177.845 79.2963C176.789 79.7548 175.595 79.984 174.262 79.984C172.055 79.984 170.37 79.5255 169.208 78.6085C168.057 77.6915 167.321 76.332 167.001 74.53Z" fill="#000008"/>
<path d="M190.816 77.0251L191.232 79.5682C190.422 79.7388 189.697 79.8241 189.057 79.8241C188.012 79.8241 187.202 79.6588 186.626 79.3282C186.05 78.9977 185.645 78.5658 185.41 78.0327C185.176 77.4889 185.059 76.3533 185.059 74.6259V64.8535H182.947V62.6143H185.059V58.4078L187.921 56.6804V62.6143H190.816V64.8535H187.921V74.7859C187.921 75.6069 187.969 76.1347 188.065 76.3693C188.172 76.6039 188.337 76.7905 188.561 76.9291C188.796 77.0677 189.126 77.137 189.553 77.137C189.873 77.137 190.294 77.0997 190.816 77.0251Z" fill="#000008"/>
<path d="M193.615 79.6001V62.6143H196.206V65.1894C196.868 63.9845 197.475 63.1901 198.03 62.8062C198.595 62.4224 199.213 62.2304 199.885 62.2304C200.855 62.2304 201.842 62.5396 202.844 63.1581L201.852 65.8291C201.149 65.4133 200.445 65.2053 199.741 65.2053C199.112 65.2053 198.547 65.3973 198.046 65.7811C197.545 66.1543 197.187 66.6768 196.974 67.3486C196.654 68.3722 196.494 69.4918 196.494 70.7074V79.6001H193.615Z" fill="#000008"/>
<path d="M215.687 79.6001V77.105C214.365 79.0243 212.569 79.984 210.297 79.984C209.295 79.984 208.357 79.7921 207.482 79.4082C206.619 79.0243 205.974 78.5445 205.547 77.9687C205.131 77.3823 204.838 76.6679 204.667 75.8255C204.55 75.2604 204.491 74.3647 204.491 73.1385V62.6143H207.37V72.0349C207.37 73.5383 207.429 74.5513 207.546 75.0738C207.728 75.8308 208.111 76.428 208.698 76.8651C209.284 77.2916 210.009 77.5049 210.873 77.5049C211.737 77.5049 212.547 77.2863 213.304 76.8491C214.061 76.4013 214.594 75.7989 214.904 75.0418C215.224 74.2741 215.384 73.1651 215.384 71.715V62.6143H218.262V79.6001H215.687Z" fill="#000008"/>
<path d="M233.873 73.3784L236.704 73.7463C236.395 75.6976 235.6 77.2277 234.321 78.3366C233.052 79.4349 231.49 79.984 229.634 79.984C227.31 79.984 225.439 79.2269 224.02 77.7128C222.613 76.188 221.909 74.0075 221.909 71.1712C221.909 69.3372 222.213 67.7324 222.821 66.3569C223.429 64.9814 224.351 63.9525 225.588 63.27C226.835 62.577 228.19 62.2304 229.65 62.2304C231.495 62.2304 233.004 62.6996 234.177 63.6379C235.35 64.5656 236.101 65.8878 236.432 67.6045L233.633 68.0363C233.366 66.8954 232.892 66.037 232.209 65.4613C231.538 64.8855 230.722 64.5976 229.762 64.5976C228.312 64.5976 227.134 65.12 226.228 66.165C225.321 67.1993 224.868 68.8414 224.868 71.0912C224.868 73.3731 225.305 75.0311 226.18 76.0654C227.054 77.0997 228.195 77.6169 229.602 77.6169C230.733 77.6169 231.676 77.2703 232.433 76.5772C233.19 75.8842 233.67 74.8179 233.873 73.3784Z" fill="#000008"/>
<path d="M245.453 77.0251L245.869 79.5682C245.058 79.7388 244.333 79.8241 243.693 79.8241C242.648 79.8241 241.838 79.6588 241.262 79.3282C240.686 78.9977 240.281 78.5658 240.047 78.0327C239.812 77.4889 239.695 76.3533 239.695 74.6259V64.8535H237.584V62.6143H239.695V58.4078L242.558 56.6804V62.6143H245.453V64.8535H242.558V74.7859C242.558 75.6069 242.606 76.1347 242.702 76.3693C242.808 76.6039 242.974 76.7905 243.197 76.9291C243.432 77.0677 243.763 77.137 244.189 77.137C244.509 77.137 244.93 77.0997 245.453 77.0251Z" fill="#000008"/>
<path d="M259.416 79.6001V77.105C258.093 79.0243 256.297 79.984 254.026 79.984C253.023 79.984 252.085 79.7921 251.211 79.4082C250.347 79.0243 249.702 78.5445 249.275 77.9687C248.859 77.3823 248.566 76.6679 248.396 75.8255C248.278 75.2604 248.22 74.3647 248.22 73.1385V62.6143H251.099V72.0349C251.099 73.5383 251.157 74.5513 251.275 75.0738C251.456 75.8308 251.84 76.428 252.426 76.8651C253.013 77.2916 253.738 77.5049 254.601 77.5049C255.465 77.5049 256.275 77.2863 257.032 76.8491C257.79 76.4013 258.323 75.7989 258.632 75.0418C258.952 74.2741 259.112 73.1651 259.112 71.715V62.6143H261.991V79.6001H259.416Z" fill="#000008"/>
<path d="M266.485 79.6001V62.6143H269.076V65.1894C269.737 63.9845 270.345 63.1901 270.899 62.8062C271.465 62.4224 272.083 62.2304 272.755 62.2304C273.725 62.2304 274.711 62.5396 275.714 63.1581L274.722 65.8291C274.018 65.4133 273.315 65.2053 272.611 65.2053C271.982 65.2053 271.417 65.3973 270.915 65.7811C270.414 66.1543 270.057 66.6768 269.844 67.3486C269.524 68.3722 269.364 69.4918 269.364 70.7074V79.6001H266.485Z" fill="#000008"/>
<path d="M289.053 74.1301L292.028 74.498C291.559 76.236 290.69 77.5849 289.421 78.5445C288.152 79.5042 286.531 79.984 284.559 79.984C282.074 79.984 280.102 79.2216 278.641 77.6968C277.191 76.1614 276.465 74.0128 276.465 71.2512C276.465 68.3935 277.201 66.1757 278.673 64.5976C280.144 63.0195 282.053 62.2304 284.399 62.2304C286.67 62.2304 288.525 63.0035 289.965 64.5496C291.404 66.0957 292.124 68.2709 292.124 71.0752C292.124 71.2458 292.118 71.5017 292.108 71.8429H279.44C279.547 73.7089 280.075 75.1378 281.024 76.1294C281.973 77.121 283.156 77.6169 284.575 77.6169C285.63 77.6169 286.531 77.3396 287.278 76.7852C288.024 76.2307 288.616 75.3457 289.053 74.1301ZM279.6 69.4758H289.085C288.957 68.047 288.594 66.9754 287.997 66.261C287.08 65.152 285.891 64.5976 284.431 64.5976C283.108 64.5976 281.994 65.0401 281.088 65.9251C280.192 66.8101 279.696 67.9937 279.6 69.4758Z" fill="#000008"/>
</svg>
