<svg width="90" height="90" viewBox="0 0 90 90" fill="none" xmlns="http://www.w3.org/2000/svg">
<path d="M77 5H13C8.58172 5 5 8.58172 5 13V77C5 81.4183 8.58172 85 13 85H77C81.4183 85 85 81.4183 85 77V13C85 8.58172 81.4183 5 77 5Z" fill="#FFF1C0"/>
<path fill-rule="evenodd" clip-rule="evenodd" d="M59.7212 28.3819C55.8293 25.5255 50.0973 24.1667 42.9167 24.1667C35.9122 24.1667 31.3774 26.0886 28.5377 29.3682C25.6452 32.7087 24.1667 37.8468 24.1667 45C24.1667 51.8707 26.5287 56.9984 30.424 60.4329C34.3541 63.8983 40.0673 65.8333 47.0833 65.8333C53.8971 65.8333 58.4452 63.3883 61.3638 59.4526C64.3576 55.4155 65.8333 49.5421 65.8333 42.3958C65.8333 35.55 63.4966 31.1527 59.7212 28.3819ZM62.1866 25.0228C67.2197 28.7168 70 34.4757 70 42.3958C70 50.0155 68.4421 56.9025 64.7106 61.9344C60.9041 67.0676 55.0355 70 47.0833 70C39.3334 70 32.5466 67.8596 27.6683 63.5582C22.7549 59.2259 20 52.8952 20 45C20 37.3873 21.5552 31.067 25.3878 26.6407C29.2733 22.1534 35.1551 20 42.9167 20C50.502 20 57.2701 21.4145 62.1866 25.0228Z" fill="#00212A"/>
<path fill-rule="evenodd" clip-rule="evenodd" d="M53.9664 35.897C51.765 33.7736 48.4807 32.4998 44.1949 32.4998C39.8734 32.4998 37.0709 33.6836 35.3163 35.5938C33.5315 37.5368 32.4998 40.5883 32.4998 44.9998C32.4998 49.3499 33.6424 52.3984 35.5569 54.36C37.4633 56.3131 40.4393 57.4998 44.7631 57.4998C49.1339 57.4998 52.2549 56.3933 54.2743 54.5061C56.27 52.6411 57.4998 49.7229 57.4998 45.4259C57.4998 41.1816 56.1579 38.0108 53.9664 35.897ZM56.859 32.898C60.0125 35.9398 61.6665 40.2738 61.6665 45.4259C61.6665 50.5254 60.1845 54.6859 57.1192 57.5504C54.0778 60.3927 49.7888 61.6665 44.7631 61.6665C39.6903 61.6665 35.493 60.2598 32.5752 57.2703C29.6656 54.2893 28.3331 50.0462 28.3331 44.9998C28.3331 40.0148 29.4925 35.7746 32.2477 32.7751C35.0331 29.7428 39.1199 28.3331 44.1949 28.3331C49.3055 28.3331 53.7154 29.8658 56.859 32.898Z" fill="#00212A"/>
<path fill-rule="evenodd" clip-rule="evenodd" d="M50.5662 38.8814C52.3208 40.401 53.3333 42.5946 53.3333 45.1827C53.3333 47.4623 52.8278 49.5975 51.3616 51.1546C49.8719 52.7368 47.761 53.3333 45.4194 53.3333C43.2862 53.3333 41.0918 53.0376 39.3958 51.8738C37.5318 50.5947 36.6667 48.5619 36.6667 46.0417C36.6667 43.8558 37.0242 41.5681 38.1761 39.7644C39.4222 37.8131 41.449 36.6667 44.1342 36.6667C46.5504 36.6667 48.8436 37.3895 50.5662 38.8814Z" fill="#00212A"/>
</svg>
