<svg width="90" height="90" viewBox="0 0 90 90" fill="none" xmlns="http://www.w3.org/2000/svg">
<rect x="5" y="5" width="80" height="80" rx="8" fill="#0064FF"/>
<path d="M39.51 57.5006C39.2602 57.397 38.8507 56.9375 39.5319 55.6581L41.1144 52.3507C41.1624 52.2507 41.0469 52.1256 40.9748 52.2105L39.5911 53.6017C38.9364 54.285 37.8258 56.2058 37.6107 56.5612L35.9297 59.3401C36.0546 59.3361 36.1591 59.4343 36.1631 59.5591C36.1648 59.6003 36.1544 59.6409 36.1343 59.6768L34.5978 62.2575C34.2227 62.8975 34.8967 63.3449 34.988 63.1976C37.403 59.3078 38.8076 59.6183 38.8076 59.6183L39.6138 57.7515C39.6562 57.658 39.6156 57.5477 39.5212 57.5053C39.5177 57.5035 39.514 57.5021 39.51 57.5006ZM45.0004 25C31.193 25 20 36.1875 20 49.9881C19.9928 55.3305 21.7066 60.5333 24.8878 64.8254C25.9365 64.3727 26.5193 63.696 26.9356 63.1779L31.5905 57.2274C31.6886 57.102 31.8165 57.0033 31.9628 56.9405L32.6636 56.6391L40.3175 46.9353L41.4273 46.0668L43.7078 42.894C43.7668 42.812 43.8386 42.7397 43.9206 42.6803L44.9156 41.9573C45.1614 41.7787 45.4934 41.7759 45.7421 41.9504L46.9495 42.7975C47.5901 43.2468 48.1093 43.8477 48.4611 44.5465L53.2975 53.0376C53.3765 53.1996 53.5107 53.3281 53.6758 53.4C54.6243 53.872 55.2038 53.9554 56.4451 55.3032C57.0244 55.9316 59.5626 58.769 63.1198 63.1787C63.6367 63.8861 64.3288 64.4469 65.128 64.8061C68.2995 60.5173 70.0075 55.3222 70 49.9881C70 36.1874 58.8075 25 45.0004 25ZM26.7422 51.3654L25.1212 50.8392L24.1199 52.2167V50.5143L22.4988 49.988L24.1199 49.4617V47.7588L25.1212 49.1366L26.7422 48.6104L25.7407 49.9881L26.7422 51.3654ZM26.3579 56.9372L25.8314 58.5568L25.3049 56.9372H23.6012L24.9794 55.9362L24.453 54.3167L25.8313 55.3177L27.2097 54.3167L26.6832 55.9362L28.0616 56.9372H26.3579ZM26.6833 44.039L27.2098 45.6585L25.8314 44.6574L24.4531 45.6585L24.9795 44.039L23.6013 43.038H25.305L25.8315 41.4185L26.3581 43.038H28.0618L26.6833 44.039ZM29.4191 40.3756L28.4182 38.9978L26.7972 39.524L27.7987 38.1464L26.7972 36.7687L28.4182 37.2949L29.4197 35.9172V37.6202L31.0406 38.1455L29.4197 38.6719V40.3747L29.4191 40.3756ZM33.6798 34.414L33.1533 36.0335L32.6268 34.4141H30.923L32.3014 33.413L31.775 31.7935L33.1533 32.7943L34.5315 31.7933L34.0051 33.4142L35.3835 34.4152H33.6797L33.6798 34.414ZM39.0489 31.6795L38.0474 33.0573V31.3548L36.4263 30.8286L38.0474 30.3022V28.5993L39.0489 29.9771L40.6692 29.4509L39.6677 30.8286L40.6692 32.2062L39.0489 31.6795ZM45.8523 30.1185L46.3788 31.738L45.0004 30.737L43.622 31.738L44.1479 30.1193L42.7697 29.1182H44.4734L45.0001 27.4988L45.5266 29.1182H47.2303L45.8523 30.1185ZM51.9528 31.3548V33.0577L50.9517 31.6799L49.3309 32.2062L50.3323 30.8286L49.331 29.4509L50.9519 29.9771L51.953 28.5993V30.3022L53.574 30.8286L51.9528 31.3548ZM63.2579 48.6104L64.8788 49.1366L65.8799 47.7588V49.4617L67.501 49.988L65.8799 50.5143V52.2171L64.8788 50.8395L63.2579 51.3657L64.2605 49.988L63.2579 48.6104ZM56.8473 36.0339L56.3205 34.4144H54.6169L55.9948 33.4133L55.4695 31.7937L56.8473 32.7947L58.2251 31.7939L57.6997 33.4133L59.0777 34.4144H57.374L56.8473 36.0339ZM60.5817 40.376V38.6732L58.9607 38.1468L60.5817 37.6215V35.9178L61.5827 37.2955L63.2037 36.7693L62.2026 38.147L63.2037 39.5246L61.5827 38.9984L60.5817 40.376ZM63.642 43.0385L64.169 41.419L64.6958 43.0385H66.3994L65.0216 44.0395L65.5484 45.659L64.1692 44.658L62.7913 45.659L63.3182 44.0395L61.9388 43.0385H63.642ZM64.6957 56.9372L64.1689 58.5568L63.6419 56.9372H61.9383L63.3176 55.9362L62.7908 54.3167L64.1687 55.3177L65.5479 54.3167L65.0211 55.9362L66.3989 56.9372H64.6957ZM54.0557 64.4293C54.1757 64.2548 54.3709 63.7761 54.0046 62.8891L52.8983 59.9154C52.7482 59.5357 53.077 59.3055 53.2976 59.555C53.2976 59.555 55.3885 61.9648 55.9288 62.971L56.9599 64.682C57.8469 64.7393 60.2949 64.8061 62.6513 64.8061C62.414 64.5705 62.1949 64.3173 61.9954 64.0489C57.9744 59.0658 55.4242 56.2939 55.3987 56.2664C54.5838 55.3809 54.2071 55.2108 53.5855 54.9278C53.4955 54.8869 53.3979 54.8428 53.2974 54.795V55.5515C53.3036 55.6026 53.2671 55.649 53.2159 55.6551C53.1745 55.66 53.1348 55.6368 53.1189 55.5983L47.2071 45.218L47.1907 45.1852C46.9441 44.6963 46.5807 44.2757 46.1327 43.9609L45.5561 43.5557L42.7358 50.0592C43.0727 50.0591 43.3461 50.3322 43.3463 50.6691C43.3464 50.7525 43.3293 50.8351 43.2961 50.9117L40.6904 56.9369H43.0823C44.0067 56.9369 44.9224 57.1168 45.7779 57.4672L46.4084 57.7255C46.4084 57.7255 44.5062 61.6374 44.5062 63.6973C44.5088 64.0719 44.5612 64.4444 44.6615 64.8054H49.0462L48.8431 63.5706C50.5632 63.9546 52.3033 64.2415 54.0555 64.4299L54.0557 64.4293Z" fill="white"/>
</svg>
