<svg width="300" height="100" viewBox="0 0 300 100" fill="none" xmlns="http://www.w3.org/2000/svg">
<path d="M82.3483 39.352C81.8912 42.252 79.6493 44.388 75.3585 44.388H69.8752L71.5386 33.8413H76.9258C81.3607 33.8413 82.8043 36.4578 82.3483 39.352ZM76.151 53.2195C84.0185 53.2195 90.6963 47.4793 91.9164 39.7011C93.1462 31.8572 87.0185 25.0167 78.3331 25H64.34C63.8005 25 63.3416 25.3923 63.2572 25.9258L57.0129 65.5276C56.9148 66.1425 57.3904 66.6986 58.0132 66.6986H65.4197C65.9582 66.6986 66.4172 66.3063 66.5015 65.7738L68.3365 54.1443C68.4198 53.6118 68.8788 53.2195 69.4182 53.2195H76.151Z" fill="#003087"/>
<path d="M113.678 52.4698C113.064 56.3594 109.875 59.2241 105.784 59.2241C104.978 59.2241 104.238 59.1133 103.575 58.9005C100.543 57.9266 98.8119 55.0129 99.3101 51.8539C99.9241 47.9644 103.123 45.0997 107.214 45.0997C108.021 45.0997 108.761 45.2105 109.423 45.4233C112.456 46.3972 114.176 49.3109 113.678 52.4698ZM124.008 37.4814H116.978C116.439 37.4814 115.98 37.8737 115.896 38.4062L115.666 39.8655C115.666 39.8655 110.208 33.9037 100.547 37.9286C95.0056 40.2382 92.3439 45.0124 91.2141 48.493C91.2141 48.493 87.6187 59.1104 95.7451 64.9437C95.7451 64.9437 103.281 70.5584 111.765 64.5965L111.619 65.5273C111.522 66.1422 111.997 66.6982 112.62 66.6982H119.65C120.189 66.6982 120.648 66.306 120.732 65.7734L125.009 38.6524C125.106 38.0375 124.631 37.4814 124.008 37.4814Z" fill="#003087"/>
<path d="M183.594 39.352C183.137 42.252 180.896 44.388 176.604 44.388H171.121L172.784 33.8413H178.171C182.606 33.8413 184.05 36.4578 183.594 39.352ZM177.397 53.2195C185.264 53.2195 191.942 47.4793 193.161 39.7011C194.392 31.8572 188.264 25.0167 179.579 25H165.586C165.046 25 164.587 25.3923 164.503 25.9258L158.259 65.5276C158.161 66.1425 158.636 66.6986 159.259 66.6986H166.665C167.204 66.6986 167.663 66.3063 167.747 65.7738L169.582 54.1443C169.666 53.6118 170.125 53.2195 170.664 53.2195H177.397Z" fill="#0070E0"/>
<path d="M214.916 52.4698C214.302 56.3594 211.113 59.2241 207.022 59.2241C206.216 59.2241 205.477 59.1133 204.814 58.9005C201.781 57.9266 200.05 55.0129 200.548 51.8539C201.162 47.9644 204.361 45.0997 208.452 45.0997C209.259 45.0997 209.999 45.2105 210.661 45.4233C213.694 46.3972 215.414 49.3109 214.916 52.4698ZM225.246 37.4814H218.216C217.677 37.4814 217.218 37.8737 217.135 38.4062L216.904 39.8655C216.904 39.8655 211.446 33.9037 201.785 37.9286C196.244 40.2382 193.582 45.0124 192.452 48.493C192.452 48.493 188.857 59.1104 196.983 64.9437C196.983 64.9437 204.519 70.5584 213.004 64.5965L212.858 65.5273C212.761 66.1422 213.236 66.6982 213.859 66.6982H220.888C221.427 66.6982 221.886 66.306 221.971 65.7734L226.248 38.6524C226.345 38.0375 225.869 37.4814 225.246 37.4814Z" fill="#0070E0"/>
<path d="M149.814 38.1541L141.341 52.4599L137.039 38.26C136.899 37.798 136.473 37.4823 135.991 37.4823H128.343C127.786 37.4823 127.391 38.0256 127.561 38.5562L135.268 62.4741L128.299 73.7466C127.96 74.2939 128.354 75 128.997 75H137.234C137.713 75 138.158 74.7499 138.405 74.34L159.932 38.7288C160.262 38.1815 159.868 37.4823 159.228 37.4823H150.992C150.509 37.4823 150.06 37.7382 149.814 38.1541Z" fill="#003087"/>
<path d="M233.156 25.9258L226.91 65.5276C226.813 66.1425 227.289 66.6995 227.912 66.6995H235.317C235.856 66.6995 236.314 66.3073 236.399 65.7747L242.644 26.1719C242.741 25.557 242.266 25.001 241.644 25.001H234.237C233.699 25.001 233.24 25.3933 233.156 25.9258Z" fill="#0070E0"/>
</svg>
