<svg width="90" height="90" viewBox="0 0 90 90" fill="none" xmlns="http://www.w3.org/2000/svg">
<path d="M70.8333 6H19.1667C11.3426 6 5 12.343 5 20.1674V69.8368C5 77.6612 11.3426 84.0042 19.1667 84.0042H70.8333C78.6574 84.0042 85 77.6612 85 69.8368V20.1674C85 12.343 78.6574 6 70.8333 6Z" fill="#001E36"/>
<path d="M23.0117 60.6997V26.4049C23.0117 26.155 23.1191 26.0292 23.3338 26.0292C23.9056 26.0292 24.4277 26.0208 25.2151 26.0024C26.0017 25.9848 26.8515 25.9669 27.7643 25.9487C28.6767 25.9311 29.6428 25.9132 30.6624 25.895C31.6819 25.8774 32.6926 25.8685 33.6944 25.8682C36.413 25.8682 38.7028 26.2081 40.5637 26.8879C42.2424 27.4558 43.7733 28.3908 45.045 29.625C46.123 30.6948 46.9561 31.9858 47.4868 33.4088C47.9888 34.7936 48.2432 36.2561 48.2382 37.7292C48.2382 40.5921 47.5763 42.9536 46.2526 44.8135C44.92 46.6812 43.047 48.0954 40.8859 48.8656C38.6318 49.7067 36.1271 49.992 33.3725 49.992C32.5851 49.992 32.0305 49.983 31.7088 49.9651C31.3868 49.9474 30.9039 49.9385 30.2599 49.9382V60.6461C30.2693 60.7117 30.2632 60.7786 30.2422 60.8415C30.2213 60.9044 30.186 60.9615 30.1391 61.0084C30.0922 61.0552 30.0351 61.0905 29.9722 61.1115C29.9093 61.1325 29.8424 61.1385 29.7768 61.1291H23.3874C23.1367 61.1291 23.0117 60.9865 23.0117 60.6997ZM30.2599 32.4695V43.6551C30.7244 43.6912 31.1537 43.709 31.5478 43.7087H33.3188C34.6219 43.7044 35.9164 43.4978 37.156 43.0962C38.2192 42.7803 39.1693 42.1656 39.893 41.3251C40.5906 40.5024 40.9395 39.3575 40.9396 37.8902C40.9679 36.8521 40.6977 35.8276 40.1612 34.9383C39.5973 34.0785 38.7822 33.4133 37.8268 33.0331C36.5793 32.5482 35.2468 32.32 33.9091 32.3623C33.0504 32.3623 32.2901 32.3712 31.6284 32.389C30.9659 32.4075 30.5098 32.4344 30.2599 32.4695Z" fill="#31A8FF"/>
<path d="M68.9886 41.6203C67.98 41.102 66.9059 40.7228 65.7954 40.4932C64.5719 40.2124 63.3209 40.0684 62.0656 40.0638C61.3866 40.0454 60.7085 40.1268 60.0531 40.3053C59.6359 40.3982 59.2651 40.6359 59.0065 40.9762C58.8316 41.2484 58.7385 41.565 58.7383 41.8886C58.7481 42.2025 58.8613 42.5043 59.0602 42.7473C59.3737 43.114 59.7568 43.415 60.1872 43.6328C60.9524 44.0449 61.7408 44.4123 62.5485 44.7331C64.3497 45.336 66.0707 46.156 67.6737 47.175C68.7657 47.8643 69.6693 48.814 70.3034 49.939C70.8366 51.0042 71.1036 52.1828 71.0816 53.3739C71.1137 54.9466 70.6643 56.4915 69.7937 57.8016C68.8615 59.1315 67.5668 60.1654 66.0637 60.7802C64.4353 61.4956 62.4228 61.8534 60.0262 61.8537C58.5038 61.8691 56.9839 61.7251 55.4914 61.4243C54.3155 61.2087 53.1708 60.8481 52.0835 60.3509C51.9662 60.2903 51.8686 60.1976 51.802 60.0835C51.7355 59.9694 51.7028 59.8388 51.7079 59.7068V53.9105C51.7014 53.8538 51.7105 53.7964 51.7341 53.7444C51.7578 53.6924 51.7951 53.6478 51.8421 53.6154C51.8882 53.5893 51.9412 53.5779 51.9939 53.5827C52.0466 53.5875 52.0966 53.6083 52.1372 53.6422C53.4212 54.3994 54.8154 54.9516 56.2696 55.2791C57.5513 55.6004 58.866 55.7715 60.1872 55.789C61.4392 55.789 62.3604 55.628 62.951 55.306C63.2177 55.1839 63.4433 54.9871 63.6005 54.7394C63.7577 54.4918 63.8397 54.2039 63.8366 53.9105C63.8366 53.446 63.5683 52.9988 63.0316 52.5688C62.495 52.1395 61.4037 51.6206 59.7579 51.0124C58.0728 50.4258 56.475 49.6134 55.0083 48.5973C53.9593 47.8677 53.0955 46.9027 52.486 45.7796C51.9583 44.722 51.6914 43.5534 51.7079 42.3716C51.7049 40.9516 52.095 39.5584 52.8348 38.3464C53.6785 37.0117 54.8899 35.9494 56.3233 35.2872C57.8972 34.5006 59.865 34.1071 62.2266 34.1065C63.6097 34.0954 64.9915 34.1941 66.359 34.4017C67.3492 34.5273 68.3173 34.7891 69.2358 35.1799C69.3087 35.2008 69.3757 35.2383 69.4316 35.2895C69.4874 35.3408 69.5306 35.4043 69.5578 35.475C69.5941 35.6061 69.6121 35.7416 69.6115 35.8776V41.2982C69.6152 41.3613 69.6023 41.4242 69.574 41.4807C69.5458 41.5373 69.5032 41.5854 69.4505 41.6202C69.3788 41.6559 69.2997 41.6745 69.2196 41.6745C69.1394 41.6745 69.0604 41.6559 68.9886 41.6203Z" fill="#31A8FF"/>
</svg>
