<svg width="300" height="100" viewBox="0 0 300 100" fill="none" xmlns="http://www.w3.org/2000/svg">
<path d="M71.0781 42.3752C71.0781 35.8275 76.5963 28 87.506 28C96.3197 28 102.095 34.3313 102.048 41.0984C102.048 50.1223 97.0431 56.8833 89.6422 56.8833C87.1598 56.8833 84.8505 55.5571 84.0374 54.0175C84.0374 54.0175 82.7112 59.3225 82.4113 60.3488C81.5171 63.6585 78.9936 66.9299 78.3841 67.7199C78.3236 67.7984 78.2819 67.8524 78.2626 67.8796C78.0926 68.0929 77.7494 68.0063 77.7062 67.7497C77.7021 67.7099 77.6917 67.6338 77.677 67.5256C77.5337 66.4754 76.9771 62.3971 77.7927 59.0226C78.2224 57.1399 80.745 46.4868 80.745 46.4868C80.745 46.4868 80.0186 45.0338 80.0186 42.8513C80.0186 39.426 81.9847 36.9033 84.4671 36.9033C86.5631 36.9033 87.5895 38.4862 87.5895 40.3688C87.5895 41.7084 87.0478 43.4848 86.4785 45.3518C86.157 46.4063 85.8266 47.4896 85.5801 48.5395C85.0236 50.9787 86.8197 52.9881 89.2156 52.9881C93.5374 52.9881 96.4897 47.3833 96.4897 40.7522C96.4897 35.7039 93.0675 31.9385 86.9063 31.9385C79.9351 31.9385 75.57 37.1568 75.57 42.9749C75.57 44.9442 76.1264 46.3539 77.0662 47.4668C77.4959 47.98 77.5794 48.1933 77.4094 48.7497C77.2826 49.1764 77.026 50.2027 76.9395 50.5891C76.7664 51.1456 76.2965 51.3589 75.7833 51.1456C72.5744 49.8627 71.0781 46.3106 71.0781 42.3752Z" fill="#E60019"/>
<path fill-rule="evenodd" clip-rule="evenodd" d="M223.978 47.2068H227.827C228.34 47.2068 228.683 46.9935 228.767 46.5236C228.937 45.7971 229.237 44.5976 229.323 44.2576C229.453 43.8309 229.193 43.4878 228.68 43.4878H224.872C224.916 43.3025 224.985 43.0426 225.068 42.7276C225.467 41.2246 226.198 38.466 226.198 36.5568C226.198 31.9784 222.306 28.043 216.744 28.043C210.5 28.043 206.434 32.235 206.434 38.1396C206.434 39.8523 207.077 41.8617 207.89 43.1014C207.719 43.1014 207.548 43.0905 207.377 43.0797C207.206 43.0689 207.036 43.0581 206.864 43.0581C202.116 43.0581 199.12 45.624 199.12 49.3894C199.12 52.8981 201.902 54.2676 204.511 55.1642C204.858 55.2862 205.201 55.3986 205.533 55.5075C207.415 56.1242 208.96 56.6307 208.96 58.1598C208.96 59.3994 207.804 60.0857 205.495 60.0857C202.756 60.0857 201.259 58.8028 200.873 58.3329C201.129 58.1196 201.516 57.6497 201.516 56.8366C201.516 55.7237 200.703 54.7839 199.25 54.7839C198.01 54.7839 196.941 55.8103 196.684 57.1365C194.675 58.7626 192.492 59.8322 189.41 59.8322C186.371 59.8322 184.788 58.2494 184.788 54.8705C185.515 55.0838 187.354 55.3404 188.597 55.3404C193.772 55.3404 197.281 52.9878 197.281 48.3228C197.281 45.8002 195.055 43.1477 190.693 43.1477C184.918 43.1477 181.709 46.7833 180.296 50.8052C179.91 50.7187 179.526 50.6352 179.1 50.5486C179.4 49.649 179.656 48.6227 179.656 47.4696C179.656 45.5003 178.417 43.1477 175.121 43.1477C172.812 43.1477 170.673 44.644 169.173 46.9131C169.56 45.457 169.816 44.474 169.816 44.3905C169.903 44.0041 169.773 43.5774 169.173 43.5774H165.794C165.324 43.5774 164.981 43.7475 164.855 44.3039C164.768 44.6904 163.615 49.2224 162.459 53.6308C161.732 56.4131 158.053 59.8353 153.432 59.8353C150.393 59.8353 148.81 58.1659 148.81 54.787C149.623 55.0869 151.376 55.3867 152.619 55.3867C157.967 55.3867 161.302 53.0342 161.302 48.3692C161.302 45.8466 159.077 43.1941 154.715 43.1941C148.213 43.1941 144.235 48.2424 143.592 53.9338C143.292 56.3296 141.326 59.5818 139.143 59.5818C138.073 59.5818 137.474 58.8986 137.474 57.7857C137.474 56.9574 137.959 55.1261 138.574 52.8041L138.575 52.8006C138.689 52.3678 138.808 51.918 138.93 51.4544C139.186 50.4714 139.573 48.9318 139.999 47.2192H143.508C144.021 47.2192 144.321 47.0059 144.448 46.536C144.618 45.8095 144.918 44.61 145.004 44.2699C145.134 43.8433 144.875 43.5002 144.361 43.5002H140.896C140.896 43.5002 142.479 37.1256 142.522 36.9556C142.692 36.3126 142.136 35.9292 141.582 36.056C141.582 36.056 138.886 36.5692 138.417 36.699C137.903 36.7856 137.517 37.0854 137.347 37.8119C137.304 37.8985 135.934 43.5434 135.934 43.5434H133.152C132.639 43.5434 132.339 43.7568 132.212 44.2266C132.042 44.9531 131.742 46.1526 131.656 46.4927C131.526 46.9193 131.785 47.2624 132.299 47.2624H135.038C135.038 47.2931 134.914 47.774 134.721 48.5287C134.368 49.9055 133.782 52.1935 133.285 54.3202C132.898 55.903 131.702 59.6251 129.649 59.6251C128.453 59.6251 127.937 59.0254 127.937 57.6991C127.937 56.7078 128.405 54.9975 128.89 53.2289C129.409 51.3356 129.946 49.3753 129.946 48.159C129.946 45.0366 128.277 43.2405 124.854 43.2405C122.672 43.2405 120.449 44.6533 119.506 45.8497C119.506 45.8497 119.806 44.8666 119.893 44.4802C119.979 44.0535 119.763 43.6671 119.25 43.6671H115.914C115.188 43.6671 115.014 44.0535 114.888 44.4802L114.792 44.8597C114.481 46.0921 113.472 50.0895 112.492 53.9338C111.679 57.0561 109.753 59.6653 107.7 59.6653C106.63 59.6653 106.161 58.9821 106.161 57.8692C106.161 57.062 106.594 55.3024 107.151 53.0405C107.273 52.5475 107.4 52.0306 107.53 51.4946C108.2 48.7882 108.821 46.4364 109.13 45.2695C109.236 44.869 109.305 44.608 109.326 44.5203C109.456 44.0937 109.24 43.664 108.643 43.664H105.264C104.664 43.664 104.451 43.9639 104.324 44.4338C104.324 44.4338 103.384 48.026 102.355 52.048C102.242 52.4995 102.127 52.952 102.014 53.3995C101.396 55.8352 100.815 58.1219 100.815 59.2789C100.815 61.7613 101.928 63.644 105.007 63.644C107.36 63.644 109.243 62.4476 110.655 60.905C110.442 61.718 110.312 62.2745 110.312 62.3177C110.182 62.7876 110.356 63.2174 110.912 63.2174H114.378C114.977 63.2174 115.191 62.9608 115.317 62.4476L118.013 51.7945C118.696 49.0555 120.366 47.2593 122.762 47.2593C123.874 47.2593 124.858 47.9858 124.731 49.4419C124.679 50.0684 124.347 51.3449 123.964 52.8154C123.38 55.0598 122.678 57.756 122.678 59.282C122.678 61.1646 123.361 63.6471 126.957 63.6471C129.396 63.6471 131.192 62.4909 132.475 60.9513C132.945 62.5341 134.228 63.6471 136.54 63.6471C140.389 63.6471 142.745 61.381 144.071 59.0686C145.184 61.7211 147.879 63.6471 151.772 63.6471C155.75 63.6471 158.829 61.9777 160.969 59.7117L160.911 59.9419C160.557 61.3524 160.324 62.282 160.285 62.3641C160.156 62.834 160.372 63.2204 160.928 63.2204H164.351C164.821 63.2204 165.164 62.9639 165.29 62.494C165.311 62.3704 165.441 61.8699 165.646 61.0782C165.867 60.2258 166.176 59.0358 166.53 57.6157C167.856 52.4406 169.996 47.0491 173.248 47.0491C174.404 47.0491 174.831 47.6922 174.831 48.6752C174.831 49.1451 174.701 49.5748 174.574 49.7881C173.034 49.4883 171.752 50.258 171.752 51.9274C171.752 52.9971 172.908 53.9801 174.447 53.9801C175.644 53.9801 176.587 53.6803 177.356 53.1671C178.083 53.2969 178.853 53.467 179.666 53.6803C179.536 54.45 179.496 55.2198 179.496 55.9463C179.496 60.095 182.448 63.6471 187.796 63.6471C191.988 63.6471 194.854 62.1075 197.293 60.1816C198.489 62.1075 201.485 63.6903 205.42 63.6903C210.812 63.6903 213.891 60.8679 213.891 57.189C213.891 53.8534 211.152 52.6106 208.286 51.5843C207.974 51.4684 207.668 51.3605 207.374 51.2563C205.491 50.5906 204.051 50.0814 204.051 48.6752C204.051 47.349 205.12 46.706 206.917 46.706C208.043 46.706 208.923 46.9495 209.402 47.0821L209.439 47.0924C209.909 48.2486 210.852 49.5316 212.518 49.5316C213.931 49.5316 214.528 48.4186 214.528 47.4356C214.528 46.2508 213.733 45.4988 212.791 44.6073C211.419 43.31 209.736 41.7173 209.736 38.0654C209.736 34.2166 211.919 31.0478 216.41 31.0478C219.533 31.0478 221.585 33.0171 221.585 36.2662C221.585 38.9186 219.959 43.6238 219.959 43.6238H217.22C216.707 43.6238 216.407 43.8371 216.281 44.307C216.111 45.0335 215.811 46.233 215.724 46.573C215.594 46.9997 215.854 47.3428 216.367 47.3428H219.02C219.02 47.3428 216.281 57.4827 216.281 59.3654C216.281 61.8478 217.693 63.7305 220.729 63.7305C225.051 63.7305 227.787 60.908 228.943 56.8428C229.03 56.5429 228.857 56.2864 228.516 56.2864H226.847C226.504 56.2864 226.334 56.4564 226.247 56.7995C225.861 58.2556 224.964 59.7951 223.125 59.7951C222.055 59.7951 221.456 59.1119 221.456 57.999C221.456 57.1448 221.941 55.3196 222.602 52.8357C222.701 52.461 222.805 52.0713 222.912 51.6677C223.295 49.9458 223.978 47.2068 223.978 47.2068ZM189.84 47.0368C191.379 47.0368 192.106 48.0631 192.106 49.2626C192.106 51.3153 190.523 52.5581 188.04 52.5581C187.141 52.5581 185.901 52.3448 185.175 52.0882C185.434 50.2457 186.804 47.0368 189.84 47.0368ZM153.818 47.0368C155.487 47.0368 156.084 48.0631 156.084 49.2626C156.084 51.3153 154.501 52.5581 152.019 52.5581C151.119 52.5581 149.88 52.3448 149.153 52.0882C149.413 50.2457 150.609 47.0368 153.818 47.0368Z" fill="#E60019"/>
<path d="M107.443 42.1158C109.156 42.1158 110.822 40.703 111.078 38.9068C111.422 37.1942 110.265 35.7412 108.556 35.7412C106.843 35.7412 105.177 37.154 104.92 38.9068C104.534 40.6628 105.647 42.1158 107.443 42.1158Z" fill="#E60019"/>
</svg>
