<svg width="90" height="90" viewBox="0 0 90 90" fill="none" xmlns="http://www.w3.org/2000/svg">
<path d="M78.1549 35.2078C78.1549 50.7739 68.1113 61.4201 53.7502 61.4201C46.9231 61.4201 41.2964 58.6068 39.1899 55.0912L39.2895 58.7064V81H24.6295V23.3565C24.6295 22.5547 24.4302 22.3508 23.5241 22.3508H18.5V10.1009H30.7544C36.3765 10.1009 37.7855 14.9211 38.1841 17.0322C40.3949 13.3174 46.2163 9 54.4524 9C68.6141 8.99547 78.1549 19.5375 78.1549 35.2078ZM63.1914 35.3074C63.1914 26.9717 57.7686 21.2499 50.9369 21.2499C45.3148 21.2499 38.986 24.9648 38.986 35.4116C38.986 42.2388 42.8005 49.3695 50.7376 49.3695C56.5635 49.3649 63.1914 45.1472 63.1914 35.3074Z" fill="#017737"/>
</svg>
