<svg
   xmlns:dc="http://purl.org/dc/elements/1.1/"
   xmlns:cc="http://creativecommons.org/ns#"
   xmlns:rdf="http://www.w3.org/1999/02/22-rdf-syntax-ns#"
   xmlns:svg="http://www.w3.org/2000/svg"
   xmlns="http://www.w3.org/2000/svg"
   xmlns:sodipodi="http://sodipodi.sourceforge.net/DTD/sodipodi-0.dtd"
   xmlns:inkscape="http://www.inkscape.org/namespaces/inkscape"
   version="1.1"
   id="svg2"
   xml:space="preserve"
   width="512"
   height="77.17382"
   viewBox="0 0 512 77.17382"
   sodipodi:docname="Positivo wordmark.svg"
   inkscape:version="0.92.3 (2405546, 2018-03-11)"><title
     id="title1066">Positivo</title><defs
     id="defs6"><clipPath
       clipPathUnits="userSpaceOnUse"
       id="clipPath24"><path
         d="m 34.016,255.688 h 96.841 v 33.446 H 34.016 Z"
         id="path22"
         inkscape:connector-curvature="0" /></clipPath><clipPath
       clipPathUnits="userSpaceOnUse"
       id="clipPath36"><path
         d="m 130.729,188.846 h 32.263 v 100.288 h -32.263 z"
         id="path34"
         inkscape:connector-curvature="0" /></clipPath><clipPath
       clipPathUnits="userSpaceOnUse"
       id="clipPath48"><path
         d="m 34.016,222.299 h 96.841 v 33.517 H 34.016 Z"
         id="path46"
         inkscape:connector-curvature="0" /></clipPath><clipPath
       clipPathUnits="userSpaceOnUse"
       id="clipPath60"><path
         d="m 34.016,188.846 h 96.841 v 33.581 H 34.016 Z"
         id="path58"
         inkscape:connector-curvature="0" /></clipPath><clipPath
       clipPathUnits="userSpaceOnUse"
       id="clipPath72"><path
         d="m 34.016,155.458 h 96.841 v 33.516 H 34.016 Z"
         id="path70"
         inkscape:connector-curvature="0" /></clipPath><clipPath
       clipPathUnits="userSpaceOnUse"
       id="clipPath84"><path
         d="m 130.729,88.616 h 32.263 v 100.358 h -32.263 z"
         id="path82"
         inkscape:connector-curvature="0" /></clipPath><clipPath
       clipPathUnits="userSpaceOnUse"
       id="clipPath96"><path
         d="m 34.016,122.005 h 96.841 v 33.581 H 34.016 Z"
         id="path94"
         inkscape:connector-curvature="0" /></clipPath><clipPath
       clipPathUnits="userSpaceOnUse"
       id="clipPath108"><path
         d="m 34.016,88.616 h 96.841 v 33.517 H 34.016 Z"
         id="path106"
         inkscape:connector-curvature="0" /></clipPath><clipPath
       clipPathUnits="userSpaceOnUse"
       id="clipPath120"><path
         d="m 34.016,55.275 h 96.841 V 88.744 H 34.016 Z"
         id="path118"
         inkscape:connector-curvature="0" /></clipPath><clipPath
       clipPathUnits="userSpaceOnUse"
       id="clipPath132"><path
         d="m 130.729,55.275 h 32.263 v 33.469 h -32.263 z"
         id="path130"
         inkscape:connector-curvature="0" /></clipPath><clipPath
       clipPathUnits="userSpaceOnUse"
       id="clipPath144"><path
         d="M 0,0 H 198.425 V 340.158 H 0 Z"
         id="path142"
         inkscape:connector-curvature="0" /></clipPath></defs><sodipodi:namedview
     pagecolor="#ffffff"
     bordercolor="#666666"
     borderopacity="1"
     objecttolerance="10"
     gridtolerance="10"
     guidetolerance="10"
     inkscape:pageopacity="0"
     inkscape:pageshadow="2"
     inkscape:window-width="1280"
     inkscape:window-height="970"
     id="namedview4"
     showgrid="false"
     fit-margin-top="0"
     fit-margin-left="0"
     fit-margin-right="0"
     fit-margin-bottom="0"
     inkscape:zoom="0.73588314"
     inkscape:cx="323.3572"
     inkscape:cy="-40.700236"
     inkscape:window-x="0"
     inkscape:window-y="28"
     inkscape:window-maximized="1"
     inkscape:current-layer="g10" /><g
     id="g10"
     inkscape:groupmode="layer"
     inkscape:label="S550_manual_Positivo_digital_v2_1"
     transform="matrix(1.3333333,0,0,-1.3333333,114.29492,234.87079)"><path
       style="fill:#706f6f;fill-opacity:1;fill-rule:nonzero;stroke:none;stroke-width:9.86833858"
       d="m -4.0644531,218.67188 c -29.4273859,0 -35.0624999,8.59503 -35.0624999,38.68359 0,29.8912 5.635114,38.48633 35.0624999,38.48633 29.5457991,0 34.9238281,-8.59513 34.9238281,-38.48633 0,-30.08856 -5.378029,-38.68359 -34.9238281,-38.68359 z m 366.8164031,0 c -29.41752,0 -35.05273,8.59503 -35.05273,38.68359 0,29.8912 5.63521,38.48633 35.05273,38.48633 29.55567,0 34.95313,-8.59513 34.95313,-38.48633 0,-30.08856 -5.39746,-38.68359 -34.95313,-38.68359 z m -290.249997,0.004 c -24.808999,0 -34.490234,7.40104 -34.490234,23.47656 0,13.63806 3.394247,17.73421 18.808593,22.06641 l 15.445313,3.83789 c 4.647987,1.11513 5.625,2.44668 5.625,5.31836 0,4.06576 -3.740449,5.04297 -17.417969,5.04297 -11.457146,0 -20.941406,-0.65039 -20.941406,-0.65039 l -0.107422,16.86523 c 0,0 13.557879,1.21289 26.011719,1.21289 23.930719,0 35.181643,-5.29837 35.181643,-23.35742 0,-12.04924 -1.915936,-18.31716 -17.310549,-22.18555 l -15.769532,-3.53125 c -5.161146,-1.07565 -6.759765,-2.29093 -6.759765,-5.48828 0,-4.18417 2.911078,-4.95312 14.269531,-4.95312 10.134786,0 20.378906,0.5332 20.378906,0.5332 l 0.216797,-16.99414 c 0,0 -11.584798,-1.19336 -23.140625,-1.19336 z m 175.728517,1.0957 20.8418,74.95899 h 34.92382 l 20.73438,-74.95899 h -24.68164 l -13.50977,61.73633 -13.63672,-61.73633 z m -105.81445,0.0195 v 16.8457 h 20.16992 v 58.09375 h 24.3457 v -58.09375 h 20.07227 v -16.8457 z m -33.09766,0.004 v 74.93946 h 24.48437 v -74.93946 z m 106.30273,0 v 74.93946 h 24.46289 v -74.93946 z m -329.91601,0.0137 v 74.92188 h 24.453123 v -23.17188 h 7.5 c 28.677398,0 36.058594,-4.50994 36.058594,-25.13476 0,-22.56889 -6.749843,-26.61524 -37.914063,-26.61524 z M -4.0644531,235.883 c 10.2334664,0 10.7871093,1.31165 10.7871093,21.47266 0,20.06233 -0.5536429,21.39453 -10.7871093,21.39453 -10.2729459,0 -10.6972659,-1.3322 -10.6972659,-21.39453 0,-20.16101 0.42432,-21.47266 10.6972659,-21.47266 z m 366.8164031,0 c 10.2532,0 10.81446,1.31165 10.81446,21.47266 0,20.06233 -0.56126,21.39453 -10.81446,21.39453 -10.21373,0 -10.6875,-1.3322 -10.6875,-21.39453 0,-20.16101 0.47377,-21.47266 10.6875,-21.47266 z m -452.593747,0.002 h 8.072266 c 10.568994,0 11.101562,0.11809 11.101562,10.53906 0,8.96044 -0.532568,9.94726 -11.101562,9.94726 -3.118396,0 -5.980178,10e-4 -8.072266,-0.11718 z"
       transform="matrix(0.75000002,0,0,-0.75000002,0,340.15701)"
       id="path164"
       inkscape:connector-curvature="0" /></g></svg>
