<svg width="90" height="90" viewBox="0 0 90 90" fill="none" xmlns="http://www.w3.org/2000/svg">
<rect x="5" y="5" width="80" height="80" rx="8" fill="#1A98FF"/>
<path d="M39.8716 18.4027C39.273 18.4027 38.7885 18.2317 38.4322 17.9039C38.0759 17.5761 37.8906 17.1201 37.8906 16.55C37.8906 15.9799 38.0759 15.5381 38.4322 15.1961C38.7885 14.8683 39.273 14.6973 39.8716 14.6973C40.4702 14.6973 40.9548 14.8683 41.3111 15.1961C41.6674 15.5239 41.8526 15.9799 41.8526 16.55C41.8526 17.1201 41.6674 17.5619 41.3111 17.9039C40.9548 18.2317 40.4702 18.4027 39.8716 18.4027Z" fill="#000008"/>
<path d="M38.7315 32.3552C38.532 32.3552 38.3752 32.3124 38.2897 32.2127C38.1899 32.1129 38.1472 31.9704 38.1472 31.7709V20.8683C38.1472 20.6402 38.1899 20.4977 38.2897 20.4122C38.3894 20.3267 38.532 20.284 38.7315 20.284H40.9975C41.2113 20.284 41.3681 20.3267 41.4536 20.4122C41.5391 20.4977 41.5818 20.6545 41.5818 20.8683V31.7709C41.5818 31.9704 41.5391 32.1272 41.4536 32.2127C41.3681 32.3124 41.2113 32.3552 40.9975 32.3552H38.7315Z" fill="#000008"/>
<path fill-rule="evenodd" clip-rule="evenodd" d="M14.83 37.1012C14.9155 37.1867 15.0723 37.2295 15.2718 37.2295H17.5521C17.7659 37.2295 17.9227 37.1867 18.0082 37.1012C18.0937 37.0157 18.1364 36.8589 18.1364 36.6451V31.4717C18.5497 31.8423 19.0485 32.1273 19.6329 32.3269C20.2029 32.5406 20.83 32.6404 21.4714 32.6404C22.4547 32.6404 23.3241 32.3696 24.0794 31.8423C24.8348 31.3007 25.4334 30.5596 25.8752 29.5763C26.3027 28.5929 26.5307 27.4528 26.5307 26.1416C26.5307 24.2319 26.0889 22.7212 25.1911 21.5953C24.2932 20.4694 23.0818 19.9136 21.5569 19.9136C20.8585 19.9136 20.1744 20.0418 19.5046 20.3126C18.8348 20.5692 18.2647 20.9397 17.7944 21.3958L17.6234 20.7829C17.5521 20.4409 17.3241 20.2699 16.9678 20.2699H15.2718C15.0723 20.2699 14.9298 20.3126 14.83 20.3981C14.7303 20.4836 14.6875 20.6262 14.6875 20.8542V36.6451C14.6875 36.8589 14.7303 37.0157 14.83 37.1012ZM22.412 29.1202C21.9987 29.7188 21.3431 30.0181 20.4595 30.0181C19.6044 30.0181 18.8348 29.8043 18.1364 29.391V23.163C18.8633 22.7354 19.6329 22.5216 20.4595 22.5216C21.3573 22.5216 22.0129 22.8209 22.4262 23.4195C22.8395 24.0181 23.0391 24.9729 23.0391 26.2841C23.0391 27.581 22.8253 28.5216 22.412 29.1202Z" fill="#000008"/>
<path d="M28.9706 32.2132C29.0562 32.313 29.2129 32.3558 29.4124 32.3558L31.6927 32.3272C31.9065 32.3272 32.0633 32.2845 32.1488 32.1847C32.2343 32.0992 32.2771 31.9424 32.2771 31.7429V23.7904C32.6334 23.6337 33.0894 23.5054 33.6025 23.4057C34.1298 23.3059 34.5716 23.2489 34.9279 23.2489C35.1844 23.2489 35.4125 23.2631 35.5835 23.2774L35.669 23.2846C35.8026 23.2961 35.9166 23.3059 36.011 23.3059C36.2248 23.3059 36.3816 23.2631 36.4671 23.1634C36.5526 23.0779 36.5954 22.9211 36.5954 22.7216V20.7406C36.5954 20.5268 36.5526 20.37 36.4528 20.2845C36.3673 20.199 36.1963 20.1562 35.9825 20.1562H35.6547C35.0277 20.1562 34.4291 20.2988 33.8733 20.5981C33.3174 20.8973 32.7189 21.3819 32.0918 22.0802L31.7782 20.7976C31.707 20.4555 31.479 20.2845 31.1227 20.2845H29.4124C29.2129 20.2845 29.0704 20.3273 28.9706 20.4128C28.8709 20.4983 28.8281 20.6408 28.8281 20.8688V31.7714C28.8281 31.971 28.8709 32.1135 28.9706 32.2132Z" fill="#000008"/>
<path d="M44.5956 32.2167C44.6812 32.3164 44.8379 32.3592 45.0374 32.3592L47.3462 32.3734C47.56 32.3734 47.7168 32.3307 47.8023 32.2309C47.8878 32.1454 47.9306 31.9886 47.9306 31.7891V23.2238C48.7857 22.7962 49.655 22.5825 50.5386 22.5825C51.4935 22.5825 51.9781 23.124 51.9781 24.1929V31.7891C51.9781 31.9886 52.0208 32.1311 52.1206 32.2309C52.2061 32.3307 52.3629 32.3734 52.5624 32.3734H54.8284C55.0422 32.3734 55.199 32.3307 55.2845 32.2309C55.37 32.1454 55.4128 31.9886 55.4128 31.7891V23.1953C56.2821 22.782 57.1372 22.5825 57.9923 22.5825C58.9472 22.5825 59.4318 23.124 59.4318 24.1929V31.7891C59.4318 31.9886 59.4888 32.1311 59.5743 32.2309C59.6598 32.3307 59.8166 32.3734 60.0161 32.3734H62.2821C62.4959 32.3734 62.6527 32.3307 62.7382 32.2309C62.8237 32.1454 62.8664 31.9886 62.8664 31.7891V23.4376C62.8664 22.3402 62.5672 21.4708 61.9543 20.858C61.3558 20.2452 60.4864 19.9316 59.389 19.9316C58.6337 19.9316 57.8926 20.0599 57.1942 20.2879C56.4959 20.516 55.7263 20.9008 54.9282 21.4423C54.3439 20.4305 53.3462 19.9316 51.9211 19.9316C51.2085 19.9316 50.5244 20.0457 49.8546 20.2737C49.1705 20.5017 48.4294 20.8865 47.5885 21.4423L47.4032 20.801C47.332 20.459 47.104 20.2879 46.7477 20.2879H45.0374C44.8379 20.2879 44.6954 20.3307 44.5956 20.4162C44.4959 20.5017 44.4531 20.6442 44.4531 20.8723V31.7748C44.4531 31.9744 44.4959 32.1169 44.5956 32.2167Z" fill="#000008"/>
<path fill-rule="evenodd" clip-rule="evenodd" d="M70.9931 32.7223C69.0692 32.7223 67.6012 32.2663 66.4183 31.0691C65.6487 30.2853 64.9219 28.8173 64.9219 26.3233C64.9219 24.2995 65.5632 22.7604 66.6036 21.6487C67.644 20.5228 69.2402 20.0098 70.7366 20.0098C72.6178 20.0098 73.7295 20.4373 74.5846 21.2924C74.7271 21.4349 75.5822 22.3185 75.5822 23.7437L75.5823 23.8019C75.5828 24.2695 75.5834 24.7698 75.2687 25.4539C75.0407 25.9385 74.6986 26.2378 74.5988 26.3233C73.2022 27.606 70.4658 27.5204 69.5395 27.4634L68.043 27.2354C68.1428 28.2758 68.4278 29.0881 69.0692 29.5442C69.6677 29.986 70.3233 30.157 71.663 30.157C72.3328 30.157 73.2307 30.0287 74.3851 29.7152C74.4023 29.7109 74.4261 29.7053 74.4521 29.6991C74.5119 29.685 74.5833 29.6681 74.6131 29.6582C74.6184 29.6582 74.6266 29.6577 74.637 29.6571C74.6824 29.6544 74.7688 29.6492 74.8269 29.6725C74.9551 29.7152 75.0977 29.8292 75.0977 30.1855V31.2687C75.0977 31.5252 75.0692 31.6962 74.9979 31.796C74.9266 31.8957 74.7841 31.9955 74.5846 32.081C73.3589 32.5086 72.2473 32.7223 70.9931 32.7223ZM72.4326 23.8577C72.4326 22.7033 71.6202 22.3756 70.6226 22.3756C69.967 22.3756 69.3257 22.6178 68.8839 23.0881C68.4563 23.5585 68.1998 24.2568 68.0858 25.1546C68.0858 25.1546 69.853 25.4824 71.1357 25.2687C71.8055 25.1546 72.4326 24.7841 72.4326 23.8577Z" fill="#000008"/>
<path fill-rule="evenodd" clip-rule="evenodd" d="M51.1641 54.8296C52.393 56.0733 53.918 56.5472 55.9169 56.5472C57.2199 56.5472 58.3896 56.3251 59.6481 55.8809C59.8554 55.792 60.0035 55.6884 60.0775 55.5847C60.1516 55.4811 60.1812 55.3034 60.1812 55.0369V53.9116C60.1812 53.5415 60.0331 53.423 59.8999 53.3786C59.8396 53.3545 59.7498 53.3598 59.7026 53.3626C59.6919 53.3633 59.6832 53.3638 59.6778 53.3638C59.6468 53.3741 59.5726 53.3916 59.5104 53.4063C59.4835 53.4127 59.4588 53.4185 59.4409 53.423C58.2415 53.7487 57.3087 53.882 56.6128 53.882C55.221 53.882 54.5399 53.7043 53.918 53.2453C53.2518 52.7715 52.9556 51.9276 52.852 50.8467L54.4067 51.0836C55.3691 51.1428 58.2119 51.2317 59.663 49.8991C59.7666 49.8102 60.1219 49.4993 60.3588 48.9959C60.6858 48.2851 60.6852 47.7654 60.6846 47.2795L60.6846 47.2191C60.6846 45.7385 59.7962 44.8205 59.6481 44.6724C58.7598 43.784 57.6049 43.3398 55.6504 43.3398C54.0957 43.3398 52.4374 43.8729 51.3565 45.0426C50.2757 46.1975 49.6094 47.7966 49.6094 49.8991C49.6094 52.4902 50.3645 54.0153 51.1641 54.8296ZM55.532 45.7977C56.5684 45.7977 57.4124 46.1383 57.4124 47.3376C57.4124 48.3 56.7609 48.685 56.065 48.8034C54.7324 49.0255 52.8964 48.685 52.8964 48.685C53.0149 47.7522 53.2814 47.0266 53.7256 46.538C54.1846 46.0494 54.8509 45.7977 55.532 45.7977Z" fill="#000008"/>
<path d="M20.1634 56.1574C20.0005 56.1574 19.8672 56.1426 19.7636 56.0982C19.6599 56.0537 19.5711 55.9945 19.4971 55.9057C19.423 55.8168 19.349 55.6836 19.2898 55.5207L15.0848 44.5788C15.0603 44.5055 15.0359 44.4366 15.0139 44.3747C14.9959 44.3241 14.9796 44.2782 14.9663 44.2382C14.9367 44.1346 14.9219 44.0458 14.9219 43.9717C14.9219 43.72 15.0848 43.6016 15.4105 43.6016H17.8684C18.1349 43.6016 18.3274 43.646 18.4458 43.7496C18.5643 43.8533 18.6679 44.0161 18.7271 44.2382L21.259 52.9444L23.8354 44.2382C23.8946 44.0013 23.9982 43.8385 24.1167 43.7496C24.2351 43.6608 24.4276 43.6016 24.6941 43.6016H27.078C27.4037 43.6016 27.5666 43.72 27.5666 43.9717C27.5666 44.0606 27.5518 44.1494 27.5222 44.2382C27.5051 44.2979 27.4831 44.3576 27.4591 44.423C27.4414 44.4711 27.4225 44.5223 27.4037 44.5788L23.1987 55.5207C23.1395 55.6836 23.0654 55.8168 22.9914 55.9057C22.9174 55.9945 22.8285 56.0686 22.7397 56.0982C22.6508 56.1278 22.5028 56.1574 22.3251 56.1574H20.1634Z" fill="#000008"/>
<path d="M29.3908 41.1439C29.7609 41.4845 30.2644 41.6622 30.8862 41.6622C31.5081 41.6622 31.9967 41.4845 32.3817 41.1439C32.7518 40.7886 32.9443 40.3296 32.9443 39.7373C32.9443 39.1451 32.7518 38.6713 32.3817 38.3307C32.0115 37.9902 31.5081 37.8125 30.8862 37.8125C30.2644 37.8125 29.7609 37.9902 29.3908 38.3307C29.0206 38.6861 28.8281 39.1451 28.8281 39.7373C28.8281 40.3296 29.0206 40.8034 29.3908 41.1439Z" fill="#000008"/>
<path d="M29.2279 56.0096C29.3315 56.1132 29.4944 56.1576 29.7017 56.1576H32.0559C32.278 56.1576 32.4409 56.1132 32.5297 56.0096C32.6186 55.9207 32.663 55.7579 32.663 55.5506V44.2237C32.663 44.0016 32.6186 43.8387 32.5297 43.7499C32.4409 43.661 32.278 43.6166 32.0559 43.6166H29.7017C29.4796 43.6166 29.3315 43.661 29.2279 43.7499C29.1243 43.8387 29.0798 43.9868 29.0798 44.2237V55.5506C29.0798 55.7579 29.1243 55.9059 29.2279 56.0096Z" fill="#000008"/>
<path fill-rule="evenodd" clip-rule="evenodd" d="M40.2119 56.4222C39.1458 56.4222 38.213 56.1409 37.4283 55.5931C36.6435 55.0453 36.0365 54.2753 35.6219 53.3129C35.2073 52.3357 35 51.2104 35 49.937C35 47.9086 35.4886 46.2799 36.451 45.0657C37.4135 43.8516 38.7016 43.2297 40.2859 43.2297C41.5741 43.2297 42.6994 43.5999 43.647 44.3402V38.5953C43.647 38.3584 43.6914 38.2104 43.795 38.1215C43.8987 38.0327 44.0467 37.9883 44.2688 37.9883H46.6231C46.8452 37.9883 47.008 38.0327 47.0969 38.1215C47.1857 38.2104 47.2301 38.3732 47.2301 38.5953V55.5487C47.2301 55.756 47.1857 55.9188 47.0969 56.0077C47.008 56.1113 46.8452 56.1557 46.6231 56.1557H44.6538C44.4613 56.1557 44.3133 56.1113 44.1948 56.0373C44.0912 55.9484 44.0171 55.8152 43.9579 55.6227L43.8098 55.0601C42.8178 55.9632 41.6037 56.4222 40.2119 56.4222ZM41.3964 53.7275C42.1811 53.7275 42.9363 53.4906 43.6618 53.0464V46.5612C42.9511 46.1466 42.1515 45.9541 41.2335 45.9541C40.3599 45.9541 39.7233 46.2799 39.2939 46.9313C38.8645 47.5828 38.6572 48.5601 38.6572 49.863C38.6572 51.1808 38.8793 52.1432 39.3383 52.7947C39.7677 53.4017 40.4636 53.7275 41.3964 53.7275Z" fill="#000008"/>
<path fill-rule="evenodd" clip-rule="evenodd" d="M64.0654 54.7666C65.1611 55.9363 66.6861 56.5286 68.6406 56.5286C70.595 56.5286 72.1201 55.9363 73.2158 54.7666C74.3114 53.5969 74.8593 51.9682 74.8593 49.8657C74.8593 47.7928 74.3114 46.1641 73.2158 44.9944C72.1201 43.8247 70.595 43.2324 68.6406 43.2324C66.6861 43.2324 65.1611 43.8247 64.0654 44.9944C62.9697 46.1641 62.4219 47.778 62.4219 49.8657C62.4219 51.9682 62.9697 53.5969 64.0654 54.7666ZM71.2169 49.8657C71.2169 52.4716 70.3581 53.7746 68.6406 53.7746C66.923 53.7746 66.0643 52.4716 66.0643 49.8657C66.0643 47.2746 66.923 45.9864 68.6406 45.9864C70.3581 45.9864 71.2169 47.2746 71.2169 49.8657Z" fill="#000008"/>
<path d="M15 62.874V63.0621C15.0269 63.2233 15.1075 63.3846 15.2553 63.5323C23.2089 71.2709 33.7151 75.9195 45.3902 75.9195C53.72 75.9195 63.3933 73.0981 70.0571 67.7913C71.1588 66.9045 70.2183 65.5879 69.0898 66.1119C61.6064 69.5378 53.4782 71.1903 46.0889 71.1903C35.1258 71.1903 24.5121 67.9525 15.9405 62.565C15.7927 62.471 15.6449 62.4307 15.5105 62.4307C15.2418 62.4307 15.0403 62.6188 15 62.874Z" fill="#000008"/>
<path d="M64.2188 64.2714C64.2456 64.0968 64.3665 63.8818 64.6084 63.7071C66.5699 62.2293 69.1898 61.7322 71.3931 61.7188C73.4352 61.7188 75.0743 62.1487 75.4236 62.6189C76.1491 63.5997 75.2355 70.3306 71.6484 73.5416C71.0975 74.0387 70.5736 73.77 70.8154 73.1251C70.8385 73.0621 70.8625 72.9967 70.8873 72.9293C71.7116 70.6832 73.3967 66.0914 72.562 64.9566C71.7021 63.7878 66.9192 64.3923 64.7696 64.6745C64.4337 64.7148 64.2456 64.5804 64.2188 64.3789V64.2714Z" fill="#000008"/>
</svg>
