<svg width="300" height="100" viewBox="0 0 300 100" fill="none" xmlns="http://www.w3.org/2000/svg">
<path d="M91.6478 26.8405C90.7044 26.8405 89.9406 26.5709 89.379 26.0543C88.8174 25.5376 88.5254 24.8188 88.5254 23.9202C88.5254 23.0217 88.8174 22.3253 89.379 21.7862C89.9406 21.2696 90.7044 21 91.6478 21C92.5913 21 93.355 21.2696 93.9166 21.7862C94.4782 22.3029 94.7703 23.0217 94.7703 23.9202C94.7703 24.8188 94.4782 25.5152 93.9166 26.0543C93.355 26.5709 92.5913 26.8405 91.6478 26.8405Z" fill="#00061C"/>
<path d="M89.8507 48.8322C89.5362 48.8322 89.2892 48.7648 89.1544 48.6076C88.9971 48.4504 88.9297 48.2257 88.9297 47.9112V30.7267C88.9297 30.3673 88.9971 30.1426 89.1544 30.0078C89.3116 29.8731 89.5362 29.8057 89.8507 29.8057H93.4224C93.7594 29.8057 94.0065 29.8731 94.1413 30.0078C94.2761 30.1426 94.3434 30.3897 94.3434 30.7267V47.9112C94.3434 48.2257 94.2761 48.4728 94.1413 48.6076C94.0065 48.7648 93.7594 48.8322 93.4224 48.8322H89.8507Z" fill="#00061C"/>
<path fill-rule="evenodd" clip-rule="evenodd" d="M52.2246 56.3126C52.3594 56.4474 52.6065 56.5148 52.921 56.5148H56.5152C56.8521 56.5148 57.0992 56.4474 57.234 56.3126C57.3688 56.1778 57.4362 55.9307 57.4362 55.5938V47.4396C58.0876 48.0236 58.8738 48.4729 59.7948 48.7874C60.6934 49.1243 61.6818 49.2816 62.6926 49.2816C64.2426 49.2816 65.6129 48.8547 66.8035 48.0236C67.994 47.17 68.9375 46.0019 69.6339 44.4519C70.3078 42.9019 70.6672 41.1049 70.6672 39.0382C70.6672 36.0281 69.9708 33.647 68.5556 31.8724C67.1404 30.0978 65.231 29.2217 62.8274 29.2217C61.7267 29.2217 60.6485 29.4239 59.5927 29.8507C58.5369 30.255 57.6383 30.839 56.8971 31.5579L56.6275 30.592C56.5152 30.0528 56.1558 29.7833 55.5942 29.7833H52.921C52.6065 29.7833 52.3819 29.8507 52.2246 29.9854C52.0674 30.1202 52 30.3449 52 30.7043V55.5938C52 55.9307 52.0674 56.1778 52.2246 56.3126ZM64.1752 43.7331C63.5238 44.6765 62.4905 45.1483 61.0977 45.1483C59.7499 45.1483 58.5369 44.8113 57.4362 44.1599V34.3434C58.5818 33.6694 59.7948 33.3325 61.0977 33.3325C62.5129 33.3325 63.5463 33.8042 64.1977 34.7477C64.8491 35.6912 65.1636 37.1962 65.1636 39.2628C65.1636 41.307 64.8267 42.7896 64.1752 43.7331Z" fill="#00061C"/>
<path d="M74.4864 48.6076C74.6211 48.7649 74.8682 48.8322 75.1827 48.8322L78.7769 48.7873C79.1138 48.7873 79.3609 48.7199 79.4957 48.5627C79.6305 48.4279 79.6979 48.1808 79.6979 47.8663V35.3317C80.2595 35.0846 80.9783 34.8824 81.787 34.7252C82.6182 34.5679 83.3145 34.4781 83.8761 34.4781C84.2805 34.4781 84.6399 34.5006 84.9094 34.523L85.0442 34.5345C85.2546 34.5525 85.4345 34.5679 85.5833 34.5679C85.9203 34.5679 86.1674 34.5006 86.3022 34.3433C86.437 34.2085 86.5043 33.9614 86.5043 33.6469V30.5245C86.5043 30.1876 86.437 29.9405 86.2797 29.8057C86.1449 29.6709 85.8754 29.6035 85.5384 29.6035H85.0217C84.0334 29.6035 83.0899 29.8282 82.2138 30.2999C81.3377 30.7716 80.3943 31.5354 79.4059 32.6361L78.9117 30.6144C78.7994 30.0752 78.4399 29.8057 77.8783 29.8057H75.1827C74.8682 29.8057 74.6436 29.8731 74.4864 30.0079C74.3291 30.1426 74.2617 30.3673 74.2617 30.7267V47.9112C74.2617 48.2257 74.3291 48.4504 74.4864 48.6076Z" fill="#00061C"/>
<path d="M99.1504 48.6076C99.2852 48.7649 99.5323 48.8323 99.8468 48.8323L103.486 48.8547C103.823 48.8547 104.07 48.7873 104.205 48.6301C104.339 48.4953 104.407 48.2482 104.407 47.9337V34.4332C105.755 33.7593 107.125 33.4223 108.518 33.4223C110.023 33.4223 110.787 34.276 110.787 35.9607V47.9337C110.787 48.2482 110.854 48.4729 111.011 48.6301C111.146 48.7873 111.393 48.8547 111.708 48.8547H115.279C115.616 48.8547 115.863 48.7873 115.998 48.6301C116.133 48.4953 116.2 48.2482 116.2 47.9337V34.3883C117.571 33.7368 118.918 33.4223 120.266 33.4223C121.771 33.4223 122.535 34.276 122.535 35.9607V47.9337C122.535 48.2482 122.625 48.4729 122.76 48.6301C122.894 48.7873 123.141 48.8547 123.456 48.8547H127.028C127.365 48.8547 127.612 48.7873 127.746 48.6301C127.881 48.4953 127.949 48.2482 127.949 47.9337V34.7702C127.949 33.0405 127.477 31.6702 126.511 30.7043C125.568 29.7383 124.197 29.2441 122.468 29.2441C121.277 29.2441 120.109 29.4463 119.008 29.8057C117.907 30.1651 116.694 30.7717 115.436 31.6253C114.515 30.0304 112.943 29.2441 110.697 29.2441C109.573 29.2441 108.495 29.4238 107.439 29.7833C106.361 30.1427 105.193 30.7492 103.868 31.6253L103.576 30.6144C103.463 30.0753 103.104 29.8057 102.542 29.8057H99.8468C99.5323 29.8057 99.3077 29.8731 99.1504 30.0079C98.9932 30.1427 98.9258 30.3673 98.9258 30.7267V47.9113C98.9258 48.2258 98.9932 48.4504 99.1504 48.6076Z" fill="#00061C"/>
<path fill-rule="evenodd" clip-rule="evenodd" d="M140.753 49.4163C137.72 49.4163 135.407 48.6975 133.542 46.8106C132.329 45.5751 131.184 43.2613 131.184 39.3302C131.184 36.1404 132.194 33.7144 133.834 31.9622C135.474 30.1876 137.99 29.3789 140.349 29.3789C143.314 29.3789 145.066 30.0528 146.414 31.4006C146.638 31.6253 147.986 33.018 147.986 35.2643L147.986 35.356C147.987 36.0931 147.988 36.8816 147.492 37.9599C147.133 38.7237 146.594 39.1954 146.436 39.3302C144.235 41.3519 139.922 41.2172 138.462 41.1273L136.103 40.7679C136.26 42.4077 136.71 43.6881 137.72 44.407C138.664 45.1033 139.697 45.3729 141.809 45.3729C142.865 45.3729 144.28 45.1707 146.099 44.6765L146.139 44.6669L146.205 44.6512C146.299 44.6289 146.412 44.6023 146.459 44.5867C146.467 44.5867 146.48 44.5859 146.496 44.5849C146.568 44.5807 146.704 44.5725 146.796 44.6091C146.998 44.6765 147.223 44.8562 147.223 45.4178V47.125C147.223 47.5294 147.178 47.7989 147.065 47.9562C146.953 48.1134 146.728 48.2707 146.414 48.4055C144.482 49.0794 142.73 49.4163 140.753 49.4163ZM143.022 35.444C143.022 33.6245 141.741 33.1078 140.169 33.1078C139.136 33.1078 138.125 33.4897 137.428 34.231C136.755 34.9723 136.35 36.073 136.171 37.4882C136.171 37.4882 138.956 38.0049 140.978 37.6679C142.033 37.4882 143.022 36.9042 143.022 35.444Z" fill="#00061C"/>
<path fill-rule="evenodd" clip-rule="evenodd" d="M211.425 46.8106C213.29 48.6975 215.603 49.4163 218.636 49.4163C220.613 49.4163 222.387 49.0794 224.297 48.4055C224.611 48.2707 224.836 48.1134 224.948 47.9562C225.06 47.7989 225.105 47.5294 225.105 47.125V45.4178C225.105 44.8562 224.881 44.6765 224.679 44.6091C224.587 44.5725 224.451 44.5807 224.379 44.5849C224.363 44.5859 224.35 44.5867 224.342 44.5867C224.295 44.6023 224.182 44.6289 224.088 44.6511C224.047 44.6608 224.009 44.6697 223.982 44.6765C222.163 45.1707 220.747 45.3729 219.692 45.3729C217.58 45.3729 216.547 45.1033 215.603 44.407C214.592 43.6881 214.143 42.4077 213.986 40.7679L216.345 41.1273C217.805 41.2172 222.118 41.3519 224.319 39.3302C224.476 39.1954 225.016 38.7237 225.375 37.9599C225.871 36.8816 225.87 36.0931 225.869 35.3559L225.869 35.2643C225.869 33.018 224.521 31.6253 224.297 31.4006C222.949 30.0528 221.197 29.3789 218.232 29.3789C215.873 29.3789 213.357 30.1876 211.717 31.9622C210.077 33.7144 209.066 36.1404 209.066 39.3302C209.066 43.2613 210.212 45.5751 211.425 46.8106ZM218.052 33.1078C219.624 33.1078 220.905 33.6245 220.905 35.444C220.905 36.9042 219.916 37.4882 218.861 37.6679C216.839 38.0049 214.053 37.4882 214.053 37.4882C214.233 36.073 214.637 34.9723 215.311 34.231C216.008 33.4897 217.018 33.1078 218.052 33.1078Z" fill="#00061C"/>
<path d="M164.362 48.8322C164.115 48.8322 163.913 48.8098 163.756 48.7424C163.598 48.675 163.464 48.5851 163.351 48.4503C163.239 48.3156 163.127 48.1134 163.037 47.8663L156.657 31.2658C156.62 31.1547 156.583 31.0503 156.55 30.9565C156.523 30.8798 156.498 30.8097 156.478 30.7491C156.433 30.5919 156.41 30.4571 156.41 30.3448C156.41 29.9629 156.657 29.7832 157.151 29.7832H160.88C161.285 29.7832 161.577 29.8506 161.756 30.0078C161.936 30.1651 162.093 30.4122 162.183 30.7491L166.025 43.9576L169.933 30.7491C170.023 30.3897 170.18 30.1426 170.36 30.0078C170.54 29.8731 170.832 29.7832 171.236 29.7832H174.853C175.347 29.7832 175.594 29.9629 175.594 30.3448C175.594 30.4796 175.572 30.6144 175.527 30.7491C175.501 30.8397 175.467 30.9303 175.431 31.0294C175.404 31.1024 175.375 31.1801 175.347 31.2658L168.967 47.8663C168.877 48.1134 168.765 48.3156 168.653 48.4503C168.54 48.5851 168.406 48.6974 168.271 48.7424C168.136 48.7873 167.911 48.8322 167.642 48.8322H164.362Z" fill="#00061C"/>
<path d="M178.379 26.0543C178.941 26.5709 179.704 26.8405 180.648 26.8405C181.591 26.8405 182.333 26.5709 182.917 26.0543C183.478 25.5152 183.77 24.8188 183.77 23.9202C183.77 23.0217 183.478 22.3029 182.917 21.7862C182.355 21.2696 181.591 21 180.648 21C179.704 21 178.941 21.2696 178.379 21.7862C177.817 22.3253 177.525 23.0217 177.525 23.9202C177.525 24.8188 177.817 25.5376 178.379 26.0543Z" fill="#00061C"/>
<path d="M178.132 48.6076C178.289 48.7648 178.536 48.8322 178.851 48.8322H182.422C182.759 48.8322 183.006 48.7648 183.141 48.6076C183.276 48.4728 183.343 48.2257 183.343 47.9112V30.7267C183.343 30.3897 183.276 30.1426 183.141 30.0078C183.006 29.8731 182.759 29.8057 182.422 29.8057H178.851C178.514 29.8057 178.289 29.8731 178.132 30.0078C177.975 30.1426 177.907 30.3673 177.907 30.7267V47.9112C177.907 48.2257 177.975 48.4504 178.132 48.6076Z" fill="#00061C"/>
<path fill-rule="evenodd" clip-rule="evenodd" d="M194.755 49.2365C193.137 49.2365 191.722 48.8097 190.532 47.9786C189.341 47.1474 188.42 45.9793 187.791 44.5192C187.162 43.0366 186.848 41.3294 186.848 39.3975C186.848 36.3201 187.589 33.8491 189.049 32.0071C190.509 30.1651 192.464 29.2216 194.867 29.2216C196.821 29.2216 198.529 29.7832 199.966 30.9064V22.1905C199.966 21.8311 200.034 21.6065 200.191 21.4717C200.348 21.3369 200.573 21.2695 200.91 21.2695H204.482C204.818 21.2695 205.066 21.3369 205.2 21.4717C205.335 21.6065 205.403 21.8536 205.403 22.1905V47.9112C205.403 48.2257 205.335 48.4728 205.2 48.6076C205.066 48.7648 204.818 48.8322 204.482 48.8322H201.494C201.202 48.8322 200.977 48.7648 200.798 48.6525C200.64 48.5177 200.528 48.3155 200.438 48.0235L200.213 47.1699C198.708 48.5402 196.866 49.2365 194.755 49.2365ZM196.552 45.1482C197.742 45.1482 198.888 44.7888 199.989 44.1149V34.2759C198.911 33.6469 197.698 33.3549 196.305 33.3549C194.979 33.3549 194.014 33.8491 193.362 34.8375C192.711 35.8259 192.396 37.3084 192.396 39.2852C192.396 41.2845 192.733 42.7446 193.429 43.733C194.081 44.654 195.137 45.1482 196.552 45.1482Z" fill="#00061C"/>
<path fill-rule="evenodd" clip-rule="evenodd" d="M230.921 46.7207C232.583 48.4953 234.897 49.3939 237.862 49.3939C240.828 49.3939 243.141 48.4953 244.804 46.7207C246.466 44.9461 247.297 42.4751 247.297 39.2853C247.297 36.1404 246.466 33.6694 244.804 31.8948C243.141 30.1202 240.828 29.2217 237.862 29.2217C234.897 29.2217 232.583 30.1202 230.921 31.8948C229.259 33.6694 228.428 36.118 228.428 39.2853C228.428 42.4751 229.259 44.9461 230.921 46.7207ZM241.771 39.2853C241.771 43.2389 240.468 45.2157 237.862 45.2157C235.257 45.2157 233.954 43.2389 233.954 39.2853C233.954 35.3542 235.257 33.3999 237.862 33.3999C240.468 33.3999 241.771 35.3542 241.771 39.2853Z" fill="#00061C"/>
<path d="M99.375 59.1881V59.5026C99.4199 59.7721 99.5547 60.0417 99.8018 60.2888C113.1 73.2277 130.667 81.0001 150.188 81.0001C164.115 81.0001 180.289 76.2828 191.431 67.4097C193.273 65.9271 191.7 63.7257 189.813 64.6018C177.301 70.3299 163.711 73.093 151.356 73.093C133.025 73.093 115.279 67.6793 100.947 58.6714C100.7 58.5142 100.453 58.4468 100.229 58.4468C99.7793 58.4468 99.4424 58.7613 99.375 59.1881Z" fill="#00061C"/>
<path d="M181.615 61.5244C181.66 61.2324 181.862 60.873 182.267 60.5809C185.546 58.11 189.927 57.2788 193.611 57.2563C197.025 57.2563 199.766 57.9752 200.35 58.7614C201.563 60.4012 200.035 71.6554 194.038 77.0242C193.117 77.8553 192.24 77.4061 192.645 76.3278C192.683 76.2224 192.724 76.1131 192.765 76.0003C194.143 72.2449 196.961 64.5674 195.565 62.67C194.127 60.7157 186.13 61.7266 182.536 62.1983C181.975 62.2657 181.66 62.0411 181.615 61.7041V61.5244Z" fill="#00061C"/>
</svg>
