<svg width="300" height="100" viewBox="0 0 300 100" fill="none" xmlns="http://www.w3.org/2000/svg">
<g clip-path="url(#clip0_942_16398)">
<path d="M82.3491 37.5508C71.0687 37.5508 63.8533 45.1728 63.8533 56.1992C63.8533 67.3272 71.0687 75 82.3491 75C93.6804 75 100.896 67.378 100.896 56.1992C100.947 45.2236 93.7312 37.5508 82.3491 37.5508ZM292.866 62.8557C290.885 70.3252 285.041 74.8475 277.114 74.8475C266.596 74.8475 260.244 67.124 260.244 56.7581C260.244 45.9858 267.104 38.2622 277.267 38.2622C287.429 38.2622 293.171 46.0366 293.171 56.5549V57.7236H266.291V58.0284C266.698 65.0914 270.915 69.9187 277.013 69.9187C280.925 69.9187 284.838 67.8862 286.565 62.8557H292.866ZM196.119 62.8557C194.137 70.3252 188.294 74.8475 180.367 74.8475C169.849 74.8475 163.497 67.124 163.497 56.7581C163.497 45.9858 170.357 38.2622 180.519 38.2622C190.682 38.2622 196.424 46.0366 196.424 56.5549V57.7236H169.544V58.0284C169.95 65.0914 174.168 69.9187 180.265 69.9187C184.178 69.9187 188.09 67.8862 189.818 62.8557C189.716 62.8557 196.119 62.8557 196.119 62.8557ZM138.141 61.128C137.227 69.0549 131.485 74.8475 122.034 74.8475C111.516 74.8475 105.012 67.0732 105.012 56.5549C105.012 46.0366 111.516 38.2622 122.034 38.2622C131.079 38.2622 136.77 43.75 137.938 51.1687H132.044C131.079 46.5955 127.928 43.1911 122.034 43.1911C114.818 43.1911 110.601 48.8821 110.601 56.5549C110.601 64.2784 114.818 69.9187 122.034 69.9187C128.284 69.9187 131.587 66.1585 132.4 61.0772C132.4 61.128 138.141 61.128 138.141 61.128ZM246.068 27.8455V39.0752H258.873V43.9533H246.068V62.5C246.068 67.0732 248.507 69.5122 253.131 69.5122C254.503 69.5122 256.078 69.3089 257.805 68.75V73.8313C256.434 74.2886 254.858 74.5427 253.131 74.5427C245.306 74.5427 240.326 69.9187 240.326 62.5V43.9533H232.958V39.0752H233.009C238.547 39.0752 240.275 37.5508 240.275 32.622V27.8455C240.326 27.8455 246.068 27.8455 246.068 27.8455ZM49.829 38.4654V47.4593C51.8615 41.565 56.0789 38.8719 62.3797 38.2622V48.1707C53.1318 47.9167 49.829 52.0325 49.829 60.6707V74.0345H39.9713V38.4654H49.829ZM149.32 39.0244V47.561C151.759 42.0224 156.434 39.4309 162.582 38.872V45.1219C153.741 45.0711 149.32 49.3902 149.32 58.9939V74.0345H143.578V39.0244H149.32ZM19.3922 25C29.7579 25 36.4652 31.4532 36.4652 40.2947C36.4652 49.1362 29.7579 55.7927 19.3922 55.7927H8.97555V74.0854H-2V25.0508H19.3922V25ZM82.3491 67.0732C76.7597 67.0732 73.5077 62.5 73.5077 56.1992C73.5077 50.0508 76.7089 45.4776 82.3491 45.4776C88.0401 45.4776 91.2413 50.0508 91.2413 56.1992C91.2413 62.5 88.0401 67.0732 82.3491 67.0732ZM287.328 53.4045C287.175 47.5102 283.568 43.1911 277.165 43.1911C271.118 43.1911 267.409 47.1037 266.393 53.4045H287.328ZM190.58 53.4045C190.428 47.5102 186.82 43.1911 180.418 43.1911C174.371 43.1911 170.662 47.1037 169.645 53.4045H190.58ZM17.7153 47.5102C22.7458 47.5102 25.6929 44.2073 25.6929 40.2947C25.6929 36.5345 22.7458 33.2825 17.7153 33.2825H9.02636V47.5102C8.97555 47.5102 17.7153 47.5102 17.7153 47.5102ZM302.876 33.7907C302.876 37.7541 299.828 40.6504 296.067 40.6504C292.358 40.6504 289.309 37.8049 289.309 33.8415C289.309 29.878 292.358 27.0325 296.118 27.0325C299.828 27.0325 302.876 29.878 302.876 33.7907ZM301.657 33.7907C301.657 30.5386 299.116 28.2012 296.118 28.2012C293.12 28.2012 290.529 30.5386 290.529 33.7907C290.529 37.0427 293.069 39.3801 296.067 39.3801C299.065 39.4309 301.657 37.0935 301.657 33.7907ZM294.594 37.2459H293.324V30.1321H296.931C298.303 30.1321 299.218 30.9451 299.218 32.063C299.218 33.0285 298.557 33.7907 297.592 34.0447L299.472 37.2459H297.998L296.423 34.1971H294.543L294.594 37.2459ZM296.931 31.25H294.594V33.0793H296.83C297.541 33.0793 298.049 32.6728 298.049 32.1138C298.049 31.6057 297.592 31.25 296.931 31.25Z" fill="#000008"/>
<path fill-rule="evenodd" clip-rule="evenodd" d="M224.625 51.2193V52.7437H219.747C205.672 52.7437 200.692 57.7238 200.692 64.3801C200.692 70.5283 205.265 74.3903 212.125 74.3903C218.527 74.3903 222.796 71.1381 224.473 68.4957H224.625V74.0345H230.214V51.1687C230.214 43.191 224.879 38.2114 216.343 38.2114C207.857 38.2114 202.471 42.7845 202.267 50.0507H208.009C208.263 45.7827 211.516 43.1403 216.343 43.1403C221.475 43.1403 224.625 46.2397 224.625 51.2193ZM213.395 69.8172C219.594 69.8172 224.625 65.3963 224.625 60.5691V57.2663H219.798C209.432 57.2663 206.332 60.3657 206.332 64.2784C206.332 67.7846 209.076 69.8172 213.395 69.8172Z" fill="#000008"/>
</g>
<defs>
<clipPath id="clip0_942_16398">
<rect width="300" height="100" fill="white"/>
</clipPath>
</defs>
</svg>
