<svg width="100" height="100" viewBox="0 0 100 100" fill="none" xmlns="http://www.w3.org/2000/svg">
<g clip-path="url(#clip0_1351_345)">
<path d="M99.79 49.948C99.79 77.4761 77.4739 99.7922 49.9458 99.7922C22.4177 99.7922 0.101562 77.4761 0.101562 49.948C0.101562 22.4199 22.4177 0.103761 49.9458 0.103761C77.4739 0.103761 99.79 22.4199 99.79 49.948Z" fill="#FF6154"/>
<path d="M56.5914 49.9478L42.4688 49.9482V34.9949H56.5914C60.7206 34.9949 64.068 38.3419 64.068 42.4711C64.068 46.6003 60.7206 49.9478 56.5914 49.9478ZM56.5914 25.0256H32.5V74.8699H42.4688V59.917H56.5914C66.2263 59.917 74.0369 52.106 74.0369 42.4711C74.0369 32.8362 66.2263 25.0256 56.5914 25.0256Z" fill="white"/>
</g>
<defs>
<clipPath id="clip0_1351_345">
<rect width="100" height="100" fill="white"/>
</clipPath>
</defs>
</svg>
