<svg width="427" height="100" viewBox="0 0 427 100" fill="none" xmlns="http://www.w3.org/2000/svg">
<g clip-path="url(#clip0_1351_356)">
<path d="M99.8955 50.0518C99.8955 77.5799 77.5794 99.896 50.0513 99.896C22.5231 99.896 0.207031 77.5799 0.207031 50.0518C0.207031 22.5236 22.5231 0.207521 50.0513 0.207521C77.5794 0.207521 99.8955 22.5236 99.8955 50.0518Z" fill="#FF6154"/>
<path d="M56.6968 50.0515L42.5743 50.0519V35.0987H56.6968C60.826 35.0987 64.1735 38.4457 64.1735 42.5749C64.1735 46.7041 60.826 50.0515 56.6968 50.0515ZM56.6968 25.1294H32.6055V74.9736H42.5743V60.0208H56.6968C66.3317 60.0208 74.1423 52.2098 74.1423 42.5749C74.1423 32.94 66.3317 25.1294 56.6968 25.1294Z" fill="white"/>
<path d="M152.26 43.9589C152.26 41.2175 150.152 39.5535 147.415 39.5535H140.075V48.3144H147.415C150.152 48.3144 152.26 46.6505 152.26 43.9589ZM133.125 66.6663V33.4368H148.391C155.488 33.4368 159.353 38.2326 159.353 43.9589C159.353 49.6353 155.44 54.4312 148.391 54.4312H140.075V66.6663H133.125Z" fill="black"/>
<path d="M163.582 66.6665V42.4405H169.794V45.6227C171.508 43.5666 174.397 41.8549 177.334 41.8549V47.9217C176.891 47.8241 176.353 47.7764 175.62 47.7764C173.564 47.7764 170.822 48.9498 169.794 50.4684V66.6665H163.582Z" fill="black"/>
<path d="M198.237 54.2358C198.237 50.5656 196.081 47.3838 192.168 47.3838C188.299 47.3838 186.147 50.5656 186.147 54.2358C186.147 57.9558 188.299 61.1355 192.168 61.1355C196.081 61.1355 198.237 57.9558 198.237 54.2358ZM179.688 54.2358C179.688 47.5313 184.386 41.8549 192.168 41.8549C199.998 41.8549 204.696 47.5313 204.696 54.2358C204.696 60.9402 199.998 66.6665 192.168 66.6665C184.386 66.6665 179.688 60.9402 179.688 54.2358Z" fill="black"/>
<path d="M225.608 58.4439V50.0758C224.58 48.5095 222.329 47.3838 220.272 47.3838C216.702 47.3838 214.255 50.1735 214.255 54.2358C214.255 58.3463 216.702 61.1355 220.272 61.1355C222.329 61.1355 224.58 60.0098 225.608 58.4439ZM225.608 66.6665V63.0445C223.747 65.3934 221.205 66.6665 218.316 66.6665C212.395 66.6665 207.844 62.1639 207.844 54.2358C207.844 46.5531 212.299 41.8549 218.316 41.8549C221.105 41.8549 223.747 43.0287 225.608 45.4752V33.437H231.872V66.6665H225.608Z" fill="black"/>
<path d="M254.01 66.6665V63.0939C252.396 64.8555 249.559 66.6665 245.693 66.6665C240.506 66.6665 238.059 63.8275 238.059 59.2268V42.4405H244.271V56.7803C244.271 60.0596 245.985 61.1355 248.626 61.1355C251.025 61.1355 252.934 59.8146 254.01 58.4439V42.4405H260.226V66.6665H254.01Z" fill="black"/>
<path d="M264.891 54.2358C264.891 46.9934 270.175 41.8549 277.419 41.8549C282.265 41.8549 285.201 43.9587 286.767 46.1128L282.703 49.928C281.579 48.2644 279.865 47.3838 277.714 47.3838C273.944 47.3838 271.302 50.1253 271.302 54.2358C271.302 58.3463 273.944 61.1355 277.714 61.1355C279.865 61.1355 281.579 60.1573 282.703 58.5415L286.767 62.3587C285.201 64.5128 282.265 66.6665 277.419 66.6665C270.175 66.6665 264.891 61.528 264.891 54.2358Z" fill="black"/>
<path d="M292.112 60.1573V47.874H288.199V42.4405H292.112V35.9811H298.329V42.4405H303.123V47.874H298.329V58.4937C298.329 60.0098 299.11 61.1355 300.48 61.1355C301.409 61.1355 302.294 60.7928 302.632 60.4023L303.955 65.1483C303.027 65.9811 301.361 66.6665 298.767 66.6665C294.411 66.6665 292.112 64.4152 292.112 60.1573Z" fill="black"/>
<path d="M342.933 66.6665V52.3271H327.516V66.6665H320.57V33.437H327.516V46.2582H342.933V33.437H349.931V66.6665H342.933Z" fill="black"/>
<path d="M372.17 66.6665V63.0939C370.556 64.8555 367.719 66.6665 363.854 66.6665C358.666 66.6665 356.219 63.8275 356.219 59.2268V42.4405H362.431V56.7803C362.431 60.0596 364.145 61.1355 366.787 61.1355C369.185 61.1355 371.094 59.8146 372.17 58.4439V42.4405H378.387V66.6665H372.17Z" fill="black"/>
<path d="M400.518 66.6665V51.7892C400.518 48.5095 398.808 47.3838 396.162 47.3838C393.716 47.3838 391.859 48.7546 390.779 50.1253V66.6665H384.566V42.4405H390.779V45.4752C392.297 43.7141 395.234 41.8549 399.052 41.8549C404.287 41.8549 406.782 44.7899 406.782 49.3901V66.6665H400.518Z" fill="black"/>
<path d="M414.191 60.1573V47.874H410.277V42.4405H414.191V35.9811H420.407V42.4405H425.201V47.874H420.407V58.4937C420.407 60.0098 421.188 61.1355 422.559 61.1355C423.487 61.1355 424.372 60.7928 424.714 60.4023L426.034 65.1483C425.105 65.9811 423.439 66.6665 420.845 66.6665C416.49 66.6665 414.191 64.4152 414.191 60.1573Z" fill="black"/>
</g>
<defs>
<clipPath id="clip0_1351_356">
<rect width="426.168" height="100" fill="white"/>
</clipPath>
</defs>
</svg>
