<svg width="300" height="100" viewBox="0 0 300 100" fill="none" xmlns="http://www.w3.org/2000/svg">
<path d="M94.1773 72.9203C97.2623 75.5297 102.054 77.2769 107.274 77.2769C112.495 77.2769 117.286 75.5297 120.372 72.9203C121.938 73.3884 123.942 74.1415 125.207 75.0757C126.289 75.8745 126.154 76.6892 125.959 77.0178C125.103 78.4631 111.268 77.9408 107.274 77.491C103.28 77.9408 89.4454 78.4631 88.5891 77.0178C88.3942 76.6892 88.2588 75.8745 89.3417 75.0757C90.6062 74.1415 92.6104 73.3884 94.1773 72.9203Z" fill="#FAAB07"/>
<path d="M104.746 30.4694C104.829 31.5065 104.26 32.4278 103.478 32.5282C102.693 32.629 101.992 31.8701 101.908 30.833C101.826 29.7951 102.394 28.8738 103.176 28.7739C103.961 28.6722 104.664 29.4324 104.746 30.4694Z" fill="#000008"/>
<path d="M109.726 30.816C109.886 30.529 110.977 29.02 113.236 29.5694C113.829 29.7139 114.104 29.9263 114.162 30.0096C114.247 30.1329 114.271 30.3087 114.184 30.5452C114.012 31.0142 113.658 31.0013 113.462 30.9097C113.453 30.9058 113.438 30.8975 113.418 30.886C113.127 30.7231 111.665 29.9054 110.312 31.3666C110.212 31.4736 110.034 31.5107 109.865 31.3832C109.696 31.2549 109.626 30.9959 109.726 30.816Z" fill="#000008"/>
<path fill-rule="evenodd" clip-rule="evenodd" d="M107.304 45.9901C115.925 45.9318 122.834 44.2629 125.175 43.6231C125.733 43.4703 126.031 43.1966 126.031 43.1966C126.033 43.1179 126.066 41.793 126.066 41.11C126.066 29.6005 120.634 18.0356 107.272 18.0352C93.9112 18.0356 88.4779 29.6009 88.4779 41.1096C88.4779 41.7934 88.5113 43.1179 88.5138 43.1962C88.5138 43.1962 88.7566 43.4524 89.201 43.5765C91.3626 44.1779 98.4014 45.9297 107.24 45.9901H107.304ZM102.518 35.0382C100.706 35.1203 99.157 33.0557 99.0596 30.4305C98.9613 27.8045 100.35 25.6091 102.162 25.5271C103.973 25.4458 105.521 27.5096 105.619 30.1356C105.719 32.762 104.33 34.9574 102.518 35.0382ZM115.485 30.4305C115.388 33.0553 113.839 35.1203 112.027 35.0382C110.215 34.957 108.826 32.762 108.926 30.136C109.024 27.51 110.572 25.4463 112.382 25.5271C114.195 25.6091 115.584 27.8045 115.485 30.4305Z" fill="#000008"/>
<path d="M128.727 49.9268C129.466 51.8527 130.196 53.8581 130.73 55.5779C133.278 63.7783 132.452 67.1723 131.824 67.2486C130.475 67.4114 126.573 61.0752 126.573 61.0752C126.573 67.5139 120.76 77.3999 107.449 77.4907H107.096C93.7841 77.3999 87.9711 67.5139 87.9711 61.0752C87.9711 61.0752 84.0697 67.4114 82.7207 67.2481C82.0922 67.1723 81.2663 63.7787 83.8148 55.5779C84.3492 53.8586 85.0785 51.8527 85.8174 49.9268C85.8174 49.9268 86.3155 49.8956 86.5679 49.9685C88.637 50.5657 90.841 51.0949 93.0793 51.5378C92.6983 53.8994 92.4805 56.822 92.6864 60.2739C93.2345 69.4547 98.6868 75.2262 107.103 75.3094H107.445C115.861 75.2262 121.313 69.4547 121.862 60.2739C122.068 56.8212 121.85 53.8993 121.468 51.5374C123.745 51.0867 125.987 50.5466 128.087 49.9364C128.303 49.8743 128.727 49.9268 128.727 49.9268Z" fill="#000008"/>
<path d="M107.305 36.4779C113.344 36.4779 118.222 37.6732 118.706 38.7457C118.729 38.7931 118.741 38.8455 118.742 38.8981C118.741 38.9725 118.718 39.0449 118.675 39.1056C118.267 39.7007 112.85 42.6404 107.305 42.6404H107.24C101.695 42.6404 96.278 39.6999 95.8698 39.1056C95.8272 39.045 95.804 38.973 95.8032 38.899C95.8036 38.846 95.8156 38.7938 95.8386 38.7461C96.3229 37.6732 101.201 36.4779 107.24 36.4779H107.305Z" fill="#FAAB07"/>
<path d="M107.304 45.8104C117.98 45.7383 126.031 43.1966 126.031 43.1966L128.727 49.9268C121.982 51.9602 113.624 53.2703 107.304 53.1941H107.24C106.127 53.2075 104.95 53.1779 103.73 53.1089V61.1608C99.5834 61.7389 95.4447 60.9042 95.4447 60.9042V52.1509C92.1305 51.5911 88.8146 50.8304 85.8174 49.9268L88.5138 43.1962L88.5161 43.1976C88.6775 43.2479 96.6719 45.7394 107.24 45.8104H107.304Z" fill="#EB1923"/>
<path fill-rule="evenodd" clip-rule="evenodd" d="M162.755 69.3768C166.582 69.3768 170.27 68.0342 173.192 65.61C175.148 67.4067 177.681 68.9356 181.562 69.5526V63.427C181.562 63.427 178.727 62.8184 177.134 60.8702L177.111 60.8412C178.4 58.4677 179.093 55.7891 179.093 53.039V43.044C179.093 38.7109 177.372 34.5553 174.309 31.4914C171.245 28.4274 167.089 26.7061 162.755 26.7061H161.952C157.619 26.7061 153.463 28.4274 150.399 31.4914C147.335 34.5553 145.613 38.7109 145.613 43.044V53.039C145.613 57.3721 147.335 61.5277 150.399 64.5917C153.463 67.6556 157.619 69.3768 161.952 69.3768H162.755ZM172.971 53.039C172.971 53.9753 172.848 54.8984 172.609 55.785C170.336 53.7477 167.256 51.7576 163.228 50.9765V57.3037C163.228 57.3037 166.412 57.8549 169.152 61.0534C167.344 62.4625 165.091 63.1446 162.755 63.1446H161.952C159.231 63.1446 156.621 62.2183 154.696 60.2941C152.773 58.3699 151.737 55.7601 151.737 53.039V43.044C151.737 40.3228 152.773 37.7131 154.696 35.7889C156.621 33.8647 159.231 32.9383 161.952 32.9383H162.755C165.477 32.9383 168.087 33.8647 170.01 35.7889C171.935 37.7131 172.971 40.3228 172.971 43.0439V53.039Z" fill="#000008"/>
<path fill-rule="evenodd" clip-rule="evenodd" d="M200.699 69.3778C204.527 69.3778 208.215 68.0352 211.136 65.6109C213.092 67.4076 215.625 68.9365 219.506 69.5536V63.4279C219.506 63.4279 216.671 62.8194 215.079 60.8712L215.055 60.8422C216.344 58.4687 217.038 55.7901 217.038 53.0399V43.045C217.038 38.7119 215.316 34.5563 212.253 31.4923C209.189 28.4284 205.033 26.707 200.699 26.707H199.896C195.563 26.707 191.408 28.4284 188.343 31.4923C185.279 34.5563 183.558 38.7119 183.558 43.045V53.0399C183.558 57.3731 185.279 61.5287 188.343 64.5926C191.408 67.6566 195.563 69.3778 199.896 69.3778H200.699ZM210.915 53.0399C210.915 53.9763 210.792 54.8994 210.553 55.786C208.28 53.7486 205.2 51.7585 201.172 50.9775V57.3047C201.172 57.3047 204.356 57.8558 207.096 61.0543C205.288 62.4635 203.035 63.1455 200.699 63.1455H199.896C197.175 63.1455 194.565 62.2193 192.641 60.2951C190.717 58.3709 189.681 55.7611 189.681 53.0399V43.045C189.681 40.3237 190.717 37.7141 192.641 35.7899C194.565 33.8657 197.175 32.9393 199.896 32.9393H200.699C203.421 32.9393 206.031 33.8657 207.955 35.7899C209.879 37.7141 210.915 40.3237 210.915 43.0449V53.0399Z" fill="#000008"/>
</svg>
