<svg width="90" height="90" viewBox="0 0 90 90" fill="none" xmlns="http://www.w3.org/2000/svg">
<path d="M27.1564 78.2657C31.2745 81.7489 37.671 84.0812 44.6391 84.0812C51.6083 84.0812 58.0043 81.7489 62.123 78.2657C64.2135 78.8906 66.8894 79.8958 68.5779 81.1429C70.0223 82.2092 69.8422 83.2967 69.5814 83.7354C68.4383 85.6646 49.971 84.9674 44.6391 84.367C39.3078 84.9674 20.8399 85.6646 19.6968 83.7354C19.4366 83.2967 19.2559 82.2092 20.7014 81.1429C22.3894 79.8958 25.0648 78.8906 27.1564 78.2657Z" fill="#FAAB07"/>
<path d="M41.2648 21.5984C41.3754 22.9828 40.616 24.2126 39.5713 24.3466C38.5244 24.4812 37.5875 23.4682 37.4763 22.0838C37.3668 20.6983 38.1252 19.4684 39.1682 19.335C40.2168 19.1994 41.1553 20.214 41.2648 21.5984Z" fill="#000008"/>
<path d="M47.9121 22.061C48.1261 21.6779 49.5822 19.6636 52.5973 20.3969C53.3896 20.5899 53.756 20.8734 53.8332 20.9846C53.9472 21.1492 53.9789 21.3838 53.8627 21.6996C53.6337 22.3256 53.1605 22.3084 52.8986 22.1861C52.8874 22.1808 52.8677 22.1698 52.8402 22.1544C52.4517 21.937 50.501 20.8455 48.6943 22.796C48.5609 22.9389 48.3229 22.9883 48.0978 22.8182C47.8715 22.647 47.7786 22.3012 47.9121 22.061Z" fill="#000008"/>
<path fill-rule="evenodd" clip-rule="evenodd" d="M44.6791 42.3168C56.1867 42.2389 65.4093 40.0111 68.5345 39.1571C69.2795 38.9531 69.6775 38.5878 69.6775 38.5878C69.6803 38.4827 69.7248 36.7142 69.7248 35.8024C69.7248 20.4384 62.4726 5.00056 44.6368 5C26.801 5.00056 19.5483 20.439 19.5483 35.8018C19.5483 36.7147 19.5928 38.4827 19.5961 38.5873C19.5961 38.5873 19.9202 38.9292 20.5135 39.0949C23.399 39.8977 32.795 42.2362 44.594 42.3168H44.6791ZM38.2904 27.6972C35.8708 27.8067 33.8037 25.0507 33.6736 21.5464C33.5424 18.041 35.396 15.1104 37.8156 15.0009C40.2325 14.8925 42.299 17.6473 42.4302 21.1528C42.5626 24.6588 40.7084 27.5893 38.2904 27.6972ZM55.5997 21.5464C55.4702 25.0502 53.403 27.8067 50.9834 27.6972C48.5649 27.5888 46.7113 24.6588 46.8436 21.1533C46.9748 17.6479 49.0408 14.893 51.4582 15.0009C53.8778 15.1104 55.7315 18.041 55.5997 21.5464Z" fill="#000008"/>
<path d="M73.277 47.5719C74.2633 50.1427 75.2368 52.8198 75.9501 55.1154C79.3516 66.0621 78.2491 70.5928 77.4107 70.6945C75.6098 70.9119 70.4014 62.4538 70.4014 62.4538C70.4014 71.0487 62.6416 84.2454 44.8726 84.3666H44.4011C26.6314 84.2454 18.8716 71.0487 18.8716 62.4538C18.8716 62.4538 13.6638 70.9119 11.863 70.6939C11.024 70.5928 9.9215 66.0626 13.3235 55.1154C14.0369 52.8203 15.0104 50.1427 15.9967 47.5719C15.9967 47.5719 16.6616 47.5302 16.9986 47.6275C19.7606 48.4248 22.7026 49.1311 25.6906 49.7224C25.1819 52.8748 24.8913 56.7762 25.1661 61.3841C25.8977 73.6395 33.176 81.3437 44.4107 81.4549H44.8666C56.1018 81.3437 63.3796 73.6395 64.1124 61.3841C64.3871 56.7751 64.096 52.8747 63.5868 49.7219C66.6265 49.1201 69.6187 48.3992 72.4224 47.5847C72.7099 47.5018 73.277 47.5719 73.277 47.5719Z" fill="#000008"/>
<path d="M44.6807 29.619C52.7418 29.619 59.254 31.2147 59.9 32.6463C59.9306 32.7096 59.9467 32.7795 59.9473 32.8498C59.9466 32.949 59.9156 33.0457 59.8583 33.1267C59.3135 33.9212 52.083 37.8453 44.6807 37.8453H44.5939C37.1911 37.8453 29.9606 33.9201 29.4157 33.1267C29.3589 33.0459 29.3279 32.9497 29.3268 32.8509C29.3273 32.7803 29.3434 32.7106 29.374 32.6469C30.0206 31.2147 36.5322 29.619 44.5939 29.619H44.6807Z" fill="#FAAB07"/>
<path d="M44.6791 42.0769C58.9305 41.9807 69.6775 38.5878 69.6775 38.5878L73.277 47.5719C64.2729 50.2862 53.1161 52.0351 44.6791 51.9333H44.5941C43.1077 51.9512 41.5369 51.9117 39.9083 51.8196V62.568C34.373 63.3397 28.8482 62.2255 28.8482 62.2255V50.5408C24.4242 49.7935 19.9976 48.7781 15.9967 47.5719L19.5961 38.5873L19.5994 38.5891C19.8148 38.6563 30.4864 41.9821 44.5941 42.0769H44.6791Z" fill="#EB1923"/>
</svg>
