<svg width="300" height="100" viewBox="0 0 300 100" fill="none" xmlns="http://www.w3.org/2000/svg">
<path d="M93.1519 60.6104C91.625 57.6075 89.8373 54.5792 86.3509 54.5792C85.6828 54.5792 85.0148 54.6873 84.4041 54.9672L83.2207 52.5942C84.6649 51.3536 86.9998 50.3738 89.9963 50.3738C94.6661 50.3738 97.0582 52.6196 98.9605 55.4889C100.087 53.0395 100.627 49.7313 100.627 45.6277C100.627 35.3848 97.4272 30.1298 89.9454 30.1298C82.5718 30.1298 79.3907 35.3848 79.3907 45.6277C79.3907 55.8134 82.5781 61.0176 89.9454 61.0176C91.1161 61.0239 92.1785 60.8903 93.1519 60.6104ZM94.9778 64.1795C93.3619 64.6121 91.6441 64.8539 89.9454 64.8539C80.1287 64.8539 70.5156 57.0222 70.5156 45.6341C70.5156 34.1315 80.1287 26.2998 89.9454 26.2998C99.9275 26.2998 109.445 34.0806 109.445 45.6341C109.445 52.0598 106.449 57.283 102.084 60.6613C103.49 62.7735 104.941 64.1731 106.964 64.1731C109.165 64.1731 110.056 62.4681 110.202 61.1321H113.072C113.237 62.9071 112.353 70.2998 104.33 70.2998C99.4758 70.2998 96.9056 67.4814 94.9778 64.1795ZM115.756 54.4137V41.2443C115.756 39.7428 115.203 39.0812 113.479 39.0812H111.647V35.582H123.626V54.2483C123.626 57.3975 125.331 58.7845 127.921 58.7845C130.052 58.7845 132.177 57.8429 133.329 55.6925V41.2506C133.329 39.7492 132.775 39.0875 131.051 39.0875H129.104V35.5884H141.198V55.139C141.198 57.0858 141.917 57.9765 144.144 57.9765H144.532V61.5901L133.717 63.3143V59.5925H133.494C131.401 62.1436 128.455 63.8678 124.256 63.8678C119.529 63.855 115.756 61.4693 115.756 54.4137ZM160.259 60.3559C164.522 60.3559 166.138 56.6532 166.22 49.1905C166.303 41.8932 164.515 38.3623 160.259 38.3623C156.537 38.3623 154.202 41.8996 154.202 49.1905C154.209 56.6532 156.499 60.3559 160.259 60.3559ZM160.259 63.855C152.555 63.855 145.607 57.9638 145.607 49.1905C145.607 40.5763 152.383 34.8568 160.259 34.8568C168.466 34.8568 175.038 40.6908 175.038 49.1905C175.038 57.9638 168.466 63.855 160.259 63.855ZM175.286 63.3015V59.8024H176.451C179.339 59.8024 179.619 58.969 179.619 56.4687V41.2443C179.619 39.7428 178.843 39.0812 177.061 39.0812H175.503V35.582H186.484L187.037 41.3015H187.26C188.481 37.1917 191.758 35.0222 194.831 35.0222C197.369 35.0222 199.348 36.4664 199.348 39.3929C199.348 41.4288 198.368 43.5982 195.626 43.5982C193.164 43.5982 192.68 41.9314 190.645 41.9314C188.831 41.9314 187.425 43.6555 187.425 46.1876V56.4687C187.425 58.969 188.036 59.8024 190.874 59.8024H192.483V63.3015H175.286ZM211.843 59.2235C215.342 59.2235 216.786 55.9088 216.786 52.5751V48.128C214.229 50.7746 208.287 50.8701 208.287 55.5907C208.287 57.9129 209.654 59.2235 211.843 59.2235ZM216.952 59.2044C215.508 61.9846 212.543 63.855 208.395 63.855C203.579 63.855 200.468 61.2975 200.468 56.7995C200.468 47.7463 213.077 50.1512 216.78 44.1517V43.5028C216.78 38.8903 214.967 38.1714 212.963 38.1714C207.351 38.1714 209.909 44.2026 204.743 44.2026C202.262 44.2026 201.301 42.7076 201.301 41.0216C201.301 37.6115 205.373 34.8568 213.026 34.8568C220.266 34.8568 224.714 36.8545 224.714 44.0627V55.5589C224.714 57.3339 225.362 58.301 226.915 58.301C227.583 58.301 228.136 58.1165 228.563 57.8174L229.491 60.076C228.734 61.2466 226.711 63.3015 222.881 63.3015C219.547 63.3015 217.454 61.7428 217.181 59.2107L216.952 59.2044Z" fill="#B92B27"/>
</svg>
