<svg width="90" height="90" viewBox="0 0 90 90" fill="none" xmlns="http://www.w3.org/2000/svg">
<path d="M5 13C5 8.58172 8.58172 5 13 5H77C81.4183 5 85 8.58172 85 13V77C85 81.4183 81.4183 85 77 85H13C8.58172 85 5 81.4183 5 77V13Z" fill="#EB0000"/>
<path d="M41.5674 69.1947L41.5263 69.4104H41.0513L40.8184 70.6345H40.5839L40.8168 69.4104H40.3394L40.3805 69.1947H41.5674ZM43.3245 69.1947L43.0505 70.6345H42.816L43.0078 69.6265L42.4232 70.3096H42.2832L41.959 69.6245L41.7668 70.6345H41.5323L41.8063 69.1947H42.018L42.4084 70.0195L43.1124 69.1947H43.3245ZM44.9811 31.4234L47.0561 20.5017H34.236L24.7012 70.6345H39.2605L43.192 49.9642C45.5101 37.7754 52.503 32.8979 62.4549 34.4046L65.2982 19.4511C56.3388 18.6341 48.3472 23.7597 44.9811 31.4234Z" fill="white"/>
</svg>
