<svg width="300" height="100" viewBox="0 0 300 100" fill="none" xmlns="http://www.w3.org/2000/svg">
<path d="M154.391 44.0158C154.422 45.0438 154.241 46.0672 153.861 47.0227C153.48 47.9783 152.908 48.8457 152.179 49.5716C150.228 51.5086 147.062 52.5648 143.256 52.5355C140.525 52.4903 137.765 51.8264 136.204 50.867L137.244 45.3953C139.309 46.5187 141.599 47.1645 143.947 47.285C145.723 47.285 146.92 46.4653 146.92 45.1505C146.92 43.9587 146.079 43.1258 143.93 42.0746C140.532 40.3751 138.831 38.2206 138.831 35.6814C138.831 30.6851 143.086 27.3088 149.471 27.3088C152.85 27.3088 155.049 28.105 156.268 28.8876L155.23 34.3484C154.264 33.6221 151.807 32.6087 149.127 32.6087C147.267 32.6087 146.055 33.3881 146.055 34.6929C146.055 35.6289 146.982 36.4675 148.945 37.4244C151.503 38.7023 154.391 40.5941 154.391 44.0158ZM110.136 27.3589C101.142 27.3589 94.3653 33.9268 94.3653 42.6365C94.3653 48.6515 98.3621 52.5355 104.562 52.5355C107.214 52.5355 109.791 52.0496 111.451 51.2419L112.587 45.2411C110.745 46.2466 108.683 46.7799 106.584 46.7931C104.317 46.7931 101.885 45.4885 101.885 41.8469C101.885 37.5557 104.928 33.1022 110.037 33.1022C111.417 33.0609 112.784 33.3862 113.998 34.0451L115.11 28.2107C113.518 27.6246 111.832 27.3359 110.136 27.3589ZM236.251 46.9403C239.229 46.9472 242.149 46.1231 244.683 44.5609L243.534 50.6013C240.113 52.3477 236.095 52.5373 234.525 52.5373C227.848 52.5373 224.031 48.8238 224.031 42.3404C224.04 38.5786 225.373 34.94 227.796 32.0626C229.064 30.5614 230.647 29.3575 232.432 28.5361C234.217 27.7148 236.161 27.296 238.126 27.3096C243.177 27.3096 246.547 30.2444 246.547 34.5959C246.58 35.5065 246.425 36.4142 246.09 37.2617C245.756 38.1092 245.249 38.8783 244.602 39.5203C242.19 41.8715 236.244 43.1893 230.828 42.1258C230.57 45.1771 232.867 46.9403 236.251 46.9403ZM231.613 37.4697C235.825 37.5043 238.194 37.0783 239.228 36.0545C240.347 34.9423 239.997 32.5593 237.238 32.5593C234.133 32.5593 232.156 35.1046 231.613 37.4697ZM220.4 27.3589C211.405 27.3589 204.629 33.9268 204.629 42.6365C204.629 48.6515 208.625 52.5355 214.825 52.5355C217.477 52.5355 220.055 52.0496 221.714 51.2419L222.851 45.2411C221.009 46.2467 218.946 46.7799 216.848 46.7931C214.58 46.7931 212.148 45.4886 212.148 41.8469C212.148 37.5557 215.192 33.1022 220.3 33.1022C221.681 33.0609 223.047 33.3862 224.261 34.0451L225.373 28.2108C223.781 27.6246 222.096 27.3359 220.4 27.3589ZM203.448 38.4983L200.86 52.0429H194.005L194.896 47.3809C193.934 50.2864 191.592 52.5857 187.663 52.5857C182.894 52.5857 180.738 48.3521 180.736 44.1153C180.733 39.3021 182.624 34.5357 185.791 31.366C187.085 30.0598 188.629 29.0274 190.331 28.3304C192.032 27.6334 193.857 27.286 195.696 27.3089C198.608 27.3205 200.762 28.1635 202.112 29.7995C204.11 32.2207 203.946 35.8554 203.448 38.4983ZM196.848 35.3821C196.764 33.6742 195.875 32.7534 194.281 32.7534C190.906 32.7534 187.981 38.5798 187.984 42.6316C187.985 45.1631 188.923 46.7397 190.555 46.7397C193.167 46.7397 195.415 44.009 196.189 40.0104C196.452 38.6591 196.896 36.4409 196.848 35.3821ZM93.1845 38.4983L90.5965 52.0429H83.7417L84.6325 47.3809C83.6711 50.2864 81.3288 52.5857 77.3995 52.5857C72.6305 52.5857 70.4753 48.3521 70.4728 44.1153C70.4695 39.3021 72.3605 34.5357 75.5276 31.366C76.822 30.0598 78.366 29.0274 80.0676 28.3304C81.7693 27.6334 83.5938 27.286 85.4326 27.3089C88.3447 27.3205 90.499 28.1635 91.8489 29.7995C93.8471 32.2207 93.6831 35.8554 93.1845 38.4983ZM86.585 35.3821C86.5013 33.6742 85.6123 32.7534 84.0182 32.7534C80.6426 32.7534 77.7181 38.5798 77.7207 42.6316C77.7216 45.1631 78.6598 46.7397 80.2924 46.7397C82.9034 46.7397 85.1523 44.009 85.9259 40.0104C86.1894 38.6591 86.6331 36.4409 86.585 35.3821ZM180.257 36.5194C180.257 42.404 177.432 48.4375 172.339 51.1523C170.74 52.041 168.951 52.5326 167.122 52.5859C164.573 52.5858 163.144 51.6329 162.329 50.1635L160.506 59.7984H153.329L159.422 27.7547H165.743L165.004 31.6444C166.789 29.0466 169.434 27.3089 172.428 27.3089C177.177 27.3089 180.257 30.9085 180.257 36.5194ZM172.793 37.063C172.793 35.9224 172.524 33.1523 169.895 33.1523C167.222 33.1523 164.966 36.1975 164.091 40.8165C163.792 42.3958 162.954 47.1378 166.256 47.1378C170.025 47.1378 172.793 41.7869 172.793 37.063ZM62.998 33.1391L64.021 27.7547H57.7007L53 52.4703H60.1777L62.1159 42.2798C63.2588 36.2707 66.7063 33.8661 71.6125 34.6089L73.0143 27.2367C70.9366 27.0452 68.8512 27.5122 67.0536 28.5715C65.256 29.6308 63.8371 31.2288 62.998 33.1391ZM120.566 52.0429L123.038 39.0382L128.127 52.0429H135.845L130.58 38.9349L140.161 27.7547H132.326L123.081 38.8123L126.657 20H119.53L113.438 52.0429H120.566ZM203.148 69.0337C203.148 72.5345 200.724 75.5246 197.226 75.5246C194.635 75.5246 193.033 73.733 193.033 71.2907C193.033 67.8126 195.457 64.7998 198.955 64.7998C201.715 64.7998 203.148 66.7808 203.148 69.0337ZM195.562 71.2268C195.562 72.6374 196.299 73.63 197.563 73.63C199.398 73.63 200.619 71.1012 200.619 69.0543C200.619 68.002 200.135 66.6943 198.659 66.6943C196.701 66.6944 195.562 69.3096 195.562 71.2268ZM219.849 69.0337C219.849 72.5345 217.425 75.5246 213.926 75.5246C211.336 75.5246 209.734 73.733 209.734 71.2907C209.734 67.8126 212.157 64.7998 215.656 64.7998C218.416 64.7998 219.849 66.7808 219.849 69.0337ZM212.262 71.2268C212.262 72.6374 213 73.63 214.264 73.63C216.099 73.63 217.32 71.1012 217.32 69.0543C217.32 68.002 216.836 66.6943 215.36 66.6943C213.401 66.6944 212.262 69.3096 212.262 71.2268ZM206.82 61.672L204.229 75.2939H206.676L209.285 61.672H206.82ZM167.261 64.8204C166.397 64.8143 165.541 64.9813 164.743 65.3117C163.944 65.6421 163.22 66.1291 162.613 66.7439C162.006 67.3587 161.529 68.089 161.209 68.8915C160.889 69.694 160.733 70.5525 160.75 71.4163C160.75 73.8607 162.329 75.504 164.901 75.504C165.944 75.5265 166.979 75.3124 167.927 74.8777L168.332 72.748C167.497 73.2438 166.546 73.511 165.575 73.5229C164.205 73.5229 163.32 72.658 163.32 71.1218C163.32 68.9719 164.817 66.8014 167.177 66.8014C167.838 66.7897 168.491 66.9549 169.068 67.2799L169.456 65.2388C168.759 64.9548 168.013 64.8125 167.261 64.8204ZM153.242 72.5345C153.022 72.0822 152.928 71.5796 152.968 71.0786C156.93 71.163 159.689 70.3187 159.689 67.6869C159.689 65.9571 158.404 64.7998 156.38 64.7998C152.84 64.7998 150.565 68.1709 150.565 71.268C150.565 73.7762 151.934 75.5246 154.78 75.5246C156.134 75.5375 157.468 75.2065 158.659 74.5625L159.079 72.353C158.003 73.1592 156.693 73.5923 155.348 73.5868C154.935 73.6211 154.519 73.5411 154.148 73.3555C153.776 73.17 153.463 72.886 153.242 72.5345ZM156.065 66.6326C156.845 66.6326 157.371 67.0321 157.371 67.6869C157.371 68.9287 155.748 69.2664 153.219 69.2438C153.516 68.002 154.527 66.6326 156.065 66.6326ZM191.34 67.621C191.34 65.6832 190.202 64.7998 188.727 64.7998C187.971 64.8097 187.229 65.0125 186.573 65.3892C185.917 65.7659 185.368 66.3038 184.979 66.9521L185.359 64.9686H183.146L181.182 75.2939H183.628L184.536 70.5534C184.979 68.1482 186.388 66.8014 187.504 66.8014C188.474 66.8014 188.791 67.4109 188.791 68.2758C188.787 68.6864 188.747 69.0958 188.67 69.4991L187.568 75.2939H190.014L191.16 69.3096C191.27 68.7532 191.33 68.1881 191.34 67.621ZM177.129 64.7998C176.468 64.8033 175.817 64.9581 175.225 65.2524C174.634 65.5467 174.117 65.9727 173.716 66.4976L174.64 61.672H172.175L169.584 75.2939H172.03L172.939 70.5534C173.381 68.1482 174.79 66.8014 175.906 66.8014C176.876 66.8014 177.193 67.411 177.193 68.2759C177.189 68.6864 177.149 69.0958 177.072 69.4991L175.97 75.2939H178.416L179.563 69.3096C179.672 68.7532 179.732 68.1881 179.742 67.621C179.742 65.6832 178.604 64.7998 177.129 64.7998ZM148.644 62.3889H146.258L145.734 65.0305H144.364L144.006 66.927H145.377L144.492 71.5007C144.358 72.1243 144.287 72.7596 144.28 73.3973C144.28 74.5773 145.019 75.504 146.704 75.504C147.246 75.5232 147.787 75.4522 148.306 75.2939L148.676 73.3481C148.353 73.4122 148.024 73.4432 147.694 73.4405C147.569 73.4569 147.442 73.444 147.323 73.4028C147.204 73.3615 147.096 73.2931 147.009 73.203C146.921 73.1128 146.855 73.0034 146.817 72.8834C146.778 72.7634 146.769 72.6362 146.788 72.5118C146.802 72.022 146.865 71.5349 146.977 71.0579L147.779 66.927H150.077L150.456 65.0304H148.157L148.644 62.3889ZM231.089 79.1294C232.969 79.9992 234.822 79.6142 236.165 77.2109V77.2069L243.031 64.9686H240.418L236.519 72.6085L235.572 64.9686H233L234.829 75.0183L234.028 76.6226C233.309 77.8517 232.054 77.4506 231.47 77.1267L231.089 79.1294ZM227.749 64.7998C223.385 64.7998 221.149 68.6586 221.149 71.9057C221.149 73.7401 222.056 75.5323 224.249 75.5323C224.924 75.5287 225.588 75.3598 226.183 75.0404C226.777 74.7209 227.285 74.2607 227.661 73.6999L227.464 74.5979C226.959 76.9805 225.736 77.7383 224.134 77.7383C223.199 77.7498 222.275 77.5403 221.437 77.1267L221.056 79.1294C222.013 79.5327 223.045 79.7268 224.083 79.6987C225.453 79.766 226.805 79.3643 227.916 78.5599C229.087 77.5921 229.663 75.99 230.046 73.9883L230.975 69.3335C231.108 68.7522 231.178 68.1585 231.186 67.5623C231.186 65.7069 229.9 64.7998 227.749 64.7998ZM228.529 69.2067L228.34 70.1555C227.918 72.2221 226.61 73.5294 225.345 73.5294C224.207 73.5294 223.722 72.5806 223.722 71.4629C223.722 69.4389 225.135 66.6767 227.285 66.6767C227.465 66.655 227.647 66.6733 227.819 66.7303C227.991 66.7874 228.148 66.8818 228.279 67.0068C228.41 67.1318 228.512 67.2842 228.577 67.4532C228.642 67.6222 228.669 67.8035 228.656 67.9841C228.662 68.3952 228.619 68.8056 228.529 69.2067ZM245.765 73.1775C245.799 72.878 245.77 72.5746 245.677 72.2876C245.585 72.0006 245.432 71.7367 245.23 71.5135C245.027 71.2903 244.779 71.113 244.502 70.9935C244.226 70.874 243.926 70.815 243.625 70.8206C242.984 70.8328 242.369 71.0792 241.897 71.5134C241.424 71.9475 241.127 72.5394 241.061 73.1775C241.026 73.4765 241.056 73.7794 241.149 74.0659C241.241 74.3524 241.394 74.6157 241.597 74.8381C241.8 75.0605 242.048 75.2369 242.324 75.3553C242.601 75.4737 242.9 75.5314 243.201 75.5245C243.842 75.5162 244.457 75.2724 244.93 74.8396C245.403 74.4068 245.7 73.8152 245.765 73.1775ZM245.43 73.1479C245.37 73.7011 245.111 74.2136 244.701 74.5894C244.29 74.9651 243.757 75.1784 243.201 75.1892C242.947 75.1948 242.695 75.1458 242.461 75.0457C242.228 74.9456 242.019 74.7966 241.848 74.6088C241.677 74.4209 241.548 74.1986 241.47 73.9569C241.392 73.7151 241.367 73.4594 241.396 73.2071C241.456 72.654 241.715 72.1415 242.125 71.7658C242.536 71.39 243.069 71.1767 243.625 71.1658C243.879 71.1611 244.13 71.2106 244.364 71.311C244.597 71.4114 244.805 71.5604 244.976 71.7481C245.147 71.9357 245.276 72.1576 245.354 72.399C245.432 72.6404 245.458 72.8958 245.43 73.1479ZM243.803 73.4635L244.177 74.5581H243.812L243.448 73.493H242.925L242.728 74.5581H242.382L242.905 71.787H243.812C243.907 71.7842 244.001 71.8001 244.09 71.8338C244.178 71.8675 244.259 71.9183 244.328 71.9834C244.396 72.0484 244.452 72.1264 244.49 72.2129C244.529 72.2994 244.55 72.3926 244.552 72.4872C244.55 72.7092 244.475 72.9244 244.34 73.1005C244.205 73.2766 244.016 73.404 243.803 73.4635ZM243.812 72.1223H243.181L242.984 73.1578H243.556C243.71 73.1505 243.858 73.0924 243.975 72.9925C244.093 72.8926 244.175 72.7565 244.207 72.6055C244.219 72.547 244.219 72.4863 244.205 72.428C244.191 72.3698 244.164 72.3154 244.126 72.269C244.088 72.2226 244.04 72.1853 243.986 72.1599C243.932 72.1345 243.872 72.1217 243.812 72.1223Z" fill="#EB0000"/>
</svg>
