<svg width="300" height="100" viewBox="0 0 300 100" fill="none" xmlns="http://www.w3.org/2000/svg">
<path d="M218.071 44.6363C220.096 44.6363 221.739 42.994 221.739 40.9681C221.739 38.9421 220.096 37.2998 218.071 37.2998C216.045 37.2998 214.402 38.9421 214.402 40.9681C214.402 42.994 216.045 44.6363 218.071 44.6363Z" fill="#FF4500"/>
<path fill-rule="evenodd" clip-rule="evenodd" d="M187.202 34.9814C188.344 34.9814 189.278 35.9158 189.278 37.0578V63.7392C189.278 64.8812 188.344 65.8156 187.202 65.8156C186.199 65.8156 185.333 65.0888 185.16 64.1199C183.742 65.5387 181.942 66.2655 179.831 66.2655C174.363 66.2655 169.934 61.3168 169.934 55.2261C169.934 49.1354 174.363 44.1867 179.831 44.1867C181.942 44.1867 183.707 44.8788 185.126 46.2977V37.0578C185.126 35.9158 186.06 34.9814 187.202 34.9814ZM174.121 55.2261C174.121 59.0674 176.682 62.1473 179.866 62.1473C183.015 62.1473 185.61 59.0674 185.61 55.2261C185.61 51.3848 183.049 48.3048 179.866 48.3048C176.682 48.3048 174.121 51.4194 174.121 55.2261Z" fill="#222222"/>
<path fill-rule="evenodd" clip-rule="evenodd" d="M168.442 53.9453C168.511 55.2604 167.473 56.61 165.674 56.61V56.5408H153.043C153.562 59.69 155.915 62.0778 158.683 62.0778C160.973 62.0778 162.411 60.8331 163.188 60.1601L163.251 60.1052C164.047 59.4477 165.12 59.2401 165.985 59.8284C167.023 60.5551 167.196 62.0432 166.331 63.0122C164.566 64.9847 162.109 66.2305 158.683 66.2305C153.216 66.2305 148.786 61.2819 148.786 55.1912C148.786 49.1005 153.216 44.1518 158.683 44.1518C163.286 44.1518 167.162 47.6816 168.269 52.4573C168.338 52.8033 168.408 53.2532 168.442 53.9453ZM164.082 52.9418C163.286 50.2771 161.14 48.3391 158.649 48.3391C156.157 48.3391 154.012 50.2425 153.216 52.9418H164.082Z" fill="#222222"/>
<path d="M147.264 44.2904C148.233 44.4635 148.995 45.294 148.995 46.3322C148.995 47.405 148.164 48.3048 147.126 48.374H146.711C142.696 47.9241 139.789 51.1079 139.789 54.9837V63.7391C139.789 64.9503 138.786 65.8847 137.575 65.8155C136.467 65.7463 135.637 64.7773 135.637 63.6699V46.7129C135.637 45.5709 136.571 44.6365 137.713 44.6365C138.751 44.6365 139.789 45.4324 139.789 46.7129V46.9897C141.416 44.9479 144.254 43.8405 147.264 44.2904Z" fill="#222222"/>
<path d="M220.145 48.5461C220.145 47.4041 219.211 46.4697 218.069 46.4697C216.927 46.4697 215.992 47.4041 215.992 48.5461V63.7382C215.992 64.8802 216.927 65.8146 218.069 65.8146C219.211 65.8146 220.145 64.8802 220.145 63.7382V48.5461Z" fill="#222222"/>
<path fill-rule="evenodd" clip-rule="evenodd" d="M210.937 37.0578C210.937 35.9158 210.003 34.9814 208.861 34.9814C207.719 34.9814 206.784 35.9158 206.784 37.0578V46.2977C205.365 44.8788 203.601 44.1867 201.49 44.1867C196.022 44.1867 191.592 49.1354 191.592 55.2261C191.592 61.3168 196.022 66.2655 201.49 66.2655C203.601 66.2655 205.4 65.5387 206.819 64.1199C206.992 65.0888 207.857 65.8156 208.861 65.8156C210.003 65.8156 210.937 64.8812 210.937 63.7392V37.0578ZM201.49 62.1473C198.306 62.1473 195.745 59.0674 195.745 55.2261C195.745 51.4194 198.306 48.3048 201.49 48.3048C204.673 48.3048 207.234 51.3848 207.234 55.2261C207.234 59.0674 204.673 62.1473 201.49 62.1473Z" fill="#222222"/>
<path d="M230.666 48.3392V63.7736C230.666 64.9156 229.766 65.8153 228.555 65.8846C227.413 65.8846 226.478 64.9502 226.478 63.8082V48.3738H224.713C223.675 48.3738 222.81 47.4741 222.879 46.4013C222.949 45.3977 223.814 44.671 224.783 44.671H226.513V41.6602C226.513 40.449 227.517 39.5146 228.728 39.5838C229.835 39.6531 230.666 40.622 230.666 41.7294V44.6363H232.569C233.607 44.6363 234.472 45.5361 234.403 46.6089C234.334 47.6125 233.469 48.3392 232.5 48.3392H230.666Z" fill="#222222"/>
<path d="M94.9997 79C111.016 79 123.999 66.0163 123.999 50C123.999 33.9837 111.016 21 94.9997 21C78.9836 21 66 33.9837 66 50C66 66.0163 78.9836 79 94.9997 79Z" fill="#FF4500"/>
<path d="M114.347 50C114.347 47.6468 112.443 45.778 110.125 45.778C108.983 45.778 107.945 46.2279 107.183 46.9547C104.276 44.8783 100.297 43.5286 95.8672 43.3556L97.8051 34.2888L104.103 35.6384C104.173 37.2303 105.488 38.5107 107.114 38.5107C108.775 38.5107 110.125 37.1611 110.125 35.5C110.125 33.8389 108.775 32.4893 107.114 32.4893C105.937 32.4893 104.899 33.1814 104.415 34.185L97.3898 32.6969C97.1822 32.6623 96.9746 32.6969 96.8361 32.8007C96.6631 32.9045 96.5593 33.0776 96.5247 33.2852L94.3791 43.3902C89.8804 43.5286 85.8315 44.8783 82.89 46.9893C82.1286 46.2625 81.0905 45.8126 79.9485 45.8126C77.5953 45.8126 75.7266 47.716 75.7266 50.0346C75.7266 51.7649 76.7647 53.2184 78.2182 53.8759C78.149 54.2912 78.1144 54.7064 78.1144 55.1563C78.1144 61.6623 85.693 66.957 95.0366 66.957C104.38 66.957 111.959 61.6969 111.959 55.1563C111.959 54.741 111.924 54.2912 111.855 53.8759C113.309 53.2184 114.347 51.7303 114.347 50ZM85.347 53.0107C85.347 51.3496 86.6966 50 88.3577 50C90.0188 50 91.3684 51.3496 91.3684 53.0107C91.3684 54.6718 90.0188 56.0215 88.3577 56.0215C86.6966 56.0561 85.347 54.6718 85.347 53.0107ZM102.2 61.0048C100.124 63.0811 96.1786 63.2196 95.0366 63.2196C93.86 63.2196 89.915 63.0465 87.8732 61.0048C87.5618 60.6933 87.5618 60.2088 87.8732 59.8974C88.1847 59.5859 88.6691 59.5859 88.9806 59.8974C90.2956 61.2124 93.0641 61.6623 95.0366 61.6623C97.0092 61.6623 99.8122 61.2124 101.093 59.8974C101.404 59.5859 101.889 59.5859 102.2 59.8974C102.477 60.2088 102.477 60.6933 102.2 61.0048ZM101.646 56.0561C99.9853 56.0561 98.6356 54.7064 98.6356 53.0453C98.6356 51.3842 99.9853 50.0346 101.646 50.0346C103.307 50.0346 104.657 51.3842 104.657 53.0453C104.657 54.6718 103.307 56.0561 101.646 56.0561Z" fill="white"/>
</svg>
