<svg width="90" height="90" viewBox="0 0 90 90" fill="none" xmlns="http://www.w3.org/2000/svg">
<path d="M45.5 85.5C67.5914 85.5 85.5 67.5914 85.5 45.5C85.5 23.4086 67.5914 5.5 45.5 5.5C23.4086 5.5 5.5 23.4086 5.5 45.5C5.5 67.5914 23.4086 85.5 45.5 85.5Z" fill="#FF4500"/>
<path d="M72.1655 45.4996C72.1655 42.2716 69.5457 39.6517 66.3176 39.6517C64.7269 39.6517 63.3234 40.2599 62.2942 41.2891C58.3176 38.4353 52.7971 36.564 46.7153 36.33L49.3819 23.8388L58.0369 25.6634C58.1305 27.8622 59.955 29.64 62.2006 29.64C64.493 29.64 66.3644 27.7686 66.3644 25.4762C66.3644 23.1838 64.493 21.3125 62.2006 21.3125C60.5632 21.3125 59.1597 22.2482 58.5047 23.6517L48.8205 21.5932C48.5398 21.5464 48.2591 21.5932 48.0252 21.7336C47.7913 21.8739 47.6509 22.1078 47.5574 22.3885L44.61 36.33C38.3878 36.5172 32.8205 38.3417 28.7971 41.2891C27.7679 40.3067 26.3176 39.6517 24.7737 39.6517C21.5457 39.6517 18.9258 42.2716 18.9258 45.4996C18.9258 47.8856 20.3293 49.8973 22.3878 50.833C22.2942 51.3944 22.2474 52.0026 22.2474 52.6108C22.2474 61.5932 32.6802 68.8447 45.5924 68.8447C58.5047 68.8447 68.9375 61.5932 68.9375 52.6108C68.9375 52.0026 68.8907 51.4412 68.7971 50.8798C70.7153 49.9441 72.1655 47.8856 72.1655 45.4996ZM32.1655 49.6634C32.1655 47.371 34.0369 45.4996 36.3293 45.4996C38.6217 45.4996 40.493 47.371 40.493 49.6634C40.493 51.9558 38.6217 53.8271 36.3293 53.8271C34.0369 53.8271 32.1655 51.9558 32.1655 49.6634ZM55.417 60.6575C52.5632 63.5113 47.1363 63.6985 45.5457 63.6985C43.955 63.6985 38.4813 63.4646 35.6743 60.6575C35.2533 60.2365 35.2533 59.5347 35.6743 59.1137C36.0954 58.6926 36.7971 58.6926 37.2182 59.1137C38.996 60.8914 42.8322 61.5464 45.5924 61.5464C48.3527 61.5464 52.1422 60.8914 53.9667 59.1137C54.3878 58.6926 55.0895 58.6926 55.5106 59.1137C55.8381 59.5815 55.8381 60.2365 55.417 60.6575ZM54.6685 53.8271C52.3761 53.8271 50.5047 51.9558 50.5047 49.6634C50.5047 47.371 52.3761 45.4996 54.6685 45.4996C56.9609 45.4996 58.8322 47.371 58.8322 49.6634C58.8322 51.9558 56.9609 53.8271 54.6685 53.8271Z" fill="white"/>
</svg>
