<svg width="90" height="90" viewBox="0 0 90 90" fill="none" xmlns="http://www.w3.org/2000/svg">
<path d="M5 12.3302C5 8.28185 8.28185 5 12.3302 5H41.003C45.0513 5 48.3333 8.28185 48.3333 12.3302V18.0016C48.3333 20.0257 46.6923 21.6667 44.6683 21.6667H8.6651C6.64093 21.6667 5 20.0257 5 18.0016V12.3302Z" fill="#262626"/>
<path d="M5 35.3317C5 33.3076 6.64093 31.6666 8.6651 31.6666H77.6697C81.718 31.6666 85 34.9485 85 38.997V58.0016C85 60.0256 83.359 61.6666 81.335 61.6666H12.3302C8.28185 61.6666 5 58.3846 5 54.3363V35.3317Z" fill="#262626"/>
<path d="M41.6666 75.3317C41.6666 73.3077 43.3076 71.6667 45.3316 71.6667H81.3349C83.3589 71.6667 84.9999 73.3077 84.9999 75.3317V77.6697C84.9999 81.718 81.7179 85 77.6696 85H48.9969C44.9486 85 41.6666 81.718 41.6666 77.6697V75.3317Z" fill="#262626"/>
</svg>
