<svg width="300" height="100" viewBox="0 0 300 100" fill="none" xmlns="http://www.w3.org/2000/svg">
<path d="M33 29.5814C33 27.0512 35.0512 25 37.5814 25H55.5019C58.0321 25 60.0833 27.0512 60.0833 29.5814V33.126C60.0833 34.3911 59.0577 35.4167 57.7927 35.4167H35.2907C34.0256 35.4167 33 34.3911 33 33.126V29.5814Z" fill="#262626"/>
<path d="M33 43.9574C33 42.6922 34.0256 41.6667 35.2907 41.6667H78.4185C80.9487 41.6667 83 43.7178 83 46.2481V58.126C83 59.391 81.9744 60.4167 80.7094 60.4167H37.5814C35.0512 60.4167 33 58.3654 33 55.8352V43.9574Z" fill="#262626"/>
<path d="M55.9167 68.9573C55.9167 67.6923 56.9423 66.6667 58.2073 66.6667H80.7094C81.9744 66.6667 83 67.6923 83 68.9573V70.4185C83 72.9488 80.9487 75 78.4185 75H60.4981C57.9679 75 55.9167 72.9488 55.9167 70.4185V68.9573Z" fill="#262626"/>
<path d="M111.324 55.7104H116.14L125.083 70.3294H136.033L126.115 54.6783C131.619 52.7865 134.829 48.5442 134.829 42.4098C134.829 33.8104 128.81 29.1667 119.121 29.1667H101.75V70.3294H111.324V55.7104ZM111.324 47.9135V37.2502H118.605C123.134 37.2502 125.427 39.1994 125.427 42.5818C125.427 45.9069 123.134 47.9135 118.605 47.9135H111.324Z" fill="#262626"/>
<path d="M152.506 70.96C158.526 70.96 164.03 67.9217 166.266 62.1312L158.584 59.666C157.724 62.3033 155.488 63.6792 152.621 63.6792C149.124 63.6792 146.659 61.3288 146.028 57.2008H166.495V54.7931C166.495 46.2508 161.507 39.486 152.335 39.486C143.62 39.486 137.199 46.2508 137.199 55.1944C137.199 64.5965 143.391 70.96 152.506 70.96ZM152.22 46.595C155.602 46.595 157.38 48.8881 157.437 51.5825H146.315C147.232 48.2575 149.411 46.595 152.22 46.595Z" fill="#262626"/>
<path d="M171.694 62.2458C171.694 68.4375 174.962 70.616 181.497 70.616C183.676 70.616 185.396 70.4442 187.001 70.2148V62.7046C185.969 62.8192 185.453 62.8765 184.364 62.8765C182.071 62.8765 180.752 62.4179 180.752 59.8954V47.6842H186.657V40.1166H180.752V31.7465H171.694V40.1166H167.853V47.6842H171.694V62.2458Z" fill="#262626"/>
<path d="M219.816 55.2517C219.816 45.8496 213.568 39.486 204.681 39.486C195.738 39.486 189.546 45.8496 189.546 55.2517C189.546 64.6538 195.738 70.96 204.681 70.96C213.568 70.96 219.816 64.6538 219.816 55.2517ZM198.662 55.2517C198.662 49.9773 201.012 46.9963 204.681 46.9963C208.351 46.9963 210.701 49.9773 210.701 55.2517C210.701 60.526 208.351 63.5071 204.681 63.5071C201.012 63.5071 198.662 60.526 198.662 55.2517Z" fill="#262626"/>
<path d="M252.848 55.2517C252.848 45.8496 246.6 39.486 237.713 39.486C228.77 39.486 222.578 45.8496 222.578 55.2517C222.578 64.6538 228.77 70.96 237.713 70.96C246.6 70.96 252.848 64.6538 252.848 55.2517ZM231.694 55.2517C231.694 49.9773 234.044 46.9963 237.713 46.9963C241.383 46.9963 243.733 49.9773 243.733 55.2517C243.733 60.526 241.383 63.5071 237.713 63.5071C234.044 63.5071 231.694 60.526 231.694 55.2517Z" fill="#262626"/>
<path d="M266.333 29.1667H257.16V70.3294H266.333V29.1667Z" fill="#262626"/>
</svg>
