<svg width="90" height="90" viewBox="0 0 90 90" fill="none" xmlns="http://www.w3.org/2000/svg">
<path d="M43.5476 24.6557C42.6831 30.4941 41.9898 35.4133 40.7448 43.0702C44.1112 43.0005 51.7581 44.2846 53.4394 33.8201C54.8336 25.1123 48.6248 24.3086 43.5476 24.6557Z" fill="#21262E"/>
<path d="M72.7213 66.7611C74.0301 69.5567 72.7114 73.09 69.9765 74.5139C68.4069 75.3313 66.6162 76.0931 64.8234 76.5179C63.0188 76.9446 60.0847 77.4828 56.342 77.6305C56.1647 77.6364 55.9874 77.6404 55.8141 77.6404C50.9578 77.6404 46.0935 74.9764 43.9941 71.7321C43.4522 72.8527 41.4922 75.1001 38.0642 76.1588C35.897 76.8289 33.2836 77.6404 27.8297 77.6345C22.9436 77.6305 20.1589 75.5087 18.6829 73.7243C16.3384 70.8907 15.9938 67.2915 16.452 64.8668L16.4759 64.7511C18.3164 55.8798 20.8421 39.7584 22.0013 31.6785L22.0133 31.5988C22.3321 29.3596 22.6548 27.1183 22.846 24.8631C22.9417 23.7265 23.0053 22.5859 23.0173 21.4454C23.0292 20.3666 22.9237 19.2898 22.9356 18.2111C22.9476 17.1961 23.1169 16.1652 23.6148 15.2679C24.4215 13.8143 25.9015 12.6697 27.4652 12.1712C29.1802 11.6249 30.9749 11.4015 32.7577 11.2061C34.5804 11.0067 36.4049 10.8093 38.2394 10.6777C38.9725 10.6259 39.7055 10.582 40.4385 10.5461C41.9385 10.4763 43.4423 10.4404 44.9442 10.4404C48.7746 10.4404 52.629 10.5042 56.3997 11.248C60.2461 12.0057 64.1284 13.4594 67.162 16.0037C69.2396 17.7465 70.8908 19.9479 72.1277 22.3547C73.2173 24.4763 73.6577 26.7075 73.9185 28.4164C74.2114 30.3286 74.273 32.2728 74.1058 34.195C73.9943 35.4711 73.8149 36.5899 73.558 37.6127C73.0103 39.7902 72.074 41.8759 70.7733 43.8121C69.3292 45.9636 67.4767 47.9137 65.1124 49.7742C66.5524 53.7742 70.3012 61.5947 72.7213 66.7611ZM29.7201 18.6179C29.8097 20.1014 29.8236 21.6009 29.758 23.0903C29.6901 24.6118 29.5527 26.1292 29.3775 27.6407C29.2042 29.1483 28.993 30.6497 28.7799 32.1511C28.7559 32.3147 28.7341 32.4782 28.7101 32.6436C28.0369 37.3375 27.3317 42.0275 26.5887 46.7094C25.81 51.6267 24.9354 56.5219 24.061 61.4231C23.6546 63.7063 22.7444 66.6335 23.9893 68.815C25.1009 70.7611 27.9473 70.9964 29.9313 70.8009C37.1599 70.0931 38.3071 68.5537 38.3071 68.5537C36.8671 67.0243 38.118 60.0473 39.57 50.6675H44.7073L50.0834 66.2547C50.0834 66.2547 51.6689 71.0841 56.0749 70.8508C61.7181 70.5537 65.8692 69.3155 66.4668 68.6315C64.7279 67.7003 59.762 55.7921 57.053 47.0463C58.3637 46.2827 59.6346 45.4492 60.8317 44.5159C62.4711 43.2379 63.9869 41.7624 65.1501 40.0296C65.9847 38.7852 66.6221 37.4134 66.9866 35.9577C67.1799 35.19 67.2874 34.3884 67.3553 33.6007C67.4767 32.215 67.4309 30.8151 67.2197 29.4414C67.0186 28.1212 66.7157 26.6516 66.1023 25.4572C64.9569 23.2279 63.3375 21.2838 61.1305 20.0396C57.4057 17.9419 53.113 17.5411 48.9281 17.3198C44.3925 17.0785 39.8349 17.222 35.3233 17.7485C34.8194 17.8083 29.7001 18.239 29.7201 18.6179Z" fill="#21262E"/>
</svg>
