<svg width="300" height="100" viewBox="0 0 300 100" fill="none" xmlns="http://www.w3.org/2000/svg">
<path d="M264.527 26.0028C262.588 25.9612 260.283 26.3796 257.672 27.2408C257.28 27.3782 256.97 27.5952 256.691 27.8698C254.035 30.3632 251.451 33.0065 249.009 35.7394L248.822 35.9468C248.77 36.0056 248.763 36.0931 248.802 36.1609C248.841 36.2296 248.918 36.2651 248.996 36.248L249.27 36.1911C253.206 35.3497 257.18 34.7037 261.078 34.2772C261.334 34.249 261.599 34.3369 261.79 34.5115C261.982 34.6878 262.093 34.9394 262.088 35.2007C262.024 39.0693 262.162 42.957 262.506 46.7574L262.53 47.005C262.538 47.0809 262.591 47.1421 262.667 47.1623C262.681 47.1657 262.693 47.1691 262.711 47.1691C262.768 47.17 262.826 47.1428 262.861 47.0922L263.005 46.8881C265.201 43.7545 267.592 40.7083 270.105 37.8274C270.387 37.5069 270.46 37.3053 270.513 37.0144C271.304 31.9504 270.083 28.2052 268.991 27.2578C268.042 26.4352 266.665 26.0488 264.527 26.0028ZM258.498 36.2613L258.257 36.2947C254.497 36.8126 250.69 37.5301 246.941 38.4261C246.57 38.5299 246.331 38.7714 246.279 38.8276C243.473 42.1873 240.816 45.7235 238.379 49.3471C238.257 49.5303 238.245 49.9694 238.245 49.9694C238.245 49.9694 238.857 54.6895 239.751 58.1668C237.535 64.5392 235.559 72.9356 235.559 72.9356C235.543 72.9901 235.553 73.047 235.585 73.0929C235.619 73.1388 235.672 73.1681 235.729 73.1698H236.991C237.07 73.1711 237.14 73.1227 237.168 73.0494L237.255 72.8118C238.542 69.3006 240.009 65.8344 241.631 62.4563C242.009 61.6693 242.806 60.0807 242.806 60.0807C242.937 59.8228 243.548 58.6502 243.686 58.3877L243.709 58.3409C247.793 50.6367 252.772 43.3699 258.501 36.7431L258.659 36.5625C258.707 36.5049 258.717 36.4215 258.682 36.355C258.644 36.288 258.571 36.2514 258.498 36.2613ZM260.231 37.7134C260.16 37.6869 260.079 37.7049 260.03 37.7636L259.873 37.9477C253.192 45.6742 247.578 54.25 243.184 63.4367L243.08 63.6508C243.047 63.7186 243.059 63.8004 243.11 63.8549C243.145 63.8909 243.191 63.9113 243.241 63.9118C243.263 63.9126 243.292 63.9084 243.314 63.8981L243.535 63.8044C247.288 62.2498 251.121 60.9029 254.928 59.8027C255.156 59.7366 255.346 59.5784 255.453 59.3677C257.122 56.1148 260.997 49.8185 260.997 49.8185C261.097 49.6765 261.074 49.4639 261.074 49.4639C261.074 49.4639 260.394 41.9328 260.352 38.1213L260.348 37.8804C260.345 37.8048 260.301 37.7388 260.231 37.7134ZM250.324 63.005L250.013 63.1121C247.996 63.7823 245.011 64.8125 242.334 66.0431C242.191 66.1104 242.096 66.2974 242.096 66.2974C242.047 66.412 241.986 66.5552 241.916 66.7156L241.905 66.7357C241.606 67.4184 241.189 68.4458 241.012 68.8637L240.875 69.1949C240.853 69.2473 240.866 69.3059 240.908 69.3455C240.933 69.3691 240.962 69.381 240.999 69.3823C241.017 69.3823 241.039 69.3789 241.059 69.3686L241.383 69.2148C242.116 68.8664 243.044 68.3386 244.017 67.8764L244.05 67.8593C245.899 66.9822 247.986 65.9924 249.243 65.3934C249.243 65.3934 249.445 65.2842 249.547 65.0822L250.488 63.1951C250.512 63.1458 250.505 63.0867 250.47 63.0445C250.432 63.0034 250.376 62.9877 250.324 63.005Z" fill="#000008"/>
<path d="M77.7559 30.6001V61.921H81.5736V59.7328H81.6606C83.1195 61.4062 85.7811 62.5667 88.0981 62.5667C94.1053 62.5667 97.9652 57.846 97.9652 50.5516C97.9652 43.4717 93.9315 38.5365 88.1818 38.5365C85.9076 38.5365 83.507 39.6542 82.0052 41.3705H81.9182V30.6001H77.7559ZM101.227 30.6001V35.02H105.731V30.6001H101.227ZM133.151 30.6001V61.921H137.313V47.634C137.313 44.5446 139.545 42.3977 142.72 42.3977C145.852 42.3977 147.655 44.4574 147.655 48.0188V61.921H151.817V46.9916C151.817 41.7997 148.684 38.5365 143.707 38.5365C141.175 38.5365 138.601 39.7378 137.4 41.4541H137.313V30.6001H133.151ZM217.467 30.6001V41.3705H217.38C215.878 39.6112 213.518 38.5365 211.244 38.5365C205.494 38.5365 201.417 43.5576 201.417 50.5516C201.417 57.846 205.28 62.5667 211.287 62.5667C213.604 62.5667 216.262 61.4062 217.721 59.7328H217.808V61.921H221.626V30.6001H217.467ZM30 31.8882V61.921H34.2894V50.0364H40.4258C45.1457 50.0364 46.8633 51.9249 46.8633 57.1598V61.921H51.0256V57.1598C51.0256 52.3652 49.5618 49.5185 46.3848 48.3467C49.6416 47.2057 51.8821 44.5203 51.8821 40.5976C51.8821 35.277 47.9329 31.8882 41.7541 31.8882H30ZM34.2894 35.7929H41.3693C45.4456 35.7929 47.5492 37.5503 47.5492 41.0259C47.5492 44.3727 45.4033 46.2187 41.4128 46.2187H34.2894V35.7929ZM64.2385 38.5365C58.0597 38.5365 53.8127 43.4717 53.8127 50.5516C53.8127 57.8031 57.931 62.5667 64.2385 62.5667C70.4602 62.5667 74.5372 57.8031 74.5372 50.5516C74.5372 43.4717 70.3315 38.5365 64.2385 38.5365ZM120.664 38.5365C118.261 38.5365 115.688 39.6971 114.444 41.3705H114.357V39.1823H110.281V61.921H114.444V47.634C114.444 44.4159 116.547 42.3977 119.851 42.3977C123.112 42.3977 124.655 44.2887 124.655 48.2363V61.921H128.861V47.0317C128.861 41.7969 125.684 38.5365 120.664 38.5365ZM165.244 38.5365C159.066 38.5365 154.819 43.4717 154.819 50.5516C154.819 57.8031 158.937 62.5667 165.244 62.5667C171.466 62.5667 175.543 57.8031 175.543 50.5516C175.543 43.4717 171.337 38.5365 165.244 38.5365ZM188.545 38.5365C182.366 38.5365 178.119 43.4717 178.119 50.5516C178.119 57.8031 182.238 62.5667 188.545 62.5667C194.767 62.5667 198.844 57.8031 198.844 50.5516C198.844 43.4717 194.638 38.5365 188.545 38.5365ZM101.398 39.1823V61.921H105.56V39.1823H101.398ZM64.2385 42.3575C68.0145 42.3575 70.4184 45.5743 70.4184 50.5516C70.4184 55.5719 68.0145 58.7892 64.2385 58.7892C60.3339 58.7892 57.9315 55.6148 57.9315 50.5516C57.9315 45.4884 60.3339 42.3575 64.2385 42.3575ZM87.4523 42.3575C91.5286 42.3575 93.8028 45.3168 93.8028 50.5516C93.8028 55.8293 91.5286 58.7892 87.4523 58.7892C84.32 58.7892 81.9182 56.6458 81.9182 53.8139V47.721C81.9182 44.6745 84.32 42.3575 87.4523 42.3575ZM165.244 42.3575C169.02 42.3575 171.424 45.5743 171.424 50.5516C171.424 55.5719 169.02 58.7892 165.244 58.7892C161.34 58.7892 158.937 55.6148 158.937 50.5516C158.937 45.4884 161.34 42.3575 165.244 42.3575ZM188.545 42.3575C192.321 42.3575 194.725 45.5743 194.725 50.5516C194.725 55.5719 192.321 58.7892 188.545 58.7892C184.64 58.7892 182.238 55.6148 182.238 50.5516C182.238 45.4884 184.64 42.3575 188.545 42.3575ZM211.93 42.3575C215.062 42.3575 217.467 44.6745 217.467 47.721V53.8139C217.467 56.6458 215.062 58.7892 211.93 58.7892C207.853 58.7892 205.579 55.8293 205.579 50.5516C205.579 45.3168 207.853 42.3575 211.93 42.3575Z" fill="#000008"/>
</svg>
