<svg width="90" height="90" viewBox="0 0 90 90" fill="none" xmlns="http://www.w3.org/2000/svg">
<rect x="5" y="5" width="80" height="80" rx="8" fill="#00C805"/>
<path d="M42.5938 56.3828L42.3281 56.4687C40.6172 57.039 38.0859 57.914 35.8203 58.9531C35.6953 59.0078 35.6172 59.1718 35.6172 59.1718C35.5781 59.2656 35.5234 59.3906 35.4609 59.5234L35.4531 59.539C35.1953 60.1171 34.8516 60.9921 34.6953 61.3437L34.5781 61.6249C34.5625 61.6718 34.5703 61.7187 34.6094 61.7499C34.6328 61.7734 34.6562 61.7812 34.6875 61.7812C34.7031 61.7812 34.7188 61.7812 34.7422 61.7656L35.0156 61.6328C35.6406 61.3359 36.4219 60.8906 37.25 60.4999L37.2813 60.4843C38.8516 59.7421 40.6172 58.8984 41.6875 58.3906C41.6875 58.3906 41.8594 58.2968 41.9453 58.1249L42.7422 56.5234C42.7656 56.4843 42.7578 56.4296 42.7266 56.3984C42.6875 56.3828 42.6406 56.3671 42.5938 56.3828ZM36.2188 53.8984C36.3281 53.6796 36.8516 52.6874 36.9688 52.4609L36.9922 52.4218C40.4531 45.8906 44.6797 39.7265 49.5391 34.1093L49.6719 33.9531C49.7109 33.9062 49.7188 33.8359 49.6875 33.7812C49.6562 33.7265 49.5938 33.6953 49.5312 33.7031L49.3281 33.7343C46.1406 34.1718 42.9141 34.7812 39.7344 35.539C39.4219 35.6249 39.2188 35.8359 39.1719 35.8828C36.7891 38.7343 34.5391 41.7343 32.4766 44.8046C32.375 44.9609 32.3594 45.3281 32.3594 45.3281C32.3594 45.3281 32.8828 49.3281 33.6406 52.2812C31.75 57.6796 30.0781 64.8046 30.0781 64.8046C30.0625 64.8515 30.0703 64.8984 30.1016 64.9374C30.1328 64.9765 30.1719 64.9999 30.2266 64.9999H31.2969C31.3672 64.9999 31.4219 64.9609 31.4453 64.8984L31.5156 64.6953C32.6094 61.7187 33.8516 58.7734 35.2266 55.914C35.5469 55.2499 36.2188 53.8984 36.2188 53.8984ZM51.1016 35.2812V35.0781C51.1016 35.0156 51.0625 34.9531 51 34.9374C50.9375 34.914 50.875 34.9296 50.8281 34.9843L50.6953 35.1406C45.0313 41.6953 40.2656 48.9687 36.5391 56.7578L36.4531 56.9374C36.4219 56.9921 36.4375 57.0624 36.4766 57.1093C36.5078 57.1406 36.5469 57.1562 36.5859 57.1562C36.6016 57.1562 36.625 57.1562 36.6484 57.1484L36.8359 57.0703C40.0156 55.7499 43.2656 54.6093 46.5 53.6796C46.6953 53.6249 46.8594 53.4921 46.9453 53.3124C48.3594 50.5546 51.6484 45.2109 51.6484 45.2109C51.7344 45.0937 51.7109 44.914 51.7109 44.914C51.7109 44.914 51.1328 38.5078 51.1016 35.2812ZM58.4219 26.0703C57.6172 25.3749 56.4531 25.0468 54.6406 25.0078C53 24.9687 51.0391 25.3281 48.8281 26.0546C48.4922 26.1718 48.2344 26.3515 47.9922 26.5859C45.7422 28.7031 43.5469 30.9453 41.4766 33.2578L41.3203 33.4374C41.2734 33.4843 41.2734 33.5624 41.3047 33.6171C41.3359 33.6718 41.4062 33.7031 41.4688 33.6874L41.7031 33.6406C45.0391 32.9296 48.4141 32.3828 51.7188 32.0234C51.9375 31.9999 52.1641 32.0703 52.3203 32.2187C52.4844 32.3671 52.5781 32.5781 52.5703 32.8046C52.5156 36.0859 52.6328 39.3828 52.9297 42.6015L52.9453 42.8124C52.9531 42.8749 53 42.9296 53.0625 42.9453C53.0703 42.9453 53.0859 42.9531 53.1016 42.9531C53.1484 42.9531 53.2031 42.9296 53.2344 42.8906L53.3594 42.7187C55.2188 40.0624 57.25 37.4765 59.3828 35.0312C59.625 34.7578 59.6875 34.5859 59.7266 34.3437C60.3906 30.0468 59.3516 26.8671 58.4219 26.0703Z" fill="white"/>
</svg>
