<svg width="374" height="100" viewBox="0 0 374 100" fill="none" xmlns="http://www.w3.org/2000/svg">
<g filter="url(#filter0_d_897_6731)">
<path d="M145.614 79.3855C161.843 79.0464 174.725 65.615 174.386 49.3855C174.047 33.1561 160.615 20.2744 144.386 20.6135C128.157 20.9526 115.275 34.3841 115.614 50.6135C115.953 66.843 129.385 79.7246 145.614 79.3855Z" fill="url(#paint0_linear_897_6731)"/>
</g>
<path d="M145.568 77.1819C160.58 76.8682 172.496 64.4441 172.182 49.4319C171.868 34.4196 159.444 22.5041 144.432 22.8178C129.42 23.1315 117.504 35.5556 117.818 50.5678C118.132 65.58 130.556 77.4955 145.568 77.1819Z" fill="url(#paint1_radial_897_6731)"/>
<path d="M144.616 29.4289C144.433 29.4328 144.269 29.2984 144.265 29.1147L144.165 24.3165C144.161 24.1329 144.319 23.9918 144.503 23.9879C144.686 23.9841 144.85 24.1185 144.854 24.3021L144.954 29.1003C144.935 29.2845 144.8 29.4251 144.616 29.4289Z" fill="#F3F3F3"/>
<path d="M144.621 29.4519C144.414 29.4562 144.25 29.2989 144.246 29.1152L144.146 24.317C144.142 24.1334 144.299 23.9693 144.506 23.965C144.713 23.9607 144.877 24.118 144.881 24.3017L144.981 29.0999C144.985 29.2835 144.804 29.4481 144.621 29.4519ZM144.507 24.0109C144.346 24.0143 144.188 24.1554 144.192 24.3161L144.292 29.1142C144.295 29.275 144.436 29.4098 144.62 29.406C144.78 29.4026 144.938 29.2615 144.935 29.1008L144.835 24.3026C144.808 24.1424 144.668 24.0075 144.507 24.0109Z" fill="white"/>
<path d="M146.858 26.8088C146.674 26.7897 146.533 26.6548 146.529 26.4712L146.646 24.3328C146.665 24.1486 146.822 24.0075 147.007 24.0266C147.191 24.0457 147.331 24.1806 147.335 24.3643L147.219 26.5027C147.2 26.6869 147.042 26.828 146.858 26.8088Z" fill="#F3F3F3"/>
<path d="M146.862 26.8325C146.655 26.8138 146.514 26.656 146.51 26.4724L146.626 24.3339C146.646 24.1498 146.803 23.9857 147.01 24.0044C147.217 24.023 147.358 24.1808 147.362 24.3645L147.246 26.5029C147.227 26.71 147.069 26.8511 146.862 26.8325ZM147.011 24.0503C146.85 24.0536 146.692 24.1718 146.695 24.3325L146.579 26.4709C146.583 26.6316 146.7 26.767 146.884 26.7861C147.045 26.7827 147.203 26.6646 147.2 26.5039L147.316 24.3654C147.313 24.2047 147.172 24.0699 147.011 24.0503Z" fill="white"/>
<path d="M148.644 29.7578C148.46 29.7157 148.342 29.5574 148.361 29.3732L149.204 24.6472C149.246 24.4626 149.404 24.3445 149.589 24.3865C149.773 24.4286 149.891 24.5869 149.872 24.7711L149.029 29.4971C149.01 29.6583 148.828 29.7769 148.644 29.7578Z" fill="#F3F3F3"/>
<path d="M148.645 29.7815C148.437 29.7399 148.319 29.5586 148.338 29.3745L149.181 24.6485C149.223 24.4638 149.403 24.3222 149.611 24.3638C149.819 24.4054 149.937 24.5867 149.918 24.7709L149.075 29.4969C149.033 29.6815 148.852 29.8001 148.645 29.7815ZM149.612 24.4098C149.451 24.3902 149.292 24.4854 149.249 24.647L148.407 29.373C148.387 29.5342 148.482 29.693 148.667 29.7351C148.828 29.7547 148.987 29.6595 149.029 29.4978L149.872 24.7718C149.891 24.5877 149.774 24.4523 149.612 24.4098Z" fill="white"/>
<path d="M151.357 27.6342C151.172 27.5921 151.053 27.4108 151.095 27.2262L151.626 25.148C151.668 24.9634 151.85 24.8677 152.035 24.9098C152.219 24.9519 152.338 25.1332 152.296 25.3178L151.765 27.396C151.723 27.5806 151.541 27.6763 151.357 27.6342Z" fill="#F3F3F3"/>
<path d="M151.356 27.6569C151.171 27.6148 151.029 27.411 151.094 27.2259L151.625 25.1478C151.667 24.9631 151.871 24.844 152.056 24.8861C152.24 24.9282 152.382 25.1319 152.317 25.317L151.787 27.3952C151.745 27.5798 151.563 27.6985 151.356 27.6569ZM152.057 24.955C151.896 24.9124 151.714 25.0081 151.671 25.1698L151.14 27.2479C151.098 27.4096 151.193 27.5684 151.378 27.6105C151.539 27.653 151.721 27.5574 151.764 27.3957L152.294 25.3175C152.314 25.1563 152.219 24.9975 152.057 24.955Z" fill="white"/>
<path d="M152.548 30.8479C152.363 30.7829 152.29 30.5777 152.355 30.4156L154.099 25.9463C154.165 25.7842 154.37 25.6881 154.532 25.7765C154.717 25.8416 154.79 26.0467 154.725 26.2089L152.981 30.6781C152.915 30.8403 152.711 30.9364 152.548 30.8479Z" fill="#F3F3F3"/>
<path d="M152.549 30.8705C152.364 30.8054 152.268 30.6007 152.333 30.4156L154.077 25.9464C154.142 25.7613 154.347 25.6881 154.555 25.7527C154.74 25.8177 154.836 26.0224 154.771 26.2075L153.027 30.6767C152.939 30.8623 152.735 30.9585 152.549 30.8705ZM154.533 25.7991C154.371 25.7335 154.189 25.8063 154.123 25.9684L152.379 30.4376C152.314 30.5998 152.409 30.7586 152.571 30.8241C152.733 30.8896 152.915 30.8169 152.981 30.6547L154.725 26.1855C154.768 26.0468 154.695 25.8646 154.533 25.7991Z" fill="white"/>
<path d="M155.619 29.3145C155.456 29.226 155.384 29.0438 155.449 28.8817L156.373 26.956C156.462 26.7934 156.644 26.7207 156.83 26.8087C156.992 26.8972 157.065 27.0794 157 27.2415L156.075 29.1672C155.987 29.3298 155.804 29.4025 155.619 29.3145Z" fill="#F3F3F3"/>
<path d="M155.617 29.3366C155.431 29.2486 155.358 29.0434 155.446 28.8578L156.37 26.9322C156.458 26.7466 156.663 26.6734 156.849 26.7614C157.035 26.8494 157.108 27.0546 157.02 27.2401L156.095 29.1658C156.007 29.3514 155.802 29.4246 155.617 29.3366ZM156.827 26.8078C156.665 26.7423 156.482 26.792 156.417 26.9542L155.492 28.8798C155.426 29.019 155.499 29.2012 155.639 29.2902C155.801 29.3557 155.983 29.3059 156.049 29.1438L156.973 27.2181C157.039 27.079 156.967 26.8967 156.827 26.8078Z" fill="white"/>
<path d="M156.148 32.7021C155.985 32.5906 155.934 32.385 156.046 32.2448L158.626 28.2175C158.715 28.0548 158.921 28.0276 159.084 28.116C159.247 28.2275 159.297 28.4331 159.185 28.5733L156.605 32.6006C156.516 32.7633 156.311 32.8135 156.148 32.7021Z" fill="#F3F3F3"/>
<path d="M156.147 32.7247C155.984 32.6133 155.933 32.3846 156.022 32.222L158.602 28.1947C158.713 28.0316 158.919 27.9813 159.105 28.0923C159.268 28.2037 159.319 28.4323 159.23 28.595L156.65 32.6223C156.539 32.7854 156.31 32.8361 156.147 32.7247ZM159.083 28.1387C158.943 28.0497 158.737 28.077 158.648 28.2167L156.068 32.244C155.979 32.3837 156.029 32.5664 156.169 32.6553C156.308 32.7443 156.514 32.717 156.603 32.5774L159.184 28.573C159.273 28.4333 159.223 28.2276 159.083 28.1387Z" fill="white"/>
<path d="M159.48 31.7829C159.34 31.671 159.289 31.4654 159.401 31.3252L160.698 29.6215C160.81 29.4813 161.016 29.4541 161.156 29.566C161.296 29.6779 161.347 29.8835 161.235 30.0237L159.938 31.7274C159.826 31.8676 159.62 31.8949 159.48 31.7829Z" fill="#F3F3F3"/>
<path d="M159.459 31.8056C159.295 31.6942 159.268 31.4651 159.379 31.302L160.676 29.5983C160.787 29.4351 161.016 29.4074 161.18 29.5418C161.343 29.6532 161.371 29.8823 161.259 30.0454L159.963 31.7492C159.851 31.9123 159.622 31.94 159.459 31.8056ZM161.135 29.5887C160.995 29.4767 160.812 29.5035 160.7 29.6437L159.403 31.3474C159.314 31.4871 159.341 31.6703 159.481 31.7822C159.621 31.8941 159.804 31.8673 159.916 31.7272L161.213 30.0234C161.302 29.8838 161.274 29.6776 161.135 29.5887Z" fill="white"/>
<path d="M159.322 35.2304C159.181 35.0955 159.177 34.8889 159.313 34.7712L162.64 31.3255C162.775 31.1848 162.982 31.2035 163.099 31.3159C163.216 31.4283 163.244 31.6573 163.109 31.775L159.804 35.2203C159.669 35.361 159.463 35.3653 159.322 35.2304Z" fill="#F3F3F3"/>
<path d="M159.304 35.2545C159.163 35.1196 159.158 34.89 159.293 34.7494L162.62 31.3036C162.755 31.163 162.985 31.1582 163.125 31.293C163.266 31.4279 163.271 31.6575 163.136 31.7981L159.809 35.2439C159.674 35.3845 159.444 35.3893 159.304 35.2545ZM163.103 31.3165C162.986 31.2041 162.779 31.2084 162.667 31.3256L159.34 34.7714C159.227 34.8886 159.231 35.0952 159.349 35.2076C159.466 35.32 159.672 35.3157 159.785 35.1985L163.112 31.7527C163.225 31.6355 163.221 31.4518 163.103 31.3165Z" fill="white"/>
<path d="M162.766 34.9758C162.648 34.8404 162.644 34.6338 162.779 34.5161L164.38 33.1046C164.516 32.9869 164.723 33.0056 164.841 33.1409C164.958 33.2763 164.963 33.4829 164.827 33.6006L163.226 35.0121C163.091 35.1298 162.884 35.1111 162.766 34.9758Z" fill="#F3F3F3"/>
<path d="M162.739 34.9994C162.598 34.8415 162.616 34.6115 162.752 34.4938L164.353 33.0823C164.488 32.9417 164.718 32.9598 164.859 33.1177C165 33.2755 164.982 33.5055 164.846 33.6232L163.245 35.0347C163.11 35.1754 162.88 35.1572 162.739 34.9994ZM164.813 33.1416C164.696 33.0062 164.512 33.0101 164.376 33.1048L162.775 34.5163C162.663 34.6335 162.644 34.8176 162.761 34.953C162.879 35.0883 163.063 35.0845 163.198 34.9898L164.8 33.5783C164.935 33.4606 164.931 33.2769 164.813 33.1416Z" fill="white"/>
<path d="M161.915 38.3005C161.797 38.1422 161.839 37.9347 161.997 37.8395L165.936 35.0929C166.095 34.9977 166.303 35.0393 166.397 35.1751C166.516 35.3334 166.474 35.541 166.315 35.6362L162.376 38.3828C162.24 38.4775 162.033 38.4359 161.915 38.3005Z" fill="#F3F3F3"/>
<path d="M161.891 38.3007C161.773 38.1424 161.814 37.9119 161.972 37.7937L165.911 35.0472C166.07 34.929 166.3 34.9701 166.419 35.1514C166.537 35.3097 166.496 35.5402 166.338 35.6584L162.399 38.405C162.24 38.5231 162.01 38.482 161.891 38.3007ZM166.374 35.1983C166.279 35.0624 166.095 35.0204 165.959 35.1151L162.02 37.8616C161.884 37.9563 161.842 38.141 161.96 38.2993C162.055 38.4351 162.239 38.4772 162.375 38.3825L166.314 35.6359C166.449 35.5182 166.469 35.3341 166.374 35.1983Z" fill="white"/>
<path d="M165.343 38.7116C165.248 38.5528 165.289 38.3453 165.448 38.2501L167.286 37.1551C167.444 37.06 167.653 37.1245 167.748 37.2833C167.843 37.4421 167.801 37.6497 167.643 37.7449L165.805 38.8398C165.646 38.935 165.438 38.8704 165.343 38.7116Z" fill="#F3F3F3"/>
<path d="M165.324 38.7346C165.228 38.5528 165.27 38.3453 165.429 38.2501L167.266 37.1551C167.425 37.06 167.656 37.124 167.751 37.2828C167.847 37.4646 167.805 37.6721 167.646 37.7673L165.809 38.8622C165.65 38.9574 165.419 38.8934 165.324 38.7346ZM167.729 37.3063C167.634 37.1475 167.449 37.1054 167.313 37.2001L165.476 38.295C165.34 38.3897 165.298 38.5744 165.369 38.7107C165.465 38.8694 165.649 38.9115 165.785 38.8168L167.623 37.7219C167.759 37.6501 167.801 37.4655 167.729 37.3063Z" fill="white"/>
<path d="M163.873 41.7964C163.8 41.6142 163.865 41.4291 164.048 41.3564L168.44 39.4271C168.599 39.3549 168.808 39.4424 168.88 39.6017C168.953 39.7839 168.888 39.969 168.706 40.0417L164.313 41.9709C164.154 42.0432 163.946 41.9786 163.873 41.7964Z" fill="#F3F3F3"/>
<path d="M163.849 41.8196C163.776 41.6374 163.84 41.4293 164.022 41.3336L168.415 39.4044C168.597 39.3317 168.805 39.4192 168.878 39.6014C168.951 39.7837 168.886 39.9917 168.705 40.0874L164.312 42.0166C164.13 42.0893 163.921 42.0018 163.849 41.8196ZM168.833 39.6254C168.76 39.4661 168.575 39.4011 168.439 39.4499L164.046 41.3791C163.887 41.4513 163.822 41.6364 163.894 41.7957C163.966 41.9549 164.151 42.02 164.288 41.9712L168.681 40.042C168.84 39.9697 168.905 39.7846 168.833 39.6254Z" fill="white"/>
<path d="M167.13 42.8768C167.058 42.6945 167.146 42.509 167.328 42.4363L169.334 41.7283C169.493 41.656 169.702 41.7665 169.752 41.9263C169.824 42.1085 169.736 42.2941 169.554 42.3668L167.548 43.0748C167.389 43.147 167.203 43.059 167.13 42.8768Z" fill="#F3F3F3"/>
<path d="M167.109 42.9005C167.036 42.7183 167.124 42.5098 167.329 42.4366L169.335 41.7286C169.518 41.6559 169.727 41.7663 169.799 41.9486C169.872 42.1308 169.785 42.3393 169.579 42.4125L167.573 43.1205C167.39 43.1703 167.182 43.0827 167.109 42.9005ZM169.754 41.9725C169.705 41.8127 169.519 41.7247 169.359 41.774L167.353 42.482C167.193 42.5313 167.128 42.7164 167.177 42.8761C167.227 43.0359 167.412 43.1239 167.572 43.0746L169.578 42.3666C169.738 42.2944 169.803 42.1322 169.754 41.9725Z" fill="white"/>
<path d="M165.124 45.6522C165.074 45.4695 165.185 45.2835 165.368 45.2567L170.055 44.24C170.238 44.1903 170.401 44.3247 170.451 44.5074C170.501 44.6901 170.39 44.8761 170.207 44.9029L165.52 45.9196C165.336 45.9464 165.15 45.8354 165.124 45.6522Z" fill="#F3F3F3"/>
<path d="M165.076 45.6532C165.026 45.4475 165.16 45.261 165.343 45.2113L170.03 44.1946C170.213 44.1449 170.399 44.2788 170.449 44.4844C170.5 44.6901 170.366 44.8766 170.183 44.9264L165.496 45.943C165.313 45.9928 165.127 45.8589 165.076 45.6532ZM170.404 44.5083C170.378 44.3481 170.215 44.2367 170.054 44.263L165.367 45.2797C165.207 45.306 165.096 45.492 165.145 45.6518C165.172 45.812 165.335 45.9234 165.495 45.8971L170.182 44.8805C170.342 44.8312 170.453 44.6681 170.404 44.5083Z" fill="white"/>
<path d="M168.098 47.3586C168.071 47.1755 168.183 47.0123 168.366 46.9856L170.473 46.6889C170.656 46.6621 170.819 46.7965 170.846 46.9797C170.873 47.1628 170.762 47.3259 170.578 47.3527L168.472 47.6494C168.311 47.6757 168.125 47.5418 168.098 47.3586Z" fill="#F3F3F3"/>
<path d="M168.075 47.3586C168.048 47.1525 168.182 46.966 168.365 46.9392L170.472 46.6425C170.655 46.6157 170.841 46.7496 170.869 46.9558C170.896 47.1619 170.762 47.3484 170.579 47.3752L168.472 47.6719C168.289 47.6987 168.102 47.5648 168.075 47.3586ZM170.846 46.9792C170.82 46.819 170.656 46.6846 170.496 46.7109L168.389 47.0076C168.229 47.0339 168.118 47.197 168.144 47.3572C168.17 47.5174 168.334 47.6518 168.494 47.6255L170.601 47.3288C170.761 47.3025 170.873 47.1394 170.846 46.9792Z" fill="white"/>
<path d="M165.572 49.6393C165.568 49.4556 165.702 49.292 165.886 49.2882L170.684 49.188C170.868 49.1841 171.009 49.3419 171.013 49.5256C171.016 49.7093 170.882 49.8728 170.698 49.8767L165.9 49.9769C165.717 49.9808 165.575 49.823 165.572 49.6393Z" fill="#F3F3F3"/>
<path d="M165.551 49.6388C165.546 49.4322 165.704 49.2681 165.887 49.2643L170.686 49.164C170.869 49.1602 171.033 49.3175 171.038 49.5242C171.042 49.7308 170.885 49.8948 170.701 49.8987L165.903 49.9989C165.719 50.0028 165.555 49.8454 165.551 49.6388ZM170.992 49.5481C170.989 49.3874 170.848 49.2295 170.687 49.2329L165.889 49.3332C165.728 49.3365 165.593 49.4771 165.597 49.6608C165.6 49.8215 165.742 49.9793 165.902 49.976L170.7 49.8757C170.861 49.8494 170.995 49.7088 170.992 49.5481Z" fill="white"/>
<path d="M168.171 51.9044C168.19 51.7203 168.325 51.5796 168.508 51.5758L170.647 51.6919C170.831 51.711 170.972 51.8689 170.953 52.053C170.934 52.2371 170.799 52.3778 170.615 52.3816L168.477 52.2655C168.316 52.2459 168.175 52.0881 168.171 51.9044Z" fill="#F3F3F3"/>
<path d="M168.146 51.9049C168.165 51.6978 168.322 51.5567 168.506 51.5529L170.644 51.669C170.829 51.6881 170.993 51.8454 170.974 52.0525C170.955 52.2596 170.798 52.4007 170.614 52.4046L168.475 52.2885C168.291 52.2694 168.15 52.0886 168.146 51.9049ZM170.951 52.053C170.971 51.8918 170.83 51.734 170.669 51.7374L168.53 51.6213C168.37 51.6246 168.234 51.7423 168.215 51.9264C168.196 52.0876 168.337 52.2454 168.497 52.2421L170.636 52.3582C170.797 52.3548 170.931 52.2142 170.951 52.053Z" fill="white"/>
<path d="M165.245 53.6426C165.287 53.458 165.445 53.3398 165.63 53.359L170.356 54.2019C170.54 54.244 170.658 54.4023 170.616 54.5869C170.574 54.7715 170.416 54.8897 170.232 54.8705L165.506 54.0276C165.345 54.008 165.226 53.8267 165.245 53.6426Z" fill="#F3F3F3"/>
<path d="M165.22 53.6431C165.262 53.4355 165.443 53.3169 165.627 53.336L170.353 54.1789C170.538 54.221 170.679 54.4018 170.638 54.6094C170.596 54.817 170.415 54.9356 170.231 54.9165L165.505 54.0735C165.32 54.0314 165.202 53.8502 165.22 53.6431ZM170.592 54.6103C170.611 54.4491 170.516 54.2904 170.355 54.2478L165.629 53.4049C165.467 53.3853 165.309 53.4805 165.267 53.6651C165.247 53.8263 165.342 53.9851 165.504 54.0276L170.23 54.8705C170.414 54.8897 170.549 54.772 170.592 54.6103Z" fill="white"/>
<path d="M167.367 56.3542C167.409 56.1696 167.59 56.051 167.775 56.093L169.853 56.6238C170.038 56.6659 170.133 56.8476 170.091 57.0323C170.049 57.2169 169.868 57.3355 169.683 57.2934L167.605 56.7627C167.42 56.7206 167.325 56.5388 167.367 56.3542Z" fill="#F3F3F3"/>
<path d="M167.342 56.3544C167.384 56.1697 167.588 56.0277 167.773 56.0927L169.851 56.6235C170.036 56.6656 170.155 56.8698 170.113 57.0544C170.071 57.239 169.867 57.3811 169.682 57.316L167.604 56.7853C167.419 56.7432 167.3 56.5619 167.342 56.3544ZM170.044 57.0558C170.086 56.8942 169.991 56.7124 169.829 56.6699L167.751 56.1391C167.589 56.0965 167.43 56.1917 167.388 56.3764C167.346 56.538 167.441 56.7198 167.603 56.7623L169.681 57.2931C169.842 57.3127 170.001 57.2175 170.044 57.0558Z" fill="white"/>
<path d="M164.152 57.5238C164.217 57.3387 164.422 57.2655 164.584 57.331L169.053 59.075C169.215 59.1405 169.312 59.3452 169.246 59.5074C169.181 59.6925 168.976 59.7657 168.814 59.7002L164.344 57.9561C164.159 57.8911 164.086 57.6859 164.152 57.5238Z" fill="#F3F3F3"/>
<path d="M164.129 57.5014C164.194 57.3163 164.398 57.2202 164.583 57.2852L169.053 59.0292C169.238 59.0943 169.311 59.2994 169.246 59.5075C169.181 59.6926 168.977 59.7888 168.792 59.7237L164.322 57.9797C164.137 57.8917 164.064 57.6865 164.129 57.5014ZM169.2 59.4855C169.266 59.3234 169.193 59.1411 169.031 59.0756L164.561 57.3316C164.399 57.2661 164.241 57.3613 164.175 57.5234C164.11 57.6855 164.182 57.8678 164.344 57.9333L168.814 59.6773C168.975 59.7199 169.158 59.6472 169.2 59.4855Z" fill="white"/>
<path d="M165.713 60.5917C165.801 60.4291 165.984 60.3564 166.146 60.4219L168.071 61.3463C168.234 61.4118 168.307 61.617 168.219 61.8026C168.13 61.9652 167.948 62.0379 167.786 61.9724L165.86 61.048C165.698 60.9595 165.625 60.7543 165.713 60.5917Z" fill="#F3F3F3"/>
<path d="M165.687 60.5695C165.775 60.3839 165.98 60.3107 166.166 60.3987L168.092 61.3231C168.277 61.4111 168.35 61.6163 168.262 61.8019C168.174 61.9875 167.969 62.0607 167.784 61.9727L165.858 61.0483C165.673 60.9832 165.599 60.7551 165.687 60.5695ZM168.193 61.7804C168.259 61.6182 168.209 61.4355 168.047 61.37L166.121 60.4456C165.982 60.3796 165.8 60.4523 165.711 60.592C165.645 60.7541 165.695 60.9368 165.857 61.0023L167.783 61.9268C167.945 61.9923 168.128 61.9425 168.193 61.7804Z" fill="white"/>
<path d="M162.346 61.0986C162.458 60.9355 162.64 60.8857 162.804 60.9972L166.854 63.5768C167.016 63.6653 167.044 63.8714 166.955 64.0341C166.844 64.1972 166.661 64.2469 166.498 64.1355L162.448 61.5558C162.285 61.4444 162.234 61.2387 162.346 61.0986Z" fill="#F3F3F3"/>
<path d="M162.32 61.0761C162.431 60.913 162.66 60.8623 162.822 60.9508L166.873 63.5304C167.036 63.6419 167.086 63.8475 166.975 64.0336C166.864 64.1967 166.635 64.2474 166.472 64.1589L162.422 61.5793C162.236 61.4683 162.208 61.2392 162.32 61.0761ZM166.906 64.0121C166.995 63.8724 166.967 63.6663 166.828 63.5773L162.777 60.9977C162.638 60.9087 162.455 60.9585 162.366 61.0981C162.277 61.2378 162.304 61.4439 162.444 61.5329L166.494 64.1125C166.634 64.2015 166.817 64.1517 166.906 64.0121Z" fill="white"/>
<path d="M163.266 64.4097C163.378 64.2696 163.583 64.2194 163.723 64.3313L165.427 65.6048C165.567 65.7168 165.594 65.9229 165.482 66.063C165.37 66.2032 165.165 66.2534 165.025 66.1415L163.321 64.8679C163.181 64.756 163.154 64.5499 163.266 64.4097Z" fill="#F3F3F3"/>
<path d="M163.241 64.3872C163.352 64.2241 163.581 64.1963 163.744 64.3077L165.448 65.5813C165.611 65.6927 165.638 65.9218 165.527 66.0849C165.416 66.2481 165.186 66.2758 165.023 66.1644L163.32 64.8908C163.157 64.7794 163.129 64.5503 163.241 64.3872ZM165.481 66.0629C165.593 65.9228 165.566 65.7396 165.426 65.6277L163.722 64.3541C163.583 64.2652 163.399 64.292 163.288 64.4321C163.176 64.5723 163.202 64.7554 163.343 64.8674L165.046 66.1409C165.186 66.2299 165.369 66.2031 165.481 66.0629Z" fill="white"/>
<path d="M159.838 64.2509C159.973 64.1103 160.18 64.106 160.297 64.2413L163.766 67.5451C163.906 67.68 163.888 67.8871 163.775 68.0043C163.64 68.1449 163.434 68.1492 163.316 68.0139L159.848 64.7101C159.731 64.5977 159.726 64.3681 159.838 64.2509Z" fill="#F3F3F3"/>
<path d="M159.838 64.2287C159.972 64.0881 160.202 64.0833 160.343 64.2182L163.811 67.522C163.951 67.6568 163.956 67.8864 163.821 68.027C163.687 68.1677 163.457 68.1725 163.316 68.0376L159.848 64.7338C159.685 64.5994 159.68 64.3698 159.838 64.2287ZM163.775 67.9821C163.887 67.8649 163.883 67.6583 163.765 67.5459L160.297 64.2421C160.18 64.1297 159.973 64.134 159.861 64.2512C159.749 64.3684 159.753 64.575 159.87 64.6874L163.338 67.9912C163.456 68.1266 163.64 68.1227 163.775 67.9821Z" fill="white"/>
<path d="M160.115 67.6678C160.251 67.5502 160.457 67.5459 160.575 67.6812L162.009 69.259C162.127 69.3943 162.108 69.6014 161.973 69.7191C161.837 69.8368 161.631 69.8411 161.513 69.7057L160.079 68.128C159.962 68.0156 159.98 67.8085 160.115 67.6678Z" fill="#F3F3F3"/>
<path d="M160.096 67.668C160.254 67.5269 160.461 67.5456 160.601 67.6804L162.035 69.2582C162.176 69.3931 162.158 69.6231 162 69.7642C161.842 69.9053 161.635 69.8867 161.494 69.7518L160.06 68.174C159.942 68.0157 159.937 67.7862 160.096 67.668ZM161.976 69.7188C162.111 69.6011 162.108 69.4175 162.013 69.2816L160.579 67.7039C160.462 67.5915 160.277 67.5723 160.142 67.69C160.007 67.8077 160.011 67.9913 160.105 68.1272L161.539 69.705C161.657 69.8403 161.841 69.8365 161.976 69.7188Z" fill="white"/>
<path d="M156.791 66.8646C156.95 66.7464 157.157 66.788 157.252 66.9468L159.998 70.8629C160.094 71.0216 160.052 71.2292 159.916 71.3239C159.758 71.4421 159.55 71.4005 159.455 71.2417L156.709 67.3256C156.614 67.1668 156.656 66.9593 156.791 66.8646Z" fill="#F3F3F3"/>
<path d="M156.792 66.8413C156.95 66.7232 157.181 66.7643 157.299 66.9226L160.045 70.8386C160.163 70.997 160.122 71.2275 159.941 71.3461C159.783 71.4643 159.552 71.4231 159.434 71.2648L156.688 67.3488C156.569 67.1675 156.611 66.9599 156.792 66.8413ZM159.917 71.3007C160.053 71.206 160.095 71.0213 160 70.8855L157.254 66.9695C157.159 66.8336 156.975 66.8145 156.816 66.9097C156.681 67.0044 156.638 67.189 156.733 67.3249L159.479 71.2409C159.574 71.3538 159.781 71.3954 159.917 71.3007Z" fill="white"/>
<path d="M156.381 70.2728C156.539 70.1776 156.747 70.2192 156.842 70.378L157.937 72.2155C158.032 72.3743 157.968 72.5823 157.809 72.6775C157.65 72.7727 157.443 72.7311 157.347 72.5723L156.253 70.7348C156.18 70.5755 156.222 70.368 156.381 70.2728Z" fill="#F3F3F3"/>
<path d="M156.382 70.25C156.564 70.1543 156.771 70.1959 156.866 70.3547L157.961 72.1922C158.057 72.351 158.015 72.5815 157.834 72.6772C157.652 72.7729 157.444 72.7313 157.349 72.5725L156.254 70.735C156.159 70.5762 156.201 70.3686 156.382 70.25ZM157.81 72.6547C157.946 72.56 158.011 72.3749 157.916 72.2391L156.821 70.4016C156.727 70.2658 156.542 70.2237 156.406 70.2954C156.27 70.3901 156.205 70.5752 156.3 70.7111L157.395 72.5486C157.466 72.6849 157.674 72.7494 157.81 72.6547Z" fill="white"/>
<path d="M153.297 68.8211C153.479 68.7484 153.665 68.8134 153.737 68.9727L155.689 73.3647C155.761 73.524 155.674 73.7325 155.514 73.8047C155.355 73.877 155.147 73.8124 155.075 73.6531L153.123 69.2611C153.05 69.1019 153.138 68.8933 153.297 68.8211Z" fill="#F3F3F3"/>
<path d="M153.294 68.7987C153.477 68.726 153.685 68.7906 153.78 68.9723L155.733 73.3643C155.805 73.5466 155.718 73.7551 155.536 73.8278C155.353 73.9005 155.145 73.836 155.05 73.6542L153.097 69.2622C153.025 69.103 153.113 68.8944 153.294 68.7987ZM155.489 73.7829C155.648 73.7106 155.713 73.5255 155.641 73.3892L153.689 68.9972C153.617 68.8379 153.432 68.7729 153.272 68.8451C153.113 68.9174 153.048 69.1025 153.12 69.2388L155.072 73.6308C155.167 73.7896 155.329 73.8551 155.489 73.7829Z" fill="white"/>
<path d="M152.238 72.105C152.42 72.0323 152.606 72.1203 152.678 72.3025L153.386 74.3089C153.459 74.4681 153.348 74.6772 153.188 74.7264C153.006 74.7991 152.82 74.7111 152.748 74.5289L152.04 72.5225C151.968 72.3633 152.056 72.1777 152.238 72.105Z" fill="#F3F3F3"/>
<path d="M152.214 72.0823C152.397 72.0096 152.605 72.0971 152.678 72.2793L153.386 74.2857C153.459 74.4679 153.348 74.6769 153.166 74.7496C152.984 74.8223 152.775 74.7348 152.702 74.5526L151.994 72.5462C151.945 72.3635 152.032 72.155 152.214 72.0823ZM153.165 74.7037C153.325 74.6544 153.413 74.4689 153.363 74.3091L152.655 72.3027C152.606 72.143 152.421 72.078 152.261 72.1272C152.102 72.1765 152.014 72.3621 152.063 72.5218L152.771 74.5282C152.82 74.688 153.006 74.7759 153.165 74.7037Z" fill="white"/>
<path d="M149.488 70.0717C149.67 70.0219 149.856 70.1329 149.883 70.3161L150.946 75.0023C150.995 75.185 150.861 75.3486 150.678 75.3983C150.496 75.4481 150.31 75.3371 150.283 75.1539L149.22 70.4677C149.194 70.3075 149.305 70.1214 149.488 70.0717Z" fill="#F3F3F3"/>
<path d="M149.487 70.0488C149.693 69.9986 149.879 70.1325 149.929 70.3152L150.991 75.0014C151.041 75.1841 150.908 75.3936 150.725 75.4204C150.519 75.4706 150.332 75.3367 150.283 75.154L149.22 70.4678C149.17 70.2851 149.281 70.0991 149.487 70.0488ZM150.678 75.3755C150.838 75.3491 150.949 75.186 150.923 75.0029L149.86 70.3166C149.834 70.1564 149.648 70.0455 149.488 70.0947C149.328 70.1211 149.216 70.2842 149.243 70.4673L150.306 75.1535C150.355 75.3133 150.517 75.4018 150.678 75.3755Z" fill="white"/>
<path d="M147.803 73.0923C147.986 73.0655 148.149 73.177 148.199 73.3597L148.519 75.466C148.545 75.6492 148.411 75.8128 148.228 75.8396C148.045 75.8664 147.882 75.755 147.832 75.5723L147.512 73.4659C147.485 73.2827 147.62 73.1191 147.803 73.0923Z" fill="#F3F3F3"/>
<path d="M147.804 73.07C148.011 73.0427 148.197 73.1766 148.224 73.3598L148.544 75.4661C148.57 75.6493 148.436 75.8359 148.23 75.8631C148.024 75.8904 147.838 75.7565 147.811 75.5733L147.491 73.467C147.464 73.2838 147.598 73.0972 147.804 73.07ZM148.206 75.8177C148.367 75.7914 148.501 75.6278 148.475 75.4676L148.155 73.3612C148.129 73.201 147.966 73.0896 147.805 73.1159C147.645 73.1422 147.511 73.3058 147.537 73.466L147.857 75.5724C147.883 75.7326 148.046 75.844 148.206 75.8177Z" fill="white"/>
<path d="M145.385 70.5709C145.569 70.5671 145.733 70.7015 145.736 70.8851L145.837 75.6833C145.841 75.867 145.683 76.0081 145.499 76.0119C145.315 76.0158 145.152 75.8814 145.148 75.6977L145.048 70.8995C145.067 70.7154 145.202 70.5748 145.385 70.5709Z" fill="#F3F3F3"/>
<path d="M145.387 70.548C145.593 70.5437 145.758 70.701 145.761 70.8847L145.862 75.6829C145.865 75.8665 145.708 76.0306 145.502 76.0349C145.295 76.0392 145.131 75.8819 145.127 75.6982L145.027 70.9C145.023 70.7164 145.203 70.5518 145.387 70.548ZM145.501 75.989C145.661 75.9856 145.819 75.8445 145.816 75.6838L145.715 70.8856C145.712 70.7249 145.571 70.5901 145.388 70.5939C145.227 70.5973 145.069 70.7384 145.073 70.8991L145.173 75.6973C145.199 75.8575 145.34 75.9923 145.501 75.989Z" fill="white"/>
<path d="M143.143 73.1897C143.327 73.2088 143.468 73.3437 143.472 73.5274L143.356 75.6658C143.337 75.8499 143.179 75.991 142.995 75.9719C142.811 75.9528 142.67 75.8179 142.666 75.6343L142.782 73.4958C142.801 73.3117 142.959 73.1706 143.143 73.1897Z" fill="#F3F3F3"/>
<path d="M143.145 73.1677C143.352 73.1864 143.493 73.3442 143.497 73.5279L143.381 75.6663C143.362 75.8504 143.204 76.0145 142.997 75.9959C142.79 75.9772 142.649 75.8194 142.645 75.6357L142.761 73.4973C142.78 73.2902 142.938 73.1491 143.145 73.1677ZM142.996 75.9499C143.157 75.9466 143.315 75.8284 143.312 75.6677L143.428 73.5293C143.425 73.3686 143.307 73.2333 143.123 73.2141C142.962 73.2175 142.804 73.3356 142.807 73.4963L142.691 75.6348C142.694 75.7955 142.835 75.9303 142.996 75.9499Z" fill="white"/>
<path d="M141.358 70.2416C141.543 70.2837 141.661 70.442 141.642 70.6262L140.799 75.3522C140.757 75.5368 140.598 75.655 140.414 75.6129C140.229 75.5708 140.111 75.4125 140.13 75.2284L140.973 70.5023C140.993 70.3412 141.174 70.2225 141.358 70.2416Z" fill="#F3F3F3"/>
<path d="M141.357 70.2192C141.565 70.2608 141.683 70.442 141.664 70.6262L140.821 75.3522C140.779 75.5368 140.598 75.6784 140.391 75.6368C140.183 75.5952 140.064 75.414 140.084 75.2298L140.927 70.5038C140.969 70.3192 141.15 70.2005 141.357 70.2192ZM140.39 75.5909C140.551 75.6105 140.71 75.5153 140.752 75.3536L141.595 70.6276C141.615 70.4664 141.52 70.3077 141.335 70.2656C141.174 70.246 141.015 70.3412 140.972 70.5028L140.13 75.2288C140.11 75.413 140.228 75.5483 140.39 75.5909Z" fill="white"/>
<path d="M138.648 72.3659C138.833 72.4079 138.951 72.5892 138.909 72.7738L138.378 74.852C138.336 75.0366 138.155 75.1323 137.97 75.0902C137.785 75.0482 137.667 74.8669 137.709 74.6823L138.24 72.6041C138.282 72.4195 138.463 72.3238 138.648 72.3659Z" fill="#F3F3F3"/>
<path d="M138.648 72.3431C138.832 72.3852 138.974 72.589 138.909 72.7741L138.378 74.8522C138.336 75.0369 138.132 75.156 137.947 75.1139C137.763 75.0718 137.621 74.8681 137.686 74.683L138.217 72.6048C138.259 72.4202 138.44 72.3015 138.648 72.3431ZM137.946 75.045C138.108 75.0876 138.289 74.9919 138.332 74.8303L138.863 72.7521C138.905 72.5904 138.81 72.4316 138.626 72.3895C138.464 72.347 138.282 72.4426 138.24 72.6043L137.709 74.6825C137.689 74.8437 137.784 75.0025 137.946 75.045Z" fill="white"/>
<path d="M137.455 69.1526C137.64 69.2176 137.713 69.4228 137.648 69.5849L135.904 74.0542C135.838 74.2163 135.633 74.3125 135.471 74.224C135.308 74.1355 135.213 73.9538 135.278 73.7916L137.022 69.3224C137.088 69.1602 137.292 69.0641 137.455 69.1526Z" fill="#F3F3F3"/>
<path d="M137.454 69.1287C137.639 69.1937 137.735 69.3984 137.67 69.5835L135.926 74.0528C135.861 74.2379 135.656 74.3111 135.448 74.2465C135.262 74.1815 135.166 73.9768 135.231 73.7917L136.975 69.3224C137.063 69.1369 137.268 69.0407 137.454 69.1287ZM135.47 74.2001C135.632 74.2656 135.814 74.1929 135.879 74.0308L137.624 69.5615C137.689 69.3994 137.594 69.2406 137.432 69.1751C137.27 69.1096 137.087 69.1823 137.022 69.3444L135.278 73.8137C135.235 73.9524 135.307 74.1346 135.47 74.2001Z" fill="white"/>
<path d="M134.388 70.6866C134.551 70.7751 134.624 70.9573 134.558 71.1195L133.634 73.0451C133.545 73.2077 133.363 73.2804 133.177 73.1924C133.015 73.104 132.942 72.9217 133.008 72.7596L133.932 70.834C134.021 70.6713 134.203 70.5986 134.388 70.6866Z" fill="#F3F3F3"/>
<path d="M134.384 70.6628C134.57 70.7507 134.643 70.9559 134.555 71.1415L133.631 73.0672C133.543 73.2527 133.337 73.3259 133.152 73.2379C132.966 73.1499 132.893 72.9448 132.981 72.7592L133.905 70.8335C133.993 70.648 134.199 70.5748 134.384 70.6628ZM133.174 73.1915C133.336 73.2571 133.519 73.2073 133.584 73.0452L134.509 71.1195C134.575 70.9803 134.502 70.7981 134.362 70.7091C134.2 70.6436 134.017 70.6934 133.952 70.8555L133.027 72.7812C132.961 72.9204 133.034 73.1026 133.174 73.1915Z" fill="white"/>
<path d="M133.857 67.298C134.02 67.4094 134.071 67.6151 133.959 67.7552L131.379 71.7826C131.29 71.9452 131.084 71.9725 130.921 71.884C130.758 71.7726 130.708 71.5669 130.82 71.4267L133.4 67.3994C133.489 67.2368 133.694 67.1865 133.857 67.298Z" fill="#F3F3F3"/>
<path d="M133.857 67.2749C134.02 67.3863 134.071 67.615 133.982 67.7776L131.402 71.8049C131.291 71.968 131.085 72.0183 130.899 71.9073C130.736 71.7959 130.685 71.5673 130.774 71.4046L133.354 67.3773C133.465 67.2142 133.694 67.1635 133.857 67.2749ZM130.921 71.8609C131.061 71.9499 131.267 71.9226 131.356 71.7829L133.936 67.7556C134.025 67.6159 133.975 67.4332 133.835 67.3443C133.696 67.2553 133.49 67.2826 133.401 67.4222L130.82 71.4266C130.731 71.5663 130.781 71.772 130.921 71.8609Z" fill="white"/>
<path d="M130.523 68.2173C130.663 68.3292 130.714 68.5349 130.602 68.6751L129.305 70.3788C129.193 70.5189 128.987 70.5462 128.847 70.4343C128.707 70.3224 128.657 70.1167 128.769 69.9766L130.065 68.2728C130.177 68.1327 130.383 68.1054 130.523 68.2173Z" fill="#F3F3F3"/>
<path d="M130.545 68.1941C130.708 68.3056 130.736 68.5347 130.624 68.6978L129.328 70.4015C129.216 70.5646 128.987 70.5924 128.824 70.458C128.661 70.3465 128.633 70.1174 128.744 69.9543L130.041 68.2506C130.152 68.0875 130.381 68.0597 130.545 68.1941ZM128.869 70.4111C129.009 70.523 129.192 70.4962 129.304 70.3561L130.601 68.6523C130.689 68.5127 130.663 68.3295 130.523 68.2176C130.382 68.1057 130.199 68.1325 130.087 68.2726L128.791 69.9763C128.702 70.116 128.729 70.3221 128.869 70.4111Z" fill="white"/>
<path d="M130.681 64.7698C130.821 64.9046 130.825 65.1113 130.69 65.2289L127.363 68.6747C127.228 68.8153 127.021 68.7967 126.904 68.6843C126.787 68.5719 126.759 68.3428 126.894 68.2251L130.198 64.7798C130.333 64.6392 130.54 64.6349 130.681 64.7698Z" fill="#F3F3F3"/>
<path d="M130.704 64.7452C130.844 64.8801 130.849 65.1096 130.714 65.2503L127.387 68.6961C127.252 68.8367 127.022 68.8415 126.882 68.7066C126.741 68.5717 126.736 68.3422 126.871 68.2015L130.199 64.7557C130.333 64.6151 130.563 64.6103 130.704 64.7452ZM126.904 68.6832C127.022 68.7956 127.228 68.7912 127.341 68.6741L130.668 65.2283C130.78 65.1111 130.776 64.9045 130.659 64.7921C130.541 64.6797 130.335 64.684 130.222 64.8012L126.895 68.247C126.783 68.3642 126.787 68.5478 126.904 68.6832Z" fill="white"/>
<path d="M127.241 65.0247C127.359 65.1601 127.363 65.3667 127.228 65.4843L125.626 66.8959C125.491 67.0135 125.284 66.9949 125.166 66.8596C125.049 66.7242 125.044 66.5176 125.18 66.3999L126.781 64.9884C126.916 64.8707 127.123 64.8894 127.241 65.0247Z" fill="#F3F3F3"/>
<path d="M127.263 65.0014C127.404 65.1593 127.386 65.3893 127.251 65.507L125.65 66.9185C125.515 67.0591 125.285 67.041 125.144 66.8832C125.002 66.7253 125.021 66.4953 125.156 66.3776L126.757 64.9661C126.892 64.8255 127.122 64.8436 127.263 65.0014ZM125.189 66.8592C125.307 66.9946 125.49 66.9908 125.626 66.896L127.227 65.4845C127.34 65.3673 127.359 65.1832 127.241 65.0478C127.124 64.9125 126.94 64.9163 126.804 65.011L125.203 66.4226C125.067 66.5402 125.071 66.7239 125.189 66.8592Z" fill="white"/>
<path d="M128.089 61.6995C128.207 61.8579 128.165 62.0654 128.007 62.1606L124.068 64.9072C123.909 65.0024 123.701 64.9608 123.607 64.825C123.488 64.6667 123.53 64.4591 123.689 64.3639L127.628 61.6173C127.764 61.5226 127.971 61.5642 128.089 61.6995Z" fill="#F3F3F3"/>
<path d="M128.11 61.6992C128.228 61.8575 128.187 62.0881 128.029 62.2062L124.09 64.9528C123.932 65.071 123.701 65.0298 123.582 64.8486C123.464 64.6903 123.505 64.4597 123.664 64.3416L127.603 61.595C127.761 61.4769 127.992 61.518 128.11 61.6992ZM123.627 64.8017C123.722 64.9375 123.907 64.9796 124.043 64.8849L127.982 62.1383C128.117 62.0436 128.159 61.859 128.041 61.7007C127.947 61.5649 127.762 61.5228 127.626 61.6175L123.687 64.3641C123.552 64.4817 123.533 64.6659 123.627 64.8017Z" fill="white"/>
<path d="M124.66 61.2892C124.755 61.4479 124.713 61.6555 124.555 61.7507L122.717 62.8456C122.558 62.9408 122.35 62.8763 122.255 62.7175C122.16 62.5587 122.202 62.3511 122.36 62.2559L124.198 61.161C124.357 61.0658 124.565 61.1304 124.66 61.2892Z" fill="#F3F3F3"/>
<path d="M124.683 61.2652C124.778 61.447 124.737 61.6546 124.578 61.7498L122.741 62.8447C122.582 62.9399 122.351 62.8758 122.256 62.717C122.16 62.5353 122.202 62.3277 122.36 62.2325L124.198 61.1376C124.357 61.0424 124.588 61.1065 124.683 61.2652ZM122.278 62.6936C122.373 62.8523 122.558 62.8944 122.694 62.7997L124.531 61.7048C124.667 61.6101 124.709 61.4255 124.637 61.2892C124.542 61.1304 124.358 61.0883 124.222 61.183L122.384 62.2779C122.248 62.3497 122.206 62.5343 122.278 62.6936Z" fill="white"/>
<path d="M126.132 58.2034C126.205 58.3856 126.14 58.5707 125.958 58.6434L121.565 60.5726C121.406 60.6449 121.197 60.5573 121.125 60.3981C121.052 60.2159 121.117 60.0308 121.3 59.958L125.692 58.0288C125.851 57.9566 126.059 58.0212 126.132 58.2034Z" fill="#F3F3F3"/>
<path d="M126.155 58.1796C126.228 58.3618 126.164 58.5699 125.982 58.6655L121.589 60.5947C121.407 60.6674 121.199 60.5799 121.126 60.3977C121.053 60.2155 121.118 60.0074 121.299 59.9117L125.692 57.9825C125.874 57.9098 126.083 57.9973 126.155 58.1796ZM121.171 60.3738C121.244 60.533 121.429 60.5981 121.565 60.5493L125.958 58.6201C126.117 58.5479 126.182 58.3628 126.11 58.2035C126.038 58.0442 125.853 57.9792 125.716 58.028L121.323 59.9572C121.164 60.0294 121.099 60.2145 121.171 60.3738Z" fill="white"/>
<path d="M122.873 57.1231C122.946 57.3053 122.858 57.4909 122.675 57.5636L120.669 58.2716C120.51 58.3438 120.301 58.2333 120.251 58.0736C120.179 57.8914 120.267 57.7058 120.449 57.6331L122.455 56.9251C122.615 56.8528 122.8 56.9408 122.873 57.1231Z" fill="#F3F3F3"/>
<path d="M122.895 57.0992C122.968 57.2815 122.88 57.49 122.675 57.5632L120.669 58.2712C120.486 58.3439 120.277 58.2334 120.205 58.0512C120.132 57.869 120.219 57.6604 120.425 57.5872L122.431 56.8793C122.614 56.8295 122.822 56.917 122.895 57.0992ZM120.25 58.0273C120.299 58.187 120.485 58.275 120.645 58.2257L122.651 57.5178C122.811 57.4685 122.876 57.2834 122.826 57.1236C122.777 56.9639 122.592 56.8759 122.432 56.9252L120.426 57.6332C120.266 57.7054 120.201 57.8675 120.25 58.0273Z" fill="white"/>
<path d="M124.883 54.3481C124.932 54.5308 124.821 54.7168 124.638 54.7436L119.951 55.7603C119.768 55.81 119.605 55.6756 119.555 55.4929C119.505 55.3102 119.616 55.1242 119.799 55.0974L124.487 54.0807C124.67 54.0539 124.856 54.1649 124.883 54.3481Z" fill="#F3F3F3"/>
<path d="M124.928 54.3467C124.978 54.5524 124.844 54.7389 124.662 54.7887L119.974 55.8053C119.792 55.8551 119.605 55.7212 119.555 55.5155C119.505 55.3099 119.639 55.1233 119.821 55.0736L124.509 54.0569C124.691 54.0072 124.878 54.1411 124.928 54.3467ZM119.6 55.4916C119.627 55.6518 119.79 55.7633 119.95 55.7369L124.637 54.7203C124.797 54.694 124.908 54.5079 124.859 54.3482C124.833 54.1879 124.67 54.0765 124.509 54.1028L119.822 55.1195C119.663 55.1688 119.551 55.3319 119.6 55.4916Z" fill="white"/>
<path d="M121.909 52.6408C121.935 52.824 121.824 52.9871 121.641 53.0139L119.534 53.3105C119.351 53.3373 119.187 53.2029 119.16 53.0198C119.134 52.8366 119.245 52.6735 119.428 52.6467L121.535 52.35C121.695 52.3237 121.882 52.4576 121.909 52.6408Z" fill="#F3F3F3"/>
<path d="M121.929 52.6413C121.957 52.8474 121.823 53.034 121.639 53.0608L119.533 53.3574C119.349 53.3842 119.163 53.2503 119.136 53.0442C119.108 52.8381 119.242 52.6515 119.425 52.6247L121.532 52.3281C121.715 52.3013 121.902 52.4352 121.929 52.6413ZM119.158 53.0208C119.184 53.181 119.348 53.3154 119.508 53.2891L121.615 52.9924C121.775 52.9661 121.887 52.803 121.86 52.6427C121.834 52.4825 121.67 52.3481 121.51 52.3744L119.403 52.6711C119.243 52.6974 119.132 52.8605 119.158 53.0208Z" fill="white"/>
<path d="M124.429 50.3606C124.433 50.5442 124.298 50.7078 124.114 50.7116L119.316 50.8119C119.133 50.8157 118.992 50.6579 118.988 50.4742C118.984 50.2906 119.118 50.127 119.302 50.1232L124.1 50.0229C124.284 50.0191 124.425 50.1769 124.429 50.3606Z" fill="#F3F3F3"/>
<path d="M124.456 50.3601C124.46 50.5667 124.302 50.7308 124.119 50.7346L119.321 50.8349C119.137 50.8387 118.973 50.6814 118.969 50.4747C118.964 50.2681 119.122 50.1041 119.305 50.1002L124.103 50C124.287 49.9961 124.451 50.1535 124.456 50.3601ZM119.014 50.4508C119.017 50.6115 119.159 50.7694 119.319 50.766L124.117 50.6657C124.278 50.6624 124.413 50.5218 124.409 50.3381C124.406 50.1774 124.265 50.0196 124.104 50.0229L119.306 50.1232C119.146 50.1495 119.011 50.2901 119.014 50.4508Z" fill="white"/>
<path d="M121.832 48.0949C121.813 48.2791 121.678 48.4197 121.495 48.4235L119.356 48.3074C119.172 48.2883 119.031 48.1305 119.05 47.9464C119.069 47.7622 119.204 47.6216 119.388 47.6178L121.526 47.7338C121.688 47.7534 121.829 47.9113 121.832 48.0949Z" fill="#E2E2E2"/>
<path d="M121.857 48.0945C121.838 48.3016 121.681 48.4427 121.497 48.4465L119.358 48.3304C119.174 48.3113 119.01 48.154 119.029 47.9469C119.048 47.7398 119.205 47.5987 119.389 47.5948L121.527 47.7109C121.712 47.73 121.853 47.9108 121.857 48.0945ZM119.052 47.9464C119.032 48.1076 119.173 48.2654 119.334 48.262L121.473 48.3781C121.633 48.3748 121.769 48.2571 121.788 48.073C121.807 47.9118 121.666 47.7539 121.505 47.7573L119.367 47.6412C119.206 47.6446 119.071 47.7852 119.052 47.9464Z" fill="white"/>
<path d="M124.761 46.3577C124.719 46.5424 124.56 46.6605 124.376 46.6414L119.65 45.7755C119.465 45.7334 119.347 45.5751 119.389 45.3905C119.431 45.2059 119.589 45.0877 119.774 45.1068L124.5 45.9498C124.661 45.9923 124.78 46.1736 124.761 46.3577Z" fill="#F3F3F3"/>
<path d="M124.784 46.3573C124.743 46.5649 124.562 46.6835 124.377 46.6644L119.651 45.8214C119.467 45.7794 119.325 45.5986 119.367 45.391C119.408 45.1834 119.59 45.0648 119.774 45.0839L124.5 45.9269C124.684 45.9689 124.803 46.1502 124.784 46.3573ZM119.413 45.39C119.393 45.5512 119.488 45.71 119.65 45.7526L124.376 46.5955C124.537 46.6151 124.696 46.5199 124.738 46.3353C124.758 46.1741 124.662 46.0153 124.501 45.9728L119.775 45.1298C119.591 45.1107 119.455 45.2284 119.413 45.39Z" fill="white"/>
<path d="M122.636 43.6465C122.594 43.8311 122.413 43.9498 122.228 43.9077L120.15 43.3769C119.965 43.3348 119.87 43.1531 119.912 42.9685C119.954 42.7838 120.135 42.6652 120.32 42.7073L122.398 43.2381C122.583 43.2802 122.678 43.4619 122.636 43.6465Z" fill="#F3F3F3"/>
<path d="M122.66 43.6452C122.618 43.8298 122.414 43.9719 122.229 43.9069L120.15 43.3761C119.966 43.334 119.847 43.1298 119.889 42.9452C119.931 42.7606 120.135 42.6185 120.32 42.6835L122.398 43.2143C122.583 43.2564 122.701 43.4376 122.66 43.6452ZM119.958 42.9437C119.915 43.1054 120.011 43.2871 120.172 43.3297L122.251 43.8605C122.412 43.903 122.571 43.8078 122.613 43.6232C122.656 43.4616 122.56 43.2798 122.398 43.2373L120.32 42.7065C120.159 42.6869 120 42.7821 119.958 42.9437Z" fill="white"/>
<path d="M125.852 42.4762C125.787 42.6613 125.582 42.7345 125.42 42.669L120.951 40.9249C120.789 40.8594 120.692 40.6547 120.758 40.4926C120.823 40.3075 121.028 40.2343 121.19 40.2998L125.66 42.0438C125.845 42.1089 125.918 42.3141 125.852 42.4762Z" fill="#F3F3F3"/>
<path d="M125.875 42.4987C125.81 42.6838 125.606 42.78 125.421 42.7149L120.951 40.9709C120.766 40.9059 120.693 40.7007 120.758 40.4926C120.823 40.3075 121.027 40.2114 121.212 40.2764L125.682 42.0204C125.867 42.1084 125.94 42.3136 125.875 42.4987ZM120.804 40.5146C120.738 40.6768 120.811 40.859 120.973 40.9245L125.443 42.6685C125.605 42.7341 125.763 42.6389 125.829 42.4767C125.894 42.3146 125.822 42.1324 125.66 42.0668L121.19 40.3228C121.029 40.2802 120.847 40.3529 120.804 40.5146Z" fill="white"/>
<path d="M124.293 39.4081C124.205 39.5707 124.022 39.6434 123.86 39.5779L121.935 38.6535C121.772 38.5879 121.699 38.3828 121.787 38.1972C121.876 38.0346 122.058 37.9618 122.22 38.0274L124.146 38.9518C124.308 39.0402 124.382 39.2454 124.293 39.4081Z" fill="#F3F3F3"/>
<path d="M124.315 39.4308C124.227 39.6164 124.022 39.6896 123.836 39.6016L121.911 38.6772C121.725 38.5892 121.652 38.384 121.74 38.1984C121.828 38.0128 122.033 37.9396 122.219 38.0276L124.144 38.952C124.33 39.0171 124.403 39.2452 124.315 39.4308ZM121.809 38.2199C121.744 38.3821 121.794 38.5648 121.956 38.6303L123.881 39.5547C124.021 39.6207 124.203 39.548 124.292 39.4083C124.357 39.2462 124.308 39.0635 124.145 38.998L122.197 38.074C122.058 38.008 121.875 38.0578 121.809 38.2199Z" fill="white"/>
<path d="M127.66 38.9014C127.549 39.0645 127.366 39.1143 127.203 39.0029L123.176 36.4457C123.013 36.3572 122.986 36.1511 123.075 35.9885C123.163 35.8258 123.369 35.7756 123.532 35.887L127.582 38.4667C127.722 38.5556 127.772 38.7613 127.66 38.9014Z" fill="#F3F3F3"/>
<path d="M127.682 38.9239C127.571 39.087 127.342 39.1377 127.179 39.0492L123.152 36.4691C122.989 36.3576 122.939 36.152 123.05 35.9659C123.161 35.8028 123.39 35.7521 123.552 35.8406L127.58 38.4207C127.766 38.5317 127.793 38.7607 127.682 38.9239ZM123.096 35.9879C123.007 36.1276 123.034 36.3337 123.174 36.4227L127.224 39.0023C127.364 39.0913 127.547 39.0415 127.636 38.9019C127.725 38.7622 127.697 38.556 127.558 38.4671L123.507 35.8875C123.368 35.7985 123.185 35.8483 123.096 35.9879Z" fill="white"/>
<path d="M126.74 35.5904C126.628 35.7305 126.422 35.7808 126.282 35.6689L124.579 34.3953C124.439 34.2834 124.412 34.0772 124.524 33.9371C124.635 33.7969 124.841 33.7467 124.981 33.8586L126.685 35.1322C126.825 35.2441 126.852 35.4502 126.74 35.5904Z" fill="#F3F3F3"/>
<path d="M126.765 35.6133C126.654 35.7764 126.425 35.8041 126.262 35.6927L124.558 34.4191C124.395 34.3077 124.368 34.0786 124.479 33.9155C124.59 33.7524 124.82 33.7246 124.983 33.8361L126.686 35.1096C126.849 35.2211 126.877 35.4502 126.765 35.6133ZM124.525 33.9375C124.413 34.0776 124.44 34.2608 124.58 34.3727L126.284 35.6463C126.423 35.7353 126.607 35.7085 126.718 35.5683C126.83 35.4282 126.804 35.245 126.663 35.1331L124.96 33.8595C124.82 33.7705 124.637 33.7973 124.525 33.9375Z" fill="white"/>
<path d="M130.163 35.7478C130.028 35.8884 129.821 35.8927 129.703 35.7574L126.212 32.454C126.071 32.3192 126.09 32.1121 126.203 31.9949C126.337 31.8543 126.544 31.8499 126.662 31.9853L130.13 35.2891C130.27 35.401 130.275 35.6306 130.163 35.7478Z" fill="#F3F3F3"/>
<path d="M130.166 35.7715C130.031 35.9122 129.801 35.917 129.66 35.7821L126.192 32.4783C126.052 32.3434 126.047 32.1138 126.182 31.9732C126.317 31.8326 126.546 31.8278 126.687 31.9627L130.155 35.2665C130.319 35.4009 130.323 35.6304 130.166 35.7715ZM126.229 32.0182C126.116 32.1354 126.12 32.342 126.238 32.4544L129.706 35.7582C129.823 35.8706 130.03 35.8663 130.142 35.7491C130.254 35.6319 130.25 35.4253 130.133 35.3129L126.664 31.9861C126.547 31.8737 126.363 31.8776 126.229 32.0182Z" fill="white"/>
<path d="M129.887 32.3314C129.751 32.4491 129.545 32.4534 129.427 32.318L127.993 30.7403C127.875 30.6049 127.894 30.3978 128.029 30.2801C128.165 30.1625 128.371 30.1582 128.489 30.2935L129.923 31.8713C130.04 31.9837 130.022 32.1908 129.887 32.3314Z" fill="#F3F3F3"/>
<path d="M129.91 32.3314C129.752 32.4725 129.545 32.4539 129.404 32.319L127.97 30.7412C127.829 30.6064 127.848 30.3763 128.005 30.2352C128.163 30.0941 128.37 30.1127 128.511 30.2476L129.945 31.8254C130.063 31.9837 130.068 32.2133 129.91 32.3314ZM128.029 30.2806C127.894 30.3983 127.898 30.582 127.993 30.7178L129.427 32.2956C129.544 32.408 129.728 32.4271 129.863 32.3094C129.999 32.1918 129.995 32.0081 129.9 31.8723L128.466 30.2945C128.348 30.1591 128.165 30.163 128.029 30.2806Z" fill="white"/>
<path d="M133.211 33.1359C133.052 33.2541 132.845 33.2125 132.75 33.0537L129.981 29.1381C129.885 28.9793 129.927 28.7718 130.063 28.6771C130.221 28.5589 130.429 28.6005 130.524 28.7593L133.27 32.6754C133.388 32.8337 133.347 33.0412 133.211 33.1359Z" fill="#F3F3F3"/>
<path d="M133.21 33.1586C133.052 33.2768 132.822 33.2356 132.703 33.0773L129.957 29.1613C129.839 29.003 129.88 28.7724 130.062 28.6538C130.22 28.5357 130.45 28.5768 130.569 28.7351L133.315 32.6511C133.433 32.8324 133.392 33.04 133.21 33.1586ZM130.085 28.6992C129.95 28.794 129.908 28.9786 130.002 29.1144L132.748 33.0305C132.843 33.1663 133.027 33.1854 133.186 33.0902C133.322 32.9955 133.364 32.8109 133.269 32.6751L130.524 28.782C130.429 28.6461 130.221 28.6045 130.085 28.6992Z" fill="white"/>
<path d="M133.626 29.7271C133.467 29.8223 133.259 29.7807 133.164 29.6219L132.069 27.7844C131.974 27.6256 132.039 27.4176 132.197 27.3224C132.356 27.2272 132.564 27.2688 132.659 27.4276L133.754 29.2651C133.826 29.4243 133.785 29.6319 133.626 29.7271Z" fill="#F3F3F3"/>
<path d="M133.625 29.7505C133.443 29.8461 133.235 29.8045 133.14 29.6457L132.045 27.8082C131.95 27.6494 131.991 27.4189 132.173 27.3232C132.355 27.2276 132.562 27.2692 132.657 27.428L133.752 29.2655C133.848 29.4243 133.806 29.6318 133.625 29.7505ZM132.196 27.3457C132.061 27.4404 131.995 27.6255 132.09 27.7614L133.185 29.5989C133.28 29.7347 133.464 29.7768 133.601 29.705C133.737 29.6103 133.802 29.4252 133.707 29.2894L132.612 27.4519C132.54 27.3156 132.332 27.251 132.196 27.3457Z" fill="white"/>
<path d="M136.708 31.1788C136.526 31.2515 136.34 31.1864 136.268 31.0272L134.316 26.6352C134.244 26.4759 134.331 26.2674 134.491 26.1951C134.673 26.1224 134.858 26.1874 134.93 26.3467L136.882 30.7387C136.955 30.898 136.867 31.1065 136.708 31.1788Z" fill="#F3F3F3"/>
<path d="M136.709 31.2018C136.527 31.2745 136.319 31.21 136.223 31.0282L134.271 26.6362C134.199 26.454 134.286 26.2455 134.468 26.1728C134.651 26.1001 134.859 26.1646 134.954 26.3464L136.906 30.7384C136.979 30.8976 136.891 31.1062 136.709 31.2018ZM134.515 26.2177C134.356 26.29 134.291 26.4751 134.363 26.6114L136.315 31.0034C136.387 31.1626 136.572 31.2277 136.731 31.1554C136.891 31.0832 136.956 30.8981 136.884 30.7618L134.932 26.3698C134.837 26.211 134.674 26.1455 134.515 26.2177Z" fill="white"/>
<path d="M137.764 27.8951C137.582 27.9678 137.396 27.8798 137.323 27.6976L136.615 25.6912C136.543 25.532 136.653 25.323 136.813 25.2737C136.973 25.2244 137.181 25.289 137.254 25.4712L137.962 27.4776C138.034 27.6368 137.946 27.8224 137.764 27.8951Z" fill="#F3F3F3"/>
<path d="M137.788 27.9184C137.605 27.9911 137.397 27.9036 137.324 27.7214L136.616 25.715C136.544 25.5328 136.654 25.3238 136.836 25.251C137.018 25.1783 137.227 25.2658 137.3 25.4481L138.008 27.4544C138.057 27.6372 137.97 27.8457 137.788 27.9184ZM136.837 25.297C136.677 25.3462 136.589 25.5318 136.639 25.6916L137.347 27.6979C137.396 27.8577 137.581 27.9227 137.741 27.8734C137.901 27.8242 137.989 27.6386 137.939 27.4788L137.231 25.4725C137.182 25.3127 136.996 25.2247 136.837 25.297Z" fill="white"/>
<path d="M140.518 29.9285C140.336 29.9782 140.15 29.8673 140.123 29.6841L139.06 24.9979C139.01 24.8152 139.145 24.6516 139.328 24.6018C139.51 24.5521 139.696 24.663 139.723 24.8462L140.786 29.5324C140.812 29.6926 140.701 29.8787 140.518 29.9285Z" fill="#F3F3F3"/>
<path d="M140.516 29.9517C140.311 30.0019 140.124 29.868 140.074 29.6853L139.012 24.9991C138.962 24.8164 139.096 24.6069 139.279 24.5801C139.484 24.5299 139.671 24.6638 139.721 24.8465L140.783 29.5327C140.833 29.7154 140.722 29.9015 140.516 29.9517ZM139.326 24.6251C139.165 24.6514 139.054 24.8145 139.081 24.9977L140.143 29.6839C140.17 29.8441 140.356 29.955 140.515 29.9058C140.676 29.8795 140.787 29.7164 140.76 29.5332L139.698 24.847C139.648 24.6872 139.486 24.5987 139.326 24.6251Z" fill="white"/>
<path d="M142.199 26.907C142.015 26.9338 141.852 26.8223 141.803 26.6396L141.483 24.5333C141.456 24.3501 141.59 24.1865 141.774 24.1597C141.957 24.1329 142.12 24.2443 142.17 24.427L142.489 26.5334C142.516 26.7166 142.382 26.8802 142.199 26.907Z" fill="#F3F3F3"/>
<path d="M142.201 26.9295C141.995 26.9568 141.808 26.8229 141.782 26.6397L141.462 24.5334C141.435 24.3502 141.569 24.1636 141.775 24.1364C141.981 24.1091 142.168 24.243 142.195 24.4262L142.514 26.5325C142.541 26.7157 142.407 26.9023 142.201 26.9295ZM141.799 24.1818C141.639 24.2081 141.504 24.3717 141.531 24.5319L141.85 26.6383C141.877 26.7985 142.04 26.9099 142.2 26.8836C142.36 26.8573 142.495 26.6937 142.468 26.5335L142.149 24.4271C142.122 24.2669 141.959 24.1555 141.799 24.1818Z" fill="white"/>
<path d="M145.73 77.1555C160.742 76.8418 172.658 64.4177 172.344 49.4055C172.03 34.3933 159.606 22.4777 144.594 22.7914C129.582 23.1051 117.666 35.5292 117.98 50.5414C118.294 65.5536 130.718 77.4692 145.73 77.1555Z" fill="url(#paint2_linear_897_6731)" fill-opacity="0.2"/>
<g filter="url(#filter1_d_897_6731)">
<path d="M163.624 32.339L141.993 46.8473L141.97 46.8478L141.971 46.8707L141.948 46.8942L128.737 69.7476L148.51 53.1421L148.532 53.1187L148.532 53.0957L163.624 32.339Z" fill="black" fill-opacity="0.05"/>
</g>
<path d="M163.186 31.0394L141.836 46.8969L148.397 53.1448L163.186 31.0394Z" fill="#CD151E"/>
<path d="M141.856 46.85L145.16 49.9735L163.184 31.0389L141.856 46.85Z" fill="#FA5153"/>
<path d="M141.859 46.8495L148.421 53.0974L127.07 68.9549L141.859 46.8495Z" fill="#ACACAC"/>
<path d="M127.07 68.9549L145.163 49.973L141.859 46.8495L127.07 68.9549Z" fill="#EEEEEE"/>
<path d="M181.054 57.8896L185.029 59.0473C186.34 59.3305 187.672 59.3305 188.962 58.8944C190.055 58.5169 190.841 57.8248 191.037 56.6443C191.256 55.3985 190.884 54.2848 189.792 53.6241C188.699 52.9634 187.498 52.5104 186.362 51.9422C185.27 51.396 184.112 50.9153 183.129 50.1948C179.329 47.3772 179.7 41.9376 183.821 39.6C186.246 38.2239 188.846 38.115 191.511 38.5731C192.391 38.726 193.258 39.0324 194.109 39.2942C194.525 39.4251 194.699 39.6875 194.525 40.1751C194.197 41.1145 193.935 42.0754 193.644 42.9928C192.42 42.687 191.284 42.3006 190.148 42.1622C189.143 42.0527 188.095 42.1402 187.112 42.3371C186.019 42.5775 185.233 43.2986 185.036 44.4777C184.861 45.6575 185.364 46.5749 186.347 47.1425C187.331 47.71 188.357 48.1473 189.384 48.6274C190.411 49.1296 191.503 49.5669 192.486 50.1564C194.751 51.5546 195.85 53.6518 195.61 56.3228C195.392 58.9876 193.993 60.9161 191.547 61.9367C187.921 63.4657 184.295 63.1599 180.712 61.7184C180.252 61.5435 180.1 61.2591 180.252 60.779C180.536 59.8175 180.799 58.8126 181.039 57.8952L181.054 57.8896ZM207.749 60.8381L206.963 61.4497C204.887 63.0007 202.621 63.416 200.213 62.4112C196.689 60.9262 196.15 55.9453 199.165 53.4322C201.065 51.8591 203.359 51.4659 205.718 51.2916C205.871 51.2695 206.024 51.2916 206.177 51.2916C207.466 51.2475 207.662 50.914 207.117 49.7185C206.593 48.5607 205.305 47.8837 203.593 48.1241C202.347 48.299 201.125 48.7357 199.901 49.0635C199.726 49.1075 199.574 49.1944 199.312 49.2818C199.049 48.4009 198.766 47.5779 198.591 46.748C198.547 46.573 198.896 46.2238 199.137 46.0923C201.016 45.1969 203.003 44.8251 205.057 44.9566C205.996 45.022 206.979 45.1315 207.853 45.4373C210.431 46.3547 211.501 48.4299 211.763 51.0078C211.851 51.9906 211.828 52.9741 211.828 53.9349V62.52C210.78 62.52 209.563 62.542 208.355 62.498C208.224 62.498 208.049 62.1708 207.978 61.9518C207.868 61.6687 207.825 61.3402 207.737 60.8381H207.749ZM207.487 55.7263C207.487 55.3991 207.531 55.0707 207.465 54.7435C207.421 54.5472 207.202 54.2414 207.071 54.2193C205.454 54.1753 203.838 54.2634 202.506 55.3551C201.588 56.0976 201.37 57.4523 201.916 58.5226C202.375 59.44 203.423 59.8767 204.625 59.6583C206.591 59.2808 207.487 58.0418 207.487 55.7263ZM226.301 49.3334L225.58 46.843C225.536 46.6467 225.82 46.2748 226.039 46.1659C227.874 45.2265 229.839 44.9201 231.872 44.9427C232.325 44.9392 232.777 44.9684 233.226 45.0302C236.655 45.5109 238.709 47.8478 238.797 51.4306L238.927 60.9111C238.927 61.4132 238.993 61.916 239.037 62.5282C237.814 62.5282 236.612 62.5502 235.411 62.5062C235.258 62.5062 235.061 62.2004 234.995 62.0041C234.886 61.6982 234.842 61.3484 234.733 60.8683C234.406 61.1307 234.165 61.2836 233.946 61.4579C231.871 63.0089 229.605 63.4242 227.218 62.4193C225.427 61.6769 224.45 60.2133 224.269 58.2916C224.073 55.9541 224.946 54.1199 226.956 52.8803C228.682 51.8107 230.647 51.4602 232.635 51.3073C232.984 51.2853 233.327 51.2632 233.683 51.2853C234.273 51.2853 234.405 51.0021 234.339 50.4547C234.164 49.2969 233.422 48.4884 232.176 48.2487C230.517 47.8994 228.943 48.2487 227.392 48.8603C227.065 48.9911 226.759 49.1434 226.3 49.341L226.301 49.3334ZM234.493 55.7766C234.493 55.4274 234.537 55.0556 234.471 54.7284C234.427 54.532 234.209 54.2476 234.056 54.2476C232.483 54.2036 230.932 54.3131 229.621 55.2959C228.682 55.9881 228.398 57.4151 228.9 58.5068C229.337 59.4242 230.385 59.8829 231.587 59.6866C233.553 59.3091 234.492 58.0481 234.492 55.7766H234.493ZM224.852 40.8566L223.367 40.6602C221.772 40.5508 220.745 41.2498 220.374 42.8009C220.243 43.3904 220.199 43.9806 220.156 44.5922C220.112 45.1164 220.374 45.3133 220.877 45.2844H223.28C223.674 45.2844 223.914 45.3725 223.892 45.8306V48.6702H221.353C220.173 48.6702 220.173 48.6702 220.173 49.8934V61.4931C220.173 61.8203 220.129 62.1267 220.108 62.5414C218.754 62.5414 217.443 62.5634 216.154 62.5194C216.001 62.5194 215.776 62.257 215.738 62.0601C215.673 61.7977 215.716 61.5139 215.716 61.2295V49.7632C215.716 48.6495 215.716 48.6709 214.647 48.6495C213.314 48.6274 213.401 48.8678 213.401 47.4036V45.8966C213.379 45.4373 213.576 45.285 214.012 45.263C215.672 45.1976 215.672 45.1749 215.804 43.4508C216.022 40.3047 217.704 38.0553 220.479 37.2845C221.812 36.9069 223.166 37.0013 224.521 37.2625C225.045 37.3719 225.213 37.64 225.154 38.1578C225.001 39.0532 224.936 39.9272 224.848 40.8446L224.852 40.8566ZM246.333 47.9718L246.858 47.1853C247.927 45.7003 249.326 44.8697 251.199 44.9352C251.723 44.9572 251.986 45.1101 251.964 45.6776V49.151L251.002 49.1069C248.818 48.9974 247.289 50.1766 246.852 52.3178C246.721 52.9294 246.677 53.5637 246.677 54.1967V62.5194C245.279 62.5194 243.925 62.5194 242.592 62.4974C242.483 62.4974 242.309 62.301 242.265 62.1702C242.199 61.9518 242.221 61.7335 242.221 61.4931L242.111 45.9828C242.111 45.4807 242.242 45.2617 242.788 45.2617H245.279C245.847 45.2397 246.021 45.4801 246.021 46.0262L246.109 47.9265C246.175 47.9265 246.262 47.9485 246.328 47.9705L246.333 47.9718ZM253.694 53.8915L253.672 46.137C253.672 45.4813 253.847 45.2416 254.524 45.2561H257.451C257.953 45.234 258.194 45.409 258.172 45.9331V61.9015C258.172 62.3382 258.02 62.5351 257.561 62.5131C256.513 62.4911 255.442 62.469 254.393 62.5131C253.738 62.5351 253.651 62.2299 253.651 61.6825L253.695 53.884L253.694 53.8915ZM255.938 42.9261C254.474 42.9261 253.492 41.9866 253.492 40.5665C253.492 39.1463 254.519 38.1415 255.982 38.1415C257.402 38.1635 258.407 39.1684 258.407 40.5665C258.407 41.9646 257.402 42.9261 255.938 42.9261Z" fill="#000008"/>
<defs>
<filter id="filter0_d_897_6731" x="114.659" y="20.1334" width="60.6814" height="60.6805" filterUnits="userSpaceOnUse" color-interpolation-filters="sRGB">
<feFlood flood-opacity="0" result="BackgroundImageFix"/>
<feColorMatrix in="SourceAlpha" type="matrix" values="0 0 0 0 0 0 0 0 0 0 0 0 0 0 0 0 0 0 127 0" result="hardAlpha"/>
<feOffset dy="0.474071"/>
<feGaussianBlur stdDeviation="0.474071"/>
<feColorMatrix type="matrix" values="0 0 0 0 0 0 0 0 0 0 0 0 0 0 0 0 0 0 0.266007 0"/>
<feBlend mode="normal" in2="BackgroundImageFix" result="effect1_dropShadow_897_6731"/>
<feBlend mode="normal" in="SourceGraphic" in2="effect1_dropShadow_897_6731" result="shape"/>
</filter>
<filter id="filter1_d_897_6731" x="127.788" y="31.6278" width="36.785" height="39.3055" filterUnits="userSpaceOnUse" color-interpolation-filters="sRGB">
<feFlood flood-opacity="0" result="BackgroundImageFix"/>
<feColorMatrix in="SourceAlpha" type="matrix" values="0 0 0 0 0 0 0 0 0 0 0 0 0 0 0 0 0 0 127 0" result="hardAlpha"/>
<feOffset dy="0.237035"/>
<feGaussianBlur stdDeviation="0.474071"/>
<feColorMatrix type="matrix" values="0 0 0 0 0 0 0 0 0 0 0 0 0 0 0 0 0 0 1 0"/>
<feBlend mode="normal" in2="BackgroundImageFix" result="effect1_dropShadow_897_6731"/>
<feBlend mode="normal" in="SourceGraphic" in2="effect1_dropShadow_897_6731" result="shape"/>
</filter>
<linearGradient id="paint0_linear_897_6731" x1="145.614" y1="79.3855" x2="144.386" y2="20.6135" gradientUnits="userSpaceOnUse">
<stop offset="0.25" stop-color="#DBDBDA"/>
<stop offset="1" stop-color="white"/>
</linearGradient>
<radialGradient id="paint1_radial_897_6731" cx="0" cy="0" r="1" gradientUnits="userSpaceOnUse" gradientTransform="translate(148.695 43.9491) rotate(-1.197) scale(33.1865 33.1865)">
<stop stop-color="#2ABCE1"/>
<stop offset="0.113629" stop-color="#2ABBE1"/>
<stop offset="1" stop-color="#3375F8"/>
</radialGradient>
<linearGradient id="paint2_linear_897_6731" x1="144.483" y1="42.2121" x2="132.272" y2="65.2385" gradientUnits="userSpaceOnUse">
<stop stop-opacity="0"/>
<stop offset="1"/>
</linearGradient>
</defs>
</svg>
