<svg width="90" height="90" viewBox="0 0 90 90" fill="none" xmlns="http://www.w3.org/2000/svg">
<g filter="url(#filter0_d_897_6725)">
<path d="M45.8184 84.1817C67.4575 83.7295 84.6329 65.8209 84.1807 44.1817C83.7286 22.5424 65.8201 5.36688 44.181 5.81902C22.5419 6.27116 5.36653 24.1798 5.81867 45.819C6.27081 67.4583 24.1793 84.6338 45.8184 84.1817Z" fill="url(#paint0_linear_897_6725)"/>
</g>
<path d="M45.757 81.2428C65.7731 80.8246 81.6604 64.2591 81.2422 44.2428C80.8239 24.2265 64.2586 8.33914 44.2425 8.75737C24.2263 9.1756 8.33904 25.7411 8.75727 45.7574C9.1755 65.7737 25.7408 81.661 45.757 81.2428Z" fill="url(#paint1_radial_897_6725)"/>
<path d="M44.4896 17.5722C44.2448 17.5773 44.0267 17.3982 44.0215 17.1533L43.8879 10.7557C43.8827 10.5108 44.0932 10.3227 44.3381 10.3176C44.5829 10.3124 44.801 10.4916 44.8062 10.7365L44.9398 17.1341C44.9143 17.3796 44.7345 17.5671 44.4896 17.5722Z" fill="#F3F3F3"/>
<path d="M44.4942 17.6025C44.2187 17.6083 43.9999 17.3985 43.9948 17.1536L43.8612 10.756C43.856 10.5111 44.0658 10.2924 44.3413 10.2866C44.6168 10.2809 44.8356 10.4907 44.8407 10.7356L44.9744 17.1331C44.9795 17.378 44.7391 17.5974 44.4942 17.6025ZM44.3426 10.3479C44.1283 10.3523 43.9179 10.5405 43.9224 10.7548L44.056 17.1523C44.0605 17.3666 44.248 17.5464 44.4929 17.5413C44.7072 17.5368 44.9176 17.3487 44.9131 17.1344L44.7795 10.7368C44.7444 10.5232 44.5569 10.3434 44.3426 10.3479Z" fill="white"/>
<path d="M47.4787 14.0791C47.2331 14.0536 47.0456 13.8738 47.0405 13.6289L47.1953 10.7777C47.2208 10.5321 47.4312 10.344 47.6768 10.3695C47.9223 10.395 48.1098 10.5748 48.1149 10.8197L47.9601 13.6709C47.9346 13.9165 47.7242 14.1046 47.4787 14.0791Z" fill="#F3F3F3"/>
<path d="M47.4832 14.11C47.2071 14.0851 47.0189 13.8747 47.0138 13.6298L47.1686 10.7786C47.1941 10.533 47.4039 10.3143 47.68 10.3391C47.9562 10.364 48.1443 10.5744 48.1494 10.8193L47.9946 13.6706C47.9698 13.9467 47.7593 14.1348 47.4832 14.11ZM47.6813 10.4004C47.467 10.4048 47.256 10.5624 47.2604 10.7766L47.1056 13.6279C47.1101 13.8422 47.267 14.0226 47.5125 14.0481C47.7268 14.0436 47.9379 13.8861 47.9334 13.6718L48.0882 10.8206C48.0837 10.6063 47.8962 10.4265 47.6813 10.4004Z" fill="white"/>
<path d="M49.8584 18.011C49.6122 17.9549 49.4547 17.7438 49.4802 17.4983L50.6041 11.197C50.6602 10.9508 50.8713 10.7933 51.1174 10.8494C51.3636 10.9055 51.5211 11.1165 51.4956 11.3621L50.3717 17.6634C50.3456 17.8783 50.1039 18.0365 49.8584 18.011Z" fill="#F3F3F3"/>
<path d="M49.8609 18.0416C49.5842 17.9862 49.426 17.7445 49.4515 17.499L50.5754 11.1976C50.6315 10.9515 50.8725 10.7627 51.1493 10.8181C51.4261 10.8736 51.5843 11.1153 51.5588 11.3608L50.4349 17.6622C50.3788 17.9083 50.1371 18.0665 49.8609 18.0416ZM51.1506 10.8794C50.9357 10.8532 50.724 10.9801 50.6672 11.1957L49.5433 17.4971C49.5172 17.712 49.6441 17.9237 49.8903 17.9798C50.1052 18.0059 50.3169 17.879 50.3736 17.6634L51.4975 11.3621C51.523 11.1166 51.3661 10.9361 51.1506 10.8794Z" fill="white"/>
<path d="M53.4768 15.1789C53.2306 15.1228 53.0725 14.8811 53.1286 14.635L53.8363 11.864C53.8924 11.6179 54.1347 11.4903 54.3808 11.5464C54.627 11.6025 54.7852 11.8442 54.7291 12.0904L54.0214 14.8613C53.9653 15.1075 53.723 15.235 53.4768 15.1789Z" fill="#F3F3F3"/>
<path d="M53.4749 15.2095C53.2288 15.1534 53.0393 14.8817 53.1261 14.6349L53.8337 11.864C53.8898 11.6178 54.1621 11.459 54.4083 11.5151C54.6545 11.5712 54.8439 11.8429 54.7572 12.0897L54.0495 14.8606C53.9934 15.1068 53.7517 15.2649 53.4749 15.2095ZM54.4102 11.607C54.1947 11.5502 53.9523 11.6778 53.8956 11.8933L53.1879 14.6643C53.1312 14.8798 53.2581 15.0915 53.5042 15.1476C53.7198 15.2044 53.9621 15.0768 54.0189 14.8613L54.7266 12.0903C54.7527 11.8754 54.6258 11.6637 54.4102 11.607Z" fill="white"/>
<path d="M55.0654 19.4642C54.8186 19.3775 54.721 19.104 54.8084 18.8878L57.1338 12.9288C57.2211 12.7126 57.4941 12.5844 57.7109 12.7024C57.9577 12.7891 58.0553 13.0627 57.9679 13.2788L55.6425 19.2378C55.5552 19.454 55.2823 19.5822 55.0654 19.4642Z" fill="#F3F3F3"/>
<path d="M55.0652 19.4946C54.8184 19.4079 54.6902 19.135 54.777 18.8882L57.1023 12.9292C57.1891 12.6824 57.4626 12.5848 57.74 12.6709C57.9868 12.7576 58.115 13.0305 58.0283 13.2773L55.7029 19.2363C55.5856 19.4837 55.3127 19.6119 55.0652 19.4946ZM57.7107 12.7327C57.4945 12.6454 57.2515 12.7423 57.1642 12.9585L54.8388 18.9175C54.7515 19.1337 54.8784 19.3454 55.0946 19.4327C55.3108 19.5201 55.5537 19.4232 55.6411 19.207L57.9665 13.248C58.0238 13.063 57.9269 12.8201 57.7107 12.7327Z" fill="white"/>
<path d="M59.1578 17.419C58.941 17.3011 58.8441 17.0581 58.9314 16.8419L60.164 14.2744C60.2819 14.0575 60.5249 13.9606 60.7723 14.0779C60.9892 14.1959 61.0861 14.4389 60.9987 14.655L59.7662 17.2226C59.6482 17.4394 59.4053 17.5363 59.1578 17.419Z" fill="#F3F3F3"/>
<path d="M59.1548 17.4491C58.9074 17.3318 58.8098 17.0582 58.9271 16.8107L60.1597 14.2432C60.277 13.9958 60.5506 13.8982 60.798 14.0155C61.0455 14.1328 61.143 14.4064 61.0257 14.6538L59.7932 17.2214C59.6759 17.4688 59.4023 17.5664 59.1548 17.4491ZM60.7687 14.0774C60.5525 13.99 60.3089 14.0563 60.2215 14.2725L58.989 16.8401C58.901 17.0256 58.998 17.2686 59.1842 17.3872C59.4004 17.4746 59.644 17.4082 59.7313 17.192L60.9639 14.6245C61.0519 14.4389 60.9549 14.196 60.7687 14.0774Z" fill="white"/>
<path d="M59.8643 21.9364C59.6468 21.7878 59.5798 21.5136 59.729 21.3267L63.1691 15.957C63.2871 15.7401 63.562 15.7038 63.7788 15.8217C63.9963 15.9703 64.0632 16.2445 63.914 16.4314L60.4739 21.8012C60.3559 22.018 60.0817 22.085 59.8643 21.9364Z" fill="#F3F3F3"/>
<path d="M59.864 21.9669C59.6466 21.8183 59.579 21.5135 59.6969 21.2967L63.1371 15.9269C63.2856 15.7094 63.5598 15.6424 63.8079 15.7904C64.0254 15.9389 64.093 16.2438 63.975 16.4606L60.5349 21.8304C60.3863 22.0479 60.0815 22.1155 59.864 21.9669ZM63.7786 15.8522C63.5924 15.7336 63.3175 15.77 63.1989 15.9562L59.7588 21.326C59.6402 21.5122 59.7065 21.7558 59.8927 21.8744C60.079 21.993 60.3538 21.9567 60.4724 21.7705L63.9132 16.4313C64.0318 16.2451 63.9648 15.9708 63.7786 15.8522Z" fill="white"/>
<path d="M64.3078 20.7103C64.1209 20.561 64.054 20.2868 64.2032 20.1L65.9319 17.8283C66.0811 17.6415 66.3559 17.6051 66.5428 17.7543C66.7297 17.9035 66.7966 18.1777 66.6474 18.3646L64.9187 20.6362C64.7695 20.8231 64.4947 20.8595 64.3078 20.7103Z" fill="#F3F3F3"/>
<path d="M64.2794 20.7412C64.0619 20.5926 64.0249 20.2871 64.1735 20.0697L65.9022 17.798C66.0508 17.5805 66.3562 17.5435 66.5743 17.7227C66.7918 17.8713 66.8288 18.1767 66.6802 18.3942L64.9515 20.6659C64.803 20.8833 64.4975 20.9203 64.2794 20.7412ZM66.5144 17.7852C66.3275 17.636 66.0833 17.6717 65.9341 17.8586L64.2054 20.1302C64.0868 20.3165 64.1225 20.5607 64.3094 20.7099C64.4962 20.8591 64.7405 20.8234 64.8897 20.6365L66.6184 18.3649C66.737 18.1787 66.7006 17.9038 66.5144 17.7852Z" fill="white"/>
<path d="M64.0968 25.3079C63.9093 25.128 63.9036 24.8525 64.084 24.6956L68.5203 20.1013C68.7001 19.9138 68.9763 19.9386 69.1325 20.0885C69.2888 20.2383 69.3258 20.5438 69.1453 20.7007L64.7396 25.2944C64.5598 25.4819 64.2843 25.4877 64.0968 25.3079Z" fill="#F3F3F3"/>
<path d="M64.071 25.3393C63.8835 25.1595 63.8771 24.8533 64.0569 24.6658L68.4932 20.0715C68.673 19.884 68.9791 19.8776 69.1666 20.0574C69.3541 20.2372 69.3605 20.5433 69.1807 20.7308L64.7444 25.3252C64.5646 25.5127 64.2585 25.5191 64.071 25.3393ZM69.1366 20.0886C68.9804 19.9388 68.7049 19.9445 68.5551 20.1008L64.1188 24.6952C63.9689 24.8514 63.9747 25.1269 64.1309 25.2768C64.2872 25.4266 64.5627 25.4209 64.7125 25.2646L69.1488 20.6702C69.2987 20.514 69.2935 20.2691 69.1366 20.0886Z" fill="white"/>
<path d="M68.6879 24.9674C68.531 24.7869 68.5252 24.5114 68.7057 24.3545L70.8406 22.4725C71.0211 22.3156 71.2972 22.3404 71.4541 22.5209C71.611 22.7014 71.6168 22.9769 71.4363 23.1338L69.3014 25.0158C69.1209 25.1727 68.8448 25.1478 68.6879 24.9674Z" fill="#F3F3F3"/>
<path d="M68.653 24.9992C68.4648 24.7887 68.489 24.482 68.6695 24.3251L70.8045 22.4431C70.9843 22.2556 71.291 22.2798 71.4792 22.4902C71.6673 22.7006 71.6431 23.0074 71.4626 23.1643L69.3277 25.0463C69.1478 25.2338 68.8411 25.2096 68.653 24.9992ZM71.4186 22.5221C71.2617 22.3416 71.0168 22.3468 70.8357 22.473L68.7008 24.3551C68.5509 24.5113 68.5254 24.7568 68.6823 24.9373C68.8392 25.1178 69.0841 25.1127 69.2652 24.9864L71.4001 23.1043C71.5806 22.9474 71.5755 22.7026 71.4186 22.5221Z" fill="white"/>
<path d="M67.5542 29.4007C67.3967 29.1896 67.4521 28.9129 67.6638 28.786L72.9158 25.1239C73.1275 24.9969 73.4043 25.0524 73.5306 25.2335C73.6881 25.4446 73.6326 25.7214 73.4209 25.8483L68.169 29.5104C67.9879 29.6367 67.7111 29.5812 67.5542 29.4007Z" fill="#F3F3F3"/>
<path d="M67.5227 29.4016C67.3652 29.1905 67.42 28.8831 67.6311 28.7256L72.883 25.0635C73.0941 24.906 73.4015 24.9608 73.5597 25.2025C73.7172 25.4136 73.6624 25.721 73.4513 25.8785L68.1993 29.5406C67.9882 29.6981 67.6808 29.6433 67.5227 29.4016ZM73.4997 25.265C73.3734 25.0839 73.1273 25.0278 72.9462 25.1541L67.6942 28.8162C67.5131 28.9424 67.457 29.1886 67.6145 29.3997C67.7408 29.5808 67.987 29.6369 68.1681 29.5106L73.42 25.8485C73.6005 25.6916 73.626 25.4461 73.4997 25.265Z" fill="white"/>
<path d="M72.1253 29.9488C71.9984 29.7371 72.0538 29.4603 72.2656 29.3334L74.7156 27.8735C74.9273 27.7466 75.2047 27.8327 75.3316 28.0444C75.4585 28.2561 75.4031 28.5329 75.1913 28.6598L72.7413 30.1197C72.5296 30.2466 72.2522 30.1605 72.1253 29.9488Z" fill="#F3F3F3"/>
<path d="M72.0986 29.9794C71.971 29.7371 72.0265 29.4603 72.2382 29.3334L74.6882 27.8735C74.8999 27.7466 75.2079 27.832 75.3349 28.0438C75.4624 28.2861 75.407 28.5629 75.1952 28.6898L72.7452 30.1497C72.5335 30.2766 72.2255 30.1911 72.0986 29.9794ZM75.3049 28.075C75.178 27.8633 74.9318 27.8072 74.7507 27.9335L72.3007 29.3934C72.1196 29.5196 72.0635 29.7658 72.1592 29.9475C72.2861 30.1593 72.5322 30.2154 72.7134 30.0891L75.1634 28.6292C75.3451 28.5335 75.4012 28.2874 75.3049 28.075Z" fill="white"/>
<path d="M70.1633 34.0625C70.0664 33.8195 70.1531 33.5727 70.3961 33.4758L76.2527 30.9035C76.465 30.8072 76.7431 30.9239 76.8394 31.1362C76.9363 31.3792 76.8496 31.626 76.6067 31.723L70.7501 34.2952C70.5377 34.3915 70.2603 34.3055 70.1633 34.0625Z" fill="#F3F3F3"/>
<path d="M70.1314 34.0931C70.0345 33.8501 70.1205 33.5727 70.3629 33.4452L76.2195 30.8729C76.4624 30.7759 76.7405 30.8926 76.8374 31.1356C76.9344 31.3785 76.8483 31.656 76.606 31.7835L70.7494 34.3558C70.5064 34.4527 70.2284 34.3361 70.1314 34.0931ZM76.7768 31.1675C76.6805 30.9551 76.4337 30.8684 76.2514 30.9335L70.3948 33.5057C70.1824 33.602 70.0957 33.8488 70.192 34.0612C70.2883 34.2736 70.5351 34.3603 70.7175 34.2952L76.5741 31.7229C76.7864 31.6266 76.8732 31.3798 76.7768 31.1675Z" fill="white"/>
<path d="M74.5071 35.5027C74.4101 35.2597 74.5274 35.0123 74.7704 34.9153L77.4456 33.9713C77.6579 33.875 77.9366 34.0223 78.0023 34.2353C78.0992 34.4783 77.9819 34.7257 77.739 34.8227L75.0638 35.7667C74.8515 35.863 74.604 35.7457 74.5071 35.5027Z" fill="#F3F3F3"/>
<path d="M74.48 35.534C74.3831 35.2911 74.4998 35.013 74.7733 34.9154L77.4485 33.9714C77.6914 33.8745 77.9701 34.0218 78.0671 34.2648C78.164 34.5077 78.0473 34.7858 77.7738 34.8834L75.0986 35.8273C74.855 35.8937 74.577 35.777 74.48 35.534ZM78.0065 34.2966C77.9408 34.0836 77.6934 33.9663 77.4804 34.032L74.8052 34.976C74.5922 35.0417 74.5055 35.2885 74.5712 35.5015C74.6369 35.7145 74.8843 35.8318 75.0973 35.7661L77.7725 34.8221C77.9848 34.7258 78.0722 34.5096 78.0065 34.2966Z" fill="white"/>
<path d="M71.8315 39.2027C71.7651 38.9591 71.9131 38.711 72.1573 38.6753L78.4068 37.3197C78.6504 37.2534 78.8685 37.4326 78.9348 37.6762C79.0012 37.9198 78.8532 38.1679 78.609 38.2036L72.3595 39.5591C72.1153 39.5948 71.8672 39.4469 71.8315 39.2027Z" fill="#F3F3F3"/>
<path d="M71.7686 39.2043C71.7016 38.9301 71.8802 38.6813 72.1238 38.615L78.3733 37.2595C78.6169 37.1931 78.8656 37.3717 78.9326 37.6459C78.9995 37.9201 78.821 38.1688 78.5774 38.2352L72.3279 39.5907C72.0843 39.657 71.8356 39.4785 71.7686 39.2043ZM78.872 37.6778C78.8369 37.4642 78.6194 37.3156 78.4058 37.3507L72.1563 38.7062C71.9427 38.7413 71.7947 38.9894 71.8604 39.2024C71.8955 39.416 72.113 39.5646 72.3266 39.5295L78.5761 38.174C78.7891 38.1083 78.9377 37.8908 78.872 37.6778Z" fill="white"/>
<path d="M75.7966 41.4782C75.7609 41.2339 75.9095 41.0165 76.1537 40.9807L78.9628 40.5852C79.207 40.5494 79.4252 40.7286 79.4609 40.9729C79.4966 41.2171 79.348 41.4346 79.1038 41.4703L76.2947 41.8659C76.0811 41.901 75.8323 41.7224 75.7966 41.4782Z" fill="#F3F3F3"/>
<path d="M75.7661 41.4788C75.7297 41.204 75.9083 40.9553 76.1525 40.9195L78.9616 40.524C79.2059 40.4883 79.4546 40.6668 79.4909 40.9417C79.5273 41.2165 79.3488 41.4652 79.1045 41.501L76.2954 41.8965C76.0512 41.9322 75.8025 41.7537 75.7661 41.4788ZM79.461 40.9729C79.4259 40.7593 79.2078 40.5801 78.9941 40.6152L76.185 41.0107C75.9714 41.0458 75.8228 41.2633 75.8579 41.4769C75.893 41.6906 76.1111 41.8697 76.3248 41.8347L79.1339 41.4391C79.3475 41.404 79.4961 41.1865 79.461 40.9729Z" fill="white"/>
<path d="M72.4295 44.5187C72.4244 44.2738 72.6036 44.0557 72.8485 44.0506L79.246 43.9169C79.4909 43.9118 79.679 44.1223 79.6841 44.3671C79.6892 44.612 79.5101 44.8301 79.2652 44.8353L72.8677 44.9689C72.6228 44.974 72.4346 44.7636 72.4295 44.5187Z" fill="#F3F3F3"/>
<path d="M72.4009 44.5191C72.3951 44.2436 72.6049 44.0248 72.8498 44.0197L79.2473 43.886C79.4922 43.8809 79.7109 44.0907 79.7167 44.3662C79.7224 44.6417 79.5127 44.8604 79.2678 44.8656L72.8702 44.9992C72.6254 45.0044 72.4066 44.7946 72.4009 44.5191ZM79.6561 44.3981C79.6516 44.1838 79.4635 43.9734 79.2492 43.9779L72.8517 44.1115C72.6374 44.116 72.4576 44.3035 72.4627 44.5484C72.4672 44.7627 72.6553 44.9731 72.8696 44.9686L79.2671 44.835C79.4808 44.7999 79.6606 44.6124 79.6561 44.3981Z" fill="white"/>
<path d="M75.8937 47.5399C75.9192 47.2944 76.099 47.1069 76.3439 47.1017L79.1951 47.2565C79.4407 47.282 79.6288 47.4925 79.6033 47.738C79.5778 47.9835 79.398 48.171 79.1531 48.1761L76.3019 48.0213C76.087 47.9952 75.8988 47.7848 75.8937 47.5399Z" fill="#F3F3F3"/>
<path d="M75.8612 47.5402C75.886 47.2641 76.0964 47.0759 76.3413 47.0708L79.1925 47.2256C79.4381 47.2511 79.6568 47.4609 79.632 47.737C79.6071 48.0132 79.3967 48.2013 79.1518 48.2064L76.3006 48.0516C76.055 48.0261 75.8663 47.7851 75.8612 47.5402ZM79.6014 47.7377C79.6275 47.5228 79.4393 47.3123 79.2251 47.3168L76.3739 47.162C76.1596 47.1665 75.9791 47.3234 75.9536 47.5689C75.9275 47.7838 76.1156 47.9943 76.3299 47.9898L79.1811 48.1446C79.3954 48.1401 79.5752 47.9526 79.6014 47.7377Z" fill="white"/>
<path d="M71.9941 49.8565C72.0502 49.6103 72.2613 49.4528 72.5068 49.4783L78.8081 50.6022C79.0542 50.6583 79.2118 50.8694 79.1557 51.1155C79.0996 51.3617 78.8885 51.5192 78.643 51.4937L72.3417 50.3698C72.1268 50.3437 71.9686 50.102 71.9941 49.8565Z" fill="#F3F3F3"/>
<path d="M71.9615 49.8578C72.017 49.581 72.2586 49.4228 72.5042 49.4483L78.8055 50.5722C79.0516 50.6283 79.2404 50.8694 79.1849 51.1462C79.1295 51.4229 78.8878 51.5811 78.6423 51.5556L72.341 50.4317C72.0948 50.3756 71.9366 50.1339 71.9615 49.8578ZM79.1237 51.1474C79.1499 50.9325 79.0229 50.7208 78.8074 50.6641L72.5061 49.5402C72.2912 49.514 72.0795 49.6409 72.0234 49.8871C71.9972 50.102 72.1241 50.3137 72.3397 50.3705L78.641 51.4944C78.8865 51.5199 79.067 51.363 79.1237 51.1474Z" fill="white"/>
<path d="M74.8217 53.472C74.8779 53.2258 75.1195 53.0676 75.3657 53.1237L78.1366 53.8314C78.3828 53.8875 78.5103 54.1299 78.4542 54.376C78.3981 54.6222 78.1564 54.7803 77.9103 54.7242L75.1394 54.0165C74.8932 53.9604 74.7656 53.7181 74.8217 53.472Z" fill="#F3F3F3"/>
<path d="M74.7906 53.4728C74.8467 53.2266 75.1183 53.0372 75.3651 53.1239L78.136 53.8316C78.3822 53.8877 78.541 54.16 78.4849 54.4062C78.4288 54.6524 78.1571 54.8418 77.9103 54.7551L75.1394 54.0474C74.8933 53.9913 74.7351 53.7496 74.7906 53.4728ZM78.3931 54.4081C78.4498 54.1926 78.3223 53.9502 78.1067 53.8935L75.3358 53.1858C75.1202 53.129 74.9085 53.256 74.8524 53.5021C74.7957 53.7177 74.9232 53.96 75.1388 54.0167L77.9097 54.7244C78.1246 54.7506 78.3363 54.6237 78.3931 54.4081Z" fill="white"/>
<path d="M70.5369 55.032C70.6236 54.7852 70.8972 54.6876 71.1133 54.775L77.0723 57.1004C77.2885 57.1877 77.4167 57.4607 77.3293 57.6769C77.2426 57.9237 76.969 58.0212 76.7528 57.9339L70.7939 55.6085C70.5471 55.5218 70.4495 55.2482 70.5369 55.032Z" fill="#F3F3F3"/>
<path d="M70.5062 55.0015C70.5929 54.7547 70.8658 54.6265 71.1126 54.7133L77.0715 57.0386C77.3183 57.1254 77.4159 57.3989 77.3299 57.6764C77.2431 57.9232 76.9702 58.0514 76.7234 57.9646L70.7645 55.6392C70.517 55.5219 70.4195 55.2483 70.5062 55.0015ZM77.268 57.647C77.3554 57.4308 77.2584 57.1879 77.0422 57.1005L71.0833 54.7751C70.8671 54.6878 70.6554 54.8147 70.568 55.0309C70.4807 55.2471 70.5776 55.49 70.7938 55.5774L76.7527 57.9028C76.9683 57.9595 77.2113 57.8626 77.268 57.647Z" fill="white"/>
<path d="M72.6167 59.1226C72.7347 58.9058 72.9776 58.8088 73.1938 58.8962L75.7613 60.1287C75.9775 60.2161 76.0751 60.4897 75.9578 60.7371C75.8398 60.9539 75.5969 61.0509 75.3807 60.9635L72.8131 59.731C72.5963 59.613 72.4987 59.3394 72.6167 59.1226Z" fill="#F3F3F3"/>
<path d="M72.583 59.0923C72.7004 58.8449 72.9739 58.7473 73.2214 58.8646L75.7889 60.0972C76.0363 60.2145 76.1339 60.4881 76.0166 60.7355C75.8993 60.983 75.6257 61.0806 75.3783 60.9632L72.8107 59.7307C72.5639 59.644 72.4657 59.3398 72.583 59.0923ZM75.9241 60.7068C76.0115 60.4906 75.9451 60.247 75.7289 60.1597L73.1614 58.9271C72.9759 58.8391 72.7329 58.9361 72.6143 59.1223C72.5269 59.3385 72.5933 59.5821 72.8095 59.6695L75.377 60.902C75.5932 60.9894 75.8368 60.923 75.9241 60.7068Z" fill="white"/>
<path d="M68.1284 59.7985C68.277 59.581 68.5206 59.5146 68.7381 59.6632L74.1384 63.1027C74.3553 63.2207 74.3916 63.4956 74.2737 63.7124C74.1251 63.9299 73.8815 63.9962 73.664 63.8476L68.2636 60.4081C68.0462 60.2595 67.9792 59.9853 68.1284 59.7985Z" fill="#F3F3F3"/>
<path d="M68.0941 59.7682C68.2427 59.5507 68.5475 59.4831 68.7644 59.6011L74.1647 63.0406C74.3822 63.1892 74.4492 63.4634 74.3012 63.7115C74.1527 63.9289 73.8479 63.9965 73.631 63.8786L68.2307 60.4391C67.9826 60.2911 67.9456 59.9857 68.0941 59.7682ZM74.2088 63.6828C74.3274 63.4965 74.291 63.2217 74.1048 63.1031L68.7044 59.6636C68.5182 59.545 68.2746 59.6113 68.156 59.7975C68.0374 59.9837 68.0738 60.2586 68.26 60.3772L73.6604 63.8167C73.8466 63.9353 74.0902 63.869 74.2088 63.6828Z" fill="white"/>
<path d="M69.3537 64.2127C69.5029 64.0258 69.7771 63.9588 69.964 64.108L72.235 65.8061C72.4218 65.9554 72.4582 66.2302 72.309 66.4171C72.1598 66.6039 71.8856 66.6709 71.6987 66.5217L69.4277 64.8236C69.2408 64.6744 69.2045 64.3995 69.3537 64.2127Z" fill="#F3F3F3"/>
<path d="M69.3222 64.1835C69.4708 63.9661 69.7763 63.9291 69.9937 64.0776L72.2647 65.7757C72.4822 65.9243 72.5192 66.2298 72.3706 66.4472C72.2221 66.6647 71.9166 66.7017 71.6991 66.5532L69.4281 64.855C69.2107 64.7065 69.1737 64.401 69.3222 64.1835ZM72.3088 66.4179C72.458 66.2311 72.4223 65.9868 72.2354 65.8376L69.9644 64.1395C69.7782 64.0209 69.5339 64.0566 69.3847 64.2435C69.2355 64.4303 69.2712 64.6746 69.4581 64.8238L71.7291 66.5219C71.9153 66.6405 72.1596 66.6048 72.3088 66.4179Z" fill="white"/>
<path d="M64.7856 64.0016C64.9655 63.8141 65.241 63.8083 65.3978 63.9888L70.0222 68.3938C70.2097 68.5737 70.1848 68.8498 70.035 69.006C69.8551 69.1935 69.5796 69.1993 69.4228 69.0188L64.7984 64.6138C64.6422 64.4639 64.6358 64.1578 64.7856 64.0016Z" fill="#F3F3F3"/>
<path d="M64.7847 63.9713C64.9645 63.7838 65.2706 63.7774 65.4581 63.9572L70.0824 68.3623C70.2699 68.5421 70.2763 68.8482 70.0965 69.0357C69.9167 69.2232 69.6106 69.2296 69.4231 69.0498L64.7987 64.6447C64.5806 64.4655 64.5742 64.1594 64.7847 63.9713ZM70.034 68.9758C70.1839 68.8195 70.1781 68.544 70.0218 68.3942L65.3975 63.9891C65.2413 63.8393 64.9658 63.845 64.8159 64.0013C64.6661 64.1575 64.6718 64.433 64.8281 64.5829L69.4524 68.9879C69.6093 69.1684 69.8542 69.1633 70.034 68.9758Z" fill="white"/>
<path d="M65.1537 68.5571C65.3342 68.4002 65.6097 68.3945 65.7666 68.5749L67.6786 70.6786C67.8354 70.8591 67.8106 71.1352 67.6301 71.2921C67.4497 71.449 67.1742 71.4548 67.0173 71.2743L65.1053 69.1706C64.949 69.0207 64.9739 68.7446 65.1537 68.5571Z" fill="#F3F3F3"/>
<path d="M65.127 68.5574C65.3374 68.3692 65.6135 68.3941 65.801 68.5739L67.713 70.6776C67.9005 70.8574 67.8763 71.1642 67.6659 71.3523C67.4554 71.5405 67.1793 71.5156 66.9918 71.3358L65.0798 69.2321C64.9223 69.021 64.9159 68.7149 65.127 68.5574ZM67.634 71.2917C67.8145 71.1348 67.8093 70.89 67.6831 70.7089L65.7711 68.6051C65.6148 68.4553 65.3693 68.4298 65.1888 68.5867C65.0084 68.7436 65.0135 68.9885 65.1398 69.1696L67.0518 71.2733C67.2086 71.4537 67.4535 71.4486 67.634 71.2917Z" fill="white"/>
<path d="M60.7231 67.4864C60.9341 67.3289 61.2109 67.3843 61.3378 67.5961L64.9993 72.8175C65.1262 73.0292 65.0707 73.306 64.8896 73.4322C64.6785 73.5898 64.4018 73.5343 64.2749 73.3226L60.6134 68.1012C60.4865 67.8895 60.542 67.6127 60.7231 67.4864Z" fill="#F3F3F3"/>
<path d="M60.7226 67.4551C60.9337 67.2975 61.2411 67.3524 61.3986 67.5634L65.0601 72.7849C65.2176 72.9959 65.1628 73.3033 64.9211 73.4615C64.71 73.619 64.4026 73.5642 64.2451 73.3531L60.5837 68.1317C60.4255 67.89 60.481 67.6132 60.7226 67.4551ZM64.8892 73.4009C65.0703 73.2746 65.1264 73.0285 65.0001 72.8474L61.3387 67.6259C61.2124 67.4448 60.9669 67.4194 60.7552 67.5463C60.5741 67.6726 60.518 67.9187 60.6442 68.0998L64.3057 73.3212C64.4313 73.4717 64.7081 73.5272 64.8892 73.4009Z" fill="white"/>
<path d="M60.1736 72.0304C60.3853 71.9034 60.662 71.9589 60.789 72.1706L62.2488 74.6206C62.3757 74.8324 62.2897 75.1098 62.078 75.2367C61.8662 75.3636 61.5895 75.3081 61.4626 75.0964L60.0027 72.6464C59.9064 72.4341 59.9618 72.1573 60.1736 72.0304Z" fill="#F3F3F3"/>
<path d="M60.1759 71.9997C60.4182 71.8721 60.695 71.9276 60.8219 72.1393L62.2818 74.5893C62.4087 74.801 62.3538 75.1084 62.1115 75.236C61.8692 75.3635 61.5924 75.3081 61.4655 75.0963L60.0056 72.6463C59.8787 72.4346 59.9342 72.1578 60.1759 71.9997ZM62.0803 75.206C62.2614 75.0797 62.3481 74.8329 62.2218 74.6518L60.7619 72.2018C60.6357 72.0207 60.3895 71.9646 60.2078 72.0602C60.0267 72.1865 59.9399 72.4333 60.0662 72.6144L61.5261 75.0645C61.6218 75.2462 61.8992 75.3323 62.0803 75.206Z" fill="white"/>
<path d="M56.0636 70.0951C56.3065 69.9982 56.5533 70.0849 56.6496 70.2972L59.2525 76.1533C59.3488 76.3656 59.2321 76.6437 59.0198 76.74C58.8074 76.8363 58.53 76.7502 58.4337 76.5378L55.8309 70.6818C55.7345 70.4695 55.8512 70.1914 56.0636 70.0951Z" fill="#F3F3F3"/>
<path d="M56.0606 70.0647C56.3036 69.9677 56.581 70.0538 56.7085 70.2961L59.3114 76.1521C59.4084 76.3951 59.2917 76.6731 59.0487 76.7701C58.8058 76.867 58.5283 76.781 58.4008 76.5386L55.7979 70.6826C55.7016 70.4703 55.8183 70.1922 56.0606 70.0647ZM58.9862 76.7101C59.1986 76.6138 59.2853 76.367 59.1896 76.1853L56.5867 70.3293C56.4904 70.1169 56.2436 70.0302 56.0313 70.1265C55.8189 70.2228 55.7322 70.4696 55.8279 70.6514L58.4308 76.5074C58.5577 76.7191 58.7739 76.8065 58.9862 76.7101Z" fill="white"/>
<path d="M54.6504 74.4733C54.8933 74.3764 55.1408 74.4937 55.2377 74.7367L56.1817 77.4118C56.278 77.6242 56.1307 77.9029 55.9177 77.9686C55.6748 78.0655 55.4273 77.9482 55.3304 77.7052L54.3864 75.0301C54.2901 74.8177 54.4074 74.5703 54.6504 74.4733Z" fill="#F3F3F3"/>
<path d="M54.6192 74.4427C54.8622 74.3458 55.1402 74.4625 55.2372 74.7054L56.1812 77.3806C56.2781 77.6235 56.1308 77.9022 55.8878 77.9992C55.6449 78.0961 55.3668 77.9795 55.2699 77.7365L54.3259 75.0613C54.2596 74.8177 54.3763 74.5397 54.6192 74.4427ZM55.8866 77.938C56.0996 77.8723 56.2169 77.6248 56.1512 77.4118L55.2072 74.7367C55.1415 74.5237 54.8947 74.437 54.6817 74.5027C54.4687 74.5684 54.3514 74.8158 54.4171 75.0288L55.3611 77.704C55.4268 77.917 55.6742 78.0343 55.8866 77.938Z" fill="white"/>
<path d="M50.9828 71.7626C51.2264 71.6962 51.4745 71.8442 51.5102 72.0884L52.927 78.3367C52.9933 78.5803 52.8141 78.7984 52.5705 78.8647C52.3269 78.9311 52.0788 78.7831 52.0431 78.5389L50.6264 72.2906C50.5913 72.077 50.7392 71.8289 50.9828 71.7626Z" fill="#F3F3F3"/>
<path d="M50.9825 71.7324C51.2567 71.6654 51.5055 71.844 51.5718 72.0876L52.9885 78.3359C53.0549 78.5795 52.877 78.8588 52.6327 78.8945C52.3585 78.9615 52.1098 78.783 52.0435 78.5394L50.6267 72.2911C50.5604 72.0475 50.7083 71.7994 50.9825 71.7324ZM52.5702 78.8346C52.7839 78.7995 52.9324 78.582 52.8967 78.3378L51.48 72.0895C51.4449 71.8759 51.1968 71.7279 50.9838 71.7936C50.7702 71.8287 50.6216 72.0462 50.6573 72.2904L52.0741 78.5387C52.1398 78.7517 52.3566 78.8697 52.5702 78.8346Z" fill="white"/>
<path d="M48.7373 75.7904C48.9815 75.7547 49.199 75.9033 49.2653 76.1469L49.6915 78.9554C49.7272 79.1996 49.548 79.4177 49.3038 79.4534C49.0596 79.4892 48.8421 79.3406 48.7758 79.097L48.3496 76.2885C48.3139 76.0443 48.493 75.8261 48.7373 75.7904Z" fill="#F3F3F3"/>
<path d="M48.7405 75.7599C49.0154 75.7236 49.2641 75.9021 49.2998 76.1464L49.726 78.9548C49.7617 79.1991 49.5832 79.4478 49.3083 79.4842C49.0335 79.5205 48.7848 79.342 48.749 79.0978L48.3229 76.2893C48.2871 76.045 48.4657 75.7963 48.7405 75.7599ZM49.2764 79.4236C49.4901 79.3885 49.6693 79.1704 49.6342 78.9568L49.208 76.1483C49.1729 75.9346 48.9554 75.7861 48.7418 75.8212C48.5282 75.8562 48.349 76.0744 48.3841 76.288L48.8102 79.0965C48.8453 79.3101 49.0628 79.4587 49.2764 79.4236Z" fill="white"/>
<path d="M45.5138 72.4279C45.7587 72.4228 45.9768 72.602 45.9819 72.8469L46.1156 79.2444C46.1207 79.4893 45.9103 79.6775 45.6654 79.6826C45.4205 79.6877 45.2024 79.5085 45.1973 79.2636L45.0636 72.866C45.0891 72.6205 45.269 72.433 45.5138 72.4279Z" fill="#F3F3F3"/>
<path d="M45.5152 72.398C45.7906 72.3922 46.0094 72.602 46.0145 72.8469L46.1482 79.2445C46.1533 79.4893 45.9435 79.7081 45.668 79.7139C45.3925 79.7196 45.1738 79.5098 45.1687 79.2649L45.035 72.8674C45.0299 72.6225 45.2703 72.4031 45.5152 72.398ZM45.6667 79.6526C45.881 79.6482 46.0914 79.46 46.087 79.2457L45.9533 72.8482C45.9488 72.6339 45.7613 72.4541 45.5164 72.4592C45.3022 72.4637 45.0917 72.6518 45.0962 72.8661L45.2299 79.2637C45.265 79.4773 45.4525 79.6571 45.6667 79.6526Z" fill="white"/>
<path d="M42.5244 75.9203C42.7699 75.9458 42.9574 76.1256 42.9626 76.3705L42.8078 79.2217C42.7823 79.4672 42.5718 79.6554 42.3263 79.6299C42.0808 79.6044 41.8933 79.4246 41.8882 79.1797L42.043 76.3284C42.0685 76.0829 42.2789 75.8948 42.5244 75.9203Z" fill="#F3F3F3"/>
<path d="M42.5257 75.8903C42.8019 75.9152 42.99 76.1256 42.9951 76.3705L42.8403 79.2217C42.8148 79.4673 42.605 79.686 42.3289 79.6612C42.0528 79.6363 41.8646 79.4259 41.8595 79.181L42.0143 76.3297C42.0392 76.0536 42.2496 75.8655 42.5257 75.8903ZM42.3276 79.5999C42.5419 79.5955 42.753 79.4379 42.7485 79.2237L42.9033 76.3724C42.8988 76.1581 42.7419 75.9777 42.4964 75.9522C42.2821 75.9567 42.0711 76.1142 42.0755 76.3285L41.9207 79.1797C41.9252 79.394 42.1127 79.5738 42.3276 79.5999Z" fill="white"/>
<path d="M40.1446 71.9892C40.3907 72.0453 40.5483 72.2564 40.5228 72.5019L39.3989 78.8032C39.3428 79.0494 39.1317 79.2069 38.8855 79.1508C38.6394 79.0947 38.4819 78.8837 38.5073 78.6381L39.6313 72.3368C39.6574 72.1219 39.8991 71.9637 40.1446 71.9892Z" fill="#F3F3F3"/>
<path d="M40.1433 71.9586C40.4201 72.0141 40.5782 72.2557 40.5527 72.5013L39.4288 78.8026C39.3727 79.0488 39.1317 79.2376 38.8549 79.1821C38.5781 79.1266 38.42 78.8849 38.4455 78.6394L39.5694 72.3381C39.6255 72.0919 39.8672 71.9337 40.1433 71.9586ZM38.8536 79.1209C39.0685 79.147 39.2803 79.0201 39.337 78.8045L40.4609 72.5032C40.487 72.2883 40.3601 72.0766 40.114 72.0204C39.899 71.9943 39.6873 72.1212 39.6306 72.3368L38.5067 78.6381C38.4812 78.8837 38.6381 79.0641 38.8536 79.1209Z" fill="white"/>
<path d="M36.5312 74.8208C36.7774 74.8769 36.9356 75.1186 36.8795 75.3648L36.1718 78.1357C36.1157 78.3819 35.8733 78.5094 35.6272 78.4533C35.381 78.3972 35.2229 78.1555 35.279 77.9094L35.9866 75.1384C36.0428 74.8923 36.2851 74.7647 36.5312 74.8208Z" fill="#F3F3F3"/>
<path d="M36.5294 74.7905C36.7756 74.8466 36.965 75.1183 36.8783 75.3651L36.1706 78.136C36.1145 78.3822 35.8422 78.541 35.596 78.4849C35.3498 78.4288 35.1604 78.1571 35.2471 77.9103L35.9548 75.1394C36.0109 74.8932 36.2526 74.7351 36.5294 74.7905ZM35.5941 78.393C35.8096 78.4498 36.052 78.3222 36.1087 78.1067L36.8164 75.3357C36.8731 75.1202 36.7462 74.9085 36.5001 74.8524C36.2845 74.7956 36.0422 74.9232 35.9854 75.1387L35.2778 77.9097C35.2516 78.1246 35.3785 78.3363 35.5941 78.393Z" fill="white"/>
<path d="M34.9392 70.5364C35.186 70.6231 35.2836 70.8967 35.1963 71.1129L32.8709 77.0719C32.7835 77.2881 32.5106 77.4163 32.2938 77.2983C32.0769 77.1804 31.9494 76.938 32.0367 76.7218L34.3621 70.7629C34.4495 70.5467 34.7224 70.4185 34.9392 70.5364Z" fill="#F3F3F3"/>
<path d="M34.9395 70.5053C35.1863 70.592 35.3145 70.8649 35.2278 71.1117L32.9024 77.0707C32.8157 77.3175 32.5421 77.4151 32.2647 77.329C32.0179 77.2423 31.8897 76.9694 31.9765 76.7226L34.3018 70.7636C34.4192 70.5161 34.6921 70.3879 34.9395 70.5053ZM32.2941 77.2671C32.5103 77.3545 32.7532 77.2575 32.8406 77.0414L35.166 71.0824C35.2533 70.8662 35.1264 70.6545 34.9102 70.5671C34.694 70.4798 34.451 70.5767 34.3637 70.7929L32.0383 76.7519C31.9809 76.9368 32.0779 77.1798 32.2941 77.2671Z" fill="white"/>
<path d="M30.8505 72.5818C31.0673 72.6998 31.1642 72.9428 31.0769 73.1589L29.8443 75.7265C29.7264 75.9433 29.4834 76.0403 29.236 75.9229C29.0191 75.805 28.9222 75.562 29.0095 75.3458L30.2421 72.7783C30.36 72.5615 30.603 72.4645 30.8505 72.5818Z" fill="#F3F3F3"/>
<path d="M30.8468 72.5507C31.0943 72.668 31.1919 72.9416 31.0746 73.189L29.842 75.7565C29.7247 76.004 29.4511 76.1016 29.2037 75.9842C28.9562 75.8669 28.8586 75.5933 28.976 75.3459L30.2085 72.7784C30.3258 72.5309 30.5994 72.4333 30.8468 72.5507ZM29.233 75.9224C29.4492 76.0097 29.6928 75.9434 29.7801 75.7272L31.0127 73.1597C31.1007 72.9741 31.0037 72.7311 30.8175 72.6125C30.6013 72.5252 30.3577 72.5915 30.2704 72.8077L29.0378 75.3752C28.9498 75.5608 29.0468 75.8038 29.233 75.9224Z" fill="white"/>
<path d="M30.1424 68.0636C30.3598 68.2122 30.4268 68.4864 30.2776 68.6733L26.8375 74.0431C26.7195 74.2599 26.4446 74.2963 26.2278 74.1783C26.0103 74.0297 25.9434 73.7555 26.0926 73.5687L29.5327 68.1989C29.6507 67.982 29.9249 67.9151 30.1424 68.0636Z" fill="#F3F3F3"/>
<path d="M30.1439 68.0335C30.3613 68.1821 30.4289 68.4869 30.311 68.7038L26.8708 74.0736C26.7223 74.291 26.4481 74.358 26.2 74.2101C25.9825 74.0615 25.9149 73.7567 26.0329 73.5398L29.473 68.17C29.6216 67.9526 29.9264 67.885 30.1439 68.0335ZM26.2293 74.1482C26.4155 74.2668 26.6904 74.2305 26.809 74.0442L30.2491 68.6744C30.3677 68.4882 30.3014 68.2446 30.1152 68.126C29.9289 68.0074 29.6541 68.0438 29.5355 68.23L26.0947 73.5692C25.9761 73.7554 26.0431 74.0296 26.2293 74.1482Z" fill="white"/>
<path d="M25.699 69.2895C25.8859 69.4387 25.9529 69.7129 25.8037 69.8997L24.075 72.1714C23.9258 72.3583 23.6509 72.3946 23.464 72.2454C23.2772 72.0962 23.2102 71.822 23.3594 71.6351L25.0881 69.3635C25.2373 69.1766 25.5122 69.1402 25.699 69.2895Z" fill="#F3F3F3"/>
<path d="M25.7267 69.2588C25.9441 69.4074 25.9812 69.7129 25.8326 69.9303L24.1039 72.202C23.9553 72.4195 23.6498 72.4565 23.4317 72.2773C23.2143 72.1287 23.1773 71.8233 23.3258 71.6058L25.0545 69.3341C25.2031 69.1167 25.5086 69.0797 25.7267 69.2588ZM23.4917 72.2148C23.6785 72.364 23.9228 72.3283 24.072 72.1414L25.8007 69.8698C25.9193 69.6835 25.8836 69.4393 25.6967 69.2901C25.5098 69.1409 25.2656 69.1766 25.1164 69.3635L23.3877 71.6351C23.2691 71.8213 23.3055 72.0962 23.4917 72.2148Z" fill="white"/>
<path d="M25.9086 64.6927C26.0961 64.8725 26.1019 65.148 25.9214 65.3049L21.4851 69.8993C21.3053 70.0868 21.0292 70.0619 20.8729 69.9121C20.7167 69.7622 20.6797 69.4568 20.8601 69.2999L25.2658 64.7061C25.4456 64.5186 25.7211 64.5129 25.9086 64.6927Z" fill="#F3F3F3"/>
<path d="M25.9381 64.6609C26.1256 64.8407 26.132 65.1468 25.9522 65.3343L21.5159 69.9287C21.3361 70.1162 21.03 70.1226 20.8425 69.9428C20.655 69.763 20.6486 69.4569 20.8284 69.2694L25.2647 64.675C25.4445 64.4875 25.7506 64.4811 25.9381 64.6609ZM20.8724 69.9115C21.0287 70.0614 21.3042 70.0556 21.454 69.8994L25.8903 65.305C26.0402 65.1488 26.0344 64.8733 25.8782 64.7234C25.7219 64.5736 25.4464 64.5793 25.2966 64.7356L20.8603 69.3299C20.7104 69.4862 20.7155 69.7311 20.8724 69.9115Z" fill="white"/>
<path d="M21.3213 65.0326C21.4782 65.2131 21.484 65.4886 21.3035 65.6455L19.1685 67.5275C18.9881 67.6844 18.712 67.6595 18.5551 67.4791C18.3982 67.2986 18.3924 67.0231 18.5729 66.8662L20.7078 64.9842C20.8883 64.8273 21.1644 64.8522 21.3213 65.0326Z" fill="#F3F3F3"/>
<path d="M21.3522 65.0019C21.5403 65.2124 21.5161 65.5191 21.3357 65.676L19.2007 67.558C19.0209 67.7455 18.7142 67.7213 18.526 67.5109C18.3379 67.3004 18.3621 66.9937 18.5426 66.8368L20.6775 64.9548C20.8573 64.7673 21.1641 64.7915 21.3522 65.0019ZM18.5866 67.479C18.7435 67.6595 18.9884 67.6543 19.1695 67.5281L21.3044 65.646C21.4543 65.4898 21.4798 65.2443 21.3229 65.0638C21.166 64.8833 20.9211 64.8884 20.74 65.0147L18.6051 66.8968C18.4246 67.0536 18.4297 67.2985 18.5866 67.479Z" fill="white"/>
<path d="M22.4525 60.5997C22.61 60.8108 22.5545 61.0876 22.3428 61.2145L17.0908 64.8766C16.8791 65.0035 16.6023 64.948 16.4761 64.7669C16.3185 64.5559 16.374 64.2791 16.5857 64.1522L21.8377 60.4901C22.0188 60.3638 22.2956 60.4193 22.4525 60.5997Z" fill="#F3F3F3"/>
<path d="M22.4815 60.599C22.6391 60.8101 22.5842 61.1174 22.3732 61.275L17.1212 64.9371C16.9101 65.0946 16.6027 65.0398 16.4446 64.7981C16.287 64.587 16.3419 64.2796 16.5529 64.1221L21.8049 60.46C22.016 60.3025 22.3234 60.3573 22.4815 60.599ZM16.5045 64.7356C16.6308 64.9167 16.8769 64.9728 17.058 64.8465L22.31 61.1844C22.4911 61.0581 22.5472 60.812 22.3897 60.6009C22.2634 60.4198 22.0173 60.3637 21.8362 60.49L16.5842 64.1521C16.4037 64.309 16.3782 64.5545 16.5045 64.7356Z" fill="white"/>
<path d="M17.8804 60.0522C18.0073 60.2639 17.9519 60.5407 17.7402 60.6676L15.2902 62.1275C15.0785 62.2544 14.801 62.1683 14.6741 61.9566C14.5472 61.7449 14.6027 61.4681 14.8144 61.3412L17.2644 59.8813C17.4761 59.7544 17.7535 59.8405 17.8804 60.0522Z" fill="#F3F3F3"/>
<path d="M17.911 60.0203C18.0386 60.2627 17.9831 60.5394 17.7714 60.6663L15.3214 62.1262C15.1097 62.2531 14.8017 62.1677 14.6748 61.956C14.5472 61.7137 14.6027 61.4369 14.8144 61.31L17.2644 59.8501C17.4761 59.7232 17.7841 59.8086 17.911 60.0203ZM14.7047 61.9247C14.8317 62.1365 15.0778 62.1926 15.2589 62.0663L17.7089 60.6064C17.89 60.4801 17.9461 60.234 17.8505 60.0522C17.7235 59.8405 17.4774 59.7844 17.2963 59.9107L14.8463 61.3706C14.6645 61.4662 14.6084 61.7124 14.7047 61.9247Z" fill="white"/>
<path d="M19.8434 55.9382C19.9403 56.1811 19.8536 56.4279 19.6106 56.5249L13.754 59.0972C13.5417 59.1935 13.2636 59.0768 13.1673 58.8644C13.0704 58.6215 13.1571 58.3747 13.4001 58.2777L19.2567 55.7054C19.469 55.6091 19.7464 55.6952 19.8434 55.9382Z" fill="#F3F3F3"/>
<path d="M19.8745 55.9061C19.9715 56.1491 19.8854 56.4265 19.6431 56.554L13.7865 59.1263C13.5435 59.2232 13.2655 59.1066 13.1685 58.8636C13.0716 58.6206 13.1577 58.3432 13.4 58.2157L19.2566 55.6434C19.4995 55.5464 19.7776 55.6631 19.8745 55.9061ZM13.2291 58.8317C13.3254 59.0441 13.5722 59.1308 13.7546 59.0657L19.6112 56.4934C19.8235 56.3971 19.9103 56.1503 19.814 55.938C19.7176 55.7256 19.4708 55.6389 19.2885 55.704L13.4319 58.2762C13.2195 58.3726 13.1328 58.6194 13.2291 58.8317Z" fill="white"/>
<path d="M15.4965 54.4974C15.5935 54.7404 15.4761 54.9878 15.2332 55.0848L12.558 56.0288C12.3457 56.1251 12.067 55.9778 12.0013 55.7648C11.9043 55.5218 12.0217 55.2744 12.2646 55.1774L14.9398 54.2334C15.1521 54.1371 15.3996 54.2545 15.4965 54.4974Z" fill="#F3F3F3"/>
<path d="M15.5278 54.4663C15.6247 54.7093 15.508 54.9873 15.2345 55.0849L12.5593 56.0289C12.3164 56.1258 12.0377 55.9785 11.9407 55.7356C11.8438 55.4926 11.9605 55.2146 12.234 55.117L14.9092 54.173C15.1528 54.1067 15.4308 54.2233 15.5278 54.4663ZM12.0013 55.7037C12.067 55.9167 12.3144 56.034 12.5274 55.9683L15.2026 55.0243C15.4156 54.9586 15.5023 54.7118 15.4366 54.4988C15.3709 54.2858 15.1235 54.1685 14.9105 54.2342L12.2353 55.1782C12.023 55.2745 11.9356 55.4907 12.0013 55.7037Z" fill="white"/>
<path d="M18.1769 50.7971C18.2432 51.0407 18.0953 51.2888 17.851 51.3245L11.6015 52.68C11.3579 52.7464 11.1398 52.5672 11.0735 52.3236C11.0071 52.08 11.1551 51.8319 11.3993 51.7962L17.6488 50.4406C17.8931 50.4049 18.1411 50.5529 18.1769 50.7971Z" fill="#F3F3F3"/>
<path d="M18.2373 50.7963C18.3042 51.0705 18.1257 51.3192 17.8821 51.3856L11.6326 52.7411C11.389 52.8074 11.1403 52.6289 11.0733 52.3547C11.0063 52.0805 11.1849 51.8317 11.4285 51.7654L17.678 50.4099C17.9216 50.3435 18.1703 50.5221 18.2373 50.7963ZM11.1339 52.3228C11.169 52.5364 11.3864 52.685 11.6001 52.6499L17.8496 51.2944C18.0632 51.2593 18.2111 51.0112 18.1454 50.7982C18.1103 50.5846 17.8929 50.436 17.6792 50.4711L11.4297 51.8266C11.2167 51.8923 11.0682 52.1098 11.1339 52.3228Z" fill="white"/>
<path d="M14.2109 48.5217C14.2466 48.7659 14.098 48.9834 13.8538 49.0191L11.0447 49.4147C10.8004 49.4504 10.5823 49.2712 10.5466 49.027C10.5109 48.7828 10.6595 48.5653 10.9037 48.5296L13.7128 48.134C13.9264 48.0989 14.1752 48.2775 14.2109 48.5217Z" fill="#F3F3F3"/>
<path d="M14.239 48.5217C14.2754 48.7966 14.0968 49.0453 13.8526 49.081L11.0435 49.4766C10.7992 49.5123 10.5505 49.3338 10.5141 49.0589C10.4778 48.7841 10.6563 48.5354 10.9006 48.4996L13.7097 48.1041C13.9539 48.0683 14.2026 48.2469 14.239 48.5217ZM10.5441 49.0277C10.5792 49.2413 10.7973 49.4205 11.0109 49.3854L13.82 48.9898C14.0337 48.9548 14.1822 48.7373 14.1472 48.5237C14.1121 48.31 13.894 48.1308 13.6803 48.1659L10.8712 48.5615C10.6576 48.5966 10.509 48.814 10.5441 49.0277Z" fill="white"/>
<path d="M17.5728 45.4814C17.5779 45.7263 17.3987 45.9444 17.1539 45.9495L10.7563 46.0832C10.5114 46.0883 10.3233 45.8779 10.3182 45.633C10.3131 45.3881 10.4923 45.17 10.7371 45.1649L17.1347 45.0312C17.3795 45.0261 17.5677 45.2365 17.5728 45.4814Z" fill="#F3F3F3"/>
<path d="M17.6073 45.4805C17.6131 45.756 17.4033 45.9747 17.1584 45.9798L10.7609 46.1135C10.516 46.1186 10.2972 45.9088 10.2915 45.6333C10.2857 45.3578 10.4955 45.1391 10.7404 45.134L17.1379 45.0003C17.3828 44.9952 17.6016 45.205 17.6073 45.4805ZM10.3521 45.6014C10.3565 45.8157 10.5447 46.0261 10.759 46.0217L17.1565 45.888C17.3708 45.8835 17.5506 45.696 17.5455 45.4511C17.541 45.2369 17.3528 45.0264 17.1386 45.0309L10.741 45.1646C10.5274 45.1997 10.3476 45.3872 10.3521 45.6014Z" fill="white"/>
<path d="M14.1106 42.4606C14.0851 42.7061 13.9052 42.8936 13.6604 42.8987L10.8091 42.7439C10.5636 42.7184 10.3755 42.508 10.401 42.2625C10.4265 42.0169 10.6063 41.8294 10.8512 41.8243L13.7024 41.9791C13.9173 42.0052 14.1054 42.2157 14.1106 42.4606Z" fill="#E2E2E2"/>
<path d="M14.1427 42.4596C14.1178 42.7358 13.9074 42.9239 13.6625 42.929L10.8113 42.7742C10.5658 42.7487 10.347 42.5389 10.3719 42.2628C10.3967 41.9867 10.6072 41.7985 10.8521 41.7934L13.7033 41.9482C13.9488 41.9737 14.1376 42.2147 14.1427 42.4596ZM10.4025 42.2622C10.3764 42.4771 10.5645 42.6875 10.7788 42.683L13.63 42.8378C13.8443 42.8334 14.0247 42.6765 14.0502 42.4309C14.0764 42.216 13.8882 42.0056 13.674 42.0101L10.8227 41.8553C10.6085 41.8598 10.4286 42.0473 10.4025 42.2622Z" fill="white"/>
<path d="M18.0136 40.144C17.9575 40.3902 17.7464 40.5477 17.5009 40.5222L11.1989 39.3677C10.9528 39.3116 10.7952 39.1005 10.8513 38.8543C10.9074 38.6082 11.1185 38.4506 11.364 38.4761L17.6653 39.6C17.8809 39.6568 18.0391 39.8985 18.0136 40.144Z" fill="#F3F3F3"/>
<path d="M18.0464 40.1431C17.991 40.4198 17.7493 40.578 17.5038 40.5525L11.2025 39.4286C10.9563 39.3725 10.7675 39.1314 10.823 38.8547C10.8785 38.5779 11.1201 38.4197 11.3657 38.4452L17.667 39.5691C17.9131 39.6252 18.0713 39.8669 18.0464 40.1431ZM10.8842 38.8534C10.8581 39.0683 10.985 39.28 11.2006 39.3368L17.5019 40.4607C17.7168 40.4868 17.9285 40.3599 17.9846 40.1137C18.0107 39.8988 17.8838 39.6871 17.6683 39.6304L11.3669 38.5064C11.1214 38.481 10.941 38.6378 10.8842 38.8534Z" fill="white"/>
<path d="M15.1808 36.5284C15.1247 36.7745 14.883 36.9327 14.6368 36.8766L11.8659 36.1689C11.6198 36.1128 11.4922 35.8705 11.5483 35.6243C11.6044 35.3781 11.8461 35.22 12.0923 35.2761L14.8632 35.9838C15.1093 36.0399 15.2369 36.2822 15.1808 36.5284Z" fill="#F3F3F3"/>
<path d="M15.2134 36.5273C15.1573 36.7734 14.8857 36.9629 14.6389 36.8762L11.8679 36.1685C11.6218 36.1124 11.463 35.8401 11.5191 35.5939C11.5752 35.3477 11.8468 35.1583 12.0936 35.245L14.8645 35.9527C15.1107 36.0088 15.2689 36.2505 15.2134 36.5273ZM11.6109 35.592C11.5542 35.8075 11.6817 36.0499 11.8973 36.1066L14.6682 36.8143C14.8837 36.871 15.0954 36.7441 15.1516 36.498C15.2083 36.2824 15.0807 36.0401 14.8652 35.9833L12.0943 35.2756C11.8794 35.2495 11.6677 35.3764 11.6109 35.592Z" fill="white"/>
<path d="M19.4698 34.9689C19.383 35.2157 19.1095 35.3133 18.8933 35.226L12.9344 32.9006C12.7182 32.8132 12.59 32.5403 12.6773 32.3241C12.764 32.0773 13.0376 31.9797 13.2538 32.0671L19.2127 34.3924C19.4595 34.4792 19.5571 34.7527 19.4698 34.9689Z" fill="#F3F3F3"/>
<path d="M19.4998 34.9986C19.4131 35.2454 19.1401 35.3736 18.8933 35.2869L12.9344 32.9615C12.6876 32.8748 12.59 32.6012 12.6761 32.3238C12.7628 32.077 13.0357 31.9488 13.2825 32.0355L19.2415 34.3609C19.4889 34.4782 19.5865 34.7518 19.4998 34.9986ZM12.7379 32.3531C12.6506 32.5693 12.7475 32.8123 12.9637 32.8996L18.9227 35.225C19.1389 35.3124 19.3506 35.1855 19.4379 34.9693C19.5253 34.7531 19.4283 34.5101 19.2121 34.4228L13.2532 32.0974C13.0377 32.0406 12.7947 32.1376 12.7379 32.3531Z" fill="white"/>
<path d="M17.3914 30.8777C17.2734 31.0946 17.0304 31.1915 16.8143 31.1042L14.2467 29.8716C14.0306 29.7843 13.933 29.5107 14.0503 29.2632C14.1683 29.0464 14.4112 28.9495 14.6274 29.0368L17.1949 30.2694C17.4117 30.3873 17.5093 30.6609 17.3914 30.8777Z" fill="#F3F3F3"/>
<path d="M17.4209 30.9074C17.3036 31.1548 17.03 31.2524 16.7825 31.1351L14.215 29.9026C13.9676 29.7852 13.87 29.5117 13.9873 29.2642C14.1047 29.0168 14.3782 28.9192 14.6257 29.0365L17.1932 30.2691C17.44 30.3558 17.5382 30.66 17.4209 30.9074ZM14.0798 29.2929C13.9925 29.5091 14.0588 29.7527 14.275 29.8401L16.8425 31.0726C17.0281 31.1606 17.271 31.0637 17.3896 30.8774C17.477 30.6612 17.4107 30.4176 17.1945 30.3303L14.5963 29.0984C14.4108 29.0104 14.1672 29.0767 14.0798 29.2929Z" fill="white"/>
<path d="M21.8813 30.2022C21.7328 30.4197 21.4892 30.486 21.2717 30.3375L15.9026 26.9279C15.6858 26.81 15.6494 26.5351 15.7674 26.3183C15.8853 26.1014 16.1595 26.0345 16.377 26.183L21.7774 29.6226C21.9636 29.7412 22.0306 30.0154 21.8813 30.2022Z" fill="#F3F3F3"/>
<path d="M21.9105 30.2318C21.762 30.4493 21.4571 30.5169 21.2403 30.3989L15.8706 26.9588C15.6531 26.8102 15.5861 26.536 15.7341 26.2879C15.8826 26.0704 16.1874 26.0028 16.4043 26.1208L21.774 29.5609C22.0221 29.7089 22.0591 30.0143 21.9105 30.2318ZM15.7959 26.3172C15.6773 26.5035 15.7137 26.7783 15.8999 26.8969L21.3003 30.3364C21.4865 30.455 21.7301 30.3887 21.8487 30.2025C21.9673 30.0163 21.9309 29.7414 21.7447 29.6228L16.3443 26.1833C16.1581 26.0647 15.9145 26.131 15.7959 26.3172Z" fill="white"/>
<path d="M20.6527 25.7872C20.5035 25.974 20.2293 26.041 20.0424 25.8918L17.7714 24.1937C17.5846 24.0445 17.5482 23.7696 17.6974 23.5828C17.8466 23.3959 18.1209 23.3289 18.3077 23.4782L20.5787 25.1763C20.7656 25.3255 20.8019 25.6003 20.6527 25.7872Z" fill="#F3F3F3"/>
<path d="M20.687 25.8174C20.5385 26.0348 20.233 26.0718 20.0155 25.9233L17.7445 24.2252C17.5271 24.0766 17.4901 23.7711 17.6386 23.5537C17.7872 23.3362 18.0927 23.2992 18.3101 23.4478L20.5811 25.1459C20.7986 25.2944 20.8356 25.5999 20.687 25.8174ZM17.7005 23.583C17.5513 23.7698 17.587 24.0141 17.7739 24.1633L20.0449 25.8614C20.2311 25.98 20.4753 25.9443 20.6245 25.7574C20.7738 25.5706 20.738 25.3263 20.5512 25.1771L18.2802 23.479C18.094 23.3604 17.8497 23.3961 17.7005 23.583Z" fill="white"/>
<path d="M25.2179 25.9973C25.0381 26.1848 24.7626 26.1906 24.6057 26.0101L19.9508 21.6057C19.7633 21.4259 19.7881 21.1498 19.938 20.9935C20.1178 20.806 20.3933 20.8002 20.5502 20.9807L25.1745 25.3858C25.3614 25.535 25.3678 25.8411 25.2179 25.9973Z" fill="#F3F3F3"/>
<path d="M25.22 26.0284C25.0402 26.2159 24.7341 26.2223 24.5466 26.0425L19.9223 21.6374C19.7348 21.4576 19.7284 21.1515 19.9082 20.964C20.088 20.7765 20.3941 20.7701 20.5816 20.9499L25.206 25.355C25.4241 25.5342 25.4305 25.8403 25.22 26.0284ZM19.9707 21.0239C19.8208 21.1802 19.8266 21.4557 19.9829 21.6055L24.6072 26.0106C24.7634 26.1604 25.0389 26.1547 25.1888 25.9984C25.3386 25.8422 25.3329 25.5667 25.1766 25.4168L20.5517 20.9811C20.3954 20.8313 20.1505 20.8364 19.9707 21.0239Z" fill="white"/>
<path d="M24.8489 21.4425C24.6684 21.5994 24.3929 21.6052 24.236 21.4247L22.324 19.321C22.1672 19.1405 22.192 18.8644 22.3725 18.7075C22.5529 18.5506 22.8284 18.5449 22.9853 18.7253L24.8973 20.829C25.0536 20.9789 25.0287 21.255 24.8489 21.4425Z" fill="#F3F3F3"/>
<path d="M24.8796 21.4419C24.6691 21.63 24.393 21.6052 24.2055 21.4254L22.2935 19.3216C22.106 19.1418 22.1302 18.8351 22.3406 18.6469C22.5511 18.4588 22.8272 18.4837 23.0147 18.6635L24.9267 20.7672C25.0842 20.9783 25.0906 21.2844 24.8796 21.4419ZM22.3725 18.7075C22.1921 18.8644 22.1972 19.1093 22.3235 19.2904L24.2355 21.3941C24.3917 21.544 24.6372 21.5695 24.8177 21.4126C24.9982 21.2557 24.993 21.0108 24.8668 20.8297L22.9548 18.726C22.7979 18.5455 22.553 18.5506 22.3725 18.7075Z" fill="white"/>
<path d="M29.2816 22.5146C29.0705 22.6721 28.7937 22.6167 28.6668 22.4049L24.9748 17.1842C24.8478 16.9725 24.9033 16.6957 25.0844 16.5694C25.2955 16.4119 25.5722 16.4673 25.6992 16.6791L29.3606 21.9005C29.5181 22.1115 29.4627 22.3883 29.2816 22.5146Z" fill="#F3F3F3"/>
<path d="M29.2805 22.5445C29.0694 22.702 28.762 22.6472 28.6045 22.4361L24.943 17.2147C24.7855 17.0036 24.8403 16.6963 25.082 16.5381C25.2931 16.3806 25.6005 16.4354 25.758 16.6465L29.4194 21.8679C29.5776 22.1095 29.5221 22.3863 29.2805 22.5445ZM25.1139 16.5987C24.9328 16.7249 24.8767 16.9711 25.003 17.1522L28.6644 22.3736C28.7907 22.5547 29.0362 22.5802 29.2479 22.4533C29.429 22.327 29.4851 22.0809 29.3589 21.8998L25.6981 16.709C25.5718 16.5279 25.295 16.4724 25.1139 16.5987Z" fill="white"/>
<path d="M29.8337 17.9698C29.622 18.0967 29.3452 18.0413 29.2183 17.8295L27.7584 15.3795C27.6315 15.1678 27.7175 14.8904 27.9293 14.7635C28.141 14.6366 28.4177 14.692 28.5447 14.9037L30.0045 17.3538C30.1008 17.5661 30.0454 17.8429 29.8337 17.9698Z" fill="#F3F3F3"/>
<path d="M29.8322 18.0006C29.5899 18.1282 29.3131 18.0727 29.1862 17.861L27.7263 15.411C27.5994 15.1993 27.6543 14.8919 27.8966 14.7643C28.1389 14.6368 28.4157 14.6922 28.5426 14.9039L30.0025 17.354C30.1294 17.5657 30.0739 17.8424 29.8322 18.0006ZM27.9278 14.7943C27.7467 14.9206 27.66 15.1674 27.7863 15.3485L29.2462 17.7985C29.3724 17.9796 29.6186 18.0357 29.8003 17.94C29.9814 17.8138 30.0682 17.567 29.9419 17.3859L28.482 14.9358C28.3863 14.7541 28.1089 14.668 27.9278 14.7943Z" fill="white"/>
<path d="M33.9436 19.905C33.7007 20.0019 33.4538 19.9152 33.3575 19.7029L30.7547 13.8469C30.6584 13.6345 30.7751 13.3565 30.9874 13.2602C31.2304 13.1632 31.4772 13.2499 31.5735 13.4623L34.1763 19.3183C34.2726 19.5306 34.156 19.8087 33.9436 19.905Z" fill="#F3F3F3"/>
<path d="M33.9452 19.9361C33.7022 20.0331 33.4248 19.947 33.2973 19.7047L30.6944 13.8487C30.5975 13.6057 30.7141 13.3276 30.9571 13.2307C31.2001 13.1337 31.4775 13.2198 31.605 13.4621L34.2079 19.3181C34.3042 19.5305 34.1875 19.8085 33.9452 19.9361ZM31.0196 13.2906C30.8072 13.3869 30.7205 13.6337 30.8162 13.8155L33.4191 19.6715C33.5154 19.8838 33.7622 19.9706 33.9745 19.8742C34.1869 19.7779 34.2736 19.5311 34.1779 19.3494L31.5751 13.4934C31.4481 13.2817 31.232 13.1943 31.0196 13.2906Z" fill="white"/>
<path d="M35.3517 15.5268C35.1087 15.6238 34.8613 15.5064 34.7643 15.2635L33.8203 12.5883C33.724 12.376 33.8713 12.0973 34.0843 12.0316C34.2973 11.9659 34.5747 12.052 34.6717 12.2949L35.6156 14.9701C35.7119 15.1824 35.5946 15.4299 35.3517 15.5268Z" fill="#F3F3F3"/>
<path d="M35.3836 15.5575C35.1406 15.6545 34.8625 15.5378 34.7656 15.2948L33.8216 12.6197C33.7247 12.3767 33.872 12.098 34.1149 12.0011C34.3579 11.9041 34.6359 12.0208 34.7329 12.2638L35.6769 14.9389C35.7432 15.1825 35.6265 15.4606 35.3836 15.5575ZM34.1162 12.0623C33.9032 12.128 33.7859 12.3754 33.8516 12.5884L34.7956 15.2636C34.8613 15.4766 35.1081 15.5633 35.3211 15.4976C35.534 15.4319 35.6514 15.1845 35.5857 14.9715L34.6417 12.2963C34.576 12.0833 34.3286 11.966 34.1162 12.0623Z" fill="white"/>
<path d="M39.0258 18.2376C38.7822 18.304 38.5341 18.156 38.4984 17.9118L37.0816 11.6635C37.0153 11.4199 37.1945 11.2018 37.4381 11.1355C37.6817 11.0691 37.9297 11.2171 37.9655 11.4613L39.3822 17.7096C39.4173 17.9232 39.2694 18.1713 39.0258 18.2376Z" fill="#F3F3F3"/>
<path d="M39.0218 18.2686C38.7476 18.3356 38.4989 18.157 38.4326 17.9134L37.0158 11.6651C36.9495 11.4215 37.1274 11.1422 37.3716 11.1065C37.6458 11.0395 37.8946 11.2181 37.9609 11.4617L39.3776 17.7099C39.444 17.9535 39.296 18.2016 39.0218 18.2686ZM37.4341 11.1664C37.2205 11.2015 37.0719 11.419 37.1076 11.6632L38.5244 17.9115C38.5595 18.1251 38.8076 18.2731 39.0205 18.2074C39.2342 18.1723 39.3828 17.9548 39.347 17.7106L37.9303 11.4623C37.8646 11.2493 37.6478 11.1313 37.4341 11.1664Z" fill="white"/>
<path d="M41.2647 14.2093C41.0205 14.245 40.803 14.0964 40.7367 13.8528L40.3105 11.0444C40.2748 10.8001 40.454 10.582 40.6982 10.5463C40.9425 10.5106 41.1599 10.6591 41.2263 10.9027L41.6524 13.7112C41.6882 13.9555 41.509 14.1736 41.2647 14.2093Z" fill="#F3F3F3"/>
<path d="M41.2693 14.24C40.9944 14.2764 40.7457 14.0979 40.71 13.8536L40.2838 11.0451C40.2481 10.8009 40.4266 10.5522 40.7015 10.5158C40.9763 10.4794 41.225 10.658 41.2608 10.9022L41.6869 13.7107C41.7227 13.9549 41.5441 14.2037 41.2693 14.24ZM40.7334 10.5764C40.5197 10.6115 40.3405 10.8296 40.3756 11.0432L40.8018 13.8517C40.8369 14.0653 41.0544 14.2139 41.268 14.1788C41.4816 14.1437 41.6608 13.9256 41.6257 13.712L41.1995 10.9035C41.1645 10.6899 40.947 10.5413 40.7334 10.5764Z" fill="white"/>
<path d="M45.9738 81.2077C65.99 80.7894 81.8772 64.224 81.459 44.2077C81.0408 24.1914 64.4754 8.30399 44.4593 8.72222C24.4431 9.14045 8.55584 25.7059 8.97407 45.7222C9.3923 65.7385 25.9576 81.6259 45.9738 81.2077Z" fill="url(#paint2_linear_897_6725)" fill-opacity="0.2"/>
<g filter="url(#filter1_d_897_6725)">
<path d="M69.8325 21.452L40.9912 40.7964L40.9606 40.797L40.9613 40.8277L40.9313 40.8589L23.3163 71.3301L49.6799 49.1895L49.7099 49.1583L49.7093 49.1277L69.8325 21.452Z" fill="black" fill-opacity="0.05"/>
</g>
<path d="M69.2476 19.7195L40.7807 40.8628L49.5294 49.1934L69.2476 19.7195Z" fill="#CD151E"/>
<path d="M40.8087 40.8006L45.2137 44.9653L69.2463 19.7191L40.8087 40.8006Z" fill="#FA5153"/>
<path d="M40.8115 40.7999L49.5601 49.1305L21.0933 70.2739L40.8115 40.7999Z" fill="#ACACAC"/>
<path d="M21.0933 70.2739L45.2164 44.9646L40.8115 40.7999L21.0933 70.2739Z" fill="#EEEEEE"/>
<defs>
<filter id="filter0_d_897_6725" x="4.54636" y="5.17845" width="80.9073" height="80.9083" filterUnits="userSpaceOnUse" color-interpolation-filters="sRGB">
<feFlood flood-opacity="0" result="BackgroundImageFix"/>
<feColorMatrix in="SourceAlpha" type="matrix" values="0 0 0 0 0 0 0 0 0 0 0 0 0 0 0 0 0 0 127 0" result="hardAlpha"/>
<feOffset dy="0.632092"/>
<feGaussianBlur stdDeviation="0.632092"/>
<feColorMatrix type="matrix" values="0 0 0 0 0 0 0 0 0 0 0 0 0 0 0 0 0 0 0.266007 0"/>
<feBlend mode="normal" in2="BackgroundImageFix" result="effect1_dropShadow_897_6725"/>
<feBlend mode="normal" in="SourceGraphic" in2="effect1_dropShadow_897_6725" result="shape"/>
</filter>
<filter id="filter1_d_897_6725" x="22.0522" y="20.504" width="49.044" height="52.4063" filterUnits="userSpaceOnUse" color-interpolation-filters="sRGB">
<feFlood flood-opacity="0" result="BackgroundImageFix"/>
<feColorMatrix in="SourceAlpha" type="matrix" values="0 0 0 0 0 0 0 0 0 0 0 0 0 0 0 0 0 0 127 0" result="hardAlpha"/>
<feOffset dy="0.316046"/>
<feGaussianBlur stdDeviation="0.632092"/>
<feColorMatrix type="matrix" values="0 0 0 0 0 0 0 0 0 0 0 0 0 0 0 0 0 0 1 0"/>
<feBlend mode="normal" in2="BackgroundImageFix" result="effect1_dropShadow_897_6725"/>
<feBlend mode="normal" in="SourceGraphic" in2="effect1_dropShadow_897_6725" result="shape"/>
</filter>
<linearGradient id="paint0_linear_897_6725" x1="45.8184" y1="84.1817" x2="44.181" y2="5.81902" gradientUnits="userSpaceOnUse">
<stop offset="0.25" stop-color="#DBDBDA"/>
<stop offset="1" stop-color="white"/>
</linearGradient>
<radialGradient id="paint1_radial_897_6725" cx="0" cy="0" r="1" gradientUnits="userSpaceOnUse" gradientTransform="translate(49.9257 36.9324) rotate(-1.197) scale(44.2483 44.2487)">
<stop stop-color="#2ABCE1"/>
<stop offset="0.113629" stop-color="#2ABBE1"/>
<stop offset="1" stop-color="#3375F8"/>
</radialGradient>
<linearGradient id="paint2_linear_897_6725" x1="44.3116" y1="34.6164" x2="28.0294" y2="65.3183" gradientUnits="userSpaceOnUse">
<stop stop-opacity="0"/>
<stop offset="1"/>
</linearGradient>
</defs>
</svg>
