<svg width="364" height="100" viewBox="0 0 364 100" fill="none" xmlns="http://www.w3.org/2000/svg">
<path d="M238.776 45.6426C238.776 40.7307 235.753 37.1539 229.96 37.1539H211.244V62.6199H217.39V53.9297H224.67L231.798 62.6199H238.725V62.0657L231.798 53.7786C236.156 52.897 238.776 49.7232 238.776 45.6426ZM229.28 48.7912H217.416V42.4436H229.28C231.471 42.4436 232.882 43.6023 232.882 45.6174C232.882 47.6829 231.521 48.7912 229.28 48.7912Z" fill="#000008"/>
<path d="M331.698 37.1539H325.929V46.8265H310.438V37.1539H304.217V62.6451H310.438V52.5947H325.929V62.6451H331.698V37.1539Z" fill="#000008"/>
<path d="M194.796 37.1537L187.945 58.5895H187.567L180.691 37.1537H169.733V62.6449H175.602V41.7129H175.955L182.806 62.6449H192.252L199.129 41.7129H199.481V62.6449H205.527V37.1537H194.796Z" fill="#000008"/>
<path d="M127.844 47.5821C125.678 47.3554 121.622 46.9776 119.456 46.7509C117.315 46.5242 116.081 45.8945 116.081 44.4839C116.081 43.1237 117.391 41.9902 122.68 41.9902C127.365 41.9902 131.673 42.9977 135.426 44.8114V39.1187C131.673 37.3302 127.517 36.4486 122.353 36.4486C115.098 36.4486 110.086 39.4713 110.086 44.6098C110.086 48.9423 113.033 51.3101 118.927 51.965C121.068 52.1917 124.695 52.5192 127.239 52.7207C130.01 52.9474 130.816 53.8038 130.816 55.0632C130.816 56.8013 128.877 57.8592 123.965 57.8592C118.977 57.8592 113.915 56.2219 110.313 53.9297V59.7988C113.209 61.7383 118.197 63.3756 123.763 63.3756C131.673 63.3756 136.761 60.3277 136.761 54.8617C136.811 50.7308 134.091 48.237 127.844 47.5821Z" fill="#000008"/>
<path d="M140.841 37.1539V62.6451H164.594V57.431H146.71V52.2672H164.292V47.1035H146.71V42.368H164.594V37.1539H140.841Z" fill="#000008"/>
<path d="M291.496 47.5821C289.33 47.3554 285.274 46.9776 283.108 46.7509C280.967 46.5242 279.733 45.8945 279.733 44.4839C279.733 43.1237 281.043 41.9902 286.332 41.9902C291.017 41.9902 295.325 42.9977 299.078 44.8114V39.1187C295.325 37.3302 291.169 36.4486 286.005 36.4486C278.75 36.4486 273.738 39.4713 273.738 44.6098C273.738 48.9423 276.685 51.3101 282.579 51.965C284.72 52.1917 288.347 52.5192 290.891 52.7207C293.662 52.9474 294.468 53.8038 294.468 55.0632C294.468 56.8013 292.529 57.8592 287.617 57.8592C282.63 57.8592 277.567 56.2219 273.965 53.9297V59.7988C276.861 61.7383 281.849 63.3756 287.415 63.3756C295.325 63.3756 300.413 60.3277 300.413 54.8617C300.463 50.7308 297.743 48.237 291.496 47.5821Z" fill="#000008"/>
<path d="M263.411 37.1539V50.2018C263.411 55.1388 260.413 57.8592 255.904 57.8592C251.37 57.8592 248.398 55.1892 248.398 50.1262V37.1539H242.277V49.5468C242.277 58.7912 248.045 63.3756 256.005 63.3756C263.637 63.3756 269.557 58.9927 269.557 49.8491V37.1539H263.411Z" fill="#000008"/>
<path d="M89.0277 49.7481C89.0277 50.9824 88.398 51.1839 86.8363 51.1839C85.1738 51.1839 84.8716 50.9068 84.6952 49.6474C84.3678 46.4484 82.2015 43.728 78.5743 43.4257C77.4156 43.3249 77.1386 42.8967 77.1386 41.461C77.1386 40.1259 77.3401 39.4962 78.3728 39.4962C84.67 39.5214 89.0277 44.5844 89.0277 49.7481ZM98.1965 49.7481C98.1965 40.1511 91.6977 30 76.6852 30H46.8615C46.257 30 45.8792 30.3023 45.8792 30.8564C45.8792 31.1587 46.1059 31.4358 46.3074 31.5869C47.3905 32.4433 49.0026 33.4005 51.1184 34.4584C53.1839 35.4912 54.796 36.1713 56.4081 36.8262C57.0882 37.1033 57.3401 37.4055 57.3401 37.7834C57.3401 38.3123 56.9623 38.6398 56.2318 38.6398H32.5542C31.8489 38.6398 31.5215 39.0932 31.5215 39.5466C31.5215 39.9244 31.6474 40.2519 31.9749 40.5793C33.8892 42.5945 36.9623 45.0126 41.4207 47.8086C45.325 50.2519 50.1613 52.8967 54.0152 54.7355C54.6701 55.0378 54.8716 55.3904 54.8716 55.7683C54.8464 56.1965 54.5189 56.5491 53.7633 56.5491H42.9069C42.3023 56.5491 41.9497 56.8766 41.9497 57.3804C41.9497 57.6574 42.1764 58.0101 42.4787 58.2872C44.9472 60.529 48.9018 62.9723 54.1663 65.2141C61.194 68.2116 68.3225 70 76.3325 70C91.5214 70 98.1965 58.6398 98.1965 49.7481ZM78.3728 63.3753C70.9169 63.3753 64.6953 57.3048 64.6953 49.7481C64.6953 42.2922 70.9169 36.3224 78.3728 36.3224C86.0303 36.3224 92 42.2922 92 49.7481C91.9748 57.3048 86.0051 63.3753 78.3728 63.3753Z" fill="#FF642D"/>
</svg>
