<svg width="90" height="90" viewBox="0 0 90 90" fill="none" xmlns="http://www.w3.org/2000/svg">
<rect x="5" y="5" width="80" height="80" rx="8" fill="#FF642D"/>
<path d="M62.1243 46.3092C62.1243 47.2348 61.6521 47.3859 60.4809 47.3859C59.2342 47.3859 59.0076 47.1781 58.8753 46.2336C58.6298 43.8347 57.0053 41.7947 54.2852 41.568C53.4163 41.4924 53.2085 41.1713 53.2085 40.0946C53.2085 39.0935 53.3596 38.6213 54.1341 38.6213C58.8564 38.6401 62.1243 42.4369 62.1243 46.3092ZM69 46.3092C69 39.1124 64.1266 31.5 52.8685 31.5H30.5036C30.0502 31.5 29.7669 31.7267 29.7669 32.1422C29.7669 32.3689 29.9369 32.5767 30.088 32.69C30.9003 33.3323 32.1092 34.0501 33.6959 34.8434C35.2448 35.6179 36.4537 36.1279 37.6626 36.619C38.1726 36.8268 38.3615 37.0534 38.3615 37.3368C38.3615 37.7335 38.0782 37.979 37.5304 37.979H19.7745C19.2456 37.979 19 38.319 19 38.659C19 38.9424 19.0944 39.1879 19.34 39.4335C20.7756 40.9446 23.0801 42.758 26.4235 44.8547C29.3513 46.687 32.9781 48.6703 35.8682 50.0493C36.3593 50.2759 36.5104 50.5404 36.5104 50.8237C36.4915 51.1448 36.2459 51.4093 35.6793 51.4093H27.538C27.0846 51.4093 26.8202 51.6549 26.8202 52.0326C26.8202 52.2404 26.9902 52.5049 27.2168 52.7127C29.068 54.3938 32.0336 56.2261 35.9815 57.9072C41.2516 60.155 46.5973 61.4962 52.6041 61.4962C63.9943 61.4962 69 52.9771 69 46.3092ZM54.1341 56.5283C48.5429 56.5283 43.8772 51.976 43.8772 46.3092C43.8772 40.718 48.5429 36.2412 54.1341 36.2412C59.8765 36.2412 64.3532 40.718 64.3532 46.3092C64.3343 51.976 59.8576 56.5283 54.1341 56.5283Z" fill="white"/>
</svg>
