<svg width="360" height="100" viewBox="0 0 360 100" fill="none" xmlns="http://www.w3.org/2000/svg">
<path fill-rule="evenodd" clip-rule="evenodd" d="M145.043 57.0119C145.043 55.2842 147.217 53.4138 147.437 53.5923C148.957 54.9631 151.897 56.2912 154.398 56.2912C156.645 56.2912 157.66 55.6434 157.66 54.4579C157.66 53.0182 155.812 53.0182 153.452 52.5134C149.539 51.7208 145.585 50.0671 145.585 45.2475C145.585 40.4634 149.138 37.5108 155.594 37.5108C161.758 37.5108 164.443 39.6331 164.443 41.9375C164.443 43.9523 162.011 45.6775 161.867 45.5353C160.308 44.0997 157.879 43.0149 155.667 43.0149C153.564 43.0149 152.513 43.6601 152.513 44.8127C152.513 46.1819 154.398 46.0764 156.861 46.6142C161.466 47.6201 164.984 49.599 164.984 53.8842C164.984 58.9557 161.466 61.7957 154.398 61.7957C147.507 61.7957 145.043 59.4571 145.043 57.0119Z" fill="#242424"/>
<path fill-rule="evenodd" clip-rule="evenodd" d="M167.342 58.1259V41.1822C167.342 38.9511 168.393 37.8344 170.386 37.8344H171.437C173.54 37.8344 174.629 38.9511 174.629 41.1822V46.5763H182.136V41.1822C182.136 38.9511 183.186 37.8344 185.178 37.8344H186.267C188.334 37.8344 189.421 38.9511 189.421 41.1822V58.1259C189.421 60.3218 188.334 61.474 186.267 61.474H185.178C183.186 61.474 182.136 60.3218 182.136 58.1259V52.6237H174.629V58.1259C174.629 60.3218 173.54 61.474 171.437 61.474H170.386C168.393 61.474 167.342 60.3218 167.342 58.1259Z" fill="#242424"/>
<path fill-rule="evenodd" clip-rule="evenodd" d="M215.408 58.4511V58.1259C215.408 56.0403 216.132 55.284 217.328 53.9914L226.246 43.9525H218.886C216.785 43.9525 215.694 43.1951 215.694 41.1466V40.8214C215.694 38.8444 216.785 38.0188 218.886 38.0188H232.013C234.659 38.0188 235.71 39.4199 235.71 40.8214V41.1822C235.71 43.2303 234.951 44.0585 233.79 45.2833L224.688 55.3203H232.738C234.841 55.3203 235.929 56.1133 235.929 58.1618V58.4511C235.929 60.4318 234.841 61.2933 232.738 61.2933H219.07C216.459 61.2933 215.408 59.8525 215.408 58.4511Z" fill="#242424"/>
<path fill-rule="evenodd" clip-rule="evenodd" d="M206.129 52.6518C206.129 55.1051 204.24 56.7514 201.796 56.7514C200.037 56.7514 198.899 55.8355 198.899 54.4214C198.899 52.0581 202.112 51.0762 204.53 51.0166H206.129V52.6518ZM201.988 37.4092C197.295 37.4092 192.791 39.6433 192.791 42.587C192.791 46.2462 197.358 46.1562 197.358 46.1562C197.851 44.1747 199.495 43.161 201.634 43.161C204.914 43.161 206.129 44.7547 206.129 47.0536H204.523C195.131 47.0536 191.591 50.771 191.591 55.0121C191.591 59.1107 195.046 61.8536 199.59 61.8536C202.759 61.8536 205.792 60.6977 206.365 58.4936C206.653 60.1784 208.25 61.6714 210.368 61.6714C212.247 61.6714 213.138 61.0377 213.221 60.8099V46.5547C213.221 40.7084 209.252 37.4092 201.988 37.4092Z" fill="#242424"/>
<path fill-rule="evenodd" clip-rule="evenodd" d="M251.959 52.6518C251.959 55.1051 250.069 56.7514 247.626 56.7514C245.867 56.7514 244.729 55.8355 244.729 54.4214C244.729 52.0581 247.942 51.0762 250.361 51.0166H251.959V52.6518ZM247.818 37.4092C243.124 37.4092 238.621 39.6433 238.621 42.587C238.621 46.2462 243.188 46.1562 243.188 46.1562C243.683 44.1747 245.326 43.161 247.461 43.161C250.745 43.161 251.959 44.7547 251.959 47.0536H250.354C240.959 47.0536 237.423 50.771 237.423 55.0121C237.423 59.1107 240.876 61.8536 245.42 61.8536C248.59 61.8536 251.624 60.6977 252.195 58.4936C252.485 60.1784 254.081 61.6714 256.196 61.6714C258.078 61.6714 258.969 61.0377 259.051 60.8099V46.5547C259.051 40.7084 255.082 37.4092 247.818 37.4092Z" fill="#242424"/>
<path fill-rule="evenodd" clip-rule="evenodd" d="M261.793 58.292V41.4539C261.793 39.1513 262.954 38.0005 265.021 38.0005H267.086C269.009 38.0005 269.663 38.4694 270.315 39.9435L274.121 49.2631L277.967 39.9435C278.656 38.359 279.415 38.0005 281.083 38.0005H283.113C285.289 38.0005 286.45 39.1513 286.45 41.4539V58.292C286.45 60.4879 285.688 61.6401 283.623 61.6401H282.462C280.466 61.6401 279.632 60.4879 279.632 58.292V48.3294L277.168 55.162C276.842 56.0631 276.804 56.9242 274.086 56.9242C271.366 56.9242 271.438 56.0957 271.04 55.162L268.612 48.6131V58.292C268.612 60.4879 267.886 61.6401 265.784 61.6401H264.621C262.625 61.6401 261.793 60.4879 261.793 58.292Z" fill="#242424"/>
<path fill-rule="evenodd" clip-rule="evenodd" d="M104.001 20C87.4337 20 74 33.4296 74 49.9996C74 66.5656 87.4337 80 104.001 80C120.569 80 134 66.5656 134 49.9996C134 33.4296 120.569 20 104.001 20Z" fill="url(#paint0_linear_827_6810)"/>
<path fill-rule="evenodd" clip-rule="evenodd" d="M119.66 61.5465C116.813 64.6865 111.71 69.5713 111.494 69.7813C110.824 70.4206 109.961 70.7406 109.102 70.7406C108.185 70.7406 107.276 70.3802 106.595 69.6687C105.27 68.2813 105.321 66.0887 106.704 64.7635C106.755 64.7132 111.844 59.8421 114.523 56.8821C115.789 55.4835 116.427 53.688 116.314 51.8347C116.194 49.8713 115.248 48.0284 113.646 46.6458C111.543 44.828 107.39 44.4239 104.793 46.755C103.247 48.1398 101.372 50.1798 101.355 50.2002C100.055 51.6091 97.8649 51.7013 96.4549 50.4072C95.0472 49.111 94.9512 46.915 96.2483 45.5047C96.3346 45.4098 98.3672 43.1984 100.166 41.5861C105.099 37.1595 113.179 37.0713 118.178 41.3939C121.205 44.0091 123 47.5698 123.235 51.4147C123.463 55.148 122.19 58.748 119.66 61.5465ZM98.6994 61.7935C95.4898 61.7935 92.2849 60.7317 89.8246 58.6039C86.7986 55.9895 85.0042 52.4317 84.7675 48.5839C84.5435 44.8521 85.8109 41.2524 88.3453 38.4558C91.1898 35.3128 96.2931 30.4272 96.5083 30.2206C97.892 28.895 100.084 28.948 101.409 30.3321C102.73 31.718 102.683 33.9135 101.299 35.2369C101.247 35.2869 96.1609 40.1573 93.4805 43.115C92.2142 44.5191 91.5753 46.3106 91.6883 48.1621C91.8094 50.1273 92.7557 51.9706 94.3557 53.3543C96.4609 55.1761 100.612 55.5739 103.21 53.2476C104.755 51.8584 106.632 49.8198 106.65 49.7998C107.946 48.388 110.14 48.2976 111.548 49.5958C112.957 50.8906 113.051 53.088 111.755 54.4984C111.669 54.588 109.633 56.7984 107.836 58.4124C105.332 60.6624 102.013 61.7935 98.6994 61.7935Z" fill="white"/>
<defs>
<linearGradient id="paint0_linear_827_6810" x1="3070.13" y1="97.9656" x2="3074" y2="6020" gradientUnits="userSpaceOnUse">
<stop stop-color="#00AAFF"/>
<stop offset="1" stop-color="#2255FF"/>
</linearGradient>
</defs>
</svg>
