<svg width="90" height="90" viewBox="0 0 90 90" fill="none" xmlns="http://www.w3.org/2000/svg">
<path fill-rule="evenodd" clip-rule="evenodd" d="M45.002 5C22.9116 5 5 22.9062 5 44.9995C5 67.0874 22.9116 85 45.002 85C67.0914 85 85 67.0874 85 44.9995C85 22.9062 67.0914 5 45.002 5Z" fill="url(#paint0_linear_827_6808)"/>
<path fill-rule="evenodd" clip-rule="evenodd" d="M65.8776 60.3953C62.0815 64.582 55.2781 71.0951 54.9892 71.3751C54.0958 72.2274 52.9457 72.6541 51.7995 72.6541C50.5773 72.6541 49.365 72.1736 48.4573 71.225C46.6914 69.3751 46.7586 66.4516 48.603 64.6847C48.6702 64.6176 55.4563 58.1228 59.0277 54.1761C60.7166 52.3114 61.5665 49.9173 61.4158 47.4462C61.2558 44.8284 59.9941 42.3711 57.8583 40.5277C55.0548 38.104 49.5181 37.5652 46.0553 40.6734C43.9931 42.5198 41.4939 45.2398 41.4706 45.267C39.7368 47.1455 36.8173 47.2684 34.9373 45.543C33.0603 43.8146 32.9324 40.8867 34.6618 39.0062C34.7768 38.8798 37.4869 35.9311 39.886 33.7815C46.4627 27.8793 57.2356 27.7618 63.9018 33.5252C67.9378 37.0121 70.3304 41.7598 70.6435 46.8862C70.9482 51.864 69.2514 56.664 65.8776 60.3953ZM37.9299 60.7247C33.6504 60.7247 29.3773 59.3089 26.0968 56.4719C22.0623 52.986 19.6697 48.2423 19.3541 43.1119C19.0553 38.1361 20.7452 33.3366 24.1245 29.6077C27.9171 25.4171 34.7215 18.903 35.0084 18.6274C36.8534 16.86 39.7763 16.9307 41.5423 18.7761C43.3047 20.624 43.242 23.5514 41.3961 25.3158C41.3265 25.3825 34.5452 31.8763 30.9714 35.82C29.283 37.6921 28.4311 40.0808 28.5818 42.5494C28.7432 45.1697 30.005 47.6274 32.1383 49.4724C34.9452 51.9015 40.4805 52.4319 43.9442 49.3302C46.0045 47.4778 48.5062 44.7598 48.5314 44.7331C50.2583 42.8507 53.1847 42.7302 55.0613 44.461C56.9398 46.1874 57.0652 49.1173 55.3368 50.9978C55.2223 51.1173 52.5087 54.0645 50.1126 56.2166C46.7734 59.2166 42.3487 60.7247 37.9299 60.7247Z" fill="white"/>
<defs>
<linearGradient id="paint0_linear_827_6808" x1="3999.84" y1="108.954" x2="4005" y2="8005" gradientUnits="userSpaceOnUse">
<stop stop-color="#00AAFF"/>
<stop offset="1" stop-color="#2255FF"/>
</linearGradient>
</defs>
</svg>
