<svg width="90" height="90" viewBox="0 0 90 90" fill="none" xmlns="http://www.w3.org/2000/svg">
<path d="M22.4545 11.3835L45 9L67.5455 11.3835L85 34.815L45 81.3952L5 34.815L22.4545 11.3835Z" fill="#FDB300"/>
<path d="M21.202 34.8155L45 81.3952L5 34.815L21.202 34.8155Z" fill="#EA6C00"/>
<path d="M68.7975 34.8154L45 81.3952L85 34.815L68.7975 34.8154Z" fill="#EA6C00"/>
<path d="M21.202 34.8155L68.7975 34.8154L45 81.3952L21.202 34.8155Z" fill="#FDAD00"/>
<path d="M45 9L22.4545 11.3835L21.202 34.8155L45 9Z" fill="#FDD231"/>
<path d="M45 9L67.5455 11.3835L68.7975 34.8154L45 9Z" fill="#FDD231"/>
<path d="M85 34.815L67.5455 11.3835L68.7975 34.8154L85 34.815Z" fill="#FDAD00"/>
<path d="M5 34.815L22.4545 11.3835L21.202 34.8155L5 34.815Z" fill="#FDAD00"/>
<path d="M45 9L21.202 34.8155L68.7975 34.8154L45 9Z" fill="#FEEEB7"/>
</svg>
