<svg width="300" height="100" viewBox="0 0 300 100" fill="none" xmlns="http://www.w3.org/2000/svg">
<path fill-rule="evenodd" clip-rule="evenodd" d="M114.529 58.0591L114.486 57.4941H113.92H110.404H109.768L109.794 58.1296C110.084 65.2094 114.857 69.8988 123.346 69.8988C131.442 69.8988 136.947 65.6925 136.947 59.3255C136.947 55.8827 135.752 53.4464 133.476 51.7826C131.726 50.5027 129.632 49.7813 126.161 49.0286C125.929 48.9783 125.687 48.9269 125.398 48.8659C125.226 48.8297 124.608 48.7005 124.641 48.7074C118.337 47.3857 116.337 46.2377 116.337 42.8185C116.337 39.2829 119.229 37.0313 124.078 37.0313C128.796 37.0313 131.778 39.9129 131.917 44.4488L131.935 45.0406H132.527H135.994H136.619L136.605 44.4161C136.442 37.3456 131.698 32.5871 124.029 32.5871C116.514 32.5871 111.551 37.1094 111.551 42.965C111.551 46.3981 112.744 48.7888 115.024 50.3861C116.761 51.603 118.772 52.2481 122.321 52.9646C122.487 52.9982 122.661 53.0328 122.867 53.0737C122.995 53.0991 123.139 53.1276 123.41 53.1812C126.768 53.8455 128.25 54.2556 129.601 55.0415C131.279 56.0172 132.112 57.4109 132.112 59.5697C132.112 63.3178 128.96 65.4546 123.443 65.4546C118.161 65.4546 114.884 62.8057 114.529 58.0591ZM146.836 31.9767V31.3662H146.226H142.758H142.148V31.9767V68.6046V69.215H142.758H146.226H146.836V68.6046V62.0738L151.772 57.2674L160.585 68.9718L160.768 69.215H161.073H165.37H166.6L165.856 68.2354L155.093 54.0583L165.02 44.1791L166.068 43.136H164.589H159.949H159.695L159.516 43.3163L146.836 56.0862V31.9767ZM190.644 57.7871H191.217L191.253 57.2147C191.259 57.1141 191.269 56.9477 191.278 56.7472C191.285 56.5885 191.291 56.4338 191.296 56.2876C191.3 56.1292 191.303 55.9851 191.303 55.8581C191.303 48.1957 186.228 42.5499 178.727 42.5499C171.241 42.5499 165.907 48.5597 165.907 56.1511C165.907 63.9628 170.999 69.8011 178.776 69.8011C184.657 69.8011 189.199 66.3121 190.836 61.0198L191.081 60.229H190.253H186.639H186.208L186.064 60.6353C185.036 63.5319 182.253 65.4546 178.825 65.4546C174.343 65.4546 171.219 62.3768 170.656 57.7871H190.644ZM170.798 53.7336C171.59 49.6241 174.612 46.8964 178.727 46.8964C182.969 46.8964 185.896 49.5346 186.536 53.7336H170.798ZM206.687 47.2871H207.297V46.6767V43.7464V43.136H206.687H201.583V36.665V36.0546H200.973H197.505H196.895V36.665V43.136H192.768H192.158V43.7464V46.6767V47.2871H192.768H196.895V61.9139C196.895 66.7121 199.384 69.3127 203.952 69.3127C204.749 69.3127 205.437 69.265 206.014 69.1848C206.371 69.1353 206.617 69.084 206.753 69.0463L207.2 68.9221V68.4581V65.3325V64.575L206.46 64.7359C206.43 64.7424 206.37 64.7546 206.284 64.7706C206.139 64.7978 205.978 64.8251 205.804 64.8506C205.361 64.9159 204.92 64.9577 204.515 64.9651C204.473 64.9658 204.432 64.9662 204.392 64.9662C202.39 64.9662 201.583 64.0262 201.583 61.6697V47.2871H206.687ZM221.265 69.8011C227.754 69.8011 232.336 65.6946 233.487 59.8836L233.631 59.1546H232.888H229.372H228.903L228.782 59.6082C227.796 63.3165 225.121 65.4546 221.265 65.4546C216.453 65.4546 213.133 61.6588 213.133 56.1999C213.133 50.6988 216.447 46.8964 221.265 46.8964C225.121 46.8964 227.796 49.0345 228.782 52.7428L228.903 53.1964H229.372H232.888H233.631L233.487 52.4674C232.336 46.6564 227.754 42.5499 221.265 42.5499C213.726 42.5499 208.396 48.6021 208.396 56.1999C208.396 63.7559 213.734 69.8011 221.265 69.8011ZM242.265 31.9767V31.3662H241.655H238.187H237.577V31.9767V68.6046V69.215H238.187H241.655H242.265V68.6046V53.9046C242.265 49.4258 244.991 46.7988 249.127 46.7988C253.077 46.7988 255.06 49.0853 255.06 53.4162V68.6046V69.215H255.671H259.138H259.749V68.6046V52.7325C259.749 46.6148 255.961 42.5499 249.713 42.5499C246.498 42.5499 243.915 43.7276 242.265 45.4178V31.9767Z" fill="#000008"/>
<path fill-rule="evenodd" clip-rule="evenodd" d="M52.1531 26.6462L67.8509 25L83.5487 26.6462L95.7018 42.8292L67.8509 75L40 42.8292L52.1531 26.6462Z" fill="#FDB300"/>
<path fill-rule="evenodd" clip-rule="evenodd" d="M51.2813 42.8291L67.8509 75L40 42.8292L51.2813 42.8291Z" fill="#EA6C00"/>
<path fill-rule="evenodd" clip-rule="evenodd" d="M84.4203 42.8291L67.8509 75L95.7018 42.8292L84.4203 42.8291Z" fill="#EA6C00"/>
<path fill-rule="evenodd" clip-rule="evenodd" d="M51.2832 42.8291H84.4229L67.853 75L51.2832 42.8291Z" fill="#FDAD00"/>
<path fill-rule="evenodd" clip-rule="evenodd" d="M67.8527 25L52.1549 26.6459L51.2832 42.8291L67.8527 25Z" fill="#FDD231"/>
<path fill-rule="evenodd" clip-rule="evenodd" d="M67.8527 25L83.5505 26.6459L84.4229 42.8291L67.8527 25Z" fill="#FDD231"/>
<path fill-rule="evenodd" clip-rule="evenodd" d="M95.7008 42.8291L83.5487 26.6462L84.4203 42.8291L95.7008 42.8291Z" fill="#FDAD00"/>
<path fill-rule="evenodd" clip-rule="evenodd" d="M40 42.8292L52.1531 26.6462L51.2813 42.8291L40 42.8292Z" fill="#FDAD00"/>
<path fill-rule="evenodd" clip-rule="evenodd" d="M67.8527 25L51.2832 42.8291H84.4229L67.8527 25Z" fill="#FEEEB7"/>
</svg>
