<svg width="90" height="90" viewBox="0 0 90 90" fill="none" xmlns="http://www.w3.org/2000/svg">
<path d="M75.9168 62.3041C64.5964 56.8241 62.7921 48.3632 62.7118 47.7356C62.6147 46.9754 62.5045 46.3777 63.3431 45.6045C64.1519 44.8574 67.7398 42.6366 68.7353 41.9418C70.3808 40.7913 71.1055 39.6426 70.5713 38.2306C70.1978 37.2538 69.2882 36.8858 68.33 36.8858C68.0278 36.8867 67.7266 36.9206 67.4316 36.9867C65.6237 37.3789 63.868 38.2848 62.8519 38.5294C62.7298 38.5609 62.6044 38.5779 62.4784 38.5799C61.9367 38.5799 61.7313 38.3389 61.7836 37.6871C61.9106 35.711 62.1795 31.8541 61.8676 28.2512C61.4399 23.2942 59.8411 20.8381 57.9453 18.6659C57.0283 17.6125 52.7698 13.0869 44.5517 13.0869C36.3336 13.0869 32.0807 17.6125 31.1692 18.6528C29.2679 20.825 27.6709 23.2811 27.2469 28.2381C26.935 31.841 27.2152 35.6961 27.331 37.674C27.3684 38.2941 27.1778 38.5668 26.6362 38.5668C26.5101 38.5646 26.3848 38.5477 26.2626 38.5164C25.2485 38.2717 23.4928 37.3658 21.6848 36.9736C21.3899 36.9075 21.0886 36.8737 20.7864 36.8727C19.8245 36.8727 18.9186 37.2463 18.5451 38.2175C18.0109 39.6295 18.7319 40.7782 20.383 41.9288C21.3785 42.6236 24.9664 44.8424 25.7752 45.5914C26.6119 46.3647 26.5036 46.9623 26.4065 47.7225C26.3261 48.3594 24.52 56.8203 13.2014 62.291C12.5384 62.6122 11.4103 63.2921 13.3994 64.3903C16.5223 66.1161 18.6011 65.9312 20.2167 66.9716C21.5877 67.855 20.7771 69.7601 21.7744 70.4475C22.9997 71.2936 26.6213 70.3877 31.3 71.9323C35.2222 73.2248 37.6055 76.8763 44.561 76.8763C51.5165 76.8763 53.9689 73.208 57.8221 71.9323C62.4914 70.3877 66.1205 71.2936 67.3476 70.4475C68.3431 69.7601 67.5344 67.855 68.9053 66.9716C70.5209 65.9312 72.5978 66.1161 75.7226 64.3903C77.708 63.3052 76.5799 62.6253 75.9168 62.3041Z" fill="white"/>
<path d="M80.8415 61.6594C80.3335 60.2773 79.366 59.5377 78.264 58.925C78.0567 58.8036 77.8661 58.7065 77.7037 58.6318C77.3749 58.4618 77.0387 58.2975 76.7044 58.1238C73.2696 56.3027 70.5875 54.0054 68.7272 51.2822C68.1989 50.5156 67.7407 49.7029 67.3582 48.8541C67.1994 48.4002 67.2069 48.1425 67.3208 47.9072C67.4338 47.7258 67.5833 47.57 67.7597 47.4496C68.35 47.0592 68.9588 46.6632 69.3716 46.3961C70.1075 45.9199 70.6902 45.5426 71.0657 45.2755C72.4758 44.2893 73.462 43.2415 74.0783 42.0704C74.5084 41.2613 74.7592 40.3691 74.8136 39.4545C74.8681 38.5398 74.725 37.6242 74.394 36.7697C73.4601 34.3118 71.1385 32.7858 68.3257 32.7858C67.7324 32.7853 67.1407 32.8479 66.5606 32.9726C66.4056 33.0062 66.2506 33.0417 66.0993 33.0809C66.1255 31.4 66.0881 29.6256 65.9387 27.8792C65.4082 21.7399 63.2585 18.5218 61.0172 15.9555C59.5819 14.3474 57.8913 12.9868 56.0134 11.9286C52.6123 9.98617 48.7554 9 44.551 9C40.3467 9 36.5085 9.98617 33.1036 11.9286C31.2211 12.9871 29.5271 14.3504 28.0905 15.963C25.8492 18.5293 23.6995 21.753 23.169 27.8867C23.0196 29.6331 22.9822 31.4168 23.0065 33.0884C22.8552 33.0492 22.7021 33.0137 22.5471 32.9801C21.967 32.8554 21.3753 32.7927 20.782 32.7933C17.9673 32.7933 15.642 34.3193 14.7118 36.7772C14.3794 37.632 14.2348 38.5483 14.288 39.4639C14.3412 40.3795 14.5908 41.273 15.02 42.0835C15.6382 43.2546 16.6244 44.3024 18.0346 45.2886C18.4081 45.5501 18.9927 45.9273 19.7286 46.4092C20.1264 46.667 20.7073 47.0443 21.277 47.4215C21.4763 47.5504 21.6457 47.7204 21.7738 47.9202C21.8933 48.1649 21.8971 48.4283 21.7196 48.9139C21.3422 49.7448 20.8916 50.5405 20.373 51.2915C18.5538 53.9531 15.9502 56.2093 12.6256 58.0154C10.8643 58.9493 9.03386 59.5731 8.26061 61.6744C7.67787 63.2601 8.0589 65.0643 9.54002 66.5847C10.0836 67.1521 10.7141 67.6294 11.4078 67.9986C12.8512 68.7918 14.386 69.4058 15.9782 69.8271C16.3067 69.9118 16.6187 70.0514 16.9008 70.2399C17.4406 70.7124 17.364 71.424 18.0831 72.4662C18.4441 73.0049 18.9027 73.4711 19.4354 73.8409C20.9445 74.8831 22.6404 74.9485 24.4372 75.0176C26.0603 75.0792 27.9 75.1502 30.0013 75.8431C30.8716 76.1308 31.7756 76.6874 32.8234 77.3373C35.3393 78.8838 38.7834 81 44.5473 81C50.3112 81 53.7796 78.8726 56.3142 77.3205C57.3545 76.6818 58.2529 76.1308 59.099 75.8506C61.2002 75.1558 63.0399 75.0867 64.663 75.0251C66.4598 74.956 68.1557 74.8906 69.6648 73.8484C70.2956 73.4085 70.8212 72.8345 71.2039 72.1674C71.7212 71.2877 71.7082 70.6732 72.1938 70.2436C72.4585 70.0641 72.7514 69.9303 73.0604 69.8477C74.6744 69.4251 76.2301 68.8053 77.6925 68.0023C78.4295 67.6069 79.0929 67.0876 79.6536 66.467L79.6723 66.4446C81.0619 64.9579 81.4111 63.2059 80.8415 61.6594ZM75.7182 64.4125C72.5935 66.1383 70.5165 65.9534 68.9009 66.9937C67.5281 67.8772 68.3406 69.7823 67.3432 70.4696C66.118 71.3157 62.4964 70.4098 57.8177 71.9545C53.9589 73.2301 51.4972 76.8984 44.5566 76.8984C37.6161 76.8984 35.2123 73.2376 31.29 71.9451C26.6206 70.4005 22.9916 71.3064 21.7645 70.4603C20.769 69.7729 21.5777 67.8678 20.2068 66.9844C18.5893 65.944 16.5123 66.129 13.3895 64.4125C11.4003 63.3143 12.5284 62.6344 13.1915 62.3131C24.5101 56.8331 26.3162 48.3722 26.3965 47.7447C26.4936 46.9845 26.6019 46.3868 25.7652 45.6136C24.9565 44.8665 21.3685 42.6457 20.373 41.9509C18.7256 40.8004 18.0009 39.6517 18.5351 38.2397C18.9087 37.2628 19.8201 36.8949 20.7764 36.8949C21.0787 36.8958 21.3799 36.9296 21.6748 36.9958C23.4828 37.388 25.2385 38.2938 26.2527 38.5385C26.3748 38.5699 26.5002 38.5868 26.6262 38.5889C27.1679 38.5889 27.3584 38.3163 27.321 37.6962C27.2052 35.7182 26.9251 31.8632 27.237 28.2603C27.6647 23.3033 29.2616 20.8472 31.1593 18.675C32.0707 17.6309 36.3535 13.1053 44.5436 13.1053C52.7337 13.1053 57.0276 17.6122 57.9391 18.6525C59.8386 20.8247 61.4374 23.2808 61.8614 28.2379C62.1733 31.8408 61.9043 35.6977 61.7773 37.6737C61.7344 38.3256 61.9305 38.5665 62.4721 38.5665C62.5982 38.5645 62.7236 38.5476 62.8457 38.5161C63.8617 38.2714 65.6174 37.3656 67.4254 36.9733C67.7203 36.9072 68.0216 36.8734 68.3238 36.8725C69.2857 36.8725 70.1916 37.246 70.5651 38.2173C71.0993 39.6293 70.3783 40.7779 68.7291 41.9285C67.7336 42.6233 64.1456 44.8422 63.3369 45.5911C62.4983 46.3644 62.6085 46.9621 62.7056 47.7223C62.7859 48.3592 64.5902 56.8201 75.9106 62.2907C76.5793 62.6251 77.7074 63.3049 75.7182 64.4125Z" fill="#000008"/>
</svg>
