<svg width="90" height="90" viewBox="0 0 90 90" fill="none" xmlns="http://www.w3.org/2000/svg">
<path fill-rule="evenodd" clip-rule="evenodd" d="M84.8677 12.9558C84.8677 8.56193 81.3055 5 76.9112 5H12.9555C8.56252 5 5.00028 8.56193 5.00028 12.9558V32.9794C5.00028 37.3732 8.56252 40.9352 12.9555 40.9352H76.9112C81.3055 40.9352 84.8677 37.3732 84.8677 32.9794V12.9558Z" fill="#F9A619"/>
<path fill-rule="evenodd" clip-rule="evenodd" d="M84.8678 56.8865C84.8678 52.4927 81.3057 48.9307 76.9116 48.9307C70.9579 48.9307 62.8503 48.9307 56.896 48.9307C52.5025 48.9307 48.9403 52.4927 48.9403 56.8865C48.9403 62.8426 48.9403 70.9541 48.9403 76.9101C48.9403 81.304 52.5025 84.8659 56.896 84.8659C62.8503 84.8659 70.9579 84.8659 76.9116 84.8659C81.3057 84.8659 84.8678 81.304 84.8678 76.9101C84.8678 70.9541 84.8678 62.8426 84.8678 56.8865Z" fill="#3B85DB"/>
<path fill-rule="evenodd" clip-rule="evenodd" d="M40.9275 66.8939C40.9275 56.9733 32.8851 48.9307 22.9643 48.9307H22.9632C13.0424 48.9307 5 56.9733 5 66.8939C5 66.8968 5 66.8998 5 66.9028C5 76.8234 13.0424 84.8659 22.9632 84.8659H22.9643C32.8851 84.8659 40.9275 76.8234 40.9275 66.9028C40.9275 66.8998 40.9275 66.8968 40.9275 66.8939Z" fill="#EB3669"/>
</svg>
