<svg width="300" height="100" viewBox="0 0 300 100" fill="none" xmlns="http://www.w3.org/2000/svg">
<path fill-rule="evenodd" clip-rule="evenodd" d="M102.499 28.0003C102.499 24.7326 99.8497 22.0836 96.5817 22.0836H49.018C45.7509 22.0836 43.1017 24.7326 43.1017 28.0003V42.8918C43.1017 46.1595 45.7509 48.8085 49.018 48.8085H96.5817C99.8497 48.8085 102.499 46.1595 102.499 42.8918V28.0003Z" fill="#F9A619"/>
<path fill-rule="evenodd" clip-rule="evenodd" d="M102.5 60.6717C102.5 57.404 99.8504 54.7551 96.5825 54.7551C92.1548 54.7551 86.1251 54.7551 81.6969 54.7551C78.4295 54.7551 75.7803 57.404 75.7803 60.6717C75.7803 65.1012 75.7803 71.1337 75.7803 75.5633C75.7803 78.8309 78.4295 81.4799 81.6969 81.4799C86.1251 81.4799 92.1548 81.4799 96.5825 81.4799C99.8504 81.4799 102.5 78.8309 102.5 75.5633C102.5 71.1337 102.5 65.1012 102.5 60.6717Z" fill="#3B85DB"/>
<path fill-rule="evenodd" clip-rule="evenodd" d="M69.8208 68.1142C69.8208 60.7363 63.8397 54.7551 56.4616 54.7551C49.0835 54.7551 43.1016 60.7363 43.1016 68.1142C43.1016 68.1164 43.1016 68.1186 43.1016 68.1208C43.1016 75.4987 49.0827 81.4799 56.4608 81.4799C63.8389 81.4799 69.8208 75.4987 69.8208 68.1208C69.8208 68.1186 69.8208 68.1164 69.8208 68.1142Z" fill="#EB3669"/>
<path fill-rule="evenodd" clip-rule="evenodd" d="M221.056 37.4968V29.5077C221.056 29.3338 221.125 29.1669 221.248 29.0439C221.371 28.9213 221.538 28.8523 221.712 28.8523H226.541C226.715 28.8523 226.882 28.9213 227.005 29.0439C227.128 29.1669 227.197 29.3338 227.197 29.5077V37.4968H235.377C235.551 37.4968 235.718 37.5659 235.84 37.6889C235.963 37.8119 236.032 37.9783 236.032 38.1523V42.1733C236.032 42.3472 235.963 42.5141 235.84 42.6371C235.718 42.7602 235.551 42.8292 235.377 42.8292H227.197V67.5195C227.197 67.6934 227.128 67.8603 227.005 67.9834C226.882 68.1059 226.715 68.175 226.541 68.175H221.712C221.538 68.175 221.371 68.1059 221.248 67.9834C221.125 67.8603 221.056 67.6934 221.056 67.5195V42.8292H213.049C212.875 42.8292 212.708 42.7602 212.585 42.6371C212.462 42.5141 212.393 42.3472 212.393 42.1733V38.1523C212.393 37.9783 212.462 37.8119 212.585 37.6889C212.708 37.5659 212.875 37.4968 213.049 37.4968H221.056ZM246.11 43.0234C247.028 41.2859 248.493 39.7702 250.33 38.6202C252.571 37.217 254.858 36.7491 257.451 36.8867C257.505 36.8897 257.831 36.9271 258.134 36.9634C258.444 37.0022 258.677 37.2659 258.677 37.5785C258.678 38.7361 258.678 41.4487 258.678 42.8539C258.677 43.0602 258.583 43.2553 258.421 43.3834C258.26 43.5114 258.048 43.5583 257.847 43.5109C257.058 43.3314 256.22 43.2397 255.349 43.2397C250.648 43.2397 246.684 46.8936 246.142 51.4687C246.13 51.5726 246.119 51.677 246.11 51.7818C246.09 52.0314 246.079 52.284 246.079 52.5381C246.079 52.7958 246.09 53.0504 246.11 53.3025V68.175H240.626C240.452 68.175 240.285 68.1059 240.162 67.9834C240.039 67.8603 239.97 67.6934 239.97 67.5195V38.115C239.97 37.941 240.039 37.7741 240.162 37.6511C240.285 37.5281 240.452 37.459 240.626 37.459H245.455C245.629 37.459 245.796 37.5281 245.919 37.6511C246.041 37.7741 246.11 37.941 246.11 38.115V43.0234ZM172.636 36.8645C177.933 36.8645 182.76 39.5524 185.62 43.7151C187.39 46.2921 188.336 49.46 188.38 52.8286C188.428 56.4603 187.431 59.7744 185.475 62.4578C182.685 66.2842 178.092 68.7921 173.053 68.7921C167.269 68.7921 162.089 65.5899 159.351 60.7677C158.03 58.4403 157.346 55.6965 157.308 52.8286C157.258 48.9583 158.413 45.4541 160.609 42.6891C163.414 39.1602 167.828 36.8645 172.636 36.8645ZM172.636 42.5005C169.591 42.5005 167.121 43.9602 165.439 46.1953C164.097 47.9797 163.441 50.2576 163.472 52.755C163.495 54.6412 163.829 56.5652 164.639 58.1025C166.288 61.2331 168.984 63.1012 173.053 63.1561C176.245 63.1995 178.816 61.5623 180.489 59.1381C181.685 57.4042 182.239 55.1655 182.258 52.819C182.277 50.4639 181.645 48.3129 180.545 46.6208C178.806 43.9465 176.038 42.5005 172.636 42.5005ZM140.425 41.7139C139.483 41.6751 138.069 41.9877 138.069 41.9877C136.826 42.2308 135.075 43.159 134.819 45.2776C134.563 47.3968 136.365 48.2645 137.222 48.6699C138.08 49.0753 140.463 49.7403 142.758 50.1034C145.053 50.4664 147.553 51.3795 147.553 51.3795C153.63 53.1719 155.132 60.0427 151.967 64.4857C148.801 68.9287 139.995 70.0143 134.014 67.3556C128.032 64.6965 128.025 58.9682 128.025 58.9682C128.019 58.7353 128.149 58.5709 128.149 58.5709C128.361 58.2659 128.701 58.2916 128.701 58.2916C128.701 58.2916 133.763 58.2911 133.809 58.2921C133.855 58.2926 133.923 58.3072 133.923 58.3072C134.489 58.4504 134.449 59.0439 134.449 59.0439C134.714 60.8313 135.486 61.641 135.486 61.641C137.058 63.6346 140.422 64.284 143.064 63.8131C145.706 63.3422 147.118 62.1467 147.23 59.7891C147.342 57.4314 145.067 56.5123 145.067 56.5123C143.593 55.5941 140.011 55.1585 136.284 54.2701C132.558 53.3812 130.964 51.7375 130.964 51.7375C127.613 48.9049 128.864 43.8044 128.864 43.8044C130.385 38.2385 136.568 37.2366 136.568 37.2366C145.664 35.4346 150.377 40.1025 151.594 42.1914C152.824 44.3025 152.917 46.2119 152.917 46.2119C152.852 46.7822 152.323 46.8301 152.323 46.8301L148.378 46.8286L147.107 46.8245C146.565 46.757 146.517 46.3042 146.505 46.2144C146.493 46.1247 146.422 45.7839 146.422 45.7839C146.422 45.7839 145.849 41.9388 140.425 41.7139ZM196.55 37.4761V32.9918H196.551C196.549 32.902 196.548 32.8123 196.548 32.7225C196.548 26.5284 201.567 21.5 207.749 21.5C209.016 21.5 210.345 21.6477 211.656 21.9361C211.945 22.0007 212.15 22.2573 212.15 22.5533C212.15 23.5072 212.15 25.5971 212.15 26.8062C212.15 27.0205 212.052 27.2222 211.883 27.3543C211.715 27.4864 211.495 27.5333 211.287 27.4824C210.356 27.2635 209.375 27.1652 208.454 27.1652C205.254 27.1652 202.685 29.7608 202.685 32.9595C202.685 32.9701 202.685 32.9812 202.685 32.9918C202.686 33.0371 202.686 33.0825 202.688 33.1279L202.691 37.4761H206.972C207.335 37.4761 207.629 37.7706 207.629 38.1336V42.2076C207.629 42.382 207.56 42.5494 207.436 42.6724C207.313 42.796 207.145 42.865 206.971 42.8645L202.696 42.8595L202.719 67.5205C202.719 67.695 202.65 67.8624 202.527 67.9859C202.403 68.1094 202.236 68.1785 202.062 68.1785H197.207C197.033 68.1785 196.866 68.1094 196.742 67.9859C196.619 67.8629 196.55 67.6955 196.55 67.5215V42.8655H191.928C191.754 42.8655 191.586 42.7965 191.463 42.6729C191.34 42.5499 191.271 42.3825 191.271 42.2081V38.1336C191.271 37.9592 191.34 37.7918 191.463 37.6687C191.586 37.5457 191.754 37.4761 191.928 37.4761H196.55Z" fill="#000008"/>
</svg>
