<svg width="90" height="90" viewBox="0 0 90 90" fill="none" xmlns="http://www.w3.org/2000/svg">
<path fill-rule="evenodd" clip-rule="evenodd" d="M83.6228 51.7457C83.4642 54.5811 82.2159 57.2455 80.1389 59.1821C78.0618 61.1187 75.3167 62.1777 72.4772 62.1377H45.6868C45.0971 62.1319 44.5334 61.8944 44.1173 61.4765C43.7012 61.0586 43.4661 60.4938 43.4628 59.9041V31.0576C43.444 30.5626 43.5753 30.0734 43.8394 29.6542C44.1035 29.2351 44.4881 28.9055 44.9428 28.7088C44.9428 28.7088 47.4068 27 52.5972 27C55.7683 26.9964 58.8812 27.8518 61.6052 29.4752C63.7308 30.7258 65.5737 32.4039 67.0173 34.4034C68.461 36.4029 69.4741 38.6802 69.9924 41.0913C70.917 40.8309 71.8734 40.7006 72.834 40.7041C74.275 40.6946 75.7031 40.9757 77.033 41.5304C78.363 42.0851 79.5675 42.9022 80.5746 43.9328C81.5818 44.9634 82.3709 46.1864 82.8949 47.5288C83.4189 48.8711 83.6654 50.3053 83.6228 51.7457ZM40.1188 32.8816C40.9268 42.6657 41.514 51.5889 40.1188 61.3409C40.0946 61.5533 39.9931 61.7494 39.8336 61.8917C39.6741 62.0341 39.4678 62.1128 39.254 62.1128C39.0402 62.1128 38.8339 62.0341 38.6744 61.8917C38.5149 61.7494 38.4134 61.5533 38.3892 61.3409C37.0884 51.6721 37.6532 42.5809 38.3892 32.8816C38.3701 32.7186 38.3976 32.5536 38.4685 32.4056C38.5395 32.2576 38.651 32.1328 38.7901 32.0456C38.9292 31.9585 39.0901 31.9126 39.2542 31.9133C39.4183 31.914 39.5789 31.9613 39.7172 32.0496C39.9988 32.2256 40.1572 32.5504 40.1188 32.8816ZM34.6964 61.3505C34.6659 61.568 34.5579 61.7671 34.3922 61.9112C34.2266 62.0553 34.0144 62.1347 33.7948 62.1347C33.5752 62.1347 33.363 62.0553 33.1974 61.9112C33.0317 61.7671 32.9237 61.568 32.8932 61.3505C31.9236 53.0079 31.9236 44.5811 32.8932 36.2384C32.9163 36.0139 33.0219 35.806 33.1895 35.6548C33.357 35.5036 33.5747 35.4199 33.8004 35.4199C34.0261 35.4199 34.2438 35.5036 34.4114 35.6548C34.5789 35.806 34.6845 36.0139 34.7076 36.2384C35.7844 44.5745 35.7796 53.0145 34.6964 61.3505ZM29.266 35.3888C30.146 44.3537 30.546 52.3857 29.2564 61.3297C29.243 61.5515 29.1454 61.7597 28.9836 61.9119C28.8219 62.0642 28.6081 62.1489 28.386 62.1489C28.1639 62.1489 27.9501 62.0642 27.7884 61.9119C27.6266 61.7597 27.5291 61.5515 27.5156 61.3297C26.2676 52.5009 26.6868 44.2385 27.5156 35.3888C27.5636 34.9408 27.9412 34.6048 28.3908 34.6048C28.8388 34.6048 29.218 34.9408 29.266 35.3888ZM23.826 61.3617C23.7971 61.5763 23.6913 61.7732 23.5283 61.9157C23.3653 62.0582 23.1561 62.1368 22.9396 62.1368C22.7231 62.1368 22.5139 62.0582 22.3509 61.9157C22.1879 61.7732 22.0821 61.5763 22.0532 61.3617C21.0516 53.5783 21.0516 45.6987 22.0532 37.9152C22.0532 37.6761 22.1482 37.4468 22.3173 37.2777C22.4864 37.1086 22.7157 37.0136 22.9548 37.0136C23.1939 37.0136 23.4232 37.1086 23.5923 37.2777C23.7614 37.4468 23.8564 37.6761 23.8564 37.9152C24.9202 45.6953 24.911 53.5846 23.826 61.3617ZM18.3924 43.7777C19.7668 49.8577 19.1476 55.2273 18.3412 61.4241C18.3086 61.6234 18.2062 61.8045 18.0523 61.9352C17.8984 62.0659 17.7031 62.1377 17.5012 62.1377C17.2993 62.1377 17.104 62.0659 16.9501 61.9352C16.7962 61.8045 16.6938 61.6234 16.6612 61.4241C15.9284 55.3121 15.3204 49.8161 16.61 43.7761C16.6238 43.549 16.7238 43.3357 16.8896 43.1798C17.0554 43.024 17.2744 42.9373 17.502 42.9375C17.7295 42.9377 17.9484 43.0248 18.1139 43.1809C18.2794 43.3371 18.379 43.5505 18.3924 43.7777ZM12.9716 42.8545C14.2308 49.0833 13.8196 54.3569 12.9396 60.6065C12.8356 61.5297 11.2532 61.5393 11.1684 60.6065C10.3716 54.4513 9.994 49.0193 11.1364 42.8545C11.1645 42.6309 11.2732 42.4253 11.4421 42.2762C11.6111 42.1271 11.8287 42.0448 12.054 42.0448C12.2793 42.0448 12.4969 42.1271 12.6659 42.2762C12.8348 42.4253 12.9435 42.6309 12.9716 42.8545ZM7.4996 45.8737C8.8196 50.0049 8.3684 53.3617 7.4468 57.5969C7.42826 57.8112 7.33005 58.0107 7.17157 58.156C7.01308 58.3014 6.80585 58.382 6.5908 58.382C6.37575 58.382 6.16852 58.3014 6.01004 58.156C5.85156 58.0107 5.75335 57.8112 5.7348 57.5969C4.9396 53.4449 4.6148 50.0161 5.6644 45.8737C5.68363 45.6438 5.78855 45.4294 5.95836 45.2732C6.12817 45.117 6.35048 45.0303 6.5812 45.0303C6.81193 45.0303 7.03424 45.117 7.20405 45.2732C7.37386 45.4294 7.47878 45.6438 7.498 45.8737H7.4996Z" fill="#FF5500"/>
</svg>
