<svg width="400" height="100" viewBox="0 0 400 100" fill="none" xmlns="http://www.w3.org/2000/svg">
<path d="M108.37 63.7925C110.616 61.6988 111.965 58.8183 112.137 55.7529C112.183 54.1957 111.916 52.6452 111.35 51.1939C110.783 49.7427 109.93 48.4205 108.841 47.3063C107.752 46.1921 106.45 45.3088 105.012 44.709C103.575 44.1093 102.031 43.8054 100.473 43.8156C99.4343 43.8119 98.4004 43.9528 97.4007 44.2343C96.8404 41.6276 95.7452 39.1656 94.1844 37.0039C92.6236 34.8423 90.6312 33.0281 88.3333 31.676C85.3883 29.9209 82.0229 28.9961 78.5946 29C72.9832 29 70.3193 30.8474 70.3193 30.8474C69.8278 31.0601 69.412 31.4164 69.1264 31.8695C68.8409 32.3227 68.699 32.8515 68.7193 33.3868V64.5731C68.7229 65.2106 68.9771 65.8212 69.4269 66.273C69.8767 66.7248 70.4862 66.9815 71.1237 66.9879H100.087C103.157 67.0311 106.125 65.8862 108.37 63.7925Z" fill="#FF5500"/>
<path d="M65.1041 66.1265C66.6124 55.5834 65.9776 45.9364 65.1041 35.3587C65.1456 35.0006 64.9743 34.6495 64.6699 34.4592C64.5203 34.3637 64.3468 34.3126 64.1693 34.3119C63.9919 34.3111 63.8179 34.3607 63.6676 34.4549C63.5172 34.5491 63.3967 34.684 63.3199 34.844C63.2432 35.004 63.2135 35.1825 63.2342 35.3587C62.4385 45.8447 61.8279 55.6733 63.2342 66.1265C63.2603 66.3561 63.3701 66.5681 63.5425 66.7219C63.715 66.8758 63.938 66.9609 64.1691 66.9609C64.4002 66.9609 64.6233 66.8758 64.7957 66.7219C64.9681 66.5681 65.0779 66.3561 65.1041 66.1265Z" fill="#FF5500"/>
<path d="M58.913 66.743C59.0921 66.5872 59.2089 66.3719 59.2418 66.1368C60.4129 57.1246 60.4181 48 59.2539 38.9878C59.2289 38.7451 59.1148 38.5203 58.9337 38.3568C58.7525 38.1933 58.5172 38.1029 58.2732 38.1029C58.0292 38.1029 57.7938 38.1933 57.6127 38.3568C57.4315 38.5203 57.3174 38.7451 57.2924 38.9878C56.2441 48.0071 56.2441 57.1175 57.2924 66.1368C57.3253 66.3719 57.4421 66.5872 57.6212 66.743C57.8003 66.8988 58.0297 66.9846 58.2671 66.9846C58.5045 66.9846 58.7339 66.8988 58.913 66.743Z" fill="#FF5500"/>
<path d="M53.3606 66.1143C54.7548 56.4448 54.3224 47.7613 53.371 38.0693C53.3191 37.585 52.9091 37.2217 52.4248 37.2217C51.9387 37.2217 51.5305 37.585 51.4786 38.0693C50.5826 47.6367 50.1294 56.5694 51.4786 66.1143C51.4931 66.3541 51.5986 66.5792 51.7735 66.7438C51.9484 66.9084 52.1795 67 52.4196 67C52.6597 67 52.8908 66.9084 53.0657 66.7438C53.2406 66.5792 53.3461 66.3541 53.3606 66.1143Z" fill="#FF5500"/>
<path d="M47.1679 66.7478C47.3441 66.5937 47.4585 66.381 47.4897 66.1489C48.6628 57.741 48.6727 49.2117 47.5226 40.8006C47.5226 40.5421 47.4199 40.2942 47.2371 40.1114C47.0543 39.9286 46.8064 39.8259 46.5479 39.8259C46.2893 39.8259 46.0414 39.9286 45.8586 40.1114C45.6758 40.2942 45.5731 40.5421 45.5731 40.8006C44.4903 49.2154 44.4903 57.7342 45.5731 66.1489C45.6044 66.381 45.7187 66.5937 45.895 66.7478C46.0712 66.9019 46.2973 66.9869 46.5314 66.9869C46.7655 66.9869 46.9917 66.9019 47.1679 66.7478Z" fill="#FF5500"/>
<path d="M41.56 66.2164C42.4319 59.5169 43.1013 53.7118 41.6154 47.1386C41.6009 46.893 41.4932 46.6622 41.3143 46.4934C41.1353 46.3246 40.8987 46.2305 40.6527 46.2302C40.4067 46.23 40.1699 46.3237 39.9907 46.4922C39.8115 46.6607 39.7034 46.8913 39.6884 47.1368C38.2942 53.6668 38.9515 59.6086 39.7438 66.2164C39.7791 66.4318 39.8898 66.6277 40.0561 66.769C40.2225 66.9103 40.4336 66.9879 40.6519 66.9879C40.8702 66.9879 41.0813 66.9103 41.2477 66.769C41.414 66.6277 41.5248 66.4318 41.56 66.2164Z" fill="#FF5500"/>
<path d="M35.7203 65.3325C36.6717 58.5759 37.1162 52.8745 35.7549 46.1405C35.7246 45.8988 35.607 45.6765 35.4244 45.5153C35.2417 45.3541 35.0065 45.2652 34.7629 45.2652C34.5193 45.2652 34.2841 45.3541 34.1014 45.5153C33.9187 45.6765 33.8012 45.8988 33.7709 46.1405C32.5358 52.8054 32.944 58.678 33.8055 65.3325C33.8971 66.341 35.6079 66.3306 35.7203 65.3325Z" fill="#FF5500"/>
<path d="M29.782 62.0788C30.7783 57.5 31.2661 53.8709 29.8391 49.4046H29.8373C29.8166 49.156 29.7031 48.9243 29.5195 48.7555C29.336 48.5866 29.0956 48.4928 28.8462 48.4928C28.5967 48.4928 28.3564 48.5866 28.1728 48.7555C27.9892 48.9243 27.8758 49.156 27.855 49.4046C26.7203 53.883 27.0714 57.59 27.9311 62.0788C27.9512 62.3104 28.0573 62.5261 28.2287 62.6832C28.4 62.8404 28.6241 62.9276 28.8566 62.9276C29.089 62.9276 29.3131 62.8404 29.4844 62.6832C29.6558 62.5261 29.7619 62.3104 29.782 62.0788Z" fill="#FF5500"/>
<path d="M218.353 51.2617V34.811H223.458V60.6215H218.92L209.56 46.4399C208.993 45.589 208.142 44.1708 207.859 43.6036V60.6215H202.753V34.811H207.575L216.651 48.4253C217.218 49.2762 218.069 50.6944 218.353 51.2617Z" fill="#FF5500"/>
<path fill-rule="evenodd" clip-rule="evenodd" d="M237.924 60.6215H230.265V35.0946H238.491C245.865 35.0946 251.254 38.4982 251.254 47.8581C251.254 56.9343 244.447 60.6215 237.924 60.6215ZM238.207 39.9164H235.371V55.7998H237.924C243.313 55.7998 245.865 52.6798 245.865 47.8581C245.865 42.4691 243.596 39.9164 238.207 39.9164Z" fill="#FF5500"/>
<path d="M281.035 60.6215V34.811H286.424V55.5161H296.635V60.6215H281.035Z" fill="#FF5500"/>
<path fill-rule="evenodd" clip-rule="evenodd" d="M361.303 60.6215H353.645V35.0946H361.87C368.394 35.0946 373.216 37.6473 374.35 44.4545V50.978C372.932 57.7852 366.976 60.6215 361.303 60.6215ZM361.587 39.9164H358.75V55.7998H361.303C366.692 55.7998 369.245 52.6798 369.245 47.8581C369.245 42.4691 366.976 39.9164 361.587 39.9164Z" fill="#FF5500"/>
<path d="M132.696 49.8435C128.158 48.709 124.755 47.2908 124.755 42.1854C124.755 37.6473 128.442 34.811 133.264 34.811H134.114C138.085 34.811 140.922 36.2291 143.474 38.7818L139.787 42.4691C138.085 40.7673 136.1 39.9164 133.831 39.9164C130.995 39.9164 130.144 41.0509 130.144 42.1854C130.144 43.8872 131.278 44.4545 135.249 45.3054C139.22 46.1563 143.758 47.5744 143.758 53.2471C143.758 58.0688 140.638 61.4724 133.547 61.4724C129.293 61.4724 125.606 59.487 123.62 56.6507L127.307 53.2471C129.009 55.2325 131.278 56.0834 133.831 56.0834C136.951 56.0834 138.369 55.2325 138.369 53.2471C138.369 51.5453 137.518 50.978 132.696 49.8435Z" fill="#FF5500"/>
<path fill-rule="evenodd" clip-rule="evenodd" d="M158.79 61.1888C151.983 61.1888 147.729 55.7998 147.729 47.8581C147.729 39.9164 151.983 34.5273 158.79 34.5273C165.881 34.5273 170.136 39.9164 170.136 47.8581C170.136 55.7998 165.881 61.1888 158.79 61.1888ZM159.074 39.6327C154.82 39.6327 153.118 43.3199 153.118 47.8581C153.118 52.3962 154.82 56.0834 159.074 56.0834C163.328 56.0834 165.03 52.3962 165.03 47.8581C165.03 43.3199 163.328 39.6327 159.074 39.6327Z" fill="#FF5500"/>
<path d="M191.124 49.2762V34.5273H196.23V48.9926C196.23 56.6507 192.259 60.9052 185.735 60.9052C179.495 60.9052 175.241 56.6507 175.241 49.2762V34.811H180.346V49.2762C180.346 53.5307 182.332 56.0834 185.735 56.0834C189.139 56.0834 191.124 53.5307 191.124 49.2762Z" fill="#FF5500"/>
<path d="M266.854 61.1888C260.047 61.1888 255.509 56.0834 255.509 47.8581C255.509 39.9164 260.33 34.5273 267.138 34.5273C271.959 34.5273 274.796 36.7964 276.497 40.2L271.676 42.4691C270.541 40.7673 269.123 39.6327 266.854 39.6327C263.167 39.6327 260.898 43.0363 260.898 47.8581C260.898 52.6798 263.167 56.0834 267.138 56.0834C269.407 56.0834 270.825 54.9489 272.243 52.6798L276.497 55.2325C274.512 58.9197 271.676 61.1888 266.854 61.1888Z" fill="#FF5500"/>
<path fill-rule="evenodd" clip-rule="evenodd" d="M309.966 61.1888C303.159 61.1888 298.904 55.7998 298.904 47.8581C298.904 39.9164 303.159 34.5273 309.966 34.5273C316.773 34.5273 321.027 39.9164 321.027 47.8581C321.027 55.7998 317.057 61.1888 309.966 61.1888ZM310.249 39.6327C305.995 39.6327 304.293 43.3199 304.293 47.8581C304.293 52.3962 305.995 56.0834 310.249 56.0834C314.504 56.0834 316.206 52.3962 316.206 47.8581C316.206 43.3199 314.504 39.6327 310.249 39.6327Z" fill="#FF5500"/>
<path d="M342.016 49.2762V34.5273H347.122V48.9926C347.122 56.6507 343.151 60.9052 336.627 60.9052C330.387 60.9052 326.133 56.6507 326.133 49.2762V34.811H331.238V49.2762C331.238 53.5307 333.224 56.0834 336.627 56.0834C340.031 56.0834 342.016 53.5307 342.016 49.2762Z" fill="#FF5500"/>
</svg>
