<svg width="300" height="100" viewBox="0 0 300 100" fill="none" xmlns="http://www.w3.org/2000/svg">
<path fill-rule="evenodd" clip-rule="evenodd" d="M81.3832 21C65.1557 21 52 34.1554 52 50.3832C52 66.6123 65.1557 79.767 81.3832 79.767C97.6118 79.767 110.767 66.6123 110.767 50.3832C110.767 34.1554 97.6118 21 81.3832 21ZM98.7644 47.0491C89.2929 41.4242 73.67 40.907 64.6283 43.6516C63.176 44.0919 61.6406 43.2723 61.201 41.8204C60.7606 40.3674 61.5796 38.833 63.0325 38.3916C73.4121 35.2411 90.6659 35.8498 101.57 42.3225C102.876 43.0975 103.304 44.7842 102.53 46.0881C101.755 47.394 100.067 47.8246 98.7644 47.0491ZM98.4543 55.3803C97.7901 56.4586 96.3802 56.7965 95.3034 56.1347C87.407 51.2811 75.3657 49.8747 66.0237 52.7105C64.8125 53.0768 63.5329 52.3937 63.1648 51.1846C62.7999 49.973 63.483 48.6958 64.6925 48.3274C75.3643 45.0888 88.6312 46.6572 97.7006 52.2309C98.7774 52.894 99.1164 54.3046 98.4543 55.3803ZM94.8589 63.3814C94.3311 64.247 93.2034 64.5186 92.341 63.9909C85.4407 59.7737 76.7559 58.821 66.5279 61.1575C65.5423 61.3835 64.5599 60.7656 64.3353 59.7803C64.1093 58.7947 64.7248 57.8126 65.7125 57.5877C76.9054 55.0291 86.5067 56.1302 94.2515 60.8628C95.115 61.3902 95.3869 62.5182 94.8589 63.3814Z" fill="#1ED760"/>
<path d="M131.941 48.1262C126.867 46.916 125.964 46.0669 125.964 44.2831C125.964 42.5974 127.551 41.463 129.911 41.463C132.199 41.463 134.467 42.3248 136.845 44.0981C136.917 44.1515 137.008 44.1732 137.096 44.1592C137.185 44.1459 137.263 44.0971 137.316 44.0238L139.793 40.5318C139.895 40.388 139.867 40.1897 139.73 40.0799C136.899 37.8083 133.712 36.7041 129.986 36.7041C124.508 36.7041 120.682 39.9915 120.682 44.695C120.682 49.7392 123.983 51.5248 129.687 52.9034C134.541 54.0216 135.361 54.9585 135.361 56.6332C135.361 58.489 133.704 59.6427 131.037 59.6427C128.076 59.6427 125.661 58.6452 122.959 56.3052C122.892 56.2476 122.8 56.2209 122.715 56.2259C122.626 56.2332 122.544 56.2746 122.487 56.343L119.709 59.6487C119.593 59.7859 119.608 59.9908 119.742 60.1094C122.886 62.916 126.753 64.3988 130.925 64.3988C136.828 64.3988 140.642 61.1732 140.642 56.1813C140.642 51.9627 138.122 49.6294 131.941 48.1262Z" fill="#1ED760"/>
<path fill-rule="evenodd" clip-rule="evenodd" d="M147.611 46.1948C149.341 44.1299 151.44 43.1226 153.999 43.1226C158.753 43.1226 163.565 46.7829 163.565 53.7805C163.565 60.7759 158.753 64.4355 153.999 64.4355C151.441 64.4355 149.342 63.4868 147.611 61.5443V69.6959C147.611 69.8794 147.462 70.0289 147.279 70.0289H142.736C142.553 70.0289 142.404 69.8794 142.404 69.6959V43.8706C142.404 43.6875 142.553 43.538 142.736 43.538H147.279C147.462 43.538 147.611 43.6875 147.611 43.8706V46.1948ZM152.947 59.8285C156.089 59.8285 158.283 57.3426 158.283 53.7805C158.283 50.2752 156.039 47.732 152.947 47.732C149.841 47.732 147.498 50.3313 147.498 53.7805C147.498 57.2296 149.841 59.8285 152.947 59.8285Z" fill="#1ED760"/>
<path fill-rule="evenodd" clip-rule="evenodd" d="M175.901 43.1226C169.779 43.1226 164.982 47.8369 164.982 53.8562C164.982 59.8103 169.746 64.4752 175.826 64.4752C181.97 64.4752 186.781 59.7766 186.781 53.7805C186.781 47.8036 182.003 43.1226 175.901 43.1226ZM175.901 59.8657C172.645 59.8657 170.19 57.2492 170.19 53.7805C170.19 50.2966 172.56 47.7685 175.826 47.7685C179.104 47.7685 181.575 50.385 181.575 53.8562C181.575 57.3394 179.189 59.8657 175.901 59.8657Z" fill="#1ED760"/>
<path d="M194.857 43.5381H199.856C200.039 43.5381 200.187 43.6876 200.187 43.8707V47.7749C200.187 47.9584 200.039 48.1079 199.856 48.1079H194.857V57.4981C194.857 58.9813 195.507 59.6427 196.964 59.6427C197.91 59.6427 198.756 59.4395 199.631 58.9992C199.733 58.949 199.856 58.9521 199.955 59.0142C200.053 59.0746 200.113 59.1827 200.113 59.2974V63.0153C200.113 63.1339 200.048 63.2455 199.944 63.3034C198.67 64.0258 197.319 64.3623 195.689 64.3623C191.682 64.3623 189.65 62.2925 189.65 58.21V48.1079H187.466C187.282 48.1079 187.135 47.9584 187.135 47.7749V43.8707C187.135 43.6876 187.282 43.5381 187.466 43.5381H189.65V38.4269C189.65 38.2437 189.799 38.0942 189.983 38.0942H194.525C194.709 38.0942 194.857 38.2437 194.857 38.4269V43.5381Z" fill="#1ED760"/>
<path d="M217.272 43.5577V42.9299C217.272 41.0833 217.98 40.2598 219.568 40.2598C220.515 40.2598 221.276 40.4482 222.128 40.732C222.233 40.765 222.342 40.7485 222.428 40.6861C222.515 40.6233 222.565 40.5226 222.565 40.4159V36.5878C222.565 36.4415 222.471 36.3117 222.33 36.2689C221.43 36.0012 220.279 35.7261 218.554 35.7261C214.358 35.7261 212.141 38.0892 212.141 42.5566V43.518H209.958C209.775 43.518 209.625 43.6675 209.625 43.851V47.7748C209.625 47.9584 209.775 48.1078 209.958 48.1078H212.141V63.6899C212.141 63.8734 212.289 64.0226 212.472 64.0226H217.014C217.198 64.0226 217.347 63.8734 217.347 63.6899V48.1078H221.589L228.086 63.6857C227.348 65.3226 226.623 65.6482 225.633 65.6482C224.833 65.6482 223.99 65.4092 223.128 64.9376C223.047 64.8931 222.951 64.8857 222.863 64.9127C222.777 64.9436 222.704 65.0078 222.667 65.0924L221.127 68.4703C221.054 68.6299 221.116 68.8173 221.27 68.9001C222.877 69.7706 224.329 70.1422 226.122 70.1422C229.476 70.1422 231.33 68.5794 232.965 64.3759L240.846 44.0113C240.885 43.9089 240.873 43.7931 240.811 43.7022C240.748 43.612 240.647 43.5577 240.537 43.5577H235.808C235.667 43.5577 235.54 43.6478 235.493 43.7808L230.649 57.6184L225.343 43.7717C225.294 43.6429 225.17 43.5577 225.033 43.5577H217.272Z" fill="#1ED760"/>
<path d="M202.633 43.5376H207.176C207.359 43.5376 207.509 43.6871 207.509 43.8702V63.6895C207.509 63.873 207.359 64.0222 207.176 64.0222H202.633C202.45 64.0222 202.301 63.873 202.301 63.6895V43.8702C202.301 43.6871 202.45 43.5376 202.633 43.5376Z" fill="#1ED760"/>
<path d="M204.926 34.5142C203.127 34.5142 201.666 35.971 201.666 37.7707C201.666 39.5714 203.127 41.0299 204.926 41.0299C206.725 41.0299 208.184 39.5714 208.184 37.7707C208.184 35.971 206.725 34.5142 204.926 34.5142Z" fill="#1ED760"/>
<path fill-rule="evenodd" clip-rule="evenodd" d="M246.35 48.2891L245.446 47.0227C245.907 46.8898 246.224 46.5536 246.224 46.0034C246.224 45.3322 245.711 44.9333 244.932 44.9333H243.436V48.2891H244.074V47.1277H244.774L245.588 48.2891H246.35ZM244.074 45.5087H244.906C245.322 45.5087 245.57 45.694 245.57 46.0392C245.57 46.367 245.322 46.5701 244.906 46.5701H244.074V45.5087Z" fill="#1ED760"/>
<path fill-rule="evenodd" clip-rule="evenodd" d="M241.523 46.7122C241.523 48.4656 242.922 49.9094 244.72 49.9094C246.518 49.9094 247.934 48.4477 247.934 46.694C247.934 44.942 246.535 43.4985 244.737 43.4985C242.941 43.4985 241.523 44.9589 241.523 46.7122ZM241.86 46.7122C241.86 45.1182 243.1 43.8164 244.737 43.8164C246.367 43.8164 247.598 45.101 247.598 46.694C247.598 48.2891 246.357 49.5898 244.72 49.5898C243.091 49.5898 241.86 48.3056 241.86 46.7122Z" fill="#1ED760"/>
</svg>
