<svg width="90" height="90" viewBox="0 0 90 90" fill="none" xmlns="http://www.w3.org/2000/svg">
<path d="M51.6002 25.4887L55.5586 29.4707L30.1613 55.0195C27.3815 57.8158 23.6781 59.3577 19.7351 59.3577C15.7929 59.3577 12.0914 57.8167 9.31158 55.0204C3.56281 49.2382 3.56281 39.8276 9.31158 34.0445L31.2254 12L35.1838 15.9811L13.269 38.0256C9.70264 41.6133 9.70264 47.4516 13.269 51.0393C16.8345 54.6261 22.6374 54.6252 26.2038 51.0375L51.6002 25.4887Z" fill="#000008"/>
<path d="M47.0172 20.9716L21.7395 46.5584L17.8006 42.5705L43.0784 16.9847C45.8451 14.1832 49.5301 12.6409 53.4537 12.64C57.3791 12.64 61.0632 14.1823 63.8299 16.9828L65.7993 18.9763L61.8596 22.9642L59.8902 20.9707C58.1746 19.2323 55.8895 18.2773 53.4555 18.2773C51.0197 18.2773 48.7346 19.2332 47.0172 20.9716Z" fill="#000008"/>
<path d="M80.6878 34.2557C77.9089 31.4593 74.2074 29.9193 70.2634 29.9193C66.3203 29.9202 62.6169 31.4602 59.8371 34.2575L34.4415 59.806L38.3981 63.788L63.7955 38.2387C67.3629 34.6509 73.1648 34.6518 76.7303 38.2378C78.455 39.9727 79.4047 42.2824 79.4047 44.7434C79.4047 47.2053 78.455 49.5159 76.7303 51.2508L54.8164 73.2958L58.7748 77.2769L80.6878 55.2329C86.4375 49.4497 86.4375 40.0389 80.6878 34.2557Z" fill="#000008"/>
<path d="M42.9836 68.3051L68.2609 42.7184L72.1996 46.7062L46.9224 72.2921C44.1548 75.0935 40.4708 76.6358 36.5473 76.6367C32.6211 76.6367 28.937 75.0944 26.1704 72.2939L24.201 70.3004L28.1406 66.3125L30.11 68.306C33.6587 71.899 39.4332 71.8972 42.9836 68.3051Z" fill="#000008"/>
</svg>
