<svg width="300" height="100" viewBox="0 0 300 100" fill="none" xmlns="http://www.w3.org/2000/svg">
<path d="M117.328 66.6122C123.75 66.6122 129.065 63.3788 129.065 56.6905C129.065 49.7365 123.13 48.2748 118.435 47.0789C115.113 46.2816 112.455 45.6172 112.455 43.4468C112.455 41.4094 114.626 40.4792 116.796 40.4792C119.321 40.4792 121.536 41.7194 121.536 44.4213H128.135C128.135 38.2202 124.105 34.411 116.973 34.411C110.108 34.411 105.723 37.7773 105.723 43.7126C105.723 50.4009 111.392 51.774 116.087 52.9256C119.454 53.6786 122.289 54.343 122.289 56.7791C122.289 59.0823 119.808 60.4111 117.283 60.4111C114.537 60.4111 112.057 58.9495 112.057 55.9818H105.28C105.28 62.6258 110.197 66.6122 117.328 66.6122Z" fill="#000008"/>
<path d="M143.43 60.2341C141.038 60.2341 139.709 58.9053 139.709 56.602V47.3005H146.22V42.0739H139.621V35.8728H138.38L128.946 45.8831V47.3005H133.242V57.4879C133.242 62.7588 136.476 65.9922 141.747 65.9922H146.353V60.2341H143.43Z" fill="#000008"/>
<path d="M168.049 42.0738L167.384 44.3328C165.302 42.5168 162.6 41.4094 159.5 41.4094C152.324 41.4094 146.965 46.8132 146.965 54.033C146.965 61.2528 152.324 66.7008 159.5 66.7008C162.556 66.7008 165.214 65.6378 167.251 63.8218L167.827 65.9921H172.876V42.0738H168.049ZM160.031 60.5884C156.267 60.5884 153.52 57.7536 153.52 54.033C153.52 50.2681 156.267 47.4776 160.031 47.4776C163.796 47.4776 166.543 50.2681 166.543 54.033C166.543 57.7979 163.796 60.5884 160.031 60.5884Z" fill="#000008"/>
<path d="M188.265 66.7008C194.51 66.7008 199.427 62.6259 200.534 56.602H194.023C192.916 59.171 190.878 60.5884 188.265 60.5884C184.81 60.5884 182.108 57.7093 182.108 54.033C182.108 50.3124 184.766 47.4776 188.265 47.4776C190.834 47.4776 193.004 48.895 194.023 51.2425H200.446C199.294 45.3515 194.51 41.4094 188.309 41.4094C181.045 41.4094 175.553 46.8132 175.553 53.9887C175.553 61.1642 181.045 66.7008 188.265 66.7008Z" fill="#000008"/>
<path d="M246.609 53.9887C246.609 47.079 241.56 41.4094 234.207 41.4094C227.12 41.4094 221.805 46.8575 221.805 54.033C221.805 61.2085 227.164 66.7008 234.207 66.7008C239.788 66.7008 244.35 63.3789 246.077 58.1523H239.301C238.326 59.8797 236.466 60.9427 234.207 60.9427C231.062 60.9427 228.936 59.1267 228.36 55.849H246.476C246.565 55.2289 246.609 54.6088 246.609 53.9887ZM234.207 46.9461C237.13 46.9461 239.212 48.5406 240.142 51.464H228.537C229.29 48.6292 231.328 46.9461 234.207 46.9461Z" fill="#000008"/>
<path d="M261.444 41.9408C258.343 41.9408 256.217 42.9152 254.49 45.0413L253.338 42.0737H249.219V65.992H255.686V53.5899C255.686 49.6921 257.103 48.0533 260.735 48.0533H263.57V41.9408H261.444Z" fill="#000008"/>
<path d="M216.56 65.9921L208.879 54.501V65.9921H202.461V34.8927H208.879V52.6037L216.139 41.9559H223.609L215.508 53.3416L224.451 65.9921H216.56Z" fill="#000008"/>
<path d="M94.8228 61.1909L82.8344 43.0743L92.3295 38.3525C93.4802 37.7743 94.2476 36.6179 94.2476 35.2688C94.2476 33.9198 93.4802 32.7634 92.3295 32.1852L68.2566 20.0433C67.2016 19.4651 65.9548 19.3688 64.8039 19.6579C64.5162 19.7542 64.2285 19.8506 63.9408 19.947L63.749 20.0433L39.4844 32.1852L38.2376 32.7634C37.3744 33.2452 36.7031 34.0161 36.4154 34.9797C36.1277 35.9434 36.3195 37.0034 36.8949 37.7743L48.8833 55.8908L39.3885 60.6126C38.2376 61.1909 37.4703 62.3472 37.4703 63.6961C37.4703 65.0453 38.2376 66.2017 39.3885 66.78L63.4612 78.9217C64.1326 79.3071 64.8999 79.5 65.6671 79.5C66.0507 79.5 66.5303 79.4036 66.9139 79.3071C67.2016 79.211 67.4893 79.1146 67.7769 79.0181L93.2885 66.2017C94.1515 65.7198 94.8228 64.9489 95.1105 63.9854C95.4941 63.0217 95.3983 62.0582 94.8228 61.1909ZM66.5302 75.5491L54.446 57.3361L65.8589 51.5545L90.0275 63.6961L78.4227 69.5746L66.5302 75.5491ZM50.6097 30.7397L65.2835 23.4161L77.3678 41.6289L65.9548 47.4107L41.7862 35.2688L50.6097 30.7397ZM88.7807 58.8782L70.0789 49.4344L79.4779 44.7125L88.7807 58.8782ZM80.7247 39.9907L71.3257 25.8252L90.0275 35.2688L80.7247 39.9907ZM42.9371 40.0871L61.639 49.5308L52.2401 54.2526L42.9371 40.0871ZM51.0892 59.0708L60.4881 73.2364L41.7862 63.7926L51.0892 59.0708Z" fill="#3333FF"/>
</svg>
