<svg width="90" height="90" viewBox="0 0 90 90" fill="none" xmlns="http://www.w3.org/2000/svg">
<rect x="5" y="5" width="80" height="80" rx="8" fill="#292929"/>
<path d="M66.6333 36.9688C65.533 36.9674 64.4432 37.1828 63.4261 37.6026C62.409 38.0224 61.4846 38.6385 60.7056 39.4156C59.1324 40.9849 58.247 43.115 58.2443 45.3372C58.2416 47.5593 59.1217 49.6916 60.6911 51.2648C62.2605 52.838 64.3906 53.7233 66.6128 53.7261C68.835 53.7288 70.9672 52.8486 72.5404 51.2793C74.1137 49.7099 74.999 47.5798 75.0017 45.3576C75.0045 43.1355 74.1243 41.0033 72.5549 39.43C70.9855 37.8568 68.8554 36.9715 66.6333 36.9688ZM66.6333 49.9855C65.7148 49.9855 64.817 49.7131 64.0534 49.2027C63.2898 48.6923 62.6947 47.967 62.3435 47.1184C61.9922 46.2698 61.9006 45.336 62.0801 44.4353C62.2596 43.5346 62.7022 42.7073 63.352 42.0582C64.0018 41.4091 64.8295 40.9673 65.7304 40.7887C66.6313 40.6101 67.5649 40.7027 68.4132 41.0548C69.2615 41.4069 69.9862 42.0027 70.4958 42.7668C71.0054 43.5309 71.2769 44.429 71.276 45.3474C71.2773 45.9575 71.1582 46.5618 70.9253 47.1257C70.6925 47.6896 70.3506 48.2019 69.9192 48.6333C69.4878 49.0647 68.9754 49.4066 68.4116 49.6395C67.8477 49.8723 67.2433 49.9915 66.6333 49.9901V49.9855ZM57.2984 45.2571C57.2943 44.6312 57.2191 44.0078 57.0741 43.3989H52.0496C51.2216 43.4004 50.4279 43.7304 49.843 44.3166C49.2581 44.9027 48.9297 45.697 48.93 46.5251V46.7848C48.9449 47.0436 49.1534 47.2503 49.4131 47.2633H53.1445C52.8013 48.0121 52.2649 48.6559 51.5904 49.1285C50.9158 49.6012 50.1276 49.8856 49.3067 49.9526C48.4858 50.0196 47.6618 49.8666 46.9196 49.5095C46.1774 49.1524 45.5438 48.604 45.0838 47.9208C44.6239 47.2376 44.3542 46.4441 44.3026 45.6221C44.2511 44.8001 44.4194 43.9792 44.7903 43.2438C45.1613 42.5084 45.7214 41.8851 46.4131 41.4381C47.1049 40.991 47.9032 40.7362 48.7261 40.7001H50.8841C51.7856 40.6988 52.6499 40.3401 53.2875 39.7026C53.925 39.0651 54.2837 38.2008 54.2849 37.2992C54.2849 37.2558 54.2763 37.2127 54.2596 37.1726C54.243 37.1324 54.2186 37.0959 54.1878 37.0652C54.157 37.0345 54.1204 37.0102 54.0802 36.9936C54.04 36.9771 53.9969 36.9686 53.9535 36.9688H48.7261C46.5159 37.0235 44.4169 37.9495 42.8865 39.5451C41.3561 41.1407 40.5184 43.2765 40.5559 45.4871C40.5758 47.7091 41.4775 49.8323 43.0628 51.3895C44.6481 52.9468 46.787 53.8105 49.0091 53.7907C51.2312 53.771 53.3544 52.8694 54.9118 51.2842C56.4691 49.699 57.333 47.5602 57.3133 45.3381L57.2984 45.2571Z" fill="#FE8200"/>
<path d="M37.8279 45.3879C37.8413 52.8029 31.7247 58.8295 24.1579 58.8563H15.6216C15.5337 58.8579 15.4465 58.8399 15.3664 58.8037C15.2863 58.7675 15.2152 58.7139 15.1583 58.6468C15.0981 58.5831 15.0535 58.5063 15.0279 58.4224C15.0022 58.3386 14.9963 58.2499 15.0106 58.1634C15.545 54.9433 18.3811 52.5773 21.7086 52.5733H24.1525C27.9326 52.5357 30.7592 49.7896 31.1003 46.0996C31.1138 45.8807 31.1138 45.6068 31.1003 45.3879V44.9098C30.7995 41.1473 27.9004 38.271 24.0505 38.283H21.714C19.9201 38.2841 18.1972 37.5822 16.9147 36.3279C15.9194 35.3535 15.2532 34.0925 15.0093 32.7211C14.9932 32.6302 14.9981 32.5368 15.0237 32.4481C15.0493 32.3595 15.0949 32.2778 15.157 32.2095C15.2145 32.1432 15.2857 32.0902 15.3657 32.054C15.4456 32.0179 15.5325 31.9994 15.6202 32H24.0196C31.5918 31.992 37.7554 37.9675 37.8279 45.3879Z" fill="#00AEEF"/>
<path d="M31.1137 45.3879C31.1235 47.1533 30.7835 48.903 30.1132 50.5362C29.443 52.1694 28.4559 53.6536 27.2088 54.9031C25.9748 56.1586 24.5024 57.155 22.8781 57.8338C21.2539 58.5127 19.5104 58.8603 17.7499 58.8564H15.5974C15.5111 58.8578 15.4255 58.8397 15.3472 58.8034C15.2688 58.7671 15.1996 58.7136 15.1449 58.6469C15.0874 58.5817 15.0454 58.5043 15.0219 58.4207C14.9984 58.337 14.9941 58.2491 15.0092 58.1635C15.2569 56.6082 16.0499 55.1918 17.2463 54.1676C18.4427 53.1434 19.9645 52.5783 21.5394 52.5733H23.9229C27.609 52.5371 30.6666 49.6997 30.9996 46.0083C31.0119 45.7901 31.0119 45.5713 30.9996 45.353V44.9341C30.7042 41.1715 27.5754 38.271 23.8222 38.2831H21.5474C20.6768 38.2821 19.8149 38.1088 19.0116 37.7732C18.2082 37.4377 17.4791 36.9465 16.8664 36.328C15.8916 35.3449 15.2432 34.0856 15.0092 32.7212C14.9939 32.6337 14.9977 32.5439 15.0204 32.458C15.0431 32.3721 15.0841 32.2921 15.1406 32.2236C15.1971 32.1551 15.2678 32.0996 15.3478 32.061C15.4279 32.0224 15.5153 32.0016 15.6041 32.0001H17.621C25.0173 31.9759 31.0426 37.9568 31.1137 45.3879Z" fill="url(#paint0_linear_895_3355)"/>
<path d="M19.8867 45.4945C19.8864 46.0791 20.0012 46.6581 20.2247 47.1984C20.4482 47.7386 20.776 48.2295 21.1892 48.643C21.6025 49.0566 22.0932 49.3846 22.6334 49.6084C23.1735 49.8322 23.7524 49.9474 24.337 49.9474C24.9217 49.9474 25.5006 49.8322 26.0407 49.6084C26.5808 49.3846 27.0715 49.0566 27.4848 48.643C27.8981 48.2295 28.2259 47.7386 28.4494 47.1984C28.6729 46.6581 28.7877 46.0791 28.7874 45.4945C28.7866 44.3147 28.3175 43.1834 27.4829 42.3494C26.6484 41.5154 25.5169 41.0469 24.337 41.0469C23.1572 41.0469 22.0257 41.5154 21.1911 42.3494C20.3566 43.1834 19.8874 44.3147 19.8867 45.4945Z" fill="#FE8200"/>
<defs>
<linearGradient id="paint0_linear_895_3355" x1="15.0092" y1="45.4317" x2="37.2427" y2="45.4317" gradientUnits="userSpaceOnUse">
<stop stop-color="#00AEEF"/>
<stop offset="1" stop-color="#005993"/>
</linearGradient>
</defs>
</svg>
