<svg width="300" height="100" viewBox="0 0 300 100" fill="none" xmlns="http://www.w3.org/2000/svg">
<path d="M82.1243 39.4268H68.4049C68.4049 37.1141 66.1707 35.6595 62.5944 35.6595C58.5226 35.6595 56.79 37.5527 56.79 39.3887C56.79 46.9694 84.3775 39.4757 84.3775 59.4244C84.3775 69.8421 75.8417 75.1455 63.3745 75.1455C50.0325 75.1455 41.9102 69.2396 41.9102 59.2442H56.3386C56.3386 62.3064 58.8791 63.9323 63.3128 63.9323C66.8734 63.9323 70.0888 62.8737 70.0888 59.9681C70.0888 52.2609 43.1083 59.5859 43.1083 39.542C43.1083 31.1962 50.6059 25.1455 62.8307 25.1455C74.9962 25.1455 82.1243 30.911 82.1243 39.4268Z" fill="#006576"/>
<path d="M135.092 26.768L116.466 73.8089H131.528L133.225 68.6967H149.633L151.33 73.8089H166.392L147.765 26.768H135.092ZM141.429 43.9767L146.503 59.2653H136.355L141.429 43.9767Z" fill="#006576"/>
<path d="M168.732 26.7676V73.8093H182.925V54.0278L194.715 73.8089H211.551L199.505 56.3998C204.184 54.3793 208.565 49.7297 208.565 42.2202C208.565 31.246 199.937 26.768 188.755 26.768L168.732 26.7676ZM182.925 38.3655H188.978C191.872 38.3655 194.443 39.427 194.443 42.9686C194.443 46.5103 191.94 47.5716 188.978 47.5716H182.925V38.3655Z" fill="#006576"/>
<path d="M255.996 26.7679L235.653 60.9391H258.088L250.933 73.809H212.694L233.013 39.6378H214.389V26.7679H255.996Z" fill="#006576"/>
<path d="M123.925 26.7679V39.6378H110.753V73.809H96.5607V39.6378H83.5734V26.7679H123.925Z" fill="#006576"/>
</svg>
