<svg width="300" height="100" viewBox="0 0 300 100" fill="none" xmlns="http://www.w3.org/2000/svg">
<path fill-rule="evenodd" clip-rule="evenodd" d="M222.197 51.0013C222.197 40.7477 217.23 32.6569 207.737 32.6569C198.204 32.6569 192.436 40.7477 192.436 50.9212C192.436 62.9773 199.246 69.0654 209.019 69.0654C213.785 69.0654 217.39 67.984 220.114 66.4619V58.4513C217.39 59.8131 214.266 60.6542 210.301 60.6542C206.415 60.6542 202.971 59.2924 202.53 54.5661H222.117C222.117 54.0454 222.197 51.9626 222.197 51.0013ZM202.41 47.1963C202.41 42.6702 205.174 40.7877 207.697 40.7877C210.14 40.7877 212.744 42.6702 212.744 47.1963H202.41ZM176.975 32.6569C173.05 32.6569 170.526 34.4993 169.124 35.781L168.604 33.2977H159.792V80L169.805 77.8772L169.845 66.5421C171.287 67.5834 173.41 69.0654 176.935 69.0654C184.105 69.0654 190.634 63.2977 190.634 50.6008C190.594 38.9853 183.985 32.6569 176.975 32.6569ZM174.572 60.2537C172.209 60.2537 170.807 59.4126 169.845 58.3712L169.805 43.5113C170.847 42.3498 172.289 41.5487 174.572 41.5487C178.217 41.5487 180.74 45.6342 180.74 50.8812C180.74 56.2483 178.257 60.2537 174.572 60.2537ZM146.013 30.2937L156.067 28.1308V20L146.013 22.1228V30.2937ZM146.013 33.3378H156.067V68.3845H146.013V33.3378ZM135.238 36.3017L134.597 33.3378H125.945V68.3845H135.959V44.6328C138.322 41.5487 142.328 42.1095 143.57 42.5501V33.3378C142.288 32.8571 137.601 31.976 135.238 36.3017ZM115.211 24.6462L105.437 26.729L105.397 58.8117C105.397 64.7397 109.843 69.1055 115.772 69.1055C119.056 69.1055 121.459 68.5047 122.781 67.7837V59.6529C121.499 60.1736 115.171 62.016 115.171 56.0881V41.8692H122.781V33.3378H115.171L115.211 24.6462ZM88.1338 43.5113C88.1338 41.9493 89.4156 41.3485 91.5385 41.3485C94.5826 41.3485 98.4279 42.2697 101.472 43.9119V34.4993C98.1475 33.1776 94.863 32.6569 91.5385 32.6569C83.4074 32.6569 78 36.9025 78 43.992C78 55.0467 93.2208 53.2844 93.2208 58.0507C93.2208 59.8932 91.6186 60.494 89.3755 60.494C86.051 60.494 81.8052 59.1322 78.4406 57.2897V66.8224C82.1657 68.4246 85.9308 69.1055 89.3755 69.1055C97.7069 69.1055 103.435 64.98 103.435 57.8104C103.395 45.8745 88.1338 47.9973 88.1338 43.5113Z" fill="#635BFF"/>
</svg>
