<svg width="90" height="90" viewBox="0 0 90 90" fill="none" xmlns="http://www.w3.org/2000/svg">
<path d="M81.9255 85H8.10414C6.40277 85 5.00586 83.6031 5.00586 81.9017V8.09828C5.00586 6.39691 6.40277 5 8.10414 5H81.9255C83.6269 5 85.0238 6.39691 85.0238 8.09828V81.9196C85.0059 83.621 83.6269 85 81.9255 85Z" fill="#4D4D4E"/>
<path d="M23.4531 29.1591L65.3246 15.8705C65.3246 15.8705 68.2975 14.3124 67.5812 17.1958L67.6886 30.0008C67.6886 30.0008 68.208 31.8813 65.6291 32.3469L48.6154 37.6659L23.4531 29.1591Z" fill="#F89820"/>
<path d="M23.454 29.1592C23.454 29.1592 21.8063 29.5532 22.2899 32.3649L22.2003 44.7043C22.2003 44.7043 22.0571 46.2624 25.0121 46.8892L66.5075 60.2494C66.5075 60.2494 67.9044 60.8046 67.7432 59.0853L67.7611 45.3311C67.7611 45.3311 68.1551 43.9163 65.5762 42.985L48.6163 37.666L23.454 29.1592Z" fill="#F89820"/>
<path d="M41.739 52.2617L24.0807 57.6524C24.0807 57.6524 21.9495 57.724 22.2002 61.7177C22.4509 65.7115 22.1823 73.7527 22.1823 73.7527C22.1823 73.7527 22.3614 75.2391 24.403 74.3795L66.2745 61.0193C66.2745 61.0193 67.761 60.6432 66.5073 60.2313C65.2537 59.8373 41.739 52.2617 41.739 52.2617Z" fill="url(#paint0_linear_897_5232)"/>
<defs>
<linearGradient id="paint0_linear_897_5232" x1="24.6319" y1="66.4346" x2="66.9875" y2="51.78" gradientUnits="userSpaceOnUse">
<stop offset="0.233" stop-color="#F89822"/>
<stop offset="1" stop-color="#C27818"/>
</linearGradient>
</defs>
</svg>
