<svg width="390" height="100" viewBox="0 0 390 100" fill="none" xmlns="http://www.w3.org/2000/svg">
<path d="M84.0605 64.8159V56.9248H87.8699L88.7407 60.952C88.7951 61.2241 88.8495 61.4418 88.9583 61.5506C89.0672 61.6595 89.2304 61.7683 89.5025 61.8772C91.0263 62.3125 92.4956 62.5302 93.9106 62.5302C93.965 62.5302 94.0194 62.5302 94.0194 62.5302C98.4274 62.5302 100.659 60.8432 100.659 57.5234C100.659 56.6527 100.495 55.9452 100.169 55.2921C99.8423 54.6391 99.3526 54.1493 98.6451 53.7139C97.9376 53.2785 97.2846 52.952 96.686 52.7343C96.0874 52.5166 95.2166 52.2445 94.1827 51.918C91.244 51.0472 89.2849 50.2854 88.1965 49.5779C85.9108 48.0541 84.768 45.7139 84.768 42.5575C84.768 39.4554 85.8564 37.0609 87.9788 35.4827C90.1012 33.9044 92.8766 33.0881 96.305 33.0881C99.2437 33.0881 102.128 33.6323 104.903 34.7208V42.7752L101.094 42.4486L100.441 38.748C100.332 38.3126 100.223 38.0405 100.006 37.8772C99.1893 37.3874 97.8832 37.1697 96.0874 37.1697C94.0738 37.1697 92.6045 37.6051 91.5705 38.4214C90.5365 39.2378 89.9923 40.3806 89.9923 41.85C89.9923 42.503 90.1012 43.1017 90.3733 43.6459C90.6454 44.1901 90.9175 44.6255 91.244 44.952C91.5705 45.2786 92.0603 45.6051 92.7677 45.9316C93.4752 46.2581 94.0194 46.4758 94.5092 46.6391C94.999 46.8024 95.652 47.02 96.5771 47.2922C97.7744 47.6731 98.6451 47.9452 99.2981 48.1629C99.8968 48.3806 100.713 48.7615 101.693 49.3058C102.672 49.85 103.434 50.3942 103.924 50.9928C104.414 51.5915 104.903 52.4078 105.284 53.3874C105.665 54.4214 105.883 55.5642 105.883 56.8159C105.883 60.1357 104.74 62.5846 102.509 64.1629C100.278 65.7411 97.339 66.5574 93.8017 66.5574C91.9514 66.5574 90.0467 66.3942 88.1965 66.0132C86.2918 65.6323 84.9313 65.2513 84.0605 64.8159Z" fill="#4D4D4E"/>
<path d="M107.896 45.8776L108.332 42.9933H116.059V57.9048C116.059 59.5375 116.277 60.6803 116.658 61.3878C117.039 62.0953 117.855 62.4763 119.053 62.4763C121.175 62.4763 123.243 61.4422 125.256 59.3742V47.4015C125.256 47.0205 125.202 46.8028 125.148 46.694C125.093 46.5851 124.875 46.4763 124.549 46.4219L122.427 45.8776L122.808 42.9933H130.426V62.0409C130.426 62.5851 130.59 62.8572 130.971 62.9116L133.311 63.2382V66.0681H126.236L125.855 63.347L125.746 63.2926C122.971 65.5239 120.195 66.6123 117.42 66.6123C115.08 66.6123 113.393 66.0137 112.468 64.8164C111.488 63.6191 110.998 61.6599 110.998 59.0477V47.4015C110.998 47.0205 110.944 46.8028 110.89 46.694C110.835 46.5851 110.617 46.4763 110.291 46.4219L107.896 45.8776Z" fill="#4D4D4E"/>
<path d="M133.8 35.2114L134.235 32.3814H142.017V44.9529C144.52 43.3746 146.969 42.5583 149.309 42.5583H149.364C151.976 42.5583 154.044 43.4835 155.568 45.2794C157.091 47.1297 157.853 49.9597 157.853 53.7692C157.853 58.1773 157.037 61.3882 155.35 63.4562C153.663 65.5242 151.323 66.5583 148.384 66.5583C145.717 66.5583 143.486 65.6875 141.69 63.946H141.527L141.255 66.014H136.303C136.684 63.8916 136.847 61.8236 136.847 59.81C136.847 59.7555 136.847 59.6467 136.847 59.5923V36.9529C136.847 36.4631 136.684 36.1365 136.303 36.0277C136.357 36.0277 133.8 35.2114 133.8 35.2114ZM142.071 59.8644C143.867 61.5515 145.717 62.4222 147.622 62.4222C150.942 62.4222 152.629 59.6467 152.629 54.0957C152.629 51.7011 152.193 49.9052 151.377 48.6535C150.561 47.4018 149.418 46.7488 147.949 46.7488C146.153 46.7488 144.194 47.4562 142.126 48.9256V59.8644H142.071Z" fill="#4D4D4E"/>
<path d="M159.541 66.014V63.1841L162.099 62.8576C162.371 62.8032 162.588 62.7487 162.697 62.6399C162.806 62.5311 162.86 62.3134 162.86 61.9868V37.0073C162.86 36.5175 162.643 36.191 162.262 36.0821L159.704 35.2114L160.139 32.3814H167.922V61.9868C167.922 62.3678 167.976 62.5855 168.03 62.6943C168.085 62.8032 168.302 62.8576 168.629 62.912L171.132 63.2385V66.0685C171.187 66.014 159.541 66.014 159.541 66.014Z" fill="#4D4D4E"/>
<path d="M173.747 66.0135V63.1836L176.414 62.8571C176.686 62.8027 176.904 62.7482 177.013 62.6394C177.121 62.5306 177.176 62.3129 177.176 61.9863V47.619C177.176 47.1292 176.958 46.8027 176.577 46.6939L174.128 45.8231L174.564 42.9932H182.291V62.0408C182.291 62.4217 182.346 62.6394 182.4 62.7482C182.455 62.8571 182.672 62.9115 182.999 62.9659L185.611 63.2925V66.1224C185.611 66.0135 173.747 66.0135 173.747 66.0135ZM175.815 35.2653C175.815 34.2313 176.087 33.415 176.686 32.8707C177.285 32.3265 178.101 32 179.189 32C180.223 32 181.04 32.2721 181.638 32.8707C182.237 33.415 182.509 34.2313 182.509 35.2653C182.509 36.3537 182.237 37.1701 181.638 37.7143C181.04 38.3129 180.223 38.585 179.189 38.585C178.101 38.585 177.285 38.3129 176.686 37.7143C176.087 37.1156 175.815 36.2993 175.815 35.2653Z" fill="#4D4D4E"/>
<path d="M187.842 45.8235L188.277 42.9936H194.862L195.188 45.497L195.406 45.5514C198.018 43.5378 200.576 42.5582 203.025 42.5582C205.528 42.5582 207.324 43.429 208.358 45.2249C211.133 43.429 213.691 42.5582 216.14 42.5582C218.48 42.5582 220.167 43.2113 221.201 44.5174C222.235 45.8235 222.725 47.7283 222.725 50.1773V61.9868C222.725 62.3677 222.779 62.5854 222.834 62.6943C222.888 62.8031 223.106 62.8575 223.432 62.9119L225.881 63.2385V66.0684H214.562V63.2385L216.902 62.9119C217.392 62.8575 217.609 62.531 217.609 62.0412V51.5378C217.609 50.014 217.446 48.8712 217.065 48.0548C216.684 47.2385 215.922 46.8575 214.834 46.8575C213.038 46.8575 211.188 47.4562 209.392 48.6535C209.501 49.3609 209.555 50.1773 209.555 51.1569V61.9868C209.555 62.3677 209.61 62.5854 209.664 62.6943C209.718 62.8031 209.936 62.8575 210.263 62.9119L212.331 63.2385V66.0684H201.229V63.2385L203.569 62.9119C203.841 62.8575 204.059 62.8031 204.168 62.6398C204.276 62.4766 204.331 62.3133 204.331 61.9868V51.7555C204.331 50.9392 204.331 50.3405 204.276 49.8507C204.222 49.3609 204.113 48.8712 203.95 48.3269C203.787 47.7827 203.515 47.4018 203.079 47.1841C202.698 46.912 202.154 46.8031 201.555 46.8031C199.814 46.8031 197.964 47.565 196.005 49.0888V61.9868C196.005 62.3677 196.059 62.5854 196.113 62.6943C196.168 62.8031 196.386 62.8575 196.712 62.9119L198.889 63.2385V66.0684H188.005V63.2385L190.127 62.9119C190.399 62.8575 190.617 62.8031 190.726 62.6943C190.835 62.5854 190.889 62.3677 190.889 62.0412V47.6739C190.889 47.1841 190.671 46.8575 190.29 46.7487C190.29 46.6399 187.842 45.8235 187.842 45.8235Z" fill="#4D4D4E"/>
<path d="M227.619 54.3668C227.619 50.5028 228.599 47.5641 230.558 45.5505C232.517 43.5369 235.02 42.5029 238.122 42.5029C244.435 42.5029 247.591 46.0947 247.591 53.2239C247.591 54.0947 247.537 54.9654 247.482 55.8362H233.061C233.17 58.013 233.714 59.6457 234.639 60.7886C235.564 61.877 237.088 62.4756 239.156 62.4756C241.006 62.4756 243.238 61.9314 245.741 60.8974L247.156 64.4892C244.435 65.9042 241.551 66.6117 238.612 66.6117C231.265 66.5572 227.619 62.4756 227.619 54.3668ZM233.061 52.1355H242.421C242.421 48.326 240.952 46.3668 238.013 46.3668C236.653 46.3668 235.51 46.8566 234.585 47.7818C233.714 48.7614 233.224 50.2307 233.061 52.1355Z" fill="#4D4D4E"/>
<path d="M265.332 41.9037V33.686H292.869V41.9037H289.168L288.461 38.0398C288.406 37.7132 288.188 37.55 287.753 37.55H281.712V61.9309C281.712 62.2574 281.767 62.4751 281.821 62.5839C281.876 62.6928 282.093 62.7472 282.42 62.7472L287.318 63.1282V66.0125H271.155V63.1282L275.726 62.8016C275.998 62.7472 276.216 62.6928 276.325 62.5839C276.434 62.4751 276.488 62.2574 276.488 61.8765V37.4955H270.502C270.067 37.4955 269.849 37.6588 269.794 37.9854L269.087 41.8493H265.332V41.9037Z" fill="#4D4D4E"/>
<path d="M292.163 54.3671C292.163 50.5031 293.143 47.5644 295.102 45.5508C297.061 43.5372 299.564 42.5032 302.666 42.5032C308.979 42.5032 312.135 46.095 312.135 53.2242C312.135 54.095 312.081 54.9657 312.027 55.8365H297.605C297.714 58.0133 298.258 59.646 299.183 60.7888C300.109 61.8773 301.632 62.4759 303.7 62.4759C305.551 62.4759 307.782 61.9317 310.285 60.8977L311.7 64.4895C308.979 65.9045 306.095 66.612 303.156 66.612C295.864 66.5575 292.163 62.4759 292.163 54.3671ZM297.66 52.1358H307.02C307.02 48.3263 305.551 46.3671 302.612 46.3671C301.251 46.3671 300.109 46.8569 299.183 47.7821C298.313 48.7617 297.769 50.231 297.66 52.1358Z" fill="#4D4D4E"/>
<path d="M314.962 66.0121V63.1822L317.03 62.8012C317.52 62.6924 317.955 62.4203 318.336 61.9849L324.431 54.638L318.336 47.0734C318.01 46.6924 317.629 46.4203 317.248 46.3115L315.397 45.8217L315.833 42.9373H326.118V45.8217L323.615 46.2026L327.751 51.4815L332.268 46.2026L329.547 45.8217L329.982 42.9373H339.125V45.8217L337.165 46.2571C336.73 46.4203 336.349 46.6924 335.968 47.1278L330.254 53.9305L336.676 61.9849C337.111 62.4747 337.492 62.7468 337.873 62.7468L340.104 63.1822V66.0121H328.676V63.1822L331.179 62.7468L326.826 57.087L322.254 62.7468L324.975 63.1822V66.0121H314.962Z" fill="#4D4D4E"/>
<path d="M341.902 46.0393V42.8828C343.589 42.6651 344.841 42.0121 345.657 40.9237C346.474 39.8352 347.072 38.8012 347.344 36.7332H350.609V42.5019C350.609 42.774 350.718 42.9372 350.99 42.9372H357.412V46.5835H350.555V58.7195C350.555 60.1345 350.773 61.1141 351.262 61.6583C351.752 62.2025 352.569 62.529 353.766 62.529C354.909 62.529 356.215 62.2569 357.63 61.7671L358.664 64.978C356.378 66.012 354.201 66.5563 352.079 66.5563C349.739 66.5563 348.052 66.012 347.018 64.978C345.984 63.944 345.44 62.3114 345.44 60.0801V47.0733C345.44 46.8012 345.276 46.6923 345.059 46.5835C344.351 46.0937 341.902 46.0393 341.902 46.0393Z" fill="#4D4D4E"/>
<path d="M32.5312 42.5408L56.3987 34.9662C56.3987 34.9662 58.0933 34.078 57.6849 35.7216L57.7462 43.0206C57.7462 43.0206 58.0422 44.0925 56.5722 44.3579L46.8742 47.3898L32.5312 42.5408Z" fill="#F89820"/>
<path d="M32.5316 42.541C32.5316 42.541 31.5925 42.7656 31.8681 44.3683L31.817 51.4019C31.817 51.4019 31.7354 52.2901 33.4198 52.6474L57.0728 60.2628C57.0728 60.2628 57.8691 60.5793 57.7772 59.5993L57.7874 51.7592C57.7874 51.7592 58.012 50.9528 56.542 50.4219L46.8745 47.39L32.5316 42.541Z" fill="#F89820"/>
<path d="M42.9538 55.71L32.8883 58.7827C32.8883 58.7827 31.6735 58.8235 31.8164 61.1C31.9593 63.3765 31.8062 67.9601 31.8062 67.9601C31.8062 67.9601 31.9083 68.8074 33.072 68.3174L56.9394 60.7019C56.9394 60.7019 57.7867 60.4875 57.0721 60.2527C56.3576 60.0281 42.9538 55.71 42.9538 55.71Z" fill="url(#paint0_linear_897_5234)"/>
<defs>
<linearGradient id="paint0_linear_897_5234" x1="33.2025" y1="63.7887" x2="57.3458" y2="55.4353" gradientUnits="userSpaceOnUse">
<stop offset="0.233" stop-color="#F89822"/>
<stop offset="1" stop-color="#C27818"/>
</linearGradient>
</defs>
</svg>
