<svg width="515" height="100" viewBox="0 0 515 100" fill="none" xmlns="http://www.w3.org/2000/svg">
<path d="M133.98 59.0804C134.511 64.0373 139.019 72.5347 152.104 72.5347C163.509 72.5347 168.991 65.2765 168.991 58.1953C168.991 51.8221 164.658 46.5997 156.083 44.8293L149.894 43.5017C147.507 43.0591 145.916 41.7314 145.916 39.607C145.916 37.1285 148.391 35.2698 151.486 35.2698C156.436 35.2698 158.293 38.5448 158.647 41.1119L168.46 38.8989C167.93 34.2076 163.774 26.3298 151.397 26.3298C142.026 26.3298 135.13 32.7914 135.13 40.5806C135.13 46.6882 138.931 51.7337 147.33 53.5924L153.077 54.9202C156.436 55.6282 157.763 57.2217 157.763 59.1689C157.763 61.4704 155.906 63.5062 152.016 63.5062C146.888 63.5062 144.324 60.3196 144.059 56.8674L133.98 59.0804Z" fill="#1F1F1F"/>
<path d="M206.567 71.207H217.795C217.618 69.7022 217.353 66.6928 217.353 63.3291V27.6575H205.593V52.9728C205.593 58.0183 202.588 61.5588 197.372 61.5588C191.891 61.5588 189.415 57.6641 189.415 52.7958V27.6575H177.656V55.1858C177.656 64.6569 183.668 72.3577 194.189 72.3577C198.785 72.3577 203.827 70.5875 206.214 66.5157C206.214 68.286 206.39 70.3218 206.567 71.207Z" fill="#1F1F1F"/>
<path d="M241.66 88.0249V66.9584C243.781 69.8792 248.202 72.2693 254.215 72.2693C266.503 72.2693 274.724 62.5324 274.724 49.3437C274.724 36.4206 267.387 26.6838 254.656 26.6838C248.115 26.6838 243.252 29.6047 241.307 32.9684V27.6575H229.902V88.0249H241.66ZM263.143 49.4322C263.143 57.2217 258.37 61.7359 252.357 61.7359C246.347 61.7359 241.484 57.1331 241.484 49.4322C241.484 41.7315 246.347 37.2171 252.357 37.2171C258.37 37.2171 263.143 41.7315 263.143 49.4322Z" fill="#1F1F1F"/>
<path d="M281.383 59.3459C281.383 66.1617 287.04 72.4463 296.324 72.4463C302.777 72.4463 306.932 69.4366 309.142 65.9845C309.142 67.6664 309.319 70.0562 309.585 71.207H320.37C320.105 69.7022 319.841 66.6042 319.841 64.3028V42.882C319.841 34.119 314.713 26.3298 300.922 26.3298C289.251 26.3298 282.973 33.8535 282.267 40.6692L292.699 42.882C293.053 39.0759 295.882 35.8009 301.008 35.8009C305.961 35.8009 308.347 38.3678 308.347 41.4659C308.347 42.9706 307.553 44.2099 305.077 44.5639L294.379 46.1572C287.13 47.2194 281.383 51.5566 281.383 59.3459ZM298.799 63.6832C294.998 63.6832 293.14 61.2048 293.14 58.6379C293.14 55.2743 295.527 53.5924 298.534 53.1499L308.347 51.6451V53.5924C308.347 61.2934 303.75 63.6832 298.799 63.6832Z" fill="#1F1F1F"/>
<path d="M343.101 71.2071V65.8961C345.398 69.6138 349.995 72.2693 356.008 72.2693C368.386 72.2693 376.52 62.444 376.52 49.2553C376.52 36.332 369.181 26.5069 356.45 26.5069C349.995 26.5069 345.222 29.3393 343.277 32.4372V7.12195H331.695V71.2071H343.101ZM364.76 49.3437C364.76 57.3101 359.986 61.7359 353.974 61.7359C348.051 61.7359 343.101 57.2217 343.101 49.3437C343.101 41.3773 348.051 37.0401 353.974 37.0401C359.986 37.0401 364.76 41.3773 364.76 49.3437Z" fill="#1F1F1F"/>
<path d="M383.176 59.3459C383.176 66.1617 388.833 72.4463 398.116 72.4463C404.57 72.4463 408.726 69.4366 410.935 65.9845C410.935 67.6664 411.113 70.0562 411.378 71.207H422.163C421.9 69.7022 421.634 66.6042 421.634 64.3028V42.882C421.634 34.119 416.506 26.3298 402.714 26.3298C391.044 26.3298 384.767 33.8535 384.06 40.6692L394.491 42.882C394.846 39.0759 397.675 35.8009 402.801 35.8009C407.754 35.8009 410.14 38.3678 410.14 41.4659C410.14 42.9706 409.345 44.2099 406.869 44.5639L396.172 46.1572C388.923 47.2194 383.176 51.5566 383.176 59.3459ZM400.593 63.6832C396.791 63.6832 394.933 61.2048 394.933 58.6379C394.933 55.2743 397.32 53.5924 400.327 53.1499L410.14 51.6451V53.5924C410.14 61.2934 405.543 63.6832 400.593 63.6832Z" fill="#1F1F1F"/>
<path d="M429.773 59.0804C430.303 64.0373 434.812 72.5347 447.896 72.5347C459.302 72.5347 464.782 65.2765 464.782 58.1953C464.782 51.8221 460.451 46.5997 451.875 44.8293L445.686 43.5017C443.299 43.0591 441.709 41.7314 441.709 39.607C441.709 37.1285 444.183 35.2698 447.278 35.2698C452.23 35.2698 454.086 38.5448 454.441 41.1119L464.253 38.8989C463.722 34.2076 459.567 26.3298 447.19 26.3298C437.818 26.3298 430.923 32.7914 430.923 40.5806C430.923 46.6882 434.723 51.7337 443.123 53.5924L448.87 54.9202C452.23 55.6282 453.556 57.2217 453.556 59.1689C453.556 61.4704 451.699 63.5062 447.809 63.5062C442.681 63.5062 440.118 60.3196 439.852 56.8674L429.773 59.0804Z" fill="#1F1F1F"/>
<path d="M482.64 44.4753C482.905 40.4922 486.266 35.8893 492.366 35.8893C499.084 35.8893 501.914 40.1382 502.091 44.4753H482.64ZM503.241 55.8054C501.826 59.6999 498.82 62.444 493.338 62.444C487.503 62.444 482.64 58.2837 482.376 52.5304H513.496C513.496 52.3531 513.672 50.5829 513.672 48.9011C513.672 34.9157 505.627 26.3298 492.189 26.3298C481.05 26.3298 470.793 35.3582 470.793 49.2552C470.793 63.9487 481.313 72.5347 493.25 72.5347C503.947 72.5347 510.843 66.2501 513.054 58.7263L503.241 55.8054Z" fill="#1F1F1F"/>
<path d="M56.3796 97.5965C53.8491 100.783 48.7182 99.0372 48.6572 94.9682L47.7656 35.4537H87.7831C95.0313 35.4537 99.0738 43.8255 94.5667 49.5021L56.3796 97.5965Z" fill="url(#paint0_linear_1351_258)"/>
<path d="M56.3796 97.5965C53.8491 100.783 48.7182 99.0372 48.6572 94.9682L47.7656 35.4537H87.7831C95.0313 35.4537 99.0738 43.8255 94.5667 49.5021L56.3796 97.5965Z" fill="url(#paint1_linear_1351_258)" fill-opacity="0.2"/>
<path d="M40.1052 1.83277C42.6357 -1.35431 47.7667 0.391984 47.8276 4.46107L48.2183 63.9754H8.70173C1.45328 63.9754 -2.58931 55.6036 1.91799 49.927L40.1052 1.83277Z" fill="#3ECF8E"/>
<defs>
<linearGradient id="paint0_linear_1351_258" x1="47.7656" y1="48.6496" x2="83.3317" y2="63.5659" gradientUnits="userSpaceOnUse">
<stop stop-color="#249361"/>
<stop offset="1" stop-color="#3ECF8E"/>
</linearGradient>
<linearGradient id="paint1_linear_1351_258" x1="31.9975" y1="27.0602" x2="48.2175" y2="57.5935" gradientUnits="userSpaceOnUse">
<stop/>
<stop offset="1" stop-opacity="0"/>
</linearGradient>
</defs>
</svg>
