<svg width="300" height="100" viewBox="0 0 300 100" fill="none" xmlns="http://www.w3.org/2000/svg">
<path d="M95.4824 17H93.3928C92.4637 17.2065 91.591 17.5943 90.7778 18.0792C87.258 20.1132 83.7348 22.1425 80.2117 24.1719C76.1173 26.5302 72.0229 28.8886 67.934 31.2541C66.367 32.1707 65.244 33.7723 65 35.5834V64.1763C65.1346 66.025 66.2168 67.7079 67.8243 68.6177C69.5565 69.6424 71.3026 70.6452 73.0488 71.6481C74.267 72.3477 75.4851 73.0472 76.6985 73.7542C77.3366 74.1889 78.2845 74.2796 78.8725 73.7133C79.2196 73.3249 79.4536 72.8586 79.6862 72.3953C79.77 72.2282 79.8536 72.0616 79.9423 71.8991C83.3915 65.2715 86.8437 58.6454 90.299 52.0209C90.378 51.869 90.461 51.7168 90.5446 51.5637C90.9944 50.7394 91.4586 49.8887 91.3688 48.918C91.4159 47.0224 89.7203 45.2801 87.8187 45.3083C86.5709 45.2927 85.322 45.2982 84.0729 45.3038C82.56 45.3105 81.0469 45.3172 79.5357 45.2864C76.5297 45.1548 74.0367 42.1521 74.5152 39.1711C74.8376 36.6562 77.124 34.5448 79.6765 34.523C86.9747 34.5147 94.272 34.516 101.569 34.5172C108.152 34.5184 114.734 34.5195 121.316 34.5136C122.186 34.6418 122.946 33.8192 122.705 32.9621C122.363 32.1713 121.601 31.6854 120.889 31.2307C120.801 31.1746 120.714 31.119 120.628 31.0634C117.044 28.9981 113.46 26.9321 109.876 24.8661C106.403 22.8642 102.931 20.8623 99.458 18.8612C99.2971 18.7682 99.1363 18.6738 98.9752 18.5793C97.8685 17.9299 96.7493 17.2731 95.4824 17Z" fill="#000008"/>
<path d="M177.032 46.3499C172.994 43.5816 166.941 44.0915 163.597 47.7355C159.778 51.6519 159.866 58.5961 163.801 62.4059C166.503 65.2148 170.814 65.928 174.477 64.9114C176.898 64.192 179.272 62.5247 179.988 59.9912C180.243 58.763 180.212 57.5078 180.181 56.2529C180.164 55.5517 180.146 54.8506 180.179 54.1543C178.789 54.1526 177.398 54.1526 176.008 54.1526C174.618 54.1526 173.229 54.1526 171.84 54.1509C171.838 54.4998 171.837 54.8488 171.837 55.1972C171.836 55.5456 171.835 55.8936 171.834 56.2407C172.732 56.2379 173.631 56.2386 174.531 56.2394C175.719 56.2404 176.908 56.2414 178.096 56.2342C178.097 56.4156 178.1 56.5999 178.104 56.7858C178.131 58.2318 178.159 59.7804 177.098 60.8921C173.754 64.4858 167.157 63.8948 164.395 59.8629C162.052 56.6692 162.406 51.8365 165.252 49.0682C167.873 46.3812 172.346 45.9276 175.524 47.8638C175.957 48.0737 176.315 48.3895 176.672 48.7044C177.039 49.0277 177.405 49.35 177.849 49.5561C178.209 49.1147 178.594 48.6932 178.978 48.2739C179.024 48.2237 179.07 48.1736 179.116 48.1234C178.468 47.476 177.808 46.841 177.032 46.3499Z" fill="#000008"/>
<path d="M194.855 44.8203C192.053 44.2886 188.997 44.6889 186.623 46.3404C182.785 48.8617 181.218 54.1198 182.728 58.4052C183.864 61.9272 187.073 64.6706 190.736 65.218C193.041 65.4868 195.484 65.3369 197.574 64.2421C199.444 63.3097 201.093 61.6459 201.49 59.5344C201.535 58.4496 201.528 57.3636 201.521 56.2772C201.516 55.5686 201.511 54.8597 201.521 54.1508C199.943 54.1545 198.366 54.154 196.788 54.1535C195.585 54.1531 194.382 54.1528 193.179 54.1542C193.179 54.8455 193.176 55.5368 193.169 56.2281C194.382 56.2443 195.594 56.2417 196.806 56.2391C197.684 56.2372 198.561 56.2353 199.438 56.2406C199.411 56.627 199.424 57.0283 199.436 57.4324C199.469 58.4905 199.502 59.5667 198.834 60.4383C196.05 64.1263 189.982 64.1294 186.788 60.9793C183.964 58.3896 183.445 53.7789 185.475 50.5571C187.12 47.8325 190.451 46.2967 193.592 46.7377C195.653 46.9349 197.53 48.014 198.944 49.4904C199.482 49.4603 199.831 48.9609 200.155 48.4969C200.268 48.3349 200.378 48.1772 200.492 48.0452C198.934 46.5094 197.02 45.2677 194.855 44.8203Z" fill="#000008"/>
<path d="M137.233 44.943C134.815 44.938 132.396 44.933 129.978 44.9642C129.99 45.6398 129.993 46.3187 129.987 46.9943C130.773 46.9919 131.558 46.9931 132.344 46.9944C133.622 46.9964 134.9 46.9984 136.177 46.9848C136.177 48.708 136.178 50.431 136.178 52.1539C136.18 56.4355 136.181 60.7164 136.174 64.9989C136.872 64.9959 137.569 64.9959 138.267 64.9959C138.263 61.58 138.264 58.1632 138.264 54.7459C138.265 52.1611 138.265 49.5761 138.264 46.991C139.034 46.9976 139.805 46.996 140.576 46.9944C141.653 46.9921 142.73 46.9898 143.807 47.0098C143.791 46.3166 143.788 45.6231 143.797 44.9298C141.61 44.9521 139.422 44.9475 137.233 44.943Z" fill="#000008"/>
<path d="M216.795 44.9674C212.776 44.9235 208.756 44.9329 204.737 44.9642C204.759 49.272 204.755 53.5798 204.751 57.8877C204.749 60.2581 204.747 62.6285 204.749 64.9989C206.316 65.0036 207.883 65.0005 209.45 64.9975C212.143 64.9922 214.836 64.987 217.527 65.0206C217.542 64.2909 217.546 63.5609 217.54 62.8311C215.602 62.8465 213.663 62.8443 211.725 62.842C210.095 62.8402 208.465 62.8383 206.836 62.8469C206.839 60.3287 206.839 57.814 206.836 55.2992C208.058 55.3019 209.28 55.3015 210.502 55.3011C211.992 55.3005 213.482 55.3 214.972 55.3052C214.969 54.6079 214.969 53.9102 214.969 53.2125C213.973 53.2068 212.976 53.2103 211.98 53.2138C210.258 53.2199 208.536 53.226 206.814 53.1844C206.847 51.8397 206.842 50.4937 206.837 49.1471C206.835 48.4264 206.833 47.7056 206.836 46.9848C208.89 46.9984 210.944 46.9964 212.998 46.9944C214.26 46.9931 215.521 46.9919 216.783 46.9943C216.773 46.3186 216.777 45.6428 216.795 44.9674Z" fill="#000008"/>
<path d="M113.168 45.2985C108.798 45.2421 104.547 47.857 102.567 51.7422C100.542 55.6505 98.5048 59.5531 96.4672 63.4559C93.5637 69.0173 90.6599 74.5793 87.7907 80.1597C88.3826 80.4626 88.9578 80.806 89.5332 81.1496C90.8126 81.9136 92.0935 82.6785 93.5649 83H95.2822C96.5273 82.787 97.6256 82.1479 98.7014 81.522C98.7472 81.4953 98.793 81.4687 98.8388 81.4421C100.778 80.3241 102.718 79.2058 104.658 78.0874C109.638 75.2166 114.618 72.3455 119.599 69.4776L119.664 69.4412C120.889 68.752 122.166 68.0338 122.99 66.8597C123.656 65.918 123.872 64.7389 123.888 63.6065C123.886 59.5401 123.886 55.4737 123.887 51.4074C123.887 49.3742 123.888 47.341 123.888 45.3078C122.218 45.3034 120.548 45.3038 118.879 45.3042C116.975 45.3046 115.072 45.305 113.168 45.2985Z" fill="#000008"/>
<path fill-rule="evenodd" clip-rule="evenodd" d="M222.138 44.9388C224.7 44.8866 227.282 44.834 229.614 46.0304C232.729 47.4693 234.684 50.7723 234.85 54.1504V55.8586C234.615 59.2242 232.592 62.4366 229.498 63.8631C227.061 65.0685 224.358 65.034 221.689 64.9999C220.867 64.9893 220.048 64.9789 219.241 65.0046C219.241 62.9911 219.242 60.9775 219.243 58.9639C219.245 54.2866 219.247 49.6088 219.238 44.9293C220.192 44.9785 221.164 44.9587 222.138 44.9388ZM222.72 62.8513C224.932 62.8799 227.201 62.9092 229.138 61.6986C233.856 59.0428 233.99 51.2198 229.42 48.3576C227.313 46.9596 224.753 46.9719 222.303 46.9837C221.94 46.9855 221.58 46.9872 221.225 46.9844C221.225 48.7463 221.225 50.5083 221.226 52.2704C221.227 55.795 221.229 59.3201 221.225 62.8465C221.717 62.8384 222.217 62.8448 222.72 62.8513Z" fill="#000008"/>
<path fill-rule="evenodd" clip-rule="evenodd" d="M142.152 64.9985C145.23 58.167 148.286 51.3261 151.339 44.4819C153.007 48.0483 154.612 51.6439 156.218 55.2393C157.671 58.4934 159.124 61.7474 160.623 64.9796C160.408 64.9831 160.194 64.9862 159.979 64.9892C159.432 64.9969 158.886 65.0046 158.34 65.0202C157.637 63.4934 156.988 61.9418 156.339 60.3904C156.187 60.0287 156.036 59.6669 155.884 59.3055C153.755 59.2923 151.626 59.2948 149.497 59.2974C148.639 59.2984 147.78 59.2995 146.922 59.2995C146.1 61.1949 145.286 63.0936 144.476 64.9955C143.702 64.9985 142.927 64.9985 142.155 64.9985H142.152ZM149.828 52.9926C149.231 54.4018 148.634 55.8109 148.014 57.2097C148.973 57.211 149.931 57.2107 150.89 57.2103C152.175 57.2098 153.46 57.2092 154.745 57.2128C154.314 56.2473 153.902 55.2716 153.49 54.2959C152.803 52.6703 152.117 51.0444 151.339 49.4649C150.826 50.6369 150.327 51.8148 149.828 52.9926Z" fill="#000008"/>
</svg>
