<svg width="90" height="90" viewBox="0 0 90 90" fill="none" xmlns="http://www.w3.org/2000/svg">
<path d="M46.3776 5H43.8448C42.7186 5.2503 41.6608 5.7204 40.6751 6.3081C36.4087 8.77353 32.1382 11.2333 27.8678 13.6931C22.905 16.5518 17.9422 19.4104 12.986 22.2777C11.0866 23.3887 9.72539 25.33 9.42969 27.5253V62.1832C9.59279 64.424 10.9046 66.4639 12.8531 67.5667C14.9526 68.8087 17.0691 70.0242 19.1857 71.2398C20.6622 72.0878 22.1387 72.9358 23.6094 73.7927C24.3829 74.3196 25.5319 74.4296 26.2446 73.7431C26.6654 73.2724 26.949 72.7071 27.2309 72.1455C27.3325 71.9431 27.4339 71.7411 27.5413 71.5441C31.7221 63.5106 35.9066 55.4791 40.0948 47.4495C40.1904 47.2653 40.2911 47.0808 40.3924 46.8952C40.9376 45.8961 41.5003 44.8649 41.3915 43.6883C41.4485 41.3906 39.3933 39.2788 37.0883 39.3129C35.5759 39.2941 34.062 39.3008 32.548 39.3075C30.7142 39.3156 28.8802 39.3237 27.0485 39.2864C23.4048 39.1269 20.3832 35.4873 20.9632 31.8739C21.3538 28.8256 24.1252 26.2664 27.2191 26.2399C36.0653 26.2298 44.9104 26.2314 53.7551 26.2329C61.734 26.2343 69.7126 26.2357 77.6911 26.2286C78.7451 26.3839 79.6664 25.3868 79.3745 24.3479C78.9593 23.3894 78.0363 22.8004 77.1726 22.2493C77.0661 22.1813 76.9605 22.1139 76.8569 22.0465C72.5115 19.5425 68.1662 17.0376 63.8209 14.5327C59.6127 12.1068 55.4046 9.68096 51.1965 7.25601C51.0014 7.14327 50.8064 7.02889 50.6112 6.91432C49.2698 6.12712 47.9132 5.33102 46.3776 5Z" fill="#000008"/>
<path d="M67.8149 39.3009C62.5181 39.2326 57.3656 42.4022 54.9656 47.1114C52.5109 51.8487 50.0414 56.5789 47.5717 61.3095C44.0523 68.0507 40.5325 74.7926 37.0547 81.5568C37.7722 81.9239 38.4694 82.3402 39.1669 82.7567C40.7176 83.6827 42.2702 84.6098 44.0537 84.9996H46.1353C47.6444 84.7413 48.9757 83.9668 50.2797 83.208C50.3352 83.1757 50.3907 83.1435 50.4461 83.1112C52.8013 81.7537 55.1565 80.3959 57.5118 79.038C63.5435 75.5605 69.5758 72.0828 75.61 68.6088L75.6883 68.5648C77.1736 67.7293 78.7214 66.8588 79.72 65.4357C80.5275 64.2942 80.7891 62.865 80.808 61.4924C80.8056 56.5634 80.8064 51.6345 80.8072 46.7056C80.8076 44.2411 80.808 41.7767 80.808 39.3122C78.7837 39.3069 76.7601 39.3074 74.7369 39.3078C72.4292 39.3084 70.122 39.3089 67.8149 39.3009Z" fill="#000008"/>
</svg>
