<svg width="300" height="100" viewBox="0 0 300 100" fill="none" xmlns="http://www.w3.org/2000/svg">
<path d="M149.768 67.7614C148.554 67.5382 147.399 67.1997 146.222 66.8484C146.213 65.6109 146.322 64.325 146.558 63.1511C157.141 66.2056 159.593 64.2057 159.773 57.4381V55.8122L158.407 57.061C156.629 58.6859 154.888 59.2667 152.295 59.1002C147.142 58.7696 144.289 55.0021 144.28 48.5188C144.276 44.642 145.132 42.1791 147.288 39.8744C150.163 36.8002 155.084 36.2089 158.525 38.5244L159.773 39.3642V38.4849V37.6056L161.989 37.679L164.206 37.7524L164.279 46.4913C164.393 60.116 163.994 62.7763 161.45 65.3693C158.038 68.2487 154.552 68.2387 149.768 67.7614ZM156.473 54.3468C157.062 54.0464 158.045 53.3382 158.658 52.7731L159.773 51.7456V47.4943V43.2429L158.979 42.5751C156.263 40.2898 153.344 40.116 151.139 42.1083C149.709 43.4003 149.078 45.2654 149.059 48.2639C149.036 51.8855 149.816 53.7197 151.769 54.6362C153.063 55.2433 154.942 55.1277 156.473 54.3468ZM92.375 57.2157C89.7861 54.7462 88.5675 50.8777 89.0859 46.7744C89.5071 43.4413 90.5236 41.2679 92.5233 39.4246C94.1098 37.9622 95.6002 37.3476 97.95 37.1864C103.673 36.7942 107.066 40.6982 107.083 47.694L107.087 49.5303C102.719 49.647 97.7237 49.2549 93.6627 49.8643C94.2566 53.6265 96.9759 56.4391 100.755 56.4948C103.026 56.4948 104.659 55.9187 106.842 55.4882L106.909 58.9529C106.909 58.9529 101.81 60.1636 99.8685 60.149C96.8884 60.161 94.0589 58.8081 92.375 57.2157ZM102.526 45.2877C102.521 43.1306 101.119 41.1046 99.4067 40.7833C96.7043 40.2764 94.6336 41.8429 93.9546 44.9077L93.7161 45.9841H98.1219H102.528L102.526 45.2877ZM125.557 57.2157C122.968 54.7462 121.749 50.8777 122.268 46.7744C122.689 43.4413 123.706 41.2679 125.705 39.4246C127.292 37.9622 128.782 37.3476 131.132 37.1864C136.855 36.7942 140.248 40.6982 140.265 47.694L140.269 49.5303C135.607 49.4702 131.141 49.4895 126.727 49.4534C126.99 53.896 129.861 56.725 133.937 56.495C136.229 56.5395 138.241 55.9152 140.024 55.4885C140.421 55.7334 140.324 58.5421 139.908 58.888C139.332 59.3656 134.992 60.1639 133.05 60.1493C130.07 60.1613 127.241 58.808 125.557 57.2157ZM135.708 45.2877C135.703 43.1306 134.301 41.1046 132.589 40.7833C129.886 40.2764 127.816 41.8429 127.137 44.9077L126.898 45.9841H131.304H135.71L135.708 45.2877ZM188.838 59.823C185.669 58.6405 184.108 55.2313 185.147 51.7613C185.563 50.3742 187.151 48.6679 188.757 47.8817C190.277 47.1383 193.351 46.5129 195.551 46.4995L197.008 46.4876V44.7019C196.922 39.8779 193.11 40.1917 189.349 41.5574C188.337 41.9215 187.016 42.2224 186.772 42.2979C186.741 41.1662 186.623 40.3889 186.623 38.6573L188.712 37.9962C190.105 37.5555 191.649 37.2868 193.34 37.1904C197.402 36.9589 199.598 37.8498 200.881 40.2503C201.409 41.237 201.447 41.6903 201.567 48.4307C201.694 55.5542 201.695 55.5678 202.308 56.2198C202.676 56.611 204.021 56.9905 204.433 56.9905C204.421 58.4774 204.593 58.4167 204.414 59.8115C203.823 59.9707 201.858 60.1685 201.124 60.1077C199.689 59.9886 198.799 59.3868 198.115 58.0714L197.75 57.3701L196.809 58.1232C194.638 59.8612 191.016 60.632 188.839 59.8197L188.838 59.823ZM194.16 56.0112C194.719 55.8141 195.587 55.3867 196.089 55.0614L197.001 54.4699V51.8735V49.2771H195.915C193.36 49.2771 190.316 50.5883 189.692 51.9578C189.005 53.4669 189.58 55.2598 190.973 55.946C192.009 56.4566 192.843 56.4736 194.154 56.0109L194.16 56.0112ZM72.3852 46.4908V33.3192H67.1926H62V31.5461V29.7731H74.7915H87.5831V31.5461V33.3192H82.3905H77.1979V46.4908V59.6626H74.7915H72.3852V46.4908ZM112.66 43.8311V28H114.939H117.219V43.8311V59.6626H114.939H112.66V43.8311ZM170.665 48.6438V37.6056C172.142 37.6549 173.679 37.5864 175.156 37.6345C175.142 38.5459 175.196 39.4538 175.249 40.3628C177.327 38.0794 179.531 37.4918 181.377 37.2951L183.076 37.1188V39.29V41.4614C180.226 40.6246 177.256 42.5084 175.898 44.3378C175.376 45.0628 175.345 45.4305 175.224 52.3169L175.098 59.536C173.62 59.5853 172.142 59.6334 170.665 59.6827L170.665 48.6438ZM208.406 48.6438V37.6254C209.926 37.6254 211.446 37.6254 212.966 37.6254C212.966 38.6341 212.966 40.3948 212.966 41.4036C214.888 39.2418 217.216 37.2067 219.805 37.2453C222.97 37.1211 224.267 39.1672 225.68 41.4378C229.638 36.9809 236.857 35.6999 239.088 41.0011C239.303 48.2408 239.178 50.9273 239.064 59.6538C237.595 59.7031 236.243 59.6344 234.774 59.6825C234.841 54.051 234.759 47.6846 234.622 42.3965C234.058 41.2883 233.013 40.4174 231.21 40.894C229.407 41.3707 227.776 42.7737 226.078 44.755C226.078 49.6656 226.137 54.7527 226.137 59.6633H223.867H221.596C221.548 53.9078 221.499 48.1521 221.451 42.3966C220.54 41.3435 219.814 40.7269 218.094 41.1367C216.375 41.5464 214.09 42.9056 212.965 45.0628C212.965 49.9295 212.906 54.7966 212.906 59.6633C211.387 59.6633 209.925 59.6633 208.406 59.6633C208.406 55.9901 208.406 52.3171 208.406 48.6438Z" fill="#000008"/>
</svg>
