<svg width="374" height="100" viewBox="0 0 374 100" fill="none" xmlns="http://www.w3.org/2000/svg">
<path d="M274.743 57.2641C274.743 57.1375 274.616 57.011 274.363 57.1375C272.086 59.7948 268.416 61.8194 264.114 61.8194C257.534 61.8194 253.232 57.2641 253.232 50.178C253.232 42.9654 257.281 38.5366 263.861 38.5366C267.657 38.5366 271.579 40.3081 273.984 42.8389C274.11 42.9654 274.363 42.8389 274.363 42.7123V39.0428C271.706 36.6386 267.783 35.1201 263.861 35.1201C259.811 35.1201 256.142 36.6386 253.738 39.2958C251.333 41.9531 249.942 45.7492 249.942 50.178C249.942 59.1621 255.636 65.2359 263.987 65.2359C268.036 65.2359 271.959 63.7174 274.616 61.1867V57.2641H274.743Z" fill="#000008"/>
<path d="M94.4306 35.8793V39.0428H104.3V64.4766H107.717V39.0428H117.713V35.8793H94.4306Z" fill="#000008"/>
<path d="M350.67 45.6229C348.898 43.7248 345.862 42.9656 343.837 42.9656C340.927 42.9656 338.396 43.9779 336.624 46.0025C334.726 47.9005 333.84 50.8109 333.84 53.9743C333.84 61.5665 338.902 64.983 343.963 64.983C346.874 64.983 349.278 63.9707 350.796 62.0726V64.4768H354.213V35.753H350.67V45.6229ZM350.67 53.9743C350.67 57.8969 348.392 61.8196 344.09 61.8196C340.8 61.8196 337.257 59.4154 337.257 54.1008C337.257 50.1782 339.282 46.0025 343.837 46.0025C348.898 46.129 350.67 50.3047 350.67 53.9743Z" fill="#000008"/>
<path d="M282.716 36.0057H279.299V64.603H282.716V36.0057Z" fill="#000008"/>
<path d="M179.341 59.1627C179.341 59.0362 179.214 58.9097 178.961 59.0362C176.683 61.0608 173.393 61.82 172.001 61.82C167.446 61.82 164.409 58.7831 164.409 53.9747C164.409 49.1663 167.446 46.1295 172.001 46.1295C173.393 46.1295 176.557 46.5091 178.961 48.5337C179.087 48.6602 179.214 48.5337 179.214 48.4071V45.2437C177.822 44.3579 174.785 42.966 171.748 42.966C165.421 42.966 161.119 47.3948 161.119 53.9747C161.119 60.5546 165.421 64.9834 171.748 64.9834C174.406 64.9834 176.936 64.2242 179.214 62.7058L179.341 59.1627Z" fill="#000008"/>
<path d="M134.42 58.5301C134.42 58.4035 134.167 58.277 134.04 58.4035C132.522 60.3016 128.852 62.0731 126.701 62.0731C124.55 62.0731 122.525 61.4404 121.513 60.175C120.247 58.7831 119.488 56.8851 119.488 54.987H135.558V54.734C135.558 50.1786 134.799 47.6479 132.775 45.6233C131.13 43.9783 128.852 42.966 126.068 42.966C120.121 42.966 116.198 47.2683 116.198 53.8482C116.325 60.6812 120.374 64.8569 126.701 64.8569C129.738 64.8569 132.268 63.8446 134.673 61.82L134.42 58.5301ZM132.142 52.0767H119.362V51.9501C119.488 50.1786 120.247 48.6602 121.639 47.3948C122.778 46.5091 124.297 46.0029 125.689 46.0029C129.611 46.0029 132.015 48.2806 132.142 52.0767Z" fill="#000008"/>
<path d="M326.503 54.2269C326.503 59.921 323.213 61.9456 320.303 61.9456C317.646 61.9456 314.609 60.0476 314.609 56.5046V43.5978H311.445V56.5046C311.445 61.566 314.988 65.1091 320.176 65.1091C323.087 65.1091 325.238 64.2233 326.756 62.3252V64.6029H329.793V43.5978H326.63L326.503 54.2269Z" fill="#000008"/>
<path d="M148.968 42.966C146.311 42.966 144.16 43.8518 142.641 45.4968V43.5987H139.352V64.4773H142.641V52.4563C142.641 50.5582 143.274 48.7867 144.286 47.6479C145.552 46.5091 146.944 46.0029 148.715 46.0029C151.373 46.1295 153.903 47.7744 153.903 51.444V64.2242H157.32V51.444C157.32 48.7867 156.434 46.6356 154.916 45.2437C153.524 43.7253 151.373 42.966 148.968 42.966Z" fill="#000008"/>
<path d="M200.982 58.5301C200.982 58.4035 200.729 58.277 200.602 58.4035C199.084 60.3016 195.414 62.0731 193.263 62.0731C191.112 62.0731 189.088 61.4404 188.075 60.175C186.81 58.7831 186.051 56.8851 186.051 54.987H202.121V54.734C202.121 50.1786 201.362 47.6479 199.337 45.6233C197.566 43.9783 195.288 42.966 192.504 42.966C186.557 42.966 182.634 47.2683 182.634 53.8482C182.761 60.6812 186.81 64.8569 193.137 64.8569C196.174 64.8569 198.704 63.8446 201.109 61.82L200.982 58.5301ZM198.704 52.0767H185.924V51.9501C186.051 50.1786 186.81 48.6602 188.202 47.3948C189.341 46.5091 190.859 46.0029 192.251 46.0029C196.047 46.0029 198.451 48.2806 198.704 52.0767Z" fill="#000008"/>
<path d="M215.396 42.966C212.738 42.966 210.587 43.8518 209.069 45.4968V43.5987H205.779V64.4773H208.942V52.4563C208.942 50.5582 209.575 48.7867 210.587 47.6479C211.853 46.5091 213.244 46.0029 215.016 46.0029C217.673 46.1295 220.204 47.7744 220.204 51.444V64.2242H223.494V51.444C223.494 48.7867 222.608 46.6356 221.09 45.2437C219.951 43.7253 217.926 42.966 215.396 42.966Z" fill="#000008"/>
<path d="M234.633 64.7301C236.657 64.6035 238.935 63.8443 238.935 63.8443V60.6809C238.935 60.5543 238.809 60.4278 238.682 60.5543C237.796 60.8074 236.025 61.4401 235.139 61.4401C234.759 61.5666 234.506 61.5666 234.253 61.3136C234.127 61.187 234.127 61.0605 234.127 60.6809V46.6353H240.201V43.5984H234.127V37.9043H230.71V43.4719H227.294V46.5088H230.71V60.934C230.71 62.1993 231.09 63.2116 231.849 63.8443C232.482 64.477 233.494 64.7301 234.633 64.7301Z" fill="#000008"/>
<path d="M297.526 42.966C291.452 42.966 287.403 47.3948 287.403 53.9747C287.403 60.4281 291.452 64.9834 297.526 64.9834C303.6 64.9834 307.649 60.5546 307.649 53.9747C307.776 47.5214 303.6 42.966 297.526 42.966ZM290.44 53.9747C290.44 49.2929 293.224 46.256 297.4 46.256C301.575 46.256 304.359 49.4194 304.359 54.1013C304.359 58.7831 301.575 61.9465 297.4 61.9465C293.351 61.82 290.44 58.6566 290.44 53.9747Z" fill="#000008"/>
<path d="M83.5455 47.7556C80.6467 44.8085 76.6367 42.9243 72.1436 42.9243C68.2786 42.9243 64.945 44.277 61.9979 46.6444C60.6934 47.659 59.389 48.8669 57.698 50.5095C56.8284 51.2825 32.7202 74.7631 32.7202 74.7631C34.0246 74.9563 35.7156 74.9563 37.3099 75.0047C38.7593 75.0047 66.5393 75.0047 67.6988 75.0047C70.0178 75.0047 71.5638 75.0047 73.2065 74.908C76.9749 74.6181 80.5018 73.2654 83.3522 70.4632C89.6812 64.2307 89.7779 54.0848 83.5455 47.7556ZM78.9074 65.97C77.6513 67.1778 75.4772 68.5789 71.902 68.7239C70.2111 68.7722 68.2786 68.7722 67.3606 68.7722H47.9871C54.9925 61.9599 61.1765 55.969 61.8529 55.2926C62.481 54.6645 63.9304 53.3117 65.1865 52.2005C67.9404 49.7848 70.356 49.2534 72.0953 49.3017C74.8008 49.35 77.2648 50.4612 79.0524 52.2005C82.8208 56.0173 82.7725 62.2015 78.9074 65.97Z" fill="#00A1FF"/>
<path d="M44.6065 46.2579C41.7561 44.1321 38.5674 42.9243 34.9922 42.9243C30.4991 42.9243 26.4892 44.7602 23.5904 47.7556C17.4063 54.0848 17.4546 64.2307 23.8319 70.4632C26.3925 72.9755 29.4846 74.3283 32.7698 74.8114L38.9539 68.7722C37.9393 68.7722 36.5383 68.7239 35.2338 68.7239C31.6103 68.6272 29.4362 67.2261 28.2284 65.97C24.3634 62.2015 24.2667 56.0173 28.0352 52.2005C29.7744 50.4129 32.2867 49.3017 34.9922 49.3017C36.6832 49.3017 39.0022 49.7848 41.6111 51.9589C42.8673 52.9735 45.6211 55.4375 46.8289 56.5004C46.8773 56.5488 46.9739 56.5488 47.0222 56.5004L51.3221 52.2971C51.3704 52.2488 51.3704 52.1039 51.3221 52.1039C49.2446 50.123 46.3458 47.5624 44.6065 46.2579Z" fill="#00C4D6"/>
<path d="M73.8353 39.3492C70.8399 30.9909 62.8682 25 53.5438 25C42.77 25 33.8804 32.8752 32.2861 43.1177C33.1557 42.9728 34.0254 42.9244 34.9433 42.9244C36.2478 42.9244 37.4556 43.0694 38.5668 43.3593C38.6151 43.3593 38.6151 43.3593 38.6151 43.3593C40.0645 36.4504 46.2002 31.2808 53.4955 31.2808C59.583 31.2808 64.8974 34.9527 67.313 40.1222C67.3614 40.1706 67.4097 40.2189 67.5063 40.2189C69.3422 39.7357 71.468 39.4458 73.5937 39.5908C73.787 39.6391 73.8353 39.5425 73.8353 39.3492Z" fill="#006EFF"/>
</svg>
