<svg width="90" height="90" viewBox="0 0 90 90" fill="none" xmlns="http://www.w3.org/2000/svg">
<path d="M79.6622 42.3222C76.3091 38.9131 71.6706 36.7336 66.4732 36.7336C62.0024 36.7336 58.1463 38.2984 54.7373 41.0368C53.2283 42.2104 51.7194 43.6076 49.7634 45.5077C48.7575 46.4019 20.8706 73.5626 20.8706 73.5626C22.3795 73.7862 24.3355 73.7862 26.1797 73.8421C27.8563 73.8421 59.9905 73.8421 61.3317 73.8421C64.0143 73.8421 65.8026 73.8421 67.7027 73.7303C72.0618 73.395 76.1414 71.8302 79.4387 68.5887C86.7597 61.3794 86.8714 49.6433 79.6622 42.3222ZM74.2972 63.3913C72.8442 64.7885 70.3293 66.4092 66.1938 66.5768C64.2378 66.6327 62.0024 66.6327 60.9406 66.6327H38.5304C46.6339 58.7528 53.7872 51.8229 54.5696 51.0405C55.2961 50.3139 56.9727 48.7491 58.4257 47.4637C61.6112 44.6694 64.4055 44.0547 66.4173 44.1106C69.5469 44.1665 72.3971 45.4518 74.4649 47.4637C78.8239 51.8788 78.768 59.0322 74.2972 63.3913Z" fill="#00A1FF"/>
<path d="M34.6201 40.5897C31.3228 38.1307 27.6344 36.7336 23.4988 36.7336C18.3015 36.7336 13.663 38.8573 10.3099 42.3222C3.1565 49.6433 3.21239 61.3794 10.5893 68.5887C13.5512 71.4948 17.1279 73.0597 20.9281 73.6185L28.0815 66.6327C26.9079 66.6327 25.2872 66.5768 23.7783 66.5768C19.5869 66.4651 17.072 64.8444 15.6749 63.3913C11.204 59.0322 11.0922 51.8788 15.4513 47.4637C17.4632 45.396 20.3693 44.1106 23.4988 44.1106C25.4548 44.1106 28.1373 44.6694 31.1552 47.1843C32.6082 48.3579 35.7937 51.2081 37.1908 52.4376C37.2467 52.4935 37.3585 52.4935 37.4143 52.4376L42.3882 47.5755C42.444 47.5196 42.444 47.352 42.3882 47.352C39.9851 45.0606 36.6319 42.0987 34.6201 40.5897Z" fill="#00C4D6"/>
<path d="M68.4301 32.5982C64.9652 22.9299 55.7441 16 44.9582 16C32.4957 16 22.2127 25.1095 20.3685 36.9573C21.3745 36.7897 22.3804 36.7338 23.4422 36.7338C24.9511 36.7338 26.3483 36.9015 27.6336 37.2368C27.6895 37.2368 27.6895 37.2368 27.6895 37.2368C29.3661 29.245 36.4636 23.2652 44.9023 23.2652C51.9438 23.2652 58.0913 27.5126 60.8855 33.4924C60.9414 33.5483 60.9973 33.6042 61.1091 33.6042C63.2327 33.0453 65.6917 32.71 68.1507 32.8776C68.3742 32.9335 68.4301 32.8218 68.4301 32.5982Z" fill="#006EFF"/>
</svg>
