<svg width="360" height="100" viewBox="0 0 360 100" fill="none" xmlns="http://www.w3.org/2000/svg">
<path d="M49.2196 39.895L39.219 49.8956L29.2188 39.895L39.219 29.8965L49.2196 39.895Z" fill="#030404"/>
<path d="M59.2208 49.8951L49.2207 59.8959L59.2209 69.8965L69.2211 59.8959L59.2208 49.8951L69.2207 39.895L79.2217 49.8956L89.2215 39.895L79.2217 29.8965L69.2207 39.895L59.2209 29.8965L49.2207 39.8946L59.2208 49.8951Z" fill="#030404"/>
<path d="M139.188 69.0816H131.43V41.5652H121.397V34.9161H149.221V41.5652H139.188V69.0816Z" fill="#030404"/>
<path d="M180.238 34.9166H172.435V69.0817H180.238V34.9166Z" fill="#030404"/>
<path d="M331.445 62.3397H317.949V34.9161H310.145V69.0816H331.445V62.3397Z" fill="#030404"/>
<path fill-rule="evenodd" clip-rule="evenodd" d="M206.217 34.9161H218.859C228.186 34.9161 237.467 39.8549 237.467 51.9061C237.467 63.2654 228.37 69.0808 219.321 69.0808L206.217 69.0812V34.9161ZM213.789 62.3855H218.628C225.138 62.3855 229.479 58.3242 229.479 51.8599C229.479 45.719 225.092 41.5652 218.812 41.5652H213.789V62.3855Z" fill="#030404"/>
<path fill-rule="evenodd" clip-rule="evenodd" d="M289.351 69.0816H280.774L278.278 62.3405H263.872L261.354 69.0816H253.008L267.221 34.9161H275.277L289.351 69.0816ZM271.11 42.9087L265.964 56.2708H276.209L271.11 42.9087Z" fill="#030404"/>
</svg>
