<svg width="90" height="90" viewBox="0 0 90 90" fill="none" xmlns="http://www.w3.org/2000/svg">
<path fill-rule="evenodd" clip-rule="evenodd" d="M15 5H74.9999C80.4999 5 84.9999 9.5 84.9999 15V75C84.9999 80.5 80.4999 85 74.9999 85H15C9.49999 85 5 80.5 5 75V61.5648L5.14127 61.647C8.55349 63.6343 16.6208 68.3323 18.5968 69.4478C19.7926 70.1227 20.9372 70.1062 22.0904 69.4417C22.7802 69.044 30.3454 64.6903 37.9901 60.291L38.0271 60.2698L38.1789 60.1823C46.1326 55.605 54.1119 51.013 54.4649 50.8092C55.1579 50.4092 55.1926 49.1815 54.4169 48.7388L53.8729 48.4287L53.8689 48.4265C53.0781 47.9762 52.0554 47.3938 51.6189 47.1383C51.0606 46.8125 50.0566 46.6315 49.1254 47.168C48.7389 47.391 22.8722 62.264 22.0076 62.7555C20.9728 63.3438 19.692 63.3515 18.6608 62.7545C17.8464 62.2833 5 54.8185 5 54.8185V48.085L5.14185 48.1677C8.55439 50.155 16.6209 54.8525 18.5968 55.968C19.7926 56.643 20.9372 56.6265 22.0904 55.962C22.7806 55.564 30.3561 51.2045 38.0064 46.802L38.0666 46.7673L38.1139 46.74L38.1411 46.7242C46.1074 42.1397 54.1114 37.5335 54.4649 37.3295C55.1579 36.9295 55.1926 35.7017 54.4169 35.2592L53.8731 34.9492C53.0821 34.499 52.0559 33.9145 51.6189 33.6585C51.0606 33.333 50.0566 33.152 49.1254 33.6882C48.7389 33.9112 22.8722 48.7843 22.0076 49.2757C20.9728 49.864 19.692 49.8717 18.6608 49.2747C17.8464 48.8035 5 41.3387 5 41.3387V34.6062L5.13968 34.6875C8.55099 36.674 16.6205 41.3732 18.5968 42.489C19.7926 43.1642 20.9372 43.1475 22.0904 42.483C22.7812 42.0848 30.3684 37.7185 38.0249 33.3122L38.0454 33.3005C46.0431 28.6978 54.1099 24.0555 54.4649 23.8506C55.1579 23.4504 55.1926 22.2228 54.4169 21.7802L53.8729 21.4702C53.0821 21.0198 52.0556 20.4352 51.6189 20.1796C51.0606 19.854 50.0566 19.673 49.1254 20.2094C48.7389 20.4324 22.8722 35.3055 22.0076 35.7967C20.9728 36.3853 19.692 36.3927 18.6608 35.7957C17.8464 35.3245 5 27.8598 5 27.8598V15C5 9.5 9.49999 5 15 5Z" fill="#E44232"/>
<path d="M22.0904 42.4824C22.7812 42.0841 30.3682 37.7179 38.0247 33.3116L38.0452 33.2999C46.043 28.6972 54.11 24.0548 54.4648 23.85C55.1577 23.4498 55.1925 22.2222 54.417 21.7796L53.873 21.4696C53.0817 21.0191 52.056 20.4348 51.6187 20.179C51.0605 19.8534 50.0565 19.6724 49.1255 20.2088C48.7388 20.4318 22.8722 35.3049 22.0076 35.7961C20.9728 36.3846 19.692 36.3921 18.6608 35.7951C17.8464 35.3239 5 27.8592 5 27.8592V34.6056L5.13969 34.6869C8.55098 36.6734 16.6205 41.3726 18.5968 42.4884C19.7926 43.1636 20.9372 43.1469 22.0904 42.4824Z" fill="white"/>
<path d="M22.0904 55.9619C22.7807 55.5639 30.3563 51.2044 38.0063 46.8019L38.0665 46.7671C46.0575 42.1684 54.1102 37.5341 54.4648 37.3294C55.1577 36.9294 55.1925 35.7016 54.417 35.2591L53.8732 34.9491C53.0822 34.4989 52.056 33.9144 51.6187 33.6584C51.0605 33.3329 50.0565 33.1519 49.1255 33.6881C48.7388 33.9111 22.8722 48.7841 22.0076 49.2756C20.9728 49.8639 19.692 49.8716 18.6608 49.2746C17.8464 48.8034 5 41.3386 5 41.3386V48.0849L5.14185 48.1676C8.5544 50.1549 16.6209 54.8524 18.5968 55.9679C19.7926 56.6429 20.9372 56.6264 22.0904 55.9619Z" fill="white"/>
<path d="M38.027 60.2686C30.3698 64.6751 22.7813 69.0423 22.0904 69.4406C20.9372 70.1051 19.7926 70.1216 18.5968 69.4466C16.6208 68.3311 8.55348 63.6331 5.14127 61.6458L5 61.5636V54.8173C5 54.8173 17.8464 62.2821 18.6608 62.7533C19.692 63.3503 20.9728 63.3426 22.0076 62.7543C22.8722 62.2628 48.7388 47.3898 49.1255 47.1668C50.0565 46.6303 51.0605 46.8113 51.6187 47.1371C52.056 47.3931 53.0818 47.9771 53.8728 48.4276C54.0738 48.5421 54.2598 48.6478 54.417 48.7376C55.1925 49.1803 55.1577 50.4081 54.4648 50.8081C54.1097 51.0131 46.031 55.6623 38.027 60.2686Z" fill="white"/>
</svg>
