<svg width="300" height="100" viewBox="0 0 300 100" fill="none" xmlns="http://www.w3.org/2000/svg">
<path fill-rule="evenodd" clip-rule="evenodd" d="M38.5673 20.0898H83.4323C87.545 20.0898 90.9098 23.4547 90.9098 27.5673V72.4323C90.9098 76.545 87.545 79.9098 83.4323 79.9098H38.5673C34.4547 79.9098 31.0898 76.545 31.0898 72.4323V62.3861L31.1955 62.4476C33.747 63.9336 39.7793 67.4465 41.2569 68.2807C42.151 68.7854 43.0069 68.773 43.8692 68.2762C44.385 67.9787 50.0419 64.7232 55.7583 61.4337L55.7859 61.4178L55.8994 61.3524C61.8468 57.9297 67.8133 54.4961 68.0773 54.3437C68.5955 54.0446 68.6214 53.1266 68.0414 52.7955L67.6346 52.5637L67.6316 52.562C67.0403 52.2253 66.2756 51.7898 65.9492 51.5987C65.5317 51.3551 64.781 51.2198 64.0847 51.621C63.7956 51.7877 44.4538 62.909 43.8073 63.2765C43.0335 63.7164 42.0758 63.7222 41.3047 63.2758C40.6957 62.9234 31.0898 57.3416 31.0898 57.3416V52.3067L31.1959 52.3685C33.7476 53.8545 39.7794 57.3671 41.2569 58.2012C42.151 58.7059 43.0069 58.6936 43.8692 58.1967C44.3853 57.8991 50.0499 54.6393 55.7704 51.3473L55.8155 51.3213L55.8508 51.3009L55.8712 51.2892C61.8279 47.8611 67.8129 44.4168 68.0773 44.2642C68.5955 43.9651 68.6214 43.0471 68.0414 42.7162L67.6348 42.4844C67.0433 42.1477 66.2759 41.7107 65.9492 41.5192C65.5317 41.2758 64.781 41.1405 64.0847 41.5415C63.7956 41.7082 44.4538 52.8295 43.8073 53.197C43.0335 53.6369 42.0758 53.6427 41.3047 53.1963C40.6957 52.8439 31.0898 47.2621 31.0898 47.2621V42.2279L31.1943 42.2887C33.7451 43.7741 39.7791 47.2879 41.2569 48.1222C42.151 48.6272 43.0069 48.6146 43.8692 48.1178C44.3857 47.82 50.0591 44.5551 55.7842 41.2603L55.7996 41.2515C61.7799 37.8099 67.8118 34.3386 68.0773 34.1854C68.5955 33.8861 68.6214 32.9682 68.0414 32.6372L67.6346 32.4054C67.0433 32.0687 66.2757 31.6316 65.9492 31.4404C65.5317 31.1969 64.781 31.0616 64.0847 31.4627C63.7956 31.6294 44.4538 42.7508 43.8073 43.1181C43.0335 43.5582 42.0758 43.5638 41.3047 43.1174C40.6957 42.765 31.0898 37.1832 31.0898 37.1832V27.5673C31.0898 23.4547 34.4547 20.0898 38.5673 20.0898Z" fill="#E44232"/>
<path d="M43.8692 48.1178C44.3858 47.82 50.059 44.5551 55.7841 41.2604L55.7995 41.2516C61.7798 37.8099 67.8119 34.3386 68.0772 34.1854C68.5954 33.8861 68.6213 32.9682 68.0415 32.6373L67.6347 32.4055C67.043 32.0686 66.276 31.6317 65.9491 31.4404C65.5316 31.1969 64.7809 31.0616 64.0847 31.4627C63.7955 31.6294 44.4538 42.7508 43.8073 43.1181C43.0335 43.5582 42.0758 43.5638 41.3047 43.1174C40.6958 42.765 31.0898 37.1833 31.0898 37.1833V42.2279L31.1943 42.2887C33.7451 43.7741 39.7791 47.288 41.2569 48.1223C42.151 48.6272 43.0069 48.6147 43.8692 48.1178Z" fill="white"/>
<path d="M43.8692 58.1969C44.3853 57.8993 50.05 54.6395 55.7703 51.3475L55.8154 51.3215C61.7906 47.8828 67.8121 44.4175 68.0772 44.2644C68.5954 43.9653 68.6213 43.0473 68.0415 42.7164L67.6349 42.4846C67.0434 42.1479 66.276 41.7109 65.9491 41.5195C65.5316 41.2761 64.7809 41.1407 64.0847 41.5417C63.7955 41.7084 44.4538 52.8297 43.8073 53.1973C43.0335 53.6371 42.0758 53.6429 41.3047 53.1965C40.6958 52.8441 31.0898 47.2624 31.0898 47.2624V52.3069L31.1959 52.3687C33.7477 53.8547 39.7794 57.3673 41.2569 58.2014C42.151 58.7061 43.0069 58.6938 43.8692 58.1969Z" fill="white"/>
<path d="M55.7858 61.4168C50.0601 64.7118 44.3858 67.9774 43.8692 68.2752C43.0069 68.772 42.151 68.7844 41.2569 68.2796C39.7793 67.4455 33.747 63.9326 31.1955 62.4466L31.0898 62.3851V57.3406C31.0898 57.3406 40.6958 62.9224 41.3047 63.2748C42.0758 63.7212 43.0335 63.7154 43.8073 63.2755C44.4538 62.908 63.7955 51.7867 64.0847 51.62C64.7809 51.2188 65.5316 51.3541 65.9491 51.5977C66.276 51.7891 67.043 52.2258 67.6345 52.5627C67.7848 52.6483 67.9239 52.7274 68.0415 52.7945C68.6213 53.1256 68.5954 54.0436 68.0772 54.3427C67.8117 54.496 61.7708 57.9725 55.7858 61.4168Z" fill="white"/>
<path d="M220.943 32.229C220.202 32.9743 219.832 33.8415 219.832 34.8414C219.832 35.8424 220.202 36.709 220.943 37.449C221.687 38.1936 222.625 38.5636 223.759 38.5636C224.896 38.5636 225.855 38.2103 226.629 37.5037C227.403 36.7977 227.793 35.9096 227.793 34.8414C227.793 33.7731 227.403 32.8851 226.629 32.1797C225.855 31.4724 224.896 31.1191 223.759 31.1191C222.625 31.1191 221.687 31.4891 220.943 32.229Z" fill="#E44232"/>
<path fill-rule="evenodd" clip-rule="evenodd" d="M179.605 64.3575H179.711V66.7308C179.711 67.441 180.308 68.0798 181.067 68.0798H184.255C184.872 68.0798 185.603 67.5914 185.603 66.7284V32.7572C185.603 32.0898 185.066 31.4082 184.255 31.4082H180.752C179.892 31.4082 179.4 32.1392 179.4 32.7572V46.4238H179.245C178.938 46.0122 178.538 45.5911 178.058 45.1575C177.575 44.7293 176.99 44.3254 176.3 43.9465C175.61 43.5635 174.82 43.2559 173.924 43.0121C173.028 42.7736 171.994 42.651 170.82 42.651C169.066 42.651 167.447 42.9877 165.962 43.6604C164.482 44.3331 163.216 45.2545 162.164 46.4238C161.113 47.5974 160.297 48.9773 159.712 50.5589C159.124 52.144 158.834 53.8516 158.834 55.6765C158.834 57.5025 159.106 59.2096 159.658 60.7905C160.209 62.3763 161.02 63.7562 162.088 64.9256C163.156 66.0985 164.44 67.0198 165.938 67.6932C167.438 68.3659 169.151 68.6984 171.081 68.6984C172.839 68.6984 174.475 68.354 175.989 67.6676C177.508 66.9782 178.71 65.876 179.605 64.3575ZM165.525 58.4649C165.197 57.5733 165.033 56.6401 165.033 55.6765C165.033 54.7135 165.197 53.7797 165.525 52.8839C165.853 51.9882 166.333 51.1983 166.971 50.5077C167.611 49.8183 168.377 49.267 169.272 48.8548C170.168 48.4426 171.186 48.2314 172.322 48.2314C173.457 48.2314 174.475 48.4426 175.371 48.8548C176.266 49.267 177.032 49.8183 177.671 50.5077C178.306 51.1983 178.79 51.9882 179.118 52.8839C179.441 53.7797 179.605 54.7135 179.605 55.6765C179.605 56.6401 179.441 57.5733 179.118 58.4649C178.79 59.3648 178.306 60.1559 177.671 60.8459C177.032 61.5352 176.266 62.0866 175.371 62.4988C174.475 62.9104 173.457 63.1168 172.322 63.1168C171.186 63.1168 170.168 62.9104 169.272 62.4988C168.377 62.0866 167.611 61.5352 166.971 60.8459C166.333 60.1559 165.853 59.3648 165.525 58.4649Z" fill="#E44232"/>
<path fill-rule="evenodd" clip-rule="evenodd" d="M130.027 50.3198C129.32 51.9222 128.967 53.7054 128.967 55.67C128.967 57.634 129.32 59.4172 130.027 61.019C130.729 62.6225 131.689 63.9894 132.895 65.1284C134.098 66.2645 135.528 67.1436 137.181 67.7616C138.837 68.3837 140.592 68.6913 142.455 68.6913C144.314 68.6913 146.073 68.3837 147.725 67.7616C149.378 67.1436 150.808 66.2645 152.015 65.1284C153.223 63.9894 154.177 62.6225 154.883 61.019C155.59 59.4172 155.943 57.634 155.943 55.67C155.943 53.7054 155.59 51.9222 154.883 50.3198C154.177 48.7168 153.223 47.35 152.015 46.2109C150.808 45.0761 149.378 44.1958 147.725 43.5742C146.073 42.9562 144.314 42.6445 142.455 42.6445C140.592 42.6445 138.837 42.9562 137.181 43.5742C135.528 44.1958 134.098 45.0761 132.895 46.2109C131.689 47.35 130.729 48.7168 130.027 50.3198ZM135.658 58.4578C135.33 57.5668 135.166 56.6329 135.166 55.67C135.166 54.707 135.33 53.7732 135.658 52.8768C135.986 51.981 136.466 51.1912 137.105 50.5006C137.744 49.8118 138.51 49.2605 139.406 48.8477C140.301 48.4361 141.32 48.2249 142.455 48.2249C143.59 48.2249 144.608 48.4361 145.504 48.8477C146.4 49.2605 147.166 49.8118 147.805 50.5006C148.44 51.1912 148.923 51.981 149.252 52.8768C149.575 53.7732 149.739 54.707 149.739 55.67C149.739 56.6329 149.575 57.5668 149.252 58.4578C148.923 59.3583 148.44 60.1482 147.805 60.8393C147.166 61.5281 146.4 62.0795 145.504 62.4917C144.608 62.9039 143.59 63.1097 142.455 63.1097C141.32 63.1097 140.301 62.9039 139.406 62.4917C138.51 62.0795 137.744 61.5281 137.105 60.8393C136.466 60.1482 135.986 59.3583 135.658 58.4578Z" fill="#E44232"/>
<path fill-rule="evenodd" clip-rule="evenodd" d="M189.729 55.67C189.729 53.7054 190.082 51.9222 190.788 50.3198C191.491 48.7168 192.45 47.35 193.657 46.2109C194.859 45.0761 196.29 44.1958 197.943 43.5742C199.599 42.9562 201.354 42.6445 203.217 42.6445C205.075 42.6445 206.835 42.9562 208.487 43.5742C210.14 44.1958 211.57 45.0761 212.777 46.2109C213.984 47.35 214.938 48.7168 215.645 50.3198C216.352 51.9222 216.705 53.7054 216.705 55.67C216.705 57.634 216.352 59.4172 215.645 61.019C214.938 62.6225 213.984 63.9894 212.777 65.1284C211.57 66.2645 210.14 67.1436 208.487 67.7616C206.835 68.3837 205.075 68.6913 203.217 68.6913C201.354 68.6913 199.599 68.3837 197.943 67.7616C196.29 67.1436 194.859 66.2645 193.657 65.1284C192.45 63.9894 191.491 62.6225 190.788 61.019C190.082 59.4172 189.729 57.634 189.729 55.67ZM195.928 55.67C195.928 56.6329 196.092 57.5668 196.421 58.4578C196.748 59.3583 197.228 60.1482 197.867 60.8393C198.507 61.5281 199.271 62.0795 200.168 62.4917C201.063 62.9039 202.081 63.1097 203.217 63.1097C204.352 63.1097 205.37 62.9039 206.266 62.4917C207.163 62.0795 207.927 61.5281 208.567 60.8393C209.202 60.1482 209.685 59.3583 210.013 58.4578C210.338 57.5668 210.501 56.6329 210.501 55.67C210.501 54.707 210.338 53.7732 210.013 52.8768C209.685 51.981 209.202 51.1912 208.567 50.5006C207.927 49.8118 207.163 49.2605 206.266 48.8477C205.37 48.4361 204.352 48.2249 203.217 48.2249C202.081 48.2249 201.063 48.4361 200.168 48.8477C199.271 49.2605 198.507 49.8118 197.867 50.5006C197.228 51.1912 196.748 51.981 196.421 52.8768C196.092 53.7732 195.928 54.707 195.928 55.67Z" fill="#E44232"/>
<path d="M245.428 50.138C244.811 50.138 244.355 49.6699 244.276 49.4659C243.76 48.1145 242.118 47.6071 240.792 47.6071C238.698 47.6071 237.058 48.5766 237.058 50.2439C237.058 51.7325 238.411 52.127 239.391 52.4127C239.473 52.4366 239.552 52.4597 239.628 52.4827C240.462 52.7353 241.881 53.0608 243.006 53.3189C243.336 53.3944 243.64 53.4643 243.897 53.5248C245.05 53.796 246.124 54.1933 247.127 54.7149C250.421 56.4238 250.889 59.1135 250.889 60.7331C250.889 66.7084 244.968 68.6903 240.857 68.6903C237.689 68.6903 231.738 68.2109 230.431 62.1707C230.304 61.5819 230.824 60.6796 231.779 60.6796H235.203C235.878 60.6796 236.33 61.1703 236.463 61.5563C236.904 62.7697 238.303 63.6869 240.659 63.6869C243.191 63.6869 244.686 62.684 244.686 61.3493C244.686 60.4868 244.196 59.7196 243.556 59.286C242.578 58.6228 240.865 58.2596 239.079 57.8811C237.363 57.5176 235.581 57.1398 234.319 56.4684L234.237 56.4249C233.203 55.8778 230.857 54.6362 230.857 50.6561C230.857 45.021 235.981 42.6436 240.481 42.6436C247.119 42.6436 249.555 46.8375 249.83 48.3917C249.981 49.25 249.501 50.138 248.536 50.138H245.428Z" fill="#E44232"/>
<path d="M251.395 44.5028V47.0682C251.395 47.6749 251.878 48.4237 252.742 48.4237H256.042V59.4441C256.042 60.8954 256.093 62.2313 256.322 63.3335C256.546 64.4356 256.845 65.4272 257.451 66.1671C258.051 66.9076 259.049 67.6743 260.099 68.0353C261.146 68.3982 262.083 68.5784 263.735 68.5784C265.73 68.5784 267.183 68.1656 268.233 67.6553C268.883 67.34 269.171 66.4746 268.814 65.7983C268.754 65.6847 268.69 65.5627 268.622 65.4344C268.569 65.3344 268.514 65.2307 268.457 65.1241L268.456 65.1228L268.455 65.1196C268.192 64.6241 267.896 64.0671 267.626 63.5446C267.42 63.1467 266.814 62.6739 266.003 62.951C265.726 63.0444 265.398 63.1063 265.033 63.1063C263.756 63.1063 263.119 62.8624 262.683 62.2052C262.24 61.5352 262.242 60.6435 262.244 59.5159L262.244 59.2794V48.4237H267.719C268.402 48.4237 269.067 47.8158 269.067 47.0718V44.5028C269.067 43.8926 268.563 43.1544 267.716 43.1544H262.244V35.3251C262.244 34.5055 261.408 33.6555 260.377 34.0796C258.9 34.7238 257.049 35.5309 256.843 35.6201C256.497 35.7712 256.042 36.1816 256.042 36.8555V43.1544H252.735C251.878 43.1544 251.395 43.8908 251.395 44.5028Z" fill="#E44232"/>
<path d="M109.516 47.0682V44.5028C109.516 43.8908 109.999 43.1544 110.856 43.1544H114.634V36.8555C114.634 36.1816 115.091 35.7712 115.437 35.6201C115.535 35.5776 116.005 35.3723 116.631 35.0993C117.319 34.7991 118.195 34.417 118.969 34.0796C120.002 33.6555 120.838 34.5055 120.838 35.3251V43.1544H126.311C127.156 43.1544 127.66 43.8926 127.66 44.5028V47.0718C127.66 47.8158 126.994 48.4237 126.311 48.4237H120.838V59.2794L120.837 59.5157C120.835 60.6434 120.834 61.5352 121.277 62.2052C121.711 62.8624 122.348 63.1063 123.626 63.1063C123.993 63.1063 124.32 63.0444 124.596 62.951C125.406 62.6739 126.012 63.1467 126.218 63.5446C126.484 64.0582 126.775 64.6053 127.035 65.0944C127.17 65.349 127.297 65.588 127.408 65.7983C127.763 66.4746 127.477 67.34 126.827 67.6553C125.777 68.1656 124.324 68.5784 122.329 68.5784C120.676 68.5784 119.74 68.3982 118.693 68.0353C117.642 67.6743 116.645 66.9076 116.044 66.1671C115.438 65.4272 115.138 64.4356 114.915 63.3335C114.687 62.2313 114.634 60.8954 114.634 59.4441V48.4237H110.865C109.999 48.4237 109.516 47.6749 109.516 47.0682Z" fill="#E44232"/>
<path d="M225.527 68.0802H222.02C221.28 68.0802 220.672 67.4729 220.672 66.7312V44.5043C220.672 43.762 221.28 43.1553 222.02 43.1553H225.527C226.269 43.1553 226.874 43.762 226.874 44.5043V66.7312C226.874 67.4729 226.269 68.0802 225.527 68.0802Z" fill="#E44232"/>
</svg>
