<svg width="90" height="90" viewBox="0 0 90 90" fill="none" xmlns="http://www.w3.org/2000/svg">
<path fill-rule="evenodd" clip-rule="evenodd" d="M75.4791 5H14.5171C11.9941 5.00347 9.57538 6.00733 7.79133 7.79146C6.00728 9.5756 5.00347 11.9944 5 14.5176V75.4824C5.00347 78.0056 6.00728 80.4244 7.79133 82.2085C9.57538 83.9927 11.9941 84.9965 14.5171 85H75.4791C78.0021 84.9965 80.4208 83.9927 82.2048 82.2085C83.9889 80.4244 84.9927 78.0056 84.9962 75.4824V14.5176C84.9927 11.9944 83.9889 9.5756 82.2048 7.79146C80.4208 6.00733 78.0021 5.00347 75.4791 5ZM39.4585 62.6173C39.4585 63.4564 39.1252 64.2611 38.5319 64.8544C37.9386 65.4478 37.1339 65.7811 36.2949 65.7811H22.9315C22.0925 65.7811 21.2878 65.4478 20.6945 64.8544C20.1012 64.2611 19.7679 63.4564 19.7679 62.6173V22.9324C19.7679 22.0933 20.1012 21.2886 20.6945 20.6953C21.2878 20.1019 22.0925 19.7686 22.9315 19.7686H36.2949C37.1339 19.7686 37.9386 20.1019 38.5319 20.6953C39.1252 21.2886 39.4585 22.0933 39.4585 22.9324V62.6173ZM70.2282 44.3961C70.237 44.8171 70.1616 45.2356 70.0065 45.627C69.8515 46.0185 69.6198 46.375 69.3252 46.6758C69.0305 46.9766 68.6788 47.2155 68.2906 47.3786C67.9025 47.5417 67.4857 47.6256 67.0646 47.6255H53.7013C52.8623 47.6255 52.0576 47.2922 51.4643 46.6989C50.871 46.1056 50.5377 45.3008 50.5377 44.4618V22.9324C50.5377 22.0933 50.871 21.2886 51.4643 20.6953C52.0576 20.1019 52.8623 19.7686 53.7013 19.7686H67.0646C67.9037 19.7686 68.7083 20.1019 69.3016 20.6953C69.8949 21.2886 70.2282 22.0933 70.2282 22.9324V44.3961Z" fill="url(#paint0_linear_874_4116)"/>
<defs>
<linearGradient id="paint0_linear_874_4116" x1="44.9981" y1="85" x2="44.9981" y2="5" gradientUnits="userSpaceOnUse">
<stop stop-color="#0052CC"/>
<stop offset="1" stop-color="#2684FF"/>
</linearGradient>
</defs>
</svg>
