<svg width="300" height="100" viewBox="0 0 300 100" fill="none" xmlns="http://www.w3.org/2000/svg">
<path d="M220.222 66.6082H235.532V60.5983H232.405V52.7665C232.405 47.4373 236.157 46.2678 239.013 46.2678H242.819V38.2458H239.747C236.266 38.2458 233.057 39.9317 231.616 42.6236V38.572H219.95V44.6902H223.323V60.5983H220.222V66.6082ZM201.241 66.6082H216.823V60.5983H213.506V29H200.67V35.0644H204.423V60.5983H201.241V66.6082ZM185.551 60.1085C182.805 60.1085 180.112 58.3683 180.112 52.8756C180.112 46.2678 183.294 45.0983 185.496 45.0983C188.052 45.0983 190.309 47.1649 190.309 52.3046C190.309 59.7012 186.992 59.9459 185.551 60.1085ZM187.509 66.9344C195.34 66.9344 199.555 61.0611 199.555 52.2501C199.555 43.7931 195.639 38.2458 187.672 38.2458C184.871 38.2458 182.07 39.3065 180.384 40.6117V29H167.44V35.0644H171.193V66.6082H179.813V64.1335C182.016 65.983 184.653 66.9344 187.509 66.9344ZM115.991 66.6082H131.464V60.5983H128.309V50.1292C128.309 48.6061 129.614 45.479 133.585 45.479C136.793 45.479 137.446 47.4373 137.446 49.7487V60.5983H134.319V66.6082H149.683V60.5983H146.474V50.1292C146.474 48.6061 147.643 45.479 151.64 45.479C154.877 45.479 155.665 47.4373 155.665 49.7487V60.5983H152.593V66.6082H167.876V60.5983H164.748V50.8092C164.748 45.044 162.572 38.2458 153.979 38.2458C149.738 38.2458 146.257 40.2579 144.788 42.7326C142.939 39.9317 140.138 38.2458 135.95 38.2458C132.632 38.2458 128.989 39.6594 127.031 42.3519V38.572H115.42V44.6902H119.172V60.5983H115.991V66.6082ZM93.121 66.9344C96.3293 66.9344 100.028 65.5477 102.04 63.073V66.6082H112.618V60.5983H109.926V38.572H97.146V44.6902H100.789V55.2958C100.789 56.1393 100.083 59.7012 95.2967 59.7012C92.2232 59.7012 91.6525 57.8519 91.6525 55.5129V38.572H82.2439V55.8943C82.2439 60.2176 84.2012 66.9344 93.121 66.9344ZM72.101 66.6082C66.4447 66.6082 62.2297 63.6985 62.2297 56.7369V45.5881H57.0898V39.5513C62.7459 38.0825 65.1118 33.2152 65.3844 29H71.2577V38.572H78.1102V45.5881H71.2577V55.2958C71.2577 58.2057 72.7264 59.2116 75.0645 59.2116H78.3825V66.6082H72.101Z" fill="#000008"/>
</svg>
