<svg width="266" height="100" viewBox="0 0 266 100" fill="none" xmlns="http://www.w3.org/2000/svg">
<g clip-path="url(#clip0_1502_2812)">
<path d="M41.212 23.7944L20.6031 11.8972L0 23.7944V11.8972L20.606 0L41.2149 11.8972V23.7944H41.212Z" fill="#A435F0"/>
<path d="M0 33.7852H10.7943V60.0113C10.7943 66.7871 15.8542 70.0899 20.606 70.0899C25.3989 70.0899 30.4206 66.6991 30.4206 59.9204V33.7852H41.2149V60.6361C41.2149 66.878 39.2526 71.6944 35.3279 74.9972C31.4003 78.2971 26.4959 79.9045 20.5151 79.9045C14.5401 79.9045 9.63275 78.3001 5.79901 74.9972C1.96234 71.6973 0 67.0599 0 60.903V33.7852ZM134.536 66.3794C131.268 69.2892 127.546 70.7147 123.302 70.7147C115.558 70.7147 110.366 66.3031 109.779 59.4716H144.656C144.656 59.4716 144.89 57.2658 144.89 55.1949C144.89 48.7712 142.837 43.418 138.642 39.0475C134.542 34.6769 129.192 32.5357 122.677 32.5357C115.81 32.5357 110.187 34.6769 105.726 39.0475C101.355 43.418 99.1258 49.1261 99.1258 56.2656V56.6176C99.1258 63.6661 101.355 69.2862 105.726 73.4808C110.096 77.6723 115.895 79.8136 122.944 79.8136C131.139 79.8136 137.66 76.5812 142.552 71.008L134.536 66.3794ZM114.021 44.4886C116.426 42.6143 119.374 41.6346 122.674 41.6346C125.795 41.6346 128.382 42.6143 130.614 44.5796C132.744 46.3688 133.894 48.5658 133.993 51.0913H110.055C110.401 48.4808 111.721 46.2808 114.024 44.4916L114.021 44.4886ZM243.195 85.8737C238.815 96.2133 234.234 99.7303 227.209 99.7303H222.339V90.1621H226.276C228.693 90.1621 230.94 89.2528 233.081 84.3132L235.222 79.3678L216.755 33.7852H227.728L240.842 66.614L254.315 33.7852H265.285L243.198 85.8737H243.195ZM83.2365 16.5701V37.8566C79.699 34.6887 74.1963 32.8026 68.8754 32.8026C62.5396 32.8026 57.1893 35.0319 52.8188 39.5784C48.5363 44.0398 46.395 49.569 46.395 56.2597C46.395 62.9534 48.5363 68.4825 52.8188 73.032C57.1893 77.4934 62.5425 79.7256 68.8754 79.7256C76.1791 79.7256 80.796 76.854 83.2365 74.6042V78.743H93.9428V16.573H83.2365V16.5701ZM80.0246 66.0773C77.4375 68.6644 74.1376 70.0049 70.3009 70.0049C66.4642 70.0049 63.3433 68.6644 60.7562 66.0773C58.2629 63.4901 57.0104 60.1903 57.0104 56.2656C57.0104 52.338 58.26 49.0381 60.7562 46.451C63.3433 43.8638 66.4642 42.5263 70.3009 42.5263C74.1376 42.5263 77.4375 43.8638 80.0246 46.451C82.6997 49.0381 84.0431 52.338 84.0431 56.2656C84.0431 60.1903 82.6997 63.4901 80.0246 66.0773ZM200.111 32.8935C191.98 32.8935 187.754 36.2668 184.859 39.5168C183.7 37.3081 180.438 32.8935 172.818 32.8935C166.376 32.8935 162.581 36.1494 160.686 38.4667V33.7911H150.073V78.7489H160.686V52.8777C160.686 46.8117 164.434 42.4412 169.427 42.4412C174.516 42.4412 177.458 46.2779 177.458 52.4318V78.7459H188.073V52.8748C188.073 46.7208 191.728 42.4383 196.99 42.4383C202.077 42.4383 205.019 46.275 205.019 52.426V78.743H215.725V50.9124C215.725 39.1912 209.424 32.8965 200.111 32.8965V32.8935Z" fill="black"/>
</g>
<defs>
<clipPath id="clip0_1502_2812">
<rect width="265.285" height="100" fill="white"/>
</clipPath>
</defs>
</svg>
