<svg width="90" height="90" viewBox="0 0 90 90" fill="none" xmlns="http://www.w3.org/2000/svg">
<path d="M45 6C22.8948 6 5 23.631 5 45.4108C5 67.1903 22.8948 84.8215 45 84.8215C67.1052 84.8215 85 67.1903 85 45.4108C85 23.631 67.1052 6 45 6ZM43.5715 60.8935L40.6391 69.4128C40.564 69.7091 40.4135 69.9312 40.263 70.1535C39.8872 70.7462 39.436 71.1906 38.8345 71.4869C38.3082 71.7832 37.7068 71.9314 37.1053 71.9314C36.7292 71.9314 36.2783 71.8574 35.9022 71.7093C34.2481 71.1167 33.1954 69.4867 33.421 67.8571C25.1503 63.7086 19.5113 55.1893 19.5113 45.4108C19.5113 31.4836 30.9399 20.1494 45.1504 20.1494C46.8045 20.1494 48.3835 20.2975 49.9625 20.5938C50.8647 19.1862 52.6692 18.5196 54.3233 19.0381C55.2255 19.3344 55.9023 19.927 56.3533 20.668C56.7294 21.3346 56.955 22.0753 56.8796 22.8903C56.8796 23.1866 56.8045 23.4829 56.7294 23.7052L53.797 32.2243L43.5715 60.8935ZM46.8045 70.598L50.3383 60.0785C56.4286 57.9302 60.7895 52.226 60.7895 45.4108C60.7895 42.2252 59.812 39.1879 58.0827 36.7433L61.6165 26.2238C67.1052 30.817 70.639 37.7064 70.639 45.4108C70.5639 58.7452 60.1127 69.6349 46.8045 70.598Z" fill="#303030"/>
<path d="M29.2111 45.4106C29.2111 50.8927 32.1435 55.7078 36.5043 58.5229L46.4291 29.9279C45.9779 29.8537 45.4516 29.8537 45.0006 29.8537C36.2787 29.8537 29.2111 36.8173 29.2111 45.4106Z" fill="#303030"/>
</svg>
