<svg width="364" height="100" viewBox="0 0 364 100" fill="none" xmlns="http://www.w3.org/2000/svg">
<path d="M293.235 60.5778C296.708 60.5778 300.227 59.4222 302.797 57.4222C302.843 57.3777 302.843 57.3333 302.797 57.3333L300.271 54.311C300.227 54.2666 300.181 54.2666 300.181 54.311C298.061 55.7777 295.76 56.5333 293.324 56.5333C289.671 56.5333 287.461 54.8445 286.919 51.6889L286.873 51.3333H303.338V50.2222C303.338 44.2666 298.467 39.3777 292.512 39.3333C292.467 39.3333 292.423 39.3333 292.377 39.3333C289.13 39.3333 286.243 40.3999 284.212 42.3999C282.273 44.3111 281.19 47.0221 281.19 49.9556C281.235 56.4 285.927 60.5778 293.235 60.5778ZM287.325 47.111C288.091 44.7555 289.896 43.4666 292.377 43.4666C294.859 43.4666 296.617 44.7555 297.429 47.111C297.52 47.3333 297.475 47.5556 297.34 47.7333C297.204 47.9111 296.978 48.0444 296.752 48.0444H288.047C287.821 48.0444 287.596 47.9111 287.461 47.7333C287.279 47.5556 287.235 47.3333 287.325 47.111Z" fill="#303030"/>
<path d="M260.034 50.044C260.034 56.0886 264.996 60.6663 271.628 60.6663C274.875 60.6663 277.852 59.5552 280.018 57.5107V57.3774L276.95 54.0886C275.777 55.5553 273.927 56.4441 271.988 56.4441C270.996 56.4441 270.048 56.2218 269.147 55.7774C269.101 55.7774 269.056 55.733 269.011 55.6885L268.965 55.6441L268.876 55.5996C267.612 54.9774 266.575 53.8663 266.034 52.5329C265.898 52.2219 265.808 51.9107 265.718 51.5552C265.672 51.3774 265.628 51.244 265.628 51.1108L265.583 50.8885C265.583 50.7996 265.537 50.6664 265.537 50.5775C265.537 50.4441 265.537 50.3107 265.537 50.1774C265.537 50.0886 265.537 50.044 265.537 50.044C265.537 49.9108 265.537 49.7774 265.537 49.6441V49.5553C265.537 49.5107 265.537 49.5107 265.537 49.4664C265.628 48.7552 265.808 47.9997 266.124 47.333C266.169 47.2441 266.214 47.1107 266.26 47.0219C266.846 45.8664 267.747 45.0219 268.83 44.4441C269.777 43.9108 270.86 43.6441 271.988 43.6441C273.927 43.6441 275.731 44.4886 276.996 45.9996L280.063 42.6219C277.897 40.5774 274.875 39.4218 271.582 39.4218C264.996 39.4218 260.034 43.9997 260.034 50.044Z" fill="#303030"/>
<path d="M256.966 59.689V49.3334C256.786 44.6223 255.477 40.2667 247.493 40.2667C245.824 40.2667 244.336 40.489 243.073 40.9778L242.622 41.1557V40.3556C242.622 40.3112 242.576 40.3112 242.576 40.3112H238.111C238.066 40.3112 238.066 40.3556 238.066 40.3556V59.689C238.066 59.7334 238.111 59.7779 238.156 59.7779H243.299C243.343 59.7779 243.388 59.7334 243.388 59.689V48.8001C243.388 48.1778 243.479 47.6001 243.614 47.0667C244.2 45.5556 245.78 44.4889 247.539 44.4445C249.253 44.4445 250.877 45.5111 251.463 47.0223C251.643 47.5556 251.689 48.1334 251.689 48.7556V59.6445C251.689 59.689 251.734 59.7334 251.778 59.7334L256.966 59.689C256.966 59.7334 256.922 59.7779 256.966 59.689Z" fill="#303030"/>
<path d="M214.7 40.3556V50.7557C214.88 55.4667 216.188 59.8222 224.173 59.8222C232.292 59.8222 233.464 54.4889 233.646 50.5334V40.3556C233.646 40.3112 233.6 40.2667 233.555 40.2667H228.413C228.367 40.2667 228.322 40.3112 228.322 40.3556V51.2445C228.322 51.8667 228.232 52.4445 228.096 52.9778C227.51 54.4889 225.931 55.5557 224.173 55.6001C222.458 55.6001 220.834 54.5335 220.248 53.0223C220.068 52.489 220.021 51.9112 220.021 51.289V40.3556C220.021 40.3112 219.977 40.2667 219.932 40.2667H214.789C214.744 40.2667 214.7 40.3112 214.7 40.3556Z" fill="#303030"/>
<path d="M199.769 39.3333C193.183 39.3333 188.176 43.9111 188.176 49.9556C188.176 55.9999 193.138 60.5778 199.769 60.5778C206.399 60.5778 211.407 55.9999 211.407 49.9556C211.407 43.8667 206.399 39.3333 199.769 39.3333ZM199.769 56.1777C196.34 56.1777 193.724 53.5111 193.724 49.9556C193.724 46.4445 196.386 43.7333 199.769 43.7333C203.197 43.7333 205.858 46.4888 205.858 49.9556C205.858 53.4222 203.152 56.1777 199.769 56.1777Z" fill="#303030"/>
<path d="M176.087 60.2221C181.545 60.2221 185.695 55.7777 185.695 49.9111C185.695 44.0888 181.5 39.5111 176.087 39.5111C173.2 39.5111 170.584 40.6666 168.734 42.7999L168.148 43.4221V30.4444C168.148 30.4 168.102 30.3555 168.057 30.3555H162.915C162.87 30.3555 162.825 30.4 162.825 30.4444V59.6888C162.825 59.7333 162.87 59.7777 162.915 59.7777H167.742C167.787 59.7777 167.832 59.7333 167.832 59.6888V56.0445L168.418 56.711C170.268 58.9778 172.974 60.2221 176.087 60.2221ZM174.959 43.9556C178.387 43.9556 180.913 46.4445 180.913 49.8667C180.913 53.2444 178.342 55.7777 174.959 55.7777C171.576 55.7777 168.914 53.1999 168.914 49.9111C168.914 46.5333 171.531 43.9556 174.959 43.9556Z" fill="#303030"/>
<path d="M158.675 59.7779C158.72 59.7779 158.765 59.7334 158.765 59.689V49.3334C158.585 44.6223 157.277 40.2667 149.292 40.2667C147.623 40.2667 146.135 40.489 144.872 40.9778L144.421 41.1557V40.3556C144.421 40.3112 144.376 40.3112 144.33 40.3112H139.865C139.82 40.3112 139.82 40.3556 139.82 40.3556V59.689C139.82 59.7334 139.865 59.7779 139.91 59.7779H145.052C145.097 59.7779 145.142 59.7334 145.142 59.689V48.8001C145.142 48.1778 145.233 47.6001 145.368 47.0667C145.954 45.5556 147.533 44.4889 149.292 44.4445C151.007 44.4445 152.631 45.5111 153.217 47.0223C153.397 47.5556 153.442 48.1334 153.442 48.7556V59.6445C153.442 59.689 153.488 59.7334 153.533 59.7334H158.675V59.7779Z" fill="#303030"/>
<path d="M116.814 40.3556V50.7557C116.995 55.4667 118.303 59.8222 126.287 59.8222C134.407 59.8222 135.579 54.4889 135.76 50.5334V40.3556C135.76 40.3112 135.715 40.2667 135.669 40.2667H130.527C130.482 40.2667 130.437 40.3112 130.437 40.3556V51.2445C130.437 51.8667 130.347 52.4445 130.211 52.9778C129.625 54.4889 128.046 55.5557 126.287 55.6001C124.573 55.6001 122.949 54.5335 122.362 53.0223C122.182 52.489 122.137 51.9112 122.137 51.289V40.3556C122.137 40.3112 122.092 40.2667 122.047 40.2667H116.904C116.814 40.2667 116.814 40.3112 116.814 40.3556Z" fill="#303030"/>
<path d="M84.4256 26.3555C71.1636 26.3555 60.4277 36.9332 60.4277 49.9999C60.4277 63.0666 71.1636 73.6444 84.4256 73.6444C97.6876 73.6444 108.424 63.0666 108.424 49.9999C108.424 36.9332 97.6876 26.3555 84.4256 26.3555ZM83.5686 59.2888L81.8093 64.3999C81.7642 64.5777 81.674 64.711 81.5837 64.8444C81.3582 65.1999 81.0875 65.4666 80.7267 65.6443C80.4109 65.8221 80.0501 65.911 79.6892 65.911C79.4636 65.911 79.193 65.8666 78.9674 65.7777C77.975 65.4222 77.3435 64.4443 77.4789 63.4666C72.5169 60.9777 69.1337 55.8666 69.1337 49.9999C69.1337 41.6443 75.9903 34.8444 84.5159 34.8444C85.5082 34.8444 86.4556 34.9333 87.4029 35.111C87.9441 34.2666 89.0268 33.8666 90.0191 34.1777C90.5604 34.3554 90.9664 34.711 91.237 35.1555C91.4626 35.5554 91.598 35.9999 91.5528 36.4888C91.5528 36.6666 91.5077 36.8443 91.4626 36.9777L89.7034 42.0887L83.5686 59.2888ZM85.5083 65.111L87.6283 58.7999C91.2822 57.511 93.8985 54.0887 93.8985 49.9999C93.8985 48.0887 93.312 46.2666 92.2746 44.7999L94.3947 38.4887C97.6875 41.2444 99.8076 45.3777 99.8076 49.9999C99.7626 57.9999 93.4924 64.5332 85.5083 65.111Z" fill="#303030"/>
<path d="M74.9535 50C74.9535 53.289 76.7128 56.1778 79.3291 57.8667L85.2834 40.7112C85.0127 40.6666 84.697 40.6666 84.4264 40.6666C79.1937 40.6666 74.9535 44.8445 74.9535 50Z" fill="#303030"/>
</svg>
