<svg width="611" height="128" viewBox="0 0 611 128" fill="none" xmlns="http://www.w3.org/2000/svg">
<path d="M114 64C114 32.5198 88.4802 7 57 7C25.5198 7 0 32.5198 0 64C0 95.4802 25.5198 121 57 121C88.4802 121 114 95.4802 114 64Z" fill="url(#paint0_linear_1343_52)"/>
<path d="M48.0938 81.8123H39.1875C36.8254 81.8123 34.5602 80.8739 32.8899 79.2037C31.2197 77.5334 30.2813 75.2681 30.2812 72.906V49.156C30.2812 46.7939 31.2197 44.5286 32.8899 42.8583C34.5602 41.1881 36.8254 40.2498 39.1875 40.2498H74.8125C77.1746 40.2498 79.4399 41.1881 81.1102 42.8583C82.7804 44.5286 83.7189 46.7939 83.7189 49.156V72.906C83.7189 75.2681 82.7804 77.5334 81.1102 79.2037C79.4399 80.8739 77.1746 81.8123 74.8125 81.8123H65.9062L57 90.7185L48.0938 81.8123Z" fill="url(#paint1_linear_1343_52)" stroke="white" stroke-width="4" stroke-linecap="round" stroke-linejoin="round"/>
<path d="M45.1289 55.0938H68.8789" stroke="white" stroke-width="4" stroke-linecap="round" stroke-linejoin="round"/>
<path d="M45.1289 66.9685H62.9414" stroke="white" stroke-width="4" stroke-linecap="round" stroke-linejoin="round"/>
<path d="M184.242 27.2727H199.618V74.5028C199.618 79.8059 198.352 84.446 195.819 88.4233C193.309 92.4006 189.794 95.5019 185.272 97.7273C180.75 99.929 175.482 101.03 169.469 101.03C163.432 101.03 158.153 99.929 153.631 97.7273C149.109 95.5019 145.594 92.4006 143.084 88.4233C140.575 84.446 139.32 79.8059 139.32 74.5028V27.2727H154.696V73.1889C154.696 75.9588 155.3 78.4209 156.508 80.5753C157.739 82.7296 159.467 84.4223 161.692 85.6534C163.918 86.8845 166.51 87.5 169.469 87.5C172.452 87.5 175.044 86.8845 177.246 85.6534C179.472 84.4223 181.188 82.7296 182.395 80.5753C183.626 78.4209 184.242 75.9588 184.242 73.1889V27.2727ZM257.869 61.0085L244.019 61.8608C243.782 60.6771 243.274 59.6117 242.492 58.6648C241.711 57.6941 240.681 56.9247 239.403 56.3565C238.148 55.7647 236.645 55.4688 234.893 55.4688C232.549 55.4688 230.572 55.9659 228.962 56.9602C227.353 57.9309 226.548 59.233 226.548 60.8665C226.548 62.1686 227.068 63.2694 228.11 64.169C229.152 65.0687 230.939 65.7907 233.472 66.3352L243.345 68.3239C248.648 69.4129 252.601 71.1648 255.205 73.5795C257.809 75.9943 259.112 79.1667 259.112 83.0966C259.112 86.6714 258.058 89.8082 255.951 92.5071C253.868 95.206 251.003 97.313 247.357 98.8281C243.735 100.32 239.557 101.065 234.822 101.065C227.601 101.065 221.848 99.562 217.563 96.5554C213.302 93.5251 210.804 89.4058 210.07 84.1974L224.95 83.4162C225.399 85.6179 226.488 87.2988 228.217 88.4588C229.945 89.5952 232.158 90.1634 234.857 90.1634C237.509 90.1634 239.64 89.6544 241.249 88.6364C242.883 87.5947 243.711 86.2571 243.735 84.6236C243.711 83.2505 243.131 82.1259 241.995 81.25C240.859 80.3504 239.107 79.6638 236.739 79.1903L227.293 77.3082C221.967 76.2429 218.001 74.3963 215.397 71.7685C212.817 69.1406 211.526 65.7907 211.526 61.7188C211.526 58.215 212.473 55.1965 214.367 52.6634C216.285 50.1302 218.972 48.1771 222.428 46.804C225.908 45.4309 229.98 44.7443 234.644 44.7443C241.533 44.7443 246.955 46.2003 250.908 49.1122C254.886 52.0241 257.206 55.9896 257.869 61.0085ZM293.995 101.065C288.385 101.065 283.555 99.929 279.507 97.6562C275.482 95.3598 272.381 92.1165 270.203 87.9261C268.025 83.7121 266.936 78.7287 266.936 72.9759C266.936 67.3651 268.025 62.4408 270.203 58.2031C272.381 53.9654 275.447 50.6629 279.4 48.2955C283.378 45.928 288.041 44.7443 293.392 44.7443C296.99 44.7443 300.34 45.3243 303.441 46.4844C306.566 47.6207 309.289 49.3371 311.609 51.6335C313.953 53.9299 315.776 56.8182 317.078 60.2983C318.38 63.7547 319.031 67.803 319.031 72.4432V76.598H272.973V67.223H304.791C304.791 65.045 304.317 63.1155 303.37 61.4347C302.423 59.7538 301.11 58.4399 299.429 57.4929C297.771 56.5223 295.842 56.0369 293.64 56.0369C291.344 56.0369 289.308 56.5696 287.532 57.6349C285.78 58.6766 284.407 60.0852 283.413 61.8608C282.419 63.6127 281.91 65.5658 281.886 67.7202V76.6335C281.886 79.3324 282.383 81.6643 283.378 83.6293C284.396 85.5942 285.828 87.1094 287.674 88.1747C289.521 89.2401 291.711 89.7727 294.244 89.7727C295.925 89.7727 297.464 89.536 298.861 89.0625C300.257 88.589 301.453 87.8788 302.447 86.9318C303.441 85.9848 304.199 84.8248 304.72 83.4517L318.711 84.375C318.001 87.7367 316.545 90.6723 314.343 93.1818C312.165 95.6676 309.348 97.6089 305.892 99.0057C302.459 100.379 298.494 101.065 293.995 101.065ZM329.403 100V45.4545H344.069V54.9716H344.637C345.632 51.5862 347.301 49.0294 349.645 47.3011C351.988 45.5492 354.687 44.6733 357.741 44.6733C358.499 44.6733 359.316 44.7206 360.191 44.8153C361.067 44.91 361.837 45.0402 362.5 45.206V58.6293C361.789 58.4162 360.807 58.2268 359.552 58.0611C358.298 57.8954 357.149 57.8125 356.108 57.8125C353.882 57.8125 351.894 58.2978 350.142 59.2685C348.414 60.2154 347.04 61.5412 346.022 63.2457C345.028 64.9503 344.531 66.9152 344.531 69.1406V100H329.403ZM388.381 100.888C384.238 100.888 380.486 99.8224 377.124 97.6918C373.786 95.5374 371.135 92.3769 369.17 88.2102C367.229 84.0199 366.258 78.8826 366.258 72.7983C366.258 66.5483 367.264 61.3518 369.276 57.2088C371.289 53.0421 373.964 49.929 377.302 47.8693C380.664 45.786 384.345 44.7443 388.346 44.7443C391.4 44.7443 393.945 45.2652 395.981 46.3068C398.041 47.3248 399.698 48.6032 400.952 50.142C402.231 51.6572 403.202 53.1487 403.864 54.6165H404.326V27.2727H419.418V100H404.504V91.2642H403.864C403.154 92.7794 402.148 94.2827 400.846 95.7741C399.568 97.242 397.899 98.4612 395.839 99.4318C393.803 100.402 391.317 100.888 388.381 100.888ZM393.175 88.8494C395.614 88.8494 397.674 88.1866 399.354 86.8608C401.059 85.5114 402.361 83.6293 403.261 81.2145C404.184 78.7997 404.646 75.9706 404.646 72.7273C404.646 69.4839 404.196 66.6667 403.296 64.2756C402.397 61.8845 401.095 60.0379 399.39 58.7358C397.685 57.4337 395.614 56.7827 393.175 56.7827C390.69 56.7827 388.595 57.4574 386.89 58.8068C385.185 60.1562 383.895 62.0265 383.019 64.4176C382.143 66.8087 381.705 69.5786 381.705 72.7273C381.705 75.8996 382.143 78.705 383.019 81.1435C383.919 83.5582 385.209 85.4522 386.89 86.8253C388.595 88.1747 390.69 88.8494 393.175 88.8494ZM457.214 101.065C451.603 101.065 446.774 99.929 442.726 97.6562C438.701 95.3598 435.6 92.1165 433.422 87.9261C431.244 83.7121 430.155 78.7287 430.155 72.9759C430.155 67.3651 431.244 62.4408 433.422 58.2031C435.6 53.9654 438.665 50.6629 442.619 48.2955C446.596 45.928 451.26 44.7443 456.611 44.7443C460.209 44.7443 463.559 45.3243 466.66 46.4844C469.785 47.6207 472.508 49.3371 474.828 51.6335C477.172 53.9299 478.995 56.8182 480.297 60.2983C481.599 63.7547 482.25 67.803 482.25 72.4432V76.598H436.191V67.223H468.01C468.01 65.045 467.536 63.1155 466.589 61.4347C465.642 59.7538 464.328 58.4399 462.647 57.4929C460.99 56.5223 459.061 56.0369 456.859 56.0369C454.563 56.0369 452.527 56.5696 450.751 57.6349C448.999 58.6766 447.626 60.0852 446.632 61.8608C445.637 63.6127 445.128 65.5658 445.105 67.7202V76.6335C445.105 79.3324 445.602 81.6643 446.596 83.6293C447.614 85.5942 449.047 87.1094 450.893 88.1747C452.74 89.2401 454.93 89.7727 457.463 89.7727C459.144 89.7727 460.682 89.536 462.079 89.0625C463.476 88.589 464.672 87.8788 465.666 86.9318C466.66 85.9848 467.418 84.8248 467.939 83.4517L481.93 84.375C481.22 87.7367 479.764 90.6723 477.562 93.1818C475.384 95.6676 472.567 97.6089 469.111 99.0057C465.678 100.379 461.712 101.065 457.214 101.065ZM538.005 61.0085L524.156 61.8608C523.919 60.6771 523.41 59.6117 522.629 58.6648C521.848 57.6941 520.818 56.9247 519.539 56.3565C518.285 55.7647 516.781 55.4688 515.03 55.4688C512.686 55.4688 510.709 55.9659 509.099 56.9602C507.489 57.9309 506.684 59.233 506.684 60.8665C506.684 62.1686 507.205 63.2694 508.247 64.169C509.289 65.0687 511.076 65.7907 513.609 66.3352L523.481 68.3239C528.784 69.4129 532.738 71.1648 535.342 73.5795C537.946 75.9943 539.248 79.1667 539.248 83.0966C539.248 86.6714 538.195 89.8082 536.088 92.5071C534.004 95.206 531.14 97.313 527.494 98.8281C523.872 100.32 519.693 101.065 514.959 101.065C507.738 101.065 501.985 99.562 497.7 96.5554C493.439 93.5251 490.941 89.4058 490.207 84.1974L505.086 83.4162C505.536 85.6179 506.625 87.2988 508.353 88.4588C510.082 89.5952 512.295 90.1634 514.994 90.1634C517.646 90.1634 519.776 89.6544 521.386 88.6364C523.02 87.5947 523.848 86.2571 523.872 84.6236C523.848 83.2505 523.268 82.1259 522.132 81.25C520.995 80.3504 519.244 79.6638 516.876 79.1903L507.43 77.3082C502.103 76.2429 498.138 74.3963 495.534 71.7685C492.953 69.1406 491.663 65.7907 491.663 61.7188C491.663 58.215 492.61 55.1965 494.504 52.6634C496.422 50.1302 499.109 48.1771 502.565 46.804C506.045 45.4309 510.117 44.7443 514.781 44.7443C521.67 44.7443 527.092 46.2003 531.045 49.1122C535.022 52.0241 537.343 55.9896 538.005 61.0085ZM562.982 84.304L563.017 66.1577H565.219L582.69 45.4545H600.055L576.582 72.8693H572.996L562.982 84.304ZM549.274 100V27.2727H564.402V100H549.274ZM583.365 100L567.314 76.2429L577.399 65.554L601.085 100H583.365Z" fill="#383838"/>
<defs>
<linearGradient id="paint0_linear_1343_52" x1="114" y1="64" x2="0" y2="64" gradientUnits="userSpaceOnUse">
<stop stop-color="#FFA800"/>
<stop offset="1" stop-color="#FA5A00"/>
</linearGradient>
<linearGradient id="paint1_linear_1343_52" x1="83.7188" y1="65.4841" x2="30.2812" y2="65.4841" gradientUnits="userSpaceOnUse">
<stop stop-color="#FFA800"/>
<stop offset="1" stop-color="#FA5A00"/>
</linearGradient>
</defs>
</svg>
