<svg width="90" height="90" viewBox="0 0 90 90" fill="none" xmlns="http://www.w3.org/2000/svg">
<path d="M77 5H13C8.58172 5 5 8.58172 5 13V77C5 81.4183 8.58172 85 13 85H77C81.4183 85 85 81.4183 85 77V13C85 8.58172 81.4183 5 77 5Z" fill="#008CFF"/>
<path d="M63.7667 23.46C65.3221 26.0199 66.0234 28.6565 66.0234 31.9871C66.0233 42.6101 56.9226 56.4102 49.5365 66.1005H32.6661L25.9004 25.7858L40.6723 24.3883L44.2494 53.0748C47.5918 47.6487 51.7166 39.1216 51.7167 33.3079C51.7167 30.1256 51.1696 27.9581 50.3147 26.1734L63.7667 23.46Z" fill="white"/>
</svg>
