<svg width="360" height="100" viewBox="0 0 360 100" fill="none" xmlns="http://www.w3.org/2000/svg">
<path d="M265.989 60.757C263.647 60.757 262.65 58.5621 262.65 55.0155C262.652 50.3405 263.716 41.202 268.904 41.202C271.247 41.202 272.029 43.3274 272.029 46.4448C272.029 51.1194 270.892 60.757 265.989 60.757ZM270.396 31.14C255.686 31.14 249.292 42.4084 249.292 54.4511C249.292 63.5901 252.987 70.8883 264.143 70.8883C279.208 70.8883 285.533 58.5617 285.533 46.6586C285.533 37.6597 281.482 31.14 270.396 31.14ZM236.772 31.14C231.871 31.14 228.317 32.6308 224.552 35.3205C223.199 32.9113 220.501 31.14 216.379 31.1415C211.618 31.1415 208.067 33.0567 205.438 34.9672L205.083 31.7792H193.782L187.744 69.9671H200.958L205.152 43.1877C206.289 42.6194 207.992 41.8408 209.699 41.8408C210.976 41.8408 212.043 42.2656 212.043 44.1805C212.043 44.6743 211.902 45.4528 211.832 46.091L208.067 69.9666H221.212L225.402 43.1874C226.613 42.5489 228.246 41.8405 229.878 41.8405C231.16 41.8405 232.226 42.2651 232.226 44.1802C232.226 44.674 232.081 45.4525 232.011 46.0907L228.246 69.9662H241.393L245.44 44.4597C245.655 43.1168 245.87 41.062 245.87 39.6451C245.87 34.5418 243.523 31.14 236.772 31.14ZM176.501 31.1408C171.459 31.1408 167.905 33.0559 165.206 34.8269L165.061 31.7788H153.62L147.581 69.9666H160.8L164.991 43.1874C166.127 42.6189 167.834 41.8405 169.537 41.8405C170.819 41.8405 171.885 42.2648 171.885 43.9656C171.885 44.674 171.67 45.9507 171.6 46.5848L167.905 69.9662H181.049L185.1 44.4597C185.314 43.1168 185.53 41.062 185.53 39.6451C185.53 34.5418 183.182 31.14 176.501 31.1408ZM127.107 47.2226C127.463 42.9725 130.727 39.9992 133.216 39.9992C134.638 39.9992 135.844 40.8477 135.844 42.5484C135.844 46.0902 129.591 47.2226 127.107 47.2226ZM134.497 31.14C120.428 31.1398 113.603 43.3274 113.603 54.8053C113.603 63.6609 117.798 70.7447 129.52 70.7447C134.141 70.7447 138.902 69.7525 141.957 68.2651L143.59 57.2147C139.254 59.4104 135.919 60.2588 132.435 60.2588C129.235 60.2588 126.822 58.562 126.822 54.2371C134.071 54.1671 146.574 51.1932 146.574 41.4859C146.574 35.4644 142.242 31.14 134.497 31.14ZM97.3183 33.4795C98.0997 35.1105 98.5997 37.0913 98.5997 39.9992C98.5995 45.312 94.8301 53.1045 91.7757 58.063L88.5068 31.8483L75.0078 33.1254L81.1905 69.9665H96.6072C103.357 61.1111 111.673 48.5001 111.674 38.7923C111.674 35.7487 111.033 33.3392 109.611 31L97.3183 33.4795Z" fill="#008CFF"/>
</svg>
