<svg width="90" height="90" viewBox="0 0 90 90" fill="none" xmlns="http://www.w3.org/2000/svg">
<path d="M46.6973 30.9598C46.7264 30.4016 47.2025 29.9728 47.7607 30.0019C49.849 30.1108 51.5864 30.743 52.8239 32.0224C54.0566 33.2969 54.6608 35.0774 54.7669 37.2158C54.7946 37.774 54.3645 38.249 53.8063 38.2767C53.248 38.3044 52.773 37.8743 52.7453 37.3161C52.6545 35.4856 52.1523 34.2395 51.3689 33.4295C50.5903 32.6245 49.4021 32.1143 47.6552 32.0232C47.097 31.9941 46.6682 31.518 46.6973 30.9598Z" fill="#7360F2"/>
<path d="M46.6845 24.5726C46.141 24.4422 45.5946 24.777 45.4642 25.3205C45.3338 25.864 45.6686 26.4103 46.2121 26.5407C46.6164 26.6378 47.0264 26.729 47.4395 26.8208C49.52 27.2836 51.6785 27.7637 53.5763 29.0939C55.7553 30.6212 57.6849 33.3732 58.2195 38.9868C58.2725 39.5432 58.7666 39.9513 59.323 39.8983C59.8794 39.8453 60.2875 39.3513 60.2345 38.7949C59.6579 32.7411 57.5132 29.3816 54.7381 27.4365C52.4782 25.8524 49.8589 25.277 47.7804 24.8203C47.3945 24.7356 47.0273 24.6549 46.6845 24.5726Z" fill="#7360F2"/>
<path d="M43.3775 20.3245C43.3814 19.7655 43.8377 19.3156 44.3966 19.3195C50.2697 19.3604 55.2341 21.3156 59.22 25.2012C63.2392 29.1192 65.2268 34.4533 65.2772 41.0781C65.2815 41.637 64.8318 42.0935 64.2729 42.0978C63.714 42.102 63.2575 41.6524 63.2532 41.0935C63.206 34.8857 61.3591 30.1131 57.8071 26.6505C54.2217 23.1554 49.7701 21.381 44.3825 21.3435C43.8236 21.3396 43.3736 20.8834 43.3775 20.3245Z" fill="#7360F2"/>
<path d="M50.0976 49.9979C49.3317 50.9415 47.909 50.8214 47.909 50.8214C37.5114 48.1671 34.7286 37.6351 34.7286 37.6351C34.7286 37.6351 34.6038 36.2125 35.5522 35.4466L37.431 33.9532C38.3626 33.2353 38.9568 31.4933 38.0084 29.7922C37.281 28.5153 36.4901 27.2757 35.6386 26.0779C34.8115 24.9482 32.8846 22.6348 32.8774 22.6276C31.9482 21.5316 30.5821 21.2771 29.1414 22.0274C29.1371 22.0274 29.1311 22.0293 29.1253 22.0312C29.12 22.0329 29.1149 22.0346 29.1114 22.0346C27.6786 22.8601 26.3866 23.9089 25.2842 25.1415C25.2804 25.149 25.2767 25.1526 25.2729 25.1562C25.2695 25.1595 25.266 25.1628 25.2626 25.1691C24.3726 26.2431 23.8632 27.296 23.7343 28.3276C23.7076 28.4797 23.6983 28.6344 23.7067 28.7886C23.7019 29.2442 23.7713 29.6975 23.912 30.1308L23.9612 30.1644C24.4102 31.7586 25.5339 34.4142 27.9757 38.8416C29.3724 41.4025 30.9833 43.8406 32.791 46.1299C33.6967 47.2774 34.6675 48.3721 35.6986 49.4084C35.7111 49.4209 35.7234 49.4333 35.7356 49.4457C35.7601 49.4704 35.7843 49.4949 35.8091 49.5189L36.1404 49.8502C37.1768 50.8813 38.2714 51.8521 39.419 52.7578C41.7086 54.5658 44.1471 56.1766 46.7085 57.573C51.1348 60.0149 53.7928 61.1385 55.3846 61.5875L55.4183 61.6367C55.8515 61.7779 56.3048 61.8476 56.7604 61.8432C56.9147 61.8507 57.0693 61.841 57.2214 61.8144C58.2547 61.692 59.3067 61.1833 60.3776 60.2886C60.3839 60.2851 60.3872 60.2817 60.3905 60.2782C60.3941 60.2745 60.3977 60.2707 60.4052 60.267C61.6377 59.1642 62.6869 57.8723 63.5133 56.4398C63.5133 56.4363 63.5147 56.4312 63.5161 56.4258C63.5177 56.4201 63.5193 56.4141 63.5193 56.4097C64.2696 54.9691 64.0151 53.603 62.913 52.6726C62.9116 52.6726 62.8218 52.5985 62.6696 52.4732C62.045 51.9586 60.3712 50.5795 59.4628 49.9114C58.2662 49.0601 57.0277 48.2692 55.752 47.5416C54.0497 46.5932 52.3113 47.1875 51.591 48.1191L50.0976 49.9979Z" fill="#7360F2"/>
<path fill-rule="evenodd" clip-rule="evenodd" d="M74.3069 12.8031C72.3188 10.9687 64.285 5.13666 46.3902 5.05742C46.3902 5.05742 25.2875 3.78489 15.0004 13.2208C9.27392 18.9484 7.25946 27.3291 7.04697 37.7195C6.83447 48.1098 6.55955 67.5819 25.3296 72.8618H25.3476L25.3356 80.9183C25.3356 80.9183 25.2155 84.1801 27.3632 84.8452C29.5313 85.5184 30.9519 83.9032 32.8043 81.797L32.8052 81.796C33.1722 81.3788 33.5561 80.9423 33.9661 80.5005C35.3274 79.0335 37.2074 76.8786 38.624 75.2315C51.4611 76.312 61.3341 73.8426 62.4554 73.4776C62.6868 73.4026 63.0145 73.3193 63.4211 73.2159C67.5684 72.1613 79.927 69.0189 82.0994 51.2875C84.5616 31.2188 80.9085 18.5246 74.3069 12.8031ZM76.4822 49.8481C74.6694 64.4863 64.8445 66.7724 61.3044 67.5961C60.9128 67.6872 60.5982 67.7604 60.3797 67.8304C59.4469 68.1306 50.7756 70.2879 39.8714 69.576C39.8714 69.576 31.7463 79.3781 29.2084 81.9267C28.8123 82.3253 28.3465 82.4862 28.0355 82.4069C27.5985 82.3001 27.4785 81.7827 27.4833 81.0264C27.4905 79.9459 27.5529 67.6384 27.5529 67.6384C12.1996 63.3758 12.5577 47.7392 12.761 38.8643C12.7679 38.5611 12.7747 38.2655 12.7806 37.9788C12.9607 29.3004 14.591 22.191 19.4339 17.4094C28.1352 9.52809 46.06 10.7058 46.06 10.7058C61.1973 10.7718 68.4508 15.3301 70.1327 16.8572C75.7175 21.6388 78.5627 33.0807 76.4822 49.8433V49.8481Z" fill="#7360F2"/>
</svg>
