<svg width="300" height="100" viewBox="0 0 300 100" fill="none" xmlns="http://www.w3.org/2000/svg">
<path d="M38.6695 34.3779C38.3948 34.376 38.1705 34.5971 38.1686 34.8718C38.1667 35.1465 38.3879 35.3708 38.6626 35.3727C41.3106 35.3911 43.4986 36.2632 45.2608 37.9811C47.0066 39.683 47.9143 42.0287 47.9375 45.0798C47.9396 45.3545 48.164 45.5755 48.4387 45.5734C48.7134 45.5713 48.9344 45.3469 48.9323 45.0722C48.9076 41.8161 47.9306 39.1944 45.9552 37.2687C43.9962 35.359 41.5562 34.398 38.6695 34.3779Z" fill="#7360F2"/>
<path d="M39.794 36.9598C39.5269 36.8957 39.2583 37.0602 39.1942 37.3274C39.1301 37.5945 39.2947 37.863 39.5618 37.9271C39.7605 37.9748 39.962 38.0196 40.1651 38.0648C41.1877 38.2922 42.2486 38.5282 43.1813 39.182C44.2523 39.9327 45.2007 41.2853 45.4635 44.0444C45.4895 44.3178 45.7323 44.5184 46.0058 44.4924C46.2793 44.4663 46.4799 44.2235 46.4538 43.95C46.1705 40.9746 45.1163 39.3234 43.7523 38.3674C42.6416 37.5888 41.3542 37.306 40.3326 37.0815C40.143 37.0399 39.9625 37.0002 39.794 36.9598Z" fill="#7360F2"/>
<path d="M39.8003 40.0991C39.8146 39.8248 40.0486 39.614 40.3229 39.6283C41.3494 39.6818 42.2033 39.9925 42.8115 40.6213C43.4174 41.2478 43.7144 42.1229 43.7665 43.1739C43.7801 43.4483 43.5687 43.6817 43.2944 43.6954C43.02 43.709 42.7865 43.4976 42.7729 43.2232C42.7283 42.3235 42.4814 41.711 42.0964 41.313C41.7137 40.9173 41.1297 40.6665 40.2711 40.6217C39.9968 40.6074 39.786 40.3734 39.8003 40.0991Z" fill="#7360F2"/>
<path d="M41.4715 49.4563C41.0951 49.9201 40.3959 49.8611 40.3959 49.8611C35.2854 48.5565 33.9177 43.38 33.9177 43.38C33.9177 43.38 33.8563 42.6808 34.3225 42.3043L35.2459 41.5703C35.7038 41.2175 35.9959 40.3613 35.5297 39.5252C35.1722 38.8976 34.7834 38.2883 34.365 37.6996C33.9584 37.1444 33.0114 36.0074 33.0078 36.0038C32.5511 35.4651 31.8796 35.34 31.1716 35.7088C31.1694 35.7088 31.1665 35.7098 31.1637 35.7107L31.1596 35.7119L31.1578 35.7123L31.1568 35.7123C30.4526 36.1181 29.8176 36.6336 29.2757 37.2394C29.2739 37.2431 29.2721 37.2448 29.2702 37.2466C29.2685 37.2482 29.2668 37.2498 29.2651 37.253C28.8277 37.7808 28.5773 38.2983 28.514 38.8054C28.5008 38.8801 28.4963 38.9561 28.5004 39.0319C28.4981 39.2558 28.5321 39.4786 28.6013 39.6916L28.6255 39.7081C28.8462 40.4917 29.3985 41.7969 30.5986 43.973C31.2851 45.2317 32.0768 46.43 32.9653 47.5552C33.4105 48.1192 33.8877 48.6572 34.3945 49.1666L34.4126 49.1849C34.4246 49.197 34.4366 49.2091 34.4487 49.2209L34.6116 49.3837C35.121 49.8905 35.659 50.3677 36.223 50.8128C37.3483 51.7014 38.5469 52.4932 39.8058 53.1795C41.9813 54.3796 43.2877 54.9319 44.0701 55.1526L44.0867 55.1768C44.2996 55.2462 44.5224 55.2804 44.7463 55.2783C44.8221 55.282 44.8981 55.2772 44.9729 55.2641C45.4807 55.2039 45.9978 54.954 46.5242 54.5142L46.5257 54.5133L46.5272 54.5122L46.5296 54.51L46.5305 54.5091C46.5323 54.5073 46.534 54.5054 46.5377 54.5036C47.1435 53.9616 47.6592 53.3266 48.0654 52.6225C48.0654 52.6208 48.0661 52.6183 48.0668 52.6156C48.0675 52.6128 48.0683 52.6099 48.0683 52.6077C48.4371 51.8997 48.312 51.2282 47.7703 50.7709C47.7697 50.7709 47.7256 50.7346 47.651 50.6731C47.3439 50.4201 46.521 49.7421 46.0745 49.4138C45.4864 48.9954 44.8777 48.6066 44.2507 48.2491C43.414 47.7829 42.5596 48.075 42.2056 48.5329L41.4715 49.4563Z" fill="#7360F2"/>
<path fill-rule="evenodd" clip-rule="evenodd" d="M39.6493 27.3681C48.4447 27.407 52.3933 30.2735 53.3704 31.175C56.6151 33.9872 58.4106 40.2264 57.2004 50.0902C56.1327 58.8051 50.0585 60.3496 48.0201 60.8679C47.8203 60.9187 47.6591 60.9597 47.5454 60.9966C46.9943 61.176 42.1417 62.3897 35.8323 61.8587C35.136 62.6682 34.212 63.7273 33.5429 64.4484C33.3414 64.6655 33.1527 64.88 32.9723 65.0851C32.0619 66.1203 31.3632 66.9147 30.2976 66.5837C29.242 66.2569 29.301 64.6537 29.301 64.6537L29.3069 60.6939H29.2981C20.0726 58.0989 20.2077 48.5283 20.3121 43.4215C20.4166 38.3146 21.4067 34.1955 24.2212 31.3804C29.2774 26.7426 39.6493 27.3681 39.6493 27.3681ZM46.9797 58.1058C48.7196 57.701 53.5486 56.5774 54.4396 49.3827V49.3803C55.4622 41.1415 54.0637 35.5178 51.3188 33.1676C50.4921 32.4171 46.927 30.1767 39.4871 30.1442C39.4871 30.1442 30.677 29.5654 26.4003 33.4391C24.02 35.7892 23.2187 39.2835 23.1302 43.5489C23.1273 43.6898 23.124 43.8351 23.1206 43.9841C23.0207 48.3462 22.8447 56.0316 30.3908 58.1266C30.3908 58.1266 30.3601 64.1758 30.3566 64.7068C30.3542 65.0785 30.4132 65.3328 30.628 65.3854C30.7809 65.4243 31.0098 65.3452 31.2045 65.1493C32.4519 63.8967 36.4454 59.0789 36.4454 59.0789C41.8048 59.4288 46.0667 58.3685 46.5252 58.221C46.6326 58.1866 46.7872 58.1506 46.9797 58.1058Z" fill="#7360F2"/>
<path d="M123.859 37.1154L115.791 46.8255L125.144 57.8209H118.564L111.626 49.3126V57.8209H106.783V30.2373H111.626V44.3266L117.267 37.1154H123.859Z" fill="#7360F2"/>
<path fill-rule="evenodd" clip-rule="evenodd" d="M72.0103 49.8008V57.8331H67.0957V31.9512H75.2232C77.1143 31.9536 78.9558 32.5566 80.482 33.6733C82.0082 34.7901 83.1403 36.3628 83.7148 38.1645C84.2894 39.9663 84.2767 41.904 83.6787 43.6981C83.0807 45.4922 81.9283 47.05 80.3876 48.1467L87.6702 57.8331H81.5062L75.485 49.8008H72.0103ZM75.2232 36.8658H72.0103V44.8862H75.2232C76.2867 44.8862 77.3067 44.4637 78.0588 43.7116C78.8109 42.9596 79.2334 41.9395 79.2334 40.876C79.2334 39.8124 78.8109 38.7924 78.0588 38.0403C77.3067 37.2883 76.2867 36.8658 75.2232 36.8658Z" fill="#7360F2"/>
<path fill-rule="evenodd" clip-rule="evenodd" d="M99.4077 37.1152V38.0315C98.1146 37.1105 96.5685 36.6117 94.981 36.6035C89.6261 36.6035 85.5684 41.4824 85.5684 47.468C85.5684 53.4535 89.6261 58.3324 94.981 58.3324C96.5685 58.3242 98.1146 57.8254 99.4077 56.9044V57.8326H104.108V37.1152H99.4077ZM94.981 53.3464C92.3393 53.3464 90.4115 50.7523 90.4115 47.468C90.4115 44.1836 92.3393 41.6014 94.981 41.6014C97.6227 41.6014 99.4791 44.1955 99.4791 47.468C99.4791 50.7404 97.6584 53.3464 94.981 53.3464Z" fill="#7360F2"/>
<path d="M168.672 61.7119H92.3359L98.4167 67.7927L168.672 61.7119Z" fill="#7360F2"/>
<path d="M137.055 49.2291V37.1152H141.815V57.7851H137.055V57.0116C135.883 57.8246 134.494 58.2681 133.068 58.2848C128.07 58.2848 124.655 54.227 124.655 49.2291V37.1152H129.356V49.2291C129.304 49.7658 129.365 50.3074 129.535 50.8191C129.705 51.3308 129.98 51.8013 130.342 52.2004C130.705 52.5996 131.147 52.9185 131.64 53.1367C132.133 53.355 132.666 53.4677 133.205 53.4677C133.744 53.4677 134.278 53.355 134.771 53.1367C135.264 52.9185 135.706 52.5996 136.068 52.2004C136.431 51.8013 136.706 51.3308 136.875 50.8191C137.045 50.3074 137.106 49.7658 137.055 49.2291Z" fill="#7360F2"/>
<path d="M180.872 57.8326V45.6592C180.82 45.1225 180.881 44.581 181.051 44.0693C181.221 43.5576 181.496 43.0871 181.859 42.6879C182.221 42.2888 182.663 41.9699 183.156 41.7516C183.649 41.5334 184.183 41.4207 184.722 41.4207C185.261 41.4207 185.794 41.5334 186.287 41.7516C186.78 41.9699 187.222 42.2888 187.585 42.6879C187.947 43.0871 188.222 43.5576 188.392 44.0693C188.562 44.581 188.623 45.1225 188.571 45.6592V57.8326H193.272V45.6592C193.272 40.6613 189.856 36.6035 184.859 36.6035C183.431 36.6237 182.043 37.0714 180.872 37.8887V37.1152H176.112V57.8326H180.872Z" fill="#7360F2"/>
<path d="M154.429 52.9305C153.969 53.2524 153.421 53.4267 152.859 53.4303C152.544 53.4188 152.234 53.3429 151.95 53.2073C151.665 53.0717 151.411 52.8792 151.204 52.6417C150.996 52.4042 150.84 52.1268 150.744 51.8265C150.648 51.5261 150.614 51.2094 150.645 50.8956V42.0898H154.667V37.1752H150.645V32.0107H145.945V37.1752H143.458V42.0898H145.945V51.0265C145.912 51.9721 146.067 52.9148 146.401 53.8C146.735 54.6851 147.242 55.495 147.892 56.1826C148.542 56.8702 149.322 57.4217 150.187 57.8052C151.052 58.1886 151.984 58.3963 152.93 58.4162C154.551 58.3721 156.134 57.9221 157.535 57.1073L154.429 52.9305Z" fill="#7360F2"/>
<path fill-rule="evenodd" clip-rule="evenodd" d="M165.293 36.5918C159.855 36.5918 155.952 41.3517 155.952 47.4681C155.952 53.8821 160.843 58.3564 165.757 58.3564C167.425 58.3521 169.065 57.924 170.522 57.1122C171.979 56.3004 173.206 55.1316 174.087 53.7155L169.934 51.3356C166.721 56.0955 161.366 53.7155 160.748 48.9556H174.29C175.456 41.4826 170.636 36.5918 165.293 36.5918ZM169.399 44.8026H160.926C161.914 39.9475 168.482 39.7095 169.399 44.8026Z" fill="#7360F2"/>
<path d="M200.838 37.1871L208.406 56.0481C208.625 56.6733 208.998 57.2338 209.489 57.6784C209.947 58.0224 210.511 58.195 211.083 58.1663C211.696 58.1925 212.298 58.003 212.785 57.6308C213.322 57.1378 213.731 56.5209 213.975 55.834L221.305 37.318C221.424 37 221.519 36.6739 221.591 36.3422C221.651 36.0204 221.683 35.6939 221.686 35.3664C221.703 35.0169 221.646 34.6677 221.519 34.3417C221.392 34.0156 221.197 33.7201 220.948 33.4744C220.395 32.9864 219.674 32.7344 218.937 32.7723C218.324 32.7428 217.722 32.9518 217.259 33.3554C216.726 33.9372 216.343 34.6395 216.141 35.4021L211.179 49.0749L206.038 35.1998C205.817 34.5056 205.448 33.868 204.955 33.3316C204.545 32.9533 204.002 32.7523 203.444 32.7723C202.668 32.7536 201.916 33.0399 201.349 33.5696C201.078 33.8255 200.863 34.1358 200.72 34.4803C200.576 34.8248 200.507 35.1957 200.516 35.5687C200.514 35.8525 200.542 36.1357 200.6 36.4136C200.652 36.679 200.732 36.9382 200.838 37.1871Z" fill="#7360F2"/>
<path d="M228.361 54.406C228.428 55.3949 228.209 56.3822 227.73 57.2501C227.516 57.5571 227.226 57.8031 226.888 57.9638C226.55 58.1245 226.176 58.1943 225.802 58.1663C225.422 58.1909 225.041 58.1187 224.695 57.9564C224.35 57.7941 224.051 57.547 223.827 57.2382C223.338 56.3783 223.114 55.3928 223.184 54.406V43.9938C223.114 43.007 223.338 42.0215 223.827 41.1616C224.049 40.8516 224.348 40.6043 224.694 40.4438C225.04 40.2832 225.422 40.2149 225.802 40.2454C226.176 40.2174 226.55 40.2872 226.888 40.4479C227.226 40.6086 227.516 40.8546 227.73 41.1616C228.209 42.0251 228.428 43.0087 228.361 43.9938V54.406Z" fill="#7360F2"/>
<path fill-rule="evenodd" clip-rule="evenodd" d="M238.19 39.198C237.458 39.4653 236.784 39.8691 236.203 40.388L236.215 36.7824C236.291 35.7248 236.051 34.6686 235.525 33.748C235.274 33.4395 234.957 33.1909 234.598 33.0201C234.239 32.8493 233.846 32.7607 233.448 32.7607C233.05 32.7607 232.658 32.8493 232.298 33.0201C231.939 33.1909 231.623 33.4395 231.372 33.748C230.866 34.6758 230.635 35.7282 230.705 36.7824V54.2036C230.633 55.2541 230.865 56.3032 231.372 57.2261C231.607 57.5537 231.921 57.8161 232.285 57.9889C232.65 58.1616 233.052 58.239 233.454 58.2138C233.972 58.2202 234.479 58.0664 234.906 57.7735C235.402 57.4296 235.81 56.9728 236.096 56.4407C236.632 57.052 237.305 57.5289 238.059 57.833C238.855 58.1635 239.709 58.3295 240.57 58.3209C241.71 58.3202 242.835 58.0657 243.864 57.5758C244.894 57.086 245.801 56.373 246.52 55.4888C248.191 53.6212 249.089 51.1876 249.031 48.6821C249.116 46.1075 248.242 43.593 246.579 41.6256C245.854 40.7344 244.937 40.0181 243.896 39.5298C242.856 39.0416 241.719 38.794 240.57 38.8054C239.76 38.793 238.954 38.926 238.19 39.198ZM236.881 52.2282C236.101 51.1798 235.709 49.8924 235.774 48.5869C235.733 47.2992 236.122 46.0344 236.881 44.9932C237.214 44.5521 237.645 44.1942 238.139 43.9478C238.634 43.7014 239.179 43.5731 239.731 43.5731C240.284 43.5731 240.829 43.7014 241.323 43.9478C241.818 44.1942 242.248 44.5521 242.581 44.9932C243.356 46.0534 243.747 47.3463 243.688 48.6583C243.732 49.9409 243.337 51.2002 242.569 52.2282C242.236 52.6671 241.806 53.023 241.313 53.2679C240.819 53.5129 240.276 53.6404 239.725 53.6404C239.174 53.6404 238.631 53.5129 238.137 53.2679C237.644 53.023 237.214 52.6671 236.881 52.2282Z" fill="#7360F2"/>
<path fill-rule="evenodd" clip-rule="evenodd" d="M255.181 50.0984C255.381 51.0666 255.948 51.9197 256.764 52.4783C257.599 53.0924 258.62 53.3992 259.656 53.347C260.857 53.3046 262.035 53 263.106 52.4545C263.852 52.0435 264.654 51.7429 265.486 51.562C265.777 51.5479 266.067 51.5934 266.339 51.6958C266.611 51.7981 266.86 51.9551 267.069 52.157C267.274 52.3525 267.436 52.5894 267.542 52.852C267.649 53.1146 267.699 53.3969 267.688 53.6802C267.688 54.8702 266.867 55.9292 265.213 56.8693C263.435 57.8556 261.426 58.3486 259.394 58.2973C258.129 58.3285 256.872 58.0984 255.701 57.6213C254.53 57.1442 253.47 56.4304 252.587 55.5246C251.687 54.6082 250.981 53.519 250.513 52.3226C250.044 51.1263 249.823 49.8475 249.862 48.5633C249.822 47.2798 250.036 46.001 250.492 44.8003C250.947 43.5996 251.635 42.5006 252.516 41.5662C253.354 40.6935 254.357 39.9959 255.467 39.514C256.577 39.032 257.772 38.7753 258.982 38.7587C260.192 38.7421 261.393 38.9659 262.516 39.4172C263.638 39.8685 264.66 40.5383 265.522 41.3878C266.361 42.2354 267.021 43.2432 267.463 44.3513C267.905 45.4593 268.119 46.6449 268.092 47.8374C268.127 48.1501 268.095 48.4666 267.999 48.7661C267.903 49.0655 267.744 49.3412 267.533 49.5748C266.885 49.9715 266.123 50.143 265.367 50.0627L255.181 50.0984ZM254.955 46.8854H263.059C263.018 45.846 262.594 44.8584 261.869 44.1128C261.144 43.436 260.183 43.0688 259.191 43.0894C258.189 43.0694 257.213 43.4116 256.443 44.0533C255.665 44.8061 255.145 45.7845 254.955 46.8497V46.8854Z" fill="#7360F2"/>
<path d="M269.595 43.0654V54.1321C269.534 55.1891 269.786 56.2405 270.321 57.1547C270.549 57.4863 270.86 57.7522 271.224 57.9255C271.587 58.0989 271.99 58.1736 272.391 58.1423C272.793 58.1676 273.196 58.0902 273.56 57.9174C273.924 57.7446 274.238 57.4822 274.474 57.1547C274.991 56.2355 275.227 55.1843 275.152 54.1321V48.4083C275.093 47.6615 275.211 46.9113 275.497 46.2188C275.834 45.7179 276.315 45.3318 276.877 45.1121C277.234 44.9455 277.782 44.7313 278.508 44.4695C280.53 43.7318 281.542 42.8036 281.542 41.7088C281.545 41.3482 281.474 40.9909 281.333 40.6592C281.191 40.3275 280.983 40.0285 280.721 39.781C280.463 39.5207 280.155 39.3149 279.815 39.1759C279.476 39.0369 279.112 38.9675 278.746 38.9719C278.074 38.9769 277.414 39.14 276.818 39.4479C276.137 39.7956 275.524 40.2632 275.009 40.8282C274.725 40.2981 274.317 39.8448 273.819 39.5074C273.382 39.2188 272.867 39.0695 272.343 39.079C271.943 39.0476 271.542 39.1211 271.179 39.2922C270.816 39.4633 270.503 39.7261 270.273 40.0547C269.756 40.9697 269.52 42.017 269.595 43.0654Z" fill="#7360F2"/>
<path d="M223.019 35.6397C223.014 35.2598 223.088 34.883 223.235 34.5329C223.383 34.1828 223.601 33.8668 223.876 33.6048C224.142 33.3332 224.461 33.1183 224.813 32.9731C225.165 32.8279 225.542 32.7554 225.923 32.76C226.298 32.7554 226.67 32.828 227.016 32.9734C227.362 33.1187 227.674 33.3337 227.934 33.6048C228.205 33.8691 228.42 34.1858 228.565 34.5356C228.71 34.8853 228.783 35.261 228.778 35.6397C228.78 36.0152 228.707 36.3873 228.564 36.7345C228.421 37.0817 228.211 37.3971 227.945 37.6627C227.68 37.9282 227.365 38.1385 227.017 38.2814C226.67 38.4244 226.298 38.4972 225.923 38.4956C225.54 38.5069 225.16 38.4387 224.806 38.2953C224.451 38.1519 224.131 37.9365 223.864 37.6627C223.591 37.4023 223.374 37.0881 223.229 36.7399C223.084 36.3917 223.012 36.017 223.019 35.6397Z" fill="#7360F2"/>
</svg>
