<svg width="300" height="100" viewBox="0 0 300 100" fill="none" xmlns="http://www.w3.org/2000/svg">
<path d="M119.918 28.7366C119.861 30.1503 119.151 31.507 117.787 32.8064C116.254 34.275 114.437 35.0095 112.336 35.0095C109.1 35.0095 107.537 33.598 107.651 30.7727C107.706 29.3041 108.572 27.8904 110.248 26.5337C111.923 25.1795 113.782 24.5 115.828 24.5C117.021 24.5 118.014 24.968 118.81 25.899C119.604 26.8322 119.973 27.7782 119.918 28.7366Z" fill="#17B7EA"/>
<path fill-rule="evenodd" clip-rule="evenodd" d="M121.749 66.3027C121.431 66.6049 121.105 66.903 120.769 67.197C116.963 70.4877 113.16 72.1331 109.357 72.1331C107.594 72.1331 106.245 71.5657 105.309 70.4302C104.373 69.2953 103.933 67.8218 103.99 66.0046C104.045 64.1329 104.627 61.238 105.735 57.3222C106.842 53.4068 107.397 51.3062 107.397 51.0222C107.397 49.5485 106.885 48.8093 105.864 48.8093C105.542 48.8093 104.665 49.3411 103.231 50.4005C102.15 53.6259 99.7982 57.5708 96.1745 62.2345C91.0169 68.9401 86.6535 72.2933 83.0841 72.2933C80.8737 72.2933 79.0019 70.252 77.4735 66.1672L74.4118 54.9362C73.2767 50.8536 72.0595 48.8101 70.7578 48.8101C70.4741 48.8101 69.4808 49.4076 67.7807 50.5976L65.9961 48.2974C67.8679 46.652 69.7147 45.0066 71.5319 43.3588C74.0284 41.2006 75.9029 40.0657 77.1524 39.9512C80.1045 39.6674 81.9217 41.6861 82.6037 46.0074C83.3404 50.6696 83.8507 53.5694 84.1369 54.7046C84.9882 58.5725 85.9241 60.5046 86.9473 60.5046C87.7412 60.5046 88.9335 59.2497 90.5243 56.7409C92.1121 54.2317 92.9635 52.3226 93.0778 51.0107C93.3045 48.845 92.4532 47.7596 90.5243 47.7596C89.6155 47.7596 88.6795 47.9688 87.7165 48.382C89.5808 42.2735 93.1427 39.3064 98.3997 39.4756C101.911 39.5788 103.75 41.6409 103.917 45.6622C104.764 44.8945 105.612 44.1265 106.459 43.3579C108.901 41.1998 110.718 40.0649 111.913 39.9503C113.785 39.7811 115.161 40.3312 116.042 41.6058C116.921 42.8801 117.247 44.5329 117.023 46.5692C116.284 50.0218 115.487 54.405 114.636 59.7218C114.579 62.1563 115.46 63.3709 117.277 63.3709C118.071 63.3709 119.49 62.5323 121.536 60.8497L121.609 60.7892C121.74 59.603 121.95 58.1933 122.24 56.5608C122.708 53.9271 122.969 51.8762 123.024 50.4027C123.136 49.3846 122.88 48.8742 122.257 48.8742C121.916 48.8742 120.95 49.4491 119.36 50.597L117.316 48.2967C117.6 48.0727 119.387 46.4249 122.683 43.3581C125.067 41.1454 126.685 40.0103 127.537 39.953C129.013 39.8386 130.205 40.4483 131.114 41.7826C132.022 43.1169 132.478 44.6649 132.478 46.4249C132.478 46.9924 132.42 47.5325 132.308 48.0429C133.16 46.7386 134.153 45.6011 135.29 44.6351C137.902 42.3651 140.826 41.0854 144.062 40.8017C146.845 40.5754 148.832 41.2275 150.027 42.7608C150.99 44.0103 151.443 45.8002 151.388 48.1275C151.787 47.7891 152.212 47.4181 152.668 47.0199C153.972 45.4865 155.249 44.267 156.498 43.3581C158.599 41.8249 160.787 40.9735 163.057 40.8017C165.783 40.5754 167.742 41.2251 168.934 42.7532C169.954 43.998 170.41 45.7803 170.298 48.0976C170.241 49.6832 169.858 51.9885 169.148 55.0152C168.436 58.0419 168.083 59.7795 168.083 60.2325C168.026 61.4222 168.14 62.2413 168.424 62.6943C168.708 63.1473 169.387 63.3711 170.468 63.3711C170.953 63.3711 171.671 63.0579 172.624 62.4303C172.534 61.7152 172.497 60.9717 172.512 60.1998C172.567 55.6025 174.613 51.2314 178.645 47.0842C183.074 42.5442 188.298 40.2715 194.317 40.2715C199.883 40.2715 202.835 42.539 203.176 47.0694C203.402 49.9567 201.812 52.9312 198.407 55.9908C194.77 59.3339 190.198 61.4569 184.692 62.3629C185.712 63.7791 187.245 64.4863 189.291 64.4863C193.379 64.4863 197.837 63.4483 202.665 61.3672C202.879 61.2771 203.09 61.1867 203.298 61.0961C203.26 60.7495 203.231 60.3962 203.213 60.0363C202.926 55.1597 204.686 50.6792 208.494 46.5968C212.582 42.0615 217.719 39.7939 223.91 39.7939C227.883 39.7939 230.891 41.1282 232.938 43.7917C234.868 46.2311 235.747 49.3773 235.579 53.2307C235.351 58.448 233.421 62.956 229.786 66.7541C226.152 70.5529 221.637 72.4521 216.243 72.4521C211.758 72.4521 208.35 71.0059 206.023 68.1135C205.499 67.4508 205.047 66.737 204.668 65.9721C204.059 66.3497 203.42 66.7273 202.75 67.105C196.731 70.5647 190.626 72.2925 184.438 72.2925C179.838 72.2925 176.542 70.759 174.556 67.6949C174.41 67.4794 174.272 67.2597 174.142 67.0359C174.082 67.0898 174.021 67.1435 173.96 67.1972C170.154 70.4879 166.35 72.1333 162.547 72.1333C158.853 72.1333 157.066 70.092 157.18 66.0048C157.235 64.1877 157.591 62.0048 158.243 59.4508C158.895 56.897 159.251 54.9105 159.308 53.4918C159.366 51.336 158.711 50.2559 157.342 50.2559C155.861 50.2559 154.096 52.0181 152.045 55.5376C149.88 59.2292 148.71 62.8062 148.54 66.2686C148.426 68.713 148.665 70.5875 149.257 71.8918C145.295 72.0064 142.519 71.3518 140.936 69.9329C139.517 68.6832 138.867 66.6124 138.982 63.7148C139.036 61.8978 139.315 60.0807 139.818 58.2637C140.319 56.4466 140.597 54.8286 140.654 53.407C140.769 51.3064 140 50.2559 138.352 50.2559C136.928 50.2559 135.393 51.8762 133.745 55.1121C132.097 58.3481 131.186 61.7284 131.016 65.2483C130.902 68.4294 131.106 70.6423 131.626 71.8918C127.728 72.0064 124.96 71.1846 123.322 69.4274C122.574 68.6176 122.05 67.5762 121.749 66.3027ZM193.125 50.0464C193.179 48.523 192.557 47.7588 191.253 47.7588C189.55 47.7588 187.823 48.9314 186.065 51.2762C184.308 53.6208 183.4 55.8662 183.345 58.0117C183.312 58.0117 183.312 58.3801 183.345 59.1144C186.122 58.0988 188.532 56.5458 190.573 54.4547C192.216 52.6477 193.067 51.1766 193.125 50.0464ZM225.314 48.6853C225.797 49.9648 226.01 51.3738 225.953 52.9096C225.84 55.6402 225.016 58.2564 223.484 60.7603C221.667 63.7773 219.479 65.2831 216.925 65.2831C215.788 65.2831 214.907 64.6584 214.284 63.4063C213.717 62.3262 213.461 61.074 213.518 59.6502C213.63 56.7502 214.481 54.0198 216.074 51.4584C217.946 48.3295 220.33 46.7636 223.228 46.7636C224.134 46.7636 224.83 47.4059 225.314 48.6853Z" fill="#17B7EA"/>
</svg>
