<svg width="90" height="90" viewBox="0 0 90 90" fill="none" xmlns="http://www.w3.org/2000/svg">
<path d="M85.0001 77.0001C85.0001 81.4181 81.4181 85.0001 77.0001 85.0001H13C8.58134 85.0001 5 81.4181 5 77.0001V13C5 8.582 8.58134 5 13 5H77.0001C81.4181 5 85.0001 8.582 85.0001 13V77.0001Z" fill="#17B7EA"/>
<path d="M72.316 31.5671C72.0586 37.1937 68.1286 44.8984 60.5253 54.6784C52.6653 64.8918 46.0146 69.9998 40.5759 69.9998C37.2053 69.9998 34.3533 66.8911 32.0239 60.6691C30.4686 54.9658 28.9146 49.2631 27.3579 43.5597C25.6279 37.3417 23.7726 34.2284 21.7879 34.2284C21.3553 34.2284 19.8419 35.1384 17.2506 36.9511L14.5312 33.4484C17.3846 30.9417 20.1986 28.4357 22.9673 25.9251C26.7726 22.6384 29.6313 20.9091 31.5353 20.7344C36.0333 20.3017 38.8026 23.3771 39.8419 29.9591C40.9653 37.0611 41.7433 41.4784 42.1793 43.2064C43.4779 49.0998 44.9053 52.0431 46.4626 52.0431C47.6713 52.0431 49.4899 50.1318 51.9146 46.3078C54.334 42.4871 55.6306 39.5791 55.806 37.5804C56.152 34.2817 54.854 32.6291 51.9146 32.6291C50.5299 32.6291 49.1026 32.9471 47.6346 33.5764C50.4766 24.2717 55.9053 19.7531 63.9166 20.0104C69.8573 20.1851 72.6593 24.0371 72.316 31.5671Z" fill="white"/>
</svg>
