<svg width="360" height="100" viewBox="0 0 360 100" fill="none" xmlns="http://www.w3.org/2000/svg">
<path d="M102.201 38.0908L92.4778 62.0002H89.2977L79.5742 38.0908H82.4047C82.7155 38.0908 82.9652 38.1685 83.1539 38.3239C83.3537 38.4793 83.5036 38.6791 83.6035 38.9233L90.0636 55.1737C90.219 55.5733 90.3689 56.0118 90.5132 56.4891C90.6686 56.9664 90.8073 57.4659 90.9294 57.9876C91.0404 57.4659 91.1625 56.9664 91.2957 56.4891C91.4289 56.0118 91.5732 55.5733 91.7286 55.1737L98.1721 38.9233C98.2498 38.7013 98.3885 38.5071 98.5883 38.3406C98.7992 38.1741 99.0545 38.0908 99.3542 38.0908H102.201Z" fill="#000008"/>
<path d="M106.4 45.0838V62.0002H103.153V45.0838H106.4ZM107.016 39.8557C107.016 40.1554 106.955 40.444 106.833 40.7215C106.711 40.9879 106.544 41.2266 106.333 41.4375C106.134 41.6373 105.895 41.7982 105.617 41.9203C105.34 42.0313 105.051 42.0868 104.752 42.0868C104.452 42.0868 104.169 42.0313 103.903 41.9203C103.636 41.7982 103.398 41.6373 103.187 41.4375C102.987 41.2266 102.826 40.9879 102.704 40.7215C102.593 40.444 102.537 40.1554 102.537 39.8557C102.537 39.5449 102.593 39.2563 102.704 38.9899C102.826 38.7124 102.987 38.4738 103.187 38.274C103.398 38.0631 103.636 37.9021 103.903 37.7911C104.169 37.669 104.452 37.608 104.752 37.608C105.051 37.608 105.34 37.669 105.617 37.7911C105.895 37.9021 106.134 38.0631 106.333 38.274C106.544 38.4738 106.711 38.7124 106.833 38.9899C106.955 39.2563 107.016 39.5449 107.016 39.8557Z" fill="#000008"/>
<path d="M119.821 47.9976C119.732 48.1419 119.638 48.2473 119.538 48.3139C119.438 48.3694 119.31 48.3972 119.155 48.3972C118.977 48.3972 118.778 48.3361 118.556 48.214C118.345 48.0919 118.084 47.9587 117.773 47.8144C117.473 47.6701 117.118 47.5369 116.707 47.4148C116.297 47.2927 115.808 47.2317 115.242 47.2317C114.776 47.2317 114.349 47.2927 113.96 47.4148C113.583 47.5258 113.261 47.6868 112.994 47.8977C112.728 48.0975 112.523 48.3417 112.378 48.6303C112.234 48.9078 112.162 49.2075 112.162 49.5294C112.162 49.9512 112.284 50.3008 112.528 50.5783C112.784 50.8558 113.111 51.0945 113.511 51.2943C113.921 51.4941 114.382 51.6772 114.893 51.8437C115.414 51.9991 115.941 52.1656 116.474 52.3432C117.018 52.5208 117.545 52.7262 118.056 52.9593C118.578 53.1813 119.038 53.4643 119.438 53.8084C119.849 54.1414 120.176 54.5466 120.42 55.0239C120.676 55.5012 120.803 56.0839 120.803 56.7721C120.803 57.5602 120.659 58.2928 120.37 58.9699C120.093 59.6359 119.677 60.2131 119.122 60.7015C118.578 61.1899 117.901 61.5729 117.09 61.8504C116.28 62.1279 115.353 62.2666 114.31 62.2666C113.144 62.2666 112.068 62.0724 111.08 61.6839C110.092 61.2954 109.265 60.8014 108.599 60.202L109.365 58.9533C109.454 58.7979 109.565 58.6813 109.698 58.6036C109.831 58.5148 110.009 58.4704 110.231 58.4704C110.441 58.4704 110.658 58.5481 110.88 58.7035C111.102 58.8589 111.368 59.031 111.679 59.2197C111.99 59.3973 112.367 59.5638 112.811 59.7192C113.255 59.8635 113.81 59.9356 114.476 59.9356C115.031 59.9356 115.514 59.869 115.925 59.7358C116.336 59.5915 116.674 59.4028 116.94 59.1697C117.218 58.9255 117.423 58.648 117.557 58.3372C117.69 58.0264 117.756 57.699 117.756 57.3549C117.756 56.9109 117.629 56.5446 117.373 56.256C117.129 55.9563 116.802 55.701 116.391 55.4901C115.991 55.2792 115.531 55.096 115.009 54.9406C114.487 54.7852 113.955 54.6187 113.411 54.4411C112.867 54.2635 112.334 54.0582 111.812 53.8251C111.291 53.592 110.824 53.2978 110.414 52.9426C110.014 52.5874 109.687 52.1545 109.431 51.6439C109.187 51.1333 109.065 50.5117 109.065 49.7791C109.065 49.1242 109.198 48.4971 109.465 47.8977C109.742 47.2983 110.136 46.771 110.647 46.3159C111.169 45.8608 111.807 45.5001 112.562 45.2337C113.327 44.9562 114.199 44.8174 115.176 44.8174C116.297 44.8174 117.307 44.995 118.206 45.3502C119.116 45.7054 119.893 46.1938 120.537 46.8154L119.821 47.9976Z" fill="#000008"/>
<path d="M136.599 45.0838V62.0002H134.651C134.207 62.0002 133.918 61.7838 133.785 61.3509L133.552 59.6526C133.185 60.0411 132.802 60.3963 132.403 60.7182C132.003 61.0401 131.576 61.3176 131.121 61.5507C130.666 61.7727 130.183 61.9447 129.672 62.0668C129.162 62.2 128.612 62.2666 128.024 62.2666C127.092 62.2666 126.27 62.1112 125.56 61.8004C124.86 61.4896 124.272 61.0567 123.795 60.5017C123.318 59.9356 122.957 59.2585 122.713 58.4704C122.468 57.6823 122.346 56.811 122.346 55.8564V45.0838H125.61V55.8564C125.61 57.0663 125.887 58.0098 126.442 58.6869C126.997 59.3529 127.846 59.6859 128.99 59.6859C129.822 59.6859 130.599 59.4916 131.321 59.1031C132.042 58.7035 132.719 58.1596 133.352 57.4714V45.0838H136.599Z" fill="#000008"/>
<path d="M149.418 54.4911C148.097 54.5355 146.976 54.6409 146.055 54.8074C145.134 54.9628 144.385 55.1737 143.807 55.4401C143.23 55.7065 142.814 56.0229 142.559 56.3892C142.303 56.7444 142.176 57.144 142.176 57.588C142.176 58.0098 142.242 58.3761 142.375 58.6869C142.52 58.9866 142.708 59.2363 142.942 59.4361C143.186 59.6248 143.469 59.7636 143.791 59.8524C144.113 59.9412 144.462 59.9856 144.84 59.9856C145.339 59.9856 145.794 59.9356 146.205 59.8357C146.627 59.7358 147.021 59.5971 147.387 59.4195C147.753 59.2308 148.103 59.0032 148.436 58.7368C148.769 58.4704 149.096 58.1652 149.418 57.8211V54.4911ZM139.895 47.4481C140.838 46.549 141.859 45.8775 142.958 45.4335C144.068 44.9895 145.284 44.7675 146.605 44.7675C147.57 44.7675 148.425 44.9284 149.169 45.2503C149.912 45.5611 150.539 45.9996 151.05 46.5657C151.561 47.1318 151.944 47.8089 152.199 48.597C152.465 49.3851 152.598 50.2564 152.598 51.211V62.0002H151.15C150.828 62.0002 150.584 61.9503 150.417 61.8504C150.251 61.7394 150.118 61.5396 150.018 61.251L149.668 59.7691C149.235 60.1687 148.808 60.5239 148.386 60.8347C147.964 61.1344 147.52 61.3953 147.054 61.6173C146.599 61.8282 146.111 61.9891 145.589 62.1001C145.067 62.2111 144.49 62.2666 143.857 62.2666C143.191 62.2666 142.564 62.1778 141.976 62.0002C141.399 61.8115 140.894 61.5285 140.461 61.1511C140.028 60.7737 139.684 60.3019 139.428 59.7358C139.184 59.1697 139.062 58.5093 139.062 57.7545C139.062 57.0885 139.24 56.4502 139.595 55.8397C139.961 55.2181 140.55 54.6631 141.36 54.1747C142.181 53.6863 143.247 53.2867 144.557 52.9759C145.877 52.6651 147.498 52.4875 149.418 52.4431V51.211C149.418 49.9345 149.146 48.9799 148.603 48.3472C148.059 47.7145 147.259 47.3982 146.205 47.3982C145.495 47.3982 144.895 47.487 144.407 47.6646C143.929 47.8422 143.513 48.042 143.158 48.264C142.814 48.4749 142.509 48.6691 142.242 48.8467C141.987 49.0243 141.721 49.1131 141.443 49.1131C141.221 49.1131 141.027 49.0521 140.86 48.93C140.705 48.8079 140.577 48.6636 140.477 48.4971L139.895 47.4481Z" fill="#000008"/>
<path d="M159.062 37.4248V62.0002H155.798V37.4248H159.062Z" fill="#000008"/>
<path d="M183.701 41.9869C183.59 42.1756 183.473 42.3144 183.351 42.4032C183.229 42.492 183.073 42.5364 182.885 42.5364C182.685 42.5364 182.457 42.4476 182.202 42.27C181.947 42.0813 181.625 41.8759 181.236 41.6539C180.859 41.4208 180.404 41.2155 179.871 41.0379C179.338 40.8492 178.7 40.7548 177.956 40.7548C177.257 40.7548 176.641 40.8492 176.108 41.0379C175.586 41.2155 175.148 41.4652 174.793 41.7871C174.438 42.0979 174.166 42.4698 173.977 42.9027C173.799 43.3245 173.711 43.7851 173.711 44.2846C173.711 44.9284 173.872 45.4612 174.193 45.883C174.526 46.3048 174.959 46.6656 175.492 46.9653C176.025 47.265 176.63 47.5258 177.307 47.7478C177.984 47.9698 178.678 48.2029 179.388 48.4471C180.099 48.6802 180.792 48.9522 181.469 49.263C182.147 49.5738 182.752 49.9678 183.284 50.4451C183.817 50.9113 184.244 51.4885 184.566 52.1767C184.899 52.8538 185.066 53.6863 185.066 54.6742C185.066 55.7287 184.883 56.7166 184.516 57.6379C184.161 58.5592 183.64 59.364 182.951 60.0522C182.263 60.7404 181.414 61.2843 180.404 61.6839C179.405 62.0724 178.267 62.2666 176.991 62.2666C176.225 62.2666 175.481 62.1889 174.76 62.0335C174.038 61.8892 173.355 61.6839 172.712 61.4175C172.068 61.14 171.463 60.8125 170.897 60.4351C170.342 60.0466 169.842 59.6137 169.398 59.1364L170.414 57.4381C170.514 57.3049 170.63 57.1939 170.764 57.1051C170.908 57.0163 171.069 56.9719 171.246 56.9719C171.48 56.9719 171.746 57.094 172.046 57.3382C172.356 57.5824 172.734 57.8544 173.178 58.1541C173.633 58.4427 174.171 58.7091 174.793 58.9533C175.426 59.1975 176.191 59.3196 177.091 59.3196C177.823 59.3196 178.478 59.2252 179.055 59.0365C179.632 58.8367 180.115 58.5592 180.504 58.204C180.903 57.8377 181.209 57.3993 181.419 56.8887C181.63 56.3781 181.736 55.812 181.736 55.1904C181.736 54.4911 181.575 53.9194 181.253 53.4754C180.931 53.0314 180.504 52.6596 179.971 52.3599C179.438 52.0602 178.833 51.8049 178.156 51.594C177.479 51.3831 176.785 51.1666 176.075 50.9446C175.364 50.7115 174.671 50.4451 173.994 50.1454C173.317 49.8457 172.712 49.4572 172.179 48.9799C171.646 48.4915 171.219 47.8866 170.897 47.1651C170.575 46.4325 170.414 45.5334 170.414 44.4678C170.414 43.6131 170.58 42.7861 170.913 41.9869C171.246 41.1877 171.729 40.4829 172.362 39.8724C173.006 39.2508 173.794 38.7568 174.726 38.3905C175.659 38.0131 176.724 37.8244 177.923 37.8244C179.266 37.8244 180.498 38.0409 181.619 38.4738C182.752 38.8956 183.734 39.5061 184.566 40.3053L183.701 41.9869Z" fill="#000008"/>
<path d="M192.291 62.2666C190.926 62.2666 189.871 61.8837 189.128 61.1178C188.395 60.3519 188.029 59.2585 188.029 57.8377V47.7145H186.064C185.875 47.7145 185.714 47.659 185.581 47.548C185.459 47.4259 185.398 47.2483 185.398 47.0152V45.6999L188.145 45.3169L188.878 40.272C188.922 40.0833 189.006 39.939 189.128 39.8391C189.261 39.7281 189.427 39.6726 189.627 39.6726H191.275V45.3502H196.071V47.7145H191.275V57.6213C191.275 58.2873 191.436 58.7868 191.758 59.1198C192.091 59.4417 192.513 59.6026 193.024 59.6026C193.323 59.6026 193.579 59.5638 193.79 59.4861C194.012 59.4084 194.2 59.3251 194.356 59.2363C194.511 59.1364 194.644 59.0476 194.755 58.9699C194.866 58.8922 194.966 58.8534 195.055 58.8534C195.166 58.8534 195.249 58.8811 195.305 58.9366C195.371 58.981 195.438 59.0587 195.505 59.1697L196.47 60.7348C195.937 61.2232 195.305 61.6006 194.572 61.867C193.84 62.1334 193.079 62.2666 192.291 62.2666Z" fill="#000008"/>
<path d="M211.798 45.0838V62.0002H209.85C209.406 62.0002 209.117 61.7838 208.984 61.3509L208.751 59.6526C208.385 60.0411 208.002 60.3963 207.602 60.7182C207.202 61.0401 206.775 61.3176 206.32 61.5507C205.865 61.7727 205.382 61.9447 204.872 62.0668C204.361 62.2 203.811 62.2666 203.223 62.2666C202.291 62.2666 201.469 62.1112 200.759 61.8004C200.06 61.4896 199.471 61.0567 198.994 60.5017C198.517 59.9356 198.156 59.2585 197.912 58.4704C197.668 57.6823 197.546 56.811 197.546 55.8564V45.0838H200.809V55.8564C200.809 57.0663 201.086 58.0098 201.641 58.6869C202.196 59.3529 203.046 59.6859 204.189 59.6859C205.021 59.6859 205.798 59.4916 206.52 59.1031C207.241 58.7035 207.918 58.1596 208.551 57.4714V45.0838H211.798Z" fill="#000008"/>
<path d="M226.134 49.1797C225.602 48.4804 225.024 47.992 224.403 47.7145C223.792 47.437 223.104 47.2983 222.338 47.2983C220.851 47.2983 219.696 47.8366 218.875 48.9133C218.065 49.9789 217.66 51.5385 217.66 53.592C217.66 54.6687 217.748 55.59 217.926 56.3559C218.115 57.1107 218.381 57.7323 218.725 58.2207C219.08 58.698 219.513 59.0532 220.024 59.2863C220.534 59.5083 221.112 59.6193 221.755 59.6193C222.699 59.6193 223.515 59.4084 224.203 58.9866C224.891 58.5648 225.535 57.9709 226.134 57.205V49.1797ZM229.398 37.4248V62.0002H227.433C226.978 62.0002 226.695 61.7838 226.584 61.3509L226.301 59.4028C225.579 60.2575 224.758 60.9457 223.837 61.4674C222.926 61.978 221.872 62.2333 220.673 62.2333C219.707 62.2333 218.831 62.0446 218.042 61.6672C217.265 61.2898 216.6 60.7404 216.044 60.0189C215.49 59.2863 215.062 58.3816 214.762 57.3049C214.463 56.2282 214.313 54.9906 214.313 53.592C214.313 52.3377 214.479 51.1722 214.812 50.0955C215.145 49.0188 215.628 48.0864 216.261 47.2983C216.894 46.5102 217.66 45.8941 218.559 45.4501C219.458 44.995 220.473 44.7675 221.606 44.7675C222.627 44.7675 223.493 44.934 224.203 45.267C224.924 45.6 225.568 46.0717 226.134 46.6822V37.4248H229.398Z" fill="#000008"/>
<path d="M237.316 45.0838V62.0002H234.069V45.0838H237.316ZM237.932 39.8557C237.932 40.1554 237.871 40.444 237.749 40.7215C237.627 40.9879 237.46 41.2266 237.249 41.4375C237.049 41.6373 236.811 41.7982 236.533 41.9203C236.256 42.0313 235.967 42.0868 235.668 42.0868C235.368 42.0868 235.085 42.0313 234.818 41.9203C234.552 41.7982 234.313 41.6373 234.102 41.4375C233.903 41.2266 233.742 40.9879 233.62 40.7215C233.509 40.444 233.453 40.1554 233.453 39.8557C233.453 39.5449 233.509 39.2563 233.62 38.9899C233.742 38.7124 233.903 38.4738 234.102 38.274C234.313 38.0631 234.552 37.9021 234.818 37.7911C235.085 37.669 235.368 37.608 235.668 37.608C235.967 37.608 236.256 37.669 236.533 37.7911C236.811 37.9021 237.049 38.0631 237.249 38.274C237.46 38.4738 237.627 38.7124 237.749 38.9899C237.871 39.2563 237.932 39.5449 237.932 39.8557Z" fill="#000008"/>
<path d="M248.227 44.8174C249.47 44.8174 250.591 45.0228 251.59 45.4335C252.6 45.8331 253.455 46.4158 254.154 47.1817C254.865 47.9365 255.409 48.8523 255.786 49.929C256.163 50.9946 256.352 52.1934 256.352 53.5254C256.352 54.8574 256.163 56.0617 255.786 57.1384C255.409 58.2151 254.865 59.1309 254.154 59.8857C253.455 60.6405 252.6 61.2232 251.59 61.6339C250.591 62.0335 249.47 62.2333 248.227 62.2333C246.973 62.2333 245.84 62.0335 244.83 61.6339C243.831 61.2232 242.977 60.6405 242.266 59.8857C241.556 59.1309 241.006 58.2151 240.618 57.1384C240.241 56.0617 240.052 54.8574 240.052 53.5254C240.052 52.1934 240.241 50.9946 240.618 49.929C241.006 48.8523 241.556 47.9365 242.266 47.1817C242.977 46.4158 243.831 45.8331 244.83 45.4335C245.84 45.0228 246.973 44.8174 248.227 44.8174ZM248.227 59.7025C249.825 59.7025 251.019 59.1642 251.807 58.0875C252.595 57.0108 252.989 55.4956 252.989 53.542C252.989 51.5884 252.595 50.0733 251.807 48.9966C251.019 47.9088 249.825 47.3649 248.227 47.3649C246.606 47.3649 245.396 47.9088 244.597 48.9966C243.809 50.0733 243.415 51.5884 243.415 53.542C243.415 55.4956 243.809 57.0108 244.597 58.0875C245.396 59.1642 246.606 59.7025 248.227 59.7025Z" fill="#000008"/>
<path d="M283.767 56.872C283.966 56.872 284.138 56.9497 284.283 57.1051L285.681 58.6369C284.704 59.7913 283.511 60.6849 282.102 61.3176C280.703 61.9503 279.016 62.2666 277.04 62.2666C275.308 62.2666 273.738 61.9669 272.328 61.3675C270.93 60.7681 269.731 59.9301 268.732 58.8534C267.744 57.7767 266.978 56.4891 266.434 54.9906C265.89 53.4921 265.618 51.8437 265.618 50.0455C265.618 48.2473 265.901 46.599 266.467 45.1005C267.045 43.602 267.849 42.3144 268.882 41.2377C269.914 40.161 271.146 39.3229 272.578 38.7235C274.021 38.1241 275.614 37.8244 277.356 37.8244C279.055 37.8244 280.564 38.1019 281.885 38.6569C283.206 39.2119 284.355 39.9501 285.331 40.8714L284.166 42.5197C284.088 42.6418 283.989 42.7417 283.866 42.8194C283.755 42.8971 283.606 42.936 283.417 42.936C283.206 42.936 282.956 42.8305 282.668 42.6196C282.39 42.4087 282.018 42.1756 281.552 41.9203C281.097 41.6539 280.531 41.4153 279.854 41.2044C279.177 40.9935 278.333 40.888 277.323 40.888C276.135 40.888 275.048 41.0989 274.06 41.5207C273.072 41.9314 272.217 42.5308 271.496 43.3189C270.785 44.0959 270.23 45.0561 269.831 46.1994C269.442 47.3316 269.248 48.6136 269.248 50.0455C269.248 51.4996 269.453 52.7928 269.864 53.925C270.275 55.0572 270.841 56.0173 271.562 56.8054C272.284 57.5935 273.133 58.1929 274.11 58.6036C275.086 59.0143 276.141 59.2197 277.273 59.2197C277.961 59.2197 278.577 59.1808 279.121 59.1031C279.676 59.0143 280.181 58.8867 280.636 58.7202C281.103 58.5537 281.541 58.3428 281.952 58.0875C282.362 57.8211 282.768 57.5047 283.167 57.1384C283.256 57.0607 283.35 56.9997 283.45 56.9553C283.55 56.8998 283.656 56.872 283.767 56.872Z" fill="#000008"/>
<path d="M293.572 44.8174C294.815 44.8174 295.936 45.0228 296.935 45.4335C297.945 45.8331 298.8 46.4158 299.499 47.1817C300.21 47.9365 300.754 48.8523 301.131 49.929C301.509 50.9946 301.697 52.1934 301.697 53.5254C301.697 54.8574 301.509 56.0617 301.131 57.1384C300.754 58.2151 300.21 59.1309 299.499 59.8857C298.8 60.6405 297.945 61.2232 296.935 61.6339C295.936 62.0335 294.815 62.2333 293.572 62.2333C292.318 62.2333 291.186 62.0335 290.176 61.6339C289.177 61.2232 288.322 60.6405 287.612 59.8857C286.901 59.1309 286.352 58.2151 285.963 57.1384C285.586 56.0617 285.397 54.8574 285.397 53.5254C285.397 52.1934 285.586 50.9946 285.963 49.929C286.352 48.8523 286.901 47.9365 287.612 47.1817C288.322 46.4158 289.177 45.8331 290.176 45.4335C291.186 45.0228 292.318 44.8174 293.572 44.8174ZM293.572 59.7025C295.171 59.7025 296.364 59.1642 297.152 58.0875C297.94 57.0108 298.334 55.4956 298.334 53.542C298.334 51.5884 297.94 50.0733 297.152 48.9966C296.364 47.9088 295.171 47.3649 293.572 47.3649C291.952 47.3649 290.742 47.9088 289.942 48.9966C289.154 50.0733 288.76 51.5884 288.76 53.542C288.76 55.4956 289.154 57.0108 289.942 58.0875C290.742 59.1642 291.952 59.7025 293.572 59.7025Z" fill="#000008"/>
<path d="M315.078 49.1797C314.546 48.4804 313.968 47.992 313.347 47.7145C312.736 47.437 312.048 47.2983 311.282 47.2983C309.795 47.2983 308.64 47.8366 307.819 48.9133C307.009 49.9789 306.604 51.5385 306.604 53.592C306.604 54.6687 306.692 55.59 306.87 56.3559C307.059 57.1107 307.325 57.7323 307.669 58.2207C308.024 58.698 308.457 59.0532 308.968 59.2863C309.478 59.5083 310.056 59.6193 310.699 59.6193C311.643 59.6193 312.459 59.4084 313.147 58.9866C313.835 58.5648 314.479 57.9709 315.078 57.205V49.1797ZM318.342 37.4248V62.0002H316.377C315.922 62.0002 315.639 61.7838 315.528 61.3509L315.245 59.4028C314.523 60.2575 313.702 60.9457 312.781 61.4674C311.87 61.978 310.816 62.2333 309.617 62.2333C308.652 62.2333 307.775 62.0446 306.987 61.6672C306.21 61.2898 305.544 60.7404 304.989 60.0189C304.434 59.2863 304.006 58.3816 303.706 57.3049C303.407 56.2282 303.257 54.9906 303.257 53.592C303.257 52.3377 303.423 51.1722 303.756 50.0955C304.089 49.0188 304.572 48.0864 305.205 47.2983C305.838 46.5102 306.604 45.8941 307.503 45.4501C308.402 44.995 309.417 44.7675 310.55 44.7675C311.571 44.7675 312.437 44.934 313.147 45.267C313.868 45.6 314.512 46.0717 315.078 46.6822V37.4248H318.342Z" fill="#000008"/>
<path d="M334.119 51.6606C334.119 51.0168 334.025 50.4229 333.836 49.879C333.658 49.3351 333.392 48.8634 333.037 48.4638C332.682 48.0642 332.249 47.7534 331.738 47.5314C331.228 47.3094 330.639 47.1984 329.973 47.1984C328.608 47.1984 327.531 47.5924 326.743 48.3805C325.966 49.1686 325.472 50.262 325.261 51.6606H334.119ZM336.8 59.586C336.4 60.0522 335.939 60.4573 335.418 60.8014C334.896 61.1344 334.341 61.4064 333.753 61.6173C333.165 61.8282 332.554 61.9836 331.921 62.0835C331.3 62.1834 330.684 62.2333 330.073 62.2333C328.908 62.2333 327.825 62.0391 326.826 61.6506C325.839 61.251 324.978 60.6738 324.246 59.919C323.524 59.1531 322.958 58.2096 322.547 57.0885C322.148 55.9563 321.948 54.6576 321.948 53.1924C321.948 52.0158 322.131 50.9224 322.498 49.9123C322.864 48.8911 323.386 48.0031 324.063 47.2483C324.751 46.4935 325.589 45.8997 326.577 45.4668C327.565 45.0339 328.675 44.8174 329.907 44.8174C330.939 44.8174 331.888 44.9895 332.754 45.3336C333.631 45.6666 334.385 46.155 335.018 46.7988C335.651 47.4426 336.145 48.2362 336.5 49.1797C336.866 50.1232 337.049 51.1999 337.049 52.4098C337.049 52.9093 336.994 53.2479 336.883 53.4255C336.772 53.592 336.567 53.6752 336.267 53.6752H325.178C325.211 54.6853 325.356 55.5678 325.611 56.3226C325.866 57.0663 326.216 57.6879 326.66 58.1874C327.115 58.6869 327.653 59.0587 328.275 59.3029C328.897 59.5471 329.59 59.6692 330.356 59.6692C331.078 59.6692 331.699 59.586 332.221 59.4195C332.754 59.253 333.209 59.0754 333.586 58.8867C333.975 58.6869 334.297 58.5037 334.552 58.3372C334.818 58.1707 335.051 58.0875 335.251 58.0875C335.518 58.0875 335.723 58.1874 335.867 58.3872L336.8 59.586Z" fill="#000008"/>
<mask id="mask0_897_5250" style="mask-type:alpha" maskUnits="userSpaceOnUse" x="23" y="29" width="40" height="41">
<path fill-rule="evenodd" clip-rule="evenodd" d="M51.3648 69.5223C51.9948 69.7677 52.7131 69.752 53.349 69.446L61.5843 65.4833C62.4497 65.0669 63 64.1911 63 63.2303V36.3606C63 35.3998 62.4497 34.524 61.5844 34.1076L53.349 30.1448C52.5145 29.7432 51.5378 29.8416 50.8054 30.3741C50.7008 30.4501 50.6011 30.5351 50.5076 30.6287L34.742 45.0119L27.8749 39.7992C27.2356 39.3139 26.3415 39.3537 25.7477 39.8938L23.5452 41.8973C22.819 42.5579 22.8181 43.7004 23.5434 44.3621L29.4988 49.7954L23.5434 55.2287C22.8181 55.8904 22.819 57.0329 23.5452 57.6935L25.7477 59.697C26.3415 60.2371 27.2356 60.2769 27.8749 59.7916L34.742 54.5789L50.5076 68.9621C50.757 69.2117 51.0498 69.3996 51.3648 69.5223ZM53.0061 40.7149L41.0436 49.7954L53.0061 58.8759V40.7149Z" fill="white"/>
</mask>
<g mask="url(#mask0_897_5250)">
<path d="M61.5815 34.1125L53.3397 30.1442C52.3857 29.6849 51.2456 29.8786 50.497 30.6273L23.5164 55.2274C22.7907 55.889 22.7915 57.0316 23.5182 57.6922L25.7221 59.6957C26.3161 60.2358 27.2108 60.2755 27.8505 59.7903L60.3413 35.142C61.4314 34.315 62.997 35.0925 62.997 36.4607V36.365C62.997 35.4046 62.4468 34.5291 61.5815 34.1125Z" fill="#0065A9"/>
<g filter="url(#filter0_d_897_5250)">
<path d="M61.5815 65.4757L53.3397 69.4439C52.3857 69.9033 51.2456 69.7095 50.497 68.9608L23.5164 44.3608C22.7907 43.6991 22.7915 42.5566 23.5182 41.896L25.7221 39.8924C26.3161 39.3523 27.2108 39.3126 27.8505 39.7978L60.3413 64.4462C61.4314 65.2731 62.997 64.4956 62.997 63.1275V63.2232C62.997 64.1835 62.4468 65.059 61.5815 65.4757Z" fill="#007ACC"/>
</g>
<g filter="url(#filter1_d_897_5250)">
<path d="M53.3431 69.445C52.3888 69.9041 51.2488 69.7099 50.5 68.9612C51.4226 69.8837 53 69.2303 53 67.9256V31.6632C53 30.3585 51.4226 29.7051 50.5 30.6277C51.2488 29.8789 52.3888 29.6849 53.3431 30.1438L61.5835 34.1067C62.4494 34.5231 63 35.3989 63 36.3597V63.2293C63 64.1901 62.4494 65.0659 61.5834 65.4823L53.3431 69.445Z" fill="#1F9CF0"/>
</g>
<g style="mix-blend-mode:overlay" opacity="0.25">
<path fill-rule="evenodd" clip-rule="evenodd" d="M51.3374 69.5213C51.9674 69.7667 52.6858 69.751 53.3216 69.4451L61.557 65.4824C62.4223 65.066 62.9726 64.1902 62.9726 63.2293V36.3597C62.9726 35.3988 62.4224 34.523 61.557 34.1066L53.3216 30.1438C52.4872 29.7423 51.5105 29.8406 50.778 30.3731C50.6734 30.4492 50.5738 30.5341 50.4802 30.6277L34.7147 45.011L27.8475 39.7982C27.2083 39.3129 26.3141 39.3527 25.7204 39.8928L23.5179 41.8963C22.7916 42.5569 22.7908 43.6995 23.5161 44.3612L29.4715 49.7944L23.5161 55.2277C22.7908 55.8894 22.7916 57.0319 23.5179 57.6925L25.7204 59.6961C26.3141 60.2361 27.2083 60.2759 27.8475 59.7907L34.7147 54.5779L50.4802 68.9612C50.7296 69.2107 51.0225 69.3987 51.3374 69.5213ZM52.9787 40.7139L41.0163 49.7944L52.9787 58.8749V40.7139Z" fill="url(#paint0_linear_897_5250)"/>
</g>
</g>
<defs>
<filter id="filter0_d_897_5250" x="19.6393" y="36.1256" width="46.6901" height="36.8981" filterUnits="userSpaceOnUse" color-interpolation-filters="sRGB">
<feFlood flood-opacity="0" result="BackgroundImageFix"/>
<feColorMatrix in="SourceAlpha" type="matrix" values="0 0 0 0 0 0 0 0 0 0 0 0 0 0 0 0 0 0 127 0" result="hardAlpha"/>
<feOffset/>
<feGaussianBlur stdDeviation="1.66667"/>
<feColorMatrix type="matrix" values="0 0 0 0 0 0 0 0 0 0 0 0 0 0 0 0 0 0 0.25 0"/>
<feBlend mode="overlay" in2="BackgroundImageFix" result="effect1_dropShadow_897_5250"/>
<feBlend mode="normal" in="SourceGraphic" in2="effect1_dropShadow_897_5250" result="shape"/>
</filter>
<filter id="filter1_d_897_5250" x="47.1667" y="26.5641" width="19.1667" height="46.4606" filterUnits="userSpaceOnUse" color-interpolation-filters="sRGB">
<feFlood flood-opacity="0" result="BackgroundImageFix"/>
<feColorMatrix in="SourceAlpha" type="matrix" values="0 0 0 0 0 0 0 0 0 0 0 0 0 0 0 0 0 0 127 0" result="hardAlpha"/>
<feOffset/>
<feGaussianBlur stdDeviation="1.66667"/>
<feColorMatrix type="matrix" values="0 0 0 0 0 0 0 0 0 0 0 0 0 0 0 0 0 0 0.25 0"/>
<feBlend mode="overlay" in2="BackgroundImageFix" result="effect1_dropShadow_897_5250"/>
<feBlend mode="normal" in="SourceGraphic" in2="effect1_dropShadow_897_5250" result="shape"/>
</filter>
<linearGradient id="paint0_linear_897_5250" x1="42.9727" y1="29.8975" x2="42.9727" y2="69.6914" gradientUnits="userSpaceOnUse">
<stop stop-color="white"/>
<stop offset="1" stop-color="white" stop-opacity="0"/>
</linearGradient>
</defs>
</svg>
