<svg width="90" height="90" viewBox="0 0 90 90" fill="none" xmlns="http://www.w3.org/2000/svg">
<path d="M45 80.5156C60.5781 80.5156 69.2344 80.5156 74.9062 74.875C80.5625 69.2344 80.5625 60.6094 80.5625 45.0781C80.5625 29.5469 80.5625 20.9219 74.9062 15.2813C69.2344 9.65625 60.5781 9.65625 45 9.65625C29.4219 9.65625 20.7656 9.65625 15.0937 15.2969C9.4375 20.9375 9.4375 29.5625 9.4375 45.0938C9.4375 60.625 9.4375 69.25 15.0937 74.8906C20.7656 80.5156 29.4219 80.5156 45 80.5156Z" fill="#EF3939"/>
<path d="M68.1214 31.9845C64.7151 26.0314 59.012 21.3908 51.8401 19.4689C37.6057 15.672 22.9807 24.0783 19.1682 38.2502C17.2464 45.3752 18.4339 52.6095 21.9026 58.5158C21.9495 58.5939 21.9964 58.6877 22.0589 58.7658L34.5901 80.4064C36.6682 80.4689 38.9182 80.4845 41.3401 80.4845H41.3557C41.5745 80.4845 41.7932 80.4845 42.012 80.4845H42.0276C42.4651 80.4845 42.9182 80.4845 43.387 80.4845C43.4339 80.4845 43.4651 80.4845 43.512 80.4845C43.9651 80.4845 44.4026 80.4845 44.8714 80.4845C51.7932 80.4845 57.3557 80.4845 61.9026 79.9845C67.5745 79.3595 71.637 77.9689 74.7776 74.8439C79.3557 70.2814 80.2307 63.7502 80.4026 53.172C73.0901 40.547 68.137 32.0002 68.1214 31.9845Z" fill="url(#paint0_linear_897_6687)"/>
<path d="M63.7185 26.3438C53.3279 15.9688 36.4685 15.9688 26.0623 26.3438C15.6716 36.7188 15.6716 53.5312 26.0623 63.8906C36.4529 74.2656 53.3123 74.2656 63.7185 63.8906C74.1248 53.5156 74.1248 36.7031 63.7185 26.3438ZM62.1248 38.5469C57.7341 46.1562 53.3435 53.7656 48.9529 61.3906C48.1404 62.8125 46.9529 63.6562 45.3279 63.7812C43.5154 63.9062 42.0779 63.1406 41.156 61.5781C38.3748 56.8125 35.6248 52.0156 32.8748 47.2344C31.2029 44.3281 29.5154 41.4219 27.8435 38.5C26.156 35.5625 28.0623 31.9844 31.4373 31.8125C33.2185 31.7188 34.5935 32.5469 35.4998 34.0938C36.7341 36.2031 37.9529 38.3438 39.1873 40.4688C40.0779 42 40.9373 43.5469 41.8435 45.0469C43.156 47.25 45.0935 48.4844 47.6716 48.6406C51.3123 48.8594 54.7029 46.2188 55.1404 42.3594C55.1716 42.0781 55.1873 41.7812 55.2029 41.6406C55.1873 40.3906 54.9529 39.3281 54.4529 38.3437C53.0935 35.625 54.5466 32.5781 57.4998 31.9219C59.906 31.3906 62.406 33.1562 62.7185 35.5938C62.8748 36.6406 62.656 37.625 62.1248 38.5469Z" fill="white"/>
<defs>
<linearGradient id="paint0_linear_897_6687" x1="24.7916" y1="13.7014" x2="63.5671" y2="80.8714" gradientUnits="userSpaceOnUse">
<stop stop-opacity="0.2"/>
<stop offset="0.7908" stop-opacity="0.05"/>
</linearGradient>
</defs>
</svg>
