<svg width="374" height="100" viewBox="0 0 374 100" fill="none" xmlns="http://www.w3.org/2000/svg">
<path d="M117.309 37.6206H124.779L131.345 52.5001L137.911 37.6206H145.381L131.345 67.6807L117.309 37.6206Z" fill="#2D2D2D"/>
<path d="M154.658 37.6208H161.345V67.3797H154.658V37.6208Z" fill="#2D2D2D"/>
<path d="M170.801 37.6208H178.271L184.837 52.5002L191.403 37.6208H198.873L184.837 67.6809L170.801 37.6208Z" fill="#2D2D2D"/>
<path d="M213.997 37.2594L228.635 67.3195H221.587L219.479 62.681H208.515L206.406 67.3195H199.358L213.997 37.2594ZM216.828 57.3196L213.997 51.1148L211.165 57.3196H216.828Z" fill="#2D2D2D"/>
<path d="M238.152 37.6208H244.839V60.6929H256.405V67.3797H238.152V37.6208Z" fill="#2D2D2D"/>
<path d="M269.478 37.6206H279.9C288.273 37.6206 295.02 44.3074 295.02 52.5001C295.02 60.6928 288.273 67.3795 279.9 67.3795H269.478V37.6206ZM279.96 61.235C284.96 61.235 288.333 57.2591 288.333 52.5001C288.333 47.7411 284.96 43.7652 279.96 43.7652H276.225V61.2952H279.96V61.235Z" fill="#2D2D2D"/>
<path d="M308.15 37.6206H314.836V67.3795H308.15V37.6206Z" fill="#2D2D2D"/>
<path d="M78.5625 72.3545C87.3235 72.3545 92.1917 72.3545 95.3815 69.1823C98.5625 66.0101 98.5625 61.1594 98.5625 52.4248C98.5625 43.6902 98.5625 38.8396 95.3815 35.6674C92.1917 32.5039 87.3235 32.5039 78.5625 32.5039C69.8015 32.5039 64.9333 32.5039 61.7435 35.6761C58.5625 38.8484 58.5625 43.699 58.5625 52.4336C58.5625 61.1682 58.5625 66.0188 61.7435 69.1911C64.9333 72.3545 69.8015 72.3545 78.5625 72.3545Z" fill="#EF3939"/>
<path d="M91.5657 45.0611C89.6501 41.7131 86.4427 39.1033 82.4093 38.0225C74.404 35.8871 66.1791 40.6147 64.035 48.5848C62.9541 52.5919 63.622 56.6604 65.5728 59.982C65.5991 60.026 65.6255 60.0787 65.6606 60.1226L72.7081 72.2931C73.8768 72.3283 75.1422 72.337 76.5042 72.337H76.513C76.636 72.337 76.759 72.337 76.8821 72.337H76.8909C77.1369 72.337 77.3917 72.337 77.6554 72.337C77.6817 72.337 77.6993 72.337 77.7257 72.337C77.9805 72.337 78.2265 72.337 78.4902 72.337C82.3829 72.337 85.5112 72.337 88.0684 72.0558C91.2582 71.7044 93.5429 70.9223 95.3091 69.1648C97.8838 66.5989 98.3759 62.9258 98.4726 56.9768C94.3601 49.8766 91.5745 45.0699 91.5657 45.0611Z" fill="url(#paint0_linear_897_6689)"/>
<path d="M89.0896 41.8888C83.246 36.054 73.7645 36.054 67.9121 41.8888C62.0685 47.7236 62.0685 57.1788 67.9121 63.0048C73.7557 68.8396 83.2372 68.8396 89.0896 63.0048C94.942 57.17 94.942 47.7148 89.0896 41.8888ZM88.1933 48.7517C85.7241 53.0311 83.2548 57.3106 80.7856 61.5988C80.3286 62.3985 79.6608 62.873 78.7469 62.9433C77.7276 63.0136 76.9191 62.583 76.4007 61.7043C74.8365 59.0241 73.29 56.3264 71.7434 53.6375C70.8031 52.003 69.8541 50.3686 68.9139 48.7253C67.9648 47.0733 69.0369 45.061 70.9349 44.9644C71.9367 44.9116 72.71 45.3774 73.2197 46.2473C73.9139 47.4336 74.5993 48.6375 75.2935 49.8326C75.7943 50.6937 76.2777 51.5637 76.7873 52.4072C77.5255 53.6463 78.6151 54.3405 80.065 54.4283C82.1124 54.5514 84.0193 53.0663 84.2654 50.8958C84.2829 50.7376 84.2917 50.5707 84.3005 50.4916C84.2917 49.7886 84.1599 49.1911 83.8787 48.6375C83.1142 47.1085 83.9314 45.3949 85.5922 45.0259C86.9455 44.7271 88.3515 45.7201 88.5272 47.0909C88.6151 47.6797 88.4921 48.2333 88.1933 48.7517Z" fill="white"/>
<defs>
<linearGradient id="paint0_linear_897_6689" x1="113.886" y1="34.7788" x2="118.387" y2="84.7376" gradientUnits="userSpaceOnUse">
<stop stop-opacity="0.2"/>
<stop offset="0.7908" stop-opacity="0.05"/>
</linearGradient>
</defs>
</svg>
