<svg width="300" height="100" viewBox="0 0 300 100" fill="none" xmlns="http://www.w3.org/2000/svg">
<path d="M99.25 25.6944C100.153 25.6944 100.812 26.1806 101.021 27.0486L110.083 59.6528L119.25 27.0486C119.458 26.2153 120.083 25.6944 121.021 25.6944H135.813C136.507 25.6944 136.993 26.3889 136.785 27.0486L122.201 73.6806C121.924 74.5833 121.299 75.0347 120.361 75.0347H99.5278C98.625 75.0347 97.9653 74.6181 97.6875 73.6806L83.0347 27.0486C82.8264 26.4236 83.3472 25.6944 84.0416 25.6944H99.25ZM139.528 35C139.528 29.5139 144.042 25 149.528 25C155.014 25 159.528 29.5139 159.528 35C159.528 40.4861 155.014 45 149.528 45C144.042 45 139.528 40.4861 139.528 35ZM158.486 73.5764C158.486 74.4097 157.931 75 157.063 75H141.993C141.16 75 140.569 74.4444 140.569 73.5764V50.2778C140.569 49.4444 141.125 48.8542 141.993 48.8542H157.063C157.896 48.8542 158.486 49.4097 158.486 50.2778V73.5764ZM163.625 73.2292L177.861 50.3472L163.625 27.4653C163.104 26.6319 163.556 25.6944 164.528 25.6944H180.639C181.75 25.6944 182.41 26.0417 182.896 26.875L190.708 40.5208L198.521 26.875C199.042 26.0417 199.667 25.6944 200.778 25.6944H216.542C217.514 25.6944 217.965 26.5972 217.445 27.4653L203.208 50.3472L217.445 73.2292C217.931 74.0625 217.514 75 216.542 75H200.431C199.32 75 198.66 74.6528 198.174 73.8195L190.361 60.1736L182.549 73.8195C182.063 74.6528 181.438 75 180.292 75H164.528C163.556 75 163.104 74.0972 163.625 73.2292Z" fill="#FF5900"/>
</svg>
