<svg width="90" height="90" viewBox="0 0 90 90" fill="none" xmlns="http://www.w3.org/2000/svg">
<rect x="5" y="5" width="80" height="80" rx="8" fill="#FF5900"/>
<path d="M26.0329 36.2578C26.3681 36.2578 26.613 36.4383 26.6903 36.7605L30.0546 48.8641L33.4575 36.7605C33.5348 36.4511 33.7669 36.2578 34.1149 36.2578H39.606C39.8638 36.2578 40.0443 36.5156 39.9669 36.7605L34.5532 54.0717C34.45 54.4068 34.218 54.5744 33.87 54.5744H26.136C25.8009 54.5744 25.556 54.4197 25.4529 54.0717L20.0133 36.7605C19.936 36.5285 20.1293 36.2578 20.3871 36.2578H26.0329ZM40.9852 39.7123C40.9852 37.6757 42.6609 36 44.6975 36C46.7341 36 48.4098 37.6757 48.4098 39.7123C48.4098 41.7489 46.7341 43.4246 44.6975 43.4246C42.6609 43.4246 40.9852 41.7489 40.9852 39.7123ZM48.0231 54.033C48.0231 54.3424 47.8169 54.5615 47.4946 54.5615H41.9004C41.591 54.5615 41.3719 54.3552 41.3719 54.033V45.3839C41.3719 45.0745 41.5782 44.8554 41.9004 44.8554H47.4946C47.804 44.8554 48.0231 45.0616 48.0231 45.3839V54.033ZM49.9308 53.9041L55.2157 45.4096L49.9308 36.9152C49.7375 36.6058 49.905 36.2578 50.266 36.2578H56.2469C56.6594 36.2578 56.9043 36.3867 57.0847 36.6961L59.985 41.7618L62.8852 36.6961C63.0785 36.3867 63.3106 36.2578 63.723 36.2578H69.5751C69.936 36.2578 70.1036 36.5929 69.9102 36.9152L64.6253 45.4096L69.9102 53.9041C70.0907 54.2135 69.936 54.5615 69.5751 54.5615H63.5941C63.1817 54.5615 62.9368 54.4326 62.7563 54.1232L59.8561 49.0575L56.9558 54.1232C56.7754 54.4326 56.5434 54.5615 56.118 54.5615H50.266C49.905 54.5615 49.7375 54.2263 49.9308 53.9041Z" fill="white"/>
</svg>
