<svg width="90" height="90" viewBox="0 0 90 90" fill="none" xmlns="http://www.w3.org/2000/svg">
<path d="M43.3584 85H46.6895C64.7727 85 73.816 85 79.432 79.384C85.048 73.768 85 64.7281 85 46.6895V43.3104C85 25.2752 85 16.232 79.432 10.616C73.8641 5.00002 64.7727 5 46.6895 5H43.3584C25.272 5 16.232 5.00002 10.616 10.616C5 16.232 5 25.2688 5 43.3104V46.6895C5 64.7281 5 73.768 10.616 79.384C16.232 85 25.272 85 43.3584 85Z" fill="#0077FF"/>
<path d="M47.9308 62.6792C29.8923 62.6792 18.9452 50.164 18.5195 29.3672H27.6555C27.9403 44.6441 34.8907 51.1273 40.2188 52.4487V29.3672H48.9773V42.548C54.1163 41.9784 59.4925 35.9816 61.3034 29.3672H69.9148C68.5355 37.5048 62.6827 43.5016 58.5421 45.9753C62.6827 47.9753 69.3452 53.2105 71.9148 62.6792H62.446C60.446 56.3495 55.5437 51.4472 48.9773 50.7816V62.6792H47.9308Z" fill="white"/>
</svg>
