<svg width="90" height="90" viewBox="0 0 90 90" fill="none" xmlns="http://www.w3.org/2000/svg">
<path d="M77 5H13C8.58172 5 5 8.58172 5 13V77C5 81.4183 8.58172 85 13 85H77C81.4183 85 85 81.4183 85 77V13C85 8.58172 81.4183 5 77 5Z" fill="url(#paint0_linear_886_3444)"/>
<path d="M49.9647 23.5322C51.7666 24.5898 54.4349 28.3972 53.3953 36.5408C51.6627 49.5494 44.8014 60.196 42.5142 60.196C41.1974 60.196 41.2667 58.1513 42.9994 50.607C45.2865 40.7007 48.4399 26.6697 36.0341 26.6697C22.8659 26.6697 21.2718 41.018 29.7272 42.7807C28.4797 36.0825 32.3955 29.7721 36.1034 29.7721C40.1232 29.7721 38.3905 37.6337 36.7618 46.0593C34.8559 55.8598 32.6727 67 40.2964 67C50.8657 67 58.8012 47.1169 60.222 36.5408C62.0933 23.1444 54.0537 19.5485 49.9647 23.5322Z" fill="white"/>
<defs>
<linearGradient id="paint0_linear_886_3444" x1="5" y1="5" x2="82" y2="81.5" gradientUnits="userSpaceOnUse">
<stop stop-color="#3086FF"/>
<stop offset="1" stop-color="#5064FB"/>
</linearGradient>
</defs>
</svg>
