<svg width="300" height="100" viewBox="0 0 300 100" fill="none" xmlns="http://www.w3.org/2000/svg">
<path d="M255.128 35.5131C254.666 38.2431 256.012 40.7424 258.011 41.7805C256.589 49.3552 250.898 61.4286 247.707 61.4286C244.515 61.4286 246.976 50.2011 250.475 36.8974C251.206 34.052 243.708 34.6672 242.208 37.205C239.671 50.7394 234.057 61.121 230.596 61.121C229.212 61.121 229.02 59.4292 229.02 57.9296C229.02 51.8929 232.288 39.858 232.711 37.3203C233.134 34.821 229.674 35.3593 227.405 36.4744C226.713 36.8589 221.407 39.512 218.831 40.7039C217.254 34.8979 210.756 35.6669 209.449 40.0503C208.487 43.2032 210.871 45.241 213.255 45.7025C213.14 52.7388 208.987 61.6593 204.258 61.6593C198.337 61.6593 201.067 42.7418 208.718 38.0893C208.295 35.6669 205.104 35.3209 202.143 36.6282C196.453 39.0506 192.954 48.2017 193.453 55.7764C191.223 59.2369 189.032 61.3901 187.647 61.3901C186.994 61.3901 186.263 60.7749 186.263 59.16C186.263 54.6998 188.493 42.3573 189.762 34.0905C190.608 28.1692 189.57 20.979 181.495 20.979C175.843 20.979 172.729 26.362 170.422 34.7441H167C165.539 34.7441 164.654 38.5507 166.269 38.6661C166.769 38.7045 167.999 38.7045 169.461 38.7045C169.038 40.5501 168.653 42.5495 168.269 44.5874C168.076 45.6255 167.884 46.7406 167.692 47.8557C164.808 53.8923 158.079 62.1591 152.081 62.1591C149.313 62.1591 148.313 58.7755 148.505 54.6229C164.808 55.3534 169.845 34.8595 155.272 34.9748C146.583 35.0133 141.238 44.2029 140.584 52.6619C137.97 56.9683 133.663 62.2745 129.665 62.2745C121.205 62.2745 126.896 39.1275 132.625 39.1275C135.048 39.1275 134.548 43.0494 133.048 45.7025C133.586 49.0861 138.969 49.3937 140.238 43.703C141.2 39.3582 138.547 35.1286 132.933 35.1286C123.628 35.1286 117.745 45.5102 117.707 54.4306C115.899 58.3141 113.592 60.4289 111.901 60.4289C110.516 60.4289 110.324 58.8524 112.016 49.5475C112.439 47.202 112.862 44.5874 113.285 41.819C113.9 37.8586 112.247 35.5132 108.825 35.4747C108.825 35.4747 108.44 35.4747 108.286 35.4747C105.902 35.5901 102.711 36.6282 99.3273 38.9737C97.2895 34.2058 91.5219 35.1671 90.2915 39.3582C89.3303 42.6649 91.7142 44.7796 94.0981 45.2026C93.9443 52.4312 89.8301 61.6593 85.1007 61.6593C79.1794 61.6593 81.9094 42.0881 89.561 37.3203C89.138 34.7826 85.9466 34.475 82.986 35.7439C72.7198 40.0887 69.5668 66.85 83.9472 66.85C95.3669 66.85 99.7887 50.6625 100.019 43.5108C101.865 42.1266 103.903 41.05 105.056 41.0115H105.095C105.633 41.0115 105.825 41.2422 105.71 41.8574C105.056 46.7406 103.403 54.9689 103.403 59.4292C103.403 63.9663 104.672 66.85 108.594 66.85C112.285 66.85 115.899 63.5818 118.36 59.4676C119.667 63.7356 122.82 66.85 128.242 66.85C133.625 66.85 137.893 62.5436 140.854 58.3526C141.892 63.1973 144.929 66.85 150.351 66.85C157.887 66.85 163.385 60.8518 166.577 55.2381C166.384 56.6992 166.192 58.2372 166 59.7752C164.923 68.3496 164.116 71.8486 162.732 74.9246C162.155 76.1934 161.54 77.4238 160.848 78.6158C160.309 79.577 160.963 80 161.809 80C163.693 80 166.769 78.8465 168.692 75.6551C170.499 72.6945 172.306 69.7338 174.19 52.7004C174.613 49.0476 175.19 43.7799 175.997 38.743H178.112C180.034 38.743 181.803 35.1286 179.573 34.9364C179.188 34.8979 178.112 34.8595 176.689 34.8595C177.881 28.8613 179.534 24.055 181.803 24.055C183.918 24.055 184.341 27.3233 183.38 32.6294C181.803 40.8962 180.303 51.2393 179.688 57.1606C178.958 64.1585 181.265 66.8885 185.187 66.8885C188.263 66.8885 191.685 64.0816 194.299 60.4289C195.645 64.197 198.414 66.8885 203.066 66.8885C213.524 66.8885 218.139 53.6616 218.984 46.1638C220.522 45.664 221.984 45.0488 223.445 44.3567C222.445 49.5859 221.676 55.315 221.676 58.6602C221.676 63.5433 224.098 66.8116 227.828 66.8116C233.288 66.8116 237.018 61.6593 239.286 57.3913C239.286 63.005 241.439 66.9269 246.553 66.9269C257.665 66.9269 265.471 44.3951 265.471 37.205C265.471 29.1689 256.089 29.4765 255.128 35.5131ZM155.465 38.8968C159.925 38.8968 156.618 50.3934 148.851 51.1239C149.851 45.1257 152.619 38.8968 155.465 38.8968ZM110.862 31.7066C117.091 31.7066 118.476 20.9021 111.939 20.9021C105.787 20.9021 104.518 31.7066 110.862 31.7066ZM63.0303 21.6711C65.0297 22.8246 67.9904 26.9772 66.8369 35.8592C64.9144 50.0473 57.3012 61.6593 54.7635 61.6593C53.3024 61.6593 53.3793 59.4292 55.3018 51.2008C57.8395 40.3963 61.3385 25.0932 47.5733 25.0932C32.9622 25.0932 31.1935 40.7424 40.5754 42.6649C39.1912 35.3593 43.536 28.4768 47.6502 28.4768C52.1104 28.4768 50.1879 37.0512 48.3808 46.2408C46.266 56.9299 43.8436 69.0802 52.3027 69.0802C64.03 69.0802 72.8351 47.3943 74.4116 35.8592C76.4879 21.2481 67.5674 17.3262 63.0303 21.6711Z" fill="#2B2F32"/>
</svg>
