<svg width="360" height="100" viewBox="0 0 360 100" fill="none" xmlns="http://www.w3.org/2000/svg">
<path d="M296.898 62.6341L291.011 52.4822C292.951 51.6552 294.545 50.1837 295.524 48.3167C296.504 46.4497 296.808 44.3017 296.387 42.236C295.965 40.1703 294.843 38.3135 293.21 36.9798C291.577 35.6461 289.534 34.9173 287.425 34.9165H274.509C274.296 34.9156 274.086 34.9568 273.89 35.0376C273.693 35.1184 273.515 35.2373 273.365 35.3874C273.215 35.5376 273.096 35.7159 273.015 35.9122C272.934 36.1085 272.893 36.3189 272.894 36.5311V63.4414C272.894 63.8696 273.064 64.2803 273.367 64.5831C273.67 64.8859 274.08 65.056 274.509 65.056H275.585C276.013 65.056 276.424 64.8859 276.727 64.5831C277.029 64.2803 277.2 63.8696 277.2 63.4414V53.2155H286.618L293.023 64.2487C293.164 64.4943 293.368 64.6982 293.614 64.8399C293.86 64.9817 294.138 65.0562 294.422 65.056H295.519C295.802 65.0562 296.081 64.9817 296.326 64.8401C296.572 64.6984 296.776 64.4946 296.918 64.2491C297.059 64.0037 297.134 63.7252 297.134 63.4416C297.134 63.1581 297.06 62.8796 296.918 62.6341H296.898ZM277.2 39.2222H287.425C288.71 39.2222 289.942 39.7325 290.85 40.6409C291.759 41.5493 292.269 42.7813 292.269 44.066C292.269 45.3507 291.759 46.5827 290.85 47.4911C289.942 48.3995 288.71 48.9099 287.425 48.9099H277.2V39.2222Z" fill="#142149"/>
<path d="M263.744 34.9165H241.139C240.927 34.9156 240.716 34.9568 240.52 35.0376C240.324 35.1184 240.146 35.2373 239.995 35.3874C239.845 35.5376 239.726 35.7159 239.646 35.9122C239.565 36.1085 239.524 36.3189 239.525 36.5311V37.6075C239.524 37.8198 239.565 38.0302 239.646 38.2265C239.726 38.4228 239.845 38.6011 239.995 38.7512C240.146 38.9013 240.324 39.0202 240.52 39.1011C240.716 39.1819 240.927 39.2231 241.139 39.2222H250.289V63.4414C250.289 63.8696 250.459 64.2803 250.761 64.5831C251.064 64.8859 251.475 65.056 251.903 65.056H252.98C253.407 65.0542 253.817 64.8836 254.119 64.5811C254.422 64.2787 254.592 63.8691 254.594 63.4414V39.2222H263.744C264.172 39.2222 264.582 39.0521 264.885 38.7493C265.188 38.4465 265.358 38.0358 265.358 37.6075V36.5311C265.358 36.3191 265.316 36.1091 265.235 35.9133C265.154 35.7174 265.035 35.5394 264.885 35.3894C264.735 35.2395 264.557 35.1206 264.361 35.0394C264.166 34.9583 263.956 34.9165 263.744 34.9165Z" fill="#142149"/>
<path d="M240.066 60.7504H225.534V36.5311C225.535 36.3189 225.494 36.1085 225.413 35.9122C225.333 35.7159 225.214 35.5376 225.064 35.3874C224.913 35.2373 224.735 35.1184 224.539 35.0376C224.342 34.9568 224.132 34.9156 223.92 34.9165H222.843C222.631 34.9156 222.421 34.9568 222.225 35.0376C222.028 35.1184 221.85 35.2373 221.7 35.3874C221.55 35.5376 221.431 35.7159 221.35 35.9122C221.269 36.1085 221.228 36.3189 221.229 36.5311V63.4414C221.229 63.8696 221.399 64.2803 221.702 64.5831C222.005 64.8859 222.415 65.056 222.843 65.056H240.066C240.494 65.056 240.905 64.8859 241.208 64.5831C241.51 64.2803 241.68 63.8696 241.68 63.4414V62.365C241.681 62.1527 241.64 61.9423 241.559 61.746C241.479 61.5497 241.36 61.3714 241.21 61.2213C241.059 61.0712 240.881 60.9523 240.685 60.8715C240.488 60.7906 240.278 60.7495 240.066 60.7504Z" fill="#142149"/>
<path d="M212.617 36.5311C212.617 36.3189 212.576 36.1085 212.495 35.9122C212.415 35.7159 212.296 35.5376 212.146 35.3874C211.996 35.2373 211.817 35.1184 211.621 35.0376C211.425 34.9568 211.214 34.9156 211.002 34.9165H209.926C209.713 34.9156 209.503 34.9568 209.307 35.0376C209.11 35.1184 208.932 35.2373 208.782 35.3874C208.632 35.5376 208.513 35.7159 208.432 35.9122C208.351 36.1085 208.31 36.3189 208.311 36.5311V53.2155C208.311 55.3566 207.46 57.41 205.946 58.924C204.432 60.438 202.379 61.2886 200.238 61.2886C198.097 61.2886 196.043 60.438 194.529 58.924C193.016 57.41 192.165 55.3566 192.165 53.2155V36.5311C192.165 36.1029 191.995 35.6922 191.692 35.3894C191.389 35.0866 190.979 34.9165 190.55 34.9165H189.474C189.262 34.9156 189.051 34.9568 188.855 35.0376C188.659 35.1184 188.48 35.2373 188.33 35.3874C188.18 35.5376 188.061 35.7159 187.98 35.9122C187.9 36.1085 187.858 36.3189 187.859 36.5311V53.2155C187.859 56.4985 189.164 59.6471 191.485 61.9686C193.806 64.29 196.955 65.5942 200.238 65.5942C203.521 65.5942 206.67 64.29 208.991 61.9686C211.312 59.6471 212.617 56.4985 212.617 53.2155V36.5311Z" fill="#142149"/>
<path d="M179.786 34.9165H178.77C178.447 34.9145 178.13 35.0105 177.863 35.1919C177.595 35.3732 177.388 35.6314 177.27 35.9324L167.946 59.2367L158.621 35.9324C158.503 35.6314 158.296 35.3732 158.029 35.1919C157.761 35.0105 157.444 34.9145 157.121 34.9165H156.105C155.841 34.9164 155.582 34.981 155.348 35.1045C155.115 35.228 154.916 35.4068 154.768 35.6252C154.62 35.8436 154.528 36.095 154.499 36.3573C154.471 36.6196 154.507 36.8849 154.605 37.1299L165.369 64.0402C165.488 64.3407 165.695 64.5983 165.962 64.7795C166.23 64.9607 166.546 65.0571 166.869 65.056H169.022C169.345 65.0571 169.661 64.9607 169.929 64.7795C170.196 64.5983 170.403 64.3407 170.522 64.0402L181.286 37.1299C181.384 36.8849 181.42 36.6196 181.392 36.3573C181.364 36.095 181.271 35.8436 181.123 35.6252C180.975 35.4068 180.776 35.228 180.543 35.1045C180.31 34.981 180.05 34.9164 179.786 34.9165Z" fill="#142149"/>
<path d="M85.5033 23.507C85.2133 23.0447 84.8104 22.6638 84.3326 22.4001C83.8547 22.1365 83.3177 21.9988 82.7719 22H66.229C65.6515 22 65.0846 22.155 64.5873 22.4486C64.09 22.7422 63.6806 23.1638 63.4017 23.6695C63.1227 24.1751 62.9845 24.7463 63.0014 25.3236C63.0183 25.9008 63.1896 26.463 63.4976 26.9515L66.8614 32.3335L88.867 28.889L85.5033 23.507Z" fill="#C9F4FF"/>
<path d="M88.8933 28.889C88.6033 28.4267 88.2004 28.0458 87.7226 27.7822C87.2448 27.5185 86.7077 27.3808 86.1619 27.3821H69.619C69.0415 27.3821 68.4746 27.537 67.9773 27.8306C67.4801 28.1243 67.0706 28.5459 66.7917 29.0515C66.5128 29.5572 66.3745 30.1284 66.3914 30.7056C66.4083 31.2829 66.5796 31.845 66.8876 32.3335L71.6373 39.8684L93.6429 36.4239L88.8933 28.889Z" fill="#51B9FF"/>
<path d="M71.6392 39.8685C71.3157 39.3522 71.1432 38.7556 71.1413 38.1463C71.1413 37.2898 71.4816 36.4685 72.0872 35.8629C72.6927 35.2573 73.5141 34.9171 74.3705 34.9171H90.9135C91.4592 34.9158 91.9963 35.0535 92.4741 35.3172C92.952 35.5808 93.3549 35.9617 93.6449 36.424L108.445 59.9032C108.77 60.4188 108.943 61.0159 108.943 61.6255C108.943 62.235 108.77 62.8321 108.445 63.3477L100.177 76.4934C99.8863 76.9548 99.4832 77.3349 99.0056 77.5984C98.5279 77.8618 97.9914 78 97.4459 78C96.9004 78 96.3639 77.8618 95.8862 77.5984C95.4086 77.3349 95.0055 76.9548 94.7145 76.4934L71.6392 39.8685Z" fill="#007BFC"/>
<path d="M113.353 46.892C113.643 47.3578 114.046 47.7421 114.526 48.0085C115.006 48.2749 115.545 48.4147 116.094 48.4147C116.643 48.4147 117.182 48.2749 117.662 48.0085C118.142 47.7421 118.546 47.3578 118.836 46.892L121.661 42.3845L127.083 33.78C127.409 33.2644 127.581 32.6673 127.581 32.0577C127.581 31.4482 127.409 30.8511 127.083 30.3355L122.778 23.507C122.488 23.0447 122.085 22.6638 121.607 22.4001C121.129 22.1365 120.592 21.9988 120.047 22H103.504C102.926 22 102.359 22.155 101.862 22.4486C101.365 22.7422 100.955 23.1638 100.676 23.6695C100.397 24.1751 100.259 24.7463 100.276 25.3236C100.293 25.9008 100.464 26.463 100.772 26.9515L113.353 46.892Z" fill="#007BFC"/>
</svg>
