<svg width="90" height="90" viewBox="0 0 90 90" fill="none" xmlns="http://www.w3.org/2000/svg">
<path d="M32.8667 15.9048C32.5133 15.3266 32.0181 14.8482 31.4282 14.5148C30.8382 14.1815 30.1729 14.0043 29.4952 14H9C7.93913 14 6.92172 14.4214 6.17157 15.1716C5.42143 15.9217 5 16.9391 5 18C5 18.7541 5.21115 19.4931 5.60952 20.1333L10.8857 27.8857L37.2667 22.1714L32.8667 15.9048Z" fill="#C9F4FF"/>
<path d="M37.3787 22.3245C37.0209 21.7461 36.5221 21.2679 35.9292 20.9347C35.3362 20.6016 34.6683 20.4244 33.9882 20.4198H13.5691C12.8352 20.3859 12.1062 20.5558 11.4628 20.9107C10.8195 21.2656 10.2869 21.7917 9.92403 22.4306C9.56119 23.0695 9.38225 23.7963 9.40703 24.5307C9.4318 25.265 9.65931 25.9781 10.0644 26.5912L15.9501 35.9244L43.2072 31.6578L37.3787 22.3245Z" fill="#51B9FF"/>
<path d="M15.7075 35.543C15.3771 35.0137 15.1727 34.4155 15.1099 33.7947C15.0472 33.1738 15.1278 32.5469 15.3456 31.9621C15.6446 31.199 16.1698 30.5455 16.8507 30.0893C17.5316 29.6331 18.3357 29.396 19.1552 29.4097H39.5742C40.2547 29.4126 40.9232 29.589 41.5165 29.9223C42.1098 30.2556 42.6082 30.7348 42.9647 31.3145L61.3075 60.4001C61.7059 61.0403 61.9171 61.7793 61.9171 62.5334C61.9141 63.287 61.7031 64.0252 61.3075 64.6667L51.0599 80.9143C50.6969 81.4846 50.1959 81.9541 49.6032 82.2794C49.0106 82.6047 48.3455 82.7752 47.6694 82.7752C46.9934 82.7752 46.3283 82.6047 45.7356 82.2794C45.143 81.9541 44.642 81.4846 44.279 80.9143L15.7075 35.543Z" fill="#007BFC"/>
<path d="M67.3663 44.838C67.7293 45.4083 68.2303 45.8778 68.8229 46.2031C69.4156 46.5284 70.0807 46.6989 70.7567 46.6989C71.4328 46.6989 72.0979 46.5284 72.6905 46.2031C73.2832 45.8778 73.7842 45.4083 74.1472 44.838L84.3948 28.5904C84.7932 27.9502 85.0043 27.2112 85.0043 26.4571C85.0013 25.7034 84.7904 24.9652 84.3948 24.3238L79.0615 15.9048C78.7037 15.3263 78.205 14.8481 77.612 14.515C77.019 14.1819 76.3511 14.0047 75.671 14H55.1758C54.6505 14 54.1303 14.1035 53.645 14.3045C53.1597 14.5055 52.7188 14.8001 52.3473 15.1716C51.9759 15.543 51.6813 15.984 51.4803 16.4693C51.2792 16.9546 51.1758 17.4747 51.1758 18C51.1684 18.7578 51.3873 19.5006 51.8043 20.1333L67.3663 44.838Z" fill="#007BFC"/>
</svg>
