<svg width="100" height="100" viewBox="0 0 100 100" fill="none" xmlns="http://www.w3.org/2000/svg">
<path d="M21.8268 32.1183C37.3871 16.8834 62.6154 16.8834 78.176 32.1183L80.0485 33.9518C80.8265 34.7137 80.8265 35.9486 80.0485 36.7104L73.6424 42.9826C73.2533 43.3635 72.6227 43.3635 72.2335 42.9826L69.6566 40.4595C58.8012 29.8312 41.2013 29.8312 30.3459 40.4595L27.5861 43.1615C27.1972 43.5424 26.5665 43.5424 26.1774 43.1615L19.7713 36.8894C18.9931 36.1275 18.9931 34.8926 19.7713 34.1307L21.8268 32.1183ZM91.4244 45.09L97.1261 50.6721C97.9041 51.4339 97.9041 52.6689 97.1261 53.4307L71.4175 78.602C70.6395 79.3636 69.378 79.3636 68.6 78.602L50.3536 60.7373C50.159 60.5467 49.8437 60.5467 49.6491 60.7373L31.4032 78.602C30.6252 79.3636 29.3637 79.3636 28.5857 78.602L2.87648 53.4305C2.09846 52.6686 2.09846 51.4337 2.87648 50.6718L8.57802 45.0895C9.35604 44.3279 10.6175 44.3279 11.3955 45.0895L29.6422 62.9545C29.8365 63.1451 30.1519 63.1451 30.3464 62.9545L48.5921 45.0895C49.3701 44.3279 50.6316 44.3279 51.4096 45.0895L69.6563 62.9545C69.8509 63.1451 70.1662 63.1451 70.3608 62.9545L88.6069 45.09C89.3852 44.3281 90.6465 44.3281 91.4244 45.09Z" fill="#3396FF"/>
</svg>
