<svg width="300" height="100" viewBox="0 0 300 100" fill="none" xmlns="http://www.w3.org/2000/svg">
<path d="M244.514 38.4807L243.131 22.8197C243.131 21.2717 244.941 20 247.219 20C249.5 20 251.314 21.2717 251.314 22.8197L249.927 38.4807C249.772 39.4236 248.619 40.152 247.217 40.152C245.82 40.152 244.667 39.4236 244.514 38.4807Z" fill="#FFC220"/>
<path d="M238.752 45.0401C239.453 43.8254 239.399 42.4665 238.658 41.8614L225.785 32.833C224.448 32.0587 222.44 32.9912 221.301 34.9655C220.158 36.9381 220.361 39.1423 221.698 39.916L235.95 46.5525C236.842 46.884 238.053 46.2528 238.752 45.0401Z" fill="#FFC220"/>
<path d="M255.688 45.0401C256.389 46.2538 257.597 46.884 258.489 46.5525L272.743 39.916C274.085 39.1423 274.278 36.9381 273.143 34.9655C271.999 32.9912 269.989 32.0587 268.654 32.833L255.781 41.8614C255.045 42.4665 254.988 43.8274 255.688 45.0401Z" fill="#FFC220"/>
<path d="M244.514 61.3802L243.131 77.0405C243.131 78.5912 244.941 79.8599 247.219 79.8599C249.5 79.8599 251.314 78.5912 251.314 77.0405L249.927 61.3802C249.772 60.4376 248.619 59.7133 247.217 59.7133C245.82 59.7133 244.667 60.4376 244.514 61.3802Z" fill="#FFC220"/>
<path d="M255.781 58.0081L268.654 67.0293C269.989 67.8019 271.999 66.866 273.143 64.8978C274.278 62.9235 274.085 60.7179 272.743 59.9416L258.489 53.3124C257.597 52.9765 256.39 53.6064 255.688 54.8214C254.988 56.0335 255.045 57.3961 255.781 58.0081Z" fill="#FFC220"/>
<path d="M235.95 53.3124L221.698 59.9412C220.361 60.7179 220.159 62.9235 221.301 64.8978C222.44 66.866 224.448 67.8019 225.785 67.0293L238.658 58.0081C239.399 57.3961 239.452 56.0355 238.753 54.8214C238.052 53.6064 236.842 52.9765 235.95 53.3124Z" fill="#FFC220"/>
<path d="M166.018 57.9776C166.018 58.4593 165.976 58.9561 165.843 59.3902C165.297 61.1982 163.424 62.7264 161.082 62.7264C159.13 62.7264 157.579 61.6182 157.579 59.2745C157.579 55.6899 161.526 54.6988 166.018 54.7222V57.9776ZM173.066 51.7313C173.066 45.8171 170.54 40.6149 162.004 40.6149C157.621 40.6149 154.142 41.8464 152.243 42.9425L153.634 47.6952C155.368 46.6011 158.134 45.6944 160.75 45.6944C165.08 45.6837 165.79 48.1457 165.79 49.7241V50.0975C156.35 50.0835 150.384 53.3506 150.384 60.0106C150.384 64.0772 153.423 67.8877 158.705 67.8877C161.952 67.8877 164.67 66.5915 166.296 64.515H166.457C166.457 64.515 167.536 69.025 173.479 67.3001C173.167 65.423 173.066 63.4216 173.066 61.0115V51.7313Z" fill="#0071DC"/>
<path d="M33.8027 32.5621C34.5297 36.2406 36.6029 46.9128 36.6029 46.9128C37.4711 51.3016 38.2735 55.9028 38.8762 59.541H38.9818C39.5701 55.6775 40.4949 52.0165 41.4834 47.4827L44.9724 32.5621H52.6916L55.9541 47.8685C56.8108 52.1271 57.4916 55.407 58.0276 59.3677H58.1325C58.7221 55.3685 59.4857 51.9522 60.328 47.5809L63.4615 32.5621H70.8703L61.6936 67.3004C55.8472 68.5816 53.6074 66.2285 52.8022 62.4927C51.9998 58.7566 50.4321 51.6438 50.4321 51.6438C49.6286 47.7495 49.0008 45.0019 48.5597 41.0037H48.4494C47.8219 44.9627 47.1669 47.7371 46.1908 51.6294L42.3394 67.3004C36.371 68.4887 34.3004 66.7266 33.1517 61.9387C32.1676 57.8359 26 32.5621 26 32.5621H33.8027Z" fill="#0071DC"/>
<path d="M84.8791 57.9776C84.8791 58.4593 84.8372 58.9561 84.7041 59.3902C84.1581 61.1982 82.285 62.7264 79.9437 62.7264C77.9915 62.7264 76.4406 61.6182 76.4406 59.2745C76.4406 55.6899 80.3868 54.6988 84.8791 54.7222V57.9776ZM91.9256 51.7313C91.9256 45.8171 89.3999 40.6149 80.8651 40.6149C76.4815 40.6149 73.0015 41.8464 71.1046 42.9425L72.493 47.6952C74.2289 46.6011 76.993 45.6944 79.6102 45.6944C83.9432 45.6837 84.6522 48.1457 84.6522 49.7241V50.0975C75.2101 50.0835 69.2459 53.3506 69.2459 60.0106C69.2459 64.0772 72.2818 67.8877 77.5611 67.8877C80.8112 67.8877 83.5289 66.5915 85.158 64.515H85.3175C85.3175 64.515 86.3962 69.025 92.3389 67.3001C92.0268 65.423 91.9256 63.4216 91.9256 61.0115V51.7313Z" fill="#0071DC"/>
<path d="M96.6317 32.5618H103.685V67.3001H96.6317V32.5618Z" fill="#0071DC"/>
<path d="M202.936 32.5621V40.7768H209.079V47.4233H202.936V57.2271C202.936 60.3994 203.742 61.9387 206.145 61.9387C207.277 61.9387 208.105 61.7969 208.824 61.6199L208.915 67.1322C207.948 67.4922 205.896 67.888 203.811 67.888C201.357 67.888 199.311 67.0316 198.068 65.7089C196.645 64.1972 195.98 61.7215 195.98 58.1888V32.5621H202.936Z" fill="#0071DC"/>
<path d="M184.154 41.2038V46.1261H184.352C185.648 42.3683 188.738 40.6149 191.453 40.6149C192.135 40.6149 192.509 40.6661 193.057 40.7768V47.609C192.403 47.5145 191.8 47.4233 190.957 47.4233C187.884 47.4233 185.743 49.2123 185.204 52.0115C185.091 52.588 185.047 53.2165 185.047 53.9375V67.3001H177.77V41.2038H184.154Z" fill="#0071DC"/>
<path d="M115.357 41.2038V44.7498H115.462C116.665 42.8516 118.648 40.6149 123.063 40.6149C126.498 40.6149 129.134 42.4702 130.255 45.2824H130.359C131.325 43.8656 132.431 42.7896 133.665 42.0324C135.133 41.1307 136.757 40.6149 138.815 40.6149C143.461 40.6149 147.577 43.8247 147.577 51.9304V67.3001H140.488V53.001C140.488 48.8928 139.096 46.5166 136.195 46.5166C134.067 46.5166 132.522 47.9426 131.939 49.6956C131.738 50.3013 131.644 51.1259 131.644 51.8111V67.3001H124.56V52.4268C124.56 48.9357 123.221 46.5166 120.36 46.5166C118.071 46.5166 116.638 48.319 116.05 49.8595C115.799 50.5199 115.717 51.2784 115.717 51.9957V67.3001H108.626V41.2038H115.357Z" fill="#0071DC"/>
</svg>
