<svg width="90" height="90" viewBox="0 0 90 90" fill="none" xmlns="http://www.w3.org/2000/svg">
<rect x="4.5" y="4.5" width="81" height="81" rx="4.5" fill="url(#paint0_linear_902_3487)" stroke="#E6162D"/>
<mask id="mask0_902_3487" style="mask-type:alpha" maskUnits="userSpaceOnUse" x="5" y="5" width="80" height="80">
<rect x="5" y="5" width="80" height="80" rx="4" fill="url(#paint1_linear_902_3487)"/>
</mask>
<g mask="url(#mask0_902_3487)">
<path d="M-6.92038 67.4989C-6.78683 78.4972 7.65148 87.2365 25.3196 87.0219C42.9877 86.8074 57.2095 77.7201 57.076 66.7218C56.9424 55.7235 42.5041 46.9842 24.836 47.1987C7.16791 47.4133 -7.05393 56.5006 -6.92038 67.4989Z" fill="white"/>
<path d="M26.0575 85.3971C10.4293 87.1378 -3.16519 80.2259 -4.30678 69.9827C-5.44852 59.7265 6.301 50.0176 21.9162 48.277C37.5444 46.5363 51.1389 53.4482 52.2674 63.6915C53.4222 73.9476 41.6729 83.6696 26.0575 85.3971ZM56.9248 50.9408C55.5899 50.553 54.674 50.3034 55.3438 48.5489C56.8103 44.7384 56.9271 41.4657 55.2557 39.14C52.1383 34.7988 43.7439 35.1353 34.1699 39.2788C34.1699 39.2788 31.1608 40.6317 31.9141 38.2375C33.3298 33.4632 33.0599 29.4914 30.737 27.2128C25.4579 22.0506 11.6369 27.6402 -0.123363 39.6822C-8.92106 48.6906 -13.9829 58.201 -13.8837 66.3716C-13.6941 81.9829 6.46248 91.2392 26.0604 91.0013C51.7606 90.6892 68.6738 75.5609 68.53 63.7156C68.456 56.5483 62.3695 52.5559 56.9248 50.9408Z" fill="#E6162D"/>
<path d="M73.6439 22.1552C67.3537 15.3501 58.1684 12.842 49.7408 14.7429C47.79 15.1837 46.5747 17.1273 47.0155 19.0639C47.4565 21.0135 49.3883 22.2282 51.3391 21.7875C57.3347 20.4374 63.8639 22.2219 68.3304 27.055C72.797 31.8882 74.0775 38.5325 72.2577 44.3934C71.668 46.3034 72.7358 48.3236 74.6469 48.913C76.5581 49.5023 78.5796 48.4351 79.1695 46.5382L79.1693 46.5251C81.7298 38.2962 79.9339 28.9473 73.6439 22.1552Z" fill="#FF9933"/>
<path d="M64.2168 30.8726C61.1511 27.5603 56.6762 26.3374 52.5796 27.2734C50.9018 27.6457 49.8528 29.3266 50.2253 31.0034C50.6108 32.68 52.2798 33.7284 53.9443 33.3433C55.9472 32.8888 58.1453 33.4877 59.6385 35.0987C61.1319 36.7228 61.5632 38.9462 60.948 40.9086C60.4462 42.5439 61.3542 44.2923 63.0037 44.8066C64.6529 45.3079 66.3894 44.4006 66.9041 42.7522C68.1464 38.7359 67.2826 34.1848 64.2168 30.8726Z" fill="#FF9933"/>
<path d="M26.691 66.8035C26.1548 67.7484 24.9475 68.2062 24.004 67.8267C23.0605 67.4601 22.7609 66.4081 23.2844 65.4894C23.821 64.5706 24.9761 64.1135 25.9063 64.4671C26.8492 64.7945 27.2011 65.8459 26.691 66.8035ZM21.7746 73.2494C20.2913 75.6785 17.0574 76.7735 14.6056 75.6955C12.1931 74.63 11.4419 71.837 12.9258 69.46C14.3968 67.0962 17.5136 66.0157 19.9512 67.0026C22.4154 68.0284 23.2315 70.7945 21.7746 73.2494ZM27.2524 56.1096C19.7834 54.2583 11.4182 58.0743 8.26411 64.6683C5.04637 71.3933 8.33117 78.7823 15.8712 81.1149C23.6991 83.5352 32.8319 79.5665 35.939 72.3215C39.0087 65.2203 34.9827 58.0098 27.2524 56.1096Z" fill="#000008"/>
</g>
<defs>
<linearGradient id="paint0_linear_902_3487" x1="12" y1="5" x2="81.5" y2="93" gradientUnits="userSpaceOnUse">
<stop stop-color="white"/>
<stop offset="1" stop-color="#E9E9E8"/>
</linearGradient>
<linearGradient id="paint1_linear_902_3487" x1="12" y1="5" x2="81.5" y2="93" gradientUnits="userSpaceOnUse">
<stop stop-color="white"/>
<stop offset="1" stop-color="#E9E9E8"/>
</linearGradient>
</defs>
</svg>
