<svg width="300" height="100" viewBox="0 0 300 100" fill="none" xmlns="http://www.w3.org/2000/svg">
<path d="M107.353 65.6744C107.353 77.3132 122.518 86.7456 141.215 86.7456C159.912 86.7456 175.076 77.3132 175.076 65.6744C175.076 54.0357 159.912 44.6033 141.215 44.6033C122.518 44.6033 107.353 54.0357 107.353 65.6744Z" fill="white"/>
<path d="M142.016 85.0359C125.458 86.6769 111.163 79.1889 110.087 68.3361C109.01 57.4696 121.567 47.3477 138.111 45.7067C154.67 44.0657 168.965 51.5537 170.027 62.4064C171.117 73.273 158.561 83.4086 142.016 85.0359ZM175.119 48.9749C173.712 48.5474 172.746 48.2716 173.477 46.4238C175.078 42.4109 175.243 38.9496 173.505 36.4674C170.262 31.8339 161.376 32.0821 151.192 36.3433C151.192 36.3433 147.991 37.736 148.819 35.2125C150.378 30.1791 150.144 25.9731 147.715 23.5323C142.196 18.0025 127.5 23.7392 114.902 36.3295C105.478 45.7481 100 55.7458 100 64.3922C100 80.9126 121.208 90.9656 141.947 90.9656C169.144 90.9656 187.234 75.176 187.234 62.6409C187.248 55.0563 180.859 50.7538 175.119 48.9749Z" fill="#E6162D"/>
<path d="M193.179 18.7323C186.611 11.4512 176.924 8.67939 167.983 10.5824C165.913 11.0237 164.602 13.0646 165.044 15.1193C165.485 17.1878 167.514 18.4979 169.584 18.0566C175.945 16.7052 182.83 18.6772 187.494 23.8484C192.158 29.0197 193.427 36.0664 191.427 42.2443C190.778 44.2577 191.882 46.4089 193.896 47.0571C195.911 47.7052 198.064 46.602 198.712 44.6024V44.5886C201.527 35.9147 199.747 25.9997 193.179 18.7323Z" fill="#FF9933"/>
<path d="M183.092 27.8348C179.891 24.2908 175.172 22.9394 170.826 23.8771C169.046 24.2494 167.914 26.0146 168.287 27.7935C168.673 29.5724 170.425 30.7032 172.192 30.3171C174.317 29.862 176.635 30.5239 178.194 32.2477C179.753 33.9852 180.181 36.3433 179.505 38.4118C178.953 40.1356 179.891 41.9972 181.63 42.5626C183.368 43.1142 185.217 42.1765 185.783 40.4389C187.149 36.2054 186.294 31.3789 183.092 27.8348Z" fill="#FF9933"/>
<path d="M142.926 65.3705C142.346 66.3634 141.063 66.8323 140.069 66.4186C139.076 66.0187 138.772 64.9017 139.338 63.9364C139.918 62.9711 141.146 62.5022 142.125 62.8883C143.119 63.2469 143.478 64.3638 142.926 65.3705ZM137.641 72.1276C136.04 74.6788 132.604 75.7958 130.024 74.6236C127.485 73.4653 126.726 70.5004 128.327 68.0044C129.914 65.5222 133.225 64.419 135.792 65.4946C138.386 66.6116 139.214 69.5489 137.641 72.1276ZM143.657 54.0627C135.778 52.008 126.878 55.9381 123.456 62.8745C119.965 69.9488 123.346 77.8091 131.293 80.3741C139.545 83.0356 149.259 78.9537 152.64 71.3278C155.979 63.8536 151.812 56.1726 143.657 54.0627Z" fill="#000008"/>
</svg>
