<svg width="300" height="100" viewBox="0 0 300 100" fill="none" xmlns="http://www.w3.org/2000/svg">
<path d="M77.9818 26C65.9649 26 56.1834 35.7803 56.1783 47.8012C56.1771 51.6437 57.1813 55.3945 59.0892 58.7005L55.9961 70L67.5542 66.968C70.7391 68.7051 74.3241 69.6202 77.9729 69.6215H77.9818C89.9975 69.6215 99.779 59.8399 99.7841 47.819C99.7866 41.9934 97.5206 36.5157 93.4041 32.3953C89.2876 28.2737 83.8138 26.0025 77.9818 26ZM77.9818 65.9395H77.9742C74.723 65.9395 71.5331 65.064 68.7509 63.4135L68.0895 63.021L61.2316 64.8205L63.0617 58.1334L62.6309 57.4477C60.8174 54.5623 59.859 51.227 59.8603 47.8037C59.8641 37.8118 67.9939 29.6832 77.9895 29.6832C82.8299 29.6845 87.3797 31.572 90.8004 34.9978C94.2223 38.4223 96.1047 42.976 96.1034 47.8178C96.0996 57.8096 87.9698 65.9395 77.9818 65.9395ZM87.9214 52.3676C87.3772 52.0949 84.6983 50.7771 84.1987 50.5948C83.6991 50.4126 83.3359 50.3221 82.9726 50.8676C82.6094 51.413 81.5656 52.6404 81.2483 53.0036C80.931 53.3681 80.6123 53.4127 80.0681 53.14C79.5239 52.8672 77.7677 52.2912 75.6878 50.4355C74.068 48.9915 72.9745 47.2073 72.6571 46.6618C72.3398 46.1163 72.6227 45.8219 72.8967 45.5505C73.1414 45.307 73.4409 44.9145 73.7137 44.5959C73.9864 44.2773 74.0769 44.0504 74.2579 43.6859C74.4388 43.3227 74.3484 43.0041 74.212 42.7313C74.0756 42.4586 72.986 39.7771 72.5322 38.6861C72.09 37.6245 71.6414 37.7672 71.3062 37.7507C70.9889 37.7341 70.6256 37.7315 70.2624 37.7315C69.8992 37.7315 69.3091 37.8679 68.8095 38.4134C68.31 38.9589 66.9029 40.2767 66.9029 42.9582C66.9029 45.6397 68.8554 48.2307 69.1269 48.5939C69.3996 48.9571 72.9681 54.4603 78.433 56.8194C79.733 57.3801 80.7474 57.7153 81.5389 57.9664C82.8439 58.3806 84.0317 58.322 84.9697 58.1818C86.0161 58.025 88.1928 56.864 88.6465 55.5908C89.1003 54.3188 89.1003 53.2279 88.9639 52.9998C88.8275 52.7729 88.4643 52.6365 87.9201 52.3638L87.9214 52.3676ZM126.492 52.035H126.433L122.819 37.4524H118.463L114.788 51.8566H114.73L111.382 37.4524H106.73L112.33 58.6151H117.042L120.567 44.2097H120.627L124.212 58.6151H128.834L134.523 37.4524H129.961L126.493 52.035H126.492ZM148.715 44.6099C148.3 44.067 147.732 43.6426 147.012 43.3354C146.29 43.0308 145.367 42.8779 144.241 42.8779C143.451 42.8779 142.642 43.0792 141.811 43.4858C140.981 43.8898 140.301 44.5372 139.767 45.4268H139.677V37.4524H135.47V58.6138H139.677V50.5821C139.677 49.0209 139.933 47.9006 140.448 47.2175C140.962 46.5369 141.792 46.1953 142.937 46.1953C143.944 46.1953 144.645 46.5063 145.042 47.1295C145.437 47.7515 145.634 48.6946 145.634 49.9589V58.6138H149.842V49.1891C149.842 48.2409 149.757 47.3768 149.59 46.5955C149.422 45.8168 149.131 45.1541 148.716 44.6099H148.715ZM166.048 55.2059V47.234C166.048 46.3037 165.842 45.5581 165.425 44.9961C165.011 44.4327 164.478 43.993 163.827 43.677C163.175 43.3609 162.453 43.1481 161.663 43.0397C160.873 42.9314 160.093 42.8766 159.323 42.8766C158.474 42.8766 157.629 42.9594 156.791 43.129C155.95 43.2972 155.195 43.5788 154.524 43.9739C153.852 44.369 153.297 44.8928 152.865 45.5441C152.43 46.1966 152.182 47.0161 152.124 48.0051H156.331C156.41 47.1754 156.688 46.5815 157.162 46.2259C157.636 45.8704 158.287 45.6932 159.117 45.6932C159.491 45.6932 159.842 45.7174 160.168 45.7671C160.493 45.8168 160.78 45.9137 161.027 46.0628C161.274 46.2106 161.472 46.4184 161.62 46.686C161.768 46.9524 161.841 47.3143 161.841 47.7668C161.861 48.2026 161.732 48.5315 161.457 48.7596C161.179 48.9877 160.804 49.161 160.33 49.2783C159.856 49.3981 159.313 49.4873 158.7 49.5447C158.087 49.6058 157.465 49.6861 156.834 49.783C156.201 49.8824 155.574 50.0149 154.953 50.1832C154.331 50.3501 153.775 50.6038 153.292 50.9377C152.808 51.2754 152.413 51.724 152.106 52.2873C151.8 52.8507 151.647 53.5682 151.647 54.4361C151.647 55.2263 151.781 55.9081 152.047 56.4804C152.314 57.0552 152.684 57.528 153.159 57.904C153.633 58.2799 154.186 58.5565 154.818 58.7349C155.449 58.9121 156.132 59.0013 156.862 59.0013C157.81 59.0013 158.739 58.8624 159.647 58.5871C160.556 58.308 161.347 57.8262 162.019 57.1329C162.038 57.3903 162.072 57.6427 162.122 57.8887C162.172 58.1346 162.235 58.3781 162.314 58.6138H166.581C166.384 58.299 166.245 57.8249 166.166 57.1915C166.085 56.5594 166.046 55.8992 166.046 55.2059H166.048ZM161.841 52.6862C161.841 52.9258 161.817 53.2419 161.768 53.6357C161.719 54.0321 161.585 54.4208 161.367 54.807C161.149 55.1919 160.813 55.5245 160.359 55.7998C159.906 56.0776 159.263 56.2153 158.432 56.2153C158.097 56.2153 157.771 56.186 157.455 56.1248C157.139 56.0662 156.862 55.9616 156.625 55.8138C156.388 55.666 156.201 55.4633 156.062 55.2059C155.924 54.9484 155.854 54.6336 155.854 54.259C155.854 53.8639 155.924 53.5363 156.062 53.2802C156.201 53.024 156.383 52.8111 156.611 52.6429C156.837 52.4747 157.104 52.3421 157.41 52.2427C157.716 52.1446 158.027 52.0656 158.344 52.0057C158.68 51.9471 159.016 51.8961 159.351 51.8578C159.689 51.8196 160.009 51.7686 160.315 51.71C160.622 51.6501 160.907 51.5762 161.175 51.487C161.441 51.3978 161.663 51.2767 161.841 51.1174V52.6875V52.6862ZM173.902 38.6976H169.693V43.2908H167.146V46.1061H169.693V55.1473C169.693 55.9183 169.823 56.5403 170.08 57.0144C170.337 57.4885 170.688 57.8555 171.131 58.1117C171.576 58.3691 172.089 58.5412 172.673 58.6291C173.254 58.7171 173.874 58.763 174.525 58.763C174.942 58.763 175.365 58.7528 175.801 58.7349C176.234 58.7145 176.629 58.6763 176.986 58.6151V55.355C176.787 55.3945 176.581 55.4264 176.363 55.4442C176.146 55.4646 175.919 55.4748 175.682 55.4748C174.972 55.4748 174.497 55.355 174.26 55.1179C174.024 54.8809 173.906 54.4068 173.906 53.6944V46.1061H176.987V43.2908H173.906V38.6976H173.902ZM191.293 51.9024C191.016 51.4181 190.651 51.0129 190.197 50.6866C189.743 50.3616 189.223 50.0991 188.642 49.9002C188.058 49.704 187.461 49.537 186.849 49.3981C186.256 49.2592 185.675 49.1305 185.102 49.0119C184.528 48.8934 184.02 48.7596 183.575 48.613C183.131 48.4639 182.772 48.2727 182.495 48.0344C182.218 47.7974 182.081 47.4928 182.081 47.1155C182.081 46.7994 182.158 46.5471 182.317 46.3598C182.475 46.1724 182.669 46.0297 182.896 45.929C183.124 45.8308 183.374 45.7671 183.65 45.7365C183.927 45.7072 184.184 45.6932 184.42 45.6932C185.171 45.6932 185.823 45.8359 186.377 46.1227C186.929 46.4095 187.236 46.9575 187.294 47.7668H191.294C191.215 46.8186 190.973 46.0335 190.569 45.4103C190.165 44.7883 189.655 44.29 189.044 43.914C188.432 43.5381 187.736 43.2717 186.953 43.1137C186.174 42.9556 185.369 42.8766 184.541 42.8766C183.713 42.8766 182.899 42.9505 182.112 43.0971C181.32 43.2462 180.609 43.5037 179.978 43.8694C179.345 44.2352 178.838 44.7335 178.452 45.3657C178.065 45.9978 177.873 46.8084 177.873 47.7961C177.873 48.4677 178.012 49.0374 178.29 49.5013C178.564 49.9665 178.931 50.3501 179.383 50.6573C179.839 50.9632 180.358 51.2117 180.941 51.3978C181.523 51.5877 182.121 51.7495 182.732 51.8884C184.235 52.2045 185.406 52.5206 186.245 52.8379C187.085 53.154 187.504 53.6281 187.504 54.2602C187.504 54.6362 187.416 54.9446 187.238 55.1919C187.059 55.4404 186.838 55.6367 186.571 55.7845C186.304 55.9336 186.007 56.0432 185.682 56.1108C185.355 56.1809 185.043 56.2153 184.747 56.2153C184.332 56.2153 183.933 56.1656 183.548 56.0674C183.162 55.968 182.822 55.8151 182.525 55.6073C182.229 55.3996 181.986 55.1332 181.798 54.807C181.612 54.4807 181.517 54.092 181.517 53.6357H177.517C177.558 54.663 177.789 55.5181 178.214 56.2C178.638 56.8818 179.181 57.4298 179.843 57.8453C180.505 58.2595 181.262 58.5565 182.112 58.7349C182.959 58.9121 183.829 59.0013 184.717 59.0013C185.605 59.0013 186.441 58.9172 187.281 58.7502C188.121 58.582 188.866 58.2901 189.518 57.8746C190.172 57.4604 190.697 56.9124 191.103 56.2306C191.507 55.5474 191.71 54.7037 191.71 53.6956C191.71 52.9832 191.572 52.3867 191.296 51.9037L191.293 51.9024ZM199.648 37.4524L191.649 58.6151H196.33L197.988 53.9021H205.9L207.498 58.6151H212.329L204.419 37.4524H199.647H199.648ZM199.205 50.4355L201.96 42.6701H202.019L204.686 50.4355H199.205ZM226.879 45.3669C226.306 44.6163 225.585 44.0134 224.716 43.5597C223.847 43.1047 222.81 42.8779 221.606 42.8779C220.657 42.8779 219.789 43.0652 218.999 43.4399C218.206 43.8159 217.556 44.4187 217.044 45.2484H216.984V43.2908H212.982V63.9807H217.193V56.7187H217.25C217.764 57.4706 218.421 58.0378 219.223 58.4214C220.021 58.8063 220.896 59 221.844 59C222.971 59 223.954 58.7808 224.792 58.3475C225.632 57.9129 226.333 57.3292 226.896 56.5976C227.46 55.8661 227.878 55.0275 228.157 54.0793C228.431 53.1298 228.571 52.142 228.571 51.1148C228.571 50.0277 228.431 48.9864 228.157 47.9873C227.878 46.9906 227.455 46.1151 226.881 45.3644L226.879 45.3669ZM224.183 52.806C224.063 53.4 223.861 53.9174 223.575 54.3622C223.288 54.807 222.914 55.1689 222.447 55.4442C221.985 55.7208 221.406 55.861 220.715 55.861C220.025 55.861 219.473 55.722 218.999 55.4442C218.524 55.1689 218.143 54.807 217.857 54.3622C217.57 53.9174 217.363 53.4 217.235 52.806C217.106 52.2134 217.044 51.6106 217.044 51.0001C217.044 50.3896 217.101 49.7537 217.219 49.1623C217.339 48.5697 217.541 48.0459 217.829 47.5896C218.113 47.1359 218.49 46.7663 218.955 46.4796C219.419 46.1928 219.995 46.0475 220.687 46.0475C221.379 46.0475 221.929 46.1928 222.391 46.4796C222.855 46.765 223.236 47.1397 223.532 47.6049C223.828 48.0701 224.039 48.599 224.169 49.1904C224.299 49.783 224.36 50.3871 224.36 51.0001C224.36 51.6131 224.303 52.2147 224.184 52.806H224.183ZM244.922 47.9898C244.646 46.9932 244.221 46.1176 243.648 45.3669C243.074 44.6163 242.356 44.0134 241.486 43.5597C240.616 43.1047 239.579 42.8779 238.374 42.8779C237.427 42.8779 236.557 43.0652 235.768 43.4399C234.978 43.8159 234.325 44.4187 233.812 45.2484H233.754V43.2908H229.754V63.9807H233.961V56.7187H234.021C234.534 57.4706 235.192 58.0378 235.991 58.4214C236.79 58.8063 237.666 59 238.614 59C239.739 59 240.721 58.7808 241.562 58.3475C242.4 57.9129 243.102 57.3292 243.665 56.5976C244.229 55.8661 244.647 55.0275 244.924 54.0793C245.202 53.1298 245.339 52.142 245.339 51.1148C245.339 50.0277 245.202 48.9864 244.924 47.9873L244.922 47.9898ZM240.951 52.806C240.834 53.4 240.631 53.9174 240.345 54.3622C240.057 54.807 239.682 55.1689 239.218 55.4442C238.754 55.7208 238.177 55.861 237.485 55.861C236.793 55.861 236.24 55.722 235.765 55.4442C235.29 55.1689 234.911 54.807 234.623 54.3622C234.338 53.9174 234.13 53.4 234.002 52.806C233.873 52.2134 233.809 51.6106 233.809 51.0001C233.809 50.3896 233.869 49.7537 233.988 49.1623C234.106 48.5697 234.309 48.0459 234.595 47.5896C234.881 47.1359 235.257 46.7663 235.722 46.4796C236.185 46.1928 236.763 46.0475 237.455 46.0475C238.147 46.0475 238.694 46.1928 239.158 46.4796C239.623 46.765 240.003 47.1397 240.3 47.6049C240.597 48.0701 240.81 48.599 240.937 49.1904C241.067 49.783 241.13 50.3871 241.13 51.0001C241.13 51.6131 241.07 52.2147 240.951 52.806Z" fill="#25D366"/>
</svg>
