<svg width="360" height="100" viewBox="0 0 360 100" fill="none" xmlns="http://www.w3.org/2000/svg">
<path d="M192.114 26.7221H205.653L198.842 75.3103H185.304L192.114 26.7221ZM175.046 26.7221L165.91 54.7121L161.923 26.7221H152.455L140.494 54.629L139 26.7221H125.876L130.445 75.3103H141.325L154.78 44.5793L159.515 75.3103H170.229L187.92 26.7221H175.046ZM288.71 54.9612H256.567C256.733 61.274 260.512 65.4266 266.077 65.4266C270.271 65.4266 273.594 63.184 276.169 58.9067L287.02 63.8403C283.291 71.1866 275.433 75.9746 265.745 75.9746C252.539 75.9746 243.776 67.0875 243.776 52.8021C243.776 37.1042 254.075 25.9746 268.61 25.9746C281.401 25.9746 289.457 34.6125 289.457 48.0676C289.457 50.3103 289.208 52.5529 288.71 54.9612ZM276.667 45.659C276.667 40.0112 273.511 36.4398 268.444 36.4398C263.378 36.4398 258.892 40.1773 257.73 45.659H276.667ZM83.5629 41.365L69.7422 57.5155H94.4185L97.1926 49.899H86.6194L93.0812 42.4282L93.102 42.2288L88.8993 34.9988H107.799L93.1477 75.3103H103.173L120.864 26.7221H75.1575L83.5587 41.365H83.5629ZM227.663 36.4398C232.439 36.4398 236.625 39.0062 240.279 43.4082L242.198 29.7122C238.792 27.4074 234.183 25.9746 228.078 25.9746C215.952 25.9746 209.141 33.076 209.141 42.0876C209.141 48.3377 212.63 52.1582 218.361 54.629L221.102 55.8752C226.209 58.0553 227.58 59.1349 227.58 61.4401C227.58 63.7448 225.275 65.3436 221.766 65.3436C215.972 65.3641 211.28 62.3951 207.75 57.3284L205.794 71.2862C209.814 74.3513 214.968 75.9746 221.766 75.9746C233.29 75.9746 240.371 69.3302 240.371 60.1109C240.371 53.8401 237.588 49.812 230.57 46.6558L227.58 45.2438C223.427 43.3958 222.015 42.3783 222.015 40.3434C222.015 38.1424 223.946 36.4398 227.663 36.4398Z" fill="#163300"/>
</svg>
