<svg width="364" height="100" viewBox="0 0 364 100" fill="none" xmlns="http://www.w3.org/2000/svg">
<path d="M106.617 38.2609C107.68 31.7809 104.019 30 104.019 30C104.019 30 104.174 35.2748 94.48 36.393C85.8765 37.3861 57 36.6383 57 36.6383L66.28 47.28C68.793 50.1635 70.127 50.4991 72.953 50.6991C75.7791 50.8887 82.0157 50.8209 86.2435 50.4991C90.8643 50.1443 97.4504 48.6365 101.903 45.1896C104.186 43.4226 106.174 40.967 106.617 38.2609ZM87.2765 67.9287C80.4748 69.7983 65.1461 68.9096 62.6957 68.9096C60.2452 68.9096 57 68.8939 57 68.8939L66.3722 58.3287C68.913 55.4661 70.2122 54.8678 73.047 54.8678C75.8661 54.8678 82.4383 55.1496 86.007 54.8035C92.6191 54.1652 97.7617 52.5078 100.237 50.9496C106.047 47.2887 107.21 44.9722 107.21 44.9722C107.21 44.9722 109.365 61.8574 87.2765 67.9287Z" fill="#1E64F0"/>
<path d="M288.04 39.7026L282.84 52.2922H293.649L288.04 39.7026ZM307.435 68.9583H301.2L296.159 57.7443H280.426L275.699 68.9583H269.445L269.633 68.52L285.969 30.2713H290.188L307.435 68.9583ZM257.578 68.9583H263.625V30.4887H257.578V68.9583ZM221.889 35.8852H233.317V68.9583H239.392V35.8852H251.035V30.4348H221.889V35.8852ZM210.319 48.04L206.178 45.5896C204.36 44.5235 203.026 43.4974 202.219 42.5409C201.433 41.6157 201.035 40.6122 201.035 39.5617C201.035 38.3826 201.552 37.4383 202.612 36.6748C203.689 35.8991 205.092 35.5078 206.788 35.5078C209.83 35.5078 212.719 36.8017 215.374 39.353L215.906 39.8643V32.8087L215.767 32.7148C213.089 30.913 210.105 30 206.896 30C203.529 30 200.746 30.9652 198.628 32.8713C196.501 34.7843 195.421 37.3061 195.421 40.3635C195.421 42.4087 195.993 44.2435 197.119 45.8156C198.232 47.3704 200.117 48.9652 202.724 50.5565L206.839 53.0557C210.047 55.0522 211.673 57.167 211.673 59.3443C211.673 60.6783 211.157 61.76 210.094 62.6504C209.03 63.5426 207.672 63.993 206.058 63.993C202.329 63.993 198.995 62.1635 196.146 58.5548L195.585 57.84V65.7878L195.71 65.88C198.821 68.2104 202.32 69.3913 206.11 69.3913C209.428 69.3913 212.165 68.4052 214.249 66.4626C216.338 64.513 217.397 61.9478 217.397 58.8383C217.397 54.4783 215.016 50.8452 210.319 48.04ZM180.343 68.9583H186.39V30.4887H180.343V68.9583ZM168.4 30.4887H174.484L158.932 69.1217H157.317L145.155 38.8765L132.87 69.1217H131.28L131.202 68.9217L115.778 30.4887H121.913L132.129 56.04L142.412 30.4887H147.96L158.291 56.0383L168.4 30.4887Z" fill="#09152F"/>
</svg>
