<svg width="90" height="90" viewBox="0 0 90 90" fill="none" xmlns="http://www.w3.org/2000/svg">
<path d="M83.2062 25.8793C84.8917 15.6007 79.0876 12.7759 79.0876 12.7759C79.0876 12.7759 79.3303 21.1428 63.9538 22.9166C50.3069 24.4917 4.5 23.3055 4.5 23.3055L19.22 40.1855C23.209 44.7621 25.3248 45.2917 29.8076 45.609C34.2876 45.9097 44.1828 45.8021 50.889 45.2917C58.2186 44.729 68.6655 42.34 75.7303 36.8669C79.3496 34.0669 82.5027 30.169 83.2062 25.8793ZM52.5276 72.9359C41.7386 75.9069 17.4241 74.4945 13.5372 74.4945C9.65034 74.4945 4.5 74.4669 4.5 74.4669L19.3662 57.7111C23.3993 53.1676 25.46 52.2242 29.9565 52.2242C34.4283 52.2242 44.8531 52.6711 50.5138 52.1193C61.0021 51.1042 69.1565 48.4779 73.0848 46.0062C82.3014 40.1993 84.1441 36.5248 84.1441 36.5248C84.1441 36.5248 87.5648 63.3083 52.5276 72.9359Z" fill="#1E64F0"/>
</svg>
