<svg width="300" height="100" viewBox="0 0 300 100" fill="none" xmlns="http://www.w3.org/2000/svg">
<path d="M157.727 28.8335C155.545 29.9244 154.6 31.9608 154.6 37.4881C154.6 37.4881 155.691 36.3972 157.436 35.7426C158.709 35.2699 159.618 34.6517 160.272 34.179C162.163 32.7608 162.454 31.0517 162.454 28.0699C162.418 28.0699 159.436 27.8881 157.727 28.8335Z" fill="#000008"/>
<path d="M144.382 30.1065C142.491 31.6701 142.018 34.361 142.018 34.361L135.909 57.7792L130.891 38.6156C130.418 36.5792 129.473 34.0701 128.054 32.3247C126.309 30.1065 122.673 29.961 122.236 29.961C121.909 29.961 118.309 30.1065 116.418 32.3247C115 34.0701 114.054 36.5792 113.582 38.6156L108.854 57.7792L102.745 34.361C102.745 34.361 102.273 31.8519 100.382 30.1065C97.4 27.4156 93 28.0701 93 28.0701L104.636 71.8883C104.636 71.8883 108.418 72.2156 110.309 71.2701C112.818 69.9974 114.091 69.0883 115.509 63.0883C116.927 57.7428 120.709 42.1792 121 41.0883C121.145 40.6156 121.473 39.1974 122.418 39.1974C123.363 39.1974 123.691 40.4701 123.836 41.0883C124.163 42.1792 127.909 57.7428 129.327 63.0883C130.891 69.0519 131.982 69.9974 134.527 71.2701C136.418 72.2156 140.2 71.8883 140.2 71.8883L151.763 28.0701C151.763 28.0701 147.363 27.4519 144.382 30.1065Z" fill="#000008"/>
<path d="M162.42 35.1242C162.42 35.1242 161.62 36.2151 160.056 37.1606C158.965 37.7788 158.02 38.106 156.929 38.7242C155.038 39.6697 154.565 40.6151 154.565 42.0333V71.7424C154.565 71.7424 157.547 72.0697 159.438 71.1242C161.947 69.8515 162.42 68.6151 162.42 63.2697V35.1242Z" fill="#000008"/>
<path d="M191.328 50.0702L206.092 28.2157C206.092 28.2157 199.983 27.1248 196.819 29.9611C194.783 31.7066 192.746 34.9793 192.746 34.9793L187.401 42.8339C187.074 43.3066 186.783 43.6339 186.31 43.6339C185.837 43.6339 185.365 43.1611 185.219 42.8339L179.874 34.9793C179.874 34.9793 177.692 31.852 175.801 29.9611C172.674 27.1248 166.528 28.2157 166.528 28.2157L180.819 50.0339L166.201 71.852C166.201 71.852 172.638 72.652 175.801 69.8157C177.837 68.0702 179.728 65.0884 179.728 65.0884L185.074 57.2339C185.401 56.7611 185.692 56.4339 186.165 56.4339C186.637 56.4339 187.11 56.9066 187.256 57.2339L192.601 65.0884C192.601 65.0884 194.637 68.0702 196.528 69.8157C199.656 72.652 205.946 71.852 205.946 71.852L191.328 50.0702Z" fill="#000008"/>
</svg>
