<svg width="90" height="90" viewBox="0 0 90 90" fill="none" xmlns="http://www.w3.org/2000/svg">
<rect x="5" y="5" width="80" height="80" rx="8" fill="#000008"/>
<path d="M50.0432 33.4713C48.8085 34.0886 48.2734 35.2411 48.2734 38.3692C48.2734 38.3692 48.8908 37.7518 49.8786 37.3814C50.5988 37.1138 51.1133 36.764 51.4837 36.4964C52.5538 35.6938 52.7185 34.7266 52.7185 33.0391C52.6979 33.0391 51.0104 32.9362 50.0432 33.4713Z" fill="white"/>
<path d="M42.0778 34.1921C41.0077 35.077 40.7402 36.5999 40.7402 36.5999L37.283 49.853L34.4431 39.0077C34.1756 37.8552 33.6405 36.4353 32.8379 35.4475C31.8502 34.1921 29.7923 34.1098 29.5453 34.1098C29.3601 34.1098 27.3228 34.1921 26.2527 35.4475C25.4502 36.4353 24.9151 37.8552 24.6476 39.0077L21.9723 49.853L18.5151 36.5999C18.5151 36.5999 18.2476 35.1799 17.1775 34.1921C15.49 32.6692 13 33.0397 13 33.0397L19.5852 57.8378C19.5852 57.8378 21.7254 58.023 22.7955 57.488C24.2154 56.7677 24.9357 56.2532 25.7383 52.8576C26.5408 49.8324 28.681 41.0245 28.8457 40.4071C28.928 40.1396 29.1132 39.337 29.6482 39.337C30.1833 39.337 30.3685 40.0572 30.4508 40.4071C30.636 41.0245 32.7556 49.8324 33.5582 52.8576C34.4431 56.2326 35.0605 56.7677 36.501 57.488C37.5711 58.023 39.7113 57.8378 39.7113 57.8378L46.2553 33.0397C46.2553 33.0397 43.7653 32.6898 42.0778 34.1921Z" fill="white"/>
<path d="M52.6989 38.3691C52.6989 38.3691 52.2462 38.9864 51.3613 39.5215C50.7439 39.8713 50.2089 40.0566 49.5915 40.4064C48.5214 40.9415 48.2539 41.4765 48.2539 42.2791V59.0925C48.2539 59.0925 49.9414 59.2777 51.0115 58.7426C52.4314 58.0224 52.6989 57.3227 52.6989 54.2975V38.3691Z" fill="white"/>
<path d="M68.9387 45.4897L77.2937 33.1215C77.2937 33.1215 73.8364 32.5041 72.0461 34.1093C70.8937 35.0971 69.7413 36.9493 69.7413 36.9493L66.7162 41.3944C66.531 41.6619 66.3663 41.8472 66.0988 41.8472C65.8313 41.8472 65.5638 41.5796 65.4815 41.3944L62.4564 36.9493C62.4564 36.9493 61.2216 35.1794 60.1515 34.1093C58.3818 32.5041 54.904 33.1215 54.904 33.1215L62.9914 45.4691L54.7188 57.8167C54.7188 57.8167 58.3612 58.2695 60.1515 56.6643C61.304 55.6765 62.3741 53.989 62.3741 53.989L65.3991 49.5438C65.5843 49.2763 65.749 49.0911 66.0165 49.0911C66.284 49.0911 66.5516 49.3586 66.6339 49.5438L69.6589 53.989C69.6589 53.989 70.8114 55.6765 71.8815 56.6643C73.6512 58.2695 77.2114 57.8167 77.2114 57.8167L68.9387 45.4897Z" fill="white"/>
</svg>
