<svg width="281" height="100" viewBox="0 0 281 100" fill="none" xmlns="http://www.w3.org/2000/svg">
<g clip-path="url(#clip0_1350_199)">
<path d="M88.9211 53.0538L77.9235 10.0211H65.9755L55.4116 52.7907L45.7153 10.0211H31.5156L46.5804 71.9274H60.088L71.4316 29.1554L82.5998 71.9274H96.8848L111.95 10.0211H98.9635L88.9211 53.0538Z" fill="black"/>
<path d="M124.955 6.81777C123.616 6.884 122.327 7.34141 121.246 8.13335C120.165 8.92528 119.34 10.0169 118.874 11.2731C118.407 12.5292 118.319 13.8946 118.621 15.2001C118.923 16.5056 119.602 17.6939 120.572 18.6177C121.543 19.5415 122.763 20.1602 124.082 20.3972C125.401 20.6342 126.76 20.4791 127.992 19.9511C129.223 19.423 130.273 18.5453 131.01 17.4266C131.748 16.3078 132.141 14.9973 132.141 13.6574C132.139 12.7301 131.949 11.8129 131.583 10.9611C131.217 10.1092 130.682 9.34047 130.01 8.70122C129.338 8.06197 128.544 7.5655 127.675 7.24178C126.806 6.91806 125.881 6.77382 124.955 6.81777Z" fill="black"/>
<path d="M131.277 26.6447H118.809V71.9268H131.277V26.6447Z" fill="black"/>
<path d="M140.717 36.3417H160.804L138.465 70.5432V71.9274H178.118V62.2311H156.476L178.988 28.2026V26.6454H140.717V36.3417Z" fill="black"/>
<path d="M205.921 25.6054C202.81 25.4896 199.708 26.0216 196.812 27.1676C193.917 28.3136 191.291 30.0486 189.102 32.2628C186.912 34.4769 185.206 37.1217 184.092 40.0297C182.979 42.9377 182.481 46.0453 182.632 49.1556V49.8498C182.632 64.3078 192.589 72.8803 206.269 72.8803C218.649 72.8803 226.443 67.4249 227.913 57.6401H216.052C215.272 61.4501 212.416 63.9613 206.616 63.9613C199.773 63.9613 195.707 59.6332 195.359 52.0989H228V48.637C228 32.4476 217.61 25.6054 205.921 25.6054ZM195.533 44.3944C196.485 37.9874 200.295 34.2643 205.921 34.2643C211.894 34.2643 215.36 37.5534 215.793 44.3944H195.533Z" fill="black"/>
<path d="M267.752 6.12451V33.3975C266.365 30.8683 264.282 28.7898 261.75 27.4087C259.218 26.0275 256.343 25.4017 253.466 25.6054C242.124 25.6054 233.551 34.3501 233.551 49.2435V49.9356C233.551 65.0014 242.21 72.8803 253.207 72.8803C256.17 72.904 259.085 72.1284 261.644 70.6352C264.204 69.1419 266.314 66.9863 267.752 64.3951V71.927H280.219V6.12451H267.752ZM268.096 49.5026C268.096 58.6801 263.509 63.0964 256.928 63.0964C250.695 63.0964 246.367 58.6801 246.367 49.6763V48.9842C246.367 39.9776 250.262 35.2169 257.276 35.2169C264.115 35.2169 268.096 39.8055 268.096 48.8107V49.5026Z" fill="black"/>
<path d="M0 80.0002H23.896V70.7376H12.5548V9.26261H23.896V0H0V80.0002Z" fill="black"/>
</g>
<defs>
<clipPath id="clip0_1350_199">
<rect width="280.217" height="80" fill="white"/>
</clipPath>
</defs>
</svg>
