<svg width="90" height="90" viewBox="0 0 90 90" fill="none" xmlns="http://www.w3.org/2000/svg">
<path fill-rule="evenodd" clip-rule="evenodd" d="M12.449 24.5H77.551C78.5294 24.5 79.4984 24.6928 80.4023 25.0673C81.3063 25.4419 82.1276 25.9908 82.8193 26.6829C83.5111 27.3749 84.0597 28.1965 84.4339 29.1006C84.808 30.0047 85.0004 30.9737 85 31.9522V56.7897C85 57.7678 84.8073 58.7363 84.4329 59.6398C84.0585 60.5434 83.5098 61.3644 82.818 62.0559C82.1263 62.7473 81.3051 63.2957 80.4014 63.6697C79.4976 64.0437 78.529 64.236 77.551 64.2356H54.2027L57.3983 72.0908L43.2936 64.2356H12.4396C10.4662 64.2331 8.57438 63.4476 7.17954 62.0516C5.78471 60.6556 5.00083 58.7631 5 56.7897V31.9522C5 29.9763 5.78471 28.0813 7.18158 26.6838C8.57846 25.2863 10.4731 24.5008 12.449 24.5Z" fill="#7D57A4"/>
<path d="M9.02663 31.2469C9.27302 30.939 9.58398 30.6889 9.93758 30.5143C10.2912 30.3396 10.6788 30.2448 11.0731 30.2363C12.7333 30.1208 13.6862 30.9037 13.9318 32.585C14.9561 39.4043 16.0527 45.1932 17.2218 49.9514L24.3875 36.3252C25.0361 35.0953 25.8557 34.4446 26.8464 34.3732C28.282 34.2725 29.1793 35.1866 29.5382 37.1155C30.2126 40.9298 31.2489 44.6713 32.6331 48.2891C33.4936 39.9899 34.9303 33.9902 36.9432 30.2898C37.1374 29.8748 37.4412 29.5206 37.8217 29.2654C38.2023 29.0102 38.6453 28.8637 39.103 28.8416C39.8481 28.7803 40.5879 29.0118 41.1651 29.487C41.4598 29.7095 41.7019 29.994 41.8744 30.3204C42.0469 30.6469 42.1454 31.0072 42.1632 31.376C42.2159 31.9203 42.1063 32.468 41.8483 32.9502C40.5722 35.3178 39.5228 39.2543 38.7 44.7597C37.8877 50.0742 37.5876 54.2311 37.7995 57.2304C37.8739 57.9656 37.742 58.7069 37.4186 59.3713C37.2616 59.7067 37.017 59.9934 36.7105 60.2012C36.4041 60.409 36.0472 60.5302 35.6776 60.552C34.8149 60.6149 33.9554 60.2088 33.0896 59.3398C30.0504 56.2229 27.6366 51.5854 25.8484 45.4272C23.7494 49.625 22.1753 52.765 21.1258 54.8471C19.2053 58.5412 17.5598 60.4355 16.1892 60.5299C15.2992 60.5929 14.5415 59.8457 13.916 58.2883C12.2369 54.0128 10.436 45.741 8.51345 33.4728C8.43746 33.0866 8.4439 32.6886 8.53233 32.3051C8.62077 31.9215 8.78921 31.5609 9.02663 31.2469Z" fill="white"/>
<path d="M79.3014 36.3852C78.7612 35.4102 78.0129 34.5663 77.1096 33.9133C76.2063 33.2603 75.1702 32.8144 74.0751 32.6071C73.4912 32.4837 72.8962 32.4204 72.2994 32.4182C69.1678 32.4182 66.6092 34.048 64.6237 37.3077C62.9328 40.0796 62.0526 43.2699 62.0829 46.5167C62.0829 49.0353 62.6077 51.1941 63.6571 52.9929C64.1968 53.9688 64.9453 54.8136 65.8493 55.4667C66.7534 56.1198 67.7905 56.5651 68.8866 56.7709C69.469 56.897 70.0631 56.9614 70.6591 56.9629C73.8222 56.9629 76.3797 55.3331 78.3317 52.0735C80.0224 49.2818 80.9032 46.0747 80.8755 42.811C80.8755 40.2923 80.3508 38.1504 79.3014 36.3852ZM75.177 45.4556C74.7299 47.5965 73.9009 49.2096 72.6898 50.2947C71.7306 51.1574 70.8511 51.5089 70.0515 51.3494C69.2518 51.1899 68.6106 50.4846 68.1278 49.2337C67.7579 48.2848 67.5627 47.2769 67.5517 46.2585C67.5486 45.4527 67.6288 44.6487 67.7909 43.8594C68.1026 42.4628 68.6891 41.1421 69.5162 39.9743C70.6035 38.3771 71.739 37.7065 72.9228 37.9625C73.7225 38.1241 74.3626 38.8273 74.8433 40.0719C75.2119 41.02 75.4061 42.0269 75.4163 43.044C75.4204 43.854 75.3402 44.6622 75.177 45.4556Z" fill="white"/>
<path d="M58.8116 36.3852C58.2714 35.4102 57.5231 34.5663 56.6198 33.9133C55.7165 33.2603 54.6804 32.8144 53.5853 32.6071C53.0014 32.4837 52.4064 32.4204 51.8096 32.4182C48.6759 32.4182 46.1184 34.048 44.137 37.3077C42.4438 40.0787 41.5624 43.2694 41.5931 46.5167C41.5931 49.0353 42.1179 51.1941 43.1673 52.9929C43.7061 53.9695 44.4544 54.8148 45.3586 55.468C46.2627 56.1212 47.3003 56.5662 48.3968 56.7709C48.9792 56.897 49.5733 56.9614 50.1693 56.9629C53.3345 56.9629 55.893 55.3331 57.845 52.0735C59.5416 49.2832 60.4299 46.0766 60.4109 42.811C60.4109 40.2923 59.8862 38.1504 58.8368 36.3852H58.8116ZM54.6872 45.4556C54.2401 47.6007 53.409 49.2159 52.1937 50.301C51.2324 51.1636 50.353 51.5152 49.5554 51.3557C48.7578 51.1962 48.1187 50.4888 47.638 49.2337C47.2681 48.2848 47.0729 47.2769 47.0619 46.2585C47.0588 45.4527 47.139 44.6487 47.3011 43.8594C47.6155 42.4637 48.2018 41.1435 49.0264 39.9743C50.1095 38.3813 51.245 37.7128 52.433 37.9688C53.2327 38.1304 53.8718 38.8336 54.3503 40.0782C54.7199 41.0261 54.9151 42.033 54.9265 43.0503C54.9297 43.8561 54.8495 44.6601 54.6872 45.4494V45.4556Z" fill="white"/>
</svg>
