<svg width="364" height="100" viewBox="0 0 364 100" fill="none" xmlns="http://www.w3.org/2000/svg">
<path fill-rule="evenodd" clip-rule="evenodd" d="M65.8261 28.5H134.224C135.252 28.5 136.27 28.7025 137.219 29.096C138.169 29.4896 139.032 30.0663 139.759 30.7934C140.486 31.5205 141.062 32.3836 141.455 33.3335C141.848 34.2834 142.05 35.3014 142.05 36.3295V62.4243C142.05 63.4519 141.847 64.4694 141.454 65.4188C141.061 66.3681 140.484 67.2306 139.757 67.9571C139.031 68.6835 138.168 69.2597 137.218 69.6526C136.269 70.0456 135.251 70.2476 134.224 70.2472H109.693L113.051 78.5L98.2321 70.2472H65.8162C63.7429 70.2445 61.7553 69.4193 60.2899 67.9526C58.8244 66.4859 58.0009 64.4976 58 62.4243V36.3295C58 34.2535 58.8244 32.2626 60.292 30.7944C61.7596 29.3262 63.7502 28.5009 65.8261 28.5Z" fill="#7D57A4"/>
<path d="M62.2307 35.5885C62.4895 35.265 62.8162 35.0022 63.1877 34.8187C63.5592 34.6353 63.9665 34.5356 64.3807 34.5267C66.125 34.4054 67.1261 35.2279 67.3841 36.9943C68.4603 44.1589 69.6125 50.2407 70.8407 55.2398L78.3692 40.9239C79.0506 39.6317 79.9117 38.9481 80.9525 38.8731C82.4609 38.7672 83.4036 39.7276 83.7806 41.7541C84.4892 45.7616 85.5779 49.6924 87.0322 53.4934C87.9363 44.7741 89.4457 38.4706 91.5605 34.5829C91.7645 34.1469 92.0836 33.7748 92.4835 33.5067C92.8833 33.2385 93.3487 33.0846 93.8296 33.0614C94.6125 32.997 95.3896 33.2402 95.9962 33.7395C96.3057 33.9732 96.5601 34.2721 96.7413 34.6151C96.9225 34.9581 97.0261 35.3367 97.0447 35.7241C97.1001 36.296 96.985 36.8714 96.7139 37.378C95.3732 39.8654 94.2706 44.0012 93.4062 49.7854C92.5528 55.3689 92.2375 59.7362 92.4602 62.8874C92.5383 63.6598 92.3997 64.4386 92.0599 65.1366C91.895 65.489 91.638 65.7902 91.316 66.0085C90.994 66.2269 90.6191 66.3542 90.2308 66.3771C89.3244 66.4432 88.4214 66.0165 87.5118 65.1036C84.3187 61.8289 81.7828 56.9566 79.904 50.4866C77.6988 54.8969 76.0449 58.1959 74.9423 60.3834C72.9246 64.2645 71.1958 66.2547 69.7558 66.3539C68.8208 66.4201 68.0247 65.635 67.3676 63.9988C65.6035 59.5068 63.7114 50.8163 61.6915 37.9271C61.6117 37.5213 61.6184 37.1032 61.7114 36.7002C61.8043 36.2972 61.9812 35.9184 62.2307 35.5885Z" fill="white"/>
<path d="M136.063 40.9867C135.495 39.9624 134.709 39.0757 133.76 38.3897C132.811 37.7036 131.723 37.2351 130.572 37.0174C129.959 36.8877 129.333 36.8212 128.706 36.8189C125.416 36.8189 122.728 38.5313 120.642 41.9559C118.866 44.8681 117.941 48.2199 117.973 51.6311C117.973 54.2773 118.524 56.5453 119.627 58.4351C120.194 59.4605 120.98 60.348 121.93 61.0342C122.88 61.7204 123.969 62.1882 125.121 62.4044C125.733 62.5369 126.357 62.6046 126.983 62.6062C130.306 62.6062 132.993 60.8939 135.044 57.4692C136.82 54.5362 137.746 51.1668 137.717 47.7378C137.717 45.0916 137.165 42.8413 136.063 40.9867ZM131.73 50.5163C131.26 52.7656 130.389 54.4603 129.117 55.6004C128.109 56.5067 127.185 56.8761 126.345 56.7085C125.505 56.5409 124.831 55.7999 124.324 54.4857C123.935 53.4887 123.73 52.4297 123.718 51.3598C123.715 50.5132 123.799 49.6686 123.97 48.8393C124.297 47.372 124.913 45.9844 125.782 44.7576C126.925 43.0794 128.118 42.3749 129.361 42.6439C130.202 42.8137 130.874 43.5524 131.379 44.8601C131.766 45.8561 131.97 46.914 131.981 47.9826C131.985 48.8336 131.901 49.6828 131.73 50.5163Z" fill="white"/>
<path d="M114.536 40.9867C113.969 39.9624 113.182 39.0757 112.233 38.3897C111.284 37.7036 110.196 37.2351 109.045 37.0174C108.432 36.8877 107.807 36.8212 107.18 36.8189C103.887 36.8189 101.2 38.5313 99.1186 41.9559C97.3397 44.8672 96.4137 48.2194 96.446 51.6311C96.446 54.2773 96.9972 56.5453 98.0998 58.4351C98.6659 59.4612 99.4521 60.3493 100.402 61.0356C101.352 61.7219 102.442 62.1893 103.594 62.4044C104.206 62.5369 104.83 62.6046 105.456 62.6062C108.782 62.6062 111.47 60.8939 113.521 57.4692C115.303 54.5377 116.236 51.1687 116.216 47.7378C116.216 45.0916 115.665 42.8413 114.562 40.9867H114.536ZM110.203 50.5163C109.733 52.77 108.86 54.4669 107.583 55.607C106.573 56.5133 105.649 56.8827 104.811 56.7151C103.973 56.5475 103.302 55.8043 102.797 54.4857C102.408 53.4887 102.203 52.4297 102.192 51.3598C102.188 50.5132 102.273 49.6686 102.443 48.8393C102.773 47.3729 103.389 45.9859 104.256 44.7576C105.393 43.0838 106.586 42.3815 107.835 42.6505C108.675 42.8203 109.346 43.559 109.849 44.8667C110.237 45.8626 110.442 46.9204 110.454 47.9892C110.458 48.8358 110.373 49.6805 110.203 50.5097V50.5163Z" fill="white"/>
<path d="M150.739 40.6924C148.453 42.9659 147.309 45.847 147.309 49.3355C147.309 53.0998 148.443 56.1396 150.71 58.455C152.976 60.7704 155.941 61.9237 159.604 61.9149C160.817 61.8854 162.022 61.6974 163.186 61.3559V55.8088C162.173 56.1297 161.12 56.3067 160.057 56.3347C158.238 56.3347 156.783 55.7239 155.691 54.5022C154.599 53.2806 154.055 51.6212 154.057 49.5241C154.057 47.5769 154.598 45.9715 155.681 44.708C156.176 44.1046 156.8 43.6209 157.508 43.2932C158.216 42.9656 158.989 42.8024 159.769 42.816C160.926 42.8242 162.075 42.9911 163.186 43.3121V37.7385C161.961 37.4267 160.7 37.2743 159.435 37.2854C155.931 37.2854 153.033 38.421 150.739 40.6924ZM174.582 37.2854C171.413 37.2854 168.937 38.3395 167.156 40.4476C165.374 42.5557 164.492 45.4952 164.509 49.2661C164.509 53.3545 165.392 56.4814 167.156 58.6469C168.92 60.8123 171.484 61.8962 174.849 61.8984C178.102 61.8984 180.607 60.8145 182.365 58.6469C184.122 56.4792 185.006 53.4382 185.017 49.5241C185.017 45.6011 184.124 42.5822 182.338 40.4674C180.552 38.3527 177.966 37.292 174.582 37.2854ZM177.304 55.1473C177.02 55.6096 176.618 55.9881 176.14 56.2439C175.662 56.4997 175.124 56.6235 174.582 56.6027C174.069 56.6179 173.562 56.4897 173.118 56.2326C172.673 55.9755 172.31 55.5997 172.068 55.1473C171.492 54.1814 171.204 52.2486 171.204 49.3488C171.204 44.8348 172.343 42.5778 174.621 42.5778C177.047 42.5778 178.26 44.8612 178.26 49.4281C178.253 52.264 177.935 54.1704 177.304 55.1473ZM202.009 37.9469L200.779 43.1996C200.459 44.5448 200.16 45.923 199.883 47.3343L199.194 50.9729C198.533 47.341 197.637 43.0023 196.505 37.9569H188.517L185.517 61.3427H191.501L193.128 45.2273L197.213 61.3427H201.49L205.387 45.224L207.077 61.3063H213.332L210.156 37.9469H202.009ZM230.628 37.9469L229.398 43.1996C229.078 44.5448 228.779 45.923 228.501 47.3343L227.813 50.9729C227.152 47.341 226.254 43.0023 225.121 37.9569H217.136L214.126 61.3195H220.109L221.733 45.2041L225.822 61.3195H230.095L234.005 45.224L235.695 61.3063H241.95L238.782 37.9469H230.628ZM250.048 52.071H255.671V47.2086H250.048V42.9086H256.511V37.9469H243.73V61.3328H256.554V56.3281H250.048V52.071ZM274.35 48.3829C275.207 47.0215 275.518 45.3862 275.22 43.8052C274.922 42.2242 274.037 40.8145 272.742 39.8588C271.02 38.5842 268.672 37.9469 265.697 37.9469H258.334V61.3328H264.655V50.6686H264.757L269.865 61.3195H276.54L271.492 50.7744C272.671 50.2953 273.67 49.459 274.35 48.3829ZM264.655 48.0058V42.4521C266.152 42.4874 267.225 42.7388 267.873 43.2063C268.522 43.6738 268.846 44.4456 268.846 45.5217C268.846 47.1315 267.449 47.9595 264.655 48.0058ZM279.07 40.6924C276.777 42.9659 275.63 45.847 275.63 49.3355C275.63 53.0998 276.766 56.1341 279.037 58.4385C281.308 60.7429 284.273 61.8962 287.931 61.8984C289.148 61.8753 290.357 61.6929 291.527 61.3559V55.8088C290.514 56.1297 289.46 56.3067 288.398 56.3347C286.576 56.3347 285.12 55.7239 284.028 54.5022C282.937 53.2806 282.389 51.6212 282.384 49.5241C282.384 47.5769 282.927 45.9715 284.012 44.708C284.506 44.1046 285.131 43.6209 285.839 43.2932C286.547 42.9656 287.32 42.8024 288.1 42.816C289.26 42.8235 290.413 42.9904 291.527 43.3121V37.7385C290.298 37.4258 289.034 37.2735 287.766 37.2854C284.262 37.2854 281.363 38.421 279.07 40.6924ZM299.578 56.3281V52.071H305.201V47.2086H299.578V42.9086H306.041V37.9469H293.257V61.3328H306.081V56.3281H299.578Z" fill="#000008"/>
</svg>
