<svg width="300" height="100" viewBox="0 0 300 100" fill="none" xmlns="http://www.w3.org/2000/svg">
<path d="M167.077 60.3314H166.688C164.688 60.3314 164.411 59.8314 164.411 57.276V45.2214H167.077C172.854 45.2214 173.91 49.4428 173.91 52.7207C173.91 56.1095 172.854 60.3314 167.077 60.3314ZM143.634 52.6092V45.2214H145.912C148.412 45.2214 149.523 46.9431 149.523 48.9429C149.523 50.8875 148.412 52.6092 145.912 52.6092H143.634ZM166.91 43.555H156.966V44.6099C160.077 44.6099 160.577 45.2766 160.577 49.2211V56.3319C160.577 60.2757 160.077 60.998 156.966 60.998C154.578 60.6648 152.967 59.3867 150.745 56.9426L148.19 54.1654C151.634 53.5539 153.467 51.3875 153.467 48.9429C153.467 45.8881 150.856 43.555 145.967 43.555H136.19V44.6099C139.301 44.6099 139.801 45.2766 139.801 49.2211V56.3319C139.801 60.2757 139.301 60.998 136.19 60.998V62.0531H147.245V60.998C144.134 60.998 143.634 60.2757 143.634 56.3319V54.332H144.579L150.745 62.0531H166.91C174.854 62.0531 178.298 57.8317 178.298 52.7758C178.298 47.7211 174.854 43.555 166.91 43.555Z" fill="#32373C"/>
<path d="M105.247 54.6652L109.08 43.3317C110.191 40.0546 109.691 39.1104 106.136 39.1104V37.999H116.58V39.1104C113.08 39.1104 112.247 39.9437 110.858 43.999L104.525 62.9977H103.803L98.1363 45.6098L92.3593 62.9977H91.6369L85.471 43.999C84.1376 39.9437 83.2487 39.1104 80.0266 39.1104V37.999H92.3593V39.1104C89.0814 39.1104 88.1925 39.8879 89.3596 43.3317L93.081 54.6652L98.6919 37.999H99.7476L105.247 54.6652Z" fill="#32373C"/>
<path d="M124.134 44.5558C119.024 44.5558 117.246 49.1663 117.246 52.7768C117.246 56.4438 119.024 60.9991 124.134 60.9991C129.301 60.9991 131.078 56.4438 131.078 52.7768C131.078 49.1663 129.301 44.5558 124.134 44.5558ZM124.134 62.7765C118.024 62.7765 113.024 58.2769 113.024 52.7768C113.024 47.3331 118.024 42.833 124.134 42.833C130.245 42.833 135.245 47.3331 135.245 52.7768C135.245 58.2769 130.245 62.7765 124.134 62.7765Z" fill="#32373C"/>
<path d="M190.795 39.999H187.628V49.6654H190.795C193.906 49.6654 195.35 47.4989 195.35 44.8882C195.35 42.2219 193.906 39.999 190.795 39.999ZM192.017 60.9424V62.0531H179.296V60.9424C183.018 60.9424 183.685 59.9983 183.685 54.4424V45.5548C183.685 39.999 183.018 39.1107 179.296 39.1107V37.9992H190.795C196.517 37.9992 199.683 40.9438 199.683 44.8882C199.683 48.7213 196.517 51.721 190.795 51.721H187.628V54.4424C187.628 59.9983 188.295 60.9424 192.017 60.9424Z" fill="#32373C"/>
<path d="M208.405 52.6098V45.222H210.683C213.182 45.222 214.294 46.9437 214.294 48.9435C214.294 50.8881 213.182 52.6098 210.683 52.6098H208.405ZM237.846 56.8325L237.569 57.8323C237.069 59.6655 236.457 60.332 232.514 60.332H231.736C228.847 60.332 228.347 59.6655 228.347 55.721V53.1661C232.68 53.1661 233.014 53.5545 233.014 56.4434H234.069V48.166H233.014C233.014 51.0548 232.68 51.4432 228.347 51.4432V45.222H231.402C235.347 45.222 235.958 45.8887 236.457 47.7217L236.736 48.7767H237.624L237.236 43.5556H220.903V44.6107C224.014 44.6107 224.514 45.2772 224.514 49.2217V56.3325C224.514 59.9404 224.089 60.8493 221.637 60.9788C219.305 60.623 217.705 59.3514 215.515 56.9432L212.96 54.166C216.404 53.5545 218.238 51.3881 218.238 48.9435C218.238 45.8887 215.627 43.5556 210.738 43.5556H200.961V44.6107C204.072 44.6107 204.572 45.2772 204.572 49.2217V56.3325C204.572 60.2763 204.072 60.9986 200.961 60.9986V62.0537H212.016V60.9986C208.905 60.9986 208.405 60.2763 208.405 56.3325V54.3326H209.349L215.515 62.0537H238.346L238.68 56.8325H237.846Z" fill="#32373C"/>
<path d="M249.125 62.7765C246.903 62.7765 244.958 61.61 244.125 60.8876C243.847 61.1657 243.348 61.9991 243.237 62.7765H242.181V55.1106H243.292C243.737 58.7769 246.292 60.9433 249.569 60.9433C251.347 60.9433 252.792 59.9435 252.792 58.2769C252.792 56.8328 251.513 55.7213 249.236 54.6663L246.07 53.1665C243.847 52.1103 242.181 50.2771 242.181 47.8331C242.181 45.1668 244.681 42.8893 248.125 42.8893C249.959 42.8893 251.513 43.556 252.458 44.3334C252.736 44.111 253.013 43.4995 253.181 42.833H254.236V49.3887H253.069C252.68 46.7775 251.236 44.611 248.292 44.611C246.736 44.611 245.292 45.5001 245.292 46.889C245.292 48.3331 246.458 49.1106 249.125 50.3328L252.18 51.8327C254.847 53.1101 255.902 55.1663 255.902 56.8328C255.902 60.3325 252.847 62.7765 249.125 62.7765Z" fill="#32373C"/>
<path d="M265.925 62.7765C263.703 62.7765 261.758 61.61 260.925 60.8876C260.647 61.1657 260.147 61.9991 260.036 62.7765H258.981V55.1106H260.091C260.536 58.7769 263.091 60.9433 266.369 60.9433C268.146 60.9433 269.591 59.9435 269.591 58.2769C269.591 56.8328 268.313 55.7213 266.036 54.6663L262.869 53.1665C260.647 52.1103 258.981 50.2771 258.981 47.8331C258.981 45.1668 261.48 42.8893 264.925 42.8893C266.758 42.8893 268.313 43.556 269.258 44.3334C269.535 44.111 269.813 43.4995 269.98 42.833H271.035V49.3887H269.869C269.48 46.7775 268.035 44.611 265.092 44.611C263.536 44.611 262.091 45.5001 262.091 46.889C262.091 48.3331 263.258 49.1106 265.925 50.3328L268.98 51.8327C271.647 53.1101 272.702 55.1663 272.702 56.8328C272.702 60.3325 269.646 62.7765 265.925 62.7765Z" fill="#32373C"/>
<path d="M52.532 25C38.7255 25 27.5332 36.1923 27.5332 49.9988C27.5332 63.8052 38.7255 74.9975 52.532 74.9975C66.3385 74.9975 77.5308 63.8052 77.5308 49.9988C77.5308 36.1923 66.3385 25 52.532 25ZM52.532 26.4999C55.705 26.4999 58.7823 27.1211 61.6783 28.346C63.0705 28.9348 64.4132 29.6636 65.6693 30.5122C66.914 31.3531 68.0845 32.3189 69.1482 33.3826C70.2119 34.4463 71.1775 35.6168 72.0184 36.8614C72.8671 38.1176 73.596 39.4603 74.1848 40.8524C75.4097 43.7485 76.0308 46.8258 76.0308 49.9988C76.0308 53.1717 75.4097 56.249 74.1848 59.1451C73.596 60.5372 72.8671 61.8799 72.0184 63.1361C71.1775 64.3807 70.2119 65.5512 69.1482 66.6149C68.0845 67.6786 66.914 68.6444 65.6693 69.4852C64.4132 70.3339 63.0705 71.0627 61.6783 71.6515C58.7823 72.8764 55.705 73.4976 52.532 73.4976C49.359 73.4976 46.2817 72.8764 43.3857 71.6515C41.9937 71.0627 40.6507 70.3339 39.3947 69.4852C38.15 68.6444 36.9795 67.6786 35.9158 66.6149C34.8521 65.5512 33.8864 64.3807 33.0456 63.1361C32.1969 61.8799 31.468 60.5372 30.8792 59.1451C29.6543 56.249 29.0332 53.1717 29.0332 49.9988C29.0332 46.8258 29.6543 43.7485 30.8792 40.8524C31.468 39.4603 32.1969 38.1176 33.0456 36.8614C33.8864 35.6168 34.8521 34.4463 35.9158 33.3826C36.9795 32.3189 38.15 31.3531 39.3947 30.5122C40.6507 29.6636 41.9937 28.9348 43.3857 28.346C46.2817 27.1211 49.359 26.4999 52.532 26.4999Z" fill="#32373C"/>
<path d="M70.8116 40.0039C70.901 40.6673 70.9518 41.3791 70.9518 42.1459C70.9518 44.2591 70.5557 46.6355 69.3671 49.6073L63.0044 68.0036C69.1979 64.3928 73.363 57.6831 73.363 49.9977C73.363 46.3757 72.4373 42.9709 70.8116 40.0039ZM52.8966 51.8198L46.6453 69.9819C48.5123 70.5312 50.4859 70.8307 52.5307 70.8307C54.9566 70.8307 57.2838 70.412 59.449 69.6496C59.3932 69.5605 59.3419 69.4659 59.2994 69.3626L52.8966 51.8198ZM66.5941 48.9471C66.5941 46.3716 65.669 44.5892 64.8768 43.202C63.8207 41.4852 62.8304 40.0327 62.8304 38.316C62.8304 36.4013 64.2825 34.6188 66.3288 34.6188C66.4212 34.6188 66.5087 34.6299 66.5985 34.6356C62.8922 31.2396 57.954 29.1662 52.5307 29.1662C45.2524 29.1662 38.8497 32.9007 35.1247 38.5555C35.6139 38.571 36.0747 38.5808 36.4654 38.5808C38.644 38.5808 42.0177 38.316 42.0177 38.316C43.1401 38.2502 43.2729 39.9001 42.1509 40.0327C42.1509 40.0327 41.022 40.165 39.7668 40.2306L47.3527 62.7958L51.9123 49.1232L48.6668 40.2306C47.5444 40.165 46.4819 40.0327 46.4819 40.0327C45.3589 39.9664 45.4904 38.2502 46.614 38.316C46.614 38.316 50.0536 38.5808 52.1005 38.5808C54.2789 38.5808 57.6534 38.316 57.6534 38.316C58.7763 38.2502 58.9084 39.9001 57.786 40.0327C57.786 40.0327 56.6561 40.165 55.4019 40.2306L62.9305 62.624L65.0796 55.8142C66.0344 52.8381 66.5941 50.7296 66.5941 48.9471ZM31.6984 49.9977C31.6984 58.2431 36.4899 65.3695 43.4398 68.7459L33.5022 41.5197C32.3464 44.1104 31.6984 46.9775 31.6984 49.9977Z" fill="#32373C"/>
</svg>
