<svg width="417" height="100" viewBox="0 0 417 100" fill="none" xmlns="http://www.w3.org/2000/svg">
<mask id="mask0_1350_207" style="mask-type:luminance" maskUnits="userSpaceOnUse" x="0" y="0" width="417" height="100">
<path d="M416.667 0H0V100H416.667V0Z" fill="white"/>
</mask>
<g mask="url(#mask0_1350_207)">
<path d="M182.208 8.32997C181.212 6.55765 179.874 4.99997 178.273 3.74664C176.4 2.34997 174.115 1.61906 171.779 1.66997C169.45 1.62686 167.17 2.34325 165.285 3.7108C163.655 4.94094 162.296 6.49379 161.292 8.27247L122.402 73.1141L138.897 88.925L171.254 34.0391L185.081 57.2716H164.414L155.041 73.4916L194.707 73.575L205.802 92.1875H232.676L182.208 8.32997Z" fill="#0E99E1"/>
<path d="M281.075 2.11667V55.5183L231.075 5.905C229.861 4.64144 228.433 3.60191 226.858 2.83417C225.36 2.13778 223.727 1.77715 222.075 1.7775C220.475 1.73295 218.885 2.04447 217.42 2.68954C215.954 3.33461 214.651 4.29712 213.603 5.5075C211.568 8.02236 210.518 11.1917 210.647 14.4242V48.1283L232.523 84.7458V38.8875L282.303 88.955C285.118 91.7642 288.286 93.1908 291.735 93.1908C293.291 93.2199 294.834 92.9073 296.256 92.2749C297.677 91.6425 298.943 90.7058 299.963 89.5308C301.947 87.2658 302.952 84.2333 302.952 80.5308V2.11667H281.075Z" fill="#0E99E1"/>
<path d="M409.851 28.9966C407.838 23.7577 404.748 19.0001 400.779 15.032C396.811 11.064 392.052 7.97404 386.813 5.96245C381.185 3.78965 375.196 2.70407 369.163 2.76328H349.457C343.577 2.71348 337.741 3.77721 332.257 5.89828C327.08 7.92388 322.362 10.9701 318.386 14.8558C314.376 18.8216 311.24 23.5817 309.178 28.8308C306.953 34.5055 305.839 40.5549 305.897 46.65C305.851 52.7716 306.949 58.8479 309.134 64.5666C311.193 69.9484 314.296 74.8697 318.265 79.0466C322.207 83.1415 326.919 86.4183 332.13 88.6891C337.603 91.0686 343.515 92.2718 349.482 92.2208H369.177C377.97 92.3591 386.592 89.7788 393.865 84.8326C401.137 79.8863 406.704 72.8153 409.807 64.5858C411.993 58.8676 413.091 52.7909 413.044 46.6691C413.111 40.629 412.028 34.6313 409.851 28.9966ZM369.176 69.6458H349.457C346.566 69.6745 343.701 69.1071 341.04 67.9791C338.553 66.9237 336.309 65.3714 334.443 63.4175C332.537 61.3836 331.054 58.9912 330.08 56.3791C328.987 53.48 328.441 50.4038 328.467 47.3058C328.426 44.2161 328.968 41.1465 330.067 38.2583C331.05 35.7054 332.529 33.3721 334.417 31.3925C336.285 29.4679 338.525 27.9439 341.001 26.9133C343.685 25.8283 346.559 25.293 349.453 25.3391H369.173C372.133 25.306 375.07 25.8621 377.813 26.975C380.351 27.9881 382.648 29.5224 384.556 31.4787C386.464 33.4351 387.94 35.77 388.889 38.3325C389.985 41.2051 390.532 44.258 390.502 47.3325C390.528 50.4305 389.982 53.5067 388.889 56.4058C387.91 59.0111 386.415 61.392 384.493 63.4058C382.584 65.3683 380.299 66.9269 377.775 67.9891C375.051 69.1209 372.125 69.684 369.176 69.6458Z" fill="#0E99E1"/>
<path d="M92.3463 44.8841L136.841 2.78247H97.7338L72.793 26.3858L92.1996 44.7425L92.3463 44.8841Z" fill="#0461BD"/>
<path d="M92.1996 50.2266L72.793 68.59L97.7338 92.1875H136.841L92.3463 50.0858L92.1996 50.2266Z" fill="#0461BD"/>
<path d="M42.3575 2.78247H3.25L50.4892 47.4883L3.25 92.1875H42.3575L89.6075 47.4883L42.3575 2.78247Z" fill="#0E99E1"/>
</g>
</svg>
