<svg width="300" height="100" viewBox="0 0 300 100" fill="none" xmlns="http://www.w3.org/2000/svg">
<path d="M60.002 37.1718H70.7283L76.9741 53.1511L83.301 37.1718H93.7448L78.0187 75H67.5087L71.8134 64.9761L60.002 37.1718Z" fill="#5F01D1"/>
<path d="M104.624 36.5357C96.5652 36.5357 91.4704 43.7635 91.4704 50.9613C91.4704 59.0609 97.0562 65.4825 104.471 65.4825C110.003 65.4825 112.089 62.1123 112.089 62.1123V64.7376H121.444V37.172H112.089V39.6779C112.089 39.6779 109.762 36.5357 104.624 36.5357ZM106.614 45.3942C110.333 45.3942 112.252 48.3366 112.252 50.9916C112.252 53.8505 110.196 56.6561 106.614 56.6561C103.646 56.6561 100.963 54.2302 100.963 51.1133C100.963 47.9522 103.121 45.3942 106.614 45.3942Z" fill="#5F01D1"/>
<path d="M124.666 64.7375V25H134.452V39.7734C134.452 39.7734 136.776 36.5391 141.644 36.5391C147.598 36.5391 151.086 40.9756 151.086 47.315V64.7375H141.373V49.7017C141.373 47.5563 140.351 45.4837 138.036 45.4837C135.68 45.4837 134.452 47.5877 134.452 49.7017V64.7375H124.666Z" fill="#5F01D1"/>
<path d="M167.77 36.539C158.541 36.539 153.045 43.557 153.045 51.0761C153.045 59.6329 159.699 65.4825 167.805 65.4825C175.662 65.4825 182.536 59.8983 182.536 51.2196C182.536 41.7235 175.338 36.539 167.77 36.539ZM167.858 45.4754C171.118 45.4754 173.374 48.1907 173.374 51.0863C173.374 53.556 171.272 56.6021 167.858 56.6021C164.73 56.6021 162.382 54.0929 162.382 51.0593C162.382 48.1369 164.334 45.4754 167.858 45.4754Z" fill="#5F01D1"/>
<path d="M198.838 36.539C189.608 36.539 184.113 43.557 184.113 51.0761C184.113 59.6329 190.767 65.4825 198.873 65.4825C206.729 65.4825 213.604 59.8983 213.604 51.2196C213.604 41.7235 206.406 36.539 198.838 36.539ZM198.926 45.4754C202.186 45.4754 204.442 48.1907 204.442 51.0863C204.442 53.556 202.34 56.6021 198.926 56.6021C195.798 56.6021 193.45 54.0929 193.45 51.0593C193.45 48.1369 195.402 45.4754 198.926 45.4754Z" fill="#5F01D1"/>
<path d="M221.325 65.3228C224.914 65.3228 227.823 62.4136 227.823 58.825C227.823 55.2364 224.914 52.3273 221.325 52.3273C217.737 52.3273 214.828 55.2364 214.828 58.825C214.828 62.4136 217.737 65.3228 221.325 65.3228Z" fill="#5F01D1"/>
<path d="M229.958 49.9403H218.26L228.642 25H240.296L229.958 49.9403Z" fill="#5F01D1"/>
</svg>
