<svg width="90" height="90" viewBox="0 0 90 90" fill="none" xmlns="http://www.w3.org/2000/svg">
<path fill-rule="evenodd" clip-rule="evenodd" d="M79.9963 42.5C79.9963 63.2105 63.2068 80 42.4962 80C21.7855 80 4.99609 63.2105 4.99609 42.5C4.99609 21.7893 21.7855 5 42.4962 5C63.2068 5 79.9963 21.7893 79.9963 42.5Z" fill="url(#paint0_linear_897_6660)"/>
<path fill-rule="evenodd" clip-rule="evenodd" d="M78.1836 42.5005C78.1836 62.2079 62.2073 78.1841 42.4998 78.1841C22.7923 78.1841 6.81617 62.2079 6.81617 42.5005C6.81617 22.793 22.7923 6.81688 42.4998 6.81688C62.2073 6.81688 78.1836 22.793 78.1836 42.5005Z" fill="white"/>
<path fill-rule="evenodd" clip-rule="evenodd" d="M66.6405 27.0317L46.572 46.6606V71.0649C46.572 71.5044 44.6677 71.8559 42.4997 71.8852C40.4196 71.856 38.4275 71.5044 38.4275 71.0649V46.6606L18.3591 27.0317C18.0368 26.7095 19.0622 25.186 20.6442 23.604C22.2263 22.0219 23.779 20.9966 24.072 21.3188L42.4705 39.2778L60.869 21.3188C61.1913 20.9966 62.7147 22.0219 64.2967 23.604C65.8788 25.186 66.9335 26.7095 66.6405 27.0317Z" fill="#EC1C24"/>
<defs>
<linearGradient id="paint0_linear_897_6660" x1="42.4962" y1="5" x2="42.4962" y2="80" gradientUnits="userSpaceOnUse">
<stop offset="1e-07" stop-color="#F5F5F6"/>
<stop offset="1" stop-color="#EDEDEE"/>
</linearGradient>
</defs>
</svg>
