<svg width="300" height="100" viewBox="0 0 300 100" fill="none" xmlns="http://www.w3.org/2000/svg">
<path d="M166.331 75.0005C170.302 75.0005 173.56 73.1427 175.846 69.6867L176.274 74.2856H184.074V25.0005H175.647V42.7998C173.531 39.5995 170.389 37.9141 166.702 37.9141C158.56 37.9141 152.875 44.801 152.875 56.7149C152.875 68.4565 158.39 75.0005 166.332 75.0005H166.331ZM218.188 71.8854V65.0005C215.56 66.7711 211.16 68.3422 207.045 68.3422C200.873 68.3422 198.531 65.4286 198.188 59.4852H218.529V55.0005C218.529 42.6022 213.074 37.9141 204.645 37.9141C194.358 37.9141 189.475 45.7715 189.475 56.5716C189.475 68.9699 195.56 75.0005 206.36 75.0005C211.732 75.0005 215.703 73.5708 218.188 71.8854ZM127.332 48.6851C128.903 46.7711 131.362 45.1438 134.418 45.1438C137.388 45.1438 138.733 46.4282 138.733 49.1152V74.2856H147.16V48.257C147.16 41.1725 144.331 38.0574 137.446 38.0574C132.417 38.0574 129.446 39.9152 127.731 41.6006H127.305L127.103 38.6289H118.872V74.2856H127.301V48.687L127.332 48.6851ZM112.018 49.9714C112.018 41.3139 107.617 38.0574 98.6745 38.0574C93.1321 38.0574 88.6745 40.4015 86.1329 42.2283V49.5433C88.8179 47.3426 92.9326 44.8009 97.704 44.8009C101.733 44.8009 103.589 46.2287 103.589 50.0567V52.3135H102.247C89.3332 52.3135 83.5893 56.4863 83.5893 63.9428C83.5893 70.8277 87.9887 74.799 94.5037 74.799C99.4746 74.799 101.59 73.1717 103.217 71.4573H103.56C103.618 72.3717 103.903 73.5708 104.19 74.2856H112.417C112.133 71.3898 111.99 68.4818 111.989 65.572V49.9714H112.018ZM244.132 74.2856H253.646L242.016 55.9149L252.075 38.6289H243.646L237.559 49.3999L230.759 38.6289H221.216L231.987 55.7153L220.788 74.2856H229.36L236.53 62.2283L244.132 74.2856ZM168.818 44.5724C173.361 44.5724 175.618 48.2008 175.618 56.4011C175.618 64.6866 173.215 68.3151 168.446 68.3151C163.845 68.3151 161.559 64.77 161.559 56.6859C161.588 48.2589 163.988 44.5724 168.818 44.5724ZM204.502 44.5724C208.675 44.5724 209.959 48.0574 209.959 52.515V53.2298H198.188C198.388 47.5441 200.445 44.5704 204.504 44.5704L204.502 44.5724ZM103.589 65.7696C102.532 67.3407 100.532 68.5979 97.5606 68.5979C94.0174 68.5979 92.2468 66.5406 92.2468 63.4255C92.2468 59.3128 95.1604 57.885 102.388 57.885H103.589V65.7696Z" fill="#000008"/>
<path d="M71.1018 65.9144V74.2852H62.5314V60.1705L46.3594 25H55.3017L67.9014 52.5145C70.3307 57.7722 71.1018 59.599 71.1018 65.9144ZM87.2157 25L76.7023 48.828H67.9886L78.502 25H87.2157Z" fill="#FC3F1D"/>
</svg>
