<svg width="300" height="100" viewBox="0 0 300 100" fill="none" xmlns="http://www.w3.org/2000/svg">
<path d="M204.718 43.297C204.662 44.3742 204.599 45.6046 203.92 46.457C203.866 46.5194 203.809 46.5787 203.749 46.6351C203.416 46.9892 202.992 47.244 202.523 47.3715L202.432 47.3924C201.925 47.5103 201.393 47.4749 200.906 47.2902C200.832 47.2664 200.758 47.2386 200.687 47.2072C199.707 46.7397 199.113 45.6633 198.594 44.7226C198.537 44.6203 198.481 44.5193 198.426 44.4212L197.659 43.0544C196.034 40.159 194.408 37.2635 192.808 34.3526C192.626 34.0204 192.439 33.6918 192.252 33.3637C191.722 32.4315 191.193 31.5023 190.777 30.4996C190.738 30.4055 190.698 30.3104 190.658 30.2144C190.218 29.1706 189.736 28.0242 189.967 26.9022C190.415 24.7345 193.06 23.6034 194.941 22.9871C195.519 22.8021 196.109 22.6456 196.706 22.5023C197.303 22.359 197.905 22.2469 198.505 22.1636C200.466 21.8922 203.339 21.7483 204.687 23.4981C205.385 24.4061 205.452 25.6455 205.513 26.7759C205.519 26.8809 205.524 26.985 205.53 27.0878C205.594 28.1735 205.525 29.2424 205.455 30.315C205.431 30.6902 205.407 31.0659 205.388 31.4429C205.236 34.5325 205.053 37.621 204.869 40.709C204.825 41.4594 204.78 42.2099 204.736 42.9603C204.729 43.0702 204.724 43.183 204.718 43.297Z" fill="#FF1A1A"/>
<path d="M222.456 42.1021C221.802 40.7297 220.923 39.4768 219.856 38.3953C219.717 38.2581 219.569 38.1311 219.413 38.0153C219.268 37.9068 219.118 37.806 218.963 37.7131C218.803 37.6256 218.639 37.5467 218.471 37.4768C218.139 37.3464 217.783 37.2876 217.427 37.3042C217.086 37.3237 216.753 37.417 216.452 37.5779C215.995 37.805 215.501 38.1699 214.843 38.781C214.783 38.8412 214.712 38.9065 214.641 38.9717C214.606 39.0044 214.57 39.037 214.536 39.069C214.102 39.4773 213.629 39.9617 213.089 40.5142C212.954 40.6518 212.816 40.7937 212.672 40.9396C211.563 42.0606 210.471 43.1876 209.386 44.3268L207.443 46.341C207.088 46.709 206.764 47.1065 206.475 47.5293C206.229 47.8866 206.055 48.2884 205.963 48.7123C205.91 49.0373 205.917 49.3695 205.986 49.6915L205.996 49.7346C206.149 50.4018 206.556 50.9832 207.129 51.3563C207.703 51.7295 208.398 51.8652 209.07 51.7352C209.177 51.7197 209.259 51.7015 209.309 51.6891L219.82 49.2608C220.585 49.085 221.356 48.9081 222.042 48.5094C222.534 48.2242 223.002 47.9416 223.323 47.3712C223.494 47.0579 223.598 46.7121 223.627 46.3563C223.786 44.945 223.049 43.3422 222.456 42.1021Z" fill="#FF1A1A"/>
<path d="M195.734 54.8185L198.13 54.2648C198.181 54.2531 198.263 54.234 198.364 54.2015C199.025 54.0238 199.591 53.5963 199.944 53.0093C200.296 52.4221 200.408 51.7212 200.254 51.0541L200.244 51.011C200.165 50.6912 200.028 50.3891 199.838 50.1203C199.569 49.7798 199.237 49.4949 198.86 49.2816C198.416 49.0281 197.951 48.8128 197.47 48.6381L194.844 47.6794C193.37 47.1314 191.897 46.5973 190.409 46.0764C190.219 46.0086 190.034 45.9425 189.855 45.8784C189.127 45.6174 188.487 45.3885 187.917 45.2122C187.872 45.1984 187.826 45.1845 187.78 45.1707C187.687 45.1432 187.595 45.1157 187.515 45.0881C186.657 44.825 186.053 44.7159 185.543 44.7122C185.202 44.6997 184.862 44.7617 184.548 44.8937C184.22 45.0352 183.925 45.2443 183.683 45.5074C183.563 45.6441 183.45 45.7871 183.344 45.9356C183.245 46.087 183.155 46.2436 183.072 46.4047C182.982 46.5774 182.904 46.7566 182.84 46.9407C182.352 48.3815 182.11 49.8937 182.122 51.4144C182.13 52.7893 182.167 54.5539 182.923 55.7501C183.105 56.0571 183.349 56.3224 183.64 56.5289C184.178 56.9007 184.723 56.9497 185.289 56.9905C186.081 57.0473 186.851 56.8684 187.617 56.6903L195.727 54.8161L195.734 54.8185Z" fill="#FF1A1A"/>
<path d="M203.024 56.7323C202.731 56.3201 202.315 56.0114 201.836 55.85C201.357 55.6885 200.839 55.6829 200.357 55.8337C200.243 55.8714 200.133 55.9172 200.026 55.9709C199.861 56.055 199.704 56.1532 199.556 56.2643C199.124 56.5841 198.761 56.9996 198.43 57.4162C198.4 57.4535 198.372 57.4952 198.343 57.5375C198.289 57.6157 198.234 57.6959 198.169 57.7548L196.504 60.046C195.559 61.3297 194.628 62.6166 193.705 63.9239C193.584 64.0935 193.466 64.2578 193.352 64.4171C192.898 65.0508 192.499 65.6072 192.17 66.111C192.142 66.1537 192.114 66.1981 192.085 66.2424C192.035 66.3216 191.985 66.4004 191.937 66.4681C191.444 67.2314 191.164 67.7884 191.021 68.2845C190.913 68.6143 190.879 68.9635 190.921 69.3077C190.967 69.6663 191.088 70.0111 191.275 70.3199C191.375 70.4747 191.483 70.6245 191.598 70.7686C191.717 70.9071 191.844 71.039 191.978 71.1639C192.121 71.3001 192.273 71.4255 192.435 71.5392C193.584 72.339 194.843 72.9138 196.167 73.358C197.269 73.7237 198.414 73.9424 199.573 74.0088C199.77 74.0188 199.967 74.0146 200.164 73.996C200.346 73.9801 200.527 73.9546 200.707 73.9199C200.886 73.8779 201.063 73.8266 201.237 73.7658C201.576 73.6391 201.884 73.4429 202.142 73.1897C202.386 72.9451 202.574 72.6503 202.693 72.3255C202.885 71.8455 203.012 71.2362 203.095 70.3315C203.1 70.2456 203.11 70.1484 203.12 70.0512C203.125 70.0027 203.129 69.9542 203.134 69.9072C203.185 69.3173 203.215 68.6464 203.249 67.883C203.258 67.6749 203.268 67.46 203.278 67.238C203.359 65.6438 203.423 64.0564 203.474 62.4645C203.474 62.4645 203.581 59.6356 203.581 59.6341C203.605 58.9822 203.585 58.2598 203.404 57.6107C203.325 57.2996 203.196 57.0031 203.024 56.7323Z" fill="#FF1A1A"/>
<path d="M220.205 59.9304C220.982 60.4002 221.474 60.7803 221.822 61.1615C222.063 61.4106 222.247 61.7096 222.359 62.0374C222.474 62.3796 222.516 62.7422 222.482 63.1016C222.461 63.2847 222.43 63.4664 222.389 63.6463C222.342 63.8231 222.286 63.9976 222.222 64.1688C222.152 64.3539 222.07 64.5336 221.975 64.7068C221.29 65.9305 220.409 66.9995 219.413 67.9797C218.583 68.792 217.649 69.4914 216.636 70.0593C216.463 70.1549 216.284 70.2376 216.099 70.3073C215.928 70.3729 215.754 70.4296 215.577 70.4772C215.397 70.5182 215.215 70.5496 215.033 70.5712C214.673 70.607 214.31 70.5667 213.967 70.4529C213.64 70.3402 213.342 70.1575 213.094 69.9176C212.71 69.5669 212.332 69.0781 211.861 68.3015C211.818 68.2237 211.764 68.1371 211.711 68.0508C211.688 68.0124 211.664 67.9741 211.642 67.9367C211.334 67.4227 211.01 66.8245 210.64 66.1429C210.545 65.9676 210.447 65.7867 210.345 65.6004C209.576 64.2041 208.826 62.8036 208.084 61.3947L206.751 58.8969C206.444 58.3215 206.148 57.6645 206.026 57.0004C205.965 56.6869 205.953 56.366 205.992 56.0489C206.074 55.5505 206.312 55.0907 206.671 54.7353C207.03 54.3801 207.492 54.147 207.991 54.0697C208.11 54.0538 208.229 54.0466 208.348 54.0481C208.533 54.0512 208.718 54.0703 208.9 54.1052C209.427 54.2034 209.936 54.4175 210.415 54.6467C210.458 54.6672 210.501 54.6919 210.545 54.717C210.628 54.7639 210.714 54.8122 210.798 54.8368L213.294 56.1604C214.706 56.9026 216.105 57.6511 217.504 58.4188C217.703 58.5272 217.896 58.6315 218.083 58.7324C218.749 59.0917 219.335 59.4078 219.84 59.7116C219.881 59.736 219.922 59.7615 219.964 59.7871C220.047 59.8379 220.13 59.8888 220.205 59.9304Z" fill="#FF1A1A"/>
<path fill-rule="evenodd" clip-rule="evenodd" d="M135.892 36.8619C135.892 34.8035 137.569 33.1221 139.593 33.1221C141.588 33.1221 143.207 34.8035 143.294 36.8909V66.0845C143.294 68.1428 141.617 69.8242 139.593 69.8242C137.511 69.8242 135.892 68.1428 135.892 66.0845V36.8619ZM132.451 54.8941C132.423 55.4738 132.278 56.5465 131.526 57.3293C130.717 58.1699 129.618 58.3729 128.982 58.3729C126.337 58.3874 123.692 58.3947 121.046 58.4019C118.401 58.4092 115.755 58.4164 113.11 58.4309C113.341 59.1557 113.804 60.2572 114.845 61.2721C115.481 61.8808 116.088 62.2287 116.348 62.3736C116.666 62.5766 117.765 63.1564 119.123 63.1564C120.569 63.1564 121.841 62.6925 123.084 62.0547L123.188 62.001C124.052 61.5533 124.944 61.0913 125.889 60.9242C126.814 60.7792 127.797 60.953 128.519 61.5909C129.387 62.3446 129.734 63.4462 129.416 64.5769C129.04 65.8525 127.97 66.9541 126.843 67.6209C126.207 67.9978 125.513 68.3167 124.819 68.5777C123.923 68.8966 122.998 69.1285 122.072 69.2735C121.147 69.4184 120.193 69.4764 119.239 69.4474C118.776 69.4474 118.285 69.4474 117.793 69.3894C117.273 69.3313 116.753 69.2155 116.261 69.0995C115.452 68.9256 114.7 68.6646 113.948 68.3167C113.226 67.9978 112.503 67.5919 111.838 67.1281C111.173 66.6642 110.566 66.1135 109.988 65.5336C109.438 64.9538 108.918 64.316 108.455 63.6203C106.894 61.2431 106.171 58.3149 106.316 55.4738C106.431 52.6907 107.357 49.9076 109.033 47.6464C109.215 47.3632 109.425 47.1223 109.623 46.8941C109.709 46.7955 109.793 46.699 109.872 46.6027C111.943 44.0711 114.709 43.2699 115.85 42.9394L115.914 42.9208C119.181 41.9932 121.899 42.602 122.998 42.9208C123.547 43.0659 126.64 44.0225 129.04 46.6027C129.156 46.7186 129.474 47.0955 129.878 47.6464C131.398 49.7171 131.923 51.6453 132.1 52.2985L132.105 52.3138C132.278 52.9516 132.451 53.8214 132.451 54.8941ZM115.481 50.1106C113.804 51.4732 113.341 53.2126 113.226 53.7634H125.831C125.715 53.2416 125.224 51.4732 123.547 50.1106C121.841 48.7479 120.049 48.6611 119.499 48.6611C118.95 48.6611 117.157 48.7479 115.481 50.1106ZM163.415 42.4281C160.119 42.4281 157.112 43.9066 154.973 46.3129V46.2259C154.886 44.2834 153.267 42.718 151.301 42.718C149.249 42.718 147.601 44.3704 147.601 46.4287V74.2888C147.601 76.3473 149.249 77.9997 151.301 77.9997C153.354 77.9997 155.002 76.3473 155.002 74.2888V73.2161V65.5916C157.141 67.9689 160.119 69.4764 163.444 69.4764C170.065 69.4764 175.442 63.4753 175.442 55.9957C175.413 48.5161 170.036 42.4281 163.415 42.4281ZM161.796 63.4174C158.038 63.4174 154.973 60.1414 154.973 56.0537C154.973 51.9369 158.009 48.6611 161.796 48.6611C165.554 48.6611 168.619 51.9369 168.619 56.0537C168.59 60.1414 165.554 63.4174 161.796 63.4174ZM100.765 57.938L99.5507 60.6051C99.0014 61.7648 98.4521 62.9535 97.9317 64.142C97.7657 64.5068 97.5984 64.879 97.4288 65.2564C95.1181 70.398 92.3756 76.5002 86.3962 77.7967C83.5051 78.4344 79.1395 77.5648 77.5205 74.8395C75.9015 72.0854 78.3011 68.9254 81.3946 69.6502C81.8825 69.759 82.3623 69.9983 82.8461 70.2394C83.6524 70.6415 84.47 71.0491 85.3554 70.8679C86.1938 70.7229 86.7142 70.1141 87.3792 69.3313C88.3043 68.2587 88.7091 67.1282 88.8825 66.4614C88.8681 66.4324 88.8536 66.396 88.8392 66.3598C88.8247 66.3236 88.8103 66.2874 88.7958 66.2584C88.0432 64.8543 87.386 63.5991 86.8369 62.5504C86.479 61.8668 86.1671 61.271 85.9047 60.7792C85.3663 59.7586 84.9596 58.987 84.6434 58.3871C83.7198 56.635 83.5673 56.3457 83.1581 55.5898C82.2619 53.8794 81.3078 52.2268 80.3249 50.5744C79.2551 48.7769 78.1565 46.7766 79.0528 44.6603C79.7755 42.9498 81.6259 42.0801 83.3894 42.631C85.2502 43.1957 86.0743 44.9664 86.8449 46.6223C86.9843 46.9216 87.1219 47.2173 87.2635 47.5014C88.5067 49.9656 89.721 52.4298 90.9352 54.8941C91.0421 55.139 91.2055 55.4731 91.404 55.879C91.5813 56.2414 91.7868 56.6613 92.0049 57.1263C92.119 57.3678 92.2275 57.5927 92.3257 57.7958C92.4513 58.056 92.5598 58.2808 92.6409 58.4598C93.2048 57.0538 93.7757 55.6551 94.3468 54.2563C94.9177 52.8575 95.4887 51.4586 96.0525 50.0526C96.0682 49.974 96.2028 49.6741 96.4055 49.222C96.5769 48.8398 96.7971 48.349 97.0354 47.7913C97.1161 47.6008 97.1972 47.4031 97.2803 47.2009C98.0312 45.3721 98.934 43.1733 100.939 42.573C102.384 42.1381 104.003 42.718 104.841 43.9355C105.275 44.5443 105.449 45.24 105.477 45.9358C105.501 47.4745 104.758 49.1257 104.12 50.5426C103.964 50.8877 103.815 51.2188 103.685 51.531C103.679 51.543 103.654 51.5998 103.608 51.7017C103.432 52.0978 102.952 53.1764 102.124 54.9521C101.825 55.5885 101.538 56.2251 101.248 56.8695C101.089 57.223 100.929 57.5787 100.765 57.938Z" fill="#000008"/>
<path d="M178.249 67.0379H178.517C178.649 67.0379 178.755 67.0041 178.835 66.9362C178.916 66.8667 178.956 66.7791 178.956 66.6733C178.956 66.5491 178.921 66.4607 178.849 66.4077C178.778 66.3532 178.666 66.3258 178.512 66.3258H178.249V67.0379ZM179.326 66.6632C179.326 66.7956 179.29 66.9131 179.219 67.0157C179.15 67.1165 179.051 67.1918 178.924 67.2414L179.514 68.2216H179.098L178.584 67.3431H178.249V68.2216H177.882V66.0108H178.529C178.804 66.0108 179.005 66.0645 179.132 66.172C179.261 66.2796 179.326 66.4433 179.326 66.6632ZM176.703 67.1149C176.703 66.7841 176.786 66.4739 176.951 66.1845C177.117 65.8949 177.344 65.6667 177.634 65.4996C177.923 65.3325 178.235 65.249 178.569 65.249C178.9 65.249 179.21 65.3318 179.5 65.4971C179.789 65.6626 180.017 65.89 180.184 66.1795C180.351 66.4689 180.435 66.7807 180.435 67.1149C180.435 67.4407 180.355 67.7468 180.194 68.033C180.034 68.3192 179.809 68.5483 179.519 68.7202C179.23 68.8923 178.913 68.9783 178.569 68.9783C178.227 68.9783 177.911 68.8931 177.621 68.7227C177.332 68.5508 177.106 68.3216 176.944 68.0355C176.783 67.7493 176.703 67.4425 176.703 67.1149ZM176.964 67.1149C176.964 67.4011 177.036 67.6691 177.18 67.9188C177.324 68.167 177.519 68.3629 177.768 68.5069C178.017 68.6491 178.285 68.7202 178.569 68.7202C178.857 68.7202 179.124 68.6484 179.37 68.5044C179.617 68.3604 179.812 68.1661 179.956 67.9213C180.102 67.6748 180.174 67.406 180.174 67.1149C180.174 66.8271 180.102 66.5599 179.959 66.3134C179.815 66.067 179.619 65.8718 179.373 65.7279C179.128 65.5823 178.86 65.5095 178.569 65.5095C178.281 65.5095 178.014 65.5815 177.768 65.7254C177.521 65.8693 177.325 66.0645 177.18 66.3109C177.036 66.5558 176.964 66.8237 176.964 67.1149Z" fill="#000008"/>
</svg>
