<svg width="90" height="90" viewBox="0 0 90 90" fill="none" xmlns="http://www.w3.org/2000/svg">
<path d="M5 45C5 22.9086 22.9086 5 45 5C67.0914 5 85 22.9086 85 45C85 67.0914 67.0914 85 45 85C22.9086 85 5 67.0914 5 45Z" fill="url(#paint0_radial_799_5608)"/>
<path d="M47.3626 38.8675C47.3032 40.0294 47.2354 41.3568 46.5034 42.2762C46.4451 42.3434 46.3834 42.4076 46.3185 42.4684C45.9592 42.8503 45.5011 43.1253 44.995 43.2627L44.8972 43.2853C44.3491 43.4126 43.7756 43.3744 43.2494 43.1753C43.1688 43.1495 43.0895 43.1194 43.012 43.0857C41.9533 42.5813 41.3111 41.4197 40.7499 40.4048C40.689 40.2946 40.629 40.1861 40.5695 40.0803L39.7214 38.5724C37.9707 35.4604 36.2199 32.3483 34.4968 29.2195C34.2997 28.8611 34.0976 28.5066 33.8957 28.1525C33.3223 27.1471 32.7508 26.1448 32.3009 25.0634C32.2586 24.9618 32.2153 24.8591 32.1716 24.7554C31.6966 23.6293 31.1752 22.3934 31.4241 21.1829C31.9064 18.8446 34.7615 17.6243 36.7927 16.9595C37.4167 16.7599 38.0543 16.591 38.6986 16.4365C39.3429 16.2819 39.9927 16.161 40.641 16.071C42.758 15.7782 45.8606 15.623 47.3167 17.5105C48.0716 18.4898 48.1445 19.8267 48.2109 21.046C48.2171 21.1593 48.2232 21.2717 48.2298 21.3826C48.2997 22.553 48.2256 23.7052 48.1512 24.8614C48.1251 25.2668 48.099 25.6732 48.0791 26.0805C47.9175 29.4087 47.7214 32.7359 47.5254 36.0626C47.4774 36.8765 47.4294 37.6905 47.382 38.5043C47.3751 38.623 47.3689 38.7444 47.3626 38.8675Z" fill="white"/>
<path d="M66.512 37.5722C65.805 36.0915 64.8546 34.7398 63.7007 33.5731C63.5515 33.425 63.3917 33.2879 63.2224 33.1631C63.0662 33.0459 62.9039 32.9371 62.7362 32.8371C62.5638 32.7427 62.3863 32.6575 62.2048 32.5819C61.8461 32.4413 61.4617 32.378 61.0767 32.396C60.7085 32.4168 60.3494 32.5176 60.024 32.6913C59.5309 32.9363 58.9974 33.33 58.2879 33.9894C58.2225 34.0543 58.1459 34.1247 58.0693 34.1952C58.0311 34.2303 57.9927 34.2656 57.9559 34.3C57.4863 34.7414 56.9743 35.2653 56.39 35.863L56.3891 35.8639C56.2454 36.0109 56.0973 36.1624 55.9444 36.3183C54.7472 37.5275 53.5684 38.7435 52.3967 39.9727L50.3003 42.1459C49.9163 42.5428 49.5668 42.9718 49.2553 43.4278C48.9901 43.8134 48.8025 44.2468 48.7031 44.7041C48.6455 45.0548 48.6543 45.4132 48.7288 45.7606L48.7394 45.8072C48.9055 46.527 49.3446 47.1542 49.9641 47.5567C50.5835 47.9594 51.3352 48.1059 52.0607 47.9654C52.1755 47.9489 52.2649 47.9291 52.319 47.9158L63.669 45.2956C64.4957 45.1059 65.3273 44.915 66.0688 44.4849C66.5997 44.1771 67.1047 43.8723 67.4509 43.257C67.6358 42.9188 67.7478 42.5459 67.7792 42.1619C67.9499 40.6392 67.1531 38.9099 66.512 37.5722Z" fill="white"/>
<path d="M37.6614 51.2971L40.251 50.6992C40.3057 50.6865 40.3941 50.666 40.5017 50.6314C41.2153 50.4395 41.8265 49.9784 42.207 49.345C42.5872 48.7115 42.7069 47.9553 42.5407 47.2356L42.53 47.189C42.4448 46.8442 42.2957 46.5181 42.0905 46.2282C41.8004 45.8607 41.4416 45.5535 41.034 45.3233C40.554 45.0499 40.0518 44.8177 39.5327 44.629L36.6959 43.5947C35.104 43.0036 33.512 42.4275 31.9053 41.8655C31.6992 41.7923 31.4993 41.7208 31.3054 41.6514C30.5189 41.3702 29.8284 41.1233 29.2132 40.9332C29.1648 40.9183 29.1147 40.9034 29.0645 40.8885C28.9649 40.8588 28.8652 40.8292 28.7789 40.7994C27.8514 40.5154 27.1999 40.3978 26.6486 40.3938C26.2802 40.3803 25.9135 40.4472 25.5737 40.5898C25.2196 40.7425 24.9016 40.9681 24.6404 41.2518C24.5106 41.3994 24.3885 41.5537 24.2747 41.7139C24.1679 41.8772 24.0701 42.0461 23.9814 42.2198C23.8838 42.4063 23.7999 42.5995 23.7305 42.7983C23.205 44.3526 22.9437 45.9841 22.9576 47.6248C22.9679 49.1082 23.0088 51.012 23.8256 52.3025C24.0226 52.6337 24.2866 52.9199 24.6009 53.1428C25.1826 53.5439 25.7702 53.5967 26.3814 53.6406C27.2369 53.702 28.0671 53.5092 28.8935 53.3173L37.6541 51.2946L37.6614 51.2971Z" fill="white"/>
<path d="M45.5315 53.3575C45.2149 52.9129 44.7658 52.5797 44.2485 52.4057C43.731 52.2314 43.1719 52.2254 42.6508 52.3882C42.5283 52.4288 42.409 52.4782 42.2938 52.5362C42.1157 52.6268 41.9455 52.7328 41.7857 52.8526C41.3198 53.1977 40.9276 53.6458 40.5706 54.0953C40.5387 54.1357 40.5077 54.1808 40.4763 54.2266C40.4186 54.3108 40.3593 54.3972 40.2895 54.4606L38.4922 56.9322C37.4735 58.3171 36.4687 59.7052 35.4725 61.1155C35.3415 61.299 35.2141 61.4767 35.0905 61.6491C34.6007 62.3322 34.1707 62.9319 33.8161 63.4752C33.7861 63.5209 33.7556 63.5686 33.7253 63.6161C33.6706 63.7016 33.616 63.787 33.5647 63.8602C33.0325 64.6837 32.7311 65.2844 32.5765 65.8197C32.4604 66.1754 32.4238 66.5522 32.4693 66.9235C32.5191 67.3104 32.6495 67.6823 32.8526 68.0154C32.9605 68.1826 33.0767 68.344 33.201 68.4993C33.3301 68.6489 33.4671 68.7913 33.6117 68.9258C33.7658 69.0729 33.931 69.2082 34.1052 69.3306C35.3473 70.1934 36.7068 70.8133 38.1368 71.2926C39.3267 71.6871 40.5635 71.9232 41.8152 71.9946C42.028 72.0053 42.2415 72.0009 42.4538 71.9808C42.6506 71.9637 42.8462 71.9362 43.0401 71.8986C43.2339 71.8535 43.425 71.7978 43.6127 71.7324C43.9783 71.5957 44.3109 71.3842 44.5895 71.1109C44.8531 70.8471 45.0558 70.5289 45.1838 70.1786C45.3914 69.6608 45.5278 69.0035 45.617 68.0275C45.6222 67.9355 45.6326 67.8314 45.643 67.7272C45.6483 67.6742 45.6536 67.6212 45.6583 67.5697C45.7138 66.9322 45.7455 66.2071 45.7815 65.3818C45.7912 65.1588 45.8013 64.9285 45.8122 64.6906C45.8993 62.9706 45.9672 61.2583 46.0207 59.5411L46.1345 56.4876C46.1607 55.7845 46.1384 55.0051 45.9429 54.305C45.8568 53.9692 45.718 53.6494 45.5315 53.3575Z" fill="white"/>
<path d="M64.0958 56.8016C64.9352 57.3083 65.4673 57.7184 65.843 58.1296C66.1034 58.3982 66.3018 58.7209 66.424 59.0745C66.5482 59.4436 66.5936 59.8347 66.5569 60.2224C66.5338 60.4199 66.5004 60.616 66.4568 60.81C66.4062 61.0009 66.3461 61.189 66.2764 61.3737C66.2019 61.5733 66.1128 61.7673 66.0103 61.954C65.2712 63.2741 64.3212 64.4274 63.246 65.4848C62.3495 66.3612 61.3413 67.1156 60.2476 67.7284C60.0613 67.8315 59.8677 67.9207 59.6684 67.9957C59.4837 68.0667 59.2956 68.1278 59.1045 68.179C58.9105 68.2233 58.7145 68.2573 58.5169 68.2807C58.1285 68.3191 57.7363 68.2757 57.3656 68.1531C57.0131 68.0315 56.6913 67.8343 56.4229 67.5755C56.0083 67.1973 55.5994 66.6701 55.0904 65.8322C55.0438 65.7487 54.9868 65.6561 54.93 65.5637C54.9041 65.5216 54.8783 65.4796 54.8535 65.4386C54.521 64.8846 54.1706 64.2398 53.7714 63.5051C53.6684 63.3155 53.5621 63.1199 53.452 62.9184C52.6204 61.4123 51.809 59.9013 51.0072 58.3815L49.5665 55.6869C49.2348 55.0663 48.9143 54.3577 48.782 53.6413C48.7162 53.3031 48.7034 52.9568 48.7443 52.6148C48.8334 52.0772 49.0901 51.5812 49.4776 51.1979C49.865 50.8144 50.3639 50.5632 50.9025 50.4798C51.0304 50.4626 51.1592 50.4548 51.2881 50.4564C51.4881 50.4596 51.6874 50.4804 51.8837 50.5181C52.4536 50.6238 53.0026 50.8548 53.5205 51.1021C53.5665 51.1242 53.6139 51.151 53.6619 51.1782C53.7513 51.2287 53.8431 51.2806 53.934 51.3072L56.63 52.7349C58.1557 53.5355 59.6673 54.3428 61.1779 55.171C61.3939 55.2882 61.6031 55.4009 61.8054 55.5099C62.5241 55.8973 63.1563 56.238 63.7016 56.5655C63.747 56.5926 63.7937 56.6211 63.8403 56.6496C63.9285 56.7036 64.0166 56.7574 64.0958 56.8016Z" fill="white"/>
<defs>
<radialGradient id="paint0_radial_799_5608" cx="0" cy="0" r="1" gradientUnits="userSpaceOnUse" gradientTransform="translate(45 -4.31763) rotate(90) scale(95.5294)">
<stop stop-color="#FF78A1"/>
<stop offset="0.512574" stop-color="#FE375C"/>
<stop offset="1" stop-color="#FF0000"/>
</radialGradient>
</defs>
</svg>
