<svg width="300" height="100" viewBox="0 0 300 100" fill="none" xmlns="http://www.w3.org/2000/svg">
<path d="M117.225 34.6111C116.576 32.1845 114.666 30.2736 112.239 29.625C107.84 28.4463 90.2036 28.4463 90.2036 28.4463C90.2036 28.4463 72.5671 28.4463 68.1683 29.625C65.7421 30.2736 63.8307 32.1845 63.1822 34.6111C62.0039 39.0094 62.0039 48.1863 62.0039 48.1863C62.0039 48.1863 62.0039 57.3632 63.1822 61.7611C63.8307 64.1877 65.7421 66.0991 68.1683 66.7476C72.5671 67.9259 90.2036 67.9259 90.2036 67.9259C90.2036 67.9259 107.84 67.9259 112.239 66.7476C114.666 66.0991 116.576 64.1877 117.225 61.7611C118.404 57.3632 118.404 48.1863 118.404 48.1863C118.404 48.1863 118.404 39.0094 117.225 34.6111Z" fill="#ED1F24"/>
<path d="M84.5625 56.6467L99.2153 48.1866L84.5625 39.7266V56.6467Z" fill="white"/>
<path d="M150.118 60.4904C150.427 59.6845 150.582 58.3669 150.582 56.5383V48.8344C150.582 47.0601 150.427 45.7629 150.118 44.9426C149.809 44.1227 149.264 43.7123 148.485 43.7123C147.732 43.7123 147.2 44.1227 146.891 44.9426C146.582 45.7629 146.427 47.0601 146.427 48.8344V56.5383C146.427 58.3669 146.575 59.6845 146.871 60.4904C147.167 61.2973 147.704 61.7003 148.485 61.7003C149.264 61.7003 149.809 61.2973 150.118 60.4904ZM143.867 64.3628C142.75 63.6107 141.957 62.4403 141.487 60.8535C141.016 59.2676 140.781 57.1566 140.781 54.5215V50.9319C140.781 48.2699 141.05 46.132 141.588 44.5192C142.125 42.9059 142.965 41.7295 144.109 40.99C145.251 40.2509 146.75 39.8809 148.606 39.8809C150.434 39.8809 151.899 40.2574 153.002 41.0104C154.104 41.7629 154.911 42.9398 155.422 44.5392C155.932 46.1395 156.188 48.2699 156.188 50.9319V54.5215C156.188 57.1566 155.939 59.2746 155.442 60.8739C154.944 62.4742 154.137 63.6436 153.022 64.3827C151.906 65.1223 150.394 65.4918 148.485 65.4918C146.521 65.4918 144.982 65.1153 143.867 64.3628Z" fill="#272727"/>
<path d="M230.237 44.1747C229.955 44.5248 229.766 45.0958 229.672 45.8887C229.578 46.6821 229.532 47.8855 229.532 49.4988V51.2736H233.605V49.4988C233.605 47.9124 233.551 46.7091 233.443 45.8887C233.336 45.0689 233.141 44.4913 232.859 44.1548C232.576 43.8186 232.139 43.6506 231.548 43.6506C230.956 43.6506 230.519 43.8256 230.237 44.1747ZM229.532 54.5809V55.8312C229.532 57.418 229.578 58.6074 229.672 59.4004C229.766 60.1938 229.961 60.7722 230.257 61.1353C230.553 61.4979 231.009 61.6798 231.629 61.6798C232.462 61.6798 233.033 61.3567 233.343 60.7114C233.651 60.0661 233.819 58.9909 233.846 57.4848L238.646 57.7671C238.673 57.983 238.687 58.2783 238.687 58.6543C238.687 60.9403 238.062 62.6478 236.811 63.7769C235.561 64.9059 233.793 65.4709 231.507 65.4709C228.765 65.4709 226.842 64.6107 225.74 62.8892C224.637 61.1692 224.086 58.5071 224.086 54.9036V50.5874C224.086 46.8771 224.657 44.1687 225.8 42.4607C226.943 40.7532 228.899 39.8994 231.669 39.8994C233.578 39.8994 235.043 40.249 236.065 40.9482C237.086 41.6478 237.806 42.7365 238.223 44.2151C238.64 45.6942 238.848 47.7379 238.848 50.3456V54.5809H229.532Z" fill="#272727"/>
<path d="M130.317 54.1167L123.984 31.248H129.51L131.728 41.6134C132.293 44.1687 132.71 46.3465 132.978 48.1473H133.14C133.328 46.8567 133.745 44.6928 134.39 41.6538L136.689 31.248H142.215L135.802 54.1167V65.0879H130.317V54.1167Z" fill="#272727"/>
<path d="M174.163 40.3643V65.088H169.807L169.322 62.0634H169.202C168.018 64.349 166.243 65.4915 163.878 65.4915C162.237 65.4915 161.028 64.9539 160.248 63.8782C159.468 62.803 159.078 61.1219 159.078 58.8369V40.3643H164.644V58.5138C164.644 59.6168 164.765 60.4033 165.007 60.8731C165.249 61.3443 165.652 61.5792 166.217 61.5792C166.701 61.5792 167.165 61.4316 167.608 61.1354C168.052 60.8397 168.381 60.4636 168.597 60.0063V40.3643H174.163Z" fill="#272727"/>
<path d="M202.71 40.3643V65.088H198.353L197.869 62.0634H197.749C196.565 64.349 194.79 65.4915 192.424 65.4915C190.784 65.4915 189.574 64.9539 188.794 63.8782C188.015 62.803 187.625 61.1219 187.625 58.8369V40.3643H193.191V58.5138C193.191 59.6168 193.312 60.4033 193.554 60.8731C193.796 61.3443 194.199 61.5792 194.764 61.5792C195.248 61.5792 195.712 61.4316 196.155 61.1354C196.599 60.8397 196.928 60.4636 197.144 60.0063V40.3643H202.71Z" fill="#272727"/>
<path d="M189.285 35.7263H183.759V65.0884H178.315V35.7263H172.789V31.249H189.285V35.7263Z" fill="#272727"/>
<path d="M216.029 54.402C216.029 56.2038 215.954 57.6156 215.806 58.6369C215.659 59.6592 215.41 60.3853 215.06 60.8147C214.711 61.2451 214.24 61.4601 213.649 61.4601C213.191 61.4601 212.768 61.3528 212.378 61.1374C211.988 60.9224 211.673 60.5998 211.43 60.1694V46.1337C211.618 45.4619 211.941 44.9104 212.398 44.48C212.856 44.0506 213.352 43.8347 213.89 43.8347C214.455 43.8347 214.892 44.0566 215.202 44.5C215.51 44.9438 215.726 45.6898 215.847 46.7391C215.968 47.7873 216.029 49.2794 216.029 51.2154V54.402ZM221.13 44.317C220.794 42.7581 220.249 41.6286 219.497 40.9289C218.744 40.2302 217.708 39.8806 216.391 39.8806C215.37 39.8806 214.415 40.1699 213.528 40.7479C212.641 41.3259 211.955 42.0854 211.471 43.0264H211.43L211.43 29.999H206.066V65.0882H210.664L211.229 62.7493H211.35C211.78 63.5826 212.425 64.2414 213.286 64.7256C214.146 65.2094 215.101 65.4517 216.15 65.4517C218.031 65.4517 219.416 64.584 220.304 62.85C221.191 61.1156 221.635 58.4071 221.635 54.7228V50.811C221.635 48.0417 221.466 45.8769 221.13 44.317Z" fill="#272727"/>
</svg>
