<svg width="90" height="90" viewBox="0 0 90 90" fill="none" xmlns="http://www.w3.org/2000/svg">
<path d="M45 84.9998C67.0919 84.9998 85.0008 67.0916 85.0008 44.9998C85.0008 22.9079 67.0919 4.99976 45 4.99976C22.9081 4.99976 5 22.9079 5 44.9998C5 67.0916 22.9081 84.9998 45 84.9998Z" fill="#F62B1E"/>
<path d="M45.0001 20.7072C31.5849 20.7072 20.7076 31.5846 20.7076 44.9998C20.7076 58.4149 31.5849 69.2923 45.0001 69.2923C58.4153 69.2923 69.2926 58.4149 69.2926 44.9998C69.2926 31.5846 58.4153 20.7072 45.0001 20.7072ZM45.0001 23.9354C56.6155 23.9354 66.0644 33.3843 66.0644 44.9998C66.0644 56.6152 56.6155 66.0641 45.0001 66.0641C33.3847 66.0641 23.9358 56.6152 23.9358 44.9998C23.9358 33.3843 33.3847 23.9354 45.0001 23.9354Z" fill="white"/>
<path d="M37.2721 56.8184L57.7264 44.9999L37.2721 33.1813V56.8184Z" fill="white"/>
</svg>
