<svg width="360" height="100" viewBox="0 0 360 100" fill="none" xmlns="http://www.w3.org/2000/svg">
<path d="M240.764 45.8404C239.736 51.0648 238.954 57.4407 238.542 60.0733H238.255C237.925 57.3583 237.144 51.0231 236.074 45.882L233.442 33.0889H225.42V67.6008H230.398V39.1524L230.891 41.8096L235.951 67.6008H240.928L245.906 41.8096L246.44 39.1367L246.441 67.6008H251.418V33.0889H243.314L240.764 45.8404Z" fill="#242729"/>
<path d="M264.87 62.4176C264.417 63.3641 263.43 64.0223 262.443 64.0223C261.291 64.0223 260.838 63.117 260.838 60.8959V42.3854H255.162V61.2249C255.162 65.8731 256.684 68.0119 260.057 68.0119C262.361 68.0119 264.211 66.9839 265.486 64.5157H265.61L266.103 67.6009H270.546V42.3854H264.87V62.4176Z" fill="#242729"/>
<path d="M281.529 52.34C279.678 50.9825 278.527 50.0772 278.527 48.1032C278.527 46.7046 279.185 45.9228 280.748 45.9228C282.352 45.9228 282.887 47.0336 282.928 50.8182L287.7 50.6122C288.07 44.4834 286.054 41.9328 280.83 41.9328C275.977 41.9328 273.591 44.1132 273.591 48.5966C273.591 52.6691 275.565 54.5199 278.773 56.947C281.529 59.0857 283.134 60.2789 283.134 62.0067C283.134 63.3229 282.311 64.2278 280.871 64.2278C279.185 64.2278 278.198 62.6236 278.444 59.8267L273.632 59.9086C272.891 65.1326 274.989 68.1766 280.584 68.1766C285.478 68.1766 288.029 65.9143 288.029 61.3897C288.029 57.2761 285.972 55.6307 281.529 52.34Z" fill="#242729"/>
<path d="M296.585 42.3854H291.156V67.6008H296.585V42.3854Z" fill="#242729"/>
<path d="M293.912 32.4308C291.813 32.4308 290.827 33.2126 290.827 35.9271C290.827 38.7244 291.813 39.4238 293.912 39.4238C296.051 39.4238 296.997 38.7244 296.997 35.9271C296.997 33.3357 296.051 32.4308 293.912 32.4308Z" fill="#242729"/>
<path d="M314.849 58.51L309.872 58.2633C309.872 62.706 309.378 64.1454 307.692 64.1454C306.005 64.1454 305.717 62.5412 305.717 57.3172V52.4224C305.717 47.3627 306.047 45.758 307.733 45.758C309.296 45.758 309.708 47.2803 309.708 51.9697L314.644 51.6406C314.973 47.733 314.479 45.0587 312.957 43.5369C311.847 42.4261 310.16 41.8916 307.815 41.8916C302.303 41.8916 300.041 44.8537 300.041 53.1629V56.6998C300.041 65.2562 301.974 68.0119 307.61 68.0119C309.995 68.0119 311.641 67.5185 312.752 66.4494C314.355 64.9683 314.973 62.4176 314.849 58.51Z" fill="#242729"/>
<path d="M127.439 62.9125C127.754 62.09 127.912 60.7463 127.912 58.8807V51.0228C127.912 49.2126 127.754 47.8893 127.439 47.0526C127.124 46.2164 126.568 45.7974 125.773 45.7974C125.005 45.7974 124.463 46.2164 124.148 47.0526C123.832 47.8893 123.675 49.2126 123.675 51.0228V58.8807C123.675 60.7463 123.825 62.09 124.127 62.9125C124.429 63.7354 124.977 64.1468 125.773 64.1468C126.568 64.1468 127.124 63.7354 127.439 62.9125ZM121.063 66.8623C119.924 66.0948 119.115 64.9016 118.635 63.2832C118.155 61.6648 117.915 59.5119 117.915 56.8234V53.162C117.915 50.4466 118.189 48.2661 118.738 46.6208C119.287 44.975 120.143 43.7756 121.309 43.0209C122.474 42.2666 124.004 41.8892 125.897 41.8892C127.761 41.8892 129.256 42.2737 130.381 43.0412C131.505 43.8097 132.328 45.0095 132.849 46.6411C133.37 48.2733 133.631 50.4466 133.631 53.162V56.8234C133.631 59.5119 133.377 61.6719 132.87 63.3036C132.362 64.9357 131.539 66.1289 130.402 66.8826C129.263 67.6364 127.72 68.0143 125.773 68.0143C123.771 68.0143 122.2 67.6298 121.063 66.8623Z" fill="#242729"/>
<path d="M209.164 46.2689C208.877 46.6254 208.684 47.2088 208.589 48.0175C208.491 48.8267 208.444 50.054 208.444 51.6998V53.5099H212.599V51.6998C212.599 50.0819 212.544 48.8541 212.435 48.0175C212.325 47.1813 212.127 46.5918 211.839 46.2486C211.55 45.9057 211.104 45.7343 210.502 45.7343C209.898 45.7343 209.452 45.9129 209.164 46.2689ZM208.444 56.8835V58.1591C208.444 59.7774 208.491 60.9915 208.589 61.8002C208.684 62.6094 208.883 63.1988 209.185 63.5691C209.487 63.9394 209.952 64.1245 210.584 64.1245C211.433 64.1245 212.017 63.7954 212.332 63.1373C212.647 62.4791 212.818 61.3821 212.846 59.8456L217.743 60.1335C217.77 60.3537 217.783 60.6553 217.783 61.0388C217.783 63.3707 217.146 65.1117 215.871 66.2637C214.595 67.4157 212.791 67.9919 210.46 67.9919C207.663 67.9919 205.702 67.1146 204.577 65.3589C203.452 63.6037 202.89 60.8887 202.89 57.2126V52.8101C202.89 49.0255 203.473 46.2623 204.639 44.5203C205.805 42.7789 207.8 41.9081 210.625 41.9081C212.572 41.9081 214.067 42.2646 215.109 42.9777C216.151 43.6913 216.885 44.8016 217.31 46.3101C217.736 47.8186 217.948 49.9034 217.948 52.5634V56.8835H208.444Z" fill="#242729"/>
<path d="M107.238 56.4115L100.779 33.0838H106.415L108.678 43.6572C109.254 46.2637 109.679 48.4849 109.953 50.3225H110.118C110.309 49.0057 110.735 46.7983 111.393 43.6989L113.738 33.0838H119.375L112.833 56.4115V67.6028H107.238V56.4115Z" fill="#242729"/>
<path d="M151.963 42.3826V67.6023H147.52L147.026 64.5171H146.903C145.695 66.8485 143.885 68.0138 141.472 68.0138C139.798 68.0138 138.564 67.4655 137.769 66.3684C136.974 65.2713 136.576 63.5573 136.576 61.2254V42.3826H142.253V60.8968C142.253 62.0213 142.377 62.8234 142.624 63.3031C142.871 63.7836 143.282 64.0232 143.858 64.0232C144.352 64.0232 144.825 63.8727 145.278 63.5706C145.73 63.269 146.066 62.8855 146.286 62.4186V42.3826H151.963Z" fill="#242729"/>
<path d="M181.086 42.3826V67.6023H176.642L176.148 64.5171H176.025C174.818 66.8485 173.007 68.0138 170.594 68.0138C168.921 68.0138 167.687 67.4655 166.891 66.3684C166.096 65.2714 165.699 63.5574 165.699 61.2254V42.3826H171.376V60.8968C171.376 62.0214 171.499 62.8234 171.746 63.3031C171.993 63.7837 172.404 64.0233 172.98 64.0233C173.474 64.0233 173.947 63.8727 174.399 63.5706C174.853 63.269 175.188 62.8855 175.408 62.4186V42.3826H181.086Z" fill="#242729"/>
<path d="M167.39 37.6516H161.754V67.6024H156.2V37.6516H150.564V33.0848H167.39V37.6516Z" fill="#242729"/>
<path d="M194.671 56.7014C194.671 58.5394 194.596 59.9793 194.445 61.021C194.294 62.0641 194.04 62.8046 193.684 63.243C193.327 63.682 192.847 63.9012 192.244 63.9012C191.777 63.9012 191.346 63.7918 190.948 63.5716C190.551 63.3529 190.228 63.0238 189.982 62.5844V48.2672C190.173 47.582 190.502 47.0195 190.969 46.5806C191.435 46.1422 191.942 45.9225 192.491 45.9225C193.067 45.9225 193.513 46.1488 193.828 46.601C194.143 47.0536 194.363 47.815 194.486 48.8846C194.61 49.9542 194.671 51.4765 194.671 53.4509V56.7014ZM199.876 46.4144C199.533 44.824 198.977 43.672 198.21 42.9585C197.442 42.2459 196.385 41.8893 195.042 41.8893C193.999 41.8893 193.026 42.1843 192.121 42.7733C191.215 43.3633 190.517 44.1384 190.023 45.0981H189.981L189.982 31.8093H184.509V67.6024H189.199L189.776 65.2161H189.899C190.338 66.0664 190.996 66.7383 191.874 67.2322C192.751 67.7255 193.725 67.9722 194.795 67.9722C196.714 67.9722 198.127 67.0882 199.033 65.3188C199.937 63.5499 200.39 60.7871 200.39 57.029V53.038C200.39 50.2137 200.219 48.0053 199.876 46.4144Z" fill="#242729"/>
<path d="M71.1179 74.9858C84.9214 74.9858 96.1113 63.7964 96.1113 49.9929C96.1113 36.1894 84.9214 25 71.1179 25C57.3144 25 46.125 36.1894 46.125 49.9929C46.125 63.7964 57.3144 74.9858 71.1179 74.9858Z" fill="#F62B1E"/>
<path d="M71.118 34.8144C62.7359 34.8144 55.9395 41.6108 55.9395 49.9929C55.9395 58.375 62.7359 65.1714 71.118 65.1714C79.5001 65.1714 86.2965 58.375 86.2965 49.9929C86.2965 41.6108 79.5001 34.8144 71.118 34.8144ZM71.118 36.8314C78.3755 36.8314 84.2794 42.7353 84.2794 49.9929C84.2794 57.2505 78.3755 63.1544 71.118 63.1544C63.8604 63.1544 57.9565 57.2505 57.9565 49.9929C57.9565 42.7353 63.8604 36.8314 71.118 36.8314Z" fill="white"/>
<path d="M66.2893 57.3774L79.0697 49.993L66.2893 42.6085V57.3774Z" fill="white"/>
</svg>
