<svg width="90" height="90" viewBox="0 0 90 90" fill="none" xmlns="http://www.w3.org/2000/svg">
<path d="M77 5H13C8.58172 5 5 8.58172 5 13V77C5 81.4183 8.58172 85 13 85H77C81.4183 85 85 81.4183 85 77V13C85 8.58172 81.4183 5 77 5Z" fill="#FF4F00"/>
<path d="M16.2534 49.072L16.242 49.0358L23.4546 42.4328V39.2512H11.8832V42.4328H18.7948L18.8062 42.4632L11.6641 49.072V52.2534H23.5708V49.072H16.2534Z" fill="#FFFDF9"/>
<path d="M30.6725 38.9492C29.3377 38.9492 28.2499 39.1504 27.4091 39.553C26.6259 39.904 25.9661 40.482 25.5155 41.2124C25.0843 41.9476 24.8136 42.7656 24.721 43.6128L28.2321 44.1062C28.3591 43.3582 28.6131 42.828 28.9941 42.5154C29.4273 42.1888 29.9609 42.0236 30.5029 42.0488C31.2155 42.0488 31.7323 42.2392 32.0537 42.6202C32.3719 43.0012 32.5337 43.529 32.5337 44.2244V44.571H29.1579C27.4395 44.571 26.2051 44.952 25.4545 45.7142C24.7039 46.4762 24.3292 47.482 24.3305 48.7318C24.3305 50.012 24.7052 50.9646 25.4545 51.5894C26.2039 52.2142 27.1461 52.5248 28.2817 52.521C29.6901 52.521 30.7735 52.0364 31.5317 51.0674C31.9795 50.4718 32.2993 49.7902 32.4709 49.0652H32.5985L33.0825 52.2466H36.2639V44.19C36.2639 42.525 35.8251 41.2352 34.9475 40.3208C34.0699 39.4064 32.6449 38.9492 30.6725 38.9492ZM31.7851 48.8804C31.2801 49.3014 30.6191 49.511 29.7961 49.511C29.1179 49.511 28.6467 49.3922 28.3825 49.1546C28.2539 49.0424 28.1515 48.903 28.0827 48.7466C28.0139 48.5902 27.9803 48.4206 27.9845 48.2498C27.9769 48.0886 28.0023 47.9278 28.0589 47.7768C28.1155 47.6258 28.2023 47.488 28.3141 47.3716C28.4347 47.2584 28.5771 47.1708 28.7327 47.114C28.8883 47.0574 29.0537 47.0328 29.2189 47.042H32.5395V47.261C32.5461 47.5708 32.4817 47.8778 32.3509 48.1586C32.2201 48.4394 32.0265 48.6862 31.7851 48.8804Z" fill="#FFFDF9"/>
<path d="M55.4955 39.2512H51.7367V52.2554H55.4955V39.2512Z" fill="#FFFDF9"/>
<path d="M77.7023 39.2512C76.6407 39.2512 75.8037 39.626 75.1915 40.3752C74.7521 40.9138 74.4181 41.7094 74.1895 42.7624H74.0789L73.5875 39.2512H70.3773V52.2534H74.1361V45.5856C74.1361 44.7448 74.333 44.1004 74.7267 43.652C75.1203 43.2036 75.847 42.9796 76.9062 42.9796H78.3329V39.2512H77.7023Z" fill="#FFFDF9"/>
<path d="M66.6345 39.6753C65.7569 39.1533 64.65 38.8931 63.314 38.8943C61.2108 38.8943 59.5648 39.4931 58.376 40.6907C57.1872 41.8885 56.5928 43.5395 56.5928 45.6439C56.5626 46.9163 56.8405 48.1771 57.4025 49.3189C57.917 50.3363 58.7184 51.1807 59.7076 51.7479C60.7034 52.3231 61.8876 52.6115 63.2606 52.6127C64.4482 52.6127 65.44 52.4299 66.2364 52.0641C66.985 51.7355 67.6371 51.2207 68.1301 50.5685C68.5994 49.9285 68.9482 49.2079 69.1588 48.4425L65.92 47.5357C65.7838 48.0335 65.5214 48.4875 65.158 48.8541C64.7922 49.2197 64.1794 49.4027 63.3196 49.4027C62.2972 49.4027 61.5353 49.1099 61.0337 48.5245C60.6697 48.1015 60.441 47.4977 60.3402 46.7147H69.2082C69.2444 46.3489 69.2635 46.0421 69.2635 45.7945V44.9849C69.285 43.8971 69.0602 42.8187 68.6062 41.8299C68.1812 40.9293 67.4941 40.1783 66.6345 39.6753ZM63.2054 41.9939C64.7294 41.9939 65.5937 42.7437 65.7983 44.2437H60.4069C60.4925 43.7433 60.6998 43.2715 61.0106 42.8701C61.5048 42.2847 62.2362 41.9925 63.2054 41.9939Z" fill="#FFFDF9"/>
<path d="M53.661 34.0108C53.3782 34.001 53.0964 34.0484 52.8322 34.1498C52.568 34.2514 52.327 34.4048 52.1234 34.6014C51.9226 34.7996 51.7652 35.0376 51.6614 35.3C51.5574 35.5624 51.509 35.8436 51.5194 36.1256C51.5094 36.4094 51.5578 36.6924 51.6618 36.9566C51.766 37.221 51.9234 37.461 52.1242 37.6618C52.3252 37.8626 52.5654 38.0198 52.8298 38.1236C53.0942 38.2274 53.3772 38.2756 53.661 38.2652C53.943 38.2758 54.2242 38.2276 54.4866 38.1236C54.7492 38.0196 54.987 37.8622 55.1852 37.6612C55.3818 37.4582 55.5354 37.2174 55.6366 36.9536C55.7376 36.6896 55.7844 36.408 55.774 36.1256C55.787 35.8448 55.7412 35.5644 55.6398 35.3022C55.5384 35.0402 55.3834 34.802 55.1846 34.6032C54.986 34.4044 54.748 34.2492 54.486 34.1476C54.224 34.0458 53.9418 33.998 53.661 34.0108Z" fill="#FFFDF9"/>
<path d="M45.8957 38.8943C44.6155 38.8943 43.5869 39.2963 42.8095 40.1001C42.2343 40.6959 41.8119 41.5849 41.5427 42.7673H41.4227L40.9311 39.2563H37.7211V55.9905H41.4799V49.0979H41.6169C41.7317 49.5575 41.8925 50.0043 42.0971 50.4315C42.4151 51.1273 42.9365 51.7105 43.5925 52.1041C44.2729 52.4753 45.0391 52.6599 45.8139 52.6393C47.3875 52.6393 48.5857 52.0265 49.4087 50.8011C50.2317 49.5755 50.6433 47.8653 50.6433 45.6707C50.6433 43.5509 50.2451 41.8915 49.4487 40.6927C48.6525 39.4937 47.4681 38.8943 45.8957 38.8943ZM46.2769 48.3167C45.8387 48.9517 45.1529 49.2693 44.2193 49.2693C43.8345 49.2871 43.4509 49.2129 43.1003 49.0529C42.7499 48.8929 42.4425 48.6517 42.2037 48.3491C41.7173 47.7383 41.4747 46.9019 41.4761 45.8401V45.5925C41.4761 44.5143 41.7185 43.6887 42.2037 43.1159C42.6889 42.5431 43.3607 42.2599 44.2193 42.2663C45.1693 42.2663 45.8595 42.5679 46.2901 43.1711C46.7207 43.7745 46.9359 44.6159 46.9359 45.6953C46.9385 46.8117 46.7201 47.6855 46.2807 48.3167H46.2769Z" fill="#FFFDF9"/>
</svg>
