<svg width="300" height="100" viewBox="0 0 300 100" fill="none" xmlns="http://www.w3.org/2000/svg">
<path d="M101.326 59.2612L101.3 59.1788L117.706 44.16V36.9235H91.3861V44.16H107.107L107.133 44.2293L90.8878 59.2612V66.4978H117.97V59.2612H101.326Z" fill="#201515"/>
<path d="M134.126 36.2339C131.09 36.2339 128.616 36.6917 126.703 37.6075C124.922 38.4056 123.421 39.7205 122.396 41.3817C121.415 43.0538 120.799 44.9145 120.589 46.8415L128.575 47.9639C128.864 46.2623 129.442 45.0563 130.308 44.3456C131.293 43.6024 132.507 43.2268 133.74 43.284C135.361 43.284 136.536 43.7173 137.267 44.5839C137.991 45.4506 138.359 46.6509 138.359 48.2325V49.0211H130.681C126.772 49.0211 123.964 49.8878 122.257 51.6211C120.55 53.3543 119.698 55.6423 119.701 58.4849C119.701 61.3968 120.553 63.5635 122.257 64.9846C123.961 66.406 126.105 67.1123 128.688 67.1035C131.891 67.1035 134.356 66.0016 136.08 63.7974C137.098 62.4427 137.826 60.8923 138.216 59.2432H138.507L139.607 66.4794H146.844V48.1545C146.844 44.3673 145.846 41.4337 143.85 39.3538C141.853 37.2739 138.612 36.2339 134.126 36.2339ZM136.656 58.8229C135.508 59.7805 134.005 60.2571 132.133 60.2571C130.59 60.2571 129.518 59.987 128.917 59.4468C128.625 59.1912 128.392 58.8743 128.235 58.5186C128.079 58.1629 128.002 57.7771 128.012 57.3886C127.994 57.0222 128.052 56.6561 128.181 56.3127C128.31 55.9693 128.507 55.6557 128.761 55.3909C129.036 55.1334 129.36 54.9342 129.714 54.8054C130.068 54.6765 130.444 54.6207 130.82 54.6413H138.372V55.1396C138.388 55.844 138.241 56.5425 137.943 57.1811C137.646 57.8197 137.205 58.3814 136.656 58.8229Z" fill="#201515"/>
<path d="M190.6 36.9235H182.05V66.5018H190.6V36.9235Z" fill="#201515"/>
<path d="M241.075 36.9235C238.66 36.9235 236.756 37.7757 235.364 39.4801C234.364 40.7049 233.604 42.5148 233.084 44.9096H232.833L231.715 36.9235H224.414V66.4978H232.963V51.3314C232.963 49.419 233.411 47.953 234.306 46.9332C235.202 45.9135 236.854 45.4036 239.263 45.4036H242.509V36.9235H241.075Z" fill="#201515"/>
<path d="M215.934 37.8903C213.938 36.703 211.421 36.1108 208.382 36.1137C203.598 36.1137 199.854 37.4758 197.15 40.1999C194.446 42.924 193.094 46.6795 193.094 51.4662C193.025 54.3602 193.657 57.2279 194.936 59.8249C196.106 62.1392 197.929 64.0599 200.179 65.3497C202.444 66.6586 205.138 67.3143 208.26 67.3169C210.961 67.3169 213.217 66.901 215.029 66.0692C216.732 65.322 218.214 64.1507 219.336 62.6676C220.404 61.2115 221.197 59.5726 221.676 57.8317L214.309 55.769C213.999 56.9012 213.402 57.934 212.576 58.7676C211.744 59.5996 210.35 60.0156 208.395 60.0156C206.069 60.0156 204.336 59.3497 203.195 58.018C202.367 57.056 201.847 55.6824 201.618 53.9014H221.789C221.871 53.0695 221.914 52.3718 221.914 51.8085V49.9669C221.963 47.4929 221.452 45.0398 220.419 42.7911C219.453 40.7426 217.889 39.0343 215.934 37.8903ZM208.135 43.1638C211.601 43.1638 213.567 44.8696 214.032 48.2813H201.769C201.964 47.1429 202.436 46.07 203.143 45.1571C204.267 43.8253 205.931 43.1609 208.135 43.1638Z" fill="#201515"/>
<path d="M186.415 25.0028C185.772 24.9809 185.131 25.0885 184.53 25.3193C183.93 25.5501 183.382 25.8992 182.918 26.346C182.462 26.7971 182.104 27.3382 181.867 27.935C181.631 28.5317 181.521 29.1711 181.545 29.8126C181.522 30.4582 181.632 31.1016 181.869 31.7027C182.105 32.3038 182.463 32.8497 182.92 33.3063C183.377 33.7629 183.924 34.1204 184.525 34.3565C185.126 34.5926 185.77 34.7023 186.415 34.6787C187.057 34.7029 187.696 34.5933 188.293 34.3568C188.89 34.1203 189.431 33.7621 189.882 33.3051C190.329 32.8433 190.678 32.2958 190.908 31.6956C191.138 31.0954 191.244 30.4549 191.221 29.8126C191.25 29.174 191.146 28.5363 190.915 27.9402C190.685 27.3441 190.332 26.8026 189.881 26.3504C189.429 25.8982 188.888 25.5452 188.292 25.3139C187.696 25.0826 187.058 24.9781 186.42 25.0071L186.415 25.0028Z" fill="#201515"/>
<path d="M168.76 36.1138C165.848 36.1138 163.508 37.0281 161.741 38.8567C160.432 40.2115 159.471 42.2337 158.859 44.9232H158.586L157.468 36.9371H150.166V75H158.716V59.3224H159.028C159.289 60.3677 159.654 61.384 160.12 62.3556C160.843 63.9383 162.029 65.2649 163.521 66.1602C165.069 67.0045 166.812 67.4248 168.574 67.3779C172.153 67.3779 174.879 65.9841 176.751 63.1962C178.622 60.4086 179.558 56.5188 179.558 51.527C179.558 46.7056 178.653 42.9314 176.841 40.2043C175.03 37.4773 172.336 36.1138 168.76 36.1138ZM169.627 57.5458C168.63 58.9902 167.07 59.7124 164.947 59.7124C164.072 59.7528 163.199 59.5841 162.402 59.2201C161.604 58.8561 160.905 58.3074 160.363 57.6195C159.256 56.23 158.704 54.3277 158.707 51.9126V51.3493C158.707 48.8967 159.259 47.019 160.363 45.7162C161.466 44.4133 162.994 43.7691 164.947 43.7836C167.108 43.7836 168.678 44.4696 169.657 45.8418C170.636 47.214 171.126 49.1278 171.126 51.5833C171.132 54.1225 170.635 56.11 169.635 57.5458H169.627Z" fill="#201515"/>
<path d="M87.5781 59.2605H58V66.5057H87.5781V59.2605Z" fill="#FF4F00"/>
</svg>
