<svg width="300" height="100" viewBox="0 0 300 100" fill="none" xmlns="http://www.w3.org/2000/svg">
<path d="M164.24 65.9056C163.502 64.614 163.04 63.159 162.828 61.459C162.798 61.2223 162.673 61.009 162.48 60.869C162.332 60.7606 162.155 60.704 161.975 60.704C161.92 60.704 161.865 60.709 161.81 60.719C161.492 60.7823 161.173 60.814 160.865 60.814C159.872 60.814 159.112 60.6473 159.112 58.5473V56.5373H159.107V28.304C159.107 27.8706 158.755 27.519 158.32 27.519H152.613C152.18 27.519 151.828 27.8706 151.828 28.304V59.2273C151.828 61.544 152.041 63.294 153.105 64.8573C154.407 66.6456 156.998 67.684 159.38 67.684C159.505 67.684 159.63 67.6823 159.75 67.6823H159.753C161.2 67.6823 162.612 67.5506 163.775 67.1456C164.017 67.0623 164.208 66.874 164.298 66.634C164.388 66.394 164.367 66.1273 164.24 65.9056Z" fill="#6D1ED4"/>
<path d="M179.727 64.9117C178.675 63.3783 178.347 63.1133 177.639 61.4583C177.544 61.24 177.484 61.0083 177.29 60.8683C177.142 60.76 176.965 60.705 176.784 60.705C176.73 60.705 176.675 60.71 176.62 60.72C176.302 60.7817 175.984 60.8133 175.675 60.8133C174.682 60.8133 173.922 60.6467 173.922 58.5483V56.5367L173.917 56.5383V28.305C173.917 27.87 173.565 27.52 173.132 27.52H167.424C166.99 27.52 166.639 27.87 166.639 28.305V59.2267C166.639 61.5434 166.852 63.2934 167.915 64.8567C169.217 66.6467 171.809 67.6833 174.19 67.6833C174.315 67.6833 174.439 67.6833 174.559 67.6817H174.564C176.01 67.6817 177.422 67.55 178.585 67.145C178.827 67.0617 179.692 66.6217 179.87 66.44C180.429 65.865 179.872 65.1233 179.727 64.9117Z" fill="#6D1ED4"/>
<path d="M134.422 37.6315C130.092 37.6315 126.412 39.1548 123.784 42.0381C121.305 44.7548 119.94 48.5732 119.94 52.7865C119.94 57.0648 121.292 60.7348 123.849 63.4031C126.535 66.2031 130.389 67.6832 134.992 67.6832C139.966 67.6832 144.136 65.9431 147.391 62.5098C147.689 62.1965 147.702 61.6231 147.366 61.4031C147.027 61.1815 145.332 60.0315 143.631 57.8232C143.427 57.6832 143.289 57.6048 143.086 57.6048H143.064C142.852 57.6115 142.654 57.7015 142.511 57.8548C140.556 59.9615 138.046 60.8215 135.15 60.8215C130.864 60.8215 128.222 58.7965 127.707 54.8698H147.599C147.999 54.8698 148.337 54.5681 148.381 54.1698C148.452 53.5315 148.489 52.8198 148.489 52.1131C148.489 48.0465 147.154 44.3798 144.729 41.7898C142.182 39.0698 138.617 37.6315 134.422 37.6315ZM127.844 49.1481C128.439 45.8832 130.962 43.8198 134.474 43.8198C138.019 43.8198 140.422 45.7931 141.044 49.1481H127.844Z" fill="#6D1ED4"/>
<path d="M193.707 37.6315C189.377 37.6315 185.697 39.1548 183.069 42.0381C180.591 44.7548 179.226 48.5732 179.226 52.7865C179.226 57.0648 180.577 60.7348 183.134 63.4031C185.821 66.2031 189.674 67.6832 194.279 67.6832C199.251 67.6832 203.421 65.9431 206.676 62.5098C206.974 62.1965 206.987 61.6231 206.651 61.4031C206.312 61.1815 204.617 60.0315 202.916 57.8232C202.714 57.6832 202.574 57.6048 202.371 57.6048H202.349C202.139 57.6115 201.939 57.7015 201.796 57.8548C199.841 59.9615 197.331 60.8215 194.436 60.8215C190.149 60.8215 187.507 58.7965 186.992 54.8698H206.884C207.286 54.8698 207.622 54.5681 207.666 54.1698C207.737 53.5315 207.774 52.8198 207.774 52.1131C207.774 48.0465 206.439 44.3798 204.014 41.7898C201.467 39.0698 197.902 37.6315 193.707 37.6315ZM187.129 49.1481C187.726 45.8832 190.249 43.8198 193.759 43.8198C197.304 43.8198 199.707 45.7931 200.331 49.1481H187.129Z" fill="#6D1ED4"/>
<path d="M121.343 65.725C121.317 65.6967 121.287 65.67 121.258 65.6417C121.237 65.62 121.213 65.6 121.193 65.5767C119.855 64.1817 118.772 62.5317 117.972 60.6733C117.847 60.385 117.563 60.1983 117.25 60.1983H102.282L120.588 36.7733C120.695 36.635 120.753 36.465 120.753 36.29V31.725C120.753 31.29 120.403 30.9383 119.968 30.9383H110.095V24.3917C110.095 24.1767 109.918 24 109.702 24H103.632C103.415 24 103.238 24.1767 103.238 24.3917V30.9383H93.5633C93.1283 30.9383 92.7767 31.29 92.7767 31.725V37.0167C92.7767 37.45 93.1283 37.8017 93.5633 37.8017H110.365L92.1667 61.0183C92.0583 61.1567 92 61.3267 92 61.5033V66.275C92 66.71 92.35 67.0617 92.785 67.0617H103.243V73.6067C103.243 73.825 103.42 74 103.637 74H109.707C109.923 74 110.1 73.825 110.1 73.6067V67.0617H120.783C121.1 67.0617 121.385 66.8717 121.508 66.58C121.63 66.2867 121.565 65.95 121.343 65.725Z" fill="#6D1ED4"/>
</svg>
