<svg width="377" height="100" viewBox="0 0 377 100" fill="none" xmlns="http://www.w3.org/2000/svg">
<path d="M245.72 53.929L249.93 55.7531C248.605 60.2899 244.364 62.2699 239.905 62.2699C232.422 62.2699 228.446 57.7175 228.446 50.39C228.446 43.7642 233.045 38.7597 239.78 38.7597C244.208 38.7597 247.903 40.6149 249.649 44.8243L245.44 46.6484C244.536 44.4969 242.556 42.8443 240.139 42.8443C235.665 42.8443 233.903 46.664 233.903 50.5615C233.903 54.5838 235.774 58.0761 240.186 58.0761C243.07 58.0761 244.769 56.595 245.72 53.929Z" fill="#030404"/>
<path d="M252.986 61.9113V39.0871H261.482C266.191 39.0871 270.291 40.7708 270.291 46.1339C270.291 49.2831 268.592 51.3566 265.598 52.1985L271.632 61.9113H266.144L260.672 53.1028H258.13V61.9113H252.986ZM258.13 49.5793H261.186C263.509 49.5793 265.24 48.7375 265.24 46.243C265.24 43.6394 263.338 43.047 261.186 43.047H258.13V49.5793Z" fill="#030404"/>
<path d="M274.469 61.9113V39.0871H281.298L286.989 54.0226L292.539 39.0871H299.243V61.9113H294.098V45.8844L287.784 61.9113H285.445L279.1 45.8844V61.9113H274.469Z" fill="#030404"/>
<path d="M121.531 77.3556L124.944 72.4236H122.092C121.948 72.4236 121.833 72.3082 121.833 72.1646V71.6959C121.833 71.5522 121.948 71.4368 122.092 71.4368H126.313C126.456 71.4368 126.572 71.5522 126.572 71.6959V71.849C126.572 71.9008 126.555 71.9502 126.527 71.995L123.197 76.9293H126.216C126.36 76.9293 126.475 77.0447 126.475 77.1884V77.6571C126.475 77.8007 126.36 77.9162 126.216 77.9162H121.743C121.6 77.9162 121.484 77.8007 121.484 77.6571V77.5063C121.487 77.4498 121.501 77.398 121.531 77.3556Z" fill="#030404"/>
<path d="M140.479 74.6696C140.479 73.4001 139.815 72.3379 138.44 72.3379C137.055 72.3379 136.461 73.4166 136.461 74.7097C136.461 75.9274 137.187 77.0061 138.517 77.0061C139.886 77.0037 140.479 75.8708 140.479 74.6696ZM135.152 74.6461C135.152 72.736 136.563 71.3416 138.51 71.3416C140.456 71.3416 141.78 72.736 141.78 74.6602C141.78 76.6151 140.416 78 138.454 78C136.492 78 135.152 76.6151 135.152 74.6461Z" fill="#030404"/>
<path d="M151.196 71.4368H151.935C152.079 71.4368 152.194 71.5522 152.194 71.6959V74.1807H155.186V71.6959C155.186 71.5522 155.301 71.4368 155.445 71.4368H156.18C156.323 71.4368 156.439 71.5522 156.439 71.6959V77.6547C156.439 77.7984 156.323 77.9138 156.18 77.9138H155.445C155.301 77.9138 155.186 77.7984 155.186 77.6547V75.1652H152.194V77.6547C152.194 77.7984 152.079 77.9138 151.935 77.9138H151.196C151.052 77.9138 150.937 77.7984 150.937 77.6547V71.6959C150.937 71.5522 151.052 71.4368 151.196 71.4368Z" fill="#030404"/>
<path d="M170.909 74.6696C170.909 73.4001 170.245 72.3379 168.87 72.3379C167.485 72.3379 166.891 73.4166 166.891 74.7097C166.891 75.9274 167.617 77.0061 168.947 77.0061C170.316 77.0037 170.909 75.8708 170.909 74.6696ZM165.584 74.6461C165.584 72.736 166.995 71.3416 168.943 71.3416C170.891 71.3416 172.212 72.736 172.212 74.6602C172.212 76.6151 170.848 78 168.886 78C166.924 78 165.584 76.6151 165.584 74.6461Z" fill="#030404"/>
<path d="M128.381 25.8679C127.157 25.8679 125.979 26.5745 125.437 27.7757L115.969 49.0206C115.239 50.6457 115.969 52.5535 117.594 53.2836L138.839 62.7518C139.616 63.1051 140.488 63.1287 141.312 62.8225C142.113 62.5163 142.749 61.9039 143.102 61.1267L152.57 39.8821C153.301 38.2569 152.57 36.3492 150.945 35.619L129.7 26.1508C129.253 25.9386 128.805 25.8679 128.381 25.8679ZM140.134 66.8733C139.145 66.8733 138.179 66.6616 137.261 66.261L116.016 56.7927C114.297 56.0155 112.954 54.6259 112.295 52.8594C111.612 51.093 111.659 49.1616 112.436 47.4423L121.904 26.1977C123.506 22.6412 127.698 21.0161 131.255 22.6177L152.5 32.0859C156.056 33.6875 157.681 37.8799 156.08 41.4363L146.611 62.6809C145.834 64.4003 144.445 65.7428 142.678 66.4023C141.854 66.7085 140.982 66.8733 140.134 66.8733Z" fill="#089949"/>
<path d="M182.36 33.3046C180.593 33.3046 179.133 34.7413 179.133 36.5313V59.7779C179.133 61.5444 180.57 63.0046 182.36 63.0046H205.607C207.373 63.0046 208.833 61.5679 208.833 59.7779V36.5313C208.833 34.7649 207.397 33.3046 205.607 33.3046H182.36ZM205.607 66.8673H182.36C178.45 66.8673 175.27 63.6877 175.27 59.7779V36.5313C175.27 32.6216 178.45 29.4419 182.36 29.4419H205.607C209.517 29.4419 212.696 32.6216 212.696 36.5313V59.7779C212.696 63.6877 209.517 66.8673 205.607 66.8673Z" fill="#F9B21D"/>
<path d="M119.512 41.0509L116.642 47.4897L117.948 55.5389C118.23 57.3054 117.029 58.954 115.286 59.2367L92.3218 62.958C91.4739 63.0993 90.626 62.8874 89.9194 62.3927C89.2128 61.8981 88.7653 61.1445 88.624 60.2966L84.9026 37.3561C84.6199 35.5897 85.8212 33.941 87.5641 33.6584L110.528 29.937C110.693 29.9135 110.882 29.8899 111.047 29.8899C111.73 29.8899 112.389 30.1019 112.931 30.5023C113.637 30.9969 114.085 31.7506 114.226 32.5985L115.514 40.5393L118.385 34.1004L118.042 31.9861C117.736 30.1254 116.723 28.4768 115.192 27.3698C113.661 26.2628 111.777 25.8153 109.916 26.1215L86.9517 29.8428C83.089 30.4552 80.4746 34.1059 81.087 37.9685L84.8084 60.9089C85.1146 62.7696 86.1273 64.4183 87.6583 65.5253C88.8595 66.3967 90.2962 66.8678 91.7801 66.8678C92.1805 66.8678 92.5573 66.8207 92.9577 66.7736L115.898 63.0522C119.761 62.4399 122.376 58.7892 121.763 54.9265L119.512 41.0509Z" fill="#E42527"/>
<path d="M147.166 51.9507L150.163 45.2184L149.068 37.1674C148.95 36.3195 149.186 35.4716 149.704 34.7885C150.222 34.1055 150.976 33.658 151.824 33.5402L174.859 30.4077C175 30.3842 175.141 30.3842 175.283 30.3842C176.157 30.3842 176.972 30.7464 177.566 31.3406C178.54 30.444 179.764 29.8175 181.121 29.5768C180.704 28.9781 180.192 28.4403 179.593 27.9818C178.086 26.8277 176.225 26.3331 174.341 26.5922L151.306 29.7247C149.421 29.9838 147.773 30.9494 146.619 32.4568C145.464 33.9642 144.97 35.8248 145.229 37.7091L147.166 51.9507Z" fill="#226DB4"/>
<path d="M185.457 55.7032L182.414 33.3281H182.363C180.597 33.3281 179.136 34.7648 179.136 36.5548V37.9484L181.618 56.1978C181.736 57.0457 181.5 57.8936 180.982 58.5769C180.464 59.2597 179.71 59.7072 178.862 59.8249L155.828 62.9575C154.061 63.193 152.436 61.9682 152.2 60.2018L151.151 52.4878L148.154 59.2201L148.361 60.7435C148.856 64.2764 151.894 66.8672 155.38 66.8672C155.686 66.8672 156.016 66.8437 156.346 66.7966L179.381 63.6876C183.267 63.1459 185.975 59.5659 185.457 55.7032Z" fill="#226DB4"/>
</svg>
