<svg width="90" height="90" viewBox="0 0 90 90" fill="none" xmlns="http://www.w3.org/2000/svg">
<path fill-rule="evenodd" clip-rule="evenodd" d="M47.7144 27.1507L61.6992 41.1178L61.7064 41.1104C63.3053 42.7093 64.2034 44.8778 64.2034 47.1388C64.2034 51.8443 60.3833 55.6644 55.678 55.6644C53.4531 55.6644 51.318 54.7947 49.7269 53.2436C49.7009 53.2183 49.6752 53.1929 49.6495 53.1672L49.65 53.1668L36.9497 40.4665L36.9431 40.4733C36.2272 39.7573 35.2561 39.355 34.2436 39.355C32.1367 39.355 30.4261 41.0656 30.4261 43.1726C30.4261 44.1851 30.8283 45.1562 31.5442 45.8721L31.5441 45.8723L45.3356 59.6637L45.3363 59.6631C49.1775 63.5043 54.3873 65.6623 59.8197 65.6623C71.1245 65.6623 80.3027 56.4844 80.3027 45.1796C80.3027 33.8749 71.1245 24.697 59.8197 24.697C57.7942 24.697 55.7839 24.9973 53.8536 25.5851C52.7048 25.9307 51.4802 25.3542 51.015 24.2482C51.0138 24.2487 51.0136 24.2485 51.0136 24.2485C50.7548 23.6334 50.7695 22.9373 51.0541 22.3336C51.3387 21.73 51.8664 21.2756 52.5056 21.0837C54.8727 20.3667 57.337 19.9995 59.8197 19.9995C73.7172 19.9995 85 31.2824 85 45.1796C85 59.0769 73.7172 70.3598 59.8197 70.3598C53.212 70.3598 46.8722 67.7626 42.1648 63.1336L42.1556 63.1429L28.0159 49.0034L28.02 48.9993C26.5434 47.4223 25.7181 45.3399 25.7181 43.1726C25.7181 38.4673 29.5383 34.6472 34.2436 34.6472C36.4109 34.6472 38.4933 35.4725 40.0703 36.9491L40.0808 36.9386L53.0564 49.9141C53.7641 50.5826 54.7017 50.9565 55.678 50.9565C57.785 50.9565 59.4956 49.2458 59.4956 47.1388C59.4956 46.1517 59.1133 45.2039 58.4305 44.4935L58.4231 44.5009L44.3936 30.4715L44.3967 30.4683C40.5823 26.7662 35.4725 24.691 30.1489 24.691C18.8581 24.691 9.69156 33.8575 9.69156 45.1482C9.69156 56.4389 18.8581 65.6054 30.1489 65.6054C32.3859 65.6054 34.117 65.4332 35.9872 64.8145C37.1039 64.4526 38.3152 64.9818 38.8083 66.0471C38.8105 66.0463 38.8106 66.0465 38.8106 66.0465C39.0958 66.6624 39.1028 67.3712 38.83 67.9927C38.5572 68.6143 38.0306 69.0888 37.3841 69.2957C35.0692 70.0484 32.8566 70.2969 30.1489 70.2969C16.2688 70.2969 5 59.0281 5 45.1482C5 31.2683 16.2688 19.9995 30.1489 19.9995C36.7169 19.9995 43.0198 22.5689 47.7144 27.1507Z" fill="#226DB4"/>
</svg>
