<svg width="362" height="100" viewBox="0 0 362 100" fill="none" xmlns="http://www.w3.org/2000/svg">
<path d="M117.117 74.2719H77.7995C75.0409 74.2719 72.5763 72.625 71.5207 70.0764C70.465 67.5279 71.0434 64.6205 72.994 62.6702L100.227 35.4369H80.7087C75.3467 35.4369 71 31.0902 71 25.7282H107.259C110.017 25.7282 112.482 27.3746 113.538 29.9231C114.593 32.4717 114.015 35.3786 112.065 37.3298L84.8314 64.5631H107.408C112.77 64.5631 117.117 68.9099 117.117 74.2719ZM290.903 43.932C290.903 33.4928 282.41 25 271.971 25C266.387 25 261.361 27.4314 257.893 31.2896C254.425 27.4314 249.4 25 243.816 25C233.376 25 224.884 33.4928 224.884 43.932V74.2718C230.246 74.2718 234.592 69.9251 234.592 64.5631V43.932C234.592 38.8463 238.73 34.7087 243.816 34.7087C248.901 34.7087 253.039 38.8463 253.039 43.932V64.5631C253.039 69.9251 257.386 74.2719 262.748 74.2719V43.932C262.748 38.8463 266.885 34.7087 271.971 34.7087C277.057 34.7087 281.194 38.8463 281.194 43.932V64.5631C281.194 69.9251 285.541 74.2719 290.903 74.2719L290.903 43.932ZM220.029 50C220.029 63.8071 208.836 75 195.029 75C181.222 75 170.029 63.8071 170.029 50C170.029 36.1929 181.222 25 195.029 25C208.836 25 220.029 36.1929 220.029 50ZM210.32 50C210.32 41.5549 203.474 34.7087 195.029 34.7087C186.584 34.7087 179.738 41.5549 179.738 50C179.738 58.4451 186.584 65.2913 195.029 65.2913C203.474 65.2913 210.32 58.4451 210.32 50ZM166.146 50C166.146 63.8071 154.953 75 141.146 75C127.339 75 116.146 63.8071 116.146 50C116.146 36.1929 127.339 25 141.146 25C154.953 25 166.146 36.1929 166.146 50ZM156.437 50C156.437 41.5549 149.591 34.7087 141.146 34.7087C132.701 34.7087 125.854 41.5549 125.854 50C125.854 58.4451 132.701 65.2913 141.146 65.2913C149.591 65.2913 156.437 58.4451 156.437 50Z" fill="#0B5CFF"/>
</svg>
